<svg fill="none" height="71" viewBox="0 0 69 71" width="69" xmlns="http://www.w3.org/2000/svg"><g stroke="#b30000"><path d="m46.0959 13.7888c3.4114 0 6.094-3.021 6.094-6.64442 0-3.62345-2.6826-6.64438-6.094-6.64438-3.412 0-6.0947 3.02089-6.0947 6.64438 0 3.62352 2.6827 6.64442 6.0947 6.64442z"/><path d="m59.3883 47.4845c-.3716.2411-.7762.4338-1.2155.5595-.6066.1796-1.2169.2183-1.8123.1474-1.6299-.0084-4.1064-.3342-8.3819-.95-.0008-.0001-.0017-.0002-.0025-.0003l-9.8324-1.3203.0318 20.5639v.0008c0 2.1727-1.6118 4.0144-3.6967 4.0144-2.0846 0-3.6988-1.8413-3.6988-4.0144v-25.3535-.036l.0051-.0356.2385-1.6465.0076-.0524.0184-.0496c.2602-.7025.6414-1.2943 1.1769-1.7103.541-.4203 1.2034-.6329 1.9704-.6329h.0173l.0172.0012 8.71.6029.0063.0004v.0001l7.1087.5823-4.0249-16.7004-6.7586 2.6695c-.2741.2239-.6225.3822-1.0228.3566h-.0007l-.0692-.0046c-.109.0051-.2111-.005-.3008-.0208l-7.7687-.4955 12.0053 5.8057.4197.2029-.1732.4329-.7568 1.8915-.1992.4978-.4827-.2335-36.14978-17.4819-.42013-.2032.17376-.4331.75878-1.8914.19948-.4973.4823.2333 15.74609 7.6169c.0958-.5002.2738-.9543.5166-1.3176.3313-.4957.8471-.9027 1.4889-.8608l-.0002-.0001-.0145.2254m35.6832 29.5366-35.6682-29.7619-.0147.2245m35.6829 29.5374h.011l.1279-.0879c2.1046-1.4458 3.0917-4.5071 2.3677-7.4984l-5.3815-22.3226-.0002-.0008c-.8615-3.5502-3.9046-5.9769-6.9603-5.0882l-.0001.0001c-1.3429.3907-2.393 1.3566-3.074 2.5939l-8.9198 3.5273zm-35.6832-29.5366-.0451.1061.0372.0158m.0079-.1219.0003-.0008m-.0003.0008-.0079.1219m0 0-.0097.1517.0099-.1517m-.0002 0h.0002m0 0 .4229.1796.0321-.499-.3538-.0228-.0932.2195m-.008.1227.008-.1227m1.9198-3.2422.4457.2296.0145-.0342zm0 0-.196.4615-.033-.017zm-3.4854 5.9574c.001-.0217.0005-.0424 0-.0631s-.001-.0415 0-.0631c.0075-.1398.0219-.2763.0426-.4087zm0 0-.2884-.1395-.005-.0025-.2004-.0969zm-16.38932-7.928.45118.2182.01287-.0321zm0 0-.21772.4501.03112.015zm35.39102 19.3733-.4642-.1857.013-.0325zm0 0 .2177-.4501-.0315-.0152zm-15.7462-14.2784-.5289-.0338-.2071.4877.5288.0339zm3.3924 6.0468-1.1934-.5772 1.3229.0844z"/><path d="m22.5837 25.6112 10.9467 5.2711.4827.2325.1986-.4977.4442-1.1133.1728-.4333-.4202-.2024-23.7702-11.4505-.4824-.2324-.1988.4972-.44552 1.114-.17336.4335.4206.2026 8.18788 3.9446v.2136 42.1147h-16.9467-.5v.5 3.4117.5h.5 28.3382.5v-.5-3.4117-.5h-.5-6.7545z" fill="#f2f2f2"/><path d="m64.1016 66.1108.0283-.3387.0408-.4877-.4867-.0512-6.2251-.6555v-13.3958h9.1485c1.0258 0 1.6862-.9853 1.6862-1.9697 0-.9843-.6596-1.9698-1.6862-1.9698h-.0237v-10.0455l.8271-8.2964.0002-.0016c.1004-1.0406-.8039-1.8576-1.8183-1.9804l-.001-.0001c-1.011-.1202-2.0766.465-2.1784 1.5226-.0001.0006-.0001.0011-.0002.0016l-1.4505 14.5082zm0 0c.9076.2306 1.535 1.1147 1.535 2.0948 0 1.142-.8515 2.1524-2.0049 2.1524-1.1507 0-2.0016-1.0111-2.0016-2.1524 0-.1785.0213-.3524.0605-.5187l-4.2317-.4468v2.4096.5h-.5-2.0098-.5v-.5-2.3706l-3.8544.4075c.039.1679.0592.3423.0592.519 0 1.1431-.8565 2.1524-2.0055 2.1524-1.1491 0-2.0056-1.0093-2.0056-2.1524 0-.9697.6165-1.844 1.5056-2.0866l-.029-.3469-.0408-.4875.4865-.0514 5.884-.6216v-13.4304h-8.4538c-1.0305 0-1.687-.9861-1.687-1.9698 0-.9836.6565-1.9697 1.687-1.9697h18.3313m-.225 18.8691.225-18.8691m0-2.311c-.1759.0223-.3591.0239-.5465.0023l-.0017-.0002c-1.0106-.1201-1.921-.9371-1.8158-1.9815zm0 0v2.311m0-2.311v2.311"/></g></svg>