<svg fill="none" height="58" viewBox="0 0 58 58" width="58" xmlns="http://www.w3.org/2000/svg"><path d="m19.6875 6.22151c-.7011-.04593-1.3295.77959-1.5051 1.9059l.1752.08474-.1581.32672zm0 0 .4328.02787zm24.4311 28.02979-.0047-.0007-10.4045-1.3971-.5675-.0762.0009.5725.0327 21.1357v.0007c-.0003 1.7111-1.2511 3.0137-2.6967 3.0137-1.4463 0-2.6988-1.3034-2.6988-3.0144v-25.3174l.2255-1.5571c.2126-.5545.4943-.9554.8345-1.2197.3412-.2651.7754-.4195 1.3402-.4225l8.6858.6011.0063.0005 7.7913.6383.6889.0564-.162-.6719-4.3216-17.93148-.1347-.55921-.535.21132-7.3715 2.91157-.084.0332-.0672.0606c-.15.1353-.2719.17-.3626.1642l-.1001-.0066-.0367-.0024-.0366.003c-.0221.0018-.0554.0002-.1016-.0089l-.0326-.0065-.0331-.0021-10.3471-.6601-.2495.9491 13.8843 6.7144-.3844.9607-35.24699-17.04528.38554-.96106 15.90705 7.6947.6821.32997.0351-.75695c.0019-.04197.0008-.07993.0004-.09828l-.0004-.0221c-.0001-.00276 0-.00439 0-.00519.0322-.5898.2017-1.08957.423-1.42074.2287-.34218.4509-.4279.5925-.41863l.0005.00004.4329.02787.3538.02278.0003-.00088.1851.01185 12.9795.83094.1117.00715.1041-.04117 9.1949-3.63617.1749-.06919.086-.16736c.5789-1.12717 1.4671-1.94326 2.5537-2.25947 2.3052-.670412 4.9263 1.13751 5.7092 4.36382l5.3814 22.32235.0002.0004c.6333 2.6166-.2285 5.1511-1.8392 6.3511h-.0042l-.1286.0893c-.3292.2285-.68.4022-1.0551.5093l-.005.0015c-.4748.1408-.9564.1711-1.4366.1108l-.0303-.0038-.0306-.0001c-1.5429-.0042-3.9416-.3162-8.2748-.9402zm-25.9788-25.58905.0595-.12294-15.99764-7.586809 15.44434 7.470859c-.0021.02854-.0039.05718-.0055.0859l-.0001.00372c-.0019.0397-.001.0758-.0005.09513l.0001.00316.0004.02209c0 .00459-.0001.00607 0 .00576zm-16.57592-7.46284-.572181 1.42627 35.698601 17.26372zm35.76382 18.44289.5706-1.4261-13.1106-6.3402-1.2253-.0782.0319-.499.2176-.4501 1.1053.5345 9.0242.5757c.0775.0154.1589.0234.2398.0168l.1008.0066c.2639.0169.5123-.096.7294-.2919z" stroke="#b30000"/></svg>