<svg width="138" height="62" viewBox="0 0 138 62" fill="none" xmlns="http://www.w3.org/2000/svg">
<path d="M40.5573 0.535156H4.7993C2.15009 0.535156 0 2.04655 0 3.90881V9.53156C0 11.3938 2.15009 12.9052 4.7993 12.9052H20.797V18.1951C20.797 19.4456 21.8592 20.5432 23.5102 21.011C24.1373 21.1909 24.2141 21.5777 24.2141 21.7397C24.2141 21.9016 24.1501 22.2885 23.5102 22.4684L20.0931 23.422C18.4421 23.8808 17.3799 24.9874 17.3799 26.2379C17.3799 27.4884 18.4421 28.5859 20.0931 29.0537L23.4974 30.0164C24.1245 30.1963 24.2013 30.5831 24.2013 30.7451C24.2013 30.907 24.1373 31.2939 23.4974 31.4738L20.0931 32.4184C18.4421 32.8772 17.3799 33.9838 17.3799 35.2343C17.3799 36.4848 18.4421 37.5823 20.0931 38.0501L23.4974 39.0128C24.1245 39.1927 24.2013 39.5795 24.2013 39.7415C24.2013 39.9034 24.1373 40.2902 23.4974 40.4702C21.8464 40.929 20.7842 42.0356 20.7842 43.2861C20.7842 44.5276 22.2176 45.5352 23.9837 45.5352V43.2861C23.9837 42.9622 24.2525 42.6833 24.6876 42.5573C26.3386 42.0985 27.4008 40.992 27.4008 39.7415C27.4008 38.491 26.3386 37.3934 24.6876 36.9256L21.2833 35.963C20.6562 35.7831 20.5794 35.3962 20.5794 35.2343C20.5794 35.0723 20.6434 34.6855 21.2833 34.5056L24.6876 33.5429C26.3386 33.0841 27.4008 31.9776 27.4008 30.7271C27.4008 29.4766 26.3386 28.379 24.6876 27.9112L21.2833 26.9486C20.6562 26.7687 20.5794 26.3818 20.5794 26.2199C20.5794 26.0579 20.6434 25.6711 21.2833 25.4912L24.6876 24.5286C26.3386 24.0697 27.4008 22.9632 27.4008 21.7127C27.4008 20.4622 26.3386 19.3646 24.6876 18.8968C24.2653 18.7799 23.9837 18.492 23.9837 18.1681V12.8782H40.5445C43.1937 12.8782 45.3438 11.3668 45.3438 9.50457V3.90881C45.3566 2.04655 43.2065 0.535156 40.5573 0.535156ZM42.157 9.53156C42.157 10.1523 41.4403 10.6561 40.5573 10.6561H4.7993C3.91623 10.6561 3.19953 10.1523 3.19953 9.53156V3.90881C3.19953 3.28805 3.91623 2.78426 4.7993 2.78426H40.5573C41.4403 2.78426 42.157 3.28805 42.157 3.90881V9.53156Z" fill="black"/>
<rect x="1.42188" y="1.78516" width="42.6604" height="9.996" fill="black"/>
<path d="M36.1037 41.7602C34.2437 41.7602 32.7587 41.0852 31.6487 39.7352C30.5387 38.3852 29.9837 36.6152 29.9837 34.4252C29.9837 32.0252 30.5387 29.7602 31.6487 27.6302C32.7587 25.4702 34.2287 23.7452 36.0587 22.4552C37.9187 21.1352 39.8837 20.4752 41.9537 20.4752C42.6137 20.4752 43.0487 20.6102 43.2587 20.8802C43.4987 21.1202 43.6937 21.5702 43.8437 22.2302C44.4737 22.1102 45.1337 22.0502 45.8237 22.0502C47.2937 22.0502 48.0287 22.5752 48.0287 23.6252C48.0287 24.2552 47.8037 25.7552 47.3537 28.1252C46.6637 31.5752 46.3187 33.9752 46.3187 35.3252C46.3187 35.7752 46.4237 36.1352 46.6337 36.4052C46.8737 36.6752 47.1737 36.8102 47.5337 36.8102C48.1037 36.8102 48.7937 36.4502 49.6037 35.7302C50.4137 34.9802 51.5087 33.7802 52.8887 32.1302C53.2487 31.7102 53.6537 31.5002 54.1037 31.5002C54.4937 31.5002 54.7937 31.6802 55.0037 32.0402C55.2437 32.4002 55.3637 32.8952 55.3637 33.5252C55.3637 34.7252 55.0787 35.6552 54.5087 36.3152C53.2787 37.8452 51.9737 39.1352 50.5937 40.1852C49.2137 41.2352 47.8787 41.7602 46.5887 41.7602C45.5987 41.7602 44.6837 41.4302 43.8437 40.7702C43.0337 40.0802 42.4187 39.1502 41.9987 37.9802C40.4387 40.5002 38.4737 41.7602 36.1037 41.7602ZM37.7237 37.2152C38.3837 37.2152 39.0137 36.8252 39.6137 36.0452C40.2137 35.2652 40.6487 34.2302 40.9187 32.9402L42.5837 24.6602C41.3237 24.6902 40.1537 25.1702 39.0737 26.1002C38.0237 27.0002 37.1837 28.2002 36.5537 29.7002C35.9237 31.2002 35.6087 32.7902 35.6087 34.4702C35.6087 35.4002 35.7887 36.0902 36.1487 36.5402C36.5387 36.9902 37.0637 37.2152 37.7237 37.2152ZM60.0764 42.7502C58.5164 42.7502 57.3164 42.3902 56.4764 41.6702C55.6664 40.9502 55.2614 40.1402 55.2614 39.2402C55.2614 38.4602 55.5464 37.7852 56.1164 37.2152C56.6864 36.6452 57.5264 36.3602 58.6364 36.3602C59.0264 36.3602 59.4764 36.4052 59.9864 36.4952C60.5264 36.5552 60.9314 36.6002 61.2014 36.6302C61.1714 35.8502 60.9914 35.1152 60.6614 34.4252C60.3614 33.7352 59.9714 33.0752 59.4914 32.4452C59.0114 31.7852 58.5614 31.2152 58.1414 30.7352C57.2114 32.5052 56.2814 33.9752 55.3514 35.1452C54.4514 36.3152 53.4614 37.4252 52.3814 38.4752C51.8414 39.0152 51.2714 39.2852 50.6714 39.2852C50.1914 39.2852 49.8014 39.1202 49.5014 38.7902C49.2014 38.4302 49.0514 37.9952 49.0514 37.4852C49.0514 36.8852 49.2614 36.3302 49.6814 35.8202L50.2664 35.1002C51.9164 33.0602 53.1614 31.3802 54.0014 30.0602C54.5114 29.1902 55.1114 28.0352 55.8014 26.5952C56.4914 25.1252 57.1664 23.6102 57.8264 22.0502C58.3964 20.7302 59.5814 20.0702 61.3814 20.0702C62.2214 20.0702 62.8064 20.1452 63.1364 20.2952C63.4664 20.4452 63.6314 20.6852 63.6314 21.0152C63.6314 21.1952 63.5714 21.4802 63.4514 21.8702C63.3314 22.2602 63.1664 22.6502 62.9564 23.0402C62.4164 24.1202 62.1464 25.0352 62.1464 25.7852C62.1464 26.2352 62.2964 26.7302 62.5964 27.2702C62.9264 27.8102 63.4214 28.4852 64.0814 29.2952C65.0414 30.5552 65.7614 31.6352 66.2414 32.5352C66.7514 33.4052 67.0064 34.3652 67.0064 35.4152C67.0064 35.7152 66.9764 36.1352 66.9164 36.6752C68.3864 36.1052 70.1114 34.5902 72.0914 32.1302C72.4514 31.7102 72.8564 31.5002 73.3064 31.5002C73.6964 31.5002 73.9964 31.6802 74.2064 32.0402C74.4464 32.4002 74.5664 32.8952 74.5664 33.5252C74.5664 34.6652 74.2814 35.5952 73.7114 36.3152C72.2114 38.1752 70.7714 39.4502 69.3914 40.1402C68.0414 40.8002 66.3614 41.1602 64.3514 41.2202C63.1514 42.2402 61.7264 42.7502 60.0764 42.7502ZM90.9805 31.5002C91.3705 31.5002 91.6705 31.6802 91.8805 32.0402C92.1205 32.4002 92.2405 32.8952 92.2405 33.5252C92.2405 34.7252 91.9555 35.6552 91.3855 36.3152C90.0955 37.9052 88.6855 39.2102 87.1555 40.2302C85.6255 41.2502 83.8705 41.7602 81.8905 41.7602C75.7705 41.7602 72.7105 37.4552 72.7105 28.8452C72.7105 27.5252 72.7555 26.1902 72.8455 24.8402H71.0905C70.1905 24.8402 69.5755 24.6752 69.2455 24.3452C68.9455 24.0152 68.7955 23.4902 68.7955 22.7702C68.7955 21.0902 69.4705 20.2502 70.8205 20.2502H73.3855C73.8955 16.9502 74.6755 13.9352 75.7255 11.2052C76.7755 8.47515 78.0355 6.30015 79.5055 4.68015C81.0055 3.06015 82.6105 2.25016 84.3205 2.25016C85.5805 2.25016 86.5705 2.80516 87.2905 3.91516C88.0105 5.02516 88.3705 6.42016 88.3705 8.10015C88.3705 12.7502 86.4205 16.8002 82.5205 20.2502H87.5605C88.0405 20.2502 88.3855 20.3552 88.5955 20.5652C88.8055 20.7752 88.9105 21.1652 88.9105 21.7352C88.9105 23.8052 87.2155 24.8402 83.8255 24.8402H78.3355C78.2755 26.3402 78.2455 27.5102 78.2455 28.3502C78.2455 31.4702 78.6055 33.6602 79.3255 34.9202C80.0755 36.1802 81.2455 36.8102 82.8355 36.8102C84.1255 36.8102 85.2655 36.4202 86.2555 35.6402C87.2455 34.8602 88.4155 33.6902 89.7655 32.1302C90.1255 31.7102 90.5305 31.5002 90.9805 31.5002ZM83.1055 6.57016C82.6555 6.57016 82.1455 7.14016 81.5755 8.28016C81.0355 9.39016 80.5105 10.9502 80.0005 12.9602C79.5205 14.9402 79.1155 17.1452 78.7855 19.5752C80.5555 18.0452 81.8755 16.3352 82.7455 14.4452C83.6455 12.5252 84.0955 10.7852 84.0955 9.22515C84.0955 7.45516 83.7655 6.57016 83.1055 6.57016ZM108.647 31.5002C109.037 31.5002 109.337 31.6802 109.547 32.0402C109.787 32.4002 109.907 32.8952 109.907 33.5252C109.907 34.7252 109.622 35.6552 109.052 36.3152C107.942 37.6652 106.367 38.9102 104.327 40.0502C102.317 41.1902 100.157 41.7602 97.8465 41.7602C94.6965 41.7602 92.2515 40.9052 90.5115 39.1952C88.7715 37.4852 87.9015 35.1452 87.9015 32.1752C87.9015 30.1052 88.3365 28.1852 89.2065 26.4152C90.0765 24.6152 91.2765 23.1902 92.8065 22.1402C94.3665 21.0902 96.1215 20.5652 98.0715 20.5652C99.8115 20.5652 101.207 21.0902 102.257 22.1402C103.307 23.1602 103.832 24.5552 103.832 26.3252C103.832 28.3952 103.082 30.1802 101.582 31.6802C100.112 33.1502 97.6065 34.3202 94.0665 35.1902C94.8165 36.5702 96.2415 37.2602 98.3415 37.2602C99.6915 37.2602 101.222 36.7952 102.932 35.8652C104.672 34.9052 106.172 33.6602 107.432 32.1302C107.792 31.7102 108.197 31.5002 108.647 31.5002ZM97.3065 24.9752C96.1965 24.9752 95.2515 25.6202 94.4715 26.9102C93.7215 28.2002 93.3465 29.7602 93.3465 31.5902V31.6802C95.1165 31.2602 96.5115 30.6302 97.5315 29.7902C98.5515 28.9502 99.0615 27.9752 99.0615 26.8652C99.0615 26.2952 98.8965 25.8452 98.5665 25.5152C98.2665 25.1552 97.8465 24.9752 97.3065 24.9752ZM124.423 26.7302C125.083 26.7302 125.638 26.9702 126.088 27.4502C126.568 27.9002 126.808 28.4702 126.808 29.1602C126.808 29.5502 126.718 29.9702 126.538 30.4202C126.058 31.5302 125.383 32.4602 124.513 33.2102C123.643 33.9602 122.683 34.3352 121.633 34.3352C120.793 34.3352 120.073 34.0352 119.473 33.4352C118.903 32.8352 118.618 32.0252 118.618 31.0052C118.618 30.4352 118.648 29.8202 118.708 29.1602C118.768 28.6802 118.798 28.3502 118.798 28.1702C118.798 27.9302 118.738 27.7502 118.618 27.6302C118.528 27.5102 118.408 27.4502 118.258 27.4502C117.838 27.4502 117.268 27.9602 116.548 28.9802C115.828 29.9702 115.108 31.2902 114.388 32.9402C113.668 34.5902 113.083 36.3302 112.633 38.1602C112.303 39.6002 111.928 40.5602 111.508 41.0402C111.088 41.5202 110.398 41.7602 109.438 41.7602C108.298 41.7602 107.488 41.1602 107.008 39.9602C106.558 38.7602 106.333 36.8402 106.333 34.2002C106.333 30.3002 106.888 26.5952 107.998 23.0852C108.268 22.2152 108.703 21.5852 109.303 21.1952C109.933 20.7752 110.803 20.5652 111.913 20.5652C112.513 20.5652 112.933 20.6402 113.173 20.7902C113.413 20.9402 113.533 21.2252 113.533 21.6452C113.533 22.1252 113.308 23.2052 112.858 24.8852C112.558 26.0852 112.318 27.1352 112.138 28.0352C111.958 28.9352 111.808 30.0452 111.688 31.3652C112.678 28.7852 113.788 26.6852 115.018 25.0652C116.248 23.4452 117.448 22.2902 118.618 21.6002C119.788 20.9102 120.853 20.5652 121.813 20.5652C122.683 20.5652 123.343 20.8202 123.793 21.3302C124.273 21.8102 124.513 22.5302 124.513 23.4902C124.513 24.0602 124.348 25.1402 124.018 26.7302H124.423Z" fill="black"/>
<path d="M31.6487 39.7352L32.4211 39.1001H32.4211L31.6487 39.7352ZM31.6487 27.6302L32.5355 28.0923L32.5381 28.0872L31.6487 27.6302ZM36.0587 22.4552L36.6349 23.2725L36.6374 23.2707L36.0587 22.4552ZM43.2587 20.8802L42.4693 21.4941L42.5076 21.5432L42.5516 21.5873L43.2587 20.8802ZM43.8437 22.2302L42.8686 22.4518L43.0825 23.3931L44.0308 23.2125L43.8437 22.2302ZM47.3537 28.1252L48.3343 28.3213L48.3361 28.3117L47.3537 28.1252ZM46.6337 36.4052L45.8443 37.0191L45.8645 37.045L45.8863 37.0695L46.6337 36.4052ZM49.6037 35.7302L50.2681 36.4776L50.2756 36.4708L50.2831 36.4639L49.6037 35.7302ZM52.8887 32.1302L52.1294 31.4793L52.1216 31.4886L52.8887 32.1302ZM55.0037 32.0402L54.1399 32.544L54.155 32.5699L54.1716 32.5949L55.0037 32.0402ZM54.5087 36.3152L53.7519 35.6615L53.7404 35.6749L53.7293 35.6886L54.5087 36.3152ZM50.5937 40.1852L51.1992 40.981L50.5937 40.1852ZM43.8437 40.7702L43.1952 41.5314L43.2103 41.5442L43.2259 41.5565L43.8437 40.7702ZM41.9987 37.9802L42.9399 37.6423L42.2395 35.6913L41.1484 37.4538L41.9987 37.9802ZM39.6137 36.0452L38.8211 35.4354L39.6137 36.0452ZM40.9187 32.9402L41.8975 33.145L41.8991 33.1373L40.9187 32.9402ZM42.5837 24.6602L43.5641 24.8573L43.8107 23.6307L42.5599 23.6604L42.5837 24.6602ZM39.0737 26.1002L39.7245 26.8594L39.7262 26.8579L39.0737 26.1002ZM36.5537 29.7002L37.4757 30.0874L36.5537 29.7002ZM36.1487 36.5402L35.3678 37.1649L35.3801 37.1802L35.393 37.1951L36.1487 36.5402ZM36.1037 40.7602C34.5208 40.7602 33.3276 40.2025 32.4211 39.1001L30.8763 40.3703C32.1898 41.9678 33.9666 42.7602 36.1037 42.7602V40.7602ZM32.4211 39.1001C31.4924 37.9705 30.9837 36.4436 30.9837 34.4252H28.9837C28.9837 36.7867 29.585 38.7998 30.8763 40.3703L32.4211 39.1001ZM30.9837 34.4252C30.9837 32.1862 31.4998 30.0797 32.5355 28.0923L30.7619 27.168C29.5776 29.4406 28.9837 31.8641 28.9837 34.4252H30.9837ZM32.5381 28.0872C33.5807 26.0584 34.9478 24.4617 36.6348 23.2725L35.4825 21.6378C33.5096 23.0286 31.9367 24.8819 30.7593 27.1731L32.5381 28.0872ZM36.6374 23.2707C38.3464 22.0579 40.1122 21.4752 41.9537 21.4752V19.4752C39.6552 19.4752 37.491 20.2124 35.4799 21.6396L36.6374 23.2707ZM41.9537 21.4752C42.2241 21.4752 42.3895 21.5038 42.4785 21.5315C42.5645 21.5582 42.5255 21.5663 42.4693 21.4941L44.048 20.2662C43.5309 19.6013 42.6588 19.4752 41.9537 19.4752V21.4752ZM42.5516 21.5873C42.5497 21.5854 42.562 21.5973 42.5843 21.6328C42.6066 21.6681 42.6351 21.7207 42.6674 21.7953C42.733 21.9467 42.8025 22.1612 42.8686 22.4518L44.8188 22.0085C44.6612 21.3151 44.4172 20.6245 43.9658 20.173L42.5516 21.5873ZM44.0308 23.2125C44.5947 23.1051 45.1918 23.0502 45.8237 23.0502V21.0502C45.0756 21.0502 44.3527 21.1152 43.6566 21.2478L44.0308 23.2125ZM45.8237 23.0502C46.4698 23.0502 46.7749 23.171 46.8962 23.2576C46.9555 23.3 47.0287 23.363 47.0287 23.6252H49.0287C49.0287 22.8373 48.7344 22.1128 48.0587 21.6302C47.445 21.1918 46.6475 21.0502 45.8237 21.0502V23.0502ZM47.0287 23.6252C47.0287 24.1404 46.8273 25.5365 46.3712 27.9386L48.3361 28.3117C48.78 25.9738 49.0287 24.3699 49.0287 23.6252H47.0287ZM46.3731 27.929C45.6844 31.3728 45.3187 33.8634 45.3187 35.3252H47.3187C47.3187 34.0869 47.643 31.7775 48.3343 28.3213L46.3731 27.929ZM45.3187 35.3252C45.3187 35.9272 45.4601 36.5251 45.8443 37.0191L47.423 35.7912C47.3872 35.7452 47.3187 35.6231 47.3187 35.3252H45.3187ZM45.8863 37.0695C46.3153 37.5522 46.8869 37.8102 47.5337 37.8102V35.8102C47.4817 35.8102 47.4583 35.8011 47.4491 35.797C47.4397 35.7928 47.4167 35.7809 47.3811 35.7408L45.8863 37.0695ZM47.5337 37.8102C48.49 37.8102 49.4194 37.2319 50.2681 36.4776L48.9393 34.9827C48.168 35.6684 47.7174 35.8102 47.5337 35.8102V37.8102ZM50.2831 36.4639C51.1411 35.6695 52.2689 34.4299 53.6558 32.7717L52.1216 31.4886C50.7485 33.1304 49.6863 34.2909 48.9243 34.9964L50.2831 36.4639ZM53.6479 32.7809C53.8654 32.5272 54.0114 32.5002 54.1037 32.5002V30.5002C53.296 30.5002 52.632 30.8931 52.1294 31.4794L53.6479 32.7809ZM54.1037 32.5002C54.1239 32.5002 54.1304 32.5024 54.1269 32.5015C54.1228 32.5004 54.1149 32.4976 54.1067 32.4926C54.0987 32.4879 54.0974 32.4853 54.1023 32.4905C54.1077 32.4963 54.1213 32.5121 54.1399 32.544L55.8675 31.5363C55.4933 30.8948 54.8782 30.5002 54.1037 30.5002V32.5002ZM54.1716 32.5949C54.2628 32.7316 54.3637 33.0071 54.3637 33.5252H56.3637C56.3637 32.7832 56.2246 32.0688 55.8357 31.4855L54.1716 32.5949ZM54.3637 33.5252C54.3637 34.5754 54.1147 35.2415 53.7519 35.6615L55.2655 36.9688C56.0427 36.0689 56.3637 34.8749 56.3637 33.5252H54.3637ZM53.7293 35.6886C52.5436 37.1635 51.2957 38.3945 49.9882 39.3893L51.1992 40.981C52.6517 39.8759 54.0138 38.5268 55.2881 36.9417L53.7293 35.6886ZM49.9882 39.3893C48.7228 40.3521 47.5955 40.7602 46.5887 40.7602V42.7602C48.1619 42.7602 49.7046 42.1182 51.1992 40.981L49.9882 39.3893ZM46.5887 40.7602C45.841 40.7602 45.1402 40.5171 44.4615 39.9838L43.2259 41.5565C44.2272 42.3432 45.3564 42.7602 46.5887 42.7602V40.7602ZM44.4922 40.0089C43.8359 39.4499 43.3109 38.6759 42.9399 37.6423L41.0575 38.318C41.5265 39.6244 42.2315 40.7105 43.1952 41.5314L44.4922 40.0089ZM41.1484 37.4538C39.7182 39.7641 38.0382 40.7602 36.1037 40.7602V42.7602C38.9092 42.7602 41.1592 41.2362 42.849 38.5065L41.1484 37.4538ZM37.7237 38.2152C38.8236 38.2152 39.7132 37.556 40.4063 36.6549L38.8211 35.4354C38.3142 36.0944 37.9438 36.2152 37.7237 36.2152V38.2152ZM40.4063 36.6549C41.1237 35.7223 41.6066 34.5347 41.8975 33.145L39.9399 32.7353C39.6908 33.9256 39.3037 34.808 38.8211 35.4354L40.4063 36.6549ZM41.8991 33.1373L43.5641 24.8573L41.6033 24.463L39.9383 32.743L41.8991 33.1373ZM42.5599 23.6604C41.0385 23.6967 39.6522 24.2824 38.4212 25.3424L39.7262 26.8579C40.6552 26.058 41.6089 25.6836 42.6075 25.6599L42.5599 23.6604ZM38.4229 25.3409C37.2357 26.3585 36.3114 27.6947 35.6317 29.3129L37.4757 30.0874C38.056 28.7056 38.8117 27.6418 39.7245 26.8594L38.4229 25.3409ZM35.6317 29.3129C34.9485 30.9396 34.6087 32.6616 34.6087 34.4702H36.6087C36.6087 32.9187 36.8989 31.4608 37.4757 30.0874L35.6317 29.3129ZM34.6087 34.4702C34.6087 35.4976 34.802 36.4576 35.3678 37.1649L36.9296 35.9155C36.7754 35.7227 36.6087 35.3027 36.6087 34.4702H34.6087ZM35.393 37.1951C35.9949 37.8896 36.8089 38.2152 37.7237 38.2152V36.2152C37.3184 36.2152 37.0825 36.0907 36.9044 35.8852L35.393 37.1951ZM56.4764 41.6702L55.812 42.4176L55.8188 42.4235L55.8256 42.4294L56.4764 41.6702ZM56.1164 37.2152L56.8235 37.9223L56.1164 37.2152ZM59.9864 36.4952L59.8126 37.4799L59.8441 37.4855L59.876 37.489L59.9864 36.4952ZM61.2014 36.6302L61.091 37.624L62.2453 37.7523L62.2006 36.5917L61.2014 36.6302ZM60.6614 34.4252L59.7443 34.8239L59.7515 34.8404L59.7593 34.8566L60.6614 34.4252ZM59.4914 32.4452L58.6827 33.0333L58.6892 33.0423L58.696 33.0512L59.4914 32.4452ZM58.1414 30.7352L58.894 30.0767L57.9341 28.9797L57.2561 30.27L58.1414 30.7352ZM55.3514 35.1452L54.5686 34.5229L54.5636 34.5291L54.5588 34.5354L55.3514 35.1452ZM52.3814 38.4752L51.6842 37.7581L51.6743 37.7681L52.3814 38.4752ZM49.5014 38.7902L48.7332 39.4303L48.747 39.4469L48.7614 39.4628L49.5014 38.7902ZM49.6814 35.8202L50.4533 36.4559L50.4575 36.4507L49.6814 35.8202ZM50.2664 35.1002L51.0425 35.7308L51.0439 35.729L50.2664 35.1002ZM54.0014 30.0602L54.845 30.597L54.8549 30.5816L54.8641 30.5659L54.0014 30.0602ZM55.8014 26.5952L56.7032 27.0273L56.7066 27.0201L55.8014 26.5952ZM57.8264 22.0502L56.9083 21.6537L56.9054 21.6605L57.8264 22.0502ZM63.1364 20.2952L63.5502 19.3848L63.1364 20.2952ZM63.4514 21.8702L64.4072 22.1642L63.4514 21.8702ZM62.9564 23.0402L62.0759 22.5661L62.0687 22.5794L62.062 22.5929L62.9564 23.0402ZM62.5964 27.2702L61.7222 27.7558L61.7323 27.7739L61.7431 27.7916L62.5964 27.2702ZM64.0814 29.2952L64.8768 28.6891L64.8669 28.6761L64.8566 28.6635L64.0814 29.2952ZM66.2414 32.5352L65.359 33.0057L65.3685 33.0235L65.3787 33.0409L66.2414 32.5352ZM66.9164 36.6752L65.9225 36.5647L65.7404 38.2037L67.2779 37.6075L66.9164 36.6752ZM72.0914 32.1302L71.3321 31.4794L71.3221 31.4911L71.3124 31.5031L72.0914 32.1302ZM74.2064 32.0402L73.3426 32.544L73.3577 32.5699L73.3743 32.5949L74.2064 32.0402ZM73.7114 36.3152L74.4898 36.9429L74.4954 36.9359L73.7114 36.3152ZM69.3914 40.1402L69.8306 41.0386L69.8386 41.0346L69.3914 40.1402ZM64.3514 41.2202L64.3216 40.2206L63.971 40.2311L63.7037 40.4582L64.3514 41.2202ZM60.0764 41.7502C58.6582 41.7502 57.7239 41.4224 57.1272 40.9109L55.8256 42.4294C56.9089 43.3579 58.3746 43.7502 60.0764 43.7502V41.7502ZM57.1408 40.9227C56.4967 40.3503 56.2614 39.7966 56.2614 39.2402H54.2614C54.2614 40.4837 54.836 41.55 55.812 42.4176L57.1408 40.9227ZM56.2614 39.2402C56.2614 38.7351 56.434 38.3117 56.8235 37.9223L55.4093 36.508C54.6588 37.2586 54.2614 38.1852 54.2614 39.2402H56.2614ZM56.8235 37.9223C57.1444 37.6014 57.6895 37.3602 58.6364 37.3602V35.3602C57.3633 35.3602 56.2284 35.6889 55.4093 36.508L56.8235 37.9223ZM58.6364 37.3602C58.9528 37.3602 59.3426 37.397 59.8126 37.4799L60.1602 35.5104C59.6102 35.4133 59.1 35.3602 58.6364 35.3602V37.3602ZM59.876 37.489C60.416 37.549 60.821 37.594 61.091 37.624L61.3118 35.6363C61.0418 35.6063 60.6368 35.5613 60.0968 35.5013L59.876 37.489ZM62.2006 36.5917C62.1655 35.6783 61.9536 34.8093 61.5635 33.9937L59.7593 34.8566C60.0292 35.421 60.1773 36.022 60.2021 36.6686L62.2006 36.5917ZM61.5785 34.0264C61.2448 33.2589 60.813 32.5297 60.2868 31.8391L58.696 33.0512C59.1298 33.6206 59.478 34.2114 59.7443 34.8239L61.5785 34.0264ZM60.3001 31.857C59.8071 31.179 59.3383 30.5844 58.894 30.0767L57.3888 31.3937C57.7845 31.8459 58.2157 32.3913 58.6827 33.0333L60.3001 31.857ZM57.2561 30.27C56.3462 32.0019 55.4491 33.4152 54.5686 34.5229L56.1342 35.7674C57.1137 34.5351 58.0766 33.0084 59.0266 31.2003L57.2561 30.27ZM54.5588 34.5354C53.6886 35.6667 52.7306 36.7409 51.6843 37.7582L53.0785 39.1922C54.1921 38.1094 55.2142 36.9636 56.144 35.7549L54.5588 34.5354ZM51.6743 37.7681C51.2681 38.1742 50.9388 38.2852 50.6714 38.2852V40.2852C51.604 40.2852 52.4147 39.8561 53.0885 39.1823L51.6743 37.7681ZM50.6714 38.2852C50.449 38.2852 50.3362 38.2218 50.2413 38.1175L48.7614 39.4628C49.2666 40.0185 49.9338 40.2852 50.6714 40.2852V38.2852ZM50.2696 38.15C50.133 37.986 50.0514 37.7834 50.0514 37.4852H48.0514C48.0514 38.2069 48.2698 38.8743 48.7332 39.4303L50.2696 38.15ZM50.0514 37.4852C50.0514 37.141 50.1648 36.8062 50.4533 36.4559L48.9095 35.1844C48.3579 35.8542 48.0514 36.6293 48.0514 37.4852H50.0514ZM50.4575 36.4507L51.0425 35.7307L49.4903 34.4696L48.9053 35.1896L50.4575 36.4507ZM51.0439 35.729C52.7041 33.6764 53.9758 31.963 54.845 30.597L53.1577 29.5233C52.347 30.7973 51.1287 32.4439 49.4889 34.4713L51.0439 35.729ZM54.8641 30.5659C55.3938 29.6623 56.0072 28.4797 56.7032 27.0273L54.8996 26.163C54.2155 27.5906 53.629 28.718 53.1387 29.5544L54.8641 30.5659ZM56.7066 27.0201C57.4023 25.5379 58.0826 24.0111 58.7474 22.4398L56.9054 21.6605C56.2502 23.2092 55.5805 24.7124 54.8962 26.1702L56.7066 27.0201ZM58.7444 22.4466C58.9477 21.9759 59.2412 21.6549 59.6292 21.4388C60.0321 21.2144 60.5979 21.0702 61.3814 21.0702V19.0702C60.3649 19.0702 59.4382 19.2559 58.6561 19.6915C57.8591 20.1354 57.2751 20.8044 56.9083 21.6537L58.7444 22.4466ZM61.3814 21.0702C62.2187 21.0702 62.6079 21.1534 62.7226 21.2055L63.5502 19.3848C63.0049 19.1369 62.2241 19.0702 61.3814 19.0702V21.0702ZM62.7226 21.2055C62.7623 21.2236 62.7265 21.2166 62.6836 21.1542C62.663 21.1243 62.6485 21.0922 62.6399 21.0626C62.6316 21.034 62.6314 21.0163 62.6314 21.0152H64.6314C64.6314 20.6757 64.5436 20.3294 64.3317 20.0211C64.1238 19.7187 63.8404 19.5167 63.5502 19.3848L62.7226 21.2055ZM62.6314 21.0152C62.6314 21.0069 62.6312 21.0471 62.6078 21.1579C62.586 21.2616 62.5499 21.3996 62.4956 21.5761L64.4072 22.1642C64.5289 21.7685 64.6314 21.3581 64.6314 21.0152H62.6314ZM62.4956 21.5761C62.3963 21.8987 62.2576 22.2286 62.0759 22.5661L63.8369 23.5143C64.0752 23.0717 64.2664 22.6216 64.4072 22.1642L62.4956 21.5761ZM62.062 22.5929C61.4902 23.7364 61.1464 24.8133 61.1464 25.7852H63.1464C63.1464 25.2571 63.3426 24.5039 63.8508 23.4874L62.062 22.5929ZM61.1464 25.7852C61.1464 26.4567 61.369 27.1201 61.7222 27.7558L63.4705 26.7845C63.2237 26.3403 63.1464 26.0136 63.1464 25.7852H61.1464ZM61.7431 27.7916C62.1068 28.3867 62.6334 29.1012 63.3062 29.9268L64.8566 28.6635C64.2093 27.8691 63.746 27.2336 63.4497 26.7487L61.7431 27.7916ZM63.286 29.9012C64.2291 31.1391 64.9141 32.1716 65.359 33.0057L67.1237 32.0646C66.6086 31.0988 65.8537 29.9712 64.8768 28.6891L63.286 29.9012ZM65.3787 33.0409C65.795 33.751 66.0064 34.5353 66.0064 35.4152H68.0064C68.0064 34.195 67.7078 33.0593 67.1041 32.0294L65.3787 33.0409ZM66.0064 35.4152C66.0064 35.66 65.9811 36.0371 65.9225 36.5647L67.9103 36.7856C67.9716 36.2332 68.0064 35.7703 68.0064 35.4152H66.0064ZM67.2779 37.6075C69.007 36.9371 70.8703 35.2421 72.8704 32.7572L71.3124 31.5031C69.3524 33.9382 67.7658 35.2732 66.5549 35.7428L67.2779 37.6075ZM72.8506 32.7809C73.0681 32.5272 73.2141 32.5002 73.3064 32.5002V30.5002C72.4987 30.5002 71.8347 30.8931 71.3321 31.4794L72.8506 32.7809ZM73.3064 32.5002C73.3266 32.5002 73.3331 32.5024 73.3296 32.5015C73.3255 32.5004 73.3176 32.4976 73.3094 32.4926C73.3014 32.4879 73.3001 32.4853 73.305 32.4905C73.3104 32.4963 73.324 32.5121 73.3426 32.544L75.0702 31.5363C74.696 30.8948 74.0809 30.5002 73.3064 30.5002V32.5002ZM73.3743 32.5949C73.4655 32.7316 73.5664 33.0071 73.5664 33.5252H75.5664C75.5664 32.7832 75.4273 32.0688 75.0384 31.4855L73.3743 32.5949ZM73.5664 33.5252C73.5664 34.4955 73.3264 35.1903 72.9273 35.6945L74.4954 36.9359C75.2363 36 75.5664 34.8348 75.5664 33.5252H73.5664ZM72.933 35.6874C71.4786 37.4908 70.145 38.6453 68.9442 39.2457L69.8386 41.0346C71.3978 40.255 72.9442 38.8595 74.4898 36.9429L72.933 35.6874ZM68.9522 39.2418C67.7653 39.822 66.235 40.1635 64.3216 40.2206L64.3812 42.2197C66.4877 42.1568 68.3174 41.7783 69.8306 41.0385L68.9522 39.2418ZM63.7037 40.4582C62.6937 41.3168 61.5014 41.7502 60.0764 41.7502V43.7502C61.9514 43.7502 63.6091 43.1636 64.999 41.9821L63.7037 40.4582ZM91.8805 32.0402L91.0167 32.544L91.0318 32.5699L91.0484 32.5949L91.8805 32.0402ZM91.3855 36.3152L90.6287 35.6615L90.6186 35.6732L90.6089 35.6851L91.3855 36.3152ZM87.1555 40.2302L86.6008 39.3981L87.1555 40.2302ZM72.8455 24.8402L73.8433 24.9067L73.9144 23.8402H72.8455V24.8402ZM69.2455 24.3452L68.5056 25.0178L68.5216 25.0354L68.5384 25.0523L69.2455 24.3452ZM73.3855 20.2502V21.2502H74.2428L74.3738 20.4029L73.3855 20.2502ZM75.7255 11.2052L74.7921 10.8462L75.7255 11.2052ZM79.5055 4.68015L78.7717 4.00071L78.7649 4.00816L79.5055 4.68015ZM87.2905 3.91516L88.1295 3.37096V3.37096L87.2905 3.91516ZM82.5205 20.2502L81.8579 19.5012L79.8808 21.2502H82.5205V20.2502ZM78.3355 24.8402V23.8402H77.3747L77.3363 24.8002L78.3355 24.8402ZM79.3255 34.9202L78.4572 35.4163L78.4617 35.424L78.4662 35.4316L79.3255 34.9202ZM86.2555 35.6402L86.8744 36.4256L86.2555 35.6402ZM89.7655 32.1302L90.5217 32.7845L90.5247 32.7809L89.7655 32.1302ZM81.5755 8.28016L80.681 7.83292L80.6763 7.84269L81.5755 8.28016ZM80.0005 12.9602L79.0311 12.7142L79.0286 12.7246L80.0005 12.9602ZM78.7855 19.5752L77.7946 19.4406L77.4387 22.0611L79.4394 20.3317L78.7855 19.5752ZM82.7455 14.4452L81.84 14.0207L81.8371 14.027L82.7455 14.4452ZM90.9805 32.5002C91.0007 32.5002 91.0072 32.5024 91.0037 32.5015C90.9996 32.5004 90.9917 32.4976 90.9835 32.4926C90.9755 32.4879 90.9742 32.4853 90.9791 32.4905C90.9845 32.4963 90.9981 32.5121 91.0167 32.544L92.7443 31.5363C92.3701 30.8948 91.755 30.5002 90.9805 30.5002V32.5002ZM91.0484 32.5949C91.1396 32.7316 91.2405 33.0071 91.2405 33.5252H93.2405C93.2405 32.7832 93.1014 32.0688 92.7125 31.4855L91.0484 32.5949ZM91.2405 33.5252C91.2405 34.5754 90.9915 35.2415 90.6287 35.6615L92.1423 36.9688C92.9195 36.0689 93.2405 34.8749 93.2405 33.5252H91.2405ZM90.6089 35.6851C89.3752 37.2058 88.0382 38.4398 86.6008 39.3981L87.7102 41.0622C89.3328 39.9805 90.8158 38.6045 92.1621 36.9452L90.6089 35.6851ZM86.6008 39.3981C85.2478 40.3001 83.6889 40.7602 81.8905 40.7602V42.7602C84.052 42.7602 86.0032 42.2002 87.7102 41.0622L86.6008 39.3981ZM81.8905 40.7602C79.0953 40.7602 77.1312 39.796 75.8206 37.952C74.4653 36.0454 73.7105 33.062 73.7105 28.8452H71.7105C71.7105 33.2383 72.4857 36.7124 74.1904 39.1108C75.9397 41.5718 78.5657 42.7602 81.8905 42.7602V40.7602ZM73.7105 28.8452C73.7105 27.5479 73.7547 26.2351 73.8433 24.9067L71.8477 24.7736C71.7563 26.1452 71.7105 27.5024 71.7105 28.8452H73.7105ZM72.8455 23.8402H71.0905V25.8402H72.8455V23.8402ZM71.0905 23.8402C70.2381 23.8402 69.9832 23.6686 69.9526 23.638L68.5384 25.0523C69.1678 25.6817 70.1428 25.8402 71.0905 25.8402V23.8402ZM69.9854 23.6725C69.9296 23.611 69.7955 23.3859 69.7955 22.7702H67.7955C67.7955 23.5944 67.9614 24.4193 68.5056 25.0178L69.9854 23.6725ZM69.7955 22.7702C69.7955 22.0378 69.9469 21.6737 70.0812 21.5065C70.182 21.3812 70.3647 21.2502 70.8205 21.2502V19.2502C69.9263 19.2502 69.0965 19.5391 68.5222 20.2538C67.9815 20.9266 67.7955 21.8225 67.7955 22.7702H69.7955ZM70.8205 21.2502H73.3855V19.2502H70.8205V21.2502ZM74.3738 20.4029C74.8744 17.1637 75.6377 14.219 76.6588 11.5641L74.7921 10.8462C73.7132 13.6514 72.9166 16.7366 72.3972 20.0974L74.3738 20.4029ZM76.6588 11.5641C77.6785 8.91289 78.8819 6.85548 80.246 5.35214L78.7649 4.00816C77.1891 5.74482 75.8724 8.03742 74.7921 10.8462L76.6588 11.5641ZM80.2393 5.35956C81.6083 3.88102 82.9646 3.25016 84.3205 3.25016V1.25016C82.2564 1.25016 80.4027 2.23928 78.7717 4.00075L80.2393 5.35956ZM84.3205 3.25016C85.2218 3.25016 85.9048 3.61651 86.4515 4.45935L88.1295 3.37096C87.2362 1.9938 85.9392 1.25016 84.3205 1.25016V3.25016ZM86.4515 4.45935C87.0414 5.36874 87.3705 6.56152 87.3705 8.10015H89.3705C89.3705 6.27879 88.9796 4.68157 88.1295 3.37096L86.4515 4.45935ZM87.3705 8.10015C87.3705 12.4275 85.572 16.2156 81.8579 19.5012L83.1831 20.9992C87.269 17.3847 89.3705 13.0728 89.3705 8.10015H87.3705ZM82.5205 21.2502H87.5605V19.2502H82.5205V21.2502ZM87.5605 21.2502C87.7323 21.2502 87.8353 21.2695 87.8881 21.2856C87.9369 21.3004 87.9218 21.3057 87.8884 21.2723L89.3026 19.858C88.8176 19.3731 88.1491 19.2502 87.5605 19.2502V21.2502ZM87.8884 21.2723C87.8328 21.2167 87.8434 21.1908 87.8661 21.2751C87.8886 21.3586 87.9105 21.505 87.9105 21.7352H89.9105C89.9105 21.1159 89.8114 20.3669 89.3026 19.858L87.8884 21.2723ZM87.9105 21.7352C87.9105 22.4396 87.6532 22.8837 87.1181 23.2104C86.5028 23.5861 85.4513 23.8402 83.8255 23.8402V25.8402C85.5897 25.8402 87.0807 25.5767 88.1604 24.9174C89.3203 24.2091 89.9105 23.1007 89.9105 21.7352H87.9105ZM83.8255 23.8402H78.3355V25.8402H83.8255V23.8402ZM77.3363 24.8002C77.2761 26.3049 77.2455 27.4904 77.2455 28.3502H79.2455C79.2455 27.5299 79.2749 26.3754 79.3347 24.8801L77.3363 24.8002ZM77.2455 28.3502C77.2455 31.4868 77.5969 33.9107 78.4572 35.4163L80.1937 34.424C79.6141 33.4096 79.2455 31.4535 79.2455 28.3502H77.2455ZM78.4662 35.4316C79.4142 37.0243 80.929 37.8102 82.8355 37.8102V35.8102C81.562 35.8102 80.7368 35.3361 80.1848 34.4087L78.4662 35.4316ZM82.8355 37.8102C84.3443 37.8102 85.7036 37.3481 86.8744 36.4256L85.6366 34.8547C84.8274 35.4922 83.9067 35.8102 82.8355 35.8102V37.8102ZM86.8744 36.4256C87.9355 35.5896 89.1528 34.3664 90.5217 32.7845L89.0093 31.4758C87.6782 33.014 86.5555 34.1307 85.6366 34.8547L86.8744 36.4256ZM90.5247 32.7809C90.7422 32.5272 90.8882 32.5002 90.9805 32.5002V30.5002C90.1728 30.5002 89.5088 30.8931 89.0062 31.4794L90.5247 32.7809ZM83.1055 5.57016C82.4496 5.57016 81.9584 5.97531 81.6402 6.33086C81.2997 6.71145 80.9832 7.22872 80.6811 7.83294L82.4699 8.72737C82.7378 8.19159 82.9613 7.85387 83.1307 7.66445C83.3226 7.45 83.3114 7.57016 83.1055 7.57016V5.57016ZM80.6763 7.84269C80.0931 9.04134 79.5483 10.6762 79.0312 12.7142L80.9698 13.2061C81.4727 11.2241 81.9779 9.73897 82.4747 8.71762L80.6763 7.84269ZM79.0286 12.7246C78.5391 14.7438 78.1283 16.9832 77.7946 19.4406L79.7764 19.7097C80.1027 17.3071 80.5018 15.1365 80.9723 13.1958L79.0286 12.7246ZM79.4394 20.3317C81.304 18.72 82.7172 16.8982 83.6539 14.8633L81.8371 14.027C81.0338 15.7721 79.807 17.3703 78.1315 18.8186L79.4394 20.3317ZM83.6509 14.8696C84.5921 12.8619 85.0955 10.9746 85.0955 9.22515H83.0955C83.0955 10.5957 82.6989 12.1884 81.84 14.0207L83.6509 14.8696ZM85.0955 9.22515C85.0955 8.30634 85.0136 7.49776 84.785 6.88452C84.6682 6.57147 84.4901 6.2453 84.2051 5.99056C83.8992 5.71714 83.518 5.57016 83.1055 5.57016V7.57016C83.023 7.57016 82.9305 7.53379 82.8722 7.48163C82.8347 7.44813 82.8627 7.45384 82.911 7.58329C83.0123 7.85505 83.0955 8.37396 83.0955 9.22515H85.0955ZM109.547 32.0402L108.683 32.544L108.698 32.5699L108.714 32.5949L109.547 32.0402ZM109.052 36.3152L108.295 35.6615L108.287 35.6707L108.279 35.68L109.052 36.3152ZM104.327 40.0502L103.839 39.1772L103.833 39.1803L104.327 40.0502ZM90.5115 39.1952L91.2124 38.4819L90.5115 39.1952ZM89.2065 26.4152L90.104 26.8563L90.1069 26.8503L89.2065 26.4152ZM92.8065 22.1402L92.2481 21.3105L92.2407 21.3156L92.8065 22.1402ZM102.257 22.1402L101.549 22.8473L101.555 22.8524L101.56 22.8574L102.257 22.1402ZM101.582 31.6802L100.874 30.973L101.582 31.6802ZM94.0665 35.1902L93.8278 34.2191L92.5688 34.5285L93.1879 35.6677L94.0665 35.1902ZM102.932 35.8652L103.409 36.7437L103.415 36.7407L102.932 35.8652ZM107.432 32.1302L106.672 31.4794L106.666 31.4868L106.66 31.4944L107.432 32.1302ZM94.4715 26.9102L93.6158 26.3927L93.6113 26.4001L93.607 26.4075L94.4715 26.9102ZM93.3465 31.6802H92.3465V32.9452L93.5774 32.6531L93.3465 31.6802ZM97.5315 29.7902L96.8958 29.0182V29.0182L97.5315 29.7902ZM98.5665 25.5152L97.7983 26.1553L97.8273 26.1902L97.8594 26.2223L98.5665 25.5152ZM108.647 32.5002C108.667 32.5002 108.673 32.5024 108.67 32.5015C108.666 32.5004 108.658 32.4976 108.65 32.4926C108.642 32.4879 108.64 32.4853 108.645 32.4905C108.651 32.4963 108.664 32.5121 108.683 32.544L110.41 31.5363C110.036 30.8948 109.421 30.5002 108.647 30.5002V32.5002ZM108.714 32.5949C108.806 32.7316 108.907 33.0071 108.907 33.5252H110.907C110.907 32.7832 110.767 32.0688 110.379 31.4855L108.714 32.5949ZM108.907 33.5252C108.907 34.5754 108.657 35.2415 108.295 35.6615L109.808 36.9688C110.586 36.0689 110.907 34.8749 110.907 33.5252H108.907ZM108.279 35.68C107.27 36.9073 105.804 38.0787 103.839 39.1772L104.814 40.9231C106.929 39.7416 108.613 38.4231 109.824 36.9503L108.279 35.68ZM103.833 39.1803C101.974 40.235 99.9835 40.7602 97.8465 40.7602V42.7602C100.329 42.7602 102.659 42.1453 104.82 40.92L103.833 39.1803ZM97.8465 40.7602C94.8792 40.7602 92.7155 39.959 91.2124 38.4819L89.8106 39.9084C91.7875 41.8513 94.5139 42.7602 97.8465 42.7602V40.7602ZM91.2124 38.4819C89.704 36.9995 88.9015 34.9392 88.9015 32.1752H86.9015C86.9015 35.3511 87.839 37.9708 89.8106 39.9084L91.2124 38.4819ZM88.9015 32.1752C88.9015 30.2503 89.3048 28.4822 90.104 26.8563L88.3091 25.974C87.3682 27.8881 86.9015 29.96 86.9015 32.1752H88.9015ZM90.1069 26.8503C90.9072 25.1945 91.9969 23.9086 93.3723 22.9647L92.2407 21.3156C90.5561 22.4717 89.2458 24.0358 88.3062 25.98L90.1069 26.8503ZM93.3649 22.9697C94.7535 22.0351 96.3126 21.5652 98.0715 21.5652V19.5652C95.9304 19.5652 93.9795 20.1452 92.2481 21.3106L93.3649 22.9697ZM98.0715 21.5652C99.5954 21.5652 100.719 22.0169 101.549 22.8473L102.964 21.433C101.694 20.1634 100.028 19.5652 98.0715 19.5652V21.5652ZM101.56 22.8574C102.376 23.6507 102.832 24.7648 102.832 26.3252H104.832C104.832 24.3455 104.237 22.6696 102.953 21.4229L101.56 22.8574ZM102.832 26.3252C102.832 28.1227 102.192 29.6554 100.874 30.973L102.289 32.3873C103.971 30.7049 104.832 28.6676 104.832 26.3252H102.832ZM100.874 30.973C99.5979 32.2496 97.3069 33.364 93.8278 34.2191L94.3052 36.1613C97.9061 35.2763 100.625 34.0507 102.289 32.3873L100.874 30.973ZM93.1879 35.6677C94.1716 37.4778 96.0171 38.2602 98.3415 38.2602V36.2602C96.4659 36.2602 95.4614 35.6626 94.9451 34.7126L93.1879 35.6677ZM98.3415 38.2602C99.9159 38.2602 101.613 37.7204 103.409 36.7436L102.454 34.9867C100.83 35.8699 99.4671 36.2602 98.3415 36.2602V38.2602ZM103.415 36.7407C105.265 35.7199 106.863 34.3936 108.203 32.7659L106.66 31.4944C105.48 32.9267 104.078 34.0904 102.448 34.9896L103.415 36.7407ZM108.191 32.7809C108.408 32.5272 108.554 32.5002 108.647 32.5002V30.5002C107.839 30.5002 107.175 30.8931 106.672 31.4794L108.191 32.7809ZM97.3065 23.9752C95.7257 23.9752 94.5042 24.9234 93.6158 26.3927L95.3272 27.4276C95.9988 26.3169 96.6673 25.9752 97.3065 25.9752V23.9752ZM93.607 26.4075C92.7502 27.8812 92.3465 29.6234 92.3465 31.5902H94.3465C94.3465 29.897 94.6928 28.5191 95.336 27.4128L93.607 26.4075ZM92.3465 31.5902V31.6802H94.3465V31.5902H92.3465ZM93.5774 32.6531C95.4431 32.2104 96.9936 31.5286 98.1672 30.5621L96.8958 29.0182C96.0294 29.7317 94.7899 30.3099 93.1156 30.7072L93.5774 32.6531ZM98.1672 30.5621C99.3692 29.5722 100.062 28.3318 100.062 26.8652H98.0615C98.0615 27.6185 97.7338 28.3281 96.8958 29.0182L98.1672 30.5621ZM100.062 26.8652C100.062 26.0924 99.8311 25.3656 99.2736 24.808L97.8594 26.2223C97.9619 26.3247 98.0615 26.4979 98.0615 26.8652H100.062ZM99.3347 24.875C98.8146 24.2508 98.0928 23.9752 97.3065 23.9752V25.9752C97.6002 25.9752 97.7184 26.0595 97.7983 26.1553L99.3347 24.875ZM126.088 27.4502L125.358 28.1341L125.38 28.1576L125.404 28.1797L126.088 27.4502ZM126.538 30.4202L127.455 30.8171L127.461 30.8044L127.466 30.7915L126.538 30.4202ZM124.513 33.2102L125.165 33.9676L124.513 33.2102ZM119.473 33.4352L118.748 34.1239L118.756 34.1332L118.765 34.1423L119.473 33.4352ZM118.708 29.1602L117.715 29.0361L117.713 29.0528L117.712 29.0696L118.708 29.1602ZM118.618 27.6302L117.818 28.2302L117.86 28.287L117.91 28.3373L118.618 27.6302ZM116.548 28.9802L117.356 29.5684L117.364 29.5568L116.548 28.9802ZM114.388 32.9402L113.471 32.5402L114.388 32.9402ZM112.633 38.1602L111.661 37.9214L111.66 37.9291L111.658 37.9368L112.633 38.1602ZM111.508 41.0402L110.755 40.3817L111.508 41.0402ZM107.008 39.9602L106.071 40.3113L106.075 40.3215L106.079 40.3315L107.008 39.9602ZM107.998 23.0852L108.951 23.3867L108.953 23.3816L107.998 23.0852ZM109.303 21.1952L109.848 22.0337L109.857 22.0272L109.303 21.1952ZM112.858 24.8852L111.892 24.6264L111.889 24.6345L111.887 24.6426L112.858 24.8852ZM111.688 31.3652L110.692 31.2746L112.621 31.7234L111.688 31.3652ZM115.018 25.0652L114.221 24.4604L115.018 25.0652ZM123.793 21.3302L123.043 21.9918L123.063 22.0152L123.085 22.0373L123.793 21.3302ZM124.018 26.7302L123.038 26.5269L122.789 27.7302H124.018V26.7302ZM124.423 27.7302C124.807 27.7302 125.098 27.8565 125.358 28.1341L126.817 26.7662C126.177 26.0839 125.358 25.7302 124.423 25.7302V27.7302ZM125.404 28.1797C125.671 28.4305 125.808 28.7314 125.808 29.1602H127.808C127.808 28.2089 127.464 27.3698 126.771 26.7206L125.404 28.1797ZM125.808 29.1602C125.808 29.3962 125.753 29.6892 125.609 30.0488L127.466 30.7915C127.682 30.2511 127.808 29.7041 127.808 29.1602H125.808ZM125.62 30.0232C125.196 31.0021 124.609 31.8066 123.86 32.4527L125.165 33.9676C126.156 33.1137 126.919 32.0582 127.455 30.8171L125.62 30.0232ZM123.86 32.4527C123.153 33.0621 122.42 33.3352 121.633 33.3352V35.3352C122.945 35.3352 124.132 34.8582 125.165 33.9676L123.86 32.4527ZM121.633 33.3352C121.061 33.3352 120.594 33.1427 120.18 32.728L118.765 34.1423C119.551 34.9277 120.524 35.3352 121.633 35.3352V33.3352ZM120.198 32.7464C119.843 32.3732 119.618 31.8316 119.618 31.0052H117.618C117.618 32.2187 117.962 33.2971 118.748 34.1239L120.198 32.7464ZM119.618 31.0052C119.618 30.4698 119.646 29.8853 119.703 29.2507L117.712 29.0696C117.649 29.755 117.618 30.4005 117.618 31.0052H119.618ZM119.7 29.2842C119.759 28.8094 119.798 28.421 119.798 28.1702H117.798C117.798 28.2793 117.776 28.5509 117.715 29.0361L119.7 29.2842ZM119.798 28.1702C119.798 27.776 119.698 27.2967 119.325 26.923L117.91 28.3373C117.848 28.2751 117.817 28.2111 117.804 28.1714C117.792 28.1365 117.798 28.1305 117.798 28.1702H119.798ZM119.418 27.0302C119.139 26.6583 118.722 26.4502 118.258 26.4502V28.4502C118.196 28.4502 118.107 28.4368 118.013 28.3896C117.918 28.3423 117.855 28.2795 117.818 28.2302L119.418 27.0302ZM118.258 26.4502C117.667 26.4502 117.182 26.7888 116.848 27.0874C116.483 27.4142 116.11 27.8653 115.731 28.4035L117.364 29.5568C117.705 29.075 117.977 28.7611 118.182 28.5779C118.418 28.3665 118.428 28.4502 118.258 28.4502V26.4502ZM115.739 28.392C114.961 29.461 114.208 30.8517 113.471 32.5402L115.304 33.3401C116.007 31.7286 116.694 30.4793 117.356 29.5683L115.739 28.392ZM113.471 32.5402C112.727 34.2447 112.124 36.0388 111.661 37.9214L113.604 38.3989C114.041 36.6215 114.608 34.9357 115.304 33.3401L113.471 32.5402ZM111.658 37.9368C111.328 39.3753 110.994 40.1087 110.755 40.3817L112.26 41.6987C112.861 41.0116 113.277 39.825 113.607 38.3835L111.658 37.9368ZM110.755 40.3817C110.604 40.5543 110.256 40.7602 109.438 40.7602V42.7602C110.539 42.7602 111.571 42.486 112.26 41.6987L110.755 40.3817ZM109.438 40.7602C109.053 40.7602 108.781 40.6626 108.57 40.5066C108.351 40.3441 108.126 40.0645 107.936 39.5888L106.079 40.3315C106.369 41.0558 106.789 41.6762 107.38 42.1137C107.979 42.5577 108.683 42.7602 109.438 42.7602V40.7602ZM107.944 39.609C107.561 38.5871 107.333 36.8199 107.333 34.2002H105.333C105.333 36.8604 105.554 38.9332 106.071 40.3113L107.944 39.609ZM107.333 34.2002C107.333 30.3964 107.874 26.7935 108.951 23.3867L107.044 22.7836C105.901 26.3968 105.333 30.204 105.333 34.2002H107.333ZM108.953 23.3816C109.173 22.6724 109.492 22.2649 109.848 22.0336L108.758 20.3567C107.913 20.9055 107.362 21.758 107.042 22.7888L108.953 23.3816ZM109.857 22.0272C110.263 21.7567 110.913 21.5652 111.913 21.5652V19.5652C110.692 19.5652 109.602 19.7936 108.748 20.3631L109.857 22.0272ZM111.913 21.5652C112.175 21.5652 112.368 21.5819 112.502 21.6058C112.644 21.6312 112.671 21.6561 112.643 21.6382L113.703 19.9422C113.205 19.631 112.532 19.5652 111.913 19.5652V21.5652ZM112.643 21.6382C112.612 21.619 112.583 21.5939 112.56 21.5655C112.537 21.5378 112.525 21.5148 112.521 21.5045C112.517 21.495 112.52 21.4993 112.524 21.5233C112.528 21.5474 112.533 21.5869 112.533 21.6452H114.533C114.533 21.0599 114.36 20.3532 113.703 19.9422L112.643 21.6382ZM112.533 21.6452C112.533 21.773 112.497 22.0746 112.385 22.6112C112.278 23.1255 112.114 23.7955 111.892 24.6264L113.823 25.1439C114.051 24.2948 114.225 23.5848 114.343 23.0191C114.456 22.4757 114.533 21.9973 114.533 21.6452H112.533ZM111.887 24.6426C111.585 25.8531 111.341 26.9192 111.157 27.839L113.118 28.2313C113.294 27.3511 113.53 26.3172 113.828 25.1277L111.887 24.6426ZM111.157 27.839C110.968 28.7855 110.814 29.9333 110.692 31.2746L112.683 31.4557C112.801 30.1571 112.947 29.0848 113.118 28.2313L111.157 27.839ZM112.621 31.7234C113.589 29.2023 114.657 27.1931 115.814 25.6699L114.221 24.4604C112.918 26.1772 111.767 28.368 110.754 31.0069L112.621 31.7234ZM115.814 25.6699C117.001 24.1067 118.109 23.0612 119.126 22.4615L118.11 20.7388C116.786 21.5191 115.494 22.7836 114.221 24.4604L115.814 25.6699ZM119.126 22.4615C120.202 21.8266 121.09 21.5652 121.813 21.5652V19.5652C120.615 19.5652 119.373 19.9937 118.11 20.7388L119.126 22.4615ZM121.813 21.5652C122.481 21.5652 122.833 21.7537 123.043 21.9918L124.542 20.6685C123.852 19.8866 122.884 19.5652 121.813 19.5652V21.5652ZM123.085 22.0373C123.312 22.2636 123.513 22.6843 123.513 23.4902H125.513C125.513 22.376 125.233 21.3567 124.5 20.623L123.085 22.0373ZM123.513 23.4902C123.513 23.9417 123.371 24.9236 123.038 26.5269L124.997 26.9334C125.324 25.3567 125.513 24.1786 125.513 23.4902H123.513ZM124.018 27.7302H124.423V25.7302H124.018V27.7302Z" fill="black"/>
</svg>
