<svg fill="none" height="62" viewBox="0 0 138 62" width="138" xmlns="http://www.w3.org/2000/svg"><g fill="#000"><path d="m40.5573.535156h-35.758c-2.64921 0-4.7993 1.511394-4.7993 3.373654v5.62275c0 1.86224 2.15009 3.37364 4.7993 3.37364h15.9977v5.2899c0 1.2505 1.0622 2.3481 2.7132 2.8159.6271.1799.7039.5667.7039.7287 0 .1619-.064.5488-.7039.7287l-3.4171.9536c-1.651.4588-2.7132 1.5654-2.7132 2.8159s1.0622 2.348 2.7132 2.8158l3.4043.9627c.6271.1799.7039.5667.7039.7287 0 .1619-.064.5488-.7039.7287l-3.4043.9446c-1.651.4588-2.7132 1.5654-2.7132 2.8159s1.0622 2.348 2.7132 2.8158l3.4043.9627c.6271.1799.7039.5667.7039.7287 0 .1619-.064.5487-.7039.7287-1.651.4588-2.7132 1.5654-2.7132 2.8159 0 1.2415 1.4334 2.2491 3.1995 2.2491v-2.2491c0-.3239.2688-.6028.7039-.7288 1.651-.4588 2.7132-1.5653 2.7132-2.8158s-1.0622-2.3481-2.7132-2.8159l-3.4043-.9626c-.6271-.1799-.7039-.5668-.7039-.7287 0-.162.064-.5488.7039-.7287l3.4043-.9627c1.651-.4588 2.7132-1.5653 2.7132-2.8158s-1.0622-2.3481-2.7132-2.8159l-3.4043-.9626c-.6271-.1799-.7039-.5668-.7039-.7287 0-.162.064-.5488.7039-.7287l3.4043-.9626c1.651-.4589 2.7132-1.5654 2.7132-2.8159s-1.0622-2.3481-2.7132-2.8159c-.4223-.1169-.7039-.4048-.7039-.7287v-5.2899h16.5608c2.6492 0 4.7993-1.5114 4.7993-3.37363v-5.59576c.0128-1.86226-2.1373-3.373654-4.7865-3.373654zm1.5997 8.996404c0 .62074-.7167 1.12454-1.5997 1.12454h-35.758c-.88307 0-1.59977-.5038-1.59977-1.12454v-5.62275c0-.62076.7167-1.12455 1.59977-1.12455h35.758c.883 0 1.5997.50379 1.5997 1.12455z"/><path d="m1.42188 1.78516h42.6604v9.996h-42.6604z"/><path d="m36.1037 41.7602c-1.86 0-3.345-.675-4.455-2.025s-1.665-3.12-1.665-5.31c0-2.4.555-4.665 1.665-6.795 1.11-2.16 2.58-3.885 4.41-5.175 1.86-1.32 3.825-1.98 5.895-1.98.66 0 1.095.135 1.305.405.24.24.435.69.585 1.35.63-.12 1.29-.18 1.98-.18 1.47 0 2.205.525 2.205 1.575 0 .63-.225 2.13-.675 4.5-.69 3.45-1.035 5.85-1.035 7.2 0 .45.105.81.315 1.08.24.27.54.405.9.405.57 0 1.26-.36 2.07-1.08.81-.75 1.905-1.95 3.285-3.6.36-.42.765-.63 1.215-.63.39 0 .69.18.9.54.24.36.36.855.36 1.485 0 1.2-.285 2.13-.855 2.79-1.23 1.53-2.535 2.82-3.915 3.87s-2.715 1.575-4.005 1.575c-.99 0-1.905-.33-2.745-.99-.81-.69-1.425-1.62-1.845-2.79-1.56 2.52-3.525 3.78-5.895 3.78zm1.62-4.545c.66 0 1.29-.39 1.89-1.17s1.035-1.815 1.305-3.105l1.665-8.28c-1.26.03-2.43.51-3.51 1.44-1.05.9-1.89 2.1-2.52 3.6s-.945 3.09-.945 4.77c0 .93.18 1.62.54 2.07.39.45.915.675 1.575.675zm22.3527 5.535c-1.56 0-2.76-.36-3.6-1.08-.81-.72-1.215-1.53-1.215-2.43 0-.78.285-1.455.855-2.025s1.41-.855 2.52-.855c.39 0 .84.045 1.35.135l1.215.135c-.03-.78-.21-1.515-.54-2.205-.3-.69-.69-1.35-1.17-1.98-.48-.66-.93-1.23-1.35-1.71-.93 1.77-1.86 3.24-2.79 4.41-.9 1.17-1.89 2.28-2.97 3.33-.54.54-1.11.81-1.71.81-.48 0-.87-.165-1.17-.495-.3-.36-.45-.795-.45-1.305 0-.6.21-1.155.63-1.665l.585-.72c1.65-2.04 2.895-3.72 3.735-5.04.51-.87 1.11-2.025 1.8-3.465.69-1.47 1.365-2.985 2.025-4.545.57-1.32 1.755-1.98 3.555-1.98.84 0 1.425.075 1.755.225s.495.39.495.72c0 .18-.06.465-.18.855s-.285.78-.495 1.17c-.54 1.08-.81 1.995-.81 2.745 0 .45.15.945.45 1.485.33.54.825 1.215 1.485 2.025.96 1.26 1.68 2.34 2.16 3.24.51.87.765 1.83.765 2.88 0 .3-.03.72-.09 1.26 1.47-.57 3.195-2.085 5.175-4.545.36-.42.765-.63 1.215-.63.39 0 .69.18.9.54.24.36.36.855.36 1.485 0 1.14-.285 2.07-.855 2.79-1.5 1.86-2.94 3.135-4.32 3.825-1.35.66-3.03 1.02-5.04 1.08-1.2 1.02-2.625 1.53-4.275 1.53zm30.9041-11.25c.39 0 .69.18.9.54.24.36.36.855.36 1.485 0 1.2-.285 2.13-.855 2.79-1.29 1.59-2.7 2.895-4.23 3.915s-3.285 1.53-5.265 1.53c-6.12 0-9.18-4.305-9.18-12.915 0-1.32.045-2.655.135-4.005h-1.755c-.9 0-1.515-.165-1.845-.495-.3-.33-.45-.855-.45-1.575 0-1.68.675-2.52 2.025-2.52h2.565c.51-3.3 1.29-6.315 2.34-9.045 1.05-2.73005 2.31-4.90505 3.78-6.52505 1.5-1.62 3.105-2.42999 4.815-2.42999 1.26 0 2.25.555 2.97 1.665s1.08 2.505 1.08 4.18499c0 4.65005-1.95 8.70005-5.85 12.15005h5.04c.48 0 .825.105 1.035.315s.315.6.315 1.17c0 2.07-1.695 3.105-5.085 3.105h-5.49c-.06 1.5-.09 2.67-.09 3.51 0 3.12.36 5.31 1.08 6.57.75 1.26 1.92 1.89 3.51 1.89 1.29 0 2.43-.39 3.42-1.17s2.16-1.95 3.51-3.51c.36-.42.765-.63 1.215-.63zm-7.875-24.93004c-.45 0-.96.57-1.53 1.71-.54 1.11-1.065 2.67004-1.575 4.68004-.48 1.98-.885 4.185-1.215 6.615 1.77-1.53 3.09-3.24 3.96-5.13.9-1.92 1.35-3.66 1.35-5.22005 0-1.76999-.33-2.65499-.99-2.65499zm25.5415 24.93004c.39 0 .69.18.9.54.24.36.36.855.36 1.485 0 1.2-.285 2.13-.855 2.79-1.11 1.35-2.685 2.595-4.725 3.735-2.01 1.14-4.17 1.71-6.4805 1.71-3.15 0-5.595-.855-7.335-2.565s-2.61-4.05-2.61-7.02c0-2.07.435-3.99 1.305-5.76.87-1.8 2.07-3.225 3.6-4.275 1.56-1.05 3.315-1.575 5.265-1.575 1.74 0 3.1355.525 4.1855 1.575 1.05 1.02 1.575 2.415 1.575 4.185 0 2.07-.75 3.855-2.25 5.355-1.47 1.47-3.9755 2.64-7.5155 3.51.75 1.38 2.175 2.07 4.275 2.07 1.35 0 2.8805-.465 4.5905-1.395 1.74-.96 3.24-2.205 4.5-3.735.36-.42.765-.63 1.215-.63zm-11.3405-6.525c-1.11 0-2.055.645-2.835 1.935-.75 1.29-1.125 2.85-1.125 4.68v.09c1.77-.42 3.165-1.05 4.185-1.89s1.53-1.815 1.53-2.925c0-.57-.165-1.02-.495-1.35-.3-.36-.72-.54-1.26-.54zm27.1165 1.755c.66 0 1.215.24 1.665.72.48.45.72 1.02.72 1.71 0 .39-.09.81-.27 1.26-.48 1.11-1.155 2.04-2.025 2.79s-1.83 1.125-2.88 1.125c-.84 0-1.56-.3-2.16-.9-.57-.6-.855-1.41-.855-2.43 0-.57.03-1.185.09-1.845.06-.48.09-.81.09-.99 0-.24-.06-.42-.18-.54-.09-.12-.21-.18-.36-.18-.42 0-.99.51-1.71 1.53-.72.99-1.44 2.31-2.16 3.96s-1.305 3.39-1.755 5.22c-.33 1.44-.705 2.4-1.125 2.88s-1.11.72-2.07.72c-1.14 0-1.95-.6-2.43-1.8-.45-1.2-.675-3.12-.675-5.76 0-3.9.555-7.605 1.665-11.115.27-.87.705-1.5 1.305-1.89.63-.42 1.5-.63 2.61-.63.6 0 1.02.075 1.26.225s.36.435.36.855c0 .48-.225 1.56-.675 3.24-.3 1.2-.54 2.25-.72 3.15s-.33 2.01-.45 3.33c.99-2.58 2.1-4.68 3.33-6.3s2.43-2.775 3.6-3.465 2.235-1.035 3.195-1.035c.87 0 1.53.255 1.98.765.48.48.72 1.2.72 2.16 0 .57-.165 1.65-.495 3.24z"/><path d="m31.6487 39.7352.7724-.6351zm0-12.105.8868.4621.0026-.0051zm4.41-5.175.5762.8173.0025-.0018zm7.2-1.575-.7894.6139.0383.0491.044.0441zm.585 1.35-.9751.2216.2139.9413.9483-.1806zm3.51 5.895.9806.1961.0018-.0096zm-.72 8.28-.7894.6139.0202.0259.0218.0245zm2.97-.675.6644.7474.0075-.0068.0075-.0069zm3.285-3.6-.7593-.6509-.0078.0093zm2.115-.09-.8638.5038.0151.0259.0166.025zm-.495 4.275-.7568-.6537-.0115.0134-.0111.0137zm-3.915 3.87.6055.7958zm-6.75.585-.6485.7612.0151.0128.0156.0123zm-1.845-2.79.9412-.3379-.7004-1.951-1.0911 1.7625zm-2.385-1.935-.7926-.6098zm1.305-3.105.9788.2048.0016-.0077zm1.665-8.28.9804.1971.2466-1.2266-1.2508.0297zm-3.51 1.44.6508.7592.0017-.0015zm-2.52 3.6.922.3872zm-.405 6.84-.7809.6247.0123.0153.0129.0149zm-.045 4.22c-1.5829 0-2.7761-.5577-3.6826-1.6601l-1.5448 1.2702c1.3135 1.5975 3.0903 2.3899 5.2274 2.3899zm-3.6826-1.6601c-.9287-1.1296-1.4374-2.6565-1.4374-4.6749h-2c0 2.3615.6013 4.3746 1.8926 5.9451zm-1.4374-4.6749c0-2.239.5161-4.3455 1.5518-6.3329l-1.7736-.9243c-1.1843 2.2726-1.7782 4.6961-1.7782 7.2572zm1.5544-6.338c1.0426-2.0288 2.4097-3.6255 4.0967-4.8147l-1.1523-1.6347c-1.9729 1.3908-3.5458 3.2441-4.7232 5.5353zm4.0993-4.8165c1.709-1.2128 3.4748-1.7955 5.3163-1.7955v-2c-2.2985 0-4.4627.7372-6.4738 2.1644zm5.3163-1.7955c.2704 0 .4358.0286.5248.0563.086.0267.047.0348-.0092-.0374l1.5787-1.2279c-.5171-.6649-1.3892-.791-2.0943-.791zm.5979.1121c-.0019-.0019.0104.01.0327.0455.0223.0353.0508.0879.0831.1625.0656.1514.1351.3659.2012.6565l1.9502-.4433c-.1576-.6934-.4016-1.384-.853-1.8355zm1.4792 1.6252c.5639-.1074 1.161-.1623 1.7929-.1623v-2c-.7481 0-1.471.065-2.1671.1976zm1.7929-.1623c.6461 0 .9512.1208 1.0725.2074.0593.0424.1325.1054.1325.3676h2c0-.7879-.2943-1.5124-.97-1.995-.6137-.4384-1.4112-.58-2.235-.58zm1.205.575c0 .5152-.2014 1.9113-.6575 4.3134l1.9649.3731c.4439-2.3379.6926-3.9418.6926-4.6865zm-.6556 4.3038c-.6887 3.4438-1.0544 5.9344-1.0544 7.3962h2c0-1.2383.3243-3.5477 1.0156-7.0039zm-1.0544 7.3962c0 .602.1414 1.1999.5256 1.6939l1.5787-1.2279c-.0358-.046-.1043-.1681-.1043-.466zm.5676 1.7443c.429.4827 1.0006.7407 1.6474.7407v-2c-.052 0-.0754-.0091-.0846-.0132-.0094-.0042-.0324-.0161-.068-.0562zm1.6474.7407c.9563 0 1.8857-.5783 2.7344-1.3326l-1.3288-1.4949c-.7713.6857-1.2219.8275-1.4056.8275zm2.7494-1.3463c.858-.7944 1.9858-2.034 3.3727-3.6922l-1.5342-1.2831c-1.3731 1.6418-2.4353 2.8023-3.1973 3.5078zm3.3648-3.683c.2175-.2537.3635-.2807.4558-.2807v-2c-.8077 0-1.4717.3929-1.9743.9792zm.4558-.2807c.0202 0 .0267.0022.0232.0013-.0041-.0011-.012-.0039-.0202-.0089-.008-.0047-.0093-.0073-.0044-.0021.0054.0058.019.0216.0376.0535l1.7276-1.0077c-.3742-.6415-.9893-1.0361-1.7638-1.0361zm.0679.0947c.0912.1367.1921.4122.1921.9303h2c0-.742-.1391-1.4564-.528-2.0397zm.1921.9303c0 1.0502-.249 1.7163-.6118 2.1363l1.5136 1.3073c.7772-.8999 1.0982-2.0939 1.0982-3.4436zm-.6344 2.1634c-1.1857 1.4749-2.4336 2.7059-3.7411 3.7007l1.211 1.5917c1.4525-1.1051 2.8146-2.4542 4.0889-4.0393zm-3.7411 3.7007c-1.2654.9628-2.3927 1.3709-3.3995 1.3709v2c1.5732 0 3.1159-.642 4.6105-1.7792zm-3.3995 1.3709c-.7477 0-1.4485-.2431-2.1272-.7764l-1.2356 1.5727c1.0013.7867 2.1305 1.2037 3.3628 1.2037zm-2.0965-.7513c-.6563-.559-1.1813-1.333-1.5523-2.3666l-1.8824.6757c.469 1.3064 1.174 2.3925 2.1377 3.2134zm-3.3438-2.5551c-1.4302 2.3103-3.1102 3.3064-5.0447 3.3064v2c2.8055 0 5.0555-1.524 6.7453-4.2537zm-3.4247.7614c1.0999 0 1.9895-.6592 2.6826-1.5603l-1.5852-1.2195c-.5069.659-.8773.7798-1.0974.7798zm2.6826-1.5603c.7174-.9326 1.2003-2.1202 1.4912-3.5099l-1.9576-.4097c-.2491 1.1903-.6362 2.0727-1.1188 2.7001zm1.4928-3.5176 1.665-8.28-1.9608-.3943-1.665 8.28zm.6608-9.4769c-1.5214.0363-2.9077.622-4.1387 1.682l1.305 1.5155c.929-.7999 1.8827-1.1743 2.8813-1.198zm-4.137 1.6805c-1.1872 1.0176-2.1115 2.3538-2.7912 3.972l1.844.7745c.5803-1.3818 1.336-2.4456 2.2488-3.228zm-2.7912 3.972c-.6832 1.6267-1.023 3.3487-1.023 5.1573h2c0-1.5515.2902-3.0094.867-4.3828zm-1.023 5.1573c0 1.0274.1933 1.9874.7591 2.6947l1.5618-1.2494c-.1542-.1928-.3209-.6128-.3209-1.4453zm.7843 2.7249c.6019.6945 1.4159 1.0201 2.3307 1.0201v-2c-.4053 0-.6412-.1245-.8193-.33zm21.0834 4.4751-.6644.7474.0068.0059.0068.0059zm-.36-4.455.7071.7071zm3.87-.72-.1738.9847.0315.0056.0319.0035zm1.215.135-.1104.9938 1.1543.1283-.0447-1.1606zm-.54-2.205-.9171.3987.0072.0165.0078.0162zm-1.17-1.98-.8087.5881.0065.009.0068.0089zm-1.35-1.71.7526-.6585-.9599-1.097-.678 1.2903zm-2.79 4.41-.7828-.6223-.005.0062-.0048.0063zm-2.97 3.33-.6972-.7171-.0099.01zm-2.88.315-.7682.6401.0138.0166.0144.0159zm.18-2.97.7719.6357.0042-.0052zm.585-.72.7761.6306.0014-.0018zm3.735-5.04.8436.5368.0099-.0154.0092-.0157zm1.8-3.465.9018.4321.0034-.0072zm2.025-4.545-.9181-.3965-.0029.0068zm5.31-1.755.4138-.9104zm.315 1.575.9558.294zm-.495 1.17-.8805-.4741-.0072.0133-.0067.0135zm-.36 4.23-.8742.4856.0101.0181.0108.0177zm1.485 2.025.7954-.6061-.0099-.013-.0103-.0126zm2.16 3.24-.8824.4705.0095.0178.0102.0174zm.675 4.14-.9939-.1105-.1821 1.639 1.5375-.5962zm5.175-4.545-.7593-.6508-.01.0117-.0097.012zm2.115-.09-.8638.5038.0151.0259.0166.025zm-.495 4.275.7784.6277.0056-.007zm-4.32 3.825.4392.8984.008-.004zm-5.04 1.08-.0298-.9996-.3506.0105-.2673.2271zm-4.275.53c-1.4182 0-2.3525-.3278-2.9492-.8393l-1.3016 1.5185c1.0833.9285 2.549 1.3208 4.2508 1.3208zm-2.9356-.8275c-.6441-.5724-.8794-1.1261-.8794-1.6825h-2c0 1.2435.5746 2.3098 1.5506 3.1774zm-.8794-1.6825c0-.5051.1726-.9285.5621-1.3179l-1.4142-1.4143c-.7505.7506-1.1479 1.6772-1.1479 2.7322zm.5621-1.3179c.3209-.3209.866-.5621 1.8129-.5621v-2c-1.2731 0-2.408.3287-3.2271 1.1478zm1.8129-.5621c.3164 0 .7062.0368 1.1762.1197l.3476-1.9695c-.55-.0971-1.0602-.1502-1.5238-.1502zm1.2396.1288 1.215.135.2208-1.9877c-.27-.03-.675-.075-1.215-.135zm2.3246-.8973c-.0351-.9134-.247-1.7824-.6371-2.598l-1.8042.8629c.2699.5644.418 1.1654.4428 1.812zm-.6221-2.5653c-.3337-.7675-.7655-1.4967-1.2917-2.1873l-1.5908 1.2121c.4338.5694.782 1.1602 1.0483 1.7727zm-1.2784-2.1694c-.493-.678-.9618-1.2726-1.4061-1.7803l-1.5052 1.317c.3957.4522.8269.9976 1.2939 1.6396zm-3.044-1.587c-.9099 1.7319-1.807 3.1452-2.6875 4.2529l1.5656 1.2445c.9795-1.2323 1.9424-2.759 2.8924-4.5671zm-2.6973 4.2654c-.8702 1.1313-1.8282 2.2055-2.8745 3.2228l1.3942 1.434c1.1136-1.0828 2.1357-2.2286 3.0655-3.4373zm-2.8845 3.2327c-.4062.4061-.7355.5171-1.0029.5171v2c.9326 0 1.7433-.4291 2.4171-1.1029zm-1.0029.5171c-.2224 0-.3352-.0634-.4301-.1677l-1.4799 1.3453c.5052.5557 1.1724.8224 1.91.8224zm-.4018-.1352c-.1366-.164-.2182-.3666-.2182-.6648h-2c0 .7217.2184 1.3891.6818 1.9451zm-.2182-.6648c0-.3442.1134-.679.4019-1.0293l-1.5438-1.2715c-.5516.6698-.8581 1.4449-.8581 2.3008zm.4061-1.0345.585-.72-1.5522-1.2611-.585.72zm.5864-.7217c1.6602-2.0526 2.9319-3.766 3.8011-5.132l-1.6873-1.0737c-.8107 1.274-2.029 2.9206-3.6688 4.948zm3.8202-5.1631c.5297-.9036 1.1431-2.0862 1.8391-3.5386l-1.8036-.8643c-.6841 1.4276-1.2706 2.555-1.7609 3.3914zm1.8425-3.5458c.6957-1.4822 1.376-3.009 2.0408-4.5803l-1.842-.7793c-.6552 1.5487-1.3249 3.0519-2.0092 4.5097zm2.0378-4.5735c.2033-.4707.4968-.7917.8848-1.0078.4029-.2244.9687-.3686 1.7522-.3686v-2c-1.0165 0-1.9432.1857-2.7253.6213-.797.4439-1.381 1.1129-1.7478 1.9622zm2.637-1.3764c.8373 0 1.2265.0832 1.3412.1353l.8276-1.8207c-.5453-.2479-1.3261-.3146-2.1688-.3146zm1.3412.1353c.0397.0181.0039.0111-.039-.0513-.0206-.0299-.0351-.062-.0437-.0916-.0083-.0286-.0085-.0463-.0085-.0474h2c0-.3395-.0878-.6858-.2997-.9941-.2079-.3024-.4913-.5044-.7815-.6363zm-.0912-.1903c0-.0083-.0002.0319-.0236.1427-.0218.1037-.0579.2417-.1122.4182l1.9116.5881c.1217-.3957.2242-.8061.2242-1.149zm-.1358.5609c-.0993.3226-.238.6525-.4197.99l1.761.9482c.2383-.4426.4295-.8927.5703-1.3501zm-.4336 1.0168c-.5718 1.1435-.9156 2.2204-.9156 3.1923h2c0-.5281.1962-1.2813.7044-2.2978zm-.9156 3.1923c0 .6715.2226 1.3349.5758 1.9706l1.7483-.9713c-.2468-.4442-.3241-.7709-.3241-.9993zm.5967 2.0064c.3637.5951.8903 1.3096 1.5631 2.1352l1.5504-1.2633c-.6473-.7944-1.1106-1.4299-1.4069-1.9148zm1.5429 2.1096c.9431 1.2379 1.6281 2.2704 2.073 3.1045l1.7647-.9411c-.5151-.9658-1.27-2.0934-2.2469-3.3755zm2.0927 3.1397c.4163.7101.6277 1.4944.6277 2.3743h2c0-1.2202-.2986-2.3559-.9023-3.3858zm.6277 2.3743c0 .2448-.0253.6219-.0839 1.1495l1.9878.2209c.0613-.5524.0961-1.0153.0961-1.3704zm1.2715 2.1923c1.7291-.6704 3.5924-2.3654 5.5925-4.8503l-1.558-1.2541c-1.96 2.4351-3.5466 3.7701-4.7575 4.2397zm5.5727-4.8266c.2175-.2537.3635-.2807.4558-.2807v-2c-.8077 0-1.4717.3929-1.9743.9792zm.4558-.2807c.0202 0 .0267.0022.0232.0013-.0041-.0011-.012-.0039-.0202-.0089-.008-.0047-.0093-.0073-.0044-.0021.0054.0058.019.0216.0376.0535l1.7276-1.0077c-.3742-.6415-.9893-1.0361-1.7638-1.0361zm.0679.0947c.0912.1367.1921.4122.1921.9303h2c0-.742-.1391-1.4564-.528-2.0397zm.1921.9303c0 .9703-.24 1.6651-.6391 2.1693l1.5681 1.2414c.7409-.9359 1.071-2.1011 1.071-3.4107zm-.6334 2.1622c-1.4544 1.8034-2.788 2.9579-3.9888 3.5583l.8944 1.7889c1.5592-.7796 3.1056-2.1751 4.6512-4.0917zm-3.9808 3.5544c-1.1869.5802-2.7172.9217-4.6306.9788l.0596 1.9991c2.1065-.0629 3.9362-.4414 5.4494-1.1812zm-5.2485 1.2164c-1.01.8586-2.2023 1.292-3.6273 1.292v2c1.875 0 3.5327-.5866 4.9226-1.7681zm28.1768-8.418-.8638.5038.0151.0259.0166.025zm-.495 4.275-.7568-.6537-.0101.0117-.0097.0119zm-4.23 3.915-.5547-.8321zm-14.31-15.39.9978.0665.0711-1.0665h-1.0689zm-3.6-.495-.7399.6726.016.0176.0168.0169zm4.14-4.095v1h.8573l.131-.8473zm2.34-9.045-.9334-.359zm3.78-6.52505-.7338-.67944-.0068.00745zm7.785-.76499.839-.5442zm-4.77 16.33504-.6626-.749-1.9771 1.749h2.6397zm-4.185 4.59v-1h-.9608l-.0384.96zm.99 10.08-.8683.4961.0045.0077.0045.0076zm6.93.72.6189.7854zm3.51-3.51.7562.6543.003-.0036zm-8.19-23.85004-.8945-.44724-.0047.00977zm-1.575 4.68004-.9694-.246-.0025.0104zm-1.215 6.615-.9909-.1346-.3559 2.6205 2.0007-1.7294zm3.96-5.13-.9055-.4245-.0029.0063zm8.235 18.055c.0202 0 .0267.0022.0232.0013-.0041-.0011-.012-.0039-.0202-.0089-.008-.0047-.0093-.0073-.0044-.0021.0054.0058.019.0216.0376.0535l1.7276-1.0077c-.3742-.6415-.9893-1.0361-1.7638-1.0361zm.0679.0947c.0912.1367.1921.4122.1921.9303h2c0-.742-.1391-1.4564-.528-2.0397zm.1921.9303c0 1.0502-.249 1.7163-.6118 2.1363l1.5136 1.3073c.7772-.8999 1.0982-2.0939 1.0982-3.4436zm-.6316 2.1599c-1.2337 1.5207-2.5707 2.7547-4.0081 3.713l1.1094 1.6641c1.6226-1.0817 3.1056-2.4577 4.4519-4.117zm-4.0081 3.713c-1.353.902-2.9119 1.3621-4.7103 1.3621v2c2.1615 0 4.1127-.56 5.8197-1.698zm-4.7103 1.3621c-2.7952 0-4.7593-.9642-6.0699-2.8082-1.3553-1.9066-2.1101-4.89-2.1101-9.1068h-2c0 4.3931.7752 7.8672 2.4799 10.2656 1.7493 2.461 4.3753 3.6494 7.7001 3.6494zm-8.18-11.915c0-1.2973.0442-2.6101.1328-3.9385l-1.9956-.1331c-.0914 1.3716-.1372 2.7288-.1372 4.0716zm-.865-5.005h-1.755v2h1.755zm-1.755 0c-.8524 0-1.1073-.1716-1.1379-.2022l-1.4142 1.4143c.6294.6294 1.6044.7879 2.5521.7879zm-1.1051-.1677c-.0558-.0615-.1899-.2866-.1899-.9023h-2c0 .8242.1659 1.6491.7101 2.2476zm-.1899-.9023c0-.7324.1514-1.0965.2857-1.2637.1008-.1253.2835-.2563.7393-.2563v-2c-.8942 0-1.724.2889-2.2983 1.0036-.5407.6728-.7267 1.5687-.7267 2.5164zm1.025-1.52h2.565v-2h-2.565zm3.5533-.8473c.5006-3.2392 1.2639-6.1839 2.285-8.8388l-1.8667-.7179c-1.0789 2.8052-1.8755 5.8904-2.3949 9.2512zm2.285-8.8388c1.0197-2.65121 2.2231-4.70862 3.5872-6.21196l-1.4811-1.34398c-1.5758 1.73666-2.8925 4.02926-3.9728 6.83804zm3.5805-6.20454c1.369-1.47854 2.7253-2.1094 4.0812-2.1094v-2c-2.0641 0-3.9178.98912-5.5488 2.75059zm4.0812-2.1094c.9013 0 1.5843.36635 2.131 1.20919l1.678-1.08839c-.8933-1.37716-2.1903-2.1208-3.809-2.1208zm2.131 1.20919c.5899.90939.919 2.10217.919 3.6408h2c0-1.82136-.3909-3.41858-1.241-4.72919zm.919 3.6408c0 4.32735-1.7985 8.11545-5.5126 11.40105l1.3252 1.498c4.0859-3.6145 6.1874-7.9264 6.1874-12.89905zm-4.85 13.15005h5.04v-2h-5.04zm5.04 0c.1718 0 .2748.0193.3276.0354.0488.0148.0337.0201.0003-.0133l1.4142-1.4143c-.485-.4849-1.1535-.6078-1.7421-.6078zm.3279.0221c-.0556-.0556-.045-.0815-.0223.0028.0225.0835.0444.2299.0444.4601h2c0-.6193-.0991-1.3683-.6079-1.8772zm.0221.4629c0 .7044-.2573 1.1485-.7924 1.4752-.6153.3757-1.6668.6298-3.2926.6298v2c1.7642 0 3.2552-.2635 4.3349-.9228 1.1599-.7083 1.7501-1.8167 1.7501-3.1822zm-4.085 2.105h-5.49v2h5.49zm-6.4892.96c-.0602 1.5047-.0908 2.6902-.0908 3.55h2c0-.8203.0294-1.9748.0892-3.4701zm-.0908 3.55c0 3.1366.3514 5.5605 1.2117 7.0661l1.7365-.9923c-.5796-1.0144-.9482-2.9705-.9482-6.0738zm1.2207 7.0814c.948 1.5927 2.4628 2.3786 4.3693 2.3786v-2c-1.2735 0-2.0987-.4741-2.6507-1.4015zm4.3693 2.3786c1.5088 0 2.8681-.4621 4.0389-1.3846l-1.2378-1.5709c-.8092.6375-1.7299.9555-2.8011.9555zm4.0389-1.3846c1.0611-.836 2.2784-2.0592 3.6473-3.6411l-1.5124-1.3087c-1.3311 1.5382-2.4538 2.6549-3.3727 3.3789zm3.6503-3.6447c.2175-.2537.3635-.2807.4558-.2807v-2c-.8077 0-1.4717.3929-1.9743.9792zm-7.4192-27.21074c-.6559 0-1.1471.40515-1.4653.7607-.3405.38059-.657.89786-.9591 1.50208l1.7888.89443c.2679-.53578.4914-.8735.6608-1.06292.1919-.21445.1807-.09429-.0252-.09429zm-2.4292 2.27253c-.5832 1.19865-1.128 2.83351-1.6451 4.87151l1.9386.4919c.5029-1.982 1.0081-3.46713 1.5049-4.48848zm-1.6477 4.88191c-.4895 2.0192-.9003 4.2586-1.234 6.716l1.9818.2691c.3263-2.4026.7254-4.5732 1.1959-6.5139zm.4108 7.6071c1.8646-1.6117 3.2778-3.4335 4.2145-5.4684l-1.8168-.8363c-.8033 1.7451-2.0301 3.3433-3.7056 4.7916zm4.2115-5.4621c.9412-2.0077 1.4446-3.895 1.4446-5.64445h-2c0 1.37055-.3966 2.96325-1.2555 4.79555zm1.4446-5.64445c0-.91881-.0819-1.72739-.3105-2.34063-.1168-.31305-.2949-.63922-.5799-.89396-.3059-.27342-.6871-.4204-1.0996-.4204v2c-.0825 0-.175-.03637-.2333-.08853-.0375-.0335-.0095-.02779.0388.10166.1013.27176.1845.79067.1845 1.64186zm24.4515 22.81505-.864.5038.015.0259.016.025zm-.495 4.275-.757-.6537-.008.0092-.008.0093zm-4.725 3.735-.488-.873-.006.0031zm-13.8155-.855.7009-.7133zm-1.305-12.78.8975.4411.0029-.006zm3.6-4.275-.5584-.8297-.0074.0051zm9.4505 0-.708.7071.006.0051.005.005zm-.675 9.54-.708-.7072zm-7.5155 3.51-.2387-.9711-1.259.3094.6191 1.1392zm8.8655.675.477.8785.006-.003zm4.5-3.735-.76-.6508-.006.0074-.006.0076zm-12.9605-5.22-.8557-.5175-.0045.0074-.0043.0074zm-1.125 4.77h-1v1.265l1.2309-.2921zm4.185-1.89-.6357-.772zm1.035-4.275-.7682.6401.029.0349.0321.0321zm10.0805 6.985c.02 0 .026.0022.023.0013-.004-.0011-.012-.0039-.02-.0089-.008-.0047-.01-.0073-.005-.0021.006.0058.019.0216.038.0535l1.727-1.0077c-.374-.6415-.989-1.0361-1.763-1.0361zm.067.0947c.092.1367.193.4122.193.9303h2c0-.742-.14-1.4564-.528-2.0397zm.193.9303c0 1.0502-.25 1.7163-.612 2.1363l1.513 1.3073c.778-.8999 1.099-2.0939 1.099-3.4436zm-.628 2.1548c-1.009 1.2273-2.475 2.3987-4.44 3.4972l.975 1.7459c2.115-1.1815 3.799-2.5 5.01-3.9728zm-4.446 3.5003c-1.859 1.0547-3.8495 1.5799-5.9865 1.5799v2c2.4825 0 4.8125-.6149 6.9735-1.8402zm-5.9865 1.5799c-2.9673 0-5.131-.8012-6.6341-2.2783l-1.4018 1.4265c1.9769 1.9429 4.7033 2.8518 8.0359 2.8518zm-6.6341-2.2783c-1.5084-1.4824-2.3109-3.5427-2.3109-6.3067h-2c0 3.1759.9375 5.7956 2.9091 7.7332zm-2.3109-6.3067c0-1.9249.4033-3.693 1.2025-5.3189l-1.7949-.8823c-.9409 1.9141-1.4076 3.986-1.4076 6.2012zm1.2054-5.3249c.8003-1.6558 1.89-2.9417 3.2654-3.8856l-1.1316-1.6491c-1.6846 1.1561-2.9949 2.7202-3.9345 4.6644zm3.258-3.8806c1.3886-.9346 2.9477-1.4045 4.7066-1.4045v-2c-2.1411 0-4.092.58-5.8234 1.7454zm4.7066-1.4045c1.5239 0 2.6475.4517 3.4775 1.2821l1.415-1.4143c-1.27-1.2696-2.936-1.8678-4.8925-1.8678zm3.4885 1.2922c.816.7933 1.272 1.9074 1.272 3.4678h2c0-1.9797-.595-3.6556-1.879-4.9023zm1.272 3.4678c0 1.7975-.64 3.3302-1.958 4.6478l1.415 1.4143c1.682-1.6824 2.543-3.7197 2.543-6.0621zm-1.958 4.6478c-1.2761 1.2766-3.5671 2.391-7.0462 3.2461l.4774 1.9422c3.6009-.885 6.3198-2.1106 7.9838-3.774zm-7.6861 4.6947c.9837 1.8101 2.8292 2.5925 5.1536 2.5925v-2c-1.8756 0-2.8801-.5976-3.3964-1.5476zm5.1536 2.5925c1.5744 0 3.2715-.5398 5.0675-1.5166l-.955-1.7569c-1.624.8832-2.9869 1.2735-4.1125 1.2735zm5.0735-1.5195c1.85-1.0208 3.448-2.3471 4.788-3.9748l-1.543-1.2715c-1.18 1.4323-2.582 2.596-4.212 3.4952zm4.776-3.9598c.217-.2537.363-.2807.456-.2807v-2c-.808 0-1.472.3929-1.975.9792zm-10.8845-8.8057c-1.5808 0-2.8023.9482-3.6907 2.4175l1.7114 1.0349c.6716-1.1107 1.3401-1.4524 1.9793-1.4524zm-3.6995 2.4323c-.8568 1.4737-1.2605 3.2159-1.2605 5.1827h2c0-1.6932.3463-3.0711.9895-4.1774zm-1.2605 5.1827v.09h2v-.09zm1.2309 1.0629c1.8657-.4427 3.4162-1.1245 4.5898-2.091l-1.2714-1.5439c-.8664.7135-2.1059 1.2917-3.7802 1.689zm4.5898-2.091c1.202-.9899 1.8948-2.2303 1.8948-3.6969h-2.0005c0 .7533-.3277 1.4629-1.1657 2.153zm1.8948-3.6969c0-.7728-.2309-1.4996-.7884-2.0572l-1.4142 1.4143c.1025.1024.2021.2756.2021.6429zm-.7273-1.9902c-.5201-.6242-1.2419-.8998-2.0282-.8998v2c.2937 0 .4119.0843.4918.1801zm26.7533 2.5752-.73.6839.022.0235.024.0221zm.45 2.97.917.3969.006-.0127.005-.0129zm-2.025 2.79.652.7574zm-5.04.225-.725.6887.008.0093.009.0091zm-.765-4.275-.993-.1241-.002.0167-.001.0168zm-.09-1.53-.8.6.042.0568.05.0503zm-2.07 1.35.808.5882.008-.0116zm-2.16 3.96-.917-.4zm-1.755 5.22-.972-.2388-.001.0077-.002.0077zm-1.125 2.88-.753-.6585zm-4.5-1.08-.937.3511.004.0102.004.01zm.99-16.875.953.3015.002-.0051zm1.305-1.89.545.8385.009-.0065zm3.555 3.69-.966-.2588-.003.0081-.002.0081zm-1.17 6.48-.996-.0906 1.929.4488zm3.33-6.3-.797-.6048zm8.775-3.735-.75.6616.02.0234.022.0221zm.225 5.4-.98-.2033-.249 1.2033h1.229zm.405 1c.384 0 .675.1263.935.4039l1.459-1.3679c-.64-.6823-1.459-1.036-2.394-1.036zm.981.4495c.267.2508.404.5517.404.9805h2c0-.9513-.344-1.7904-1.037-2.4396zm.404.9805c0 .236-.055.529-.199.8886l1.857.7427c.216-.5404.342-1.0874.342-1.6313zm-.188.863c-.424.9789-1.011 1.7834-1.76 2.4295l1.305 1.5149c.991-.8539 1.754-1.9094 2.29-3.1505zm-1.76 2.4295c-.707.6094-1.44.8825-2.227.8825v2c1.312 0 2.499-.477 3.532-1.3676zm-2.227.8825c-.572 0-1.039-.1925-1.453-.6072l-1.415 1.4143c.786.7854 1.759 1.1929 2.868 1.1929zm-1.435-.5888c-.355-.3732-.58-.9148-.58-1.7412h-2c0 1.2135.344 2.2919 1.13 3.1187zm-.58-1.7412c0-.5354.028-1.1199.085-1.7545l-1.991-.1811c-.063.6854-.094 1.3309-.094 1.9356zm.082-1.721c.059-.4748.098-.8632.098-1.114h-2c0 .1091-.022.3807-.083.8659zm.098-1.114c0-.3942-.1-.8735-.473-1.2472l-1.415 1.4143c-.062-.0622-.093-.1262-.106-.1659-.012-.0349-.006-.0409-.006-.0012zm-.38-1.14c-.279-.3719-.696-.58-1.16-.58v2c-.062 0-.151-.0134-.245-.0606-.095-.0473-.158-.1101-.195-.1594zm-1.16-.58c-.591 0-1.076.3386-1.41.6372-.365.3268-.738.7779-1.117 1.3161l1.633 1.1533c.341-.4818.613-.7957.818-.9789.236-.2114.246-.1277.076-.1277zm-2.519 1.9418c-.778 1.069-1.531 2.4597-2.268 4.1482l1.833.7999c.703-1.6115 1.39-2.8608 2.052-3.7718zm-2.268 4.1482c-.744 1.7045-1.347 3.4986-1.81 5.3812l1.943.4775c.437-1.7774 1.004-3.4632 1.7-5.0588zm-1.813 5.3966c-.33 1.4385-.664 2.1719-.903 2.4449l1.505 1.317c.601-.6871 1.017-1.8737 1.347-3.3152zm-.903 2.4449c-.151.1726-.499.3785-1.317.3785v2c1.101 0 2.133-.2742 2.822-1.0615zm-1.317.3785c-.385 0-.657-.0976-.868-.2536-.219-.1625-.444-.4421-.634-.9178l-1.857.7427c.29.7243.71 1.3447 1.301 1.7822.599.444 1.303.6465 2.058.6465zm-1.494-1.1512c-.383-1.0219-.611-2.7891-.611-5.4088h-2c0 2.6602.221 4.733.738 6.1111zm-.611-5.4088c0-3.8038.541-7.4067 1.618-10.8135l-1.907-.6031c-1.143 3.6132-1.711 7.4204-1.711 11.4166zm1.62-10.8186c.22-.7092.539-1.1167.895-1.348l-1.09-1.6769c-.845.5488-1.396 1.4013-1.716 2.4321zm.904-1.3544c.406-.2705 1.056-.462 2.056-.462v-2c-1.221 0-2.311.2284-3.165.7979zm2.056-.462c.262 0 .455.0167.589.0406.142.0254.169.0503.141.0324l1.06-1.696c-.498-.3112-1.171-.377-1.79-.377zm.73.073c-.031-.0192-.06-.0443-.083-.0727-.023-.0277-.035-.0507-.039-.061-.004-.0095-.001-.0052.003.0188.004.0241.009.0636.009.1219h2c0-.5853-.173-1.292-.83-1.703zm-.11.007c0 .1278-.036.4294-.148.966-.107.5143-.271 1.1843-.493 2.0152l1.931.5175c.228-.8491.402-1.5591.52-2.1248.113-.5434.19-1.0218.19-1.3739zm-.646 2.9974c-.302 1.2105-.546 2.2766-.73 3.1964l1.961.3923c.176-.8802.412-1.9141.71-3.1036zm-.73 3.1964c-.189.9465-.343 2.0943-.465 3.4356l1.991.1811c.118-1.2986.264-2.3709.435-3.2244zm1.464 3.8844c.968-2.5211 2.036-4.5303 3.193-6.0535l-1.593-1.2095c-1.303 1.7168-2.454 3.9076-3.467 6.5465zm3.193-6.0535c1.187-1.5632 2.295-2.6087 3.312-3.2084l-1.016-1.7227c-1.324.7803-2.616 2.0448-3.889 3.7216zm3.312-3.2084c1.076-.6349 1.964-.8963 2.687-.8963v-2c-1.198 0-2.44.4285-3.703 1.1736zm2.687-.8963c.668 0 1.02.1885 1.23.4266l1.499-1.3233c-.69-.7819-1.658-1.1033-2.729-1.1033zm1.272.4721c.227.2263.428.647.428 1.4529h2c0-1.1142-.28-2.1335-1.013-2.8672zm.428 1.4529c0 .4515-.142 1.4334-.475 3.0367l1.959.4065c.327-1.5767.516-2.7548.516-3.4432zm.505 4.24h.405v-2h-.405z"/></g></svg>