<svg width="71" height="73" viewBox="0 0 71 73" fill="none" xmlns="http://www.w3.org/2000/svg">
<path d="M24.1498 60.1013C25.9123 60.1013 27.6102 58.8456 27.6102 56.989C27.6102 55.1325 25.9123 53.8768 24.1498 53.8768C22.3873 53.8768 20.6895 55.1325 20.6895 56.989C20.6895 58.8456 22.3873 60.1013 24.1498 60.1013Z" stroke="#FF0000" stroke-width="2"/>
<path d="M47.1127 60.1013C48.8752 60.1013 50.5731 58.8456 50.5731 56.989C50.5731 55.1325 48.8752 53.8768 47.1127 53.8768C45.3502 53.8768 43.6523 55.1325 43.6523 56.989C43.6523 58.8456 45.3502 60.1013 47.1127 60.1013Z" stroke="#FF0000" stroke-width="2"/>
<path d="M28.1648 67.6911L28.1544 67.7133L28.1452 67.736C27.7119 68.7989 27.9371 69.8982 28.5732 70.7043C29.2034 71.503 30.2168 72.0002 31.3675 72.0002H39.8148C40.9655 72.0002 41.9789 71.503 42.6091 70.7043C43.2452 69.8982 43.4705 68.7989 43.0371 67.736L42.1111 68.1135L43.0371 67.736L42.4659 66.3347C41.9359 64.9831 40.4778 64.3676 39.2407 64.3676H32.0236C30.6437 64.3676 29.3336 65.0946 28.8142 66.2973L28.1648 67.6911Z" stroke="#FF0000" stroke-width="2"/>
<path d="M18.1226 46.2018L18.1226 46.2018L18.1191 46.2032C16.4694 46.8641 15.4591 48.7203 16.3796 50.4206C16.9838 51.5568 18.2486 52.2151 19.4751 52.2151C19.9448 52.2151 20.4013 52.1148 20.8381 51.9295C22.5687 51.2524 24.6092 51.2505 26.3554 51.8751L26.3937 51.8888L26.433 51.8994C27.2853 52.128 28.1895 52.0843 28.9747 51.8054C29.7564 51.5277 30.4936 50.9863 30.8791 50.1589C31.6514 48.5012 30.709 46.6426 28.9949 46.0482C25.4842 44.7697 21.5441 44.846 18.1226 46.2018Z" stroke="#FF0000" stroke-width="2"/>
<path d="M52.5695 45.9919L52.555 45.9861L52.5403 45.9807C49.0275 44.699 45.084 44.7745 41.6597 46.1313L41.6597 46.1313L41.6562 46.1327C40.0065 46.7936 38.9963 48.6498 39.9167 50.3501C40.5209 51.4863 41.7857 52.1446 43.0122 52.1446C43.4819 52.1446 43.9384 52.0443 44.3752 51.859C46.1058 51.1819 48.1463 51.18 49.8925 51.8046L49.8924 51.8047L49.9045 51.8088C50.7428 52.0967 51.6493 52.0705 52.4326 51.7991C53.2078 51.5306 53.9399 50.9915 54.3266 50.1751C54.7413 49.3504 54.7508 48.4581 54.4013 47.6806C54.0558 46.9121 53.3917 46.3213 52.5695 45.9919Z" stroke="#FF0000" stroke-width="2"/>
<path d="M63.2858 32.6837V24.8827C63.2858 11.5174 50.7136 1 35.6318 1C20.548 1 7.97791 11.5896 7.97791 24.8827V29.4592V30.4592H8.97791H23.33C24.3205 30.4592 24.7904 31.0645 24.7904 31.5714C24.7904 32.0784 24.3205 32.6837 23.33 32.6837H8.97791H4.87731C3.0794 32.6837 1.41694 33.909 1.41694 35.7959C1.41694 36.9783 2.06966 37.9008 2.99943 38.425C2.61721 38.7435 2.28003 39.1034 1.99611 39.4961C0.865171 41.0604 0.594772 43.1446 1.72029 45.0357C1.72084 45.0366 1.72139 45.0376 1.72194 45.0385L6.63756 53.4084C6.63788 53.4089 6.63819 53.4095 6.63851 53.41C7.3604 54.6477 8.76901 54.9802 9.86693 54.7774C10.9661 54.5743 12.1922 53.7296 12.1922 52.201C12.1922 52.094 12.2407 51.9589 12.4057 51.8254C12.5754 51.6881 12.8417 51.5816 13.1605 51.5816C14.2835 51.5816 15.4821 50.9954 15.9064 49.7918L16.3081 48.6884C16.9727 47.0454 16.3847 45.2725 15.1241 44.1902L14.8781 43.979C14.1629 43.3651 13.8325 42.6435 13.8325 41.9214C13.8325 40.4181 15.2989 38.9786 17.3431 38.9786H35.2218H35.6318H50.9198C51.0129 39.9367 50.9603 40.9051 50.735 41.8241L50.726 41.8608L50.7198 41.8981L50.7123 41.943C50.6344 42.4089 50.5229 43.0759 50.7312 43.8382C51.176 46.1722 53.3277 47.8109 55.7863 48.056C57.2676 48.2141 58.7006 47.9104 59.8046 47.2413C60.5456 47.9094 61.6389 48.2238 62.7619 48.0502C64.0518 47.8634 65.2481 47.0133 65.6242 45.7214L65.6371 45.6774L65.6458 45.6324C65.7252 45.2233 65.7604 44.7763 65.6383 44.3079C68.2663 43.5672 70.3651 41.0993 69.6592 38.1843C69.5939 37.8651 69.4729 37.5644 69.3353 37.2969C69.6024 36.871 69.7582 36.3721 69.7645 35.8304C69.8764 33.8925 68.1485 32.6837 66.3864 32.6837H63.2858Z" stroke="#FF0000" stroke-width="2"/>
</svg>
