<svg fill="none" height="73" viewBox="0 0 71 73" width="71" xmlns="http://www.w3.org/2000/svg"><g stroke="#b30000" stroke-width="2"><path d="m24.1503 60.1013c1.7625 0 3.4604-1.2557 3.4604-3.1123 0-1.8565-1.6979-3.1122-3.4604-3.1122s-3.4604 1.2557-3.4604 3.1122c0 1.8566 1.6979 3.1123 3.4604 3.1123z"/><path d="m47.1134 60.1013c1.7626 0 3.4604-1.2557 3.4604-3.1123 0-1.8565-1.6978-3.1122-3.4604-3.1122-1.7625 0-3.4603 1.2557-3.4603 3.1122 0 1.8566 1.6978 3.1123 3.4603 3.1123z"/><path d="m28.1643 67.6911-.0103.0222-.0093.0227c-.4333 1.0629-.2081 2.1622.428 2.9683.6302.7987 1.6436 1.2959 2.7944 1.2959h8.4472c1.1507 0 2.1641-.4972 2.7943-1.2959.6361-.8061.8614-1.9054.428-2.9683l-.926.3775.926-.3775-.5712-1.4013c-.53-1.3516-1.9881-1.9671-3.2252-1.9671h-7.217c-1.38 0-2.6901.727-3.2095 1.9297z"/><path d="m18.1228 46.2018-.0035.0014c-1.6497.6609-2.6599 2.5171-1.7395 4.2174.6042 1.1362 1.869 1.7945 3.0955 1.7945.4697 0 .9262-.1003 1.3631-.2856 1.7306-.6771 3.7711-.679 5.5172-.0544l.0383.0137.0394.0106c.8522.2286 1.7564.1849 2.5416-.094.7818-.2777 1.5189-.8191 1.9044-1.6465.7724-1.6577-.1701-3.5163-1.8842-4.1107-3.5107-1.2785-7.4507-1.2022-10.8723.1536z"/><path d="m52.5704 45.9919-.0144-.0058-.0147-.0054c-3.5128-1.2817-7.4564-1.2062-10.8806.1506l-.0036.0014c-1.6496.6609-2.6599 2.5171-1.7394 4.2174.6041 1.1362 1.8689 1.7945 3.0955 1.7945.4697 0 .9262-.1003 1.363-.2856 1.7306-.6771 3.7711-.679 5.5172-.0544v.0001l.0121.0041c.8383.2879 1.7447.2617 2.5281-.0097.7752-.2685 1.5073-.8076 1.8939-1.624.4148-.8247.4243-1.717.0748-2.4945-.3455-.7685-1.0096-1.3593-1.8319-1.6887z"/><path d="m63.2858 32.6837v-7.801c0-13.3653-12.5722-23.8827-27.654-23.8827-15.0838 0-27.65389 10.5896-27.65389 23.8827v4.5765 1h1 14.35209c.9905 0 1.4604.6053 1.4604 1.1122 0 .507-.4699 1.1123-1.4604 1.1123h-14.35209-4.1006c-1.79791 0-3.46037 1.2253-3.46037 3.1122 0 1.1824.65272 2.1049 1.58249 2.6291-.38222.3185-.7194.6784-1.00332 1.0711-1.130939 1.5643-1.401338 3.6485-.27582 5.5396.00055.0009.0011.0019.00165.0028l4.91562 8.3699c.00032.0005.00063.0011.00095.0016.72189 1.2377 2.1305 1.5702 3.22842 1.3674 1.09917-.2031 2.32527-1.0478 2.32527-2.5764 0-.107.0485-.2421.2135-.3756.1697-.1373.436-.2438.7548-.2438 1.123 0 2.3216-.5862 2.7459-1.7898l.4017-1.1034c.6646-1.643.0766-3.4159-1.184-4.4982l-.246-.2112c-.7152-.6139-1.0456-1.3355-1.0456-2.0576 0-1.5033 1.4664-2.9428 3.5106-2.9428h17.8787.41 15.288c.0931.9581.0405 1.9265-.1848 2.8455l-.009.0367-.0062.0373-.0075.0449c-.0779.4659-.1894 1.1329.0189 1.8952.4448 2.334 2.5965 3.9727 5.0551 4.2178 1.4813.1581 2.9143-.1456 4.0183-.8147.741.6681 1.8343.9825 2.9573.8089 1.2899-.1868 2.4862-1.0369 2.8623-2.3288l.0129-.044.0087-.045c.0794-.4091.1146-.8561-.0075-1.3245 2.628-.7407 4.7268-3.2086 4.0209-6.1236-.0653-.3192-.1863-.6199-.3239-.8874.2671-.4259.4229-.9248.4292-1.4665.1119-1.9379-1.616-3.1467-3.3781-3.1467z"/></g></svg>