<svg width="44" height="91" viewBox="0 0 44 91" fill="none" xmlns="http://www.w3.org/2000/svg">
<path d="M21.5 33C26.463 33 30.5 28.962 30.5 24C30.5 19.038 26.463 15 21.5 15C16.538 15 12.5 19.038 12.5 24C12.5 28.962 16.538 33 21.5 33ZM21.5 18C24.809 18 27.5 20.691 27.5 24C27.5 27.309 24.809 30 21.5 30C18.191 30 15.5 27.309 15.5 24C15.5 20.691 18.191 18 21.5 18Z" fill="#FF0000"/>
<path d="M43 74.994L42.999 74.783L36.964 54H41.5C42.328 54 43 53.328 43 52.5C43 51.672 42.328 51 41.5 51H36.093L31.182 34.088C33.838 31.539 35.5 27.963 35.5 24C35.5 17.671 31.275 12.315 25.5 10.59V0H17.5V10.59C11.725 12.315 7.5 17.671 7.5 24C7.5 28.343 9.488 32.231 12.602 34.801L7.898 51H1.5C0.671 51 0 51.672 0 52.5C0 53.328 0.671 54 1.5 54H7.027L0.964001 74.878V75.089C0.929001 88.568 1.526 89.166 2.005 89.647L2.494 90.113H3.116H3.117C3.576 90.113 4.403 89.92 4.779 88.625C6.347 83.227 11.243 66.947 15.148 54H20V57.5C20 58.328 20.671 59 21.5 59C22.329 59 23 58.328 23 57.5V54H28.844C32.744 66.932 37.621 83.145 39.185 88.53C39.561 89.822 40.385 90.016 40.844 90.017L41.517 89.994L41.957 89.554C42.438 89.073 43.035 88.476 43 74.994V74.994ZM32.969 51H31.073C29.173 44.702 27.58 39.43 26.841 36.987L28.744 36.446L32.969 51ZM20.5 10V3H22.5V10H20.5ZM10.5 24C10.5 17.935 15.435 13 21.5 13C27.565 13 32.5 17.935 32.5 24C32.5 28.714 29.514 32.733 25.339 34.295L23.567 34.799C22.896 34.927 22.207 35 21.5 35C21.2 35 20.905 34.979 20.611 34.955L16.506 33.788C12.946 31.965 10.5 28.267 10.5 24V24ZM15.22 36.542L15.457 36.609C15.978 36.859 16.513 37.083 17.066 37.268C16.31 39.768 14.762 44.889 12.919 50.999H11.022L15.22 36.542ZM4.006 80.658C3.975 78.936 3.96 77.087 3.963 75.307L10.15 54H12.014C9.304 62.987 6.17 73.4 4.006 80.658ZM23 51V47.5C23 46.672 22.329 46 21.5 46C20.671 46 20 46.672 20 47.5V51H16.053C17.834 45.098 19.309 40.219 20.005 37.917C20.496 37.97 20.995 38 21.5 38C22.335 38 23.148 37.913 23.943 37.772C24.636 40.064 26.131 45.011 27.938 51H23ZM39.958 80.566C37.807 73.352 34.685 62.976 31.978 54H33.84L40 75.213C40.004 76.993 39.989 78.844 39.958 80.566V80.566Z" fill="#FF0000"/>
</svg>
