<svg fill="none" height="70" viewBox="0 0 68 70" width="68" xmlns="http://www.w3.org/2000/svg"><g stroke="#b30000"><path d="m50.1899 6.14438c0 3.16193-2.3215 5.64442-5.094 5.64442-2.7732 0-5.0947-2.48254-5.0947-5.64442s2.3215-5.64438 5.0947-5.64438c2.7725 0 5.094 2.48246 5.094 5.64438z"/><path d="m22.6875 17.2215c-.7011-.0459-1.3295.7796-1.5051 1.9059l.1752.0847-.1581.3268zm0 0 .4328.0279zm24.4311 28.0298-.0047-.0007-10.4045-1.3971-.5675-.0762.0009.5725.0327 21.1357v.0007c-.0003 1.7111-1.2511 3.0137-2.6967 3.0137-1.4463 0-2.6988-1.3034-2.6988-3.0144v-25.3174l.2255-1.5571c.2126-.5545.4943-.9554.8345-1.2197.3412-.2651.7754-.4195 1.3402-.4225l8.6858.6011.0063.0005 7.7913.6383.6889.0564-.162-.6719-4.3216-17.9315-.1347-.5592-.535.2113-7.3715 2.9116-.084.0332-.0672.0606c-.15.1353-.2719.17-.3626.1642l-.1001-.0066-.0367-.0024-.0366.003c-.0221.0018-.0554.0002-.1016-.0089l-.0326-.0065-.0331-.0021-10.3471-.6601-.2495.9491 13.8843 6.7144-.3844.9607-35.24699-17.0453.38554-.961 15.90705 7.6947.6821.3299.0351-.7569c.0019-.042.0008-.0799.0004-.0983l-.0004-.0221c-.0001-.0028 0-.0044 0-.0052.0322-.5898.2017-1.0896.423-1.4207.2287-.3422.4509-.4279.5925-.4187l.0005.0001.4329.0279.3538.0227.0003-.0008.1851.0118 12.9795.8309.1117.0072.1041-.0412 9.1949-3.6362.1749-.0691.086-.1674c.5789-1.1272 1.4671-1.9433 2.5537-2.2595 2.3052-.6704 4.9263 1.1375 5.7092 4.3639l5.3814 22.3223.0002.0004c.6333 2.6166-.2285 5.1511-1.8392 6.3511h-.0042l-.1286.0893c-.3292.2285-.68.4022-1.0551.5093l-.005.0015c-.4748.1408-.9564.1711-1.4366.1108l-.0303-.0038-.0306-.0001c-1.5429-.0042-3.9416-.3162-8.2748-.9402zm-25.9788-25.589.0595-.123-15.99764-7.5868 15.44434 7.4709c-.0021.0285-.0039.0571-.0055.0859l-.0001.0037c-.0019.0397-.001.0758-.0005.0951l.0001.0032.0004.0221c0 .0045-.0001.006 0 .0057zm-16.57592-7.4629-.57218 1.4263 35.6986 17.2637zm35.76382 18.4429.5706-1.4261-13.1106-6.3402-1.2253-.0782.0319-.499.2176-.4501 1.1053.5345 9.0242.5757c.0775.0154.1589.0234.2398.0168l.1008.0066c.2639.0169.5123-.096.7294-.2919z"/><path d="m21.3006 23.365-.7169-.3452v.7957 41.3899.5h.5 6.7545v2.4117h-27.3382v-2.4117h16.9467.5v-.5-42.1147h.5954l.217-.9504-9.14566-4.4061.07333-.1833 22.86743 11.0156-.0728.1824z"/><path d="m63.1016 65.1108.0283-.3387.0408-.4877-.4867-.0512-6.2251-.6555v-13.3958h9.1485c1.0258 0 1.6862-.9853 1.6862-1.9697 0-.9843-.6596-1.9698-1.6862-1.9698h-.0237v-10.0455l.8271-8.2964.0002-.0016c.1004-1.0406-.8039-1.8576-1.8183-1.9804l-.001-.0001c-1.011-.1202-2.0766.465-2.1784 1.5226-.0001.0006-.0001.0011-.0002.0016l-1.4505 14.5082zm0 0c.9076.2306 1.535 1.1147 1.535 2.0948 0 1.142-.8515 2.1524-2.0049 2.1524-1.1507 0-2.0016-1.0111-2.0016-2.1524 0-.1785.0213-.3524.0605-.5187l-4.2317-.4468v2.4096.5h-.5-2.0098-.5v-.5-2.3706l-3.8544.4075c.039.1679.0592.3423.0592.519 0 1.1431-.8565 2.1524-2.0055 2.1524-1.1491 0-2.0056-1.0093-2.0056-2.1524 0-.9697.6165-1.844 1.5056-2.0866l-.029-.3469-.0408-.4875.4865-.0514 5.884-.6216v-13.4304h-8.4538c-1.0305 0-1.687-.9861-1.687-1.9698 0-.9836.6565-1.9697 1.687-1.9697h18.3313m-.225 18.8691.225-18.8691m0-2.311c-.1759.0223-.3591.0239-.5465.0023l-.0017-.0002c-1.0106-.1201-1.921-.9371-1.8158-1.9815zm0 0v2.311m0-2.311v2.311"/></g></svg>