<svg width="69" height="71" viewBox="0 0 69 71" fill="none" xmlns="http://www.w3.org/2000/svg">
<path d="M46.0967 13.7888C49.508 13.7888 52.1907 10.7678 52.1907 7.14438C52.1907 3.52093 49.508 0.5 46.0967 0.5C42.6847 0.5 40.002 3.52089 40.002 7.14438C40.002 10.7679 42.6847 13.7888 46.0967 13.7888Z" stroke="#B30000"/>
<path d="M59.3888 47.4845C59.0171 47.7256 58.6126 47.9183 58.1733 48.044C57.5667 48.2236 56.9564 48.2623 56.361 48.1914C54.731 48.183 52.2546 47.8572 47.9791 47.2414C47.9783 47.2413 47.9774 47.2412 47.9766 47.2411L38.1442 45.9208L38.176 66.4847V66.4855C38.176 68.6582 36.5642 70.4999 34.4792 70.4999C32.3947 70.4999 30.7805 68.6586 30.7805 66.4855V41.132V41.096L30.7856 41.0604L31.0241 39.4139L31.0317 39.3615L31.0501 39.3119C31.3103 38.6094 31.6915 38.0175 32.227 37.6015C32.768 37.1813 33.4304 36.9687 34.1974 36.9687H34.2147L34.2319 36.9699L42.9419 37.5728L42.9482 37.5732L42.9482 37.5732L50.0569 38.1556L46.032 21.4552L39.2734 24.1247C38.9993 24.3486 38.6509 24.5069 38.2506 24.4813L38.2499 24.4813L38.1807 24.4767C38.0717 24.4818 37.9696 24.4717 37.8799 24.4559L30.1112 23.9603L42.1164 29.766L42.5362 29.969L42.363 30.4019L41.6062 32.2933L41.407 32.7912L40.9243 32.5577L4.77451 15.0758L4.35438 14.8726L4.52814 14.4395L5.28692 12.5481L5.4864 12.0508L5.9687 12.2841L21.7148 19.901C21.8106 19.4008 21.9885 18.9467 22.2314 18.5833C22.5627 18.0877 23.0785 17.6807 23.7203 17.7225L23.7201 17.7225L23.7056 17.9479M59.3888 47.4845L23.7206 17.7226L23.7059 17.947M59.3888 47.4845H59.3998L59.5277 47.3966C61.6323 45.9507 62.6194 42.8894 61.8954 39.8982L56.5139 17.5755L56.5137 17.5748C55.6521 14.0246 52.6091 11.5979 49.5534 12.4866L49.5533 12.4866C48.2104 12.8774 47.1603 13.8433 46.4793 15.0806L37.5595 18.6079L59.3888 47.4845ZM23.7056 17.9479L23.6605 18.054L23.6977 18.0698M23.7056 17.9479L23.7059 17.947M23.7056 17.9479L23.6977 18.0698M23.6977 18.0698L23.6879 18.2215L23.6979 18.0698M23.6977 18.0698L23.6979 18.0698M23.6979 18.0698L24.1208 18.2494L24.1529 17.7504L23.7991 17.7276L23.7059 17.947M23.6979 18.0698L23.7059 17.947M25.6256 14.7049L26.0714 14.9345L26.0859 14.9003L25.6256 14.7049ZM25.6256 14.7049L25.4297 15.1664L25.3967 15.1494L25.6256 14.7049ZM22.1403 20.6622C22.1413 20.6406 22.1408 20.6199 22.1403 20.5992C22.1398 20.5784 22.1393 20.5577 22.1403 20.5361C22.1478 20.3963 22.1622 20.2598 22.1829 20.1274L22.1403 20.6622ZM22.1403 20.6622L21.8519 20.5227L21.8469 20.5203L21.6465 20.4233L22.1403 20.6622ZM5.75097 12.7342L6.20215 12.9525L6.21502 12.9204L5.75097 12.7342ZM5.75097 12.7342L5.53324 13.1843L5.56436 13.1994L5.75097 12.7342ZM41.142 32.1076L40.6778 31.9219L40.6908 31.8894L41.142 32.1076ZM41.142 32.1076L41.3597 31.6575L41.3282 31.6422L41.142 32.1076ZM25.3957 17.8292L24.8669 17.7953L24.6598 18.2831L25.1886 18.317L25.3957 17.8292ZM28.7882 23.8759L27.5947 23.2988L28.9177 23.3832L28.7882 23.8759Z" stroke="#B30000"/>
<path d="M22.5837 25.6112L33.5304 30.8823L34.0131 31.1148L34.2117 30.6171L34.6559 29.5038L34.8287 29.0705L34.4085 28.8681L10.6383 17.4176L10.1559 17.1852L9.9571 17.6824L9.51158 18.7964L9.33822 19.2299L9.75882 19.4325L17.9467 23.3771V23.5907V65.7054H1H0.5V66.2054V69.6171V70.1171H1H29.3382H29.8382V69.6171V66.2054V65.7054H29.3382H22.5837V25.6112Z" fill="#F2F2F2" stroke="#B30000"/>
<path d="M64.1019 66.1108L64.1302 65.772L64.171 65.2844L63.6843 65.2331L57.4592 64.5777V51.1819H66.6076C67.6334 51.1819 68.2939 50.1966 68.2939 49.2121C68.2939 48.2279 67.6343 47.2424 66.6076 47.2424H66.584V37.1969L67.4111 28.9005L67.4112 28.8989C67.5116 27.8583 66.6074 27.0413 65.593 26.9185L65.5919 26.9184C64.5809 26.7981 63.5154 27.3834 63.4135 28.441C63.4135 28.4415 63.4134 28.4421 63.4134 28.4426L61.9629 42.9507L64.1019 66.1108ZM64.1019 66.1108C65.0094 66.3413 65.6368 67.2254 65.6368 68.2056C65.6368 69.3476 64.7853 70.3579 63.6319 70.3579C62.4812 70.3579 61.6304 69.3468 61.6304 68.2056C61.6304 68.0271 61.6516 67.8532 61.6909 67.6868L57.4592 67.2401V69.6497V70.1497H56.9592H54.9493H54.4493V69.6497V67.2791L50.595 67.6865C50.6339 67.8545 50.6541 68.0289 50.6541 68.2056C50.6541 69.3486 49.7977 70.3579 48.6486 70.3579C47.4995 70.3579 46.6431 69.3486 46.6431 68.2056C46.6431 67.2359 47.2596 66.3615 48.1486 66.119L48.1196 65.772L48.0789 65.2845L48.5654 65.2332L54.4493 64.6116V51.1811H45.9955C44.9651 51.1811 44.3086 50.1951 44.3086 49.2114C44.3086 48.2277 44.9651 47.2417 45.9955 47.2417H64.3269M64.1019 66.1108L64.3269 47.2417M64.3269 44.9306C64.1509 44.9529 63.9678 44.9546 63.7803 44.933L63.7786 44.9328C62.7681 44.8127 61.8576 43.9957 61.9628 42.9513L64.3269 44.9306ZM64.3269 44.9306V47.2417M64.3269 44.9306V47.2417" stroke="#B30000"/>
</svg>
