<svg fill="none" height="67" viewBox="0 0 64 67" width="64" xmlns="http://www.w3.org/2000/svg"><g fill="#b30000"><path d="m0 0v53.3177h64v-53.3177zm61.9355 51.185h-59.87098v-49.05229h59.87098z"/><path d="m40.2579 4.26514h-36.12899v23.45976h36.12899zm-2.0645 21.32706h-31.99998v-19.19435h31.99998z"/><path d="m59.8711 4.26514h-17.5483v2.13271h17.5483z"/><path d="m59.8711 8.53076h-17.5483v2.13274h17.5483z"/><path d="m59.8711 12.7964h-17.5483v2.1327h17.5483z"/><path d="m59.8711 17.0615h-17.5483v2.1327h17.5483z"/><path d="m59.8711 21.3271h-17.5483v2.1328h17.5483z"/><path d="m59.8711 25.5923h-17.5483v2.1327h17.5483z"/><path d="m21.6773 29.8579h-17.54839v19.1944h17.54839zm-2.0645 17.0617h-13.41938v-14.929h13.41938z"/><path d="m23.7417 49.0523h16.5161v-19.1944h-16.5161zm2.0645-17.0617h12.3871v14.929h-12.3871z"/><path d="m59.8711 29.8579h-17.5483v19.1944h17.5483zm-2.0645 17.0617h-13.4193v-14.929h13.4193z"/><path d="m21.6775 23.4597c3.9845 0 7.2258-3.3483 7.2258-7.4645 0-4.1161-3.2413-7.46444-7.2258-7.46444s-7.2258 3.34834-7.2258 7.46444c0 4.1162 3.2413 7.4645 7.2258 7.4645zm0-12.7962c2.8459 0 5.1613 2.3918 5.1613 5.3317 0 2.94-2.3154 5.3318-5.1613 5.3318-2.846 0-5.1613-2.3918-5.1613-5.3318 0-2.9399 2.3153-5.3317 5.1613-5.3317z"/><path d="m58.8386 55.4502h-48.7907l-9.03228 5.3318 9.03228 5.3317h48.7907c2.8459 0 5.1613-2.3918 5.1613-5.3317 0-2.94-2.3154-5.3318-5.1613-5.3318zm-46.4516 2.1327h37.1613v6.3981h-37.1613zm39.2258 0h2.0645v6.3981h-2.0645zm-46.43511 3.1991 5.14481-3.037v6.0739zm53.66091 3.199h-3.0968v-6.3981h3.0968c1.7073 0 3.0968 1.4353 3.0968 3.1991 0 1.7637-1.3895 3.199-3.0968 3.199z"/></g></svg>