<svg width="64" height="67" viewBox="0 0 64 67" fill="none" xmlns="http://www.w3.org/2000/svg">
<path d="M0 0V53.3177H64V0H0ZM61.9355 51.185H2.06452V2.13271H61.9355V51.185Z" fill="#B30000"/>
<path d="M40.2579 4.26514H4.12891V27.7249H40.2579V4.26514ZM38.1934 25.5922H6.19342V6.39785H38.1934V25.5922Z" fill="#B30000"/>
<path d="M59.8707 4.26514H42.3223V6.39785H59.8707V4.26514Z" fill="#B30000"/>
<path d="M59.8707 8.53076H42.3223V10.6635H59.8707V8.53076Z" fill="#B30000"/>
<path d="M59.8707 12.7964H42.3223V14.9291H59.8707V12.7964Z" fill="#B30000"/>
<path d="M59.8707 17.0615H42.3223V19.1942H59.8707V17.0615Z" fill="#B30000"/>
<path d="M59.8707 21.3271H42.3223V23.4599H59.8707V21.3271Z" fill="#B30000"/>
<path d="M59.8707 25.5923H42.3223V27.725H59.8707V25.5923Z" fill="#B30000"/>
<path d="M21.6773 29.8579H4.12891V49.0523H21.6773V29.8579ZM19.6128 46.9196H6.19342V31.9906H19.6128V46.9196Z" fill="#B30000"/>
<path d="M23.7422 49.0523H40.2583V29.8579H23.7422V49.0523ZM25.8067 31.9906H38.1938V46.9196H25.8067V31.9906Z" fill="#B30000"/>
<path d="M59.8707 29.8579H42.3223V49.0523H59.8707V29.8579ZM57.8061 46.9196H44.3868V31.9906H57.8061V46.9196Z" fill="#B30000"/>
<path d="M21.677 23.4597C25.6615 23.4597 28.9028 20.1114 28.9028 15.9952C28.9028 11.8791 25.6615 8.53076 21.677 8.53076C17.6925 8.53076 14.4512 11.8791 14.4512 15.9952C14.4512 20.1114 17.6925 23.4597 21.677 23.4597ZM21.677 10.6635C24.5229 10.6635 26.8383 13.0553 26.8383 15.9952C26.8383 18.9352 24.5229 21.327 21.677 21.327C18.831 21.327 16.5157 18.9352 16.5157 15.9952C16.5157 13.0553 18.831 10.6635 21.677 10.6635Z" fill="#B30000"/>
<path d="M58.8386 55.4502H10.0479L1.01562 60.782L10.0479 66.1137H58.8386C61.6845 66.1137 63.9999 63.7219 63.9999 60.782C63.9999 57.842 61.6845 55.4502 58.8386 55.4502ZM12.387 57.5829H49.5483V63.981H12.387V57.5829ZM51.6128 57.5829H53.6773V63.981H51.6128V57.5829ZM5.17769 60.782L10.3225 57.745V63.8189L5.17769 60.782ZM58.8386 63.981H55.7418V57.5829H58.8386C60.5459 57.5829 61.9354 59.0182 61.9354 60.782C61.9354 62.5457 60.5459 63.981 58.8386 63.981Z" fill="#B30000"/>
</svg>
