<svg width="95" height="98" viewBox="0 0 95 98" fill="none" xmlns="http://www.w3.org/2000/svg">
<rect width="94.3731" height="97.2769" rx="5" fill="url(#paint0_linear)"/>
<path d="M32.0113 20.5585H45.5314C49.1863 20.5585 52.3301 21.2244 54.9629 22.5563C57.6266 23.8572 59.6554 25.7466 61.0492 28.2245C62.474 30.7024 63.1864 33.6449 63.1864 37.052C63.1864 40.4901 62.4895 43.4636 61.0956 45.9724C59.7018 48.4503 57.6731 50.3552 55.0093 51.6871C52.3765 52.988 49.2172 53.6384 45.5314 53.6384H32.0113V20.5585ZM44.9274 46.6693C48.1486 46.6693 50.5491 45.8795 52.1288 44.2998C53.7394 42.6892 54.5447 40.2733 54.5447 37.052C54.5447 30.7024 51.3389 27.5276 44.9274 27.5276H40.7459V46.6693H44.9274Z" fill="#F6F5F5"/>
<path fill-rule="evenodd" clip-rule="evenodd" d="M32.0177 56.6384V64.3458C32.0177 65.8427 31.8642 66.9366 31.5571 67.6275C31.2501 68.3184 30.8279 68.7789 30.2905 69.0092C29.7532 69.2011 28.9664 69.3163 27.9301 69.3547V73.1545H45.0292V68.7214C42.9949 68.7214 41.3637 68.7789 40.1355 68.8941C40.289 67.5891 40.3658 65.8427 40.3658 63.655V57.4947H43.3596C44.0121 58.1855 44.8181 59.2986 45.7776 60.8339L50.038 67.7426C50.8824 69.1628 51.6309 70.3142 52.2834 71.197C52.9358 72.0414 53.5883 72.6939 54.2408 73.1545H63.7404V69.3547C62.4738 69.3163 61.3991 68.9133 60.5163 68.1456C59.6719 67.378 58.5972 65.9771 57.2922 63.9428L54.5863 59.9127C54.0873 59.1067 53.4732 58.3774 52.7439 57.725C52.2659 57.2721 51.7961 56.9099 51.3345 56.6384H32.0177Z" fill="#F6F5F5"/>
<defs>
<linearGradient id="paint0_linear" x1="47.1865" y1="0" x2="47.1865" y2="97.2769" gradientUnits="userSpaceOnUse">
<stop stop-color="#367D80"/>
<stop offset="0.864583" stop-color="#1B3F40"/>
</linearGradient>
</defs>
</svg>
