<svg width="731" height="538" viewBox="0 0 731 538" fill="none" xmlns="http://www.w3.org/2000/svg">
<path d="M18 71C18 43.3858 40.3858 21 68 21H656C683.614 21 706 43.3858 706 71V488C706 515.614 683.614 538 656 538H68C40.3857 538 18 515.614 18 488V71Z" fill="#EAEAEA"/>
<path d="M18 83.9158C18 62.9755 34.9755 46 55.9158 46V46C76.7853 46 93.7313 62.8651 93.8312 83.7344L95.8129 497.907C95.9161 519.467 78.467 537 56.9067 537V537C35.4191 537 18 519.581 18 498.093V83.9158Z" fill="#DE5145"/>
<path d="M623 87.5C623 64.5802 641.58 46 664.5 46V46C687.42 46 706 64.5802 706 87.5V496.5C706 519.42 687.42 538 664.5 538V538C641.58 538 623 519.42 623 496.5V87.5Z" fill="#DE5145"/>
<path d="M365.443 263L80 21.2588L640 21L365.443 263Z" fill="#F5F5F5"/>
<path d="M23.7464 40.2341C38.3344 18.3353 68.2718 13.0867 89.4394 28.7168L334.391 209.588C352.296 222.809 376.784 222.603 394.464 209.083L628.436 30.1665C647.668 15.4599 674.804 17.2117 691.986 34.2687V34.2687C712.689 54.8215 710.661 88.8768 687.665 106.827L395.302 335.047C377.257 349.133 351.951 349.165 333.871 335.126L33.8309 102.15C14.7623 87.3437 10.3619 60.3262 23.7464 40.2341V40.2341Z" fill="#C03E33"/>
</svg>
