<svg fill="none" height="69" viewBox="0 0 67 69" width="67" xmlns="http://www.w3.org/2000/svg"><path d="m65.1147 18.8152-14.0671 5.3142v-4.0216c0-.8617-.5801-1.4362-1.4502-1.4362h-2.0303c2.1753-2.0108 3.4805-4.7397 3.4805-7.8995 0-6.03239-4.9307-10.7721-10.8766-10.7721s-10.8766 4.88333-10.8766 10.7721c0 3.1598 1.3052 5.8887 3.4805 7.8995h-14.3571c2.1753-2.0108 3.4805-4.7397 3.4805-7.8995 0-6.03239-4.9308-10.7721-10.8767-10.7721-6.23589 0-11.0216 4.88333-11.0216 10.7721 0 3.1598 1.30519 5.8887 3.48052 7.8995h-2.0303c-.870133 0-1.45022.5745-1.45022 1.4362v23.8422c0 .8618.580087 1.4363 1.45022 1.4363h21.75328l-11.3117 21.4005c-.4351.7181-.145 1.5799.5801 2.0108.7251.4308 1.5952.1436 1.8852-.5746l9.5715-18.2406v17.5225c0 .8618.5801 1.4363 1.4502 1.4363s1.4502-.5745 1.4502-1.4363v-17.5225l9.5714 18.2406c.7251 1.1491 1.7403.7182 1.8853.5746.7251-.4309 1.0152-1.2927.5801-1.8672l-11.1667-21.2569h21.7533c.8701 0 1.4502-.5745 1.4502-1.4362v-4.0216l14.0671 5.3142c.8701.4309 2.0303-.2873 2.0303-1.2926v-24.1295c0-1.0053-1.0152-1.5799-1.8853-1.2926zm-32.9199-8.0431c0-4.45249 3.6256-7.89955 7.9762-7.89955s7.9762 3.59069 7.9762 7.89955c0 4.0215-3.0455 7.325-6.9611 7.8995h-2.0303c-3.9155-.4309-6.961-3.7343-6.961-7.8995zm-29.29437 0c0-4.30886 3.48052-7.89955 7.97617-7.89955 4.4957 0 7.9762 3.59069 7.9762 7.89955 0 4.0215-3.0454 7.325-6.961 7.8995h-2.03033c-3.91558-.4309-6.96104-3.7343-6.96104-7.8995zm45.24677 15.5117v11.6338 4.7398h-45.24677v-21.1133h45.24677zm15.9524 15.6554-13.052-5.0269v-9.6231l13.052-5.0269z" fill="#b30000"/></svg>