<svg width="67" height="69" viewBox="0 0 67 69" fill="none" xmlns="http://www.w3.org/2000/svg">
<path d="M65.1147 18.8152L51.0476 24.1294V20.1078C51.0476 19.2461 50.4675 18.6716 49.5974 18.6716H47.5671C49.7424 16.6608 51.0476 13.9319 51.0476 10.7721C51.0476 4.73971 46.1169 0 40.171 0C34.2251 0 29.2944 4.88333 29.2944 10.7721C29.2944 13.9319 30.5996 16.6608 32.7749 18.6716H18.4178C20.5931 16.6608 21.8983 13.9319 21.8983 10.7721C21.8983 4.73971 16.9675 0 11.0216 0C4.78571 0 0 4.88333 0 10.7721C0 13.9319 1.3052 16.6608 3.48052 18.6716H1.45022C0.580087 18.6716 0 19.2461 0 20.1078V43.95C0 44.8118 0.580087 45.3863 1.45022 45.3863H23.2035L11.8918 66.7868C11.4567 67.5049 11.7468 68.3667 12.4719 68.7976C13.197 69.2284 14.0671 68.9412 14.3571 68.223L23.9286 49.9824V67.5049C23.9286 68.3667 24.5087 68.9412 25.3788 68.9412C26.2489 68.9412 26.829 68.3667 26.829 67.5049V49.9824L36.4004 68.223C37.1255 69.3721 38.1407 68.9412 38.2857 68.7976C39.0108 68.3667 39.3009 67.5049 38.8658 66.9304L27.6991 45.6735H49.4524C50.3225 45.6735 50.9026 45.099 50.9026 44.2373V40.2157L64.9697 45.5299C65.8398 45.9608 67 45.2426 67 44.2373V20.1078C67 19.1025 65.9848 18.5279 65.1147 18.8152ZM32.1948 10.7721C32.1948 6.31961 35.8203 2.87255 40.171 2.87255C44.5216 2.87255 48.1472 6.46324 48.1472 10.7721C48.1472 14.7936 45.1017 18.0971 41.1861 18.6716H39.1558C35.2403 18.2407 32.1948 14.9373 32.1948 10.7721ZM2.90043 10.7721C2.90043 6.46324 6.38095 2.87255 10.8766 2.87255C15.3723 2.87255 18.8528 6.46324 18.8528 10.7721C18.8528 14.7936 15.8074 18.0971 11.8918 18.6716H9.86147C5.94589 18.2407 2.90043 14.9373 2.90043 10.7721ZM48.1472 26.2838V37.9176V42.6574H2.90043V21.5441H48.1472V26.2838ZM64.0996 41.9392L51.0476 36.9123V27.2892L64.0996 22.2623V41.9392Z" fill="#FF0000"/>
</svg>
