<svg fill="none" height="62" viewBox="0 0 256 62" width="256" xmlns="http://www.w3.org/2000/svg"><path d="m7.392 50.6537v7.8815h-1.067v-3.586h-4.2515v3.586h-1.067v-7.8815h1.067v3.5145h4.2515v-3.5145zm5.1874 7.1555c.264 0 .5023-.0422.715-.1265.2163-.0844.3997-.2017.55-.352.154-.1504.2713-.3282.352-.5335.0843-.2054.1265-.429.1265-.671 0-.2567-.0403-.4877-.121-.693-.0807-.209-.1962-.385-.3465-.528-.1467-.1467-.3227-.2585-.528-.3355s-.4308-.1155-.6765-.1155c-.264 0-.5023.0458-.715.1375-.2127.088-.3942.209-.5445.363-.1467.1503-.2603.3263-.341.528-.077.198-.1155.4051-.1155.6215 0 .253.0367.484.11.693s.1797.3886.319.539c.143.1503.3153.2676.517.352.2053.0806.4382.121.6985.121zm-.572-4.202c-.0697.088-.1375.1741-.2035.2585-.0623.0806-.1228.1613-.1815.242.187-.1284.3923-.2274.616-.297.2237-.0697.4675-.1045.7315-.1045.319 0 .6197.0531.902.1595.2823.1026.528.2548.737.4565.2127.198.3813.4436.506.737.1247.2896.187.6215.187.9955 0 .363-.066.7003-.198 1.012-.132.3116-.3172.583-.5555.814-.2347.231-.5188.4125-.8525.5445-.33.132-.6948.198-1.0945.198-.396 0-.7553-.0624-1.078-.187-.3227-.1284-.5977-.308-.825-.539-.2237-.2347-.3978-.517-.5225-.847-.121-.3337-.18151-.7059-.18151-1.1165 0-.3447.07521-.7114.22551-1.1.154-.3924.3978-.8104.7315-1.254l2.002-2.6895c.0513-.066.121-.121.209-.165.0917-.0477.1962-.0715.3135-.0715h.869z" fill="#000"/><path d="m59.478 57.6387v.8965h-4.4715v-7.8815h1.0615v6.985zm4.9674-1.6115c-.451.0146-.836.0513-1.155.11-.3153.055-.5738.1283-.7755.22-.198.0916-.3428.1998-.4345.3245-.088.1246-.132.264-.132.418 0 .1466.0238.2731.0715.3795.0477.1063.1118.1943.1925.264.0843.066.1815.1155.2915.1485.1137.0293.2347.044.363.044.1723 0 .33-.0165.473-.0495.143-.0367.2768-.088.4015-.154.1283-.066.2493-.1449.363-.2365.1173-.0917.231-.1962.341-.3135zm-3.1625-2.277c.308-.297.6398-.5189.9955-.6655.3557-.1467.7498-.22 1.1825-.22.3117 0 .5885.0513.8305.154.242.1026.4455.2456.6105.429.165.1833.2897.4051.374.6655.0843.2603.1265.5463.1265.858v3.564h-.4345c-.0953 0-.1687-.0147-.22-.044-.0513-.033-.0917-.0954-.121-.187l-.11-.528c-.1467.1356-.2897.2566-.429.363-.1393.1026-.286.1906-.44.264-.154.0696-.319.1228-.495.1595-.1723.0403-.3648.0605-.5775.0605-.2163 0-.4198-.0294-.6105-.088-.1907-.0624-.3575-.154-.5005-.275-.1393-.121-.2512-.2732-.3355-.4565-.0807-.187-.121-.407-.121-.66 0-.22.0605-.4309.1815-.6325.121-.2054.3172-.3869.5885-.5445.2713-.1577.6252-.286 1.0615-.385.4363-.1027.9717-.1614 1.606-.176v-.4345c0-.4327-.0935-.759-.2805-.979-.187-.2237-.4602-.3355-.8195-.3355-.242 0-.4455.0311-.6105.0935-.1613.0586-.3025.1265-.4235.2035-.1173.0733-.22.1411-.308.2035-.0843.0586-.1687.088-.253.088-.066 0-.1228-.0165-.1705-.0495-.0477-.0367-.088-.0807-.121-.132zm8.2461 4.873c-.44 0-.7792-.1229-1.0175-.3685-.2347-.2457-.352-.5995-.352-1.0615v-3.41h-.671c-.0587 0-.1082-.0165-.1485-.0495-.0404-.0367-.0605-.0917-.0605-.165v-.3905l.913-.1155.2255-1.7215c.011-.055.0348-.099.0715-.132.0403-.0367.0916-.055.154-.055h.495v1.9195h1.6115v.7095h-1.6115v3.344c0 .2346.0568.4088.1705.5225.1136.1136.2603.1705.44.1705.1026 0 .1906-.0129.264-.0385.077-.0294.143-.0605.198-.0935s.1008-.0624.1375-.088c.0403-.0294.0751-.044.1045-.044.0513 0 .0971.0311.1375.0935l.286.4675c-.1687.1576-.3722.2823-.6105.374-.2384.088-.484.132-.737.132zm5.5481-5.7475c.407 0 .7737.0678 1.1.2035.3264.1356.605.3281.836.5775.231.2493.407.5518.528.9075.1247.352.187.7461.187 1.1825 0 .44-.0623.836-.187 1.188-.121.352-.297.6526-.528.902-.231.2493-.5096.4418-.836.5775-.3263.132-.693.198-1.1.198-.4106 0-.781-.066-1.111-.198-.3263-.1357-.605-.3282-.836-.5775-.231-.2494-.4088-.55-.5335-.902-.121-.352-.1815-.748-.1815-1.188 0-.4364.0605-.8305.1815-1.1825.1247-.3557.3025-.6582.5335-.9075.231-.2494.5097-.4419.836-.5775.33-.1357.7004-.2035 1.111-.2035zm0 4.972c.55 0 .9607-.1834 1.232-.55.2714-.3704.407-.8855.407-1.5455 0-.6637-.1356-1.1807-.407-1.551-.2713-.3704-.682-.5555-1.232-.5555-.2786 0-.5225.0476-.7315.143-.2053.0953-.3776.2328-.517.4125-.1356.1796-.2383.4015-.308.6655-.066.2603-.099.5555-.099.8855 0 .66.1357 1.1751.407 1.5455.275.3666.6912.55 1.2485.55zm21.1059-.0605v.748h-4.224v-.748h1.6885v-5.3735c0-.1614.0055-.3245.0165-.4895l-1.4025 1.2045c-.0477.0403-.0953.066-.143.077-.0477.0073-.0917.0073-.132 0-.0403-.0074-.0788-.022-.1155-.044-.033-.022-.0587-.0459-.077-.0715l-.308-.4235 2.3485-2.0295h.7975v7.15zm7.381 0v.748h-4.2242v-.748h1.6882v-5.3735c0-.1614.006-.3245.017-.4895l-1.4027 1.2045c-.0476.0403-.0953.066-.143.077-.0476.0073-.0916.0073-.132 0-.0403-.0074-.0788-.022-.1155-.044-.033-.022-.0586-.0459-.077-.0715l-.308-.4235 2.3482-2.0295h.798v7.15zm3.542-.594c.179.242.376.4125.588.5115.213.099.451.1485.715.1485.521 0 .921-.1852 1.199-.5555.279-.3704.418-.8984.418-1.584 0-.363-.033-.6747-.099-.935-.062-.2604-.154-.473-.275-.638-.121-.1687-.269-.2915-.445-.3685s-.376-.1155-.6-.1155c-.319 0-.599.0733-.841.22-.239.1466-.459.3538-.66.6215zm-.05-3.366c.235-.2897.506-.5225.814-.6985s.66-.264 1.056-.264c.323 0 .614.0623.875.187.26.121.482.3025.665.5445.184.2383.325.5353.424.891.099.3556.148.7645.148 1.2265 0 .4106-.055.7938-.165 1.1495-.11.352-.269.6581-.478.9185-.206.2566-.459.4601-.759.6105-.297.1466-.633.22-1.007.22-.341 0-.634-.0569-.88-.1705-.242-.1174-.456-.2787-.643-.484v2.464h-.985v-7.458h.589c.139 0 .225.0678.258.2035zm10.592 4.708h-.94c-.081 0-.145-.0202-.193-.0605-.044-.044-.08-.0917-.11-.143l-1.402-2.1835c-.015.0513-.031.1026-.05.154-.014.0476-.036.0916-.066.132l-1.298 1.8975c-.036.0513-.077.099-.121.143-.04.0403-.097.0605-.17.0605h-.875l1.953-2.86-1.876-2.7115h.941c.081 0 .139.0128.176.0385.037.0256.07.0623.099.11l1.369 2.09c.03-.1064.076-.209.138-.308l1.199-1.76c.033-.0514.068-.0917.104-.121.041-.033.088-.0495.143-.0495h.902l-1.875 2.662zm15.707-4.0645c.308 0 .579-.0367.814-.11.238-.077.436-.1834.594-.319.161-.1394.282-.3044.363-.495.081-.1907.121-.4015.121-.6325 0-.4694-.154-.8232-.462-1.0615-.308-.2384-.77-.3575-1.386-.3575h-1.166v2.9755zm3.641 4.0645h-.946c-.194 0-.337-.0752-.429-.2255l-2.046-2.816c-.062-.088-.13-.1504-.203-.187-.07-.0404-.18-.0605-.33-.0605h-.809v3.289h-1.061v-7.8815h2.227c.499 0 .93.0513 1.293.154.363.099.661.2438.896.4345.238.1906.414.4216.528.693.114.2676.171.5683.171.902 0 .2786-.044.539-.132.781s-.217.4601-.385.6545c-.165.1906-.369.3538-.611.4895-.238.1356-.51.2383-.814.308.136.077.253.1888.352.3355zm5.216-3.3935c0-.2274-.033-.4345-.099-.6215-.063-.1907-.156-.3539-.281-.4895-.121-.1394-.269-.2457-.445-.319-.176-.077-.376-.1155-.6-.1155-.469 0-.841.1375-1.116.4125-.272.2713-.44.649-.506 1.133zm.792 2.6125c-.121.1466-.266.275-.435.385-.169.1063-.35.1943-.544.264-.191.0696-.389.121-.594.154-.206.0366-.409.055-.611.055-.385 0-.741-.0642-1.067-.1925-.323-.132-.603-.3227-.841-.572-.235-.253-.418-.5647-.55-.935-.132-.3704-.198-.7957-.198-1.276 0-.3887.058-.7517.176-1.089.121-.3374.293-.6289.517-.8745.223-.2494.496-.4437.819-.583.323-.143.686-.2145 1.089-.2145.334 0 .642.0568.924.1705.286.11.532.2713.737.484.209.209.372.4693.49.781.117.308.176.66.176 1.056 0 .154-.017.2566-.05.308-.033.0513-.095.077-.187.077h-3.723c.011.352.058.6581.143.9185.088.2603.209.4785.363.6545.154.1723.337.3025.55.3905.212.0843.451.1265.715.1265.245 0 .456-.0275.632-.0825.18-.0587.334-.121.462-.187s.235-.1265.319-.1815c.088-.0587.163-.088.226-.088.08 0 .143.0311.187.0935zm4.232-1.9415c.198 0 .372-.0275.522-.0825s.277-.132.38-.231c.102-.099.179-.2164.231-.352.051-.1394.077-.2915.077-.4565 0-.341-.105-.6124-.314-.814-.205-.2017-.504-.3025-.896-.3025-.396 0-.699.1008-.908.3025-.205.2016-.308.473-.308.814 0 .165.026.3171.077.4565.055.1356.134.253.237.352.102.099.229.176.379.231s.325.0825.523.0825zm1.765 3.025c0-.1357-.038-.2457-.115-.33-.077-.0844-.182-.1504-.314-.198-.128-.0477-.279-.0807-.451-.099-.172-.022-.356-.0385-.55-.0495-.191-.011-.385-.022-.583-.033s-.389-.0294-.572-.055c-.205.0953-.374.2163-.506.363-.128.143-.192.3116-.192.506 0 .1246.031.2401.093.3465.066.11.165.2035.297.2805.132.0806.297.143.495.187.202.0476.438.0715.71.0715.264 0 .5-.0239.709-.0715.209-.0477.385-.1155.528-.2035.147-.088.259-.1925.336-.3135s.115-.2549.115-.4015zm.996-5.654v.363c0 .121-.077.198-.231.231l-.633.0825c.125.242.187.5096.187.803 0 .2713-.053.5188-.159.7425-.103.22-.246.4088-.429.5665-.184.1576-.404.2786-.66.363-.257.0843-.536.1265-.836.1265-.261 0-.506-.0312-.737-.0935-.118.0733-.208.1521-.27.2365-.062.0806-.093.1631-.093.2475 0 .132.053.2328.159.3025.11.066.253.1136.429.143.176.0293.376.0476.6.055.227.0073.458.0201.693.0385.238.0146.469.0421.693.0825.227.0403.429.1063.605.198.176.0916.317.2181.423.3795.11.1613.165.3703.165.627 0 .2383-.06.4693-.181.693-.118.2236-.288.4216-.512.594-.224.176-.499.3153-.825.418-.323.1063-.687.1595-1.094.1595s-.763-.0404-1.067-.121c-.305-.0807-.558-.1889-.759-.3245-.202-.1357-.354-.2934-.457-.473-.099-.176-.148-.3612-.148-.5555 0-.275.086-.5079.258-.6985.172-.1907.409-.3429.71-.4565-.165-.0734-.297-.1705-.396-.2915-.096-.1247-.143-.2915-.143-.5005 0-.0807.014-.1632.044-.2475.029-.088.073-.1742.132-.2585.062-.088.137-.1705.225-.2475s.191-.1449.308-.2035c-.275-.154-.489-.3575-.643-.6105-.154-.2567-.231-.5537-.231-.891 0-.2714.051-.517.154-.737.106-.2237.253-.4125.44-.5665.187-.1577.408-.2787.665-.363.26-.0844.545-.1265.853-.1265.242 0 .467.0275.676.0825.209.0513.4.1283.572.231zm6.593-.22v5.5715h-.583c-.139 0-.227-.0679-.264-.2035l-.077-.5995c-.242.2676-.513.484-.814.649-.3.1613-.645.242-1.034.242-.304 0-.573-.0495-.808-.1485-.231-.1027-.425-.2457-.583-.429-.158-.1834-.277-.4052-.358-.6655-.077-.2604-.115-.5482-.115-.8635v-3.553h.979v3.553c0 .4216.095.748.286.979.194.231.489.3465.885.3465.29 0 .56-.0679.809-.2035.253-.1394.486-.33.698-.572v-4.103zm3.565-2.53v8.1015h-.979v-8.1015zm5.607 5.5935c-.451.0146-.836.0513-1.155.11-.316.055-.574.1283-.776.22-.198.0916-.343.1998-.434.3245-.088.1246-.132.264-.132.418 0 .1466.024.2731.071.3795.048.1063.112.1943.193.264.084.066.181.1155.291.1485.114.0293.235.044.363.044.173 0 .33-.0165.473-.0495.143-.0367.277-.088.402-.154.128-.066.249-.1449.363-.2365.117-.0917.231-.1962.341-.3135zm-3.163-2.277c.308-.297.64-.5189.996-.6655.355-.1467.75-.22 1.182-.22.312 0 .589.0513.831.154.242.1026.445.2456.61.429.165.1833.29.4051.374.6655.085.2603.127.5463.127.858v3.564h-.435c-.095 0-.168-.0147-.22-.044-.051-.033-.091-.0954-.121-.187l-.11-.528c-.146.1356-.289.2566-.429.363-.139.1026-.286.1906-.44.264-.154.0696-.319.1228-.495.1595-.172.0403-.365.0605-.577.0605-.217 0-.42-.0294-.611-.088-.19-.0624-.357-.154-.5-.275-.14-.121-.251-.2732-.336-.4565-.08-.187-.121-.407-.121-.66 0-.22.061-.4309.182-.6325.121-.2054.317-.3869.588-.5445.272-.1577.625-.286 1.062-.385.436-.1027.971-.1614 1.606-.176v-.4345c0-.4327-.094-.759-.281-.979-.187-.2237-.46-.3355-.819-.3355-.242 0-.446.0311-.611.0935-.161.0586-.302.1265-.423.2035-.118.0733-.22.1411-.308.2035-.085.0586-.169.088-.253.088-.066 0-.123-.0165-.171-.0495-.047-.0367-.088-.0807-.121-.132zm7.541.33c.176-.3814.392-.6784.649-.891.256-.2164.57-.3245.94-.3245.117 0 .229.0128.336.0385.11.0256.207.066.291.121l-.071.7315c-.022.0916-.077.1375-.165.1375-.052 0-.127-.011-.226-.033s-.211-.033-.335-.033c-.176 0-.334.0256-.473.077-.136.0513-.259.1283-.369.231-.106.099-.203.2236-.291.374-.085.1466-.162.3153-.231.506v3.52h-.985v-5.5715h.561c.106 0 .18.0201.22.0605.04.0403.068.11.083.209zm16.759.0275h.402c.139 0 .251-.0165.335-.0495.084-.0367.161-.0972.231-.1815l2.624-2.97c.073-.0954.15-.1614.231-.198.08-.0367.179-.055.297-.055h.902l-3.003 3.3935c-.074.088-.145.1613-.215.22-.066.055-.137.1008-.214.1375.099.033.188.0825.269.1485.081.0623.16.1448.237.2475l3.135 3.7345h-.924c-.07 0-.131-.0037-.182-.011-.048-.011-.09-.0257-.126-.044-.037-.022-.07-.0459-.099-.0715-.026-.0294-.052-.0624-.077-.099l-2.717-3.1295c-.074-.0917-.153-.1559-.237-.1925-.084-.0404-.213-.0605-.385-.0605h-.484v3.608h-1.061v-7.8815h1.061zm10.301 1.034c0-.2274-.033-.4345-.099-.6215-.063-.1907-.156-.3539-.281-.4895-.121-.1394-.269-.2457-.445-.319-.176-.077-.376-.1155-.6-.1155-.469 0-.841.1375-1.116.4125-.272.2713-.44.649-.506 1.133zm.792 2.6125c-.121.1466-.266.275-.435.385-.168.1063-.35.1943-.544.264-.191.0696-.389.121-.594.154-.206.0366-.409.055-.611.055-.385 0-.74-.0642-1.067-.1925-.322-.132-.603-.3227-.841-.572-.235-.253-.418-.5647-.55-.935-.132-.3704-.198-.7957-.198-1.276 0-.3887.058-.7517.176-1.089.121-.3374.293-.6289.517-.8745.223-.2494.497-.4437.819-.583.323-.143.686-.2145 1.089-.2145.334 0 .642.0568.924.1705.286.11.532.2713.737.484.209.209.372.4693.49.781.117.308.176.66.176 1.056 0 .154-.017.2566-.05.308-.033.0513-.095.077-.187.077h-3.723c.011.352.058.6581.143.9185.088.2603.209.4785.363.6545.154.1723.337.3025.55.3905.212.0843.451.1265.715.1265.245 0 .456-.0275.632-.0825.18-.0587.334-.121.462-.187.129-.066.235-.1265.319-.1815.088-.0587.163-.088.226-.088.08 0 .143.0311.187.0935zm3.22-3.674c.176-.3814.392-.6784.649-.891.257-.2164.57-.3245.94-.3245.118 0 .23.0128.336.0385.11.0256.207.066.291.121l-.071.7315c-.022.0916-.077.1375-.165.1375-.051 0-.127-.011-.226-.033s-.21-.033-.335-.033c-.176 0-.334.0256-.473.077-.136.0513-.259.1283-.369.231-.106.099-.203.2236-.291.374-.084.1466-.161.3153-.231.506v3.52h-.985v-5.5715h.561c.107 0 .18.0201.22.0605.041.0403.068.11.083.209zm5.001-.308c.121-.1357.25-.2585.385-.3685.136-.11.279-.2035.429-.2805.154-.0807.316-.1412.484-.1815.173-.044.358-.066.556-.066.304 0 .572.0513.803.154.234.099.429.242.583.429.157.1833.277.4051.357.6655.081.2603.121.5481.121.8635v3.5475h-.984v-3.5475c0-.4217-.097-.748-.292-.979-.19-.2347-.482-.352-.874-.352-.29 0-.561.0696-.814.209-.25.1393-.481.3281-.693.5665v4.103h-.985v-5.5715h.589c.139 0 .225.0678.258.2035zm7.244-.8085v5.5715h-.979v-5.5715zm.209-1.749c0 .0953-.02.1851-.061.2695-.036.0806-.088.154-.154.22-.062.0623-.137.1118-.225.1485-.084.0366-.174.055-.27.055-.095 0-.185-.0184-.269-.055-.081-.0367-.152-.0862-.215-.1485-.062-.066-.111-.1394-.148-.22-.037-.0844-.055-.1742-.055-.2695 0-.0954.018-.1852.055-.2695.037-.088.086-.1632.148-.2255.063-.066.134-.1174.215-.154.084-.0367.174-.055.269-.055.096 0 .186.0183.27.055.088.0366.163.088.225.154.066.0623.118.1375.154.2255.041.0843.061.1741.061.2695zm3.324 2.5575c.121-.1357.249-.2585.385-.3685.135-.11.278-.2035.429-.2805.154-.0807.315-.1412.484-.1815.172-.044.357-.066.555-.066.304 0 .572.0513.803.154.235.099.429.242.583.429.158.1833.277.4051.358.6655.08.2603.121.5481.121.8635v3.5475h-.985v-3.5475c0-.4217-.097-.748-.291-.979-.191-.2347-.483-.352-.875-.352-.29 0-.561.0696-.814.209-.249.1393-.48.3281-.693.5665v4.103h-.984v-5.5715h.588c.139 0 .226.0678.259.2035zm8.151 2.0405c.198 0 .372-.0275.522-.0825.151-.055.277-.132.38-.231.102-.099.179-.2164.231-.352.051-.1394.077-.2915.077-.4565 0-.341-.105-.6124-.314-.814-.205-.2017-.504-.3025-.896-.3025-.396 0-.699.1008-.908.3025-.205.2016-.308.473-.308.814 0 .165.026.3171.077.4565.055.1356.134.253.237.352.102.099.229.176.379.231.151.055.325.0825.523.0825zm1.765 3.025c0-.1357-.038-.2457-.115-.33-.077-.0844-.182-.1504-.314-.198-.128-.0477-.278-.0807-.451-.099-.172-.022-.355-.0385-.55-.0495-.19-.011-.385-.022-.583-.033s-.388-.0294-.572-.055c-.205.0953-.374.2163-.506.363-.128.143-.192.3116-.192.506 0 .1246.031.2401.093.3465.066.11.165.2035.297.2805.132.0806.297.143.495.187.202.0476.438.0715.71.0715.264 0 .5-.0239.709-.0715.209-.0477.385-.1155.528-.2035.147-.088.259-.1925.336-.3135s.115-.2549.115-.4015zm.996-5.654v.363c0 .121-.077.198-.231.231l-.633.0825c.125.242.187.5096.187.803 0 .2713-.053.5188-.159.7425-.103.22-.246.4088-.429.5665-.184.1576-.404.2786-.66.363-.257.0843-.536.1265-.836.1265-.261 0-.506-.0312-.737-.0935-.118.0733-.207.1521-.27.2365-.062.0806-.093.1631-.093.2475 0 .132.053.2328.159.3025.11.066.253.1136.429.143.176.0293.376.0476.6.055.227.0073.458.0201.693.0385.238.0146.469.0421.693.0825.227.0403.429.1063.605.198.176.0916.317.2181.423.3795.11.1613.165.3703.165.627 0 .2383-.06.4693-.181.693-.118.2236-.288.4216-.512.594-.223.176-.498.3153-.825.418-.322.1063-.687.1595-1.094.1595s-.763-.0404-1.067-.121c-.305-.0807-.558-.1889-.759-.3245-.202-.1357-.354-.2934-.457-.473-.099-.176-.148-.3612-.148-.5555 0-.275.086-.5079.258-.6985.173-.1907.409-.3429.71-.4565-.165-.0734-.297-.1705-.396-.2915-.096-.1247-.143-.2915-.143-.5005 0-.0807.014-.1632.044-.2475.029-.088.073-.1742.132-.2585.062-.088.137-.1705.225-.2475s.191-.1449.308-.2035c-.275-.154-.489-.3575-.643-.6105-.154-.2567-.231-.5537-.231-.891 0-.2714.051-.517.154-.737.106-.2237.253-.4125.44-.5665.187-.1577.409-.2787.665-.363.261-.0844.545-.1265.853-.1265.242 0 .467.0275.676.0825.209.0513.4.1283.572.231zm10.65 4.6035v.748h-4.224v-.748h1.689v-5.3735c0-.1614.005-.3245.016-.4895l-1.402 1.2045c-.048.0403-.096.066-.143.077-.048.0073-.092.0073-.132 0-.041-.0074-.079-.022-.116-.044-.033-.022-.059-.0459-.077-.0715l-.308-.4235 2.349-2.0295h.797v7.15zm3.542-.594c.18.242.376.4125.588.5115.213.099.451.1485.715.1485.521 0 .921-.1852 1.199-.5555.279-.3704.418-.8984.418-1.584 0-.363-.033-.6747-.099-.935-.062-.2604-.154-.473-.275-.638-.121-.1687-.269-.2915-.445-.3685s-.376-.1155-.6-.1155c-.319 0-.599.0733-.841.22-.238.1466-.458.3538-.66.6215zm-.05-3.366c.235-.2897.506-.5225.814-.6985s.66-.264 1.056-.264c.323 0 .615.0623.875.187.26.121.482.3025.665.5445.184.2383.325.5353.424.891.099.3556.148.7645.148 1.2265 0 .4106-.055.7938-.165 1.1495-.11.352-.269.6581-.478.9185-.205.2566-.458.4601-.759.6105-.297.1466-.633.22-1.007.22-.341 0-.634-.0569-.88-.1705-.242-.1174-.456-.2787-.643-.484v2.464h-.985v-7.458h.589c.139 0 .225.0678.258.2035zm10.593 4.708h-.941c-.081 0-.145-.0202-.192-.0605-.044-.044-.081-.0917-.11-.143l-1.403-2.1835c-.015.0513-.031.1026-.049.154-.015.0476-.037.0916-.066.132l-1.298 1.8975c-.037.0513-.077.099-.121.143-.041.0403-.098.0605-.171.0605h-.874l1.952-2.86-1.875-2.7115h.94c.081 0 .139.0128.176.0385.037.0256.07.0623.099.11l1.37 2.09c.029-.1064.075-.209.137-.308l1.199-1.76c.033-.0514.068-.0917.105-.121.04-.033.088-.0495.143-.0495h.902l-1.876 2.662z" fill="#000"/><path d="m84.0043 50.1037h.7645v10.351h-.7645zm39.5807 0h.765v10.351h-.765zm54.666 0h.765v10.351h-.765z" fill="#7c4663"/><path d="m56.4902 11.0645c0 .0585.002.1054.0059.1406.0078.0312.0215.0683.041.1113.0234.043.0625.0762.1172.0996.0547.0195.125.0293.2109.0293.1485 0 .2754.0235.3809.0703.1055.0469.1582.1172.1582.211 0 .457-.0645.7422-.1934.8554-.3359-.0312-.7851-.0468-1.3476-.0468-.6016 0-1.0742.0156-1.418.0468-.1289-.1172-.1933-.4023-.1933-.8554 0-.0938.0527-.1641.1582-.211.1054-.0468.2324-.0703.3808-.0703.1524 0 .252-.0312.2988-.0937.0469-.0664.0704-.1582.0704-.2754v-5.62503c0-.20703-.0606-.35351-.1817-.43945-.1172-.08594-.3457-.13672-.6855-.15234-.0508-.01172-.084-.03711-.0996-.07618-.0118-.03906-.0176-.12304-.0176-.25195 0-.19922.0215-.375.0644-.52734.043-.15235.086-.24024.1289-.26368.3243.04297.6348.06446.9317.06446.1758 0 .3613-.00977.5566-.0293.1953-.02344.2988-.03516.3106-.03516.1367 0 .2246.03516.2636.10547.043.06641.0645.22266.0645.46875v.03516c-.0039.55078-.0059 2.78906-.0059 6.71489zm5.6309.6738c-.2852.3008-.6465.5351-1.084.7031-.4336.168-.875.252-1.3242.252-.5586 0-1.0195-.1485-1.3828-.4454-.3633-.2968-.5449-.7265-.5449-1.289 0-.6016.291-1.0547.873-1.35939.4375-.23438 1.1875-.4375 2.25-.60938.1992-.03515.5234-.08593.9727-.15234 0-.66406-.084-1.12109-.252-1.37109s-.4902-.375-.9668-.375c-.3476 0-.7344.07812-1.1601.23437-.4258.15625-.7657.37305-1.0196.65039-.3164-.26562-.4746-.52539-.4746-.77929 0-.21875.1504-.41211.4512-.58008.3008-.17188.6543-.29688 1.0605-.375.4102-.08203.8203-.12305 1.2305-.12305.3867 0 .7246.04883 1.0137.14648.2929.09376.5508.25.7734.46876.2227.21874.3906.51953.5039.90234.1172.38281.1758.84766.1758 1.39453v1.87495c0 .1602.0117.2813.0352.3633.0273.0782.0566.127.0878.1465.0313.0156.0821.0274.1524.0352.1211.0117.2109.0234.2695.0351.0586.0078.127.0215.2051.041.0781.0196.1328.045.1641.0762.0351.0313.0527.0703.0527.1172 0 .4609-.0645.7481-.1934.8613-.1875-.0312-.4316-.0468-.7324-.0468-.2734 0-.5273.0136-.7617.041-.0273-.0196-.0625-.0469-.1055-.0821-.039-.0351-.0937-.125-.164-.2695-.0704-.1445-.1055-.3066-.1055-.4863zm-2.1387-.0879c.3555 0 .7403-.0977 1.1543-.293.4141-.1992.6641-.3789.75-.539v-1.03715c-1.0664.19141-1.7871.36325-2.1621.51565-.3711.1523-.5566.3672-.5566.6445 0 .4727.2715.709.8144.709zm8.7364-.2871c.1171.2226.1757.4316.1757.6269 0 .1094-.0488.2051-.1465.2871-.0937.0782-.2168.1387-.3691.1817s-.3047.0742-.457.0937c-.1524.0196-.3008.0293-.4453.0293-.2188 0-.4219-.0312-.6094-.0937s-.3672-.1641-.5391-.3047c-.1679-.1445-.3008-.3516-.3984-.6211-.0977-.2734-.1465-.5977-.1465-.9727v-3.39839h-.252c-.4609 0-.7128.00195-.7558.00586-.1289-.04688-.1934-.19727-.1934-.45118 0-.30859.0977-.46289.293-.46289h.9082c.0156-.125.0293-.28711.041-.48632.0156-.20313.0293-.36329.041-.48047.0118-.11719.0293-.25586.0528-.41602.0273-.16016.0625-.28516.1054-.375.0469-.09375.1055-.18555.1758-.27539s.1602-.1543.2696-.19336c.1132-.04297.246-.06445.3984-.06445.1055 0 .1875.01758.2461.05273v2.23828h.7793c.4648 0 .709-.00976.7324-.02929.1953 0 .293.16797.293.5039 0 .25391-.0645.4043-.1934.45117-.1289-.01171-.3808-.01757-.7558-.01757h-.8555v3.36329c0 .6484.2109.9726.6328.9726.2734 0 .5977-.0546.9727-.164zm.9374-.5274c-.1874-.4297-.2812-.90817-.2812-1.43551s.0938-1.00391.2812-1.42969c.1876-.42578.4376-.76953.75-1.03125.3126-.26562.6622-.46875 1.0489-.60937.3867-.14063.791-.21094 1.2129-.21094.4179 0 .8203.07031 1.207.21094.3867.14062.7344.34375 1.043.60937.3125.26172.5625.60547.75 1.03125s.2812.90235.2812 1.42969-.0937 1.00581-.2812 1.43551c-.1875.4258-.4375.7715-.75 1.0371-.3086.2657-.6563.4688-1.043.6094s-.7891.211-1.207.211c-.4219 0-.8262-.0704-1.2129-.211s-.7363-.3437-1.0489-.6094c-.3124-.2656-.5624-.6113-.75-1.0371zm1.6583-3.11715c-.379.40234-.5684.96289-.5684 1.68164 0 .71871.1894 1.28121.5684 1.68751.3789.4023.8261.6035 1.3417.6035.2461 0 .4825-.0488.709-.1465.2266-.0976.4297-.2383.6094-.4219.1836-.1875.3301-.4296.4395-.7265.1093-.2969.164-.62892.164-.99611s-.0547-.69922-.164-.99609c-.1094-.29688-.2559-.53711-.4395-.72071-.1797-.18359-.3828-.32421-.6094-.42187-.2265-.09766-.4629-.14649-.709-.14649-.5156 0-.9628.20118-1.3417.60352zm15.8261-3.82617v7.08982c0 .0586.002.1055.0059.1406.0078.0313.0215.0684.041.1114.0234.0429.0625.0761.1172.0996.0547.0195.125.0293.2109.0293.1797 0 .334.0234.4629.0703s.1934.1172.1934.2109c0 .5078-.084.8203-.252.9375-.4062-.0312-.8887-.0468-1.4472-.0468-.5352 0-1.002.0156-1.4004.0468-.1055-.0625-.1836-.1836-.2344-.3632-.0508-.1836-.0762-.375-.0762-.5743 0-.0937.0645-.164.1934-.2109s.2832-.0703.4629-.0703c.1523 0 .2519-.0313.2988-.0938.0469-.0664.0703-.1582.0703-.2754v-5.6484c0-.11718-.0234-.20703-.0703-.26953-.0469-.0664-.1465-.09961-.2988-.09961-.1797 0-.334-.02344-.4629-.07031s-.1934-.11719-.1934-.21094c0-.41015.0449-.72265.1348-.9375.3867.03125.7578.04688 1.1133.04688.332 0 .6601-.01563.9843-.04688.0977 0 .1465.04492.1465.13477zm5.1153 4.89844c.0039-.17188.0058-.5254.0058-1.06055v-1.37695c0-.77344.0039-1.25782.0117-1.45313-.0976.14453-.2422.36719-.4336.66797-.1875.30078-.3281.52344-.4218.66797-.2618.34765-.7442 1.10351-1.4473 2.26758-.0469.08203-.0703.14062-.0703.17578 0 .05469.1113.08984.334.10547.2265.01562.5918.02343 1.0957.02343.4297 0 .7383-.00586.9258-.01757zm.0058 2.20308v-1.13082h-1.7519c-.7657 0-1.2383-.04492-1.418-.13476-.1563-.13282-.2813-.34571-.375-.63868-.0938-.29296-.1406-.50195-.1406-.62695 0-.08203.0234-.17383.0703-.27539.7305-1.19531 1.6914-2.56836 2.8828-4.11914.1367-.17188.4648-.25781.9844-.25781.0468 0 .1328.00195.2578.00586h.3223c.3593 0 .539.14062.539.42187 0 .26953-.0039.70899-.0117 1.31836-.0039.60547-.0059 1.07422-.0059 1.40625v1.74609c0 .03907.0176.0586.0528.0586h.6797c.2656-.00391.4355-.00586.5097-.00586.168 0 .2871.02148.3574.06445.0704.04297.1153.11133.1348.20508-.0039.25-.0723.47461-.2051.67383-.039.07031-.1308.11523-.2754.13476-.1445.01563-.4082.02344-.791.02344h-.4629v1.11912c0 .0586.002.1055.0059.1406.0078.0313.0215.0684.041.1114.0234.0429.0625.0761.1172.0996.0547.0195.125.0293.2109.0293.1797 0 .334.0234.4629.0703s.1934.1172.1934.2109c0 .5078-.084.8203-.252.9375-.4062-.0312-.8886-.0468-1.4472-.0468-.5352 0-1.002.0156-1.4004.0468-.1055-.0625-.1836-.1836-.2344-.3632-.0508-.1836-.0762-.375-.0762-.5743 0-.0937.0645-.164.1934-.2109s.2832-.0703.4629-.0703c.1523 0 .2519-.0313.2988-.0938.0469-.0664.0703-.1582.0703-.2754zm5.5957-1.88082v1.76372c.2071.2617.4766.4648.8086.6093.336.1446.6856.2168 1.0488.2168.4962 0 .9082-.1953 1.2362-.5859.332-.3906.498-.9629.498-1.71681 0-.72266-.179-1.2832-.539-1.68164-.355-.40234-.783-.60352-1.283-.60352-.4688 0-.8809.17774-1.2364.53321-.3554.35156-.5332.83984-.5332 1.46484zm0 2.88872v1.4414c0 .0586.002.1035.0059.1347.0078.0352.0215.0742.041.1172.0234.043.0625.0742.1172.0938.0547.0234.125.0351.2109.0351.1485 0 .2754.0235.3809.0703.1055.0469.1582.1172.1582.211 0 .457-.0645.7422-.1934.8554-.2617-.0586-.7031-.0879-1.3242-.0879-.668 0-1.1484.0293-1.4414.0879-.1289-.1171-.1934-.4023-.1934-.8554 0-.0938.0528-.1641.1582-.211.1055-.0468.2325-.0703.3809-.0703.1523 0 .252-.0332.2988-.0996.0469-.0625.0703-.1523.0703-.2695v-5.52541c0-.20703-.0605-.35352-.1816-.43946-.1172-.08593-.3457-.13671-.6855-.15234-.0508-.01172-.084-.03711-.0997-.07617-.0117-.03906-.0175-.12305-.0175-.25195 0-.19922.0215-.375.0644-.52735.043-.15234.086-.24023.1289-.26367.3008.04297.5918.06445.8731.06445.1758 0 .3613-.00976.5566-.02929.1953-.02344.2988-.03516.3106-.03516.1367 0 .2246.03516.2636.10547.043.0664.0645.22266.0645.46875v.42187c.2031-.35156.4902-.62109.8613-.80859.3711-.19141.7559-.28711 1.1543-.28711.3867 0 .7557.07031 1.1077.21094.355.14062.676.34375.961.60937.285.26172.511.60547.679 1.03125.172.42578.258.90235.258 1.42969s-.086 1.00581-.258 1.43551c-.172.4258-.402.7715-.691 1.0371-.285.2657-.607.4688-.967.6094-.359.1406-.734.211-1.1248.211-.7774 0-1.42-.2305-1.9278-.6914zm8.1326-4.30083.703.89063.762-.89063c.063-.07812.094-.15625.094-.23437 0-.0586-.026-.09961-.076-.12305-.047-.02344-.102-.03516-.164-.03516-.059-.0039-.114-.02343-.164-.05859-.047-.03906-.071-.0957-.071-.16992 0-.15625.022-.33985.065-.55078.047-.21485.093-.35157.14-.41016.325.10156.688.15234 1.09.15234.488 0 .891-.05078 1.207-.15234.153.07422.229.25977.229.55664 0 .23828-.043.40625-.129.50391-.082.09375-.221.14062-.416.14062-.117 0-.223.01953-.317.0586-.089.03906-.154.07812-.193.11718-.039.03907-.088.09375-.146.16407-.004.0039-.008.00976-.012.01757-.004.00391-.008.00782-.012.01172l-1.348 1.58203 1.459 1.83402c.004.0039.016.0195.036.0468.023.0274.037.045.041.0528.007.0039.023.0195.046.0469.028.0273.047.0449.059.0527s.031.0234.059.0469c.031.0195.056.0351.076.0468.023.0078.051.0196.082.0352.035.0117.068.0215.099.0293.036.0039.073.0098.112.0176.043.0039.088.0058.135.0058.171 0 .296.041.375.1231.082.0781.123.2109.123.3984 0 .1367-.02.2695-.059.3984-.039.129-.09.2227-.152.2813-.371-.1016-.768-.1523-1.19-.1523-.531 0-.982.0507-1.353.1523-.063-.0547-.121-.1895-.176-.4043s-.082-.4004-.082-.5566c0-.0704.027-.1231.082-.1582.058-.0352.123-.0547.193-.0586.071-.0078.133-.0215.188-.041.058-.0196.088-.0489.088-.0879.004-.0664-.037-.1543-.123-.2637l-.815-1.0313-.879 1.0313c-.086.1094-.127.1973-.123.2637 0 .039.028.0683.082.0879.059.0195.123.0332.194.041.07.0039.132.0234.187.0586.059.0351.088.0878.088.1582 0 .1562-.027.3418-.082.5566s-.113.3496-.176.4043c-.351-.1016-.734-.1523-1.148-.1523s-.807.0507-1.178.1523c-.062-.0586-.113-.1523-.152-.2813-.039-.1289-.059-.2617-.059-.3984 0-.1875.039-.3203.117-.3984.082-.0821.209-.1231.381-.1231.047 0 .09-.0019.129-.0058.043-.0078.08-.0137.111-.0176.035-.0078.069-.0176.1-.0293.035-.0156.062-.0274.082-.0352.023-.0117.049-.0273.076-.0468.031-.0235.053-.0391.065-.0469.011-.0078.029-.0254.052-.0527.028-.0274.043-.043.047-.0469.008-.0078.022-.0254.041-.0528.024-.0273.037-.0429.041-.0468l1.465-1.70511-1.353-1.71094c-.114-.14062-.207-.23242-.282-.27539-.109-.0625-.242-.09375-.398-.09375-.195 0-.336-.04687-.422-.14062-.082-.09766-.123-.26563-.123-.50391 0-.29687.076-.48242.228-.55664.317.10156.719.15234 1.208.15234.507 0 .945-.05078 1.312-.15234.047.05859.092.19531.135.41016.047.21093.07.39453.07.55078 0 .07422-.025.13086-.076.16992-.047.03516-.102.05469-.164.05859-.059 0-.113.01172-.164.03516-.047.02344-.071.06445-.071.12305 0 .07812.032.15625.094.23437zm14.965 1.29492v1.52931c.125.3281.363.6055.715.832.351.2227.75.334 1.195.334.473 0 .881-.2012 1.225-.6035.344-.4063.515-.9688.515-1.68751 0-.71875-.183-1.2793-.55-1.68164s-.803-.60352-1.307-.60352c-.219 0-.434.04102-.644.12305-.211.07813-.403.19336-.575.3457-.172.15235-.31.35157-.416.59766-.105.24219-.158.51367-.158.81445zm0-4.35937v2.46094c.191-.3125.465-.55274.82-.72071.36-.17187.725-.25781 1.096-.25781.395 0 .775.07031 1.143.21094.367.14062.697.34375.99.60937.297.26172.533.60547.709 1.03125.18.42578.269.90235.269 1.42969s-.087 1.00581-.263 1.43551c-.176.4258-.412.7715-.709 1.0371-.293.2657-.621.4688-.985.6094-.363.1406-.742.211-1.136.211-.879 0-1.664-.3282-2.356-.9844l-.586.5859c-.211.1875-.414.2813-.609.2813-.156 0-.285-.0508-.387-.1524-.101-.1015-.152-.2285-.152-.3808 0-.2344.109-.4532.328-.6563l.498-.457v-5.47853c0-.20703-.061-.35351-.182-.43945-.117-.08594-.345-.13672-.685-.15234-.051-.01172-.084-.03711-.1-.07618-.012-.03906-.017-.12304-.017-.25195 0-.19922.021-.375.064-.52734.043-.15235.086-.24024.129-.26368.324.04297.635.06446.932.06446.175 0 .361-.00977.556-.0293.196-.02344.299-.03516.311-.03516.137 0 .224.03516.263.10547.043.06641.065.22266.065.46875 0 .02735-.002.07813-.006.15235zm5.725 6.19918c-.188-.4297-.282-.90817-.282-1.43551s.094-1.00391.282-1.42969c.187-.42578.437-.76953.75-1.03125.312-.26562.662-.46875 1.049-.60937.386-.14063.791-.21094 1.212-.21094.418 0 .821.07031 1.207.21094.387.14062.735.34375 1.043.60937.313.26172.563.60547.75 1.03125.188.42578.282.90235.282 1.42969s-.094 1.00581-.282 1.43551c-.187.4258-.437.7715-.75 1.0371-.308.2657-.656.4688-1.043.6094-.386.1406-.789.211-1.207.211-.421 0-.826-.0704-1.212-.211-.387-.1406-.737-.3437-1.049-.6094-.313-.2656-.563-.6113-.75-1.0371zm1.658-3.11715c-.379.40234-.568.96289-.568 1.68164 0 .71871.189 1.28121.568 1.68751.379.4023.826.6035 1.342.6035.246 0 .482-.0488.709-.1465.226-.0976.429-.2383.609-.4219.184-.1875.33-.4296.44-.7265.109-.2969.164-.62892.164-.99611s-.055-.69922-.164-.99609c-.11-.29688-.256-.53711-.44-.72071-.18-.18359-.383-.32421-.609-.42187-.227-.09766-.463-.14649-.709-.14649-.516 0-.963.20118-1.342.60352zm7.348 3.34575c0 .0585.002.1054.005.1406.008.0312.022.0683.041.1113.024.043.063.0762.118.0996.054.0195.125.0293.211.0293.148 0 .275.0235.38.0703.106.0469.159.1172.159.211 0 .457-.065.7422-.194.8554-.336-.0312-.785-.0468-1.347-.0468-.602 0-1.075.0156-1.418.0468-.129-.1172-.194-.4023-.194-.8554 0-.0938.053-.1641.158-.211.106-.0468.233-.0703.381-.0703.153 0 .252-.0312.299-.0937.047-.0664.07-.1582.07-.2754v-5.62503c0-.20703-.06-.35351-.181-.43945-.117-.08594-.346-.13672-.686-.15234-.05-.01172-.084-.03711-.099-.07618-.012-.03906-.018-.12304-.018-.25195 0-.19922.022-.375.065-.52734.043-.15235.085-.24024.128-.26368.325.04297.635.06446.932.06446.176 0 .361-.00977.557-.0293.195-.02344.299-.03516.31-.03516.137 0 .225.03516.264.10547.043.06641.064.22266.064.46875v.03516c-.003.55078-.005 2.78906-.005 6.71489zm6.334-1.24809v-1.5293c-.208-.37109-.481-.66016-.821-.86719s-.691-.31054-1.054-.31054c-.5 0-.922.19726-1.266.59179-.34.39063-.51.96094-.51 1.71094 0 .71879.184 1.27929.551 1.68169.367.4023.803.6035 1.307.6035.218 0 .433-.0391.644-.1172.211-.0821.402-.1992.574-.3516.172-.1523.311-.3496.416-.5918.106-.2461.159-.5195.159-.82029zm1.33-5.17969v6.42778c0 .0546.004.1015.011.1406.008.0351.024.0742.047.1172.028.039.071.0703.129.0937.059.0235.135.0371.229.041.367.0157.55.0977.55.2461 0 .4688-.066.7617-.199.8789-.215-.0312-.447-.0468-.697-.0468-.352 0-.695.0156-1.031.0468-.246-.1132-.369-.3847-.369-.8144v-.0528c-.211.3125-.51.5547-.897.7266-.387.168-.785.252-1.195.252-.375 0-.735-.0704-1.078-.211-.344-.1406-.657-.3418-.938-.6035-.277-.2656-.5-.6113-.668-1.0371s-.252-.90235-.252-1.42969.088-1.00391.264-1.42969.41-.76953.703-1.03125c.297-.26562.627-.46875.99-.60937.363-.14063.742-.21289 1.137-.2168h.035c.77 0 1.402.28711 1.899.86133v-1.53516c0-.20703-.061-.35351-.182-.43945-.117-.08594-.346-.13672-.686-.15234-.05-.01172-.084-.03711-.099-.07618-.012-.03906-.018-.12304-.018-.25195 0-.19922.022-.375.065-.52734.043-.15235.086-.24024.129-.26368.324.04297.634.06446.931.06446.176 0 .361-.00977.557-.0293.195-.02344.299-.03516.31-.03516.137 0 .225.03516.264.10547.043.06641.064.22266.064.46875 0 .02735-.001.07813-.005.15235zm11.964 0v3.97851l1.852-1.10156c.199-.14453.303-.22461.311-.24023.003-.00391.005-.01172.005-.02344 0-.01953-.023-.03125-.07-.03516-.043-.00781-.094-.01367-.152-.01757-.055-.00391-.106-.03321-.153-.08789-.043-.0586-.064-.14454-.064-.25782 0-.3164.053-.53125.158-.64453.262.05078.717.07617 1.365.07617.473 0 .868-.02539 1.184-.07617.125.05469.188.28906.188.70313 0 .14453-.014.24609-.042.30468-.027.0586-.08.09961-.158.12305s-.168.04297-.269.05859c-.098.01172-.24.05469-.428.12891-.184.07422-.375.17969-.574.31641l-1.418.92578c.996 1.24222 1.562 1.95902 1.699 2.15042.039.0547.088.1269.147.2168.062.0859.101.1386.117.1582.019.0195.054.0468.105.082s.104.0566.158.0645c.055.0039.133.0058.235.0058.488 0 .732.0938.732.2813 0 .4531-.064.7382-.193.8554-.363-.0312-.783-.0468-1.26-.0468-.383 0-.832.0156-1.348.0468-.015-.0781-.039-.1816-.07-.3105-.027-.1328-.049-.2403-.064-.3223-.012-.0859-.018-.1582-.018-.2168 0-.1445.168-.2324.504-.2636-.059-.0938-.156-.2325-.293-.4161s-.354-.4687-.65-.8554c-.297-.39066-.532-.69925-.704-.92582l-.832.51563v1.27739c0 .0585.002.1054.006.1406.008.0312.022.0683.041.1113.024.043.063.0762.118.0996.054.0195.125.0293.21.0293.149 0 .276.0235.381.0703.106.0469.159.1172.159.211 0 .457-.065.7422-.194.8554-.367-.0312-.824-.0468-1.371-.0468-.586 0-1.051.0156-1.394.0468-.129-.1172-.194-.4023-.194-.8554 0-.0938.053-.1641.158-.211.106-.0468.233-.0703.381-.0703.153 0 .252-.0312.299-.0937.047-.0664.07-.1582.07-.2754v-5.62503c0-.20703-.06-.35351-.181-.43945-.117-.08594-.346-.13672-.686-.15234-.051-.01172-.084-.03711-.099-.07618-.012-.03906-.018-.12304-.018-.25195 0-.19922.021-.375.064-.52734.043-.15235.086-.24024.129-.26368.325.04297.635.06446.932.06446.176 0 .361-.00977.557-.0293.195-.02344.298-.03516.31-.03516.137 0 .225.03516.264.10547.043.06641.064.22266.064.46875 0 .02735-.002.07813-.006.15235zm11.415 4.43555c0 .17968-.047.31835-.141.41601-.09.09375-.262.14063-.516.14063h-4.043c.016.35547.078.66209.188.91989.109.2578.254.461.433.6094.18.1445.377.252.592.3223.215.0664.449.0996.703.0996.356 0 .719-.0625 1.09-.1875s.707-.3008 1.008-.5274c.223.2618.334.5196.334.7735 0 .1679-.111.334-.334.498-.223.1602-.523.293-.902.3985-.379.1054-.774.1582-1.184.1582-.336 0-.656-.0332-.961-.0996-.301-.0665-.598-.1817-.891-.3458-.289-.1679-.539-.3789-.75-.6328-.21-.2539-.38-.58-.509-.9785-.129-.3984-.194-.84959-.194-1.3535 0-.49218.094-.94336.282-1.35351.187-.41016.435-.74414.744-1.00196.308-.26171.652-.46289 1.031-.60351.383-.14063.775-.21094 1.178-.21094.297 0 .582.03711.855.11133.274.07422.531.19141.774.35156.242.15625.453.34961.632.58008.18.22656.321.50391.422.83203.106.32813.159.68945.159 1.08399zm-1.184-.35157c-.035-.54297-.207-.95508-.516-1.23632-.304-.28516-.67-.42774-1.095-.42774-.454 0-.866.15234-1.237.45703-.367.30078-.578.70313-.633 1.20703zm3.762-1.92773v.38086c.175-.28125.437-.52735.785-.73828.347-.21094.679-.31641.996-.31641.207 0 .404.03516.592.10547.187.06641.349.1875.486.36328.141.17578.211.39063.211.64453 0 .69531-.369 1.04297-1.107 1.04297-.016 0-.032-.00195-.047-.00586-.016-.00391-.03-.00976-.041-.01758-.008-.00781-.016-.01562-.024-.02343-.008-.00782-.015-.01954-.023-.03516-.004-.01563-.008-.0293-.012-.04102s-.008-.02929-.012-.05273c-.004-.02734-.007-.04883-.011-.06445 0-.01563-.002-.03711-.006-.06446 0-.03125-.002-.05664-.006-.07617l-.07-.60937c-.106-.05078-.221-.07618-.346-.07618-.227 0-.455.08399-.686.25196-.226.16406-.394.35547-.504.57422v2.96484c0 .0586.002.1055.006.1406.008.0313.022.0684.041.1114.024.0429.063.0761.117.0996.055.0195.125.0293.211.0293.149 0 .276.0234.381.0703.106.0468.158.1172.158.2109 0 .1875-.031.3731-.093.5567-.063.1835-.155.3046-.276.3632-.273-.0312-.673-.0468-1.201-.0468-.527 0-.931.0156-1.213.0468-.129-.0586-.222-.1777-.281-.3574-.059-.1836-.088-.3711-.088-.5625 0-.0937.053-.1641.158-.2109.106-.0469.233-.0703.381-.0703.153 0 .252-.0313.299-.0938.047-.0664.07-.1582.07-.2754v-3.08201c0-.20703-.06-.35352-.181-.43946-.117-.08593-.346-.13671-.686-.15234-.051-.01172-.084-.03711-.099-.07617-.012-.03906-.018-.12305-.018-.25195 0-.19922.021-.375.064-.52735.043-.15234.086-.24023.129-.26367.278.04297.549.06445.815.06445.164 0 .336-.00976.515-.02929.184-.02344.282-.03516.293-.03516.137 0 .225.03516.264.10547.039.0664.059.22266.059.46875zm10.898 5.78903c-.379-.0312-.721-.0468-1.025-.0468-.2 0-.416.0078-.651.0234-.234.0156-.388.0234-.463.0234-.132 0-.199-.1484-.199-.4453v-3.50975c0-.50781-.082-.8789-.246-1.11328-.164-.23828-.379-.35742-.644-.35742-.274 0-.575.07813-.903.23437-.324.15235-.629.34766-.914.58594v3.08794c0 .0585.002.1054.006.1406.008.0312.022.0683.041.1113.023.043.063.0762.117.0996.055.0195.125.0293.211.0293.149 0 .276.0235.381.0703.105.0469.158.1172.158.211 0 .457-.064.7422-.193.8554-.238-.0312-.686-.0468-1.342-.0468s-1.131.0156-1.424.0468c-.129-.1172-.193-.4023-.193-.8554 0-.0938.053-.1641.158-.211.106-.0468.232-.0703.381-.0703.152 0 .252-.0312.299-.0937.047-.0664.07-.1582.07-.2754v-3.14651c0-.20703-.06-.35352-.182-.43946-.117-.08593-.345-.13671-.685-.15234-.051-.01172-.084-.03711-.1-.07617-.011-.03906-.017-.12305-.017-.25195 0-.19922.021-.375.064-.52735.043-.15234.086-.24023.129-.26367.258.04297.51.06445.756.06445.176 0 .361-.00976.557-.02929.195-.02344.298-.03516.31-.03516.137 0 .225.03516.264.10547.043.0664.064.22266.064.46875 0 .02734-.002.07812-.006.15234v.16992c.336-.29687.717-.53711 1.143-.7207s.836-.27539 1.23-.27539c.547 0 .991.19336 1.331.58008.339.38672.509.99414.509 1.82226v2.51952c0 .2539.098.3887.293.4043.039.0039.09.0078.153.0117.066.0039.117.0078.152.0118.039.0039.086.0097.141.0175.054.0039.097.0098.128.0176.032.0039.067.0117.106.0234.043.0079.076.0176.1.0293.023.0118.044.0254.064.0411.023.0156.039.0351.047.0585.012.0196.017.043.017.0704 0 .4531-.064.7382-.193.8554zm1.904-7.34177c-.093 0-.189-.00781-.287-.02343-.097-.01953-.205-.05274-.322-.09961-.113-.04688-.207-.1211-.281-.22266-.071-.10156-.106-.22265-.106-.36328 0-.48047.325-.7207.973-.7207.184 0 .338.02343.463.07031.129.04687.222.10937.281.1875.063.07812.106.1543.129.22852.023.07421.035.15429.035.24023 0 .17578-.055.32031-.164.43359s-.226.1875-.351.22266c-.122.03125-.245.04687-.37.04687zm.967 1.55274v4.27153c0 .0585.002.1054.006.1406.008.0312.022.0683.041.1113.023.043.063.0762.117.0996.055.0195.125.0293.211.0293.149 0 .276.0235.381.0703.106.0469.158.1172.158.211 0 .457-.064.7422-.193.8554-.352-.0312-.781-.0468-1.289-.0468-.528 0-1.02.0156-1.477.0468-.129-.1172-.193-.4023-.193-.8554 0-.0938.053-.1641.158-.211.106-.0468.233-.0703.381-.0703.152 0 .252-.0312.299-.0937.047-.0664.07-.1582.07-.2754v-3.14651c0-.20703-.06-.35352-.182-.43946-.117-.08593-.345-.13671-.685-.15234-.051-.01172-.084-.03711-.1-.07617-.011-.03906-.017-.12305-.017-.25195 0-.19922.021-.375.064-.52735.043-.15234.086-.24023.129-.26367.301.04297.592.06445.873.06445.188 0 .385-.00976.592-.02929.207-.02344.316-.03516.328-.03516.137 0 .225.03516.264.10547.043.0664.064.22266.064.46875zm8.695 5.78903c-.378-.0312-.72-.0468-1.025-.0468-.199 0-.416.0078-.65.0234-.235.0156-.389.0234-.463.0234-.133 0-.199-.1484-.199-.4453v-3.50975c0-.50781-.082-.8789-.246-1.11328-.165-.23828-.379-.35742-.645-.35742-.273 0-.574.07813-.902.23437-.325.15235-.629.34766-.914.58594v3.08794c0 .0585.002.1054.005.1406.008.0312.022.0683.041.1113.024.043.063.0762.118.0996.054.0195.125.0293.211.0293.148 0 .275.0235.38.0703.106.0469.159.1172.159.211 0 .457-.065.7422-.194.8554-.238-.0312-.685-.0468-1.342-.0468-.656 0-1.13.0156-1.423.0468-.129-.1172-.194-.4023-.194-.8554 0-.0938.053-.1641.158-.211.106-.0468.233-.0703.381-.0703.153 0 .252-.0312.299-.0937.047-.0664.07-.1582.07-.2754v-3.14651c0-.20703-.06-.35352-.181-.43946-.117-.08593-.346-.13671-.686-.15234-.05-.01172-.084-.03711-.099-.07617-.012-.03906-.018-.12305-.018-.25195 0-.19922.022-.375.065-.52735.043-.15234.085-.24023.128-.26367.258.04297.51.06445.756.06445.176 0 .362-.00976.557-.02929.195-.02344.299-.03516.311-.03516.136 0 .224.03516.263.10547.043.0664.065.22266.065.46875 0 .02734-.002.07812-.006.15234v.16992c.336-.29687.717-.53711 1.142-.7207.426-.18359.836-.27539 1.231-.27539.547 0 .99.19336 1.33.58008s.51.99414.51 1.82226v2.51952c0 .2539.097.3887.293.4043.039.0039.089.0078.152.0117.066.0039.117.0078.152.0118.039.0039.086.0097.141.0175.055.0039.098.0098.129.0176.031.0039.066.0117.105.0234.043.0079.076.0176.1.0293.023.0118.045.0254.064.0411.024.0156.039.0351.047.0585.012.0196.018.043.018.0704 0 .4531-.065.7382-.194.8554zm6.756.7149c0 .3476-.058.6484-.175.9023-.118.2578-.272.4629-.463.6153-.192.1562-.436.2812-.733.375-.293.0937-.594.1562-.902.1875-.305.0351-.656.0527-1.055.0527-.734 0-1.361-.084-1.881-.252-.515-.164-.773-.3847-.773-.6621 0-.5703.16-1.2148.48-1.9336-.449-.1523-.673-.4687-.673-.9492 0-.4609.285-.9258.855-1.3945-.289-.2149-.508-.47072-.656-.7676-.145-.29687-.217-.60547-.217-.92578 0-.30469.068-.60156.205-.89062.137-.29297.324-.55274.563-.7793.238-.22656.533-.4082.884-.54492.352-.14063.729-.21094 1.131-.21094.34 0 .627.0293.862.08789.234.05859.46.1543.679.28711.004-.00391.045-.04883.123-.13476.078-.08594.151-.15821.217-.2168.07-.0586.162-.12696.275-.20508.114-.07812.243-.13672.387-.17578.149-.04297.303-.06445.463-.06445.258 0 .42.02929.486.08789.067.05468.1.16601.1.33398v.09961c0 .08594-.002.15625-.006.21094 0 .05469-.01.10742-.029.1582-.02.04688-.037.08399-.053.11133s-.049.05273-.1.07617c-.05.02344-.097.04102-.14.05273-.039.00782-.11.01563-.211.02344-.098.00782-.188.01172-.27.01172-.078 0-.195 0-.351 0-.035 0-.094-.00195-.176-.00586-.078-.0039-.139-.00586-.182-.00586.266.17969.477.42774.633.74414.156.31641.235.66016.235 1.03125 0 .6211-.25 1.14063-.75 1.55855-.497.418-1.182.627-2.057.627-.195 0-.385-.0137-.568-.041-.184-.0313-.352-.0664-.504-.1055-.153-.043-.231-.0644-.235-.0644-.129.2578-.193.5136-.193.7675 0 .1211.088.2071.264.2579.175.0507.404.0781.685.082s.59.0058.926.0058c.34-.0039.68.0137 1.019.0528.34.039.651.1054.932.1992.281.0937.51.2539.686.4805.175.2226.263.5058.263.8496zm-3.339-3.48049c.304 0 .568-.03516.791-.10547.222-.07422.394-.17383.515-.29883.121-.12891.209-.26563.264-.41016.058-.14843.088-.31054.088-.48633 0-.38671-.139-.71874-.416-.99609-.274-.27734-.68-.41601-1.219-.41601-.535 0-.938.13671-1.207.41015-.27.26953-.404.60156-.404.9961 0 .36718.127.67773.38.93164.258.25.661.375 1.208.375zm-.674 2.97069c-.422-.0273-.717-.0625-.885-.1055v.375c.004.086.01.1973.017.334.012.1406.028.2481.047.3223.024.0742.055.1523.094.2344.039.0859.09.1504.152.1933.063.043.137.0723.223.0879.492.0899.94.1348 1.342.1348.328 0 .601-.0235.82-.0703.223-.043.391-.1075.504-.1934.117-.0859.197-.1816.24-.2871.047-.1016.071-.2246.071-.3691 0-.4375-.494-.6563-1.483-.6563zm9.966-8.89452v7.08982c0 .0586.002.1055.006.1406.008.0313.022.0684.041.1114.024.0429.063.0761.118.0996.054.0195.125.0293.21.0293.18 0 .334.0234.463.0703s.194.1172.194.2109c0 .5078-.084.8203-.252.9375-.406-.0312-.889-.0468-1.448-.0468-.535 0-1.001.0156-1.4.0468-.105-.0625-.183-.1836-.234-.3632-.051-.1836-.076-.375-.076-.5743 0-.0937.064-.164.193-.2109s.283-.0703.463-.0703c.152 0 .252-.0313.299-.0938.047-.0664.07-.1582.07-.2754v-5.6484c0-.11718-.023-.20703-.07-.26953-.047-.0664-.147-.09961-.299-.09961-.18 0-.334-.02344-.463-.07031s-.193-.11719-.193-.21094c0-.41015.044-.72265.134-.9375.387.03125.758.04688 1.114.04688.332 0 .66-.01563.984-.04688.098 0 .146.04492.146.13477zm3.545 5.2207v1.76372c.207.2617.477.4648.809.6093.336.1446.686.2168 1.049.2168.496 0 .908-.1953 1.236-.5859.332-.3906.498-.9629.498-1.71681 0-.72266-.179-1.2832-.539-1.68164-.355-.40234-.783-.60352-1.283-.60352-.469 0-.881.17774-1.236.53321-.356.35156-.534.83984-.534 1.46484zm0 2.88872v1.4414c0 .0586.002.1035.006.1347.008.0352.022.0742.041.1172.024.043.063.0742.117.0938.055.0234.125.0351.211.0351.149 0 .276.0235.381.0703.106.0469.158.1172.158.211 0 .457-.064.7422-.193.8554-.262-.0586-.703-.0879-1.324-.0879-.668 0-1.149.0293-1.442.0879-.128-.1171-.193-.4023-.193-.8554 0-.0938.053-.1641.158-.211.106-.0468.233-.0703.381-.0703.153 0 .252-.0332.299-.0996.047-.0625.07-.1523.07-.2695v-5.52541c0-.20703-.06-.35352-.181-.43946-.118-.08593-.346-.13671-.686-.15234-.051-.01172-.084-.03711-.099-.07617-.012-.03906-.018-.12305-.018-.25195 0-.19922.021-.375.064-.52735.043-.15234.086-.24023.129-.26367.301.04297.592.06445.873.06445.176 0 .362-.00976.557-.02929.195-.02344.299-.03516.311-.03516.136 0 .224.03516.263.10547.043.0664.065.22266.065.46875v.42187c.203-.35156.49-.62109.861-.80859.371-.19141.756-.28711 1.154-.28711.387 0 .756.07031 1.108.21094.355.14062.675.34375.961.60937.285.26172.511.60547.679 1.03125.172.42578.258.90235.258 1.42969s-.086 1.00581-.258 1.43551c-.172.4258-.402.7715-.691 1.0371-.285.2657-.607.4688-.967.6094-.359.1406-.734.211-1.125.211-.777 0-1.42-.2305-1.928-.6914zm8.133-4.30083.703.89063.762-.89063c.063-.07812.094-.15625.094-.23437 0-.0586-.026-.09961-.076-.12305-.047-.02344-.102-.03516-.164-.03516-.059-.0039-.114-.02343-.165-.05859-.046-.03906-.07-.0957-.07-.16992 0-.15625.022-.33985.065-.55078.047-.21485.093-.35157.14-.41016.324.10156.688.15234 1.09.15234.488 0 .891-.05078 1.207-.15234.152.07422.229.25977.229.55664 0 .23828-.043.40625-.129.50391-.082.09375-.221.14062-.416.14062-.117 0-.223.01953-.317.0586-.09.03906-.154.07812-.193.11718-.039.03907-.088.09375-.147.16407-.003.0039-.007.00976-.011.01757-.004.00391-.008.00782-.012.01172l-1.348 1.58203 1.459 1.83402c.004.0039.016.0195.036.0468.023.0274.037.045.041.0528.007.0039.023.0195.046.0469.028.0273.047.0449.059.0527s.031.0234.059.0469c.031.0195.056.0351.076.0468.023.0078.051.0196.082.0352.035.0117.068.0215.099.0293.036.0039.073.0098.112.0176.043.0039.088.0058.135.0058.171 0 .296.041.375.1231.082.0781.123.2109.123.3984 0 .1367-.02.2695-.059.3984-.039.129-.09.2227-.152.2813-.371-.1016-.768-.1523-1.19-.1523-.531 0-.982.0507-1.353.1523-.063-.0547-.121-.1895-.176-.4043s-.082-.4004-.082-.5566c0-.0704.027-.1231.082-.1582.058-.0352.123-.0547.193-.0586.071-.0078.133-.0215.188-.041.058-.0196.088-.0489.088-.0879.004-.0664-.037-.1543-.123-.2637l-.815-1.0313-.879 1.0313c-.086.1094-.127.1973-.123.2637 0 .039.028.0683.082.0879.059.0195.123.0332.194.041.07.0039.132.0234.187.0586.059.0351.088.0878.088.1582 0 .1562-.027.3418-.082.5566s-.113.3496-.176.4043c-.351-.1016-.734-.1523-1.148-.1523s-.807.0507-1.178.1523c-.063-.0586-.113-.1523-.152-.2813-.039-.1289-.059-.2617-.059-.3984 0-.1875.039-.3203.117-.3984.082-.0821.209-.1231.381-.1231.047 0 .09-.0019.129-.0058.043-.0078.08-.0137.111-.0176.035-.0078.069-.0176.1-.0293.035-.0156.062-.0274.082-.0352.023-.0117.049-.0273.076-.0468.031-.0235.053-.0391.065-.0469.011-.0078.029-.0254.052-.0527.028-.0274.043-.043.047-.0469.008-.0078.022-.0254.041-.0528.024-.0273.037-.0429.041-.0468l1.465-1.70511-1.353-1.71094c-.114-.14062-.207-.23242-.282-.27539-.109-.0625-.242-.09375-.398-.09375-.195 0-.336-.04687-.422-.14062-.082-.09766-.123-.26563-.123-.50391 0-.29687.076-.48242.228-.55664.317.10156.719.15234 1.207.15234.508 0 .946-.05078 1.313-.15234.047.05859.092.19531.135.41016.047.21093.07.39453.07.55078 0 .07422-.025.13086-.076.16992-.047.03516-.102.05469-.164.05859-.059 0-.113.01172-.164.03516-.047.02344-.071.06445-.071.12305 0 .07812.032.15625.094.23437z" fill="#000"/><path d="m79.6523 13.0332v-9.68554c0-.15625.0586-.26172.1758-.31641.1211-.05469.3262-.08203.6153-.08203.2109 0 .3574.01953.4394.05859.082.03516.1231.11524.1231.24024v9.65625c0 .1289-.0176.2344-.0528.3164-.0312.082-.084.1387-.1582.1699-.0703.0352-.1387.0567-.2051.0645-.0625.0117-.1503.0176-.2636.0176-.0782 0-.1426-.002-.1934-.0059-.0469 0-.1055-.0078-.1758-.0234-.0664-.0157-.1191-.0391-.1582-.0704-.039-.0312-.0742-.0761-.1054-.1347-.0274-.0547-.0411-.1231-.0411-.2051zm33.9847 0v-9.68554c0-.15625.058-.26172.175-.31641.122-.05469.327-.08203.616-.08203.211 0 .357.01953.439.05859.082.03516.123.11524.123.24024v9.65625c0 .1289-.017.2344-.052.3164-.032.082-.084.1387-.159.1699-.07.0352-.138.0567-.205.0645-.062.0117-.15.0176-.263.0176-.079 0-.143-.002-.194-.0059-.047 0-.105-.0078-.176-.0234-.066-.0157-.119-.0391-.158-.0704-.039-.0312-.074-.0761-.105-.1347-.028-.0547-.041-.1231-.041-.2051zm34.347 0v-9.68554c0-.15625.059-.26172.176-.31641.121-.05469.326-.08203.615-.08203.211 0 .358.01953.44.05859.082.03516.123.11524.123.24024v9.65625c0 .1289-.018.2344-.053.3164-.031.082-.084.1387-.158.1699-.07.0352-.139.0567-.205.0645-.063.0117-.151.0176-.264.0176-.078 0-.142-.002-.193-.0059-.047 0-.106-.0078-.176-.0234-.066-.0157-.119-.0391-.158-.0704-.039-.0312-.074-.0761-.106-.1347-.027-.0547-.041-.1231-.041-.2051z" fill="#7c4663"/><path d="m2.49023 4.63672v2.47851c.27735-.29296.60938-.5332.9961-.7207s.80078-.28125 1.24219-.28125c.2539 0 .48632.04297.69726.12891.21484.08593.41016.21875.58594.39843.17969.17969.32031.42969.42187.75.10157.32032.15235.69727.15235 1.13086v2.38472c0 .3711.09765.5645.29297.5801.03125.0039.07421.0078.1289.0117.0586.004.10352.0079.13477.0118.03515.0039.07617.0097.12304.0175.04688.0039.08399.0098.11133.0176.02735.0039.0586.0117.09375.0235.03907.0078.06836.0175.08789.0293.01953.0117.03907.0253.0586.041.01953.0156.0332.0351.04101.0586.00782.0195.01172.0429.01172.0703 0 .4297-.08398.7012-.25195.8144-.33203-.0312-.65625-.0468-.97266-.0468-.16015 0-.33984.0078-.53906.0234s-.34961.0234-.45117.0234c-.04297 0-.07813-.0078-.10547-.0234-.02344-.0117-.04492-.0488-.06445-.1113-.01954-.0625-.0293-.1524-.0293-.2696v-3.55075c0-.50781-.08789-.8789-.26367-1.11328-.17188-.23828-.40039-.35742-.68555-.35742-.27344 0-.57422.08203-.90234.24609-.32422.16407-.62891.375-.91407.63282v3.02934c0 .0585.00196.1054.00586.1406.00782.0312.02149.0683.04102.1113.02344.043.0625.0762.11719.0996.05468.0195.125.0293.21093.0293.14844 0 .27539.0235.38086.0703.10547.0469.15821.1172.15821.211 0 .457-.06446.7422-.19336.8554-.36719-.0312-.81836-.0468-1.35352-.0468-.5664 0-1.037108.0156-1.412108.0468-.128906-.1172-.193359-.4023-.193359-.8554 0-.0938.052735-.1641.158203-.211.105469-.0468.232422-.0703.38086-.0703.152343 0 .251954-.0312.298824-.0937.04688-.0664.07032-.1582.07032-.2754v-5.62503c0-.20703-.06055-.35351-.181644-.43945-.117188-.08594-.345704-.13672-.685547-.15234-.050781-.01172-.083985-.03711-.09961-.07618-.011718-.03906-.017578-.12304-.017578-.25195 0-.19922.021485-.375.064453-.52734.042969-.15235.085938-.24024.128907-.26368.324218.04297.634769.06446.931639.06446.17578 0 .36133-.00977.55664-.0293.19531-.02344.29883-.03516.31055-.03516.13672 0 .22461.03516.26367.10547.04297.06641.06445.22266.06445.46875 0 .02735-.00195.07813-.00586.15235zm7.22461 2.90625c.62896-.26953 1.34376-.4043 2.14456-.4043.4297 0 .8125.06055 1.1484.18164.3399.11719.6094.26953.8086.45703.2031.1836.3691.40039.4981.65039.1328.25.2226.49219.2695.72657.0508.23437.0762.47265.0762.71484 0 .42576-.0606.80276-.1817 1.13086s-.2851.5977-.4922.8086c-.2031.2109-.4531.3848-.75.5215-.2968.1328-.6074.2265-.9316.2812-.3203.0547-.6719.0821-1.0547.0821-.8047 0-1.70312-.1504-2.69531-.4512l-.02344-.0703c-.00781-.0313-.0293-.1133-.06445-.2461-.03516-.1367-.06055-.2344-.07618-.293-.01562-.0625-.04101-.1621-.07617-.2988-.03125-.1367-.05664-.2559-.07617-.3574-.01562-.1055-.03516-.2325-.05859-.3809-.02344-.1484-.04297-.2969-.0586-.4453 0-.0313.11719-.0684.35157-.1113.23437-.04301.42187-.06449.5625-.06449.07422 0 .11132.00781.11132.02344.13282.35155.33399.65625.60352.91405.2734.2539.5723.4434.8965.5684.3242.1211.6562.1816.9961.1816.2656 0 .5078-.0508.7265-.1523.2227-.1055.4024-.2442.5391-.416.1406-.1719.248-.3633.3223-.5743.0781-.2109.1172-.4277.1172-.65036 0-.29687-.0606-.56836-.1817-.81445-.1211-.25-.3164-.45703-.5859-.6211-.2696-.16797-.5899-.25195-.961-.25195-.2695 0-.6757.06836-1.2187.20508-.53907.13281-.95118.19922-1.23634.19922-.24218 0-.48437-.02539-.72656-.07617-.05078-.01172-.07617-.25-.07617-.71485v-3.09961c0-.19531.02539-.38476.07617-.56836.05078-.18359.12891-.30664.23438-.36914.66406.03125 1.39262.04688 2.18552.04688.375 0 .7696-.00586 1.1836-.01758.4141-.01563.793-.03125 1.1367-.04688.3438-.01562.5625-.02539.6563-.02929.039.04687.1055.35547.1992.92578.0938.57031.1406.91211.1406 1.02539 0 .01172-.0097.0293-.0293.05273-.0156.02344-.0468.05078-.0937.08204-.043.02734-.0977.05273-.1641.07617-.0625.02343-.1484.04492-.2578.06445-.1055.01562-.2227.02344-.3516.02344-.0195-.05078-.0468-.1211-.082-.21094-.0351-.08984-.0625-.1582-.082-.20508-.0195-.04687-.0488-.10742-.0879-.18164s-.0781-.13086-.1172-.16992c-.0391-.04297-.0937-.08789-.1641-.13477-.0664-.05078-.1406-.08789-.2226-.11132-.0781-.02735-.1758-.04883-.293-.06446-.1133-.01953-.2402-.02929-.3808-.02929-.2969 0-.5997.00195-.9082.00586-.3086 0-.6895 0-1.14262 0-.05469 0-.08204.04687-.08204.14062z" fill="#000"/></svg>