<svg fill="none" height="88" viewBox="0 0 303 88" width="303" xmlns="http://www.w3.org/2000/svg"><path d="m9.408 73.5042v10.031h-1.358v-4.564h-5.411v4.564h-1.358v-10.031h1.358v4.473h5.411v-4.473zm7.3934 6.412v-4.137c0-.1214.0047-.2544.014-.399.0093-.1447.0233-.2917.042-.441l-3.654 4.977zm2.611 0v.714c0 .0746-.0233.1376-.07.189-.042.0513-.1097.077-.203.077h-1.246v2.639h-1.092v-2.639h-4.452c-.0933 0-.175-.0257-.245-.077-.0653-.056-.1073-.1237-.126-.203l-.126-.637 4.879-6.475h1.162v6.412z" fill="#000"/><path d="m60.972 82.3942v1.141h-5.691v-10.031h1.351v8.89zm6.0494-2.051c-.574.0186-1.064.0653-1.47.14-.4013.07-.7303.1633-.987.28-.252.1166-.4363.2543-.553.413-.112.1586-.168.336-.168.532 0 .1866.0303.3476.091.483.0607.1353.1423.2473.245.336.1073.084.231.147.371.189.1447.0373.2987.056.462.056.2193 0 .42-.021.602-.063.182-.0467.3523-.112.511-.196.1633-.084.3173-.1844.462-.301.1493-.1167.294-.2497.434-.399zm-4.025-2.898c.392-.378.8143-.6604 1.267-.847.4527-.1867.9543-.28 1.505-.28.3967 0 .749.0653 1.057.196.308.1306.567.3126.777.546.21.2333.3687.5156.476.847.1073.3313.161.6953.161 1.092v4.536h-.553c-.1213 0-.2147-.0187-.28-.056-.0653-.042-.1167-.1214-.154-.238l-.14-.672c-.1867.1726-.3687.3266-.546.462-.1773.1306-.364.2426-.56.336-.196.0886-.406.1563-.63.203-.2193.0513-.4643.077-.735.077-.2753 0-.5343-.0374-.777-.112-.2427-.0794-.455-.196-.637-.35-.1773-.154-.3197-.3477-.427-.581-.1027-.238-.154-.518-.154-.84 0-.28.077-.5484.231-.805.154-.2614.4037-.4924.749-.693.3453-.2007.7957-.364 1.351-.49.5553-.1307 1.2367-.2054 2.044-.224v-.553c0-.5507-.119-.966-.357-1.246-.238-.2847-.5857-.427-1.043-.427-.308 0-.567.0396-.777.119-.2053.0746-.385.161-.539.259-.1493.0933-.28.1796-.392.259-.1073.0746-.2147.112-.322.112-.084 0-.1563-.021-.217-.063-.0607-.0467-.112-.1027-.154-.168zm10.2223 6.202c-.56 0-.9917-.1564-1.295-.469-.2987-.3127-.448-.763-.448-1.351v-4.34h-.854c-.0747 0-.1377-.021-.189-.063-.0513-.0467-.077-.1167-.077-.21v-.497l1.162-.147.287-2.191c.014-.07.0443-.126.091-.168.0513-.0467.1167-.07.196-.07h.63v2.443h2.051v.903h-2.051v4.256c0 .2986.0723.5203.217.665.1447.1446.3313.217.56.217.1307 0 .2427-.0164.336-.049.098-.0374.182-.077.252-.119s.1283-.0794.175-.112c.0513-.0374.0957-.056.133-.056.0653 0 .1237.0396.175.119l.364.595c-.2147.2006-.4737.3593-.777.476-.3033.112-.616.168-.938.168zm6.7886-7.315c.518 0 .9846.0863 1.4.259.4153.1726.77.4176 1.064.735.294.3173.518.7023.672 1.155.1586.448.238.9496.238 1.505 0 .56-.0794 1.064-.238 1.512-.154.448-.378.8306-.672 1.148-.294.3173-.6487.5623-1.064.735-.4154.168-.882.252-1.4.252-.5227 0-.994-.084-1.414-.252-.4154-.1727-.77-.4177-1.064-.735-.294-.3174-.5204-.7-.679-1.148-.154-.448-.231-.952-.231-1.512 0-.5554.077-1.057.231-1.505.1586-.4527.385-.8377.679-1.155.294-.3174.6486-.5624 1.064-.735.42-.1727.8913-.259 1.414-.259zm0 6.328c.7 0 1.2226-.2334 1.568-.7.3453-.4714.518-1.127.518-1.967 0-.8447-.1727-1.5027-.518-1.974-.3454-.4714-.868-.707-1.568-.707-.3547 0-.665.0606-.931.182-.2614.1213-.4807.2963-.658.525-.1727.2286-.3034.511-.392.847-.084.3313-.126.707-.126 1.127 0 .84.1726 1.4956.518 1.967.35.4666.8796.7 1.589.7zm25.7707-.077v.952h-5.376v-.952h2.149v-6.839c0-.2054.007-.413.021-.623l-1.785 1.533c-.06.0513-.121.084-.182.098-.06.0093-.116.0093-.168 0-.051-.0094-.1-.028-.147-.056-.042-.028-.074-.0584-.098-.091l-.3917-.539 2.9887-2.583h1.015v9.1zm7.105-2.667v-4.137c0-.1214.005-.2544.014-.399.01-.1447.024-.2917.042-.441l-3.654 4.977zm2.611 0v.714c0 .0746-.023.1376-.07.189-.042.0513-.109.077-.203.077h-1.246v2.639h-1.092v-2.639h-4.452c-.093 0-.175-.0257-.245-.077-.065-.056-.107-.1237-.126-.203l-.126-.637 4.879-6.475h1.162v6.412zm3.641 1.911c.228.308.478.525.749.651.27.126.574.189.91.189.662 0 1.171-.2357 1.526-.707.354-.4714.532-1.1434.532-2.016 0-.462-.042-.8587-.126-1.19-.08-.3314-.196-.602-.35-.812-.154-.2147-.343-.371-.567-.469s-.479-.147-.763-.147c-.406 0-.763.0933-1.071.28-.304.1866-.584.4503-.84.791zm-.063-4.284c.298-.3687.644-.665 1.036-.889s.84-.336 1.344-.336c.41 0 .781.0793 1.113.238.331.154.613.385.847.693.233.3033.413.6813.539 1.134.126.4526.189.973.189 1.561 0 .5226-.07 1.0103-.21 1.463-.14.448-.343.8376-.609 1.169-.262.3266-.584.5856-.966.777-.378.1866-.805.28-1.281.28-.434 0-.808-.0724-1.12-.217-.308-.1494-.581-.3547-.819-.616v3.136h-1.253v-9.492h.749c.177 0 .287.0863.329.259zm13.208 5.992h-1.197c-.103 0-.185-.0257-.245-.077-.056-.056-.103-.1167-.14-.182l-1.785-2.779c-.019.0653-.04.1306-.063.196-.019.0606-.047.1166-.084.168l-1.652 2.415c-.047.0653-.098.126-.154.182-.052.0513-.124.077-.217.077h-1.113l2.485-3.64-2.387-3.451h1.197c.102 0 .177.0163.224.049.046.0326.088.0793.126.14l1.743 2.66c.037-.1354.095-.266.175-.392l1.526-2.24c.042-.0654.086-.1167.133-.154.051-.042.112-.063.182-.063h1.148l-2.387 3.388zm18.899-5.173c.392 0 .737-.0467 1.036-.14.303-.098.555-.2334.756-.406.205-.1774.359-.3874.462-.63.103-.2427.154-.511.154-.805 0-.5974-.196-1.0477-.588-1.351-.392-.3034-.98-.455-1.764-.455h-1.484v3.787zm4.634 5.173h-1.204c-.247 0-.429-.0957-.546-.287l-2.604-3.584c-.079-.112-.166-.1914-.259-.238-.089-.0514-.229-.077-.42-.077h-1.029v4.186h-1.351v-10.031h2.835c.635 0 1.183.0653 1.645.196.462.126.842.3103 1.141.553.303.2426.527.5366.672.882.145.3406.217.7233.217 1.148 0 .3546-.056.686-.168.994s-.275.5856-.49.833c-.21.2426-.469.4503-.777.623-.303.1726-.649.3033-1.036.392.173.098.322.2403.448.427zm6.365-4.319c0-.2894-.042-.553-.126-.791-.079-.2427-.198-.4504-.357-.623-.154-.1774-.343-.3127-.567-.406-.224-.098-.478-.147-.763-.147-.597 0-1.071.175-1.421.525-.345.3453-.56.826-.644 1.442zm1.008 3.325c-.154.1866-.338.35-.553.49-.214.1353-.445.2473-.693.336-.242.0886-.494.154-.756.196-.261.0466-.52.07-.777.07-.49 0-.942-.0817-1.358-.245-.41-.168-.767-.4107-1.071-.728-.298-.322-.532-.7187-.7-1.19-.168-.4714-.252-1.0127-.252-1.624 0-.4947.075-.9567.224-1.386.154-.4294.374-.8004.658-1.113.285-.3174.633-.5647 1.043-.742.411-.182.873-.273 1.386-.273.425 0 .817.0723 1.176.217.364.14.677.3453.938.616.266.266.474.5973.623.994.15.392.224.84.224 1.344 0 .196-.021.3266-.063.392-.042.0653-.121.098-.238.098h-4.739c.014.448.075.8376.182 1.169.112.3313.266.609.462.833.196.2193.43.385.7.497.271.1073.574.161.91.161.313 0 .581-.035.805-.105.229-.0747.425-.154.588-.238.164-.084.299-.161.406-.231.112-.0747.208-.112.287-.112.103 0 .182.0396.238.119zm5.114-2.471c.252 0 .473-.035.665-.105.191-.07.352-.168.483-.294.13-.126.228-.2754.294-.448.065-.1774.098-.371.098-.581 0-.434-.133-.7794-.399-1.036-.262-.2567-.642-.385-1.141-.385-.504 0-.889.1283-1.155.385-.262.2566-.392.602-.392 1.036 0 .21.032.4036.098.581.07.1726.17.322.301.448.13.126.291.224.483.294.191.07.413.105.665.105zm2.247 3.85c0-.1727-.049-.3127-.147-.42-.098-.1074-.231-.1914-.399-.252-.164-.0607-.355-.1027-.574-.126-.22-.028-.453-.049-.7-.063-.243-.014-.49-.028-.742-.042s-.495-.0374-.728-.07c-.262.1213-.476.2753-.644.462-.164.182-.245.3966-.245.644 0 .1586.039.3056.119.441.084.14.21.259.378.357.168.1026.378.182.63.238.256.0606.557.091.903.091.336 0 .637-.0304.903-.091.266-.0607.49-.147.672-.259.186-.112.329-.245.427-.399s.147-.3244.147-.511zm1.267-7.196v.462c0 .154-.098.252-.294.294l-.805.105c.158.308.238.6486.238 1.022 0 .3453-.068.6603-.203.945-.131.28-.313.5203-.546.721-.234.2006-.514.3546-.84.462-.327.1073-.682.161-1.064.161-.332 0-.644-.0397-.938-.119-.15.0933-.264.1936-.343.301-.08.1026-.119.2076-.119.315 0 .168.067.2963.203.385.14.084.322.1446.546.182.224.0373.478.0606.763.07.289.0093.583.0256.882.049.303.0186.597.0536.882.105.289.0513.546.1353.77.252.224.1166.403.2776.539.483.14.2053.21.4713.21.798 0 .3033-.077.5973-.231.882-.15.2846-.367.5366-.651.756-.285.224-.635.4013-1.05.532-.411.1353-.875.203-1.393.203s-.971-.0514-1.358-.154c-.388-.1027-.71-.2404-.966-.413-.257-.1727-.451-.3734-.581-.602-.126-.224-.189-.4597-.189-.707 0-.35.109-.6464.329-.889.219-.2427.52-.4364.903-.581-.21-.0934-.378-.217-.504-.371-.122-.1587-.182-.371-.182-.637 0-.1027.018-.2077.056-.315.037-.112.093-.2217.168-.329.079-.112.175-.217.287-.315s.242-.1844.392-.259c-.35-.196-.623-.455-.819-.777-.196-.3267-.294-.7047-.294-1.134 0-.3454.065-.658.196-.938.135-.2847.322-.525.56-.721.238-.2007.52-.3547.847-.462.331-.1074.693-.161 1.085-.161.308 0 .595.035.861.105.266.0653.508.1633.728.294zm8.119-.28v7.091h-.742c-.177 0-.289-.0864-.336-.259l-.098-.763c-.308.3406-.653.616-1.036.826-.382.2053-.821.308-1.316.308-.387 0-.73-.063-1.029-.189-.294-.1307-.541-.3127-.742-.546-.2-.2334-.352-.5157-.455-.847-.098-.3314-.147-.6977-.147-1.099v-4.522h1.246v4.522c0 .5366.122.952.364 1.246.248.294.623.441 1.127.441.369 0 .712-.0864 1.029-.259.322-.1774.619-.42.889-.728v-5.222zm4.264-3.22v10.311h-1.246v-10.311zm6.863 7.119c-.574.0186-1.064.0653-1.47.14-.401.07-.73.1633-.987.28-.252.1166-.436.2543-.553.413-.112.1586-.168.336-.168.532 0 .1866.031.3476.091.483.061.1353.143.2473.245.336.108.084.231.147.371.189.145.0373.299.056.462.056.22 0 .42-.021.602-.063.182-.0467.353-.112.511-.196.164-.084.318-.1844.462-.301.15-.1167.294-.2497.434-.399zm-4.025-2.898c.392-.378.815-.6604 1.267-.847.453-.1867.955-.28 1.505-.28.397 0 .749.0653 1.057.196.308.1306.567.3126.777.546.21.2333.369.5156.476.847.108.3313.161.6953.161 1.092v4.536h-.553c-.121 0-.214-.0187-.28-.056-.065-.042-.116-.1214-.154-.238l-.14-.672c-.186.1726-.368.3266-.546.462-.177.1306-.364.2426-.56.336-.196.0886-.406.1563-.63.203-.219.0513-.464.077-.735.077-.275 0-.534-.0374-.777-.112-.242-.0794-.455-.196-.637-.35-.177-.154-.319-.3477-.427-.581-.102-.238-.154-.518-.154-.84 0-.28.077-.5484.231-.805.154-.2614.404-.4924.749-.693.346-.2007.796-.364 1.351-.49.556-.1307 1.237-.2054 2.044-.224v-.553c0-.5507-.119-.966-.357-1.246-.238-.2847-.585-.427-1.043-.427-.308 0-.567.0396-.777.119-.205.0746-.385.161-.539.259-.149.0933-.28.1796-.392.259-.107.0746-.214.112-.322.112-.084 0-.156-.021-.217-.063-.06-.0467-.112-.1027-.154-.168zm9.324.42c.224-.4854.5-.8634.826-1.134.327-.2754.726-.413 1.197-.413.15 0 .292.0163.427.049.14.0326.264.084.371.154l-.091.931c-.028.1166-.098.175-.21.175-.065 0-.161-.014-.287-.042s-.268-.042-.427-.042c-.224 0-.424.0326-.602.098-.172.0653-.329.1633-.469.294-.135.126-.259.2846-.371.476-.107.1866-.205.4013-.294.644v4.48h-1.253v-7.091h.714c.136 0 .229.0256.28.077.052.0513.087.14.105.266zm20.24.035h.511c.177 0 .319-.021.427-.063.107-.0467.205-.1237.294-.231l3.339-3.78c.093-.1214.191-.2054.294-.252.102-.0467.228-.07.378-.07h1.148l-3.822 4.319c-.094.112-.185.2053-.273.28-.084.07-.175.1283-.273.175.126.042.24.105.343.189.102.0793.203.1843.301.315l3.99 4.753h-1.176c-.089 0-.166-.0047-.231-.014-.061-.014-.115-.0327-.161-.056-.047-.028-.089-.0584-.126-.091-.033-.0374-.066-.0794-.098-.126l-3.458-3.983c-.094-.1167-.194-.1984-.301-.245-.108-.0514-.271-.077-.49-.077h-.616v4.592h-1.351v-10.031h1.351zm12.837 1.316c0-.2894-.042-.553-.126-.791-.079-.2427-.198-.4504-.357-.623-.154-.1774-.343-.3127-.567-.406-.224-.098-.478-.147-.763-.147-.597 0-1.071.175-1.421.525-.345.3453-.56.826-.644 1.442zm1.008 3.325c-.154.1866-.338.35-.553.49-.215.1353-.446.2473-.693.336-.243.0886-.495.154-.756.196-.261.0466-.52.07-.777.07-.49 0-.943-.0817-1.358-.245-.411-.168-.768-.4107-1.071-.728-.299-.322-.532-.7187-.7-1.19-.168-.4714-.252-1.0127-.252-1.624 0-.4947.075-.9567.224-1.386.154-.4294.373-.8004.658-1.113.285-.3174.632-.5647 1.043-.742.411-.182.873-.273 1.386-.273.425 0 .817.0723 1.176.217.364.14.677.3453.938.616.266.266.474.5973.623.994.149.392.224.84.224 1.344 0 .196-.021.3266-.063.392-.042.0653-.121.098-.238.098h-4.739c.014.448.075.8376.182 1.169.112.3313.266.609.462.833.196.2193.429.385.7.497.271.1073.574.161.91.161.313 0 .581-.035.805-.105.229-.0747.425-.154.588-.238s.299-.161.406-.231c.112-.0747.208-.112.287-.112.103 0 .182.0396.238.119zm3.826-4.676c.224-.4854.499-.8634.826-1.134.326-.2754.725-.413 1.197-.413.149 0 .291.0163.427.049.14.0326.263.084.371.154l-.091.931c-.028.1166-.098.175-.21.175-.066 0-.161-.014-.287-.042s-.269-.042-.427-.042c-.224 0-.425.0326-.602.098-.173.0653-.329.1633-.469.294-.136.126-.259.2846-.371.476-.108.1866-.206.4013-.294.644v4.48h-1.253v-7.091h.714c.135 0 .228.0256.28.077.051.0513.086.14.105.266zm6.092-.392c.154-.1727.318-.329.49-.469.173-.14.355-.259.546-.357.196-.1027.402-.1797.616-.231.22-.056.455-.084.707-.084.388 0 .728.0653 1.022.196.299.126.546.308.742.546.201.2333.353.5156.455.847.103.3313.154.6976.154 1.099v4.515h-1.253v-4.515c0-.5367-.123-.952-.371-1.246-.242-.2987-.613-.448-1.113-.448-.368 0-.714.0886-1.036.266-.317.1773-.611.4176-.882.721v5.222h-1.253v-7.091h.749c.178 0 .287.0863.329.259zm8.947-1.029v7.091h-1.246v-7.091zm.266-2.226c0 .1213-.026.2356-.077.343-.047.1026-.112.196-.196.28-.079.0793-.175.1423-.287.189-.107.0466-.222.07-.343.07s-.236-.0234-.343-.07c-.103-.0467-.194-.1097-.273-.189-.079-.084-.142-.1774-.189-.28-.047-.1074-.07-.2217-.07-.343 0-.1214.023-.2357.07-.343.047-.112.11-.2077.189-.287.079-.084.17-.1494.273-.196.107-.0467.222-.07.343-.07s.236.0233.343.07c.112.0466.208.112.287.196.084.0793.149.175.196.287.051.1073.077.2216.077.343zm3.957 3.255c.154-.1727.317-.329.49-.469s.355-.259.546-.357c.196-.1027.401-.1797.616-.231.219-.056.455-.084.707-.084.387 0 .728.0653 1.022.196.299.126.546.308.742.546.201.2333.352.5156.455.847.103.3313.154.6976.154 1.099v4.515h-1.253v-4.515c0-.5367-.124-.952-.371-1.246-.243-.2987-.614-.448-1.113-.448-.369 0-.714.0886-1.036.266-.317.1773-.611.4176-.882.721v5.222h-1.253v-7.091h.749c.177 0 .287.0863.329.259zm10.102 2.597c.252 0 .473-.035.665-.105.191-.07.352-.168.483-.294.13-.126.228-.2754.294-.448.065-.1774.098-.371.098-.581 0-.434-.133-.7794-.399-1.036-.262-.2567-.642-.385-1.141-.385-.504 0-.889.1283-1.155.385-.262.2566-.392.602-.392 1.036 0 .21.032.4036.098.581.07.1726.17.322.301.448.13.126.291.224.483.294.191.07.413.105.665.105zm2.247 3.85c0-.1727-.049-.3127-.147-.42-.098-.1074-.231-.1914-.399-.252-.164-.0607-.355-.1027-.574-.126-.22-.028-.453-.049-.7-.063-.243-.014-.49-.028-.742-.042s-.495-.0374-.728-.07c-.262.1213-.476.2753-.644.462-.164.182-.245.3966-.245.644 0 .1586.039.3056.119.441.084.14.21.259.378.357.168.1026.378.182.63.238.256.0606.557.091.903.091.336 0 .637-.0304.903-.091.266-.0607.49-.147.672-.259.186-.112.329-.245.427-.399s.147-.3244.147-.511zm1.267-7.196v.462c0 .154-.098.252-.294.294l-.805.105c.158.308.238.6486.238 1.022 0 .3453-.068.6603-.203.945-.131.28-.313.5203-.546.721-.234.2006-.514.3546-.84.462-.327.1073-.682.161-1.064.161-.332 0-.644-.0397-.938-.119-.15.0933-.264.1936-.343.301-.08.1026-.119.2076-.119.315 0 .168.067.2963.203.385.14.084.322.1446.546.182.224.0373.478.0606.763.07.289.0093.583.0256.882.049.303.0186.597.0536.882.105.289.0513.546.1353.77.252.224.1166.403.2776.539.483.14.2053.21.4713.21.798 0 .3033-.077.5973-.231.882-.15.2846-.367.5366-.651.756-.285.224-.635.4013-1.05.532-.411.1353-.875.203-1.393.203s-.971-.0514-1.358-.154c-.388-.1027-.71-.2404-.966-.413-.257-.1727-.451-.3734-.581-.602-.126-.224-.189-.4597-.189-.707 0-.35.109-.6464.329-.889.219-.2427.52-.4364.903-.581-.21-.0934-.378-.217-.504-.371-.122-.1587-.182-.371-.182-.637 0-.1027.018-.2077.056-.315.037-.112.093-.2217.168-.329.079-.112.175-.217.287-.315s.242-.1844.392-.259c-.35-.196-.623-.455-.819-.777-.196-.3267-.294-.7047-.294-1.134 0-.3454.065-.658.196-.938.135-.2847.322-.525.56-.721.238-.2007.52-.3547.847-.462.331-.1074.693-.161 1.085-.161.308 0 .595.035.861.105.266.0653.508.1633.728.294zm13.009 5.859v.952h-5.376v-.952h2.149v-6.839c0-.2054.007-.413.021-.623l-1.785 1.533c-.06.0513-.121.084-.182.098-.06.0093-.116.0093-.168 0-.051-.0094-.1-.028-.147-.056-.042-.028-.074-.0584-.098-.091l-.392-.539 2.989-2.583h1.015v9.1zm4.235-.756c.229.308.479.525.749.651.271.126.574.189.91.189.663 0 1.172-.2357 1.526-.707.355-.4714.532-1.1434.532-2.016 0-.462-.042-.8587-.126-1.19-.079-.3314-.196-.602-.35-.812-.154-.2147-.343-.371-.567-.469s-.478-.147-.763-.147c-.406 0-.763.0933-1.071.28-.303.1866-.583.4503-.84.791zm-.063-4.284c.299-.3687.644-.665 1.036-.889s.84-.336 1.344-.336c.411 0 .782.0793 1.113.238.332.154.614.385.847.693.234.3033.413.6813.539 1.134.126.4526.189.973.189 1.561 0 .5226-.07 1.0103-.21 1.463-.14.448-.343.8376-.609 1.169-.261.3266-.583.5856-.966.777-.378.1866-.805.28-1.281.28-.434 0-.807-.0724-1.12-.217-.308-.1494-.581-.3547-.819-.616v3.136h-1.253v-9.492h.749c.178 0 .287.0863.329.259zm13.209 5.992h-1.197c-.103 0-.185-.0257-.245-.077-.056-.056-.103-.1167-.14-.182l-1.785-2.779c-.019.0653-.04.1306-.063.196-.019.0606-.047.1166-.084.168l-1.652 2.415c-.047.0653-.098.126-.154.182-.052.0513-.124.077-.217.077h-1.113l2.485-3.64-2.387-3.451h1.197c.102 0 .177.0163.224.049.046.0326.088.0793.126.14l1.743 2.66c.037-.1354.095-.266.175-.392l1.526-2.24c.042-.0654.086-.1167.133-.154.051-.042.112-.063.182-.063h1.148l-2.387 3.388z" fill="#000"/><path d="m90.8236 72.8042h.973v13.174h-.973zm48.4664 0h.973v13.174h-.973zm66.848 0h.973v13.174h-.973z" fill="#7c4663"/><path d="m62.104 14.048v1.952h-6.888v-11.608h2.4v9.656zm8.5994-2.456-1.256-3.552c-.0747-.18667-.1547-.40533-.24-.656-.08-.25067-.1574-.52267-.232-.816-.0747.29867-.1547.576-.24.832-.08.25067-.1574.46933-.232.656l-1.248 3.536zm4.032 4.408h-1.864c-.208 0-.3787-.048-.512-.144-.128-.1013-.224-.2293-.288-.384l-.784-2.216h-4.624l-.784 2.216c-.0534.1333-.1467.256-.28.368-.1334.1067-.3014.16-.504.16h-1.88l4.536-11.608h2.456zm9.1497-9.672h-3.392v9.672h-2.408v-9.672h-3.392v-1.936h9.192zm13.3125 3.864c0 .848-.144 1.6347-.432 2.36-.2826.7253-.6853 1.352-1.208 1.88-.5173.528-1.1413.944-1.872 1.248-.7306.2987-1.5413.448-2.432.448-.8906 0-1.7013-.1493-2.432-.448-.7306-.304-1.3573-.72-1.88-1.248-.5226-.528-.928-1.1547-1.216-1.88-.2826-.7253-.424-1.512-.424-2.36s.1414-1.632.424-2.352c.288-.72533.6934-1.352 1.216-1.88.5227-.528 1.1494-.94133 1.88-1.24.7307-.304 1.5414-.456 2.432-.456.8907 0 1.7014.152 2.432.456.7307.29867 1.3547.71467 1.872 1.248.5227.528.9254 1.15467 1.208 1.88.288.72.432 1.50133.432 2.344zm-2.456 0c0-.608-.08-1.152-.24-1.632-.16-.48533-.392-.896-.696-1.232-.2986-.34133-.664-.6-1.096-.776-.4266-.18133-.912-.272-1.456-.272s-1.032.09067-1.464.272c-.432.176-.8.43467-1.104.776-.2986.336-.528.74667-.688 1.232-.16.48-.24 1.024-.24 1.632 0 .6133.08 1.1627.24 1.648.16.48.3894.888.688 1.224.304.336.672.5947 1.104.776.432.176.92.264 1.464.264s1.0294-.088 1.456-.264c.432-.1813.7974-.44 1.096-.776.304-.336.536-.744.696-1.224.16-.4853.24-1.0347.24-1.648zm27.1574 4.184v1.624h-6.512v-1.624h2.304v-6.352c0-.13867.002-.28.008-.424.005-.144.013-.29067.024-.44l-1.52 1.264c-.107.08-.211.13067-.312.152-.102.02133-.198.024-.288.008-.091-.02133-.171-.05333-.24-.096-.07-.048-.123-.096-.16-.144l-.696-.936 3.568-3.024h1.816v9.992zm6.281-5.816-.352.424c.202-.09067.421-.16.656-.208.234-.048.488-.072.76-.072.432 0 .853.072 1.264.216.41.144.776.36 1.096.648s.576.6507.768 1.088c.197.432.296.9413.296 1.528 0 .5387-.102 1.048-.304 1.528-.198.48-.48.8987-.848 1.256-.363.3573-.8.64-1.312.848-.507.208-1.072.312-1.696.312-.635 0-1.203-.0987-1.704-.296-.502-.2027-.928-.4853-1.28-.848s-.622-.7947-.808-1.296c-.187-.5067-.28-1.064-.28-1.672 0-.56.109-1.128.328-1.704.224-.576.562-1.168 1.016-1.776l2.696-3.632c.106-.13867.264-.25867.472-.36s.445-.152.712-.152h1.96zm.288 5.792c.288 0 .554-.0507.8-.152.245-.1013.456-.2427.632-.424s.314-.392.416-.632c.101-.2453.152-.512.152-.8 0-.3147-.048-.5973-.144-.848s-.232-.4613-.408-.632c-.176-.176-.387-.3093-.632-.4-.246-.0907-.518-.136-.816-.136-.283 0-.542.0507-.776.152-.235.096-.438.2347-.608.416-.166.176-.296.3867-.392.632-.091.2453-.136.5147-.136.808 0 .304.04.5813.12.832.08.2453.2.456.36.632s.357.312.592.408c.24.096.52.144.84.144zm10.793-4.184c.752 0 1.301-.18133 1.648-.544.352-.36267.528-.85867.528-1.488 0-.288-.045-.54933-.136-.784-.085-.24-.219-.44267-.4-.608-.176-.17067-.4-.30133-.672-.392s-.595-.136-.968-.136h-1.52v3.952zm0-5.776c.795 0 1.48.09333 2.056.28.581.18667 1.059.448 1.432.784.373.33067.648.72533.824 1.184.181.45867.272.95733.272 1.496 0 .57067-.093 1.09333-.28 1.568-.187.4747-.469.8827-.848 1.224s-.856.608-1.432.8c-.576.1867-1.251.28-2.024.28h-1.52v3.992h-2.4v-11.608zm16.596 11.608h-2.4c-.16 0-.291-.04-.392-.12-.096-.08-.174-.1733-.232-.28l-2.512-4.272c-.027.0587-.054.1173-.08.176-.022.0533-.048.104-.08.152l-2.384 3.944c-.07.1013-.152.1947-.248.28-.091.08-.208.12-.352.12h-2.24l3.8-5.976-3.656-5.632h2.4c.16 0 .277.02133.352.064.074.04267.141.112.2.208l2.496 4.104c.026-.064.056-.128.088-.192.032-.06933.069-.13867.112-.208l2.24-3.664c.064-.10667.133-.184.208-.232.08-.05333.176-.08.288-.08h2.296l-3.688 5.528zm20.663-6.112c.389 0 .725-.048 1.008-.144.283-.10133.515-.23733.696-.408.181-.176.315-.38133.4-.616s.128-.49067.128-.768c0-.54933-.184-.976-.552-1.28-.363-.304-.917-.456-1.664-.456h-1.248v3.672zm5.624 6.112h-2.168c-.405 0-.699-.1547-.88-.464l-2.208-3.56c-.091-.1387-.192-.24-.304-.304-.107-.064-.267-.096-.48-.096h-.816v4.424h-2.4v-11.608h3.648c.811 0 1.504.08533 2.08.256.576.16533 1.048.39733 1.416.696s.637.656.808 1.072c.171.41067.256.864.256 1.36 0 .384-.056.74933-.168 1.096-.107.34133-.264.65333-.472.936-.208.2827-.464.5333-.768.752s-.651.3947-1.04.528c.155.0853.299.1893.432.312.133.1173.253.2587.36.424zm4.551-9.728v2.984h3.872v1.816h-3.872v3.048h4.976v1.88h-7.392v-11.608h7.392v1.88zm13.185 3.816h3.984v4.792c-.592.432-1.224.7493-1.896.952-.667.1973-1.374.296-2.12.296-.955 0-1.819-.1467-2.592-.44-.774-.2987-1.435-.712-1.984-1.24-.55-.528-.974-1.1547-1.272-1.88-.299-.7253-.448-1.5173-.448-2.376 0-.86933.141-1.66667.424-2.392.288-.72533.696-1.34933 1.224-1.872s1.165-.93067 1.912-1.224c.752-.29333 1.592-.44 2.52-.44.48 0 .928.04 1.344.12.416.07467.8.18133 1.152.32.352.13333.674.29333.968.48.293.18667.56.392.8.616l-.696 1.072c-.107.17067-.246.27467-.416.312-.171.03733-.358-.00533-.56-.128-.192-.11733-.382-.22133-.568-.312-.182-.096-.376-.17867-.584-.248s-.435-.12267-.68-.16c-.246-.03733-.528-.056-.848-.056-.539 0-1.027.09333-1.464.28-.438.18667-.811.45067-1.12.792-.304.34133-.539.752-.704 1.232-.166.48-.248 1.016-.248 1.608 0 .64.09 1.2133.272 1.72.181.5013.437.9253.768 1.272.33.3467.725.6107 1.184.792.464.1813.978.272 1.544.272.384 0 .725-.0373 1.024-.112.304-.08.6-.1867.888-.32v-1.952h-1.312c-.155 0-.278-.04-.368-.12-.086-.0853-.128-.192-.128-.32zm11.697 3.992c.39 0 .739-.064 1.048-.192.31-.1333.571-.32.784-.56.214-.24.376-.5307.488-.872s.168-.7253.168-1.152v-6.912h2.4v6.912c0 .704-.114 1.352-.344 1.944-.224.5867-.546 1.0933-.968 1.52-.421.4267-.933.76-1.536 1-.602.24-1.282.36-2.04.36-.757 0-1.44-.12-2.048-.36-.602-.24-1.114-.5733-1.536-1-.421-.4267-.746-.9333-.976-1.52-.224-.592-.336-1.24-.336-1.944v-6.912h2.4v6.912c0 .4267.056.8107.168 1.152s.275.632.488.872c.214.24.475.4267.784.56.31.128.662.192 1.056.192zm15.058-.032v1.952h-6.888v-11.608h2.4v9.656zm8.6-2.456-1.256-3.552c-.075-.18667-.155-.40533-.24-.656-.08-.25067-.158-.52267-.232-.816-.075.29867-.155.576-.24.832-.08.25067-.158.46933-.232.656l-1.248 3.536zm4.032 4.408h-1.864c-.208 0-.379-.048-.512-.144-.128-.1013-.224-.2293-.288-.384l-.784-2.216h-4.624l-.784 2.216c-.054.1333-.147.256-.28.368-.134.1067-.302.16-.504.16h-1.88l4.536-11.608h2.456zm5.706-6.112c.389 0 .725-.048 1.008-.144.283-.10133.515-.23733.696-.408.181-.176.315-.38133.4-.616s.128-.49067.128-.768c0-.54933-.184-.976-.552-1.28-.363-.304-.917-.456-1.664-.456h-1.248v3.672zm5.624 6.112h-2.168c-.405 0-.699-.1547-.88-.464l-2.208-3.56c-.091-.1387-.192-.24-.304-.304-.107-.064-.267-.096-.48-.096h-.816v4.424h-2.4v-11.608h3.648c.811 0 1.504.08533 2.08.256.576.16533 1.048.39733 1.416.696s.637.656.808 1.072c.171.41067.256.864.256 1.36 0 .384-.056.74933-.168 1.096-.107.34133-.264.65333-.472.936-.208.2827-.464.5333-.768.752s-.651.3947-1.04.528c.155.0853.299.1893.432.312.133.1173.253.2587.36.424zm13.82-1.952v1.952h-6.888v-11.608h2.4v9.656zm8.599-2.456-1.256-3.552c-.075-.18667-.155-.40533-.24-.656-.08-.25067-.157-.52267-.232-.816-.075.29867-.155.576-.24.832-.08.25067-.157.46933-.232.656l-1.248 3.536zm4.032 4.408h-1.864c-.208 0-.379-.048-.512-.144-.128-.1013-.224-.2293-.288-.384l-.784-2.216h-4.624l-.784 2.216c-.053.1333-.147.256-.28.368-.133.1067-.301.16-.504.16h-1.88l4.536-11.608h2.456zm9.15-9.672h-3.392v9.672h-2.408v-9.672h-3.392v-1.936h9.192zm13.312 3.864c0 .848-.144 1.6347-.432 2.36-.283.7253-.685 1.352-1.208 1.88-.517.528-1.141.944-1.872 1.248-.731.2987-1.541.448-2.432.448s-1.701-.1493-2.432-.448c-.731-.304-1.357-.72-1.88-1.248s-.928-1.1547-1.216-1.88c-.283-.7253-.424-1.512-.424-2.36s.141-1.632.424-2.352c.288-.72533.693-1.352 1.216-1.88s1.149-.94133 1.88-1.24c.731-.304 1.541-.456 2.432-.456s1.701.152 2.432.456c.731.29867 1.355.71467 1.872 1.248.523.528.925 1.15467 1.208 1.88.288.72.432 1.50133.432 2.344zm-2.456 0c0-.608-.08-1.152-.24-1.632-.16-.48533-.392-.896-.696-1.232-.299-.34133-.664-.6-1.096-.776-.427-.18133-.912-.272-1.456-.272s-1.032.09067-1.464.272c-.432.176-.8.43467-1.104.776-.299.336-.528.74667-.688 1.232-.16.48-.24 1.024-.24 1.632 0 .6133.08 1.1627.24 1.648.16.48.389.888.688 1.224.304.336.672.5947 1.104.776.432.176.92.264 1.464.264s1.029-.088 1.456-.264c.432-.1813.797-.44 1.096-.776.304-.336.536-.744.696-1.224.16-.4853.24-1.0347.24-1.648zm-237.382 22.968c.384 0 .6987-.0453.944-.136.2507-.096.4507-.2213.6-.376s.2533-.3307.312-.528c.0587-.2027.088-.4107.088-.624 0-.2347-.0347-.4453-.104-.632s-.1813-.344-.336-.472c-.1547-.1333-.3573-.2347-.608-.304-.2453-.0693-.5493-.104-.912-.104h-2.04v3.176zm-2.056-7.944v3.136h1.576c.336 0 .6347-.0267.896-.08.2613-.0587.48-.1493.656-.272s.3093-.2827.4-.48c.096-.2027.144-.4453.144-.728 0-.288-.04-.5333-.12-.736-.0747-.2027-.192-.3653-.352-.488s-.3627-.2107-.608-.264c-.2453-.0587-.536-.088-.872-.088zm1.72-1.824c.7787 0 1.4427.0747 1.992.224.5547.144 1.0053.352 1.352.624.352.2667.608.592.768.976s.24.8133.24 1.288c0 .2667-.04.5227-.12.768-.0747.2453-.1947.4773-.36.696-.16.2133-.368.408-.624.584s-.56.3253-.912.448c.7893.1867 1.3733.4907 1.752.912s.568.968.568 1.64c0 .4907-.096.9467-.288 1.368-.1867.4213-.4613.7867-.824 1.096s-.8107.552-1.344.728c-.528.1707-1.136.256-1.824.256h-4.496v-11.608zm14.3774 9.656v1.952h-6.888v-11.608h2.4v9.656zm8.5994-2.456-1.256-3.552c-.0747-.1867-.1547-.4053-.24-.656-.08-.2507-.1574-.5227-.232-.816-.0747.2987-.1547.576-.24.832-.08.2507-.1574.4693-.232.656l-1.248 3.536zm4.032 4.408h-1.864c-.208 0-.3787-.048-.512-.144-.128-.1013-.224-.2293-.288-.384l-.784-2.216h-4.624l-.784 2.216c-.0534.1333-.1467.256-.28.368-.1334.1067-.3014.16-.504.16h-1.8801l4.5361-11.608h2.456zm9.619-2.856c.1333 0 .2453.048.336.144l.952 1.016c-.4694.5973-1.0534 1.0507-1.752 1.36-.6934.3093-1.52.464-2.48.464-.8694 0-1.6507-.1467-2.344-.44-.6934-.2987-1.2827-.712-1.768-1.24-.4854-.528-.8587-1.1547-1.12-1.88-.2614-.7253-.392-1.5173-.392-2.376 0-.576.0613-1.1227.184-1.64.128-.5227.312-1.0027.552-1.44s.528-.832.864-1.184c.3413-.352.7253-.6507 1.152-.896.4266-.2507.8906-.44 1.392-.568.5066-.1333 1.0453-.2 1.616-.2.4266 0 .8293.0373 1.208.112.384.0747.7413.1787 1.072.312.3306.1333.6346.296.912.488.2826.1867.536.392.76.616l-.808 1.104c-.048.0693-.1094.1307-.184.184-.0747.0533-.176.08-.304.08s-.2587-.0453-.392-.136c-.128-.0907-.288-.192-.48-.304-.1867-.112-.424-.2133-.712-.304-.2827-.0907-.6427-.136-1.08-.136-.4854 0-.9307.088-1.336.264-.4054.176-.7547.432-1.048.768-.288.3307-.512.7387-.672 1.224s-.24 1.0373-.24 1.656c0 .624.0853 1.1813.256 1.672.176.4853.4133.896.712 1.232.304.336.656.592 1.056.768.4053.1707.8373.256 1.296.256.272 0 .5173-.0133.736-.04.224-.0267.4293-.072.616-.136.192-.064.3706-.1467.536-.248.1706-.1013.3413-.2293.512-.384.0586-.048.12-.088.184-.12s.1333-.048.208-.048zm6.0432-3.96h.472c.394 0 .68-.1227.856-.368l2.936-3.928c.138-.1867.29-.3147.456-.384.165-.0747.368-.112.608-.112h2.08l-3.696 4.76c-.24.3093-.488.5307-.744.664.186.0747.354.1733.504.296.149.1173.293.2747.432.472l3.792 5.416h-2.136c-.139 0-.259-.0107-.36-.032-.096-.0213-.182-.0507-.256-.088-.075-.0373-.139-.0827-.192-.136-.054-.0587-.104-.1253-.152-.2l-2.984-4.176c-.102-.144-.222-.2453-.36-.304-.139-.064-.334-.096-.584-.096h-.672v5.032h-2.4004v-11.608h2.4004zm21.642 5.192v1.624h-6.512v-1.624h2.304v-6.352c0-.1387.002-.28.008-.424.005-.144.013-.2907.024-.44l-1.52 1.264c-.107.08-.211.1307-.312.152-.102.0213-.198.024-.288.008-.091-.0213-.171-.0533-.24-.096-.07-.048-.123-.096-.16-.144l-.696-.936 3.568-3.024h1.816v9.992zm7.081-4.208c.752 0 1.301-.1813 1.648-.544.352-.3627.528-.8587.528-1.488 0-.288-.046-.5493-.136-.784-.086-.24-.219-.4427-.4-.608-.176-.1707-.4-.3013-.672-.392s-.595-.136-.968-.136h-1.52v3.952zm0-5.776c.794 0 1.48.0933 2.056.28.581.1867 1.058.448 1.432.784.373.3307.648.7253.824 1.184.181.4587.272.9573.272 1.496 0 .5707-.094 1.0933-.28 1.568-.187.4747-.47.8827-.848 1.224-.379.3413-.856.608-1.432.8-.576.1867-1.251.28-2.024.28h-1.52v3.992h-2.4v-11.608zm16.596 11.608h-2.4c-.16 0-.291-.04-.392-.12-.096-.08-.174-.1733-.232-.28l-2.512-4.272c-.027.0587-.054.1173-.08.176-.022.0533-.048.104-.08.152l-2.384 3.944c-.07.1013-.152.1947-.248.28-.091.08-.208.12-.352.12h-2.241l3.801-5.976-3.656-5.632h2.4c.16 0 .277.0213.352.064.074.0427.141.112.2.208l2.496 4.104c.026-.064.056-.128.088-.192.032-.0693.069-.1387.112-.208l2.24-3.664c.064-.1067.133-.184.208-.232.08-.0533.176-.08.288-.08h2.296l-3.688 5.528zm9.399-6.816h.472c.395 0 .68-.1227.856-.368l2.936-3.928c.139-.1867.291-.3147.456-.384.166-.0747.368-.112.608-.112h2.08l-3.696 4.76c-.24.3093-.488.5307-.744.664.187.0747.355.1733.504.296.15.1173.294.2747.432.472l3.792 5.416h-2.136c-.138 0-.258-.0107-.36-.032-.096-.0213-.181-.0507-.256-.088-.074-.0373-.138-.0827-.192-.136-.053-.0587-.104-.1253-.152-.2l-2.984-4.176c-.101-.144-.221-.2453-.36-.304-.138-.064-.333-.096-.584-.096h-.672v5.032h-2.4v-11.608h2.4zm12.141-2.912v2.984h3.872v1.816h-3.872v3.048h4.976v1.88h-7.392v-11.608h7.392v1.88zm11.404 3.616c.389 0 .725-.048 1.008-.144.283-.1013.515-.2373.696-.408.181-.176.315-.3813.4-.616s.128-.4907.128-.768c0-.5493-.184-.976-.552-1.28-.363-.304-.917-.456-1.664-.456h-1.248v3.672zm5.624 6.112h-2.168c-.405 0-.699-.1547-.88-.464l-2.208-3.56c-.091-.1387-.192-.24-.304-.304-.107-.064-.267-.096-.48-.096h-.816v4.424h-2.4v-11.608h3.648c.811 0 1.504.0853 2.08.256.576.1653 1.048.3973 1.416.696s.637.656.808 1.072c.171.4107.256.864.256 1.36 0 .384-.056.7493-.168 1.096-.107.3413-.264.6533-.472.936s-.464.5333-.768.752-.651.3947-1.04.528c.155.0853.299.1893.432.312.133.1173.253.2587.36.424zm12.079-11.608v11.608h-1.24c-.187 0-.344-.0293-.472-.088-.128-.064-.254-.1707-.376-.32l-5.784-7.36c.016.1867.026.3707.032.552.01.1813.016.3493.016.504v6.712h-2.12v-11.608h1.264c.101 0 .186.0053.256.016.074.0053.141.024.2.056.058.0267.114.064.168.112.053.048.112.112.176.192l5.824 7.392c-.022-.2027-.038-.3973-.048-.584-.011-.192-.017-.3733-.017-.544v-6.64zm5.847 11.608h-2.416v-11.608h2.416zm13.371-11.608v11.608h-1.24c-.186 0-.344-.0293-.472-.088-.128-.064-.253-.1707-.376-.32l-5.784-7.36c.016.1867.027.3707.032.552.011.1813.016.3493.016.504v6.712h-2.12v-11.608h1.264c.102 0 .187.0053.256.016.075.0053.142.024.2.056.059.0267.115.064.168.112.054.048.112.112.176.192l5.824 7.392c-.021-.2027-.037-.3973-.048-.584-.01-.192-.016-.3733-.016-.544v-6.64zm9.079 5.696h3.984v4.792c-.592.432-1.224.7493-1.896.952-.666.1973-1.373.296-2.12.296-.954 0-1.818-.1467-2.592-.44-.773-.2987-1.434-.712-1.984-1.24-.549-.528-.973-1.1547-1.272-1.88-.298-.7253-.448-1.5173-.448-2.376 0-.8693.142-1.6667.424-2.392.288-.7253.696-1.3493 1.224-1.872s1.166-.9307 1.912-1.224c.752-.2933 1.592-.44 2.52-.44.48 0 .928.04 1.344.12.416.0747.8.1813 1.152.32.352.1333.675.2933.968.48.294.1867.56.392.8.616l-.696 1.072c-.106.1707-.245.2747-.416.312-.17.0373-.357-.0053-.56-.128-.192-.1173-.381-.2213-.568-.312-.181-.096-.376-.1787-.584-.248s-.434-.1227-.68-.16c-.245-.0373-.528-.056-.848-.056-.538 0-1.026.0933-1.464.28-.437.1867-.81.4507-1.12.792-.304.3413-.538.752-.704 1.232-.165.48-.248 1.016-.248 1.608 0 .64.091 1.2133.272 1.72.182.5013.438.9253.768 1.272.331.3467.726.6107 1.184.792.464.1813.979.272 1.544.272.384 0 .726-.0373 1.024-.112.304-.08.6-.1867.888-.32v-1.952h-1.312c-.154 0-.277-.04-.368-.12-.085-.0853-.128-.192-.128-.32z" fill="#000"/><path d="m104.795 3.584h1.712v15.152h-1.712zm58.11 0h1.712v15.152h-1.712z" fill="#7c4663"/><path d="m1.10352 29.6426c-.175786-.1042-.305994-.3125-.390629-.625-.084636-.3125-.126953-.6348-.126953-.9668 0-.1563.107421-.2735.322265-.3516.214847-.0781.472007-.1172.771487-.1172.2539 0 .41992-.0521.49804-.1562.07813-.1107.11719-.2637.11719-.459v-9.4336c0-.1953-.03906-.345-.11719-.4492-.07812-.1107-.24414-.166-.49804-.166-.729169 0-1.093752-.1693-1.093752-.5078 0-.3191.042317-.6316.126953-.9375.084635-.3125.214843-.5176.390629-.6153 1.08072.0847 1.85872.127 2.33398.127.59245 0 1.39648-.0391 2.41211-.1172.14323.1042.2474.3125.3125.625.07161.3125.10742.638.10742.9766 0 .1562-.10742.2734-.32226.3515-.21485.0781-.47201.1172-.77149.1172-.14323 0-.26042.0195-.35156.0586-.09115.0325-.15625.0846-.19531.1562-.03256.0717-.05534.1368-.06836.1954-.00651.052-.00977.1269-.00977.2246v3.33c0 .1368.06185.2051.18555.2051h7.69527c.1237 0 .1856-.0683.1856-.2051v-3.3496c0-.1953-.0391-.345-.1172-.4492-.0781-.1107-.2441-.166-.498-.166-.2995 0-.5567-.0391-.7715-.1172-.2149-.0781-.3223-.1953-.3223-.3515 0-.3386.0423-.6641.127-.9766.0846-.3125.2148-.5208.3906-.625 1.0026.0781 1.7806.1172 2.334.1172.5924 0 1.3964-.0391 2.4121-.1172.1432.1042.2474.3125.3125.625.0716.3125.1074.638.1074.9766 0 .1562-.1074.2734-.3223.3515-.2148.0781-.472.1172-.7715.1172-.1432 0-.2604.0195-.3515.0586-.0912.0325-.1563.0846-.1953.1562-.0326.0717-.0554.1368-.0684.1954-.0065.052-.0098.1269-.0098.2246v9.375c0 .0976.0033.1757.0098.2343.013.0521.0358.114.0684.1856.039.0716.1041.1269.1953.166.0911.0326.2083.0488.3515.0488.2995 0 .5567.0391.7715.1172.2149.0781.3223.1953.3223.3516 0 .3385-.0358.664-.1074.9765-.0651.306-.1693.5111-.3125.6153-.931-.0716-1.7351-.1074-2.4121-.1074-.6381 0-1.416.0358-2.334.1074-.1758-.1042-.306-.3125-.3906-.625-.0847-.3125-.127-.6348-.127-.9668 0-.1563.1074-.2735.3223-.3516.2148-.0781.472-.1172.7715-.1172.2539 0 .4199-.0521.498-.1562.0781-.1107.1172-.2637.1172-.459v-4.1309c0-.1367-.0619-.205-.1856-.205h-7.69527c-.1237 0-.18555.0683-.18555.205v4.1114c0 .0976.00326.1757.00977.2343.01302.0521.0358.114.06836.1856.03906.0716.10416.1269.19531.166.09114.0326.20833.0488.35156.0488.29948 0 .55664.0391.77149.1172.21484.0781.32226.1953.32226.3516 0 .3385-.03581.664-.10742.9765-.0651.306-.16927.5111-.3125.6153-.93099-.0716-1.73503-.1074-2.41211-.1074-.63802 0-1.41602.0358-2.33398.1074zm21.94338-1.5235c.3125 0 .6217-.0325.9277-.0976.3125-.0716.6152-.1791.9082-.3223.293-.1497.5501-.3288.7715-.5371.2279-.2083.4102-.4622.5469-.7617.1367-.306.205-.638.205-.9961 0-.4167-.0553-.7845-.166-1.1035-.1041-.319-.2669-.5794-.4882-.7813-.2149-.2018-.4493-.3678-.7032-.498-.2474-.1302-.5534-.2246-.9179-.2832-.3581-.0651-.6934-.1074-1.0059-.127-.306-.0195-.6673-.0293-1.084-.0293-.2083 0-.5078.0098-.8984.0293-.3841.013-.6608.0196-.8301.0196-.0846-.0456-.127-.3711-.127-.9766 0-.4688.0814-.778.2442-.9277.1497.013.7161.0195 1.6992.0195 1.0221 0 1.8066-.2279 2.3535-.6836.5534-.4557.8301-.9928.8301-1.6113 0-.5599-.2246-1.045-.6738-1.4551-.4492-.4167-1.0547-.625-1.8164-.625-.3321 0-.6446.026-.9375.0781-.2865.0521-.5795.1465-.8789.2832-.2995.1302-.5632.2995-.7911.5078-.2278.2084-.4296.4851-.6054.8301-.1758.3386-.3028.7292-.3809 1.1719 0 .026-.0618.039-.1855.039-.2344 0-.5469-.0358-.9375-.1074-.3907-.0716-.586-.1334-.586-.1855.0261-.2474.0586-.4948.0977-.7422.039-.2474.0716-.4557.0976-.625.0326-.1758.0749-.3776.127-.6055.0586-.2278.1009-.3906.127-.4883.026-.1041.0683-.2669.1269-.4882.0586-.2279.0944-.3679.1074-.42l.0391-.1171c1.5885-.3711 3.1087-.5567 4.5605-.5567.6901 0 1.3151.0684 1.875.2051.5664.1302 1.0319.306 1.3965.5273.3711.2214.6804.4851.9278.7911.2539.2994.4329.6119.5371.9374.1106.3256.166.6609.166 1.0059 0 .6836-.2507 1.3119-.752 1.8848s-1.1523.9505-1.9531 1.1328c1.1523.1562 2.0833.5957 2.793 1.3183.7161.7227 1.0742 1.5691 1.0742 2.5391 0 .9831-.2474 1.8197-.7422 2.5098-.4883.6901-1.1426 1.1979-1.9629 1.5234-.8138.319-1.7513.4785-2.8125.4785-1.5364 0-3.1543-.1855-4.8535-.5566l-.0391-.1172c-.013-.0521-.0488-.1888-.1074-.4102-.0586-.2278-.1009-.3906-.1269-.4882-.0261-.1042-.0684-.2702-.127-.4981-.0521-.2278-.0944-.4264-.1269-.5957-.0261-.1758-.0586-.3874-.0977-.6348-.0391-.2473-.0716-.4947-.0977-.7421 0-.0521.1954-.114.586-.1856s.7031-.1074.9375-.1074c.1237 0 .1855.013.1855.0391.1302.5859.3809 1.0807.752 1.4843.3711.4037.7942.6934 1.2695.8692.4753.1757.9896.2636 1.543.2636z" fill="#000"/></svg>