<svg width="256" height="62" viewBox="0 0 256 62" fill="none" xmlns="http://www.w3.org/2000/svg">
<path d="M7.392 50.6537V58.5352H6.325V54.9492H2.0735V58.5352H1.0065V50.6537H2.0735V54.1682H6.325V50.6537H7.392ZM12.5794 57.8092C12.8434 57.8092 13.0817 57.767 13.2944 57.6827C13.5107 57.5983 13.6941 57.481 13.8444 57.3307C13.9984 57.1803 14.1157 57.0025 14.1964 56.7972C14.2807 56.5918 14.3229 56.3682 14.3229 56.1262C14.3229 55.8695 14.2826 55.6385 14.2019 55.4332C14.1212 55.2242 14.0057 55.0482 13.8554 54.9052C13.7087 54.7585 13.5327 54.6467 13.3274 54.5697C13.1221 54.4927 12.8966 54.4542 12.6509 54.4542C12.3869 54.4542 12.1486 54.5 11.9359 54.5917C11.7232 54.6797 11.5417 54.8007 11.3914 54.9547C11.2447 55.105 11.1311 55.281 11.0504 55.4827C10.9734 55.6807 10.9349 55.8878 10.9349 56.1042C10.9349 56.3572 10.9716 56.5882 11.0449 56.7972C11.1182 57.0062 11.2246 57.1858 11.3639 57.3362C11.5069 57.4865 11.6792 57.6038 11.8809 57.6882C12.0862 57.7688 12.3191 57.8092 12.5794 57.8092ZM12.0074 53.6072C11.9377 53.6952 11.8699 53.7813 11.8039 53.8657C11.7416 53.9463 11.6811 54.027 11.6224 54.1077C11.8094 53.9793 12.0147 53.8803 12.2384 53.8107C12.4621 53.741 12.7059 53.7062 12.9699 53.7062C13.2889 53.7062 13.5896 53.7593 13.8719 53.8657C14.1542 53.9683 14.3999 54.1205 14.6089 54.3222C14.8216 54.5202 14.9902 54.7658 15.1149 55.0592C15.2396 55.3488 15.3019 55.6807 15.3019 56.0547C15.3019 56.4177 15.2359 56.755 15.1039 57.0667C14.9719 57.3783 14.7867 57.6497 14.5484 57.8807C14.3137 58.1117 14.0296 58.2932 13.6959 58.4252C13.3659 58.5572 13.0011 58.6232 12.6014 58.6232C12.2054 58.6232 11.8461 58.5608 11.5234 58.4362C11.2007 58.3078 10.9257 58.1282 10.6984 57.8972C10.4747 57.6625 10.3006 57.3802 10.1759 57.0502C10.0549 56.7165 9.99439 56.3443 9.99439 55.9337C9.99439 55.589 10.0696 55.2223 10.2199 54.8337C10.3739 54.4413 10.6177 54.0233 10.9514 53.5797L12.9534 50.8902C13.0047 50.8242 13.0744 50.7692 13.1624 50.7252C13.2541 50.6775 13.3586 50.6537 13.4759 50.6537H14.3449L12.0074 53.6072Z" fill="black"/>
<path d="M59.478 57.6387V58.5352H55.0065V50.6537H56.068V57.6387H59.478ZM64.4454 56.0272C63.9944 56.0418 63.6094 56.0785 63.2904 56.1372C62.9751 56.1922 62.7166 56.2655 62.5149 56.3572C62.3169 56.4488 62.1721 56.557 62.0804 56.6817C61.9924 56.8063 61.9484 56.9457 61.9484 57.0997C61.9484 57.2463 61.9722 57.3728 62.0199 57.4792C62.0676 57.5855 62.1317 57.6735 62.2124 57.7432C62.2967 57.8092 62.3939 57.8587 62.5039 57.8917C62.6176 57.921 62.7386 57.9357 62.8669 57.9357C63.0392 57.9357 63.1969 57.9192 63.3399 57.8862C63.4829 57.8495 63.6167 57.7982 63.7414 57.7322C63.8697 57.6662 63.9907 57.5873 64.1044 57.4957C64.2217 57.404 64.3354 57.2995 64.4454 57.1822V56.0272ZM61.2829 53.7502C61.5909 53.4532 61.9227 53.2313 62.2784 53.0847C62.6341 52.938 63.0282 52.8647 63.4609 52.8647C63.7726 52.8647 64.0494 52.916 64.2914 53.0187C64.5334 53.1213 64.7369 53.2643 64.9019 53.4477C65.0669 53.631 65.1916 53.8528 65.2759 54.1132C65.3602 54.3735 65.4024 54.6595 65.4024 54.9712V58.5352H64.9679C64.8726 58.5352 64.7992 58.5205 64.7479 58.4912C64.6966 58.4582 64.6562 58.3958 64.6269 58.3042L64.5169 57.7762C64.3702 57.9118 64.2272 58.0328 64.0879 58.1392C63.9486 58.2418 63.8019 58.3298 63.6479 58.4032C63.4939 58.4728 63.3289 58.526 63.1529 58.5627C62.9806 58.603 62.7881 58.6232 62.5754 58.6232C62.3591 58.6232 62.1556 58.5938 61.9649 58.5352C61.7742 58.4728 61.6074 58.3812 61.4644 58.2602C61.3251 58.1392 61.2132 57.987 61.1289 57.8037C61.0482 57.6167 61.0079 57.3967 61.0079 57.1437C61.0079 56.9237 61.0684 56.7128 61.1894 56.5112C61.3104 56.3058 61.5066 56.1243 61.7779 55.9667C62.0492 55.809 62.4031 55.6807 62.8394 55.5817C63.2757 55.479 63.8111 55.4203 64.4454 55.4057V54.9712C64.4454 54.5385 64.3519 54.2122 64.1649 53.9922C63.9779 53.7685 63.7047 53.6567 63.3454 53.6567C63.1034 53.6567 62.8999 53.6878 62.7349 53.7502C62.5736 53.8088 62.4324 53.8767 62.3114 53.9537C62.1941 54.027 62.0914 54.0948 62.0034 54.1572C61.9191 54.2158 61.8347 54.2452 61.7504 54.2452C61.6844 54.2452 61.6276 54.2287 61.5799 54.1957C61.5322 54.159 61.4919 54.115 61.4589 54.0637L61.2829 53.7502ZM69.529 58.6232C69.089 58.6232 68.7498 58.5003 68.5115 58.2547C68.2768 58.009 68.1595 57.6552 68.1595 57.1932V53.7832H67.4885C67.4298 53.7832 67.3803 53.7667 67.34 53.7337C67.2996 53.697 67.2795 53.642 67.2795 53.5687V53.1782L68.1925 53.0627L68.418 51.3412C68.429 51.2862 68.4528 51.2422 68.4895 51.2092C68.5298 51.1725 68.5811 51.1542 68.6435 51.1542H69.1385V53.0737H70.75V53.7832H69.1385V57.1272C69.1385 57.3618 69.1953 57.536 69.309 57.6497C69.4226 57.7633 69.5693 57.8202 69.749 57.8202C69.8516 57.8202 69.9396 57.8073 70.013 57.7817C70.09 57.7523 70.156 57.7212 70.211 57.6882C70.266 57.6552 70.3118 57.6258 70.3485 57.6002C70.3888 57.5708 70.4236 57.5562 70.453 57.5562C70.5043 57.5562 70.5501 57.5873 70.5905 57.6497L70.8765 58.1172C70.7078 58.2748 70.5043 58.3995 70.266 58.4912C70.0276 58.5792 69.782 58.6232 69.529 58.6232ZM75.0771 52.8757C75.4841 52.8757 75.8508 52.9435 76.1771 53.0792C76.5035 53.2148 76.7821 53.4073 77.0131 53.6567C77.2441 53.906 77.4201 54.2085 77.5411 54.5642C77.6658 54.9162 77.7281 55.3103 77.7281 55.7467C77.7281 56.1867 77.6658 56.5827 77.5411 56.9347C77.4201 57.2867 77.2441 57.5873 77.0131 57.8367C76.7821 58.086 76.5035 58.2785 76.1771 58.4142C75.8508 58.5462 75.4841 58.6122 75.0771 58.6122C74.6665 58.6122 74.2961 58.5462 73.9661 58.4142C73.6398 58.2785 73.3611 58.086 73.1301 57.8367C72.8991 57.5873 72.7213 57.2867 72.5966 56.9347C72.4756 56.5827 72.4151 56.1867 72.4151 55.7467C72.4151 55.3103 72.4756 54.9162 72.5966 54.5642C72.7213 54.2085 72.8991 53.906 73.1301 53.6567C73.3611 53.4073 73.6398 53.2148 73.9661 53.0792C74.2961 52.9435 74.6665 52.8757 75.0771 52.8757ZM75.0771 57.8477C75.6271 57.8477 76.0378 57.6643 76.3091 57.2977C76.5805 56.9273 76.7161 56.4122 76.7161 55.7522C76.7161 55.0885 76.5805 54.5715 76.3091 54.2012C76.0378 53.8308 75.6271 53.6457 75.0771 53.6457C74.7985 53.6457 74.5546 53.6933 74.3456 53.7887C74.1403 53.884 73.968 54.0215 73.8286 54.2012C73.693 54.3808 73.5903 54.6027 73.5206 54.8667C73.4546 55.127 73.4216 55.4222 73.4216 55.7522C73.4216 56.4122 73.5573 56.9273 73.8286 57.2977C74.1036 57.6643 74.5198 57.8477 75.0771 57.8477ZM96.183 57.7872V58.5352H91.959V57.7872H93.6475V52.4137C93.6475 52.2523 93.653 52.0892 93.664 51.9242L92.2615 53.1287C92.2138 53.169 92.1662 53.1947 92.1185 53.2057C92.0708 53.213 92.0268 53.213 91.9865 53.2057C91.9462 53.1983 91.9077 53.1837 91.871 53.1617C91.838 53.1397 91.8123 53.1158 91.794 53.0902L91.486 52.6667L93.8345 50.6372H94.632V57.7872H96.183ZM103.564 57.7872V58.5352H99.3398V57.7872H101.028V52.4137C101.028 52.2523 101.034 52.0892 101.045 51.9242L99.6423 53.1287C99.5947 53.169 99.547 53.1947 99.4993 53.2057C99.4517 53.213 99.4077 53.213 99.3673 53.2057C99.327 53.1983 99.2885 53.1837 99.2518 53.1617C99.2188 53.1397 99.1932 53.1158 99.1748 53.0902L98.8668 52.6667L101.215 50.6372H102.013V57.7872H103.564ZM107.106 57.1932C107.285 57.4352 107.482 57.6057 107.694 57.7047C107.907 57.8037 108.145 57.8532 108.409 57.8532C108.93 57.8532 109.33 57.668 109.608 57.2977C109.887 56.9273 110.026 56.3993 110.026 55.7137C110.026 55.3507 109.993 55.039 109.927 54.7787C109.865 54.5183 109.773 54.3057 109.652 54.1407C109.531 53.972 109.383 53.8492 109.207 53.7722C109.031 53.6952 108.831 53.6567 108.607 53.6567C108.288 53.6567 108.008 53.73 107.766 53.8767C107.527 54.0233 107.307 54.2305 107.106 54.4982V57.1932ZM107.056 53.8272C107.291 53.5375 107.562 53.3047 107.87 53.1287C108.178 52.9527 108.53 52.8647 108.926 52.8647C109.249 52.8647 109.54 52.927 109.801 53.0517C110.061 53.1727 110.283 53.3542 110.466 53.5962C110.65 53.8345 110.791 54.1315 110.89 54.4872C110.989 54.8428 111.038 55.2517 111.038 55.7137C111.038 56.1243 110.983 56.5075 110.873 56.8632C110.763 57.2152 110.604 57.5213 110.395 57.7817C110.189 58.0383 109.936 58.2418 109.636 58.3922C109.339 58.5388 109.003 58.6122 108.629 58.6122C108.288 58.6122 107.995 58.5553 107.749 58.4417C107.507 58.3243 107.293 58.163 107.106 57.9577V60.4217H106.121V52.9637H106.71C106.849 52.9637 106.935 53.0315 106.968 53.1672L107.056 53.8272ZM117.648 58.5352H116.708C116.627 58.5352 116.563 58.515 116.515 58.4747C116.471 58.4307 116.435 58.383 116.405 58.3317L115.003 56.1482C114.988 56.1995 114.972 56.2508 114.953 56.3022C114.939 56.3498 114.917 56.3938 114.887 56.4342L113.589 58.3317C113.553 58.383 113.512 58.4307 113.468 58.4747C113.428 58.515 113.371 58.5352 113.298 58.5352H112.423L114.376 55.6752L112.5 52.9637H113.441C113.522 52.9637 113.58 52.9765 113.617 53.0022C113.654 53.0278 113.687 53.0645 113.716 53.1122L115.085 55.2022C115.115 55.0958 115.161 54.9932 115.223 54.8942L116.422 53.1342C116.455 53.0828 116.49 53.0425 116.526 53.0132C116.567 52.9802 116.614 52.9637 116.669 52.9637H117.571L115.696 55.6257L117.648 58.5352ZM133.355 54.4707C133.663 54.4707 133.934 54.434 134.169 54.3607C134.407 54.2837 134.605 54.1773 134.763 54.0417C134.924 53.9023 135.045 53.7373 135.126 53.5467C135.207 53.356 135.247 53.1452 135.247 52.9142C135.247 52.4448 135.093 52.091 134.785 51.8527C134.477 51.6143 134.015 51.4952 133.399 51.4952H132.233V54.4707H133.355ZM136.996 58.5352H136.05C135.856 58.5352 135.713 58.46 135.621 58.3097L133.575 55.4937C133.513 55.4057 133.445 55.3433 133.372 55.3067C133.302 55.2663 133.192 55.2462 133.042 55.2462H132.233V58.5352H131.172V50.6537H133.399C133.898 50.6537 134.329 50.705 134.692 50.8077C135.055 50.9067 135.353 51.0515 135.588 51.2422C135.826 51.4328 136.002 51.6638 136.116 51.9352C136.23 52.2028 136.287 52.5035 136.287 52.8372C136.287 53.1158 136.243 53.3762 136.155 53.6182C136.067 53.8602 135.938 54.0783 135.77 54.2727C135.605 54.4633 135.401 54.6265 135.159 54.7622C134.921 54.8978 134.649 55.0005 134.345 55.0702C134.481 55.1472 134.598 55.259 134.697 55.4057L136.996 58.5352ZM142.212 55.1417C142.212 54.9143 142.179 54.7072 142.113 54.5202C142.05 54.3295 141.957 54.1663 141.832 54.0307C141.711 53.8913 141.563 53.785 141.387 53.7117C141.211 53.6347 141.011 53.5962 140.787 53.5962C140.318 53.5962 139.946 53.7337 139.671 54.0087C139.399 54.28 139.231 54.6577 139.165 55.1417H142.212ZM143.004 57.7542C142.883 57.9008 142.738 58.0292 142.569 58.1392C142.4 58.2455 142.219 58.3335 142.025 58.4032C141.834 58.4728 141.636 58.5242 141.431 58.5572C141.225 58.5938 141.022 58.6122 140.82 58.6122C140.435 58.6122 140.079 58.548 139.753 58.4197C139.43 58.2877 139.15 58.097 138.912 57.8477C138.677 57.5947 138.494 57.283 138.362 56.9127C138.23 56.5423 138.164 56.117 138.164 55.6367C138.164 55.248 138.222 54.885 138.34 54.5477C138.461 54.2103 138.633 53.9188 138.857 53.6732C139.08 53.4238 139.353 53.2295 139.676 53.0902C139.999 52.9472 140.362 52.8757 140.765 52.8757C141.099 52.8757 141.407 52.9325 141.689 53.0462C141.975 53.1562 142.221 53.3175 142.426 53.5302C142.635 53.7392 142.798 53.9995 142.916 54.3112C143.033 54.6192 143.092 54.9712 143.092 55.3672C143.092 55.5212 143.075 55.6238 143.042 55.6752C143.009 55.7265 142.947 55.7522 142.855 55.7522H139.132C139.143 56.1042 139.19 56.4103 139.275 56.6707C139.363 56.931 139.484 57.1492 139.638 57.3252C139.792 57.4975 139.975 57.6277 140.188 57.7157C140.4 57.8 140.639 57.8422 140.903 57.8422C141.148 57.8422 141.359 57.8147 141.535 57.7597C141.715 57.701 141.869 57.6387 141.997 57.5727C142.125 57.5067 142.232 57.4462 142.316 57.3912C142.404 57.3325 142.479 57.3032 142.542 57.3032C142.622 57.3032 142.685 57.3343 142.729 57.3967L143.004 57.7542ZM147.236 55.8127C147.434 55.8127 147.608 55.7852 147.758 55.7302C147.908 55.6752 148.035 55.5982 148.138 55.4992C148.24 55.4002 148.317 55.2828 148.369 55.1472C148.42 55.0078 148.446 54.8557 148.446 54.6907C148.446 54.3497 148.341 54.0783 148.132 53.8767C147.927 53.675 147.628 53.5742 147.236 53.5742C146.84 53.5742 146.537 53.675 146.328 53.8767C146.123 54.0783 146.02 54.3497 146.02 54.6907C146.02 54.8557 146.046 55.0078 146.097 55.1472C146.152 55.2828 146.231 55.4002 146.334 55.4992C146.436 55.5982 146.563 55.6752 146.713 55.7302C146.863 55.7852 147.038 55.8127 147.236 55.8127ZM149.001 58.8377C149.001 58.702 148.963 58.592 148.886 58.5077C148.809 58.4233 148.704 58.3573 148.572 58.3097C148.444 58.262 148.293 58.229 148.121 58.2107C147.949 58.1887 147.765 58.1722 147.571 58.1612C147.38 58.1502 147.186 58.1392 146.988 58.1282C146.79 58.1172 146.599 58.0988 146.416 58.0732C146.211 58.1685 146.042 58.2895 145.91 58.4362C145.782 58.5792 145.718 58.7478 145.718 58.9422C145.718 59.0668 145.749 59.1823 145.811 59.2887C145.877 59.3987 145.976 59.4922 146.108 59.5692C146.24 59.6498 146.405 59.7122 146.603 59.7562C146.805 59.8038 147.041 59.8277 147.313 59.8277C147.577 59.8277 147.813 59.8038 148.022 59.7562C148.231 59.7085 148.407 59.6407 148.55 59.5527C148.697 59.4647 148.809 59.3602 148.886 59.2392C148.963 59.1182 149.001 58.9843 149.001 58.8377ZM149.997 53.1837V53.5467C149.997 53.6677 149.92 53.7447 149.766 53.7777L149.133 53.8602C149.258 54.1022 149.32 54.3698 149.32 54.6632C149.32 54.9345 149.267 55.182 149.161 55.4057C149.058 55.6257 148.915 55.8145 148.732 55.9722C148.548 56.1298 148.328 56.2508 148.072 56.3352C147.815 56.4195 147.536 56.4617 147.236 56.4617C146.975 56.4617 146.73 56.4305 146.499 56.3682C146.381 56.4415 146.291 56.5203 146.229 56.6047C146.167 56.6853 146.136 56.7678 146.136 56.8522C146.136 56.9842 146.189 57.085 146.295 57.1547C146.405 57.2207 146.548 57.2683 146.724 57.2977C146.9 57.327 147.1 57.3453 147.324 57.3527C147.551 57.36 147.782 57.3728 148.017 57.3912C148.255 57.4058 148.486 57.4333 148.71 57.4737C148.937 57.514 149.139 57.58 149.315 57.6717C149.491 57.7633 149.632 57.8898 149.738 58.0512C149.848 58.2125 149.903 58.4215 149.903 58.6782C149.903 58.9165 149.843 59.1475 149.722 59.3712C149.604 59.5948 149.434 59.7928 149.21 59.9652C148.986 60.1412 148.711 60.2805 148.385 60.3832C148.062 60.4895 147.698 60.5427 147.291 60.5427C146.884 60.5427 146.528 60.5023 146.224 60.4217C145.919 60.341 145.666 60.2328 145.465 60.0972C145.263 59.9615 145.111 59.8038 145.008 59.6242C144.909 59.4482 144.86 59.263 144.86 59.0687C144.86 58.7937 144.946 58.5608 145.118 58.3702C145.29 58.1795 145.527 58.0273 145.828 57.9137C145.663 57.8403 145.531 57.7432 145.432 57.6222C145.336 57.4975 145.289 57.3307 145.289 57.1217C145.289 57.041 145.303 56.9585 145.333 56.8742C145.362 56.7862 145.406 56.7 145.465 56.6157C145.527 56.5277 145.602 56.4452 145.69 56.3682C145.778 56.2912 145.881 56.2233 145.998 56.1647C145.723 56.0107 145.509 55.8072 145.355 55.5542C145.201 55.2975 145.124 55.0005 145.124 54.6632C145.124 54.3918 145.175 54.1462 145.278 53.9262C145.384 53.7025 145.531 53.5137 145.718 53.3597C145.905 53.202 146.126 53.081 146.383 52.9967C146.643 52.9123 146.928 52.8702 147.236 52.8702C147.478 52.8702 147.703 52.8977 147.912 52.9527C148.121 53.004 148.312 53.081 148.484 53.1837H149.997ZM156.59 52.9637V58.5352H156.007C155.868 58.5352 155.78 58.4673 155.743 58.3317L155.666 57.7322C155.424 57.9998 155.153 58.2162 154.852 58.3812C154.552 58.5425 154.207 58.6232 153.818 58.6232C153.514 58.6232 153.245 58.5737 153.01 58.4747C152.779 58.372 152.585 58.229 152.427 58.0457C152.269 57.8623 152.15 57.6405 152.069 57.3802C151.992 57.1198 151.954 56.832 151.954 56.5167V52.9637H152.933V56.5167C152.933 56.9383 153.028 57.2647 153.219 57.4957C153.413 57.7267 153.708 57.8422 154.104 57.8422C154.394 57.8422 154.664 57.7743 154.913 57.6387C155.166 57.4993 155.399 57.3087 155.611 57.0667V52.9637H156.59ZM160.155 50.4337V58.5352H159.176V50.4337H160.155ZM165.762 56.0272C165.311 56.0418 164.926 56.0785 164.607 56.1372C164.291 56.1922 164.033 56.2655 163.831 56.3572C163.633 56.4488 163.488 56.557 163.397 56.6817C163.309 56.8063 163.265 56.9457 163.265 57.0997C163.265 57.2463 163.289 57.3728 163.336 57.4792C163.384 57.5855 163.448 57.6735 163.529 57.7432C163.613 57.8092 163.71 57.8587 163.82 57.8917C163.934 57.921 164.055 57.9357 164.183 57.9357C164.356 57.9357 164.513 57.9192 164.656 57.8862C164.799 57.8495 164.933 57.7982 165.058 57.7322C165.186 57.6662 165.307 57.5873 165.421 57.4957C165.538 57.404 165.652 57.2995 165.762 57.1822V56.0272ZM162.599 53.7502C162.907 53.4532 163.239 53.2313 163.595 53.0847C163.95 52.938 164.345 52.8647 164.777 52.8647C165.089 52.8647 165.366 52.916 165.608 53.0187C165.85 53.1213 166.053 53.2643 166.218 53.4477C166.383 53.631 166.508 53.8528 166.592 54.1132C166.677 54.3735 166.719 54.6595 166.719 54.9712V58.5352H166.284C166.189 58.5352 166.116 58.5205 166.064 58.4912C166.013 58.4582 165.973 58.3958 165.943 58.3042L165.833 57.7762C165.687 57.9118 165.544 58.0328 165.404 58.1392C165.265 58.2418 165.118 58.3298 164.964 58.4032C164.81 58.4728 164.645 58.526 164.469 58.5627C164.297 58.603 164.104 58.6232 163.892 58.6232C163.675 58.6232 163.472 58.5938 163.281 58.5352C163.091 58.4728 162.924 58.3812 162.781 58.2602C162.641 58.1392 162.53 57.987 162.445 57.8037C162.365 57.6167 162.324 57.3967 162.324 57.1437C162.324 56.9237 162.385 56.7128 162.506 56.5112C162.627 56.3058 162.823 56.1243 163.094 55.9667C163.366 55.809 163.719 55.6807 164.156 55.5817C164.592 55.479 165.127 55.4203 165.762 55.4057V54.9712C165.762 54.5385 165.668 54.2122 165.481 53.9922C165.294 53.7685 165.021 53.6567 164.662 53.6567C164.42 53.6567 164.216 53.6878 164.051 53.7502C163.89 53.8088 163.749 53.8767 163.628 53.9537C163.51 54.027 163.408 54.0948 163.32 54.1572C163.235 54.2158 163.151 54.2452 163.067 54.2452C163.001 54.2452 162.944 54.2287 162.896 54.1957C162.849 54.159 162.808 54.115 162.775 54.0637L162.599 53.7502ZM170.14 54.0802C170.316 53.6988 170.532 53.4018 170.789 53.1892C171.045 52.9728 171.359 52.8647 171.729 52.8647C171.846 52.8647 171.958 52.8775 172.065 52.9032C172.175 52.9288 172.272 52.9692 172.356 53.0242L172.285 53.7557C172.263 53.8473 172.208 53.8932 172.12 53.8932C172.068 53.8932 171.993 53.8822 171.894 53.8602C171.795 53.8382 171.683 53.8272 171.559 53.8272C171.383 53.8272 171.225 53.8528 171.086 53.9042C170.95 53.9555 170.827 54.0325 170.717 54.1352C170.611 54.2342 170.514 54.3588 170.426 54.5092C170.341 54.6558 170.264 54.8245 170.195 55.0152V58.5352H169.21V52.9637H169.771C169.877 52.9637 169.951 52.9838 169.991 53.0242C170.031 53.0645 170.059 53.1342 170.074 53.2332L170.14 54.0802ZM186.899 54.1077H187.301C187.44 54.1077 187.552 54.0912 187.636 54.0582C187.72 54.0215 187.797 53.961 187.867 53.8767L190.491 50.9067C190.564 50.8113 190.641 50.7453 190.722 50.7087C190.802 50.672 190.901 50.6537 191.019 50.6537H191.921L188.918 54.0472C188.844 54.1352 188.773 54.2085 188.703 54.2672C188.637 54.3222 188.566 54.368 188.489 54.4047C188.588 54.4377 188.677 54.4872 188.758 54.5532C188.839 54.6155 188.918 54.698 188.995 54.8007L192.13 58.5352H191.206C191.136 58.5352 191.075 58.5315 191.024 58.5242C190.976 58.5132 190.934 58.4985 190.898 58.4802C190.861 58.4582 190.828 58.4343 190.799 58.4087C190.773 58.3793 190.747 58.3463 190.722 58.3097L188.005 55.1802C187.931 55.0885 187.852 55.0243 187.768 54.9877C187.684 54.9473 187.555 54.9272 187.383 54.9272H186.899V58.5352H185.838V50.6537H186.899V54.1077ZM197.2 55.1417C197.2 54.9143 197.167 54.7072 197.101 54.5202C197.038 54.3295 196.945 54.1663 196.82 54.0307C196.699 53.8913 196.551 53.785 196.375 53.7117C196.199 53.6347 195.999 53.5962 195.775 53.5962C195.306 53.5962 194.934 53.7337 194.659 54.0087C194.387 54.28 194.219 54.6577 194.153 55.1417H197.2ZM197.992 57.7542C197.871 57.9008 197.726 58.0292 197.557 58.1392C197.389 58.2455 197.207 58.3335 197.013 58.4032C196.822 58.4728 196.624 58.5242 196.419 58.5572C196.213 58.5938 196.01 58.6122 195.808 58.6122C195.423 58.6122 195.068 58.548 194.741 58.4197C194.419 58.2877 194.138 58.097 193.9 57.8477C193.665 57.5947 193.482 57.283 193.35 56.9127C193.218 56.5423 193.152 56.117 193.152 55.6367C193.152 55.248 193.21 54.885 193.328 54.5477C193.449 54.2103 193.621 53.9188 193.845 53.6732C194.068 53.4238 194.342 53.2295 194.664 53.0902C194.987 52.9472 195.35 52.8757 195.753 52.8757C196.087 52.8757 196.395 52.9325 196.677 53.0462C196.963 53.1562 197.209 53.3175 197.414 53.5302C197.623 53.7392 197.786 53.9995 197.904 54.3112C198.021 54.6192 198.08 54.9712 198.08 55.3672C198.08 55.5212 198.063 55.6238 198.03 55.6752C197.997 55.7265 197.935 55.7522 197.843 55.7522H194.12C194.131 56.1042 194.178 56.4103 194.263 56.6707C194.351 56.931 194.472 57.1492 194.626 57.3252C194.78 57.4975 194.963 57.6277 195.176 57.7157C195.388 57.8 195.627 57.8422 195.891 57.8422C196.136 57.8422 196.347 57.8147 196.523 57.7597C196.703 57.701 196.857 57.6387 196.985 57.5727C197.114 57.5067 197.22 57.4462 197.304 57.3912C197.392 57.3325 197.467 57.3032 197.53 57.3032C197.61 57.3032 197.673 57.3343 197.717 57.3967L197.992 57.7542ZM201.212 54.0802C201.388 53.6988 201.604 53.4018 201.861 53.1892C202.118 52.9728 202.431 52.8647 202.801 52.8647C202.919 52.8647 203.031 52.8775 203.137 52.9032C203.247 52.9288 203.344 52.9692 203.428 53.0242L203.357 53.7557C203.335 53.8473 203.28 53.8932 203.192 53.8932C203.141 53.8932 203.065 53.8822 202.966 53.8602C202.867 53.8382 202.756 53.8272 202.631 53.8272C202.455 53.8272 202.297 53.8528 202.158 53.9042C202.022 53.9555 201.899 54.0325 201.789 54.1352C201.683 54.2342 201.586 54.3588 201.498 54.5092C201.414 54.6558 201.337 54.8245 201.267 55.0152V58.5352H200.282V52.9637H200.843C200.95 52.9637 201.023 52.9838 201.063 53.0242C201.104 53.0645 201.131 53.1342 201.146 53.2332L201.212 54.0802ZM206.213 53.7722C206.334 53.6365 206.463 53.5137 206.598 53.4037C206.734 53.2937 206.877 53.2002 207.027 53.1232C207.181 53.0425 207.343 52.982 207.511 52.9417C207.684 52.8977 207.869 52.8757 208.067 52.8757C208.371 52.8757 208.639 52.927 208.87 53.0297C209.104 53.1287 209.299 53.2717 209.453 53.4587C209.61 53.642 209.73 53.8638 209.81 54.1242C209.891 54.3845 209.931 54.6723 209.931 54.9877V58.5352H208.947V54.9877C208.947 54.566 208.85 54.2397 208.655 54.0087C208.465 53.774 208.173 53.6567 207.781 53.6567C207.491 53.6567 207.22 53.7263 206.967 53.8657C206.717 54.005 206.486 54.1938 206.274 54.4322V58.5352H205.289V52.9637H205.878C206.017 52.9637 206.103 53.0315 206.136 53.1672L206.213 53.7722ZM213.457 52.9637V58.5352H212.478V52.9637H213.457ZM213.666 51.2147C213.666 51.31 213.646 51.3998 213.605 51.4842C213.569 51.5648 213.517 51.6382 213.451 51.7042C213.389 51.7665 213.314 51.816 213.226 51.8527C213.142 51.8893 213.052 51.9077 212.956 51.9077C212.861 51.9077 212.771 51.8893 212.687 51.8527C212.606 51.816 212.535 51.7665 212.472 51.7042C212.41 51.6382 212.361 51.5648 212.324 51.4842C212.287 51.3998 212.269 51.31 212.269 51.2147C212.269 51.1193 212.287 51.0295 212.324 50.9452C212.361 50.8572 212.41 50.782 212.472 50.7197C212.535 50.6537 212.606 50.6023 212.687 50.5657C212.771 50.529 212.861 50.5107 212.956 50.5107C213.052 50.5107 213.142 50.529 213.226 50.5657C213.314 50.6023 213.389 50.6537 213.451 50.7197C213.517 50.782 213.569 50.8572 213.605 50.9452C213.646 51.0295 213.666 51.1193 213.666 51.2147ZM216.99 53.7722C217.111 53.6365 217.239 53.5137 217.375 53.4037C217.51 53.2937 217.653 53.2002 217.804 53.1232C217.958 53.0425 218.119 52.982 218.288 52.9417C218.46 52.8977 218.645 52.8757 218.843 52.8757C219.147 52.8757 219.415 52.927 219.646 53.0297C219.881 53.1287 220.075 53.2717 220.229 53.4587C220.387 53.642 220.506 53.8638 220.587 54.1242C220.667 54.3845 220.708 54.6723 220.708 54.9877V58.5352H219.723V54.9877C219.723 54.566 219.626 54.2397 219.432 54.0087C219.241 53.774 218.949 53.6567 218.557 53.6567C218.267 53.6567 217.996 53.7263 217.743 53.8657C217.494 54.005 217.263 54.1938 217.05 54.4322V58.5352H216.066V52.9637H216.654C216.793 52.9637 216.88 53.0315 216.913 53.1672L216.99 53.7722ZM225.141 55.8127C225.339 55.8127 225.513 55.7852 225.663 55.7302C225.814 55.6752 225.94 55.5982 226.043 55.4992C226.145 55.4002 226.222 55.2828 226.274 55.1472C226.325 55.0078 226.351 54.8557 226.351 54.6907C226.351 54.3497 226.246 54.0783 226.037 53.8767C225.832 53.675 225.533 53.5742 225.141 53.5742C224.745 53.5742 224.442 53.675 224.233 53.8767C224.028 54.0783 223.925 54.3497 223.925 54.6907C223.925 54.8557 223.951 55.0078 224.002 55.1472C224.057 55.2828 224.136 55.4002 224.239 55.4992C224.341 55.5982 224.468 55.6752 224.618 55.7302C224.769 55.7852 224.943 55.8127 225.141 55.8127ZM226.906 58.8377C226.906 58.702 226.868 58.592 226.791 58.5077C226.714 58.4233 226.609 58.3573 226.477 58.3097C226.349 58.262 226.199 58.229 226.026 58.2107C225.854 58.1887 225.671 58.1722 225.476 58.1612C225.286 58.1502 225.091 58.1392 224.893 58.1282C224.695 58.1172 224.505 58.0988 224.321 58.0732C224.116 58.1685 223.947 58.2895 223.815 58.4362C223.687 58.5792 223.623 58.7478 223.623 58.9422C223.623 59.0668 223.654 59.1823 223.716 59.2887C223.782 59.3987 223.881 59.4922 224.013 59.5692C224.145 59.6498 224.31 59.7122 224.508 59.7562C224.71 59.8038 224.946 59.8277 225.218 59.8277C225.482 59.8277 225.718 59.8038 225.927 59.7562C226.136 59.7085 226.312 59.6407 226.455 59.5527C226.602 59.4647 226.714 59.3602 226.791 59.2392C226.868 59.1182 226.906 58.9843 226.906 58.8377ZM227.902 53.1837V53.5467C227.902 53.6677 227.825 53.7447 227.671 53.7777L227.038 53.8602C227.163 54.1022 227.225 54.3698 227.225 54.6632C227.225 54.9345 227.172 55.182 227.066 55.4057C226.963 55.6257 226.82 55.8145 226.637 55.9722C226.453 56.1298 226.233 56.2508 225.977 56.3352C225.72 56.4195 225.441 56.4617 225.141 56.4617C224.88 56.4617 224.635 56.4305 224.404 56.3682C224.286 56.4415 224.197 56.5203 224.134 56.6047C224.072 56.6853 224.041 56.7678 224.041 56.8522C224.041 56.9842 224.094 57.085 224.2 57.1547C224.31 57.2207 224.453 57.2683 224.629 57.2977C224.805 57.327 225.005 57.3453 225.229 57.3527C225.456 57.36 225.687 57.3728 225.922 57.3912C226.16 57.4058 226.391 57.4333 226.615 57.4737C226.842 57.514 227.044 57.58 227.22 57.6717C227.396 57.7633 227.537 57.8898 227.643 58.0512C227.753 58.2125 227.808 58.4215 227.808 58.6782C227.808 58.9165 227.748 59.1475 227.627 59.3712C227.509 59.5948 227.339 59.7928 227.115 59.9652C226.892 60.1412 226.617 60.2805 226.29 60.3832C225.968 60.4895 225.603 60.5427 225.196 60.5427C224.789 60.5427 224.433 60.5023 224.129 60.4217C223.824 60.341 223.571 60.2328 223.37 60.0972C223.168 59.9615 223.016 59.8038 222.913 59.6242C222.814 59.4482 222.765 59.263 222.765 59.0687C222.765 58.7937 222.851 58.5608 223.023 58.3702C223.196 58.1795 223.432 58.0273 223.733 57.9137C223.568 57.8403 223.436 57.7432 223.337 57.6222C223.241 57.4975 223.194 57.3307 223.194 57.1217C223.194 57.041 223.208 56.9585 223.238 56.8742C223.267 56.7862 223.311 56.7 223.37 56.6157C223.432 56.5277 223.507 56.4452 223.595 56.3682C223.683 56.2912 223.786 56.2233 223.903 56.1647C223.628 56.0107 223.414 55.8072 223.26 55.5542C223.106 55.2975 223.029 55.0005 223.029 54.6632C223.029 54.3918 223.08 54.1462 223.183 53.9262C223.289 53.7025 223.436 53.5137 223.623 53.3597C223.81 53.202 224.032 53.081 224.288 52.9967C224.549 52.9123 224.833 52.8702 225.141 52.8702C225.383 52.8702 225.608 52.8977 225.817 52.9527C226.026 53.004 226.217 53.081 226.389 53.1837H227.902ZM238.552 57.7872V58.5352H234.328V57.7872H236.017V52.4137C236.017 52.2523 236.022 52.0892 236.033 51.9242L234.631 53.1287C234.583 53.169 234.535 53.1947 234.488 53.2057C234.44 53.213 234.396 53.213 234.356 53.2057C234.315 53.1983 234.277 53.1837 234.24 53.1617C234.207 53.1397 234.181 53.1158 234.163 53.0902L233.855 52.6667L236.204 50.6372H237.001V57.7872H238.552ZM242.094 57.1932C242.274 57.4352 242.47 57.6057 242.682 57.7047C242.895 57.8037 243.133 57.8532 243.397 57.8532C243.918 57.8532 244.318 57.668 244.596 57.2977C244.875 56.9273 245.014 56.3993 245.014 55.7137C245.014 55.3507 244.981 55.039 244.915 54.7787C244.853 54.5183 244.761 54.3057 244.64 54.1407C244.519 53.972 244.371 53.8492 244.195 53.7722C244.019 53.6952 243.819 53.6567 243.595 53.6567C243.276 53.6567 242.996 53.73 242.754 53.8767C242.516 54.0233 242.296 54.2305 242.094 54.4982V57.1932ZM242.044 53.8272C242.279 53.5375 242.55 53.3047 242.858 53.1287C243.166 52.9527 243.518 52.8647 243.914 52.8647C244.237 52.8647 244.529 52.927 244.789 53.0517C245.049 53.1727 245.271 53.3542 245.454 53.5962C245.638 53.8345 245.779 54.1315 245.878 54.4872C245.977 54.8428 246.026 55.2517 246.026 55.7137C246.026 56.1243 245.971 56.5075 245.861 56.8632C245.751 57.2152 245.592 57.5213 245.383 57.7817C245.178 58.0383 244.925 58.2418 244.624 58.3922C244.327 58.5388 243.991 58.6122 243.617 58.6122C243.276 58.6122 242.983 58.5553 242.737 58.4417C242.495 58.3243 242.281 58.163 242.094 57.9577V60.4217H241.109V52.9637H241.698C241.837 52.9637 241.923 53.0315 241.956 53.1672L242.044 53.8272ZM252.637 58.5352H251.696C251.615 58.5352 251.551 58.515 251.504 58.4747C251.46 58.4307 251.423 58.383 251.394 58.3317L249.991 56.1482C249.976 56.1995 249.96 56.2508 249.942 56.3022C249.927 56.3498 249.905 56.3938 249.876 56.4342L248.578 58.3317C248.541 58.383 248.501 58.4307 248.457 58.4747C248.416 58.515 248.359 58.5352 248.286 58.5352H247.412L249.364 55.6752L247.489 52.9637H248.429C248.51 52.9637 248.568 52.9765 248.605 53.0022C248.642 53.0278 248.675 53.0645 248.704 53.1122L250.074 55.2022C250.103 55.0958 250.149 54.9932 250.211 54.8942L251.41 53.1342C251.443 53.0828 251.478 53.0425 251.515 53.0132C251.555 52.9802 251.603 52.9637 251.658 52.9637H252.56L250.684 55.6257L252.637 58.5352Z" fill="black"/>
<path d="M84.0043 50.1037H84.7688V60.4547H84.0043V50.1037ZM123.585 50.1037H124.35V60.4547H123.585V50.1037ZM178.251 50.1037H179.016V60.4547H178.251V50.1037Z" fill="#7C4663"/>
<path d="M56.4902 11.0645C56.4902 11.123 56.4922 11.1699 56.4961 11.2051C56.5039 11.2363 56.5176 11.2734 56.5371 11.3164C56.5605 11.3594 56.5996 11.3926 56.6543 11.416C56.709 11.4355 56.7793 11.4453 56.8652 11.4453C57.0137 11.4453 57.1406 11.4688 57.2461 11.5156C57.3516 11.5625 57.4043 11.6328 57.4043 11.7266C57.4043 12.1836 57.3398 12.4688 57.2109 12.582C56.875 12.5508 56.4258 12.5352 55.8633 12.5352C55.2617 12.5352 54.7891 12.5508 54.4453 12.582C54.3164 12.4648 54.252 12.1797 54.252 11.7266C54.252 11.6328 54.3047 11.5625 54.4102 11.5156C54.5156 11.4688 54.6426 11.4453 54.791 11.4453C54.9434 11.4453 55.043 11.4141 55.0898 11.3516C55.1367 11.2852 55.1602 11.1934 55.1602 11.0762V5.45117C55.1602 5.24414 55.0996 5.09766 54.9785 5.01172C54.8613 4.92578 54.6328 4.875 54.293 4.85938C54.2422 4.84766 54.209 4.82227 54.1934 4.7832C54.1816 4.74414 54.1758 4.66016 54.1758 4.53125C54.1758 4.33203 54.1973 4.15625 54.2402 4.00391C54.2832 3.85156 54.3262 3.76367 54.3691 3.74023C54.6934 3.7832 55.0039 3.80469 55.3008 3.80469C55.4766 3.80469 55.6621 3.79492 55.8574 3.77539C56.0527 3.75195 56.1562 3.74023 56.168 3.74023C56.3047 3.74023 56.3926 3.77539 56.4316 3.8457C56.4746 3.91211 56.4961 4.06836 56.4961 4.31445C56.4961 4.32227 56.4961 4.33398 56.4961 4.34961C56.4922 4.90039 56.4902 7.13867 56.4902 11.0645ZM62.1211 11.7383C61.8359 12.0391 61.4746 12.2734 61.0371 12.4414C60.6035 12.6094 60.1621 12.6934 59.7129 12.6934C59.1543 12.6934 58.6934 12.5449 58.3301 12.248C57.9668 11.9512 57.7852 11.5215 57.7852 10.959C57.7852 10.3574 58.0762 9.9043 58.6582 9.59961C59.0957 9.36523 59.8457 9.16211 60.9082 8.99023C61.1074 8.95508 61.4316 8.9043 61.8809 8.83789C61.8809 8.17383 61.7969 7.7168 61.6289 7.4668C61.4609 7.2168 61.1387 7.0918 60.6621 7.0918C60.3145 7.0918 59.9277 7.16992 59.502 7.32617C59.0762 7.48242 58.7363 7.69922 58.4824 7.97656C58.166 7.71094 58.0078 7.45117 58.0078 7.19727C58.0078 6.97852 58.1582 6.78516 58.459 6.61719C58.7598 6.44531 59.1133 6.32031 59.5195 6.24219C59.9297 6.16016 60.3398 6.11914 60.75 6.11914C61.1367 6.11914 61.4746 6.16797 61.7637 6.26562C62.0566 6.35938 62.3145 6.51562 62.5371 6.73438C62.7598 6.95312 62.9277 7.25391 63.041 7.63672C63.1582 8.01953 63.2168 8.48438 63.2168 9.03125V10.9062C63.2168 11.0664 63.2285 11.1875 63.252 11.2695C63.2793 11.3477 63.3086 11.3965 63.3398 11.416C63.3711 11.4316 63.4219 11.4434 63.4922 11.4512C63.6133 11.4629 63.7031 11.4746 63.7617 11.4863C63.8203 11.4941 63.8887 11.5078 63.9668 11.5273C64.0449 11.5469 64.0996 11.5723 64.1309 11.6035C64.166 11.6348 64.1836 11.6738 64.1836 11.7207C64.1836 12.1816 64.1191 12.4688 63.9902 12.582C63.8027 12.5508 63.5586 12.5352 63.2578 12.5352C62.9844 12.5352 62.7305 12.5488 62.4961 12.5762C62.4688 12.5566 62.4336 12.5293 62.3906 12.4941C62.3516 12.459 62.2969 12.3691 62.2266 12.2246C62.1562 12.0801 62.1211 11.918 62.1211 11.7383ZM59.9824 11.6504C60.3379 11.6504 60.7227 11.5527 61.1367 11.3574C61.5508 11.1582 61.8008 10.9785 61.8867 10.8184V9.78125C60.8203 9.97266 60.0996 10.1445 59.7246 10.2969C59.3535 10.4492 59.168 10.6641 59.168 10.9414C59.168 11.4141 59.4395 11.6504 59.9824 11.6504ZM68.7188 11.3633C68.8359 11.5859 68.8945 11.7949 68.8945 11.9902C68.8945 12.0996 68.8457 12.1953 68.748 12.2773C68.6543 12.3555 68.5312 12.416 68.3789 12.459C68.2266 12.502 68.0742 12.5332 67.9219 12.5527C67.7695 12.5723 67.6211 12.582 67.4766 12.582C67.2578 12.582 67.0547 12.5508 66.8672 12.4883C66.6797 12.4258 66.5 12.3242 66.3281 12.1836C66.1602 12.0391 66.0273 11.832 65.9297 11.5625C65.832 11.2891 65.7832 10.9648 65.7832 10.5898V7.19141H65.5312C65.0703 7.19141 64.8184 7.19336 64.7754 7.19727C64.6465 7.15039 64.582 7 64.582 6.74609C64.582 6.4375 64.6797 6.2832 64.875 6.2832H65.7832C65.7988 6.1582 65.8125 5.99609 65.8242 5.79688C65.8398 5.59375 65.8535 5.43359 65.8652 5.31641C65.877 5.19922 65.8945 5.06055 65.918 4.90039C65.9453 4.74023 65.9805 4.61523 66.0234 4.52539C66.0703 4.43164 66.1289 4.33984 66.1992 4.25C66.2695 4.16016 66.3594 4.0957 66.4688 4.05664C66.582 4.01367 66.7148 3.99219 66.8672 3.99219C66.9727 3.99219 67.0547 4.00977 67.1133 4.04492V6.2832H67.8926C68.3574 6.2832 68.6016 6.27344 68.625 6.25391C68.8203 6.25391 68.918 6.42188 68.918 6.75781C68.918 7.01172 68.8535 7.16211 68.7246 7.20898C68.5957 7.19727 68.3438 7.19141 67.9688 7.19141H67.1133V10.5547C67.1133 11.2031 67.3242 11.5273 67.7461 11.5273C68.0195 11.5273 68.3438 11.4727 68.7188 11.3633ZM69.6562 10.8359C69.4688 10.4062 69.375 9.92773 69.375 9.40039C69.375 8.87305 69.4688 8.39648 69.6562 7.9707C69.8438 7.54492 70.0938 7.20117 70.4062 6.93945C70.7188 6.67383 71.0684 6.4707 71.4551 6.33008C71.8418 6.18945 72.2461 6.11914 72.668 6.11914C73.0859 6.11914 73.4883 6.18945 73.875 6.33008C74.2617 6.4707 74.6094 6.67383 74.918 6.93945C75.2305 7.20117 75.4805 7.54492 75.668 7.9707C75.8555 8.39648 75.9492 8.87305 75.9492 9.40039C75.9492 9.92773 75.8555 10.4062 75.668 10.8359C75.4805 11.2617 75.2305 11.6074 74.918 11.873C74.6094 12.1387 74.2617 12.3418 73.875 12.4824C73.4883 12.623 73.0859 12.6934 72.668 12.6934C72.2461 12.6934 71.8418 12.623 71.4551 12.4824C71.0684 12.3418 70.7188 12.1387 70.4062 11.873C70.0938 11.6074 69.8438 11.2617 69.6562 10.8359ZM71.3145 7.71875C70.9355 8.12109 70.7461 8.68164 70.7461 9.40039C70.7461 10.1191 70.9355 10.6816 71.3145 11.0879C71.6934 11.4902 72.1406 11.6914 72.6562 11.6914C72.9023 11.6914 73.1387 11.6426 73.3652 11.5449C73.5918 11.4473 73.7949 11.3066 73.9746 11.123C74.1582 10.9355 74.3047 10.6934 74.4141 10.3965C74.5234 10.0996 74.5781 9.76758 74.5781 9.40039C74.5781 9.0332 74.5234 8.70117 74.4141 8.4043C74.3047 8.10742 74.1582 7.86719 73.9746 7.68359C73.7949 7.5 73.5918 7.35938 73.3652 7.26172C73.1387 7.16406 72.9023 7.11523 72.6562 7.11523C72.1406 7.11523 71.6934 7.31641 71.3145 7.71875ZM87.1406 3.89258V10.9824C87.1406 11.041 87.1426 11.0879 87.1465 11.123C87.1543 11.1543 87.168 11.1914 87.1875 11.2344C87.2109 11.2773 87.25 11.3105 87.3047 11.334C87.3594 11.3535 87.4297 11.3633 87.5156 11.3633C87.6953 11.3633 87.8496 11.3867 87.9785 11.4336C88.1074 11.4805 88.1719 11.5508 88.1719 11.6445C88.1719 12.1523 88.0879 12.4648 87.9199 12.582C87.5137 12.5508 87.0312 12.5352 86.4727 12.5352C85.9375 12.5352 85.4707 12.5508 85.0723 12.582C84.9668 12.5195 84.8887 12.3984 84.8379 12.2188C84.7871 12.0352 84.7617 11.8438 84.7617 11.6445C84.7617 11.5508 84.8262 11.4805 84.9551 11.4336C85.084 11.3867 85.2383 11.3633 85.418 11.3633C85.5703 11.3633 85.6699 11.332 85.7168 11.2695C85.7637 11.2031 85.7871 11.1113 85.7871 10.9941V5.3457C85.7871 5.22852 85.7637 5.13867 85.7168 5.07617C85.6699 5.00977 85.5703 4.97656 85.418 4.97656C85.2383 4.97656 85.084 4.95312 84.9551 4.90625C84.8262 4.85938 84.7617 4.78906 84.7617 4.69531C84.7617 4.28516 84.8066 3.97266 84.8965 3.75781C85.2832 3.78906 85.6543 3.80469 86.0098 3.80469C86.3418 3.80469 86.6699 3.78906 86.9941 3.75781C87.0918 3.75781 87.1406 3.80273 87.1406 3.89258ZM92.2559 8.79102C92.2598 8.61914 92.2617 8.26562 92.2617 7.73047V6.35352C92.2617 5.58008 92.2656 5.0957 92.2734 4.90039C92.1758 5.04492 92.0312 5.26758 91.8398 5.56836C91.6523 5.86914 91.5117 6.0918 91.418 6.23633C91.1562 6.58398 90.6738 7.33984 89.9707 8.50391C89.9238 8.58594 89.9004 8.64453 89.9004 8.67969C89.9004 8.73438 90.0117 8.76953 90.2344 8.78516C90.4609 8.80078 90.8262 8.80859 91.3301 8.80859C91.7598 8.80859 92.0684 8.80273 92.2559 8.79102ZM92.2617 10.9941V9.86328H90.5098C89.7441 9.86328 89.2715 9.81836 89.0918 9.72852C88.9355 9.5957 88.8105 9.38281 88.7168 9.08984C88.623 8.79688 88.5762 8.58789 88.5762 8.46289C88.5762 8.38086 88.5996 8.28906 88.6465 8.1875C89.377 6.99219 90.3379 5.61914 91.5293 4.06836C91.666 3.89648 91.9941 3.81055 92.5137 3.81055C92.5605 3.81055 92.6465 3.8125 92.7715 3.81641C92.8965 3.81641 93.0039 3.81641 93.0938 3.81641C93.4531 3.81641 93.6328 3.95703 93.6328 4.23828C93.6328 4.50781 93.6289 4.94727 93.6211 5.55664C93.6172 6.16211 93.6152 6.63086 93.6152 6.96289V8.70898C93.6152 8.74805 93.6328 8.76758 93.668 8.76758C93.8555 8.76758 94.082 8.76758 94.3477 8.76758C94.6133 8.76367 94.7832 8.76172 94.8574 8.76172C95.0254 8.76172 95.1445 8.7832 95.2148 8.82617C95.2852 8.86914 95.3301 8.9375 95.3496 9.03125C95.3457 9.28125 95.2773 9.50586 95.1445 9.70508C95.1055 9.77539 95.0137 9.82031 94.8691 9.83984C94.7246 9.85547 94.4609 9.86328 94.0781 9.86328H93.6152V10.9824C93.6152 11.041 93.6172 11.0879 93.6211 11.123C93.6289 11.1543 93.6426 11.1914 93.6621 11.2344C93.6855 11.2773 93.7246 11.3105 93.7793 11.334C93.834 11.3535 93.9043 11.3633 93.9902 11.3633C94.1699 11.3633 94.3242 11.3867 94.4531 11.4336C94.582 11.4805 94.6465 11.5508 94.6465 11.6445C94.6465 12.1523 94.5625 12.4648 94.3945 12.582C93.9883 12.5508 93.5059 12.5352 92.9473 12.5352C92.4121 12.5352 91.9453 12.5508 91.5469 12.582C91.4414 12.5195 91.3633 12.3984 91.3125 12.2188C91.2617 12.0352 91.2363 11.8438 91.2363 11.6445C91.2363 11.5508 91.3008 11.4805 91.4297 11.4336C91.5586 11.3867 91.7129 11.3633 91.8926 11.3633C92.0449 11.3633 92.1445 11.332 92.1914 11.2695C92.2383 11.2031 92.2617 11.1113 92.2617 10.9941ZM97.8574 9.11328V10.877C98.0645 11.1387 98.334 11.3418 98.666 11.4863C99.002 11.6309 99.3516 11.7031 99.7148 11.7031C100.211 11.7031 100.623 11.5078 100.951 11.1172C101.283 10.7266 101.449 10.1543 101.449 9.40039C101.449 8.67773 101.27 8.11719 100.91 7.71875C100.555 7.31641 100.127 7.11523 99.627 7.11523C99.1582 7.11523 98.7461 7.29297 98.3906 7.64844C98.0352 8 97.8574 8.48828 97.8574 9.11328ZM97.8574 12.002V13.4434C97.8574 13.502 97.8594 13.5469 97.8633 13.5781C97.8711 13.6133 97.8848 13.6523 97.9043 13.6953C97.9277 13.7383 97.9668 13.7695 98.0215 13.7891C98.0762 13.8125 98.1465 13.8242 98.2324 13.8242C98.3809 13.8242 98.5078 13.8477 98.6133 13.8945C98.7188 13.9414 98.7715 14.0117 98.7715 14.1055C98.7715 14.5625 98.707 14.8477 98.5781 14.9609C98.3164 14.9023 97.875 14.873 97.2539 14.873C96.5859 14.873 96.1055 14.9023 95.8125 14.9609C95.6836 14.8438 95.6191 14.5586 95.6191 14.1055C95.6191 14.0117 95.6719 13.9414 95.7773 13.8945C95.8828 13.8477 96.0098 13.8242 96.1582 13.8242C96.3105 13.8242 96.4102 13.791 96.457 13.7246C96.5039 13.6621 96.5273 13.5723 96.5273 13.4551V7.92969C96.5273 7.72266 96.4668 7.57617 96.3457 7.49023C96.2285 7.4043 96 7.35352 95.6602 7.33789C95.6094 7.32617 95.5762 7.30078 95.5605 7.26172C95.5488 7.22266 95.543 7.13867 95.543 7.00977C95.543 6.81055 95.5645 6.63477 95.6074 6.48242C95.6504 6.33008 95.6934 6.24219 95.7363 6.21875C96.0371 6.26172 96.3281 6.2832 96.6094 6.2832C96.7852 6.2832 96.9707 6.27344 97.166 6.25391C97.3613 6.23047 97.4648 6.21875 97.4766 6.21875C97.6133 6.21875 97.7012 6.25391 97.7402 6.32422C97.7832 6.39062 97.8047 6.54688 97.8047 6.79297V7.21484C98.0078 6.86328 98.2949 6.59375 98.666 6.40625C99.0371 6.21484 99.4219 6.11914 99.8203 6.11914C100.207 6.11914 100.576 6.18945 100.928 6.33008C101.283 6.4707 101.604 6.67383 101.889 6.93945C102.174 7.20117 102.4 7.54492 102.568 7.9707C102.74 8.39648 102.826 8.87305 102.826 9.40039C102.826 9.92773 102.74 10.4062 102.568 10.8359C102.396 11.2617 102.166 11.6074 101.877 11.873C101.592 12.1387 101.27 12.3418 100.91 12.4824C100.551 12.623 100.176 12.6934 99.7852 12.6934C99.0078 12.6934 98.3652 12.4629 97.8574 12.002ZM105.99 7.70117L106.693 8.5918L107.455 7.70117C107.518 7.62305 107.549 7.54492 107.549 7.4668C107.549 7.4082 107.523 7.36719 107.473 7.34375C107.426 7.32031 107.371 7.30859 107.309 7.30859C107.25 7.30469 107.195 7.28516 107.145 7.25C107.098 7.21094 107.074 7.1543 107.074 7.08008C107.074 6.92383 107.096 6.74023 107.139 6.5293C107.186 6.31445 107.232 6.17773 107.279 6.11914C107.604 6.2207 107.967 6.27148 108.369 6.27148C108.857 6.27148 109.26 6.2207 109.576 6.11914C109.729 6.19336 109.805 6.37891 109.805 6.67578C109.805 6.91406 109.762 7.08203 109.676 7.17969C109.594 7.27344 109.455 7.32031 109.26 7.32031C109.143 7.32031 109.037 7.33984 108.943 7.37891C108.854 7.41797 108.789 7.45703 108.75 7.49609C108.711 7.53516 108.662 7.58984 108.604 7.66016C108.6 7.66406 108.596 7.66992 108.592 7.67773C108.588 7.68164 108.584 7.68555 108.58 7.68945L107.232 9.27148L108.691 11.1055C108.695 11.1094 108.707 11.125 108.727 11.1523C108.75 11.1797 108.764 11.1973 108.768 11.2051C108.775 11.209 108.791 11.2246 108.814 11.252C108.842 11.2793 108.861 11.2969 108.873 11.3047C108.885 11.3125 108.904 11.3281 108.932 11.3516C108.963 11.3711 108.988 11.3867 109.008 11.3984C109.031 11.4062 109.059 11.418 109.09 11.4336C109.125 11.4453 109.158 11.4551 109.189 11.4629C109.225 11.4668 109.262 11.4727 109.301 11.4805C109.344 11.4844 109.389 11.4863 109.436 11.4863C109.607 11.4863 109.732 11.5273 109.811 11.6094C109.893 11.6875 109.934 11.8203 109.934 12.0078C109.934 12.1445 109.914 12.2773 109.875 12.4062C109.836 12.5352 109.785 12.6289 109.723 12.6875C109.352 12.5859 108.955 12.5352 108.533 12.5352C108.002 12.5352 107.551 12.5859 107.18 12.6875C107.117 12.6328 107.059 12.498 107.004 12.2832C106.949 12.0684 106.922 11.8828 106.922 11.7266C106.922 11.6562 106.949 11.6035 107.004 11.5684C107.062 11.5332 107.127 11.5137 107.197 11.5098C107.268 11.502 107.33 11.4883 107.385 11.4688C107.443 11.4492 107.473 11.4199 107.473 11.3809C107.477 11.3145 107.436 11.2266 107.35 11.1172L106.535 10.0859L105.656 11.1172C105.57 11.2266 105.529 11.3145 105.533 11.3809C105.533 11.4199 105.561 11.4492 105.615 11.4688C105.674 11.4883 105.738 11.502 105.809 11.5098C105.879 11.5137 105.941 11.5332 105.996 11.5684C106.055 11.6035 106.084 11.6562 106.084 11.7266C106.084 11.8828 106.057 12.0684 106.002 12.2832C105.947 12.498 105.889 12.6328 105.826 12.6875C105.475 12.5859 105.092 12.5352 104.678 12.5352C104.264 12.5352 103.871 12.5859 103.5 12.6875C103.438 12.6289 103.387 12.5352 103.348 12.4062C103.309 12.2773 103.289 12.1445 103.289 12.0078C103.289 11.8203 103.328 11.6875 103.406 11.6094C103.488 11.5273 103.615 11.4863 103.787 11.4863C103.834 11.4863 103.877 11.4844 103.916 11.4805C103.959 11.4727 103.996 11.4668 104.027 11.4629C104.062 11.4551 104.096 11.4453 104.127 11.4336C104.162 11.418 104.189 11.4062 104.209 11.3984C104.232 11.3867 104.258 11.3711 104.285 11.3516C104.316 11.3281 104.338 11.3125 104.35 11.3047C104.361 11.2969 104.379 11.2793 104.402 11.252C104.43 11.2246 104.445 11.209 104.449 11.2051C104.457 11.1973 104.471 11.1797 104.49 11.1523C104.514 11.125 104.527 11.1094 104.531 11.1055L105.996 9.40039L104.643 7.68945C104.529 7.54883 104.436 7.45703 104.361 7.41406C104.252 7.35156 104.119 7.32031 103.963 7.32031C103.768 7.32031 103.627 7.27344 103.541 7.17969C103.459 7.08203 103.418 6.91406 103.418 6.67578C103.418 6.37891 103.494 6.19336 103.646 6.11914C103.963 6.2207 104.365 6.27148 104.854 6.27148C105.361 6.27148 105.799 6.2207 106.166 6.11914C106.213 6.17773 106.258 6.31445 106.301 6.5293C106.348 6.74023 106.371 6.92383 106.371 7.08008C106.371 7.1543 106.346 7.21094 106.295 7.25C106.248 7.28516 106.193 7.30469 106.131 7.30859C106.072 7.30859 106.018 7.32031 105.967 7.34375C105.92 7.36719 105.896 7.4082 105.896 7.4668C105.896 7.54492 105.928 7.62305 105.99 7.70117ZM120.955 8.99609V10.5254C121.08 10.8535 121.318 11.1309 121.67 11.3574C122.021 11.5801 122.42 11.6914 122.865 11.6914C123.338 11.6914 123.746 11.4902 124.09 11.0879C124.434 10.6816 124.605 10.1191 124.605 9.40039C124.605 8.68164 124.422 8.12109 124.055 7.71875C123.688 7.31641 123.252 7.11523 122.748 7.11523C122.529 7.11523 122.314 7.15625 122.104 7.23828C121.893 7.31641 121.701 7.43164 121.529 7.58398C121.357 7.73633 121.219 7.93555 121.113 8.18164C121.008 8.42383 120.955 8.69531 120.955 8.99609ZM120.955 4.63672V7.09766C121.146 6.78516 121.42 6.54492 121.775 6.37695C122.135 6.20508 122.5 6.11914 122.871 6.11914C123.266 6.11914 123.646 6.18945 124.014 6.33008C124.381 6.4707 124.711 6.67383 125.004 6.93945C125.301 7.20117 125.537 7.54492 125.713 7.9707C125.893 8.39648 125.982 8.87305 125.982 9.40039C125.982 9.92773 125.895 10.4062 125.719 10.8359C125.543 11.2617 125.307 11.6074 125.01 11.873C124.717 12.1387 124.389 12.3418 124.025 12.4824C123.662 12.623 123.283 12.6934 122.889 12.6934C122.01 12.6934 121.225 12.3652 120.533 11.709L119.947 12.2949C119.736 12.4824 119.533 12.5762 119.338 12.5762C119.182 12.5762 119.053 12.5254 118.951 12.4238C118.85 12.3223 118.799 12.1953 118.799 12.043C118.799 11.8086 118.908 11.5898 119.127 11.3867L119.625 10.9297V5.45117C119.625 5.24414 119.564 5.09766 119.443 5.01172C119.326 4.92578 119.098 4.875 118.758 4.85938C118.707 4.84766 118.674 4.82227 118.658 4.7832C118.646 4.74414 118.641 4.66016 118.641 4.53125C118.641 4.33203 118.662 4.15625 118.705 4.00391C118.748 3.85156 118.791 3.76367 118.834 3.74023C119.158 3.7832 119.469 3.80469 119.766 3.80469C119.941 3.80469 120.127 3.79492 120.322 3.77539C120.518 3.75195 120.621 3.74023 120.633 3.74023C120.77 3.74023 120.857 3.77539 120.896 3.8457C120.939 3.91211 120.961 4.06836 120.961 4.31445C120.961 4.3418 120.959 4.39258 120.955 4.4668C120.955 4.53711 120.955 4.59375 120.955 4.63672ZM126.68 10.8359C126.492 10.4062 126.398 9.92773 126.398 9.40039C126.398 8.87305 126.492 8.39648 126.68 7.9707C126.867 7.54492 127.117 7.20117 127.43 6.93945C127.742 6.67383 128.092 6.4707 128.479 6.33008C128.865 6.18945 129.27 6.11914 129.691 6.11914C130.109 6.11914 130.512 6.18945 130.898 6.33008C131.285 6.4707 131.633 6.67383 131.941 6.93945C132.254 7.20117 132.504 7.54492 132.691 7.9707C132.879 8.39648 132.973 8.87305 132.973 9.40039C132.973 9.92773 132.879 10.4062 132.691 10.8359C132.504 11.2617 132.254 11.6074 131.941 11.873C131.633 12.1387 131.285 12.3418 130.898 12.4824C130.512 12.623 130.109 12.6934 129.691 12.6934C129.27 12.6934 128.865 12.623 128.479 12.4824C128.092 12.3418 127.742 12.1387 127.43 11.873C127.117 11.6074 126.867 11.2617 126.68 10.8359ZM128.338 7.71875C127.959 8.12109 127.77 8.68164 127.77 9.40039C127.77 10.1191 127.959 10.6816 128.338 11.0879C128.717 11.4902 129.164 11.6914 129.68 11.6914C129.926 11.6914 130.162 11.6426 130.389 11.5449C130.615 11.4473 130.818 11.3066 130.998 11.123C131.182 10.9355 131.328 10.6934 131.438 10.3965C131.547 10.0996 131.602 9.76758 131.602 9.40039C131.602 9.0332 131.547 8.70117 131.438 8.4043C131.328 8.10742 131.182 7.86719 130.998 7.68359C130.818 7.5 130.615 7.35938 130.389 7.26172C130.162 7.16406 129.926 7.11523 129.68 7.11523C129.164 7.11523 128.717 7.31641 128.338 7.71875ZM135.686 11.0645C135.686 11.123 135.688 11.1699 135.691 11.2051C135.699 11.2363 135.713 11.2734 135.732 11.3164C135.756 11.3594 135.795 11.3926 135.85 11.416C135.904 11.4355 135.975 11.4453 136.061 11.4453C136.209 11.4453 136.336 11.4688 136.441 11.5156C136.547 11.5625 136.6 11.6328 136.6 11.7266C136.6 12.1836 136.535 12.4688 136.406 12.582C136.07 12.5508 135.621 12.5352 135.059 12.5352C134.457 12.5352 133.984 12.5508 133.641 12.582C133.512 12.4648 133.447 12.1797 133.447 11.7266C133.447 11.6328 133.5 11.5625 133.605 11.5156C133.711 11.4688 133.838 11.4453 133.986 11.4453C134.139 11.4453 134.238 11.4141 134.285 11.3516C134.332 11.2852 134.355 11.1934 134.355 11.0762V5.45117C134.355 5.24414 134.295 5.09766 134.174 5.01172C134.057 4.92578 133.828 4.875 133.488 4.85938C133.438 4.84766 133.404 4.82227 133.389 4.7832C133.377 4.74414 133.371 4.66016 133.371 4.53125C133.371 4.33203 133.393 4.15625 133.436 4.00391C133.479 3.85156 133.521 3.76367 133.564 3.74023C133.889 3.7832 134.199 3.80469 134.496 3.80469C134.672 3.80469 134.857 3.79492 135.053 3.77539C135.248 3.75195 135.352 3.74023 135.363 3.74023C135.5 3.74023 135.588 3.77539 135.627 3.8457C135.67 3.91211 135.691 4.06836 135.691 4.31445C135.691 4.32227 135.691 4.33398 135.691 4.34961C135.688 4.90039 135.686 7.13867 135.686 11.0645ZM142.02 9.81641V8.28711C141.812 7.91602 141.539 7.62695 141.199 7.41992C140.859 7.21289 140.508 7.10938 140.145 7.10938C139.645 7.10938 139.223 7.30664 138.879 7.70117C138.539 8.0918 138.369 8.66211 138.369 9.41211C138.369 10.1309 138.553 10.6914 138.92 11.0938C139.287 11.4961 139.723 11.6973 140.227 11.6973C140.445 11.6973 140.66 11.6582 140.871 11.5801C141.082 11.498 141.273 11.3809 141.445 11.2285C141.617 11.0762 141.756 10.8789 141.861 10.6367C141.967 10.3906 142.02 10.1172 142.02 9.81641ZM143.35 4.63672V11.0645C143.35 11.1191 143.354 11.166 143.361 11.2051C143.369 11.2402 143.385 11.2793 143.408 11.3223C143.436 11.3613 143.479 11.3926 143.537 11.416C143.596 11.4395 143.672 11.4531 143.766 11.457C144.133 11.4727 144.316 11.5547 144.316 11.7031C144.316 12.1719 144.25 12.4648 144.117 12.582C143.902 12.5508 143.67 12.5352 143.42 12.5352C143.068 12.5352 142.725 12.5508 142.389 12.582C142.143 12.4688 142.02 12.1973 142.02 11.7676V11.7148C141.809 12.0273 141.51 12.2695 141.123 12.4414C140.736 12.6094 140.338 12.6934 139.928 12.6934C139.553 12.6934 139.193 12.623 138.85 12.4824C138.506 12.3418 138.193 12.1406 137.912 11.8789C137.635 11.6133 137.412 11.2676 137.244 10.8418C137.076 10.416 136.992 9.93945 136.992 9.41211C136.992 8.88477 137.08 8.4082 137.256 7.98242C137.432 7.55664 137.666 7.21289 137.959 6.95117C138.256 6.68555 138.586 6.48242 138.949 6.3418C139.312 6.20117 139.691 6.12891 140.086 6.125H140.121C140.891 6.125 141.523 6.41211 142.02 6.98633V5.45117C142.02 5.24414 141.959 5.09766 141.838 5.01172C141.721 4.92578 141.492 4.875 141.152 4.85938C141.102 4.84766 141.068 4.82227 141.053 4.7832C141.041 4.74414 141.035 4.66016 141.035 4.53125C141.035 4.33203 141.057 4.15625 141.1 4.00391C141.143 3.85156 141.186 3.76367 141.229 3.74023C141.553 3.7832 141.863 3.80469 142.16 3.80469C142.336 3.80469 142.521 3.79492 142.717 3.77539C142.912 3.75195 143.016 3.74023 143.027 3.74023C143.164 3.74023 143.252 3.77539 143.291 3.8457C143.334 3.91211 143.355 4.06836 143.355 4.31445C143.355 4.3418 143.354 4.39258 143.35 4.4668C143.35 4.53711 143.35 4.59375 143.35 4.63672ZM155.314 4.63672V8.61523L157.166 7.51367C157.365 7.36914 157.469 7.28906 157.477 7.27344C157.48 7.26953 157.482 7.26172 157.482 7.25C157.482 7.23047 157.459 7.21875 157.412 7.21484C157.369 7.20703 157.318 7.20117 157.26 7.19727C157.205 7.19336 157.154 7.16406 157.107 7.10938C157.064 7.05078 157.043 6.96484 157.043 6.85156C157.043 6.53516 157.096 6.32031 157.201 6.20703C157.463 6.25781 157.918 6.2832 158.566 6.2832C159.039 6.2832 159.434 6.25781 159.75 6.20703C159.875 6.26172 159.938 6.49609 159.938 6.91016C159.938 7.05469 159.924 7.15625 159.896 7.21484C159.869 7.27344 159.816 7.31445 159.738 7.33789C159.66 7.36133 159.57 7.38086 159.469 7.39648C159.371 7.4082 159.229 7.45117 159.041 7.52539C158.857 7.59961 158.666 7.70508 158.467 7.8418L157.049 8.76758C158.045 10.0098 158.611 10.7266 158.748 10.918C158.787 10.9727 158.836 11.0449 158.895 11.1348C158.957 11.2207 158.996 11.2734 159.012 11.293C159.031 11.3125 159.066 11.3398 159.117 11.375C159.168 11.4102 159.221 11.4316 159.275 11.4395C159.33 11.4434 159.408 11.4453 159.51 11.4453C159.998 11.4453 160.242 11.5391 160.242 11.7266C160.242 12.1797 160.178 12.4648 160.049 12.582C159.686 12.5508 159.266 12.5352 158.789 12.5352C158.406 12.5352 157.957 12.5508 157.441 12.582C157.426 12.5039 157.402 12.4004 157.371 12.2715C157.344 12.1387 157.322 12.0312 157.307 11.9492C157.295 11.8633 157.289 11.791 157.289 11.7324C157.289 11.5879 157.457 11.5 157.793 11.4688C157.734 11.375 157.637 11.2363 157.5 11.0527C157.363 10.8691 157.146 10.584 156.85 10.1973C156.553 9.80664 156.318 9.49805 156.146 9.27148L155.314 9.78711V11.0645C155.314 11.123 155.316 11.1699 155.32 11.2051C155.328 11.2363 155.342 11.2734 155.361 11.3164C155.385 11.3594 155.424 11.3926 155.479 11.416C155.533 11.4355 155.604 11.4453 155.689 11.4453C155.838 11.4453 155.965 11.4688 156.07 11.5156C156.176 11.5625 156.229 11.6328 156.229 11.7266C156.229 12.1836 156.164 12.4688 156.035 12.582C155.668 12.5508 155.211 12.5352 154.664 12.5352C154.078 12.5352 153.613 12.5508 153.27 12.582C153.141 12.4648 153.076 12.1797 153.076 11.7266C153.076 11.6328 153.129 11.5625 153.234 11.5156C153.34 11.4688 153.467 11.4453 153.615 11.4453C153.768 11.4453 153.867 11.4141 153.914 11.3516C153.961 11.2852 153.984 11.1934 153.984 11.0762V5.45117C153.984 5.24414 153.924 5.09766 153.803 5.01172C153.686 4.92578 153.457 4.875 153.117 4.85938C153.066 4.84766 153.033 4.82227 153.018 4.7832C153.006 4.74414 153 4.66016 153 4.53125C153 4.33203 153.021 4.15625 153.064 4.00391C153.107 3.85156 153.15 3.76367 153.193 3.74023C153.518 3.7832 153.828 3.80469 154.125 3.80469C154.301 3.80469 154.486 3.79492 154.682 3.77539C154.877 3.75195 154.98 3.74023 154.992 3.74023C155.129 3.74023 155.217 3.77539 155.256 3.8457C155.299 3.91211 155.32 4.06836 155.32 4.31445C155.32 4.3418 155.318 4.39258 155.314 4.4668C155.314 4.53711 155.314 4.59375 155.314 4.63672ZM166.729 9.07227C166.729 9.25195 166.682 9.39062 166.588 9.48828C166.498 9.58203 166.326 9.62891 166.072 9.62891H162.029C162.045 9.98438 162.107 10.291 162.217 10.5488C162.326 10.8066 162.471 11.0098 162.65 11.1582C162.83 11.3027 163.027 11.4102 163.242 11.4805C163.457 11.5469 163.691 11.5801 163.945 11.5801C164.301 11.5801 164.664 11.5176 165.035 11.3926C165.406 11.2676 165.742 11.0918 166.043 10.8652C166.266 11.127 166.377 11.3848 166.377 11.6387C166.377 11.8066 166.266 11.9727 166.043 12.1367C165.82 12.2969 165.52 12.4297 165.141 12.5352C164.762 12.6406 164.367 12.6934 163.957 12.6934C163.621 12.6934 163.301 12.6602 162.996 12.5938C162.695 12.5273 162.398 12.4121 162.105 12.248C161.816 12.0801 161.566 11.8691 161.355 11.6152C161.145 11.3613 160.975 11.0352 160.846 10.6367C160.717 10.2383 160.652 9.78711 160.652 9.2832C160.652 8.79102 160.746 8.33984 160.934 7.92969C161.121 7.51953 161.369 7.18555 161.678 6.92773C161.986 6.66602 162.33 6.46484 162.709 6.32422C163.092 6.18359 163.484 6.11328 163.887 6.11328C164.184 6.11328 164.469 6.15039 164.742 6.22461C165.016 6.29883 165.273 6.41602 165.516 6.57617C165.758 6.73242 165.969 6.92578 166.148 7.15625C166.328 7.38281 166.469 7.66016 166.57 7.98828C166.676 8.31641 166.729 8.67773 166.729 9.07227ZM165.545 8.7207C165.51 8.17773 165.338 7.76562 165.029 7.48438C164.725 7.19922 164.359 7.05664 163.934 7.05664C163.48 7.05664 163.068 7.20898 162.697 7.51367C162.33 7.81445 162.119 8.2168 162.064 8.7207H165.545ZM169.307 6.79297V7.17383C169.482 6.89258 169.744 6.64648 170.092 6.43555C170.439 6.22461 170.771 6.11914 171.088 6.11914C171.295 6.11914 171.492 6.1543 171.68 6.22461C171.867 6.29102 172.029 6.41211 172.166 6.58789C172.307 6.76367 172.377 6.97852 172.377 7.23242C172.377 7.92773 172.008 8.27539 171.27 8.27539C171.254 8.27539 171.238 8.27344 171.223 8.26953C171.207 8.26562 171.193 8.25977 171.182 8.25195C171.174 8.24414 171.166 8.23633 171.158 8.22852C171.15 8.2207 171.143 8.20898 171.135 8.19336C171.131 8.17773 171.127 8.16406 171.123 8.15234C171.119 8.14062 171.115 8.12305 171.111 8.09961C171.107 8.07227 171.104 8.05078 171.1 8.03516C171.1 8.01953 171.098 7.99805 171.094 7.9707C171.094 7.93945 171.092 7.91406 171.088 7.89453L171.018 7.28516C170.912 7.23438 170.797 7.20898 170.672 7.20898C170.445 7.20898 170.217 7.29297 169.986 7.46094C169.76 7.625 169.592 7.81641 169.482 8.03516V11C169.482 11.0586 169.484 11.1055 169.488 11.1406C169.496 11.1719 169.51 11.209 169.529 11.252C169.553 11.2949 169.592 11.3281 169.646 11.3516C169.701 11.3711 169.771 11.3809 169.857 11.3809C170.006 11.3809 170.133 11.4043 170.238 11.4512C170.344 11.498 170.396 11.5684 170.396 11.6621C170.396 11.8496 170.365 12.0352 170.303 12.2188C170.24 12.4023 170.148 12.5234 170.027 12.582C169.754 12.5508 169.354 12.5352 168.826 12.5352C168.299 12.5352 167.895 12.5508 167.613 12.582C167.484 12.5234 167.391 12.4043 167.332 12.2246C167.273 12.041 167.244 11.8535 167.244 11.6621C167.244 11.5684 167.297 11.498 167.402 11.4512C167.508 11.4043 167.635 11.3809 167.783 11.3809C167.936 11.3809 168.035 11.3496 168.082 11.2871C168.129 11.2207 168.152 11.1289 168.152 11.0117V7.92969C168.152 7.72266 168.092 7.57617 167.971 7.49023C167.854 7.4043 167.625 7.35352 167.285 7.33789C167.234 7.32617 167.201 7.30078 167.186 7.26172C167.174 7.22266 167.168 7.13867 167.168 7.00977C167.168 6.81055 167.189 6.63477 167.232 6.48242C167.275 6.33008 167.318 6.24219 167.361 6.21875C167.639 6.26172 167.91 6.2832 168.176 6.2832C168.34 6.2832 168.512 6.27344 168.691 6.25391C168.875 6.23047 168.973 6.21875 168.984 6.21875C169.121 6.21875 169.209 6.25391 169.248 6.32422C169.287 6.39062 169.307 6.54688 169.307 6.79297ZM180.205 12.582C179.826 12.5508 179.484 12.5352 179.18 12.5352C178.98 12.5352 178.764 12.543 178.529 12.5586C178.295 12.5742 178.141 12.582 178.066 12.582C177.934 12.582 177.867 12.4336 177.867 12.1367V8.62695C177.867 8.11914 177.785 7.74805 177.621 7.51367C177.457 7.27539 177.242 7.15625 176.977 7.15625C176.703 7.15625 176.402 7.23438 176.074 7.39062C175.75 7.54297 175.445 7.73828 175.16 7.97656V11.0645C175.16 11.123 175.162 11.1699 175.166 11.2051C175.174 11.2363 175.188 11.2734 175.207 11.3164C175.23 11.3594 175.27 11.3926 175.324 11.416C175.379 11.4355 175.449 11.4453 175.535 11.4453C175.684 11.4453 175.811 11.4688 175.916 11.5156C176.021 11.5625 176.074 11.6328 176.074 11.7266C176.074 12.1836 176.01 12.4688 175.881 12.582C175.643 12.5508 175.195 12.5352 174.539 12.5352C173.883 12.5352 173.408 12.5508 173.115 12.582C172.986 12.4648 172.922 12.1797 172.922 11.7266C172.922 11.6328 172.975 11.5625 173.08 11.5156C173.186 11.4688 173.312 11.4453 173.461 11.4453C173.613 11.4453 173.713 11.4141 173.76 11.3516C173.807 11.2852 173.83 11.1934 173.83 11.0762V7.92969C173.83 7.72266 173.77 7.57617 173.648 7.49023C173.531 7.4043 173.303 7.35352 172.963 7.33789C172.912 7.32617 172.879 7.30078 172.863 7.26172C172.852 7.22266 172.846 7.13867 172.846 7.00977C172.846 6.81055 172.867 6.63477 172.91 6.48242C172.953 6.33008 172.996 6.24219 173.039 6.21875C173.297 6.26172 173.549 6.2832 173.795 6.2832C173.971 6.2832 174.156 6.27344 174.352 6.25391C174.547 6.23047 174.65 6.21875 174.662 6.21875C174.799 6.21875 174.887 6.25391 174.926 6.32422C174.969 6.39062 174.99 6.54688 174.99 6.79297C174.99 6.82031 174.988 6.87109 174.984 6.94531C174.984 7.01562 174.984 7.07227 174.984 7.11523C175.32 6.81836 175.701 6.57812 176.127 6.39453C176.553 6.21094 176.963 6.11914 177.357 6.11914C177.904 6.11914 178.348 6.3125 178.688 6.69922C179.027 7.08594 179.197 7.69336 179.197 8.52148V11.041C179.197 11.2949 179.295 11.4297 179.49 11.4453C179.529 11.4492 179.58 11.4531 179.643 11.457C179.709 11.4609 179.76 11.4648 179.795 11.4688C179.834 11.4727 179.881 11.4785 179.936 11.4863C179.99 11.4902 180.033 11.4961 180.064 11.5039C180.096 11.5078 180.131 11.5156 180.17 11.5273C180.213 11.5352 180.246 11.5449 180.27 11.5566C180.293 11.5684 180.314 11.582 180.334 11.5977C180.357 11.6133 180.373 11.6328 180.381 11.6562C180.393 11.6758 180.398 11.6992 180.398 11.7266C180.398 12.1797 180.334 12.4648 180.205 12.582ZM182.109 5.24023C182.016 5.24023 181.92 5.23242 181.822 5.2168C181.725 5.19727 181.617 5.16406 181.5 5.11719C181.387 5.07031 181.293 4.99609 181.219 4.89453C181.148 4.79297 181.113 4.67188 181.113 4.53125C181.113 4.05078 181.438 3.81055 182.086 3.81055C182.27 3.81055 182.424 3.83398 182.549 3.88086C182.678 3.92773 182.771 3.99023 182.83 4.06836C182.893 4.14648 182.936 4.22266 182.959 4.29688C182.982 4.37109 182.994 4.45117 182.994 4.53711C182.994 4.71289 182.939 4.85742 182.83 4.9707C182.721 5.08398 182.604 5.1582 182.479 5.19336C182.357 5.22461 182.234 5.24023 182.109 5.24023ZM183.076 6.79297V11.0645C183.076 11.123 183.078 11.1699 183.082 11.2051C183.09 11.2363 183.104 11.2734 183.123 11.3164C183.146 11.3594 183.186 11.3926 183.24 11.416C183.295 11.4355 183.365 11.4453 183.451 11.4453C183.6 11.4453 183.727 11.4688 183.832 11.5156C183.938 11.5625 183.99 11.6328 183.99 11.7266C183.99 12.1836 183.926 12.4688 183.797 12.582C183.445 12.5508 183.016 12.5352 182.508 12.5352C181.98 12.5352 181.488 12.5508 181.031 12.582C180.902 12.4648 180.838 12.1797 180.838 11.7266C180.838 11.6328 180.891 11.5625 180.996 11.5156C181.102 11.4688 181.229 11.4453 181.377 11.4453C181.529 11.4453 181.629 11.4141 181.676 11.3516C181.723 11.2852 181.746 11.1934 181.746 11.0762V7.92969C181.746 7.72266 181.686 7.57617 181.564 7.49023C181.447 7.4043 181.219 7.35352 180.879 7.33789C180.828 7.32617 180.795 7.30078 180.779 7.26172C180.768 7.22266 180.762 7.13867 180.762 7.00977C180.762 6.81055 180.783 6.63477 180.826 6.48242C180.869 6.33008 180.912 6.24219 180.955 6.21875C181.256 6.26172 181.547 6.2832 181.828 6.2832C182.016 6.2832 182.213 6.27344 182.42 6.25391C182.627 6.23047 182.736 6.21875 182.748 6.21875C182.885 6.21875 182.973 6.25391 183.012 6.32422C183.055 6.39062 183.076 6.54688 183.076 6.79297ZM191.771 12.582C191.393 12.5508 191.051 12.5352 190.746 12.5352C190.547 12.5352 190.33 12.543 190.096 12.5586C189.861 12.5742 189.707 12.582 189.633 12.582C189.5 12.582 189.434 12.4336 189.434 12.1367V8.62695C189.434 8.11914 189.352 7.74805 189.188 7.51367C189.023 7.27539 188.809 7.15625 188.543 7.15625C188.27 7.15625 187.969 7.23438 187.641 7.39062C187.316 7.54297 187.012 7.73828 186.727 7.97656V11.0645C186.727 11.123 186.729 11.1699 186.732 11.2051C186.74 11.2363 186.754 11.2734 186.773 11.3164C186.797 11.3594 186.836 11.3926 186.891 11.416C186.945 11.4355 187.016 11.4453 187.102 11.4453C187.25 11.4453 187.377 11.4688 187.482 11.5156C187.588 11.5625 187.641 11.6328 187.641 11.7266C187.641 12.1836 187.576 12.4688 187.447 12.582C187.209 12.5508 186.762 12.5352 186.105 12.5352C185.449 12.5352 184.975 12.5508 184.682 12.582C184.553 12.4648 184.488 12.1797 184.488 11.7266C184.488 11.6328 184.541 11.5625 184.646 11.5156C184.752 11.4688 184.879 11.4453 185.027 11.4453C185.18 11.4453 185.279 11.4141 185.326 11.3516C185.373 11.2852 185.396 11.1934 185.396 11.0762V7.92969C185.396 7.72266 185.336 7.57617 185.215 7.49023C185.098 7.4043 184.869 7.35352 184.529 7.33789C184.479 7.32617 184.445 7.30078 184.43 7.26172C184.418 7.22266 184.412 7.13867 184.412 7.00977C184.412 6.81055 184.434 6.63477 184.477 6.48242C184.52 6.33008 184.562 6.24219 184.605 6.21875C184.863 6.26172 185.115 6.2832 185.361 6.2832C185.537 6.2832 185.723 6.27344 185.918 6.25391C186.113 6.23047 186.217 6.21875 186.229 6.21875C186.365 6.21875 186.453 6.25391 186.492 6.32422C186.535 6.39062 186.557 6.54688 186.557 6.79297C186.557 6.82031 186.555 6.87109 186.551 6.94531C186.551 7.01562 186.551 7.07227 186.551 7.11523C186.887 6.81836 187.268 6.57812 187.693 6.39453C188.119 6.21094 188.529 6.11914 188.924 6.11914C189.471 6.11914 189.914 6.3125 190.254 6.69922C190.594 7.08594 190.764 7.69336 190.764 8.52148V11.041C190.764 11.2949 190.861 11.4297 191.057 11.4453C191.096 11.4492 191.146 11.4531 191.209 11.457C191.275 11.4609 191.326 11.4648 191.361 11.4688C191.4 11.4727 191.447 11.4785 191.502 11.4863C191.557 11.4902 191.6 11.4961 191.631 11.5039C191.662 11.5078 191.697 11.5156 191.736 11.5273C191.779 11.5352 191.812 11.5449 191.836 11.5566C191.859 11.5684 191.881 11.582 191.9 11.5977C191.924 11.6133 191.939 11.6328 191.947 11.6562C191.959 11.6758 191.965 11.6992 191.965 11.7266C191.965 12.1797 191.9 12.4648 191.771 12.582ZM198.527 13.2969C198.527 13.6445 198.469 13.9453 198.352 14.1992C198.234 14.457 198.08 14.6621 197.889 14.8145C197.697 14.9707 197.453 15.0957 197.156 15.1895C196.863 15.2832 196.562 15.3457 196.254 15.377C195.949 15.4121 195.598 15.4297 195.199 15.4297C194.465 15.4297 193.838 15.3457 193.318 15.1777C192.803 15.0137 192.545 14.793 192.545 14.5156C192.545 13.9453 192.705 13.3008 193.025 12.582C192.576 12.4297 192.352 12.1133 192.352 11.6328C192.352 11.1719 192.637 10.707 193.207 10.2383C192.918 10.0234 192.699 9.76758 192.551 9.4707C192.406 9.17383 192.334 8.86523 192.334 8.54492C192.334 8.24023 192.402 7.94336 192.539 7.6543C192.676 7.36133 192.863 7.10156 193.102 6.875C193.34 6.64844 193.635 6.4668 193.986 6.33008C194.338 6.18945 194.715 6.11914 195.117 6.11914C195.457 6.11914 195.744 6.14844 195.979 6.20703C196.213 6.26562 196.439 6.36133 196.658 6.49414C196.662 6.49023 196.703 6.44531 196.781 6.35938C196.859 6.27344 196.932 6.20117 196.998 6.14258C197.068 6.08398 197.16 6.01562 197.273 5.9375C197.387 5.85938 197.516 5.80078 197.66 5.76172C197.809 5.71875 197.963 5.69727 198.123 5.69727C198.381 5.69727 198.543 5.72656 198.609 5.78516C198.676 5.83984 198.709 5.95117 198.709 6.11914V6.21875C198.709 6.30469 198.707 6.375 198.703 6.42969C198.703 6.48438 198.693 6.53711 198.674 6.58789C198.654 6.63477 198.637 6.67188 198.621 6.69922C198.605 6.72656 198.572 6.75195 198.521 6.77539C198.471 6.79883 198.424 6.81641 198.381 6.82812C198.342 6.83594 198.271 6.84375 198.17 6.85156C198.072 6.85938 197.982 6.86328 197.9 6.86328C197.822 6.86328 197.705 6.86328 197.549 6.86328C197.514 6.86328 197.455 6.86133 197.373 6.85742C197.295 6.85352 197.234 6.85156 197.191 6.85156C197.457 7.03125 197.668 7.2793 197.824 7.5957C197.98 7.91211 198.059 8.25586 198.059 8.62695C198.059 9.24805 197.809 9.76758 197.309 10.1855C196.812 10.6035 196.127 10.8125 195.252 10.8125C195.057 10.8125 194.867 10.7988 194.684 10.7715C194.5 10.7402 194.332 10.7051 194.18 10.666C194.027 10.623 193.949 10.6016 193.945 10.6016C193.816 10.8594 193.752 11.1152 193.752 11.3691C193.752 11.4902 193.84 11.5762 194.016 11.627C194.191 11.6777 194.42 11.7051 194.701 11.709C194.982 11.7129 195.291 11.7148 195.627 11.7148C195.967 11.7109 196.307 11.7285 196.646 11.7676C196.986 11.8066 197.297 11.873 197.578 11.9668C197.859 12.0605 198.088 12.2207 198.264 12.4473C198.439 12.6699 198.527 12.9531 198.527 13.2969ZM195.188 9.81641C195.492 9.81641 195.756 9.78125 195.979 9.71094C196.201 9.63672 196.373 9.53711 196.494 9.41211C196.615 9.2832 196.703 9.14648 196.758 9.00195C196.816 8.85352 196.846 8.69141 196.846 8.51562C196.846 8.12891 196.707 7.79688 196.43 7.51953C196.156 7.24219 195.75 7.10352 195.211 7.10352C194.676 7.10352 194.273 7.24023 194.004 7.51367C193.734 7.7832 193.6 8.11523 193.6 8.50977C193.6 8.87695 193.727 9.1875 193.98 9.44141C194.238 9.69141 194.641 9.81641 195.188 9.81641ZM194.514 12.7871C194.092 12.7598 193.797 12.7246 193.629 12.6816C193.629 12.8496 193.629 12.9746 193.629 13.0566C193.633 13.1426 193.639 13.2539 193.646 13.3906C193.658 13.5312 193.674 13.6387 193.693 13.7129C193.717 13.7871 193.748 13.8652 193.787 13.9473C193.826 14.0332 193.877 14.0977 193.939 14.1406C194.002 14.1836 194.076 14.2129 194.162 14.2285C194.654 14.3184 195.102 14.3633 195.504 14.3633C195.832 14.3633 196.105 14.3398 196.324 14.293C196.547 14.25 196.715 14.1855 196.828 14.0996C196.945 14.0137 197.025 13.918 197.068 13.8125C197.115 13.7109 197.139 13.5879 197.139 13.4434C197.139 13.0059 196.645 12.7871 195.656 12.7871H194.514ZM204.48 3.89258V10.9824C204.48 11.041 204.482 11.0879 204.486 11.123C204.494 11.1543 204.508 11.1914 204.527 11.2344C204.551 11.2773 204.59 11.3105 204.645 11.334C204.699 11.3535 204.77 11.3633 204.855 11.3633C205.035 11.3633 205.189 11.3867 205.318 11.4336C205.447 11.4805 205.512 11.5508 205.512 11.6445C205.512 12.1523 205.428 12.4648 205.26 12.582C204.854 12.5508 204.371 12.5352 203.812 12.5352C203.277 12.5352 202.811 12.5508 202.412 12.582C202.307 12.5195 202.229 12.3984 202.178 12.2188C202.127 12.0352 202.102 11.8438 202.102 11.6445C202.102 11.5508 202.166 11.4805 202.295 11.4336C202.424 11.3867 202.578 11.3633 202.758 11.3633C202.91 11.3633 203.01 11.332 203.057 11.2695C203.104 11.2031 203.127 11.1113 203.127 10.9941V5.3457C203.127 5.22852 203.104 5.13867 203.057 5.07617C203.01 5.00977 202.91 4.97656 202.758 4.97656C202.578 4.97656 202.424 4.95312 202.295 4.90625C202.166 4.85938 202.102 4.78906 202.102 4.69531C202.102 4.28516 202.146 3.97266 202.236 3.75781C202.623 3.78906 202.994 3.80469 203.35 3.80469C203.682 3.80469 204.01 3.78906 204.334 3.75781C204.432 3.75781 204.48 3.80273 204.48 3.89258ZM208.025 9.11328V10.877C208.232 11.1387 208.502 11.3418 208.834 11.4863C209.17 11.6309 209.52 11.7031 209.883 11.7031C210.379 11.7031 210.791 11.5078 211.119 11.1172C211.451 10.7266 211.617 10.1543 211.617 9.40039C211.617 8.67773 211.438 8.11719 211.078 7.71875C210.723 7.31641 210.295 7.11523 209.795 7.11523C209.326 7.11523 208.914 7.29297 208.559 7.64844C208.203 8 208.025 8.48828 208.025 9.11328ZM208.025 12.002V13.4434C208.025 13.502 208.027 13.5469 208.031 13.5781C208.039 13.6133 208.053 13.6523 208.072 13.6953C208.096 13.7383 208.135 13.7695 208.189 13.7891C208.244 13.8125 208.314 13.8242 208.4 13.8242C208.549 13.8242 208.676 13.8477 208.781 13.8945C208.887 13.9414 208.939 14.0117 208.939 14.1055C208.939 14.5625 208.875 14.8477 208.746 14.9609C208.484 14.9023 208.043 14.873 207.422 14.873C206.754 14.873 206.273 14.9023 205.98 14.9609C205.852 14.8438 205.787 14.5586 205.787 14.1055C205.787 14.0117 205.84 13.9414 205.945 13.8945C206.051 13.8477 206.178 13.8242 206.326 13.8242C206.479 13.8242 206.578 13.791 206.625 13.7246C206.672 13.6621 206.695 13.5723 206.695 13.4551V7.92969C206.695 7.72266 206.635 7.57617 206.514 7.49023C206.396 7.4043 206.168 7.35352 205.828 7.33789C205.777 7.32617 205.744 7.30078 205.729 7.26172C205.717 7.22266 205.711 7.13867 205.711 7.00977C205.711 6.81055 205.732 6.63477 205.775 6.48242C205.818 6.33008 205.861 6.24219 205.904 6.21875C206.205 6.26172 206.496 6.2832 206.777 6.2832C206.953 6.2832 207.139 6.27344 207.334 6.25391C207.529 6.23047 207.633 6.21875 207.645 6.21875C207.781 6.21875 207.869 6.25391 207.908 6.32422C207.951 6.39062 207.973 6.54688 207.973 6.79297V7.21484C208.176 6.86328 208.463 6.59375 208.834 6.40625C209.205 6.21484 209.59 6.11914 209.988 6.11914C210.375 6.11914 210.744 6.18945 211.096 6.33008C211.451 6.4707 211.771 6.67383 212.057 6.93945C212.342 7.20117 212.568 7.54492 212.736 7.9707C212.908 8.39648 212.994 8.87305 212.994 9.40039C212.994 9.92773 212.908 10.4062 212.736 10.8359C212.564 11.2617 212.334 11.6074 212.045 11.873C211.76 12.1387 211.438 12.3418 211.078 12.4824C210.719 12.623 210.344 12.6934 209.953 12.6934C209.176 12.6934 208.533 12.4629 208.025 12.002ZM216.158 7.70117L216.861 8.5918L217.623 7.70117C217.686 7.62305 217.717 7.54492 217.717 7.4668C217.717 7.4082 217.691 7.36719 217.641 7.34375C217.594 7.32031 217.539 7.30859 217.477 7.30859C217.418 7.30469 217.363 7.28516 217.312 7.25C217.266 7.21094 217.242 7.1543 217.242 7.08008C217.242 6.92383 217.264 6.74023 217.307 6.5293C217.354 6.31445 217.4 6.17773 217.447 6.11914C217.771 6.2207 218.135 6.27148 218.537 6.27148C219.025 6.27148 219.428 6.2207 219.744 6.11914C219.896 6.19336 219.973 6.37891 219.973 6.67578C219.973 6.91406 219.93 7.08203 219.844 7.17969C219.762 7.27344 219.623 7.32031 219.428 7.32031C219.311 7.32031 219.205 7.33984 219.111 7.37891C219.021 7.41797 218.957 7.45703 218.918 7.49609C218.879 7.53516 218.83 7.58984 218.771 7.66016C218.768 7.66406 218.764 7.66992 218.76 7.67773C218.756 7.68164 218.752 7.68555 218.748 7.68945L217.4 9.27148L218.859 11.1055C218.863 11.1094 218.875 11.125 218.895 11.1523C218.918 11.1797 218.932 11.1973 218.936 11.2051C218.943 11.209 218.959 11.2246 218.982 11.252C219.01 11.2793 219.029 11.2969 219.041 11.3047C219.053 11.3125 219.072 11.3281 219.1 11.3516C219.131 11.3711 219.156 11.3867 219.176 11.3984C219.199 11.4062 219.227 11.418 219.258 11.4336C219.293 11.4453 219.326 11.4551 219.357 11.4629C219.393 11.4668 219.43 11.4727 219.469 11.4805C219.512 11.4844 219.557 11.4863 219.604 11.4863C219.775 11.4863 219.9 11.5273 219.979 11.6094C220.061 11.6875 220.102 11.8203 220.102 12.0078C220.102 12.1445 220.082 12.2773 220.043 12.4062C220.004 12.5352 219.953 12.6289 219.891 12.6875C219.52 12.5859 219.123 12.5352 218.701 12.5352C218.17 12.5352 217.719 12.5859 217.348 12.6875C217.285 12.6328 217.227 12.498 217.172 12.2832C217.117 12.0684 217.09 11.8828 217.09 11.7266C217.09 11.6562 217.117 11.6035 217.172 11.5684C217.23 11.5332 217.295 11.5137 217.365 11.5098C217.436 11.502 217.498 11.4883 217.553 11.4688C217.611 11.4492 217.641 11.4199 217.641 11.3809C217.645 11.3145 217.604 11.2266 217.518 11.1172L216.703 10.0859L215.824 11.1172C215.738 11.2266 215.697 11.3145 215.701 11.3809C215.701 11.4199 215.729 11.4492 215.783 11.4688C215.842 11.4883 215.906 11.502 215.977 11.5098C216.047 11.5137 216.109 11.5332 216.164 11.5684C216.223 11.6035 216.252 11.6562 216.252 11.7266C216.252 11.8828 216.225 12.0684 216.17 12.2832C216.115 12.498 216.057 12.6328 215.994 12.6875C215.643 12.5859 215.26 12.5352 214.846 12.5352C214.432 12.5352 214.039 12.5859 213.668 12.6875C213.605 12.6289 213.555 12.5352 213.516 12.4062C213.477 12.2773 213.457 12.1445 213.457 12.0078C213.457 11.8203 213.496 11.6875 213.574 11.6094C213.656 11.5273 213.783 11.4863 213.955 11.4863C214.002 11.4863 214.045 11.4844 214.084 11.4805C214.127 11.4727 214.164 11.4668 214.195 11.4629C214.23 11.4551 214.264 11.4453 214.295 11.4336C214.33 11.418 214.357 11.4062 214.377 11.3984C214.4 11.3867 214.426 11.3711 214.453 11.3516C214.484 11.3281 214.506 11.3125 214.518 11.3047C214.529 11.2969 214.547 11.2793 214.57 11.252C214.598 11.2246 214.613 11.209 214.617 11.2051C214.625 11.1973 214.639 11.1797 214.658 11.1523C214.682 11.125 214.695 11.1094 214.699 11.1055L216.164 9.40039L214.811 7.68945C214.697 7.54883 214.604 7.45703 214.529 7.41406C214.42 7.35156 214.287 7.32031 214.131 7.32031C213.936 7.32031 213.795 7.27344 213.709 7.17969C213.627 7.08203 213.586 6.91406 213.586 6.67578C213.586 6.37891 213.662 6.19336 213.814 6.11914C214.131 6.2207 214.533 6.27148 215.021 6.27148C215.529 6.27148 215.967 6.2207 216.334 6.11914C216.381 6.17773 216.426 6.31445 216.469 6.5293C216.516 6.74023 216.539 6.92383 216.539 7.08008C216.539 7.1543 216.514 7.21094 216.463 7.25C216.416 7.28516 216.361 7.30469 216.299 7.30859C216.24 7.30859 216.186 7.32031 216.135 7.34375C216.088 7.36719 216.064 7.4082 216.064 7.4668C216.064 7.54492 216.096 7.62305 216.158 7.70117Z" fill="black"/>
<path d="M79.6523 13.0332V3.34766C79.6523 3.19141 79.7109 3.08594 79.8281 3.03125C79.9492 2.97656 80.1543 2.94922 80.4434 2.94922C80.6543 2.94922 80.8008 2.96875 80.8828 3.00781C80.9648 3.04297 81.0059 3.12305 81.0059 3.24805V12.9043C81.0059 13.0332 80.9883 13.1387 80.9531 13.2207C80.9219 13.3027 80.8691 13.3594 80.7949 13.3906C80.7246 13.4258 80.6562 13.4473 80.5898 13.4551C80.5273 13.4668 80.4395 13.4727 80.3262 13.4727C80.248 13.4727 80.1836 13.4707 80.1328 13.4668C80.0859 13.4668 80.0273 13.459 79.957 13.4434C79.8906 13.4277 79.8379 13.4043 79.7988 13.373C79.7598 13.3418 79.7246 13.2969 79.6934 13.2383C79.666 13.1836 79.6523 13.1152 79.6523 13.0332ZM113.637 13.0332V3.34766C113.637 3.19141 113.695 3.08594 113.812 3.03125C113.934 2.97656 114.139 2.94922 114.428 2.94922C114.639 2.94922 114.785 2.96875 114.867 3.00781C114.949 3.04297 114.99 3.12305 114.99 3.24805V12.9043C114.99 13.0332 114.973 13.1387 114.938 13.2207C114.906 13.3027 114.854 13.3594 114.779 13.3906C114.709 13.4258 114.641 13.4473 114.574 13.4551C114.512 13.4668 114.424 13.4727 114.311 13.4727C114.232 13.4727 114.168 13.4707 114.117 13.4668C114.07 13.4668 114.012 13.459 113.941 13.4434C113.875 13.4277 113.822 13.4043 113.783 13.373C113.744 13.3418 113.709 13.2969 113.678 13.2383C113.65 13.1836 113.637 13.1152 113.637 13.0332ZM147.984 13.0332V3.34766C147.984 3.19141 148.043 3.08594 148.16 3.03125C148.281 2.97656 148.486 2.94922 148.775 2.94922C148.986 2.94922 149.133 2.96875 149.215 3.00781C149.297 3.04297 149.338 3.12305 149.338 3.24805V12.9043C149.338 13.0332 149.32 13.1387 149.285 13.2207C149.254 13.3027 149.201 13.3594 149.127 13.3906C149.057 13.4258 148.988 13.4473 148.922 13.4551C148.859 13.4668 148.771 13.4727 148.658 13.4727C148.58 13.4727 148.516 13.4707 148.465 13.4668C148.418 13.4668 148.359 13.459 148.289 13.4434C148.223 13.4277 148.17 13.4043 148.131 13.373C148.092 13.3418 148.057 13.2969 148.025 13.2383C147.998 13.1836 147.984 13.1152 147.984 13.0332Z" fill="#7C4663"/>
<path d="M2.49023 4.63672V7.11523C2.76758 6.82227 3.09961 6.58203 3.48633 6.39453C3.87305 6.20703 4.28711 6.11328 4.72852 6.11328C4.98242 6.11328 5.21484 6.15625 5.42578 6.24219C5.64062 6.32812 5.83594 6.46094 6.01172 6.64062C6.19141 6.82031 6.33203 7.07031 6.43359 7.39062C6.53516 7.71094 6.58594 8.08789 6.58594 8.52148V10.9062C6.58594 11.2773 6.68359 11.4707 6.87891 11.4863C6.91016 11.4902 6.95312 11.4941 7.00781 11.498C7.06641 11.502 7.11133 11.5059 7.14258 11.5098C7.17773 11.5137 7.21875 11.5195 7.26562 11.5273C7.3125 11.5312 7.34961 11.5371 7.37695 11.5449C7.4043 11.5488 7.43555 11.5566 7.4707 11.5684C7.50977 11.5762 7.53906 11.5859 7.55859 11.5977C7.57812 11.6094 7.59766 11.623 7.61719 11.6387C7.63672 11.6543 7.65039 11.6738 7.6582 11.6973C7.66602 11.7168 7.66992 11.7402 7.66992 11.7676C7.66992 12.1973 7.58594 12.4688 7.41797 12.582C7.08594 12.5508 6.76172 12.5352 6.44531 12.5352C6.28516 12.5352 6.10547 12.543 5.90625 12.5586C5.70703 12.5742 5.55664 12.582 5.45508 12.582C5.41211 12.582 5.37695 12.5742 5.34961 12.5586C5.32617 12.5469 5.30469 12.5098 5.28516 12.4473C5.26562 12.3848 5.25586 12.2949 5.25586 12.1777V8.62695C5.25586 8.11914 5.16797 7.74805 4.99219 7.51367C4.82031 7.27539 4.5918 7.15625 4.30664 7.15625C4.0332 7.15625 3.73242 7.23828 3.4043 7.40234C3.08008 7.56641 2.77539 7.77734 2.49023 8.03516V11.0645C2.49023 11.123 2.49219 11.1699 2.49609 11.2051C2.50391 11.2363 2.51758 11.2734 2.53711 11.3164C2.56055 11.3594 2.59961 11.3926 2.6543 11.416C2.70898 11.4355 2.7793 11.4453 2.86523 11.4453C3.01367 11.4453 3.14062 11.4688 3.24609 11.5156C3.35156 11.5625 3.4043 11.6328 3.4043 11.7266C3.4043 12.1836 3.33984 12.4688 3.21094 12.582C2.84375 12.5508 2.39258 12.5352 1.85742 12.5352C1.29102 12.5352 0.820312 12.5508 0.445312 12.582C0.316406 12.4648 0.251953 12.1797 0.251953 11.7266C0.251953 11.6328 0.304688 11.5625 0.410156 11.5156C0.515625 11.4688 0.642578 11.4453 0.791016 11.4453C0.943359 11.4453 1.04297 11.4141 1.08984 11.3516C1.13672 11.2852 1.16016 11.1934 1.16016 11.0762V5.45117C1.16016 5.24414 1.09961 5.09766 0.978516 5.01172C0.861328 4.92578 0.632812 4.875 0.292969 4.85938C0.242188 4.84766 0.208984 4.82227 0.193359 4.7832C0.181641 4.74414 0.175781 4.66016 0.175781 4.53125C0.175781 4.33203 0.197266 4.15625 0.240234 4.00391C0.283203 3.85156 0.326172 3.76367 0.369141 3.74023C0.693359 3.7832 1.00391 3.80469 1.30078 3.80469C1.47656 3.80469 1.66211 3.79492 1.85742 3.77539C2.05273 3.75195 2.15625 3.74023 2.16797 3.74023C2.30469 3.74023 2.39258 3.77539 2.43164 3.8457C2.47461 3.91211 2.49609 4.06836 2.49609 4.31445C2.49609 4.3418 2.49414 4.39258 2.49023 4.4668C2.49023 4.53711 2.49023 4.59375 2.49023 4.63672ZM9.71484 7.54297C10.3438 7.27344 11.0586 7.13867 11.8594 7.13867C12.2891 7.13867 12.6719 7.19922 13.0078 7.32031C13.3477 7.4375 13.6172 7.58984 13.8164 7.77734C14.0195 7.96094 14.1855 8.17773 14.3145 8.42773C14.4473 8.67773 14.5371 8.91992 14.584 9.1543C14.6348 9.38867 14.6602 9.62695 14.6602 9.86914C14.6602 10.2949 14.5996 10.6719 14.4785 11C14.3574 11.3281 14.1934 11.5977 13.9863 11.8086C13.7832 12.0195 13.5332 12.1934 13.2363 12.3301C12.9395 12.4629 12.6289 12.5566 12.3047 12.6113C11.9844 12.666 11.6328 12.6934 11.25 12.6934C10.4453 12.6934 9.54688 12.543 8.55469 12.2422L8.53125 12.1719C8.52344 12.1406 8.50195 12.0586 8.4668 11.9258C8.43164 11.7891 8.40625 11.6914 8.39062 11.6328C8.375 11.5703 8.34961 11.4707 8.31445 11.334C8.2832 11.1973 8.25781 11.0781 8.23828 10.9766C8.22266 10.8711 8.20312 10.7441 8.17969 10.5957C8.15625 10.4473 8.13672 10.2988 8.12109 10.1504C8.12109 10.1191 8.23828 10.082 8.47266 10.0391C8.70703 9.99609 8.89453 9.97461 9.03516 9.97461C9.10938 9.97461 9.14648 9.98242 9.14648 9.99805C9.2793 10.3496 9.48047 10.6543 9.75 10.9121C10.0234 11.166 10.3223 11.3555 10.6465 11.4805C10.9707 11.6016 11.3027 11.6621 11.6426 11.6621C11.9082 11.6621 12.1504 11.6113 12.3691 11.5098C12.5918 11.4043 12.7715 11.2656 12.9082 11.0938C13.0488 10.9219 13.1562 10.7305 13.2305 10.5195C13.3086 10.3086 13.3477 10.0918 13.3477 9.86914C13.3477 9.57227 13.2871 9.30078 13.166 9.05469C13.0449 8.80469 12.8496 8.59766 12.5801 8.43359C12.3105 8.26562 11.9902 8.18164 11.6191 8.18164C11.3496 8.18164 10.9434 8.25 10.4004 8.38672C9.86133 8.51953 9.44922 8.58594 9.16406 8.58594C8.92188 8.58594 8.67969 8.56055 8.4375 8.50977C8.38672 8.49805 8.36133 8.25977 8.36133 7.79492V4.69531C8.36133 4.5 8.38672 4.31055 8.4375 4.12695C8.48828 3.94336 8.56641 3.82031 8.67188 3.75781C9.33594 3.78906 10.0645 3.80469 10.8574 3.80469C11.2324 3.80469 11.627 3.79883 12.041 3.78711C12.4551 3.77148 12.834 3.75586 13.1777 3.74023C13.5215 3.72461 13.7402 3.71484 13.834 3.71094C13.873 3.75781 13.9395 4.06641 14.0332 4.63672C14.127 5.20703 14.1738 5.54883 14.1738 5.66211C14.1738 5.67383 14.1641 5.69141 14.1445 5.71484C14.1289 5.73828 14.0977 5.76562 14.0508 5.79688C14.0078 5.82422 13.9531 5.84961 13.8867 5.87305C13.8242 5.89648 13.7383 5.91797 13.6289 5.9375C13.5234 5.95312 13.4062 5.96094 13.2773 5.96094C13.2578 5.91016 13.2305 5.83984 13.1953 5.75C13.1602 5.66016 13.1328 5.5918 13.1133 5.54492C13.0938 5.49805 13.0645 5.4375 13.0254 5.36328C12.9863 5.28906 12.9473 5.23242 12.9082 5.19336C12.8691 5.15039 12.8145 5.10547 12.7441 5.05859C12.6777 5.00781 12.6035 4.9707 12.5215 4.94727C12.4434 4.91992 12.3457 4.89844 12.2285 4.88281C12.1152 4.86328 11.9883 4.85352 11.8477 4.85352C11.5508 4.85352 11.248 4.85547 10.9395 4.85938C10.6309 4.85938 10.25 4.85938 9.79688 4.85938C9.74219 4.85938 9.71484 4.90625 9.71484 5V7.54297Z" fill="black"/>
</svg>
