<svg width="303" height="88" viewBox="0 0 303 88" fill="none" xmlns="http://www.w3.org/2000/svg">
<path d="M9.408 73.5042V83.5352H8.05V78.9712H2.639V83.5352H1.281V73.5042H2.639V77.9772H8.05V73.5042H9.408ZM16.8014 79.9162V75.7792C16.8014 75.6578 16.8061 75.5248 16.8154 75.3802C16.8247 75.2355 16.8387 75.0885 16.8574 74.9392L13.2034 79.9162H16.8014ZM19.4124 79.9162V80.6302C19.4124 80.7048 19.3891 80.7678 19.3424 80.8192C19.3004 80.8705 19.2327 80.8962 19.1394 80.8962H17.8934V83.5352H16.8014V80.8962H12.3494C12.2561 80.8962 12.1744 80.8705 12.1044 80.8192C12.0391 80.7632 11.9971 80.6955 11.9784 80.6162L11.8524 79.9792L16.7314 73.5042H17.8934V79.9162H19.4124Z" fill="black"/>
<path d="M60.972 82.3942V83.5352H55.281V73.5042H56.632V82.3942H60.972ZM67.0214 80.3432C66.4474 80.3618 65.9574 80.4085 65.5514 80.4832C65.1501 80.5532 64.8211 80.6465 64.5644 80.7632C64.3124 80.8798 64.1281 81.0175 64.0114 81.1762C63.8994 81.3348 63.8434 81.5122 63.8434 81.7082C63.8434 81.8948 63.8737 82.0558 63.9344 82.1912C63.9951 82.3265 64.0767 82.4385 64.1794 82.5272C64.2867 82.6112 64.4104 82.6742 64.5504 82.7162C64.6951 82.7535 64.8491 82.7722 65.0124 82.7722C65.2317 82.7722 65.4324 82.7512 65.6144 82.7092C65.7964 82.6625 65.9667 82.5972 66.1254 82.5132C66.2887 82.4292 66.4427 82.3288 66.5874 82.2122C66.7367 82.0955 66.8814 81.9625 67.0214 81.8132V80.3432ZM62.9964 77.4452C63.3884 77.0672 63.8107 76.7848 64.2634 76.5982C64.7161 76.4115 65.2177 76.3182 65.7684 76.3182C66.1651 76.3182 66.5174 76.3835 66.8254 76.5142C67.1334 76.6448 67.3924 76.8268 67.6024 77.0602C67.8124 77.2935 67.9711 77.5758 68.0784 77.9072C68.1857 78.2385 68.2394 78.6025 68.2394 78.9992V83.5352H67.6864C67.5651 83.5352 67.4717 83.5165 67.4064 83.4792C67.3411 83.4372 67.2897 83.3578 67.2524 83.2412L67.1124 82.5692C66.9257 82.7418 66.7437 82.8958 66.5664 83.0312C66.3891 83.1618 66.2024 83.2738 66.0064 83.3672C65.8104 83.4558 65.6004 83.5235 65.3764 83.5702C65.1571 83.6215 64.9121 83.6472 64.6414 83.6472C64.3661 83.6472 64.1071 83.6098 63.8644 83.5352C63.6217 83.4558 63.4094 83.3392 63.2274 83.1852C63.0501 83.0312 62.9077 82.8375 62.8004 82.6042C62.6977 82.3662 62.6464 82.0862 62.6464 81.7642C62.6464 81.4842 62.7234 81.2158 62.8774 80.9592C63.0314 80.6978 63.2811 80.4668 63.6264 80.2662C63.9717 80.0655 64.4221 79.9022 64.9774 79.7762C65.5327 79.6455 66.2141 79.5708 67.0214 79.5522V78.9992C67.0214 78.4485 66.9024 78.0332 66.6644 77.7532C66.4264 77.4685 66.0787 77.3262 65.6214 77.3262C65.3134 77.3262 65.0544 77.3658 64.8444 77.4452C64.6391 77.5198 64.4594 77.6062 64.3054 77.7042C64.1561 77.7975 64.0254 77.8838 63.9134 77.9632C63.8061 78.0378 63.6987 78.0752 63.5914 78.0752C63.5074 78.0752 63.4351 78.0542 63.3744 78.0122C63.3137 77.9655 63.2624 77.9095 63.2204 77.8442L62.9964 77.4452ZM73.2187 83.6472C72.6587 83.6472 72.227 83.4908 71.9237 83.1782C71.625 82.8655 71.4757 82.4152 71.4757 81.8272V77.4872H70.6217C70.547 77.4872 70.484 77.4662 70.4327 77.4242C70.3814 77.3775 70.3557 77.3075 70.3557 77.2142V76.7172L71.5177 76.5702L71.8047 74.3792C71.8187 74.3092 71.849 74.2532 71.8957 74.2112C71.947 74.1645 72.0124 74.1412 72.0917 74.1412H72.7217V76.5842H74.7727V77.4872H72.7217V81.7432C72.7217 82.0418 72.794 82.2635 72.9387 82.4082C73.0834 82.5528 73.27 82.6252 73.4987 82.6252C73.6294 82.6252 73.7414 82.6088 73.8347 82.5762C73.9327 82.5388 74.0167 82.4992 74.0867 82.4572C74.1567 82.4152 74.215 82.3778 74.2617 82.3452C74.313 82.3078 74.3574 82.2892 74.3947 82.2892C74.46 82.2892 74.5184 82.3288 74.5697 82.4082L74.9337 83.0032C74.719 83.2038 74.46 83.3625 74.1567 83.4792C73.8534 83.5912 73.5407 83.6472 73.2187 83.6472ZM80.0073 76.3322C80.5253 76.3322 80.9919 76.4185 81.4073 76.5912C81.8226 76.7638 82.1773 77.0088 82.4713 77.3262C82.7653 77.6435 82.9893 78.0285 83.1433 78.4812C83.3019 78.9292 83.3813 79.4308 83.3813 79.9862C83.3813 80.5462 83.3019 81.0502 83.1433 81.4982C82.9893 81.9462 82.7653 82.3288 82.4713 82.6462C82.1773 82.9635 81.8226 83.2085 81.4073 83.3812C80.9919 83.5492 80.5253 83.6332 80.0073 83.6332C79.4846 83.6332 79.0133 83.5492 78.5933 83.3812C78.1779 83.2085 77.8233 82.9635 77.5293 82.6462C77.2353 82.3288 77.0089 81.9462 76.8503 81.4982C76.6963 81.0502 76.6193 80.5462 76.6193 79.9862C76.6193 79.4308 76.6963 78.9292 76.8503 78.4812C77.0089 78.0285 77.2353 77.6435 77.5293 77.3262C77.8233 77.0088 78.1779 76.7638 78.5933 76.5912C79.0133 76.4185 79.4846 76.3322 80.0073 76.3322ZM80.0073 82.6602C80.7073 82.6602 81.2299 82.4268 81.5753 81.9602C81.9206 81.4888 82.0933 80.8332 82.0933 79.9932C82.0933 79.1485 81.9206 78.4905 81.5753 78.0192C81.2299 77.5478 80.7073 77.3122 80.0073 77.3122C79.6526 77.3122 79.3423 77.3728 79.0763 77.4942C78.8149 77.6155 78.5956 77.7905 78.4183 78.0192C78.2456 78.2478 78.1149 78.5302 78.0263 78.8662C77.9423 79.1975 77.9003 79.5732 77.9003 79.9932C77.9003 80.8332 78.0729 81.4888 78.4183 81.9602C78.7683 82.4268 79.2979 82.6602 80.0073 82.6602ZM105.778 82.5832V83.5352H100.402V82.5832H102.551V75.7442C102.551 75.5388 102.558 75.3312 102.572 75.1212L100.787 76.6542C100.727 76.7055 100.666 76.7382 100.605 76.7522C100.545 76.7615 100.489 76.7615 100.437 76.7522C100.386 76.7428 100.337 76.7242 100.29 76.6962C100.248 76.6682 100.216 76.6378 100.192 76.6052L99.8003 76.0662L102.789 73.4832H103.804V82.5832H105.778ZM112.883 79.9162V75.7792C112.883 75.6578 112.888 75.5248 112.897 75.3802C112.907 75.2355 112.921 75.0885 112.939 74.9392L109.285 79.9162H112.883ZM115.494 79.9162V80.6302C115.494 80.7048 115.471 80.7678 115.424 80.8192C115.382 80.8705 115.315 80.8962 115.221 80.8962H113.975V83.5352H112.883V80.8962H108.431C108.338 80.8962 108.256 80.8705 108.186 80.8192C108.121 80.7632 108.079 80.6955 108.06 80.6162L107.934 79.9792L112.813 73.5042H113.975V79.9162H115.494ZM119.135 81.8272C119.363 82.1352 119.613 82.3522 119.884 82.4782C120.154 82.6042 120.458 82.6672 120.794 82.6672C121.456 82.6672 121.965 82.4315 122.32 81.9602C122.674 81.4888 122.852 80.8168 122.852 79.9442C122.852 79.4822 122.81 79.0855 122.726 78.7542C122.646 78.4228 122.53 78.1522 122.376 77.9422C122.222 77.7275 122.033 77.5712 121.809 77.4732C121.585 77.3752 121.33 77.3262 121.046 77.3262C120.64 77.3262 120.283 77.4195 119.975 77.6062C119.671 77.7928 119.391 78.0565 119.135 78.3972V81.8272ZM119.072 77.5432C119.37 77.1745 119.716 76.8782 120.108 76.6542C120.5 76.4302 120.948 76.3182 121.452 76.3182C121.862 76.3182 122.233 76.3975 122.565 76.5562C122.896 76.7102 123.178 76.9412 123.412 77.2492C123.645 77.5525 123.825 77.9305 123.951 78.3832C124.077 78.8358 124.14 79.3562 124.14 79.9442C124.14 80.4668 124.07 80.9545 123.93 81.4072C123.79 81.8552 123.587 82.2448 123.321 82.5762C123.059 82.9028 122.737 83.1618 122.355 83.3532C121.977 83.5398 121.55 83.6332 121.074 83.6332C120.64 83.6332 120.266 83.5608 119.954 83.4162C119.646 83.2668 119.373 83.0615 119.135 82.8002V85.9362H117.882V76.4442H118.631C118.808 76.4442 118.918 76.5305 118.96 76.7032L119.072 77.5432ZM132.28 83.5352H131.083C130.98 83.5352 130.898 83.5095 130.838 83.4582C130.782 83.4022 130.735 83.3415 130.698 83.2762L128.913 80.4972C128.894 80.5625 128.873 80.6278 128.85 80.6932C128.831 80.7538 128.803 80.8098 128.766 80.8612L127.114 83.2762C127.067 83.3415 127.016 83.4022 126.96 83.4582C126.908 83.5095 126.836 83.5352 126.743 83.5352H125.63L128.115 79.8952L125.728 76.4442H126.925C127.027 76.4442 127.102 76.4605 127.149 76.4932C127.195 76.5258 127.237 76.5725 127.275 76.6332L129.018 79.2932C129.055 79.1578 129.113 79.0272 129.193 78.9012L130.719 76.6612C130.761 76.5958 130.805 76.5445 130.852 76.5072C130.903 76.4652 130.964 76.4442 131.034 76.4442H132.182L129.795 79.8322L132.28 83.5352ZM151.179 78.3622C151.571 78.3622 151.916 78.3155 152.215 78.2222C152.518 78.1242 152.77 77.9888 152.971 77.8162C153.176 77.6388 153.33 77.4288 153.433 77.1862C153.536 76.9435 153.587 76.6752 153.587 76.3812C153.587 75.7838 153.391 75.3335 152.999 75.0302C152.607 74.7268 152.019 74.5752 151.235 74.5752H149.751V78.3622H151.179ZM155.813 83.5352H154.609C154.362 83.5352 154.18 83.4395 154.063 83.2482L151.459 79.6642C151.38 79.5522 151.293 79.4728 151.2 79.4262C151.111 79.3748 150.971 79.3492 150.78 79.3492H149.751V83.5352H148.4V73.5042H151.235C151.87 73.5042 152.418 73.5695 152.88 73.7002C153.342 73.8262 153.722 74.0105 154.021 74.2532C154.324 74.4958 154.548 74.7898 154.693 75.1352C154.838 75.4758 154.91 75.8585 154.91 76.2832C154.91 76.6378 154.854 76.9692 154.742 77.2772C154.63 77.5852 154.467 77.8628 154.252 78.1102C154.042 78.3528 153.783 78.5605 153.475 78.7332C153.172 78.9058 152.826 79.0365 152.439 79.1252C152.612 79.2232 152.761 79.3655 152.887 79.5522L155.813 83.5352ZM162.178 79.2162C162.178 78.9268 162.136 78.6632 162.052 78.4252C161.973 78.1825 161.854 77.9748 161.695 77.8022C161.541 77.6248 161.352 77.4895 161.128 77.3962C160.904 77.2982 160.65 77.2492 160.365 77.2492C159.768 77.2492 159.294 77.4242 158.944 77.7742C158.599 78.1195 158.384 78.6002 158.3 79.2162H162.178ZM163.186 82.5412C163.032 82.7278 162.848 82.8912 162.633 83.0312C162.419 83.1665 162.188 83.2785 161.94 83.3672C161.698 83.4558 161.446 83.5212 161.184 83.5632C160.923 83.6098 160.664 83.6332 160.407 83.6332C159.917 83.6332 159.465 83.5515 159.049 83.3882C158.639 83.2202 158.282 82.9775 157.978 82.6602C157.68 82.3382 157.446 81.9415 157.278 81.4702C157.11 80.9988 157.026 80.4575 157.026 79.8462C157.026 79.3515 157.101 78.8895 157.25 78.4602C157.404 78.0308 157.624 77.6598 157.908 77.3472C158.193 77.0298 158.541 76.7825 158.951 76.6052C159.362 76.4232 159.824 76.3322 160.337 76.3322C160.762 76.3322 161.154 76.4045 161.513 76.5492C161.877 76.6892 162.19 76.8945 162.451 77.1652C162.717 77.4312 162.925 77.7625 163.074 78.1592C163.224 78.5512 163.298 78.9992 163.298 79.5032C163.298 79.6992 163.277 79.8298 163.235 79.8952C163.193 79.9605 163.114 79.9932 162.997 79.9932H158.258C158.272 80.4412 158.333 80.8308 158.44 81.1622C158.552 81.4935 158.706 81.7712 158.902 81.9952C159.098 82.2145 159.332 82.3802 159.602 82.4922C159.873 82.5995 160.176 82.6532 160.512 82.6532C160.825 82.6532 161.093 82.6182 161.317 82.5482C161.546 82.4735 161.742 82.3942 161.905 82.3102C162.069 82.2262 162.204 82.1492 162.311 82.0792C162.423 82.0045 162.519 81.9672 162.598 81.9672C162.701 81.9672 162.78 82.0068 162.836 82.0862L163.186 82.5412ZM168.3 80.0702C168.552 80.0702 168.773 80.0352 168.965 79.9652C169.156 79.8952 169.317 79.7972 169.448 79.6712C169.578 79.5452 169.676 79.3958 169.742 79.2232C169.807 79.0458 169.84 78.8522 169.84 78.6422C169.84 78.2082 169.707 77.8628 169.441 77.6062C169.179 77.3495 168.799 77.2212 168.3 77.2212C167.796 77.2212 167.411 77.3495 167.145 77.6062C166.883 77.8628 166.753 78.2082 166.753 78.6422C166.753 78.8522 166.785 79.0458 166.851 79.2232C166.921 79.3958 167.021 79.5452 167.152 79.6712C167.282 79.7972 167.443 79.8952 167.635 79.9652C167.826 80.0352 168.048 80.0702 168.3 80.0702ZM170.547 83.9202C170.547 83.7475 170.498 83.6075 170.4 83.5002C170.302 83.3928 170.169 83.3088 170.001 83.2482C169.837 83.1875 169.646 83.1455 169.427 83.1222C169.207 83.0942 168.974 83.0732 168.727 83.0592C168.484 83.0452 168.237 83.0312 167.985 83.0172C167.733 83.0032 167.49 82.9798 167.257 82.9472C166.995 83.0685 166.781 83.2225 166.613 83.4092C166.449 83.5912 166.368 83.8058 166.368 84.0532C166.368 84.2118 166.407 84.3588 166.487 84.4942C166.571 84.6342 166.697 84.7532 166.865 84.8512C167.033 84.9538 167.243 85.0332 167.495 85.0892C167.751 85.1498 168.052 85.1802 168.398 85.1802C168.734 85.1802 169.035 85.1498 169.301 85.0892C169.567 85.0285 169.791 84.9422 169.973 84.8302C170.159 84.7182 170.302 84.5852 170.4 84.4312C170.498 84.2772 170.547 84.1068 170.547 83.9202ZM171.814 76.7242V77.1862C171.814 77.3402 171.716 77.4382 171.52 77.4802L170.715 77.5852C170.873 77.8932 170.953 78.2338 170.953 78.6072C170.953 78.9525 170.885 79.2675 170.75 79.5522C170.619 79.8322 170.437 80.0725 170.204 80.2732C169.97 80.4738 169.69 80.6278 169.364 80.7352C169.037 80.8425 168.682 80.8962 168.3 80.8962C167.968 80.8962 167.656 80.8565 167.362 80.7772C167.212 80.8705 167.098 80.9708 167.019 81.0782C166.939 81.1808 166.9 81.2858 166.9 81.3932C166.9 81.5612 166.967 81.6895 167.103 81.7782C167.243 81.8622 167.425 81.9228 167.649 81.9602C167.873 81.9975 168.127 82.0208 168.412 82.0302C168.701 82.0395 168.995 82.0558 169.294 82.0792C169.597 82.0978 169.891 82.1328 170.176 82.1842C170.465 82.2355 170.722 82.3195 170.946 82.4362C171.17 82.5528 171.349 82.7138 171.485 82.9192C171.625 83.1245 171.695 83.3905 171.695 83.7172C171.695 84.0205 171.618 84.3145 171.464 84.5992C171.314 84.8838 171.097 85.1358 170.813 85.3552C170.528 85.5792 170.178 85.7565 169.763 85.8872C169.352 86.0225 168.888 86.0902 168.37 86.0902C167.852 86.0902 167.399 86.0388 167.012 85.9362C166.624 85.8335 166.302 85.6958 166.046 85.5232C165.789 85.3505 165.595 85.1498 165.465 84.9212C165.339 84.6972 165.276 84.4615 165.276 84.2142C165.276 83.8642 165.385 83.5678 165.605 83.3252C165.824 83.0825 166.125 82.8888 166.508 82.7442C166.298 82.6508 166.13 82.5272 166.004 82.3732C165.882 82.2145 165.822 82.0022 165.822 81.7362C165.822 81.6335 165.84 81.5285 165.878 81.4212C165.915 81.3092 165.971 81.1995 166.046 81.0922C166.125 80.9802 166.221 80.8752 166.333 80.7772C166.445 80.6792 166.575 80.5928 166.725 80.5182C166.375 80.3222 166.102 80.0632 165.906 79.7412C165.71 79.4145 165.612 79.0365 165.612 78.6072C165.612 78.2618 165.677 77.9492 165.808 77.6692C165.943 77.3845 166.13 77.1442 166.368 76.9482C166.606 76.7475 166.888 76.5935 167.215 76.4862C167.546 76.3788 167.908 76.3252 168.3 76.3252C168.608 76.3252 168.895 76.3602 169.161 76.4302C169.427 76.4955 169.669 76.5935 169.889 76.7242H171.814ZM179.933 76.4442V83.5352H179.191C179.014 83.5352 178.902 83.4488 178.855 83.2762L178.757 82.5132C178.449 82.8538 178.104 83.1292 177.721 83.3392C177.339 83.5445 176.9 83.6472 176.405 83.6472C176.018 83.6472 175.675 83.5842 175.376 83.4582C175.082 83.3275 174.835 83.1455 174.634 82.9122C174.434 82.6788 174.282 82.3965 174.179 82.0652C174.081 81.7338 174.032 81.3675 174.032 80.9662V76.4442H175.278V80.9662C175.278 81.5028 175.4 81.9182 175.642 82.2122C175.89 82.5062 176.265 82.6532 176.769 82.6532C177.138 82.6532 177.481 82.5668 177.798 82.3942C178.12 82.2168 178.417 81.9742 178.687 81.6662V76.4442H179.933ZM184.197 73.2242V83.5352H182.951V73.2242H184.197ZM191.06 80.3432C190.486 80.3618 189.996 80.4085 189.59 80.4832C189.189 80.5532 188.86 80.6465 188.603 80.7632C188.351 80.8798 188.167 81.0175 188.05 81.1762C187.938 81.3348 187.882 81.5122 187.882 81.7082C187.882 81.8948 187.913 82.0558 187.973 82.1912C188.034 82.3265 188.116 82.4385 188.218 82.5272C188.326 82.6112 188.449 82.6742 188.589 82.7162C188.734 82.7535 188.888 82.7722 189.051 82.7722C189.271 82.7722 189.471 82.7512 189.653 82.7092C189.835 82.6625 190.006 82.5972 190.164 82.5132C190.328 82.4292 190.482 82.3288 190.626 82.2122C190.776 82.0955 190.92 81.9625 191.06 81.8132V80.3432ZM187.035 77.4452C187.427 77.0672 187.85 76.7848 188.302 76.5982C188.755 76.4115 189.257 76.3182 189.807 76.3182C190.204 76.3182 190.556 76.3835 190.864 76.5142C191.172 76.6448 191.431 76.8268 191.641 77.0602C191.851 77.2935 192.01 77.5758 192.117 77.9072C192.225 78.2385 192.278 78.6025 192.278 78.9992V83.5352H191.725C191.604 83.5352 191.511 83.5165 191.445 83.4792C191.38 83.4372 191.329 83.3578 191.291 83.2412L191.151 82.5692C190.965 82.7418 190.783 82.8958 190.605 83.0312C190.428 83.1618 190.241 83.2738 190.045 83.3672C189.849 83.4558 189.639 83.5235 189.415 83.5702C189.196 83.6215 188.951 83.6472 188.68 83.6472C188.405 83.6472 188.146 83.6098 187.903 83.5352C187.661 83.4558 187.448 83.3392 187.266 83.1852C187.089 83.0312 186.947 82.8375 186.839 82.6042C186.737 82.3662 186.685 82.0862 186.685 81.7642C186.685 81.4842 186.762 81.2158 186.916 80.9592C187.07 80.6978 187.32 80.4668 187.665 80.2662C188.011 80.0655 188.461 79.9022 189.016 79.7762C189.572 79.6455 190.253 79.5708 191.06 79.5522V78.9992C191.06 78.4485 190.941 78.0332 190.703 77.7532C190.465 77.4685 190.118 77.3262 189.66 77.3262C189.352 77.3262 189.093 77.3658 188.883 77.4452C188.678 77.5198 188.498 77.6062 188.344 77.7042C188.195 77.7975 188.064 77.8838 187.952 77.9632C187.845 78.0378 187.738 78.0752 187.63 78.0752C187.546 78.0752 187.474 78.0542 187.413 78.0122C187.353 77.9655 187.301 77.9095 187.259 77.8442L187.035 77.4452ZM196.359 77.8652C196.583 77.3798 196.859 77.0018 197.185 76.7312C197.512 76.4558 197.911 76.3182 198.382 76.3182C198.532 76.3182 198.674 76.3345 198.809 76.3672C198.949 76.3998 199.073 76.4512 199.18 76.5212L199.089 77.4522C199.061 77.5688 198.991 77.6272 198.879 77.6272C198.814 77.6272 198.718 77.6132 198.592 77.5852C198.466 77.5572 198.324 77.5432 198.165 77.5432C197.941 77.5432 197.741 77.5758 197.563 77.6412C197.391 77.7065 197.234 77.8045 197.094 77.9352C196.959 78.0612 196.835 78.2198 196.723 78.4112C196.616 78.5978 196.518 78.8125 196.429 79.0552V83.5352H195.176V76.4442H195.89C196.026 76.4442 196.119 76.4698 196.17 76.5212C196.222 76.5725 196.257 76.6612 196.275 76.7872L196.359 77.8652ZM216.599 77.9002H217.11C217.287 77.9002 217.429 77.8792 217.537 77.8372C217.644 77.7905 217.742 77.7135 217.831 77.6062L221.17 73.8262C221.263 73.7048 221.361 73.6208 221.464 73.5742C221.566 73.5275 221.692 73.5042 221.842 73.5042H222.99L219.168 77.8232C219.074 77.9352 218.983 78.0285 218.895 78.1032C218.811 78.1732 218.72 78.2315 218.622 78.2782C218.748 78.3202 218.862 78.3832 218.965 78.4672C219.067 78.5465 219.168 78.6515 219.266 78.7822L223.256 83.5352H222.08C221.991 83.5352 221.914 83.5305 221.849 83.5212C221.788 83.5072 221.734 83.4885 221.688 83.4652C221.641 83.4372 221.599 83.4068 221.562 83.3742C221.529 83.3368 221.496 83.2948 221.464 83.2482L218.006 79.2652C217.912 79.1485 217.812 79.0668 217.705 79.0202C217.597 78.9688 217.434 78.9432 217.215 78.9432H216.599V83.5352H215.248V73.5042H216.599V77.9002ZM229.436 79.2162C229.436 78.9268 229.394 78.6632 229.31 78.4252C229.231 78.1825 229.112 77.9748 228.953 77.8022C228.799 77.6248 228.61 77.4895 228.386 77.3962C228.162 77.2982 227.908 77.2492 227.623 77.2492C227.026 77.2492 226.552 77.4242 226.202 77.7742C225.857 78.1195 225.642 78.6002 225.558 79.2162H229.436ZM230.444 82.5412C230.29 82.7278 230.106 82.8912 229.891 83.0312C229.676 83.1665 229.445 83.2785 229.198 83.3672C228.955 83.4558 228.703 83.5212 228.442 83.5632C228.181 83.6098 227.922 83.6332 227.665 83.6332C227.175 83.6332 226.722 83.5515 226.307 83.3882C225.896 83.2202 225.539 82.9775 225.236 82.6602C224.937 82.3382 224.704 81.9415 224.536 81.4702C224.368 80.9988 224.284 80.4575 224.284 79.8462C224.284 79.3515 224.359 78.8895 224.508 78.4602C224.662 78.0308 224.881 77.6598 225.166 77.3472C225.451 77.0298 225.798 76.7825 226.209 76.6052C226.62 76.4232 227.082 76.3322 227.595 76.3322C228.02 76.3322 228.412 76.4045 228.771 76.5492C229.135 76.6892 229.448 76.8945 229.709 77.1652C229.975 77.4312 230.183 77.7625 230.332 78.1592C230.481 78.5512 230.556 78.9992 230.556 79.5032C230.556 79.6992 230.535 79.8298 230.493 79.8952C230.451 79.9605 230.372 79.9932 230.255 79.9932H225.516C225.53 80.4412 225.591 80.8308 225.698 81.1622C225.81 81.4935 225.964 81.7712 226.16 81.9952C226.356 82.2145 226.589 82.3802 226.86 82.4922C227.131 82.5995 227.434 82.6532 227.77 82.6532C228.083 82.6532 228.351 82.6182 228.575 82.5482C228.804 82.4735 229 82.3942 229.163 82.3102C229.326 82.2262 229.462 82.1492 229.569 82.0792C229.681 82.0045 229.777 81.9672 229.856 81.9672C229.959 81.9672 230.038 82.0068 230.094 82.0862L230.444 82.5412ZM234.27 77.8652C234.494 77.3798 234.769 77.0018 235.096 76.7312C235.422 76.4558 235.821 76.3182 236.293 76.3182C236.442 76.3182 236.584 76.3345 236.72 76.3672C236.86 76.3998 236.983 76.4512 237.091 76.5212L237 77.4522C236.972 77.5688 236.902 77.6272 236.79 77.6272C236.724 77.6272 236.629 77.6132 236.503 77.5852C236.377 77.5572 236.234 77.5432 236.076 77.5432C235.852 77.5432 235.651 77.5758 235.474 77.6412C235.301 77.7065 235.145 77.8045 235.005 77.9352C234.869 78.0612 234.746 78.2198 234.634 78.4112C234.526 78.5978 234.428 78.8125 234.34 79.0552V83.5352H233.087V76.4442H233.801C233.936 76.4442 234.029 76.4698 234.081 76.5212C234.132 76.5725 234.167 76.6612 234.186 76.7872L234.27 77.8652ZM240.362 77.4732C240.516 77.3005 240.68 77.1442 240.852 77.0042C241.025 76.8642 241.207 76.7452 241.398 76.6472C241.594 76.5445 241.8 76.4675 242.014 76.4162C242.234 76.3602 242.469 76.3322 242.721 76.3322C243.109 76.3322 243.449 76.3975 243.743 76.5282C244.042 76.6542 244.289 76.8362 244.485 77.0742C244.686 77.3075 244.838 77.5898 244.94 77.9212C245.043 78.2525 245.094 78.6188 245.094 79.0202V83.5352H243.841V79.0202C243.841 78.4835 243.718 78.0682 243.47 77.7742C243.228 77.4755 242.857 77.3262 242.357 77.3262C241.989 77.3262 241.643 77.4148 241.321 77.5922C241.004 77.7695 240.71 78.0098 240.439 78.3132V83.5352H239.186V76.4442H239.935C240.113 76.4442 240.222 76.5305 240.264 76.7032L240.362 77.4732ZM249.309 76.4442V83.5352H248.063V76.4442H249.309ZM249.575 74.2182C249.575 74.3395 249.549 74.4538 249.498 74.5612C249.451 74.6638 249.386 74.7572 249.302 74.8412C249.223 74.9205 249.127 74.9835 249.015 75.0302C248.908 75.0768 248.793 75.1002 248.672 75.1002C248.551 75.1002 248.436 75.0768 248.329 75.0302C248.226 74.9835 248.135 74.9205 248.056 74.8412C247.977 74.7572 247.914 74.6638 247.867 74.5612C247.82 74.4538 247.797 74.3395 247.797 74.2182C247.797 74.0968 247.82 73.9825 247.867 73.8752C247.914 73.7632 247.977 73.6675 248.056 73.5882C248.135 73.5042 248.226 73.4388 248.329 73.3922C248.436 73.3455 248.551 73.3222 248.672 73.3222C248.793 73.3222 248.908 73.3455 249.015 73.3922C249.127 73.4388 249.223 73.5042 249.302 73.5882C249.386 73.6675 249.451 73.7632 249.498 73.8752C249.549 73.9825 249.575 74.0968 249.575 74.2182ZM253.532 77.4732C253.686 77.3005 253.849 77.1442 254.022 77.0042C254.195 76.8642 254.377 76.7452 254.568 76.6472C254.764 76.5445 254.969 76.4675 255.184 76.4162C255.403 76.3602 255.639 76.3322 255.891 76.3322C256.278 76.3322 256.619 76.3975 256.913 76.5282C257.212 76.6542 257.459 76.8362 257.655 77.0742C257.856 77.3075 258.007 77.5898 258.11 77.9212C258.213 78.2525 258.264 78.6188 258.264 79.0202V83.5352H257.011V79.0202C257.011 78.4835 256.887 78.0682 256.64 77.7742C256.397 77.4755 256.026 77.3262 255.527 77.3262C255.158 77.3262 254.813 77.4148 254.491 77.5922C254.174 77.7695 253.88 78.0098 253.609 78.3132V83.5352H252.356V76.4442H253.105C253.282 76.4442 253.392 76.5305 253.434 76.7032L253.532 77.4732ZM263.634 80.0702C263.886 80.0702 264.107 80.0352 264.299 79.9652C264.49 79.8952 264.651 79.7972 264.782 79.6712C264.912 79.5452 265.01 79.3958 265.076 79.2232C265.141 79.0458 265.174 78.8522 265.174 78.6422C265.174 78.2082 265.041 77.8628 264.775 77.6062C264.513 77.3495 264.133 77.2212 263.634 77.2212C263.13 77.2212 262.745 77.3495 262.479 77.6062C262.217 77.8628 262.087 78.2082 262.087 78.6422C262.087 78.8522 262.119 79.0458 262.185 79.2232C262.255 79.3958 262.355 79.5452 262.486 79.6712C262.616 79.7972 262.777 79.8952 262.969 79.9652C263.16 80.0352 263.382 80.0702 263.634 80.0702ZM265.881 83.9202C265.881 83.7475 265.832 83.6075 265.734 83.5002C265.636 83.3928 265.503 83.3088 265.335 83.2482C265.171 83.1875 264.98 83.1455 264.761 83.1222C264.541 83.0942 264.308 83.0732 264.061 83.0592C263.818 83.0452 263.571 83.0312 263.319 83.0172C263.067 83.0032 262.824 82.9798 262.591 82.9472C262.329 83.0685 262.115 83.2225 261.947 83.4092C261.783 83.5912 261.702 83.8058 261.702 84.0532C261.702 84.2118 261.741 84.3588 261.821 84.4942C261.905 84.6342 262.031 84.7532 262.199 84.8512C262.367 84.9538 262.577 85.0332 262.829 85.0892C263.085 85.1498 263.386 85.1802 263.732 85.1802C264.068 85.1802 264.369 85.1498 264.635 85.0892C264.901 85.0285 265.125 84.9422 265.307 84.8302C265.493 84.7182 265.636 84.5852 265.734 84.4312C265.832 84.2772 265.881 84.1068 265.881 83.9202ZM267.148 76.7242V77.1862C267.148 77.3402 267.05 77.4382 266.854 77.4802L266.049 77.5852C266.207 77.8932 266.287 78.2338 266.287 78.6072C266.287 78.9525 266.219 79.2675 266.084 79.5522C265.953 79.8322 265.771 80.0725 265.538 80.2732C265.304 80.4738 265.024 80.6278 264.698 80.7352C264.371 80.8425 264.016 80.8962 263.634 80.8962C263.302 80.8962 262.99 80.8565 262.696 80.7772C262.546 80.8705 262.432 80.9708 262.353 81.0782C262.273 81.1808 262.234 81.2858 262.234 81.3932C262.234 81.5612 262.301 81.6895 262.437 81.7782C262.577 81.8622 262.759 81.9228 262.983 81.9602C263.207 81.9975 263.461 82.0208 263.746 82.0302C264.035 82.0395 264.329 82.0558 264.628 82.0792C264.931 82.0978 265.225 82.1328 265.51 82.1842C265.799 82.2355 266.056 82.3195 266.28 82.4362C266.504 82.5528 266.683 82.7138 266.819 82.9192C266.959 83.1245 267.029 83.3905 267.029 83.7172C267.029 84.0205 266.952 84.3145 266.798 84.5992C266.648 84.8838 266.431 85.1358 266.147 85.3552C265.862 85.5792 265.512 85.7565 265.097 85.8872C264.686 86.0225 264.222 86.0902 263.704 86.0902C263.186 86.0902 262.733 86.0388 262.346 85.9362C261.958 85.8335 261.636 85.6958 261.38 85.5232C261.123 85.3505 260.929 85.1498 260.799 84.9212C260.673 84.6972 260.61 84.4615 260.61 84.2142C260.61 83.8642 260.719 83.5678 260.939 83.3252C261.158 83.0825 261.459 82.8888 261.842 82.7442C261.632 82.6508 261.464 82.5272 261.338 82.3732C261.216 82.2145 261.156 82.0022 261.156 81.7362C261.156 81.6335 261.174 81.5285 261.212 81.4212C261.249 81.3092 261.305 81.1995 261.38 81.0922C261.459 80.9802 261.555 80.8752 261.667 80.7772C261.779 80.6792 261.909 80.5928 262.059 80.5182C261.709 80.3222 261.436 80.0632 261.24 79.7412C261.044 79.4145 260.946 79.0365 260.946 78.6072C260.946 78.2618 261.011 77.9492 261.142 77.6692C261.277 77.3845 261.464 77.1442 261.702 76.9482C261.94 76.7475 262.222 76.5935 262.549 76.4862C262.88 76.3788 263.242 76.3252 263.634 76.3252C263.942 76.3252 264.229 76.3602 264.495 76.4302C264.761 76.4955 265.003 76.5935 265.223 76.7242H267.148ZM280.157 82.5832V83.5352H274.781V82.5832H276.93V75.7442C276.93 75.5388 276.937 75.3312 276.951 75.1212L275.166 76.6542C275.106 76.7055 275.045 76.7382 274.984 76.7522C274.924 76.7615 274.868 76.7615 274.816 76.7522C274.765 76.7428 274.716 76.7242 274.669 76.6962C274.627 76.6682 274.595 76.6378 274.571 76.6052L274.179 76.0662L277.168 73.4832H278.183V82.5832H280.157ZM284.392 81.8272C284.621 82.1352 284.871 82.3522 285.141 82.4782C285.412 82.6042 285.715 82.6672 286.051 82.6672C286.714 82.6672 287.223 82.4315 287.577 81.9602C287.932 81.4888 288.109 80.8168 288.109 79.9442C288.109 79.4822 288.067 79.0855 287.983 78.7542C287.904 78.4228 287.787 78.1522 287.633 77.9422C287.479 77.7275 287.29 77.5712 287.066 77.4732C286.842 77.3752 286.588 77.3262 286.303 77.3262C285.897 77.3262 285.54 77.4195 285.232 77.6062C284.929 77.7928 284.649 78.0565 284.392 78.3972V81.8272ZM284.329 77.5432C284.628 77.1745 284.973 76.8782 285.365 76.6542C285.757 76.4302 286.205 76.3182 286.709 76.3182C287.12 76.3182 287.491 76.3975 287.822 76.5562C288.154 76.7102 288.436 76.9412 288.669 77.2492C288.903 77.5525 289.082 77.9305 289.208 78.3832C289.334 78.8358 289.397 79.3562 289.397 79.9442C289.397 80.4668 289.327 80.9545 289.187 81.4072C289.047 81.8552 288.844 82.2448 288.578 82.5762C288.317 82.9028 287.995 83.1618 287.612 83.3532C287.234 83.5398 286.807 83.6332 286.331 83.6332C285.897 83.6332 285.524 83.5608 285.211 83.4162C284.903 83.2668 284.63 83.0615 284.392 82.8002V85.9362H283.139V76.4442H283.888C284.066 76.4442 284.175 76.5305 284.217 76.7032L284.329 77.5432ZM297.538 83.5352H296.341C296.238 83.5352 296.156 83.5095 296.096 83.4582C296.04 83.4022 295.993 83.3415 295.956 83.2762L294.171 80.4972C294.152 80.5625 294.131 80.6278 294.108 80.6932C294.089 80.7538 294.061 80.8098 294.024 80.8612L292.372 83.2762C292.325 83.3415 292.274 83.4022 292.218 83.4582C292.166 83.5095 292.094 83.5352 292.001 83.5352H290.888L293.373 79.8952L290.986 76.4442H292.183C292.285 76.4442 292.36 76.4605 292.407 76.4932C292.453 76.5258 292.495 76.5725 292.533 76.6332L294.276 79.2932C294.313 79.1578 294.371 79.0272 294.451 78.9012L295.977 76.6612C296.019 76.5958 296.063 76.5445 296.11 76.5072C296.161 76.4652 296.222 76.4442 296.292 76.4442H297.44L295.053 79.8322L297.538 83.5352Z" fill="black"/>
<path d="M90.8236 72.8042H91.7966V85.9782H90.8236V72.8042ZM139.29 72.8042H140.263V85.9782H139.29V72.8042ZM206.138 72.8042H207.111V85.9782H206.138V72.8042Z" fill="#7C4663"/>
<path d="M62.104 14.048V16H55.216V4.392H57.616V14.048H62.104ZM70.7034 11.592L69.4474 8.04C69.3727 7.85333 69.2927 7.63467 69.2074 7.384C69.1274 7.13333 69.05 6.86133 68.9754 6.568C68.9007 6.86667 68.8207 7.144 68.7354 7.4C68.6554 7.65067 68.578 7.86933 68.5034 8.056L67.2554 11.592H70.7034ZM74.7354 16H72.8714C72.6634 16 72.4927 15.952 72.3594 15.856C72.2314 15.7547 72.1354 15.6267 72.0714 15.472L71.2874 13.256H66.6634L65.8794 15.472C65.826 15.6053 65.7327 15.728 65.5994 15.84C65.466 15.9467 65.298 16 65.0954 16H63.2154L67.7514 4.392H70.2074L74.7354 16ZM83.8851 6.328H80.4931V16H78.0851V6.328H74.6931V4.392H83.8851V6.328ZM97.1976 10.192C97.1976 11.04 97.0536 11.8267 96.7656 12.552C96.483 13.2773 96.0803 13.904 95.5576 14.432C95.0403 14.96 94.4163 15.376 93.6856 15.68C92.955 15.9787 92.1443 16.128 91.2536 16.128C90.363 16.128 89.5523 15.9787 88.8216 15.68C88.091 15.376 87.4643 14.96 86.9416 14.432C86.419 13.904 86.0136 13.2773 85.7256 12.552C85.443 11.8267 85.3016 11.04 85.3016 10.192C85.3016 9.344 85.443 8.56 85.7256 7.84C86.0136 7.11467 86.419 6.488 86.9416 5.96C87.4643 5.432 88.091 5.01867 88.8216 4.72C89.5523 4.416 90.363 4.264 91.2536 4.264C92.1443 4.264 92.955 4.416 93.6856 4.72C94.4163 5.01867 95.0403 5.43467 95.5576 5.968C96.0803 6.496 96.483 7.12267 96.7656 7.848C97.0536 8.568 97.1976 9.34933 97.1976 10.192ZM94.7416 10.192C94.7416 9.584 94.6616 9.04 94.5016 8.56C94.3416 8.07467 94.1096 7.664 93.8056 7.328C93.507 6.98667 93.1416 6.728 92.7096 6.552C92.283 6.37067 91.7976 6.28 91.2536 6.28C90.7096 6.28 90.2216 6.37067 89.7896 6.552C89.3576 6.728 88.9896 6.98667 88.6856 7.328C88.387 7.664 88.1576 8.07467 87.9976 8.56C87.8376 9.04 87.7576 9.584 87.7576 10.192C87.7576 10.8053 87.8376 11.3547 87.9976 11.84C88.1576 12.32 88.387 12.728 88.6856 13.064C88.9896 13.4 89.3576 13.6587 89.7896 13.84C90.2216 14.016 90.7096 14.104 91.2536 14.104C91.7976 14.104 92.283 14.016 92.7096 13.84C93.1416 13.6587 93.507 13.4 93.8056 13.064C94.1096 12.728 94.3416 12.32 94.5016 11.84C94.6616 11.3547 94.7416 10.8053 94.7416 10.192ZM121.899 14.376V16H115.387V14.376H117.691V8.024C117.691 7.88533 117.693 7.744 117.699 7.6C117.704 7.456 117.712 7.30933 117.723 7.16L116.203 8.424C116.096 8.504 115.992 8.55467 115.891 8.576C115.789 8.59733 115.693 8.6 115.603 8.584C115.512 8.56267 115.432 8.53067 115.363 8.488C115.293 8.44 115.24 8.392 115.203 8.344L114.507 7.408L118.075 4.384H119.891V14.376H121.899ZM128.18 8.56L127.828 8.984C128.03 8.89333 128.249 8.824 128.484 8.776C128.718 8.728 128.972 8.704 129.244 8.704C129.676 8.704 130.097 8.776 130.508 8.92C130.918 9.064 131.284 9.28 131.604 9.568C131.924 9.856 132.18 10.2187 132.372 10.656C132.569 11.088 132.668 11.5973 132.668 12.184C132.668 12.7227 132.566 13.232 132.364 13.712C132.166 14.192 131.884 14.6107 131.516 14.968C131.153 15.3253 130.716 15.608 130.204 15.816C129.697 16.024 129.132 16.128 128.508 16.128C127.873 16.128 127.305 16.0293 126.804 15.832C126.302 15.6293 125.876 15.3467 125.524 14.984C125.172 14.6213 124.902 14.1893 124.716 13.688C124.529 13.1813 124.436 12.624 124.436 12.016C124.436 11.456 124.545 10.888 124.764 10.312C124.988 9.736 125.326 9.144 125.78 8.536L128.476 4.904C128.582 4.76533 128.74 4.64533 128.948 4.544C129.156 4.44267 129.393 4.392 129.66 4.392H131.62L128.18 8.56ZM128.468 14.352C128.756 14.352 129.022 14.3013 129.268 14.2C129.513 14.0987 129.724 13.9573 129.9 13.776C130.076 13.5947 130.214 13.384 130.316 13.144C130.417 12.8987 130.468 12.632 130.468 12.344C130.468 12.0293 130.42 11.7467 130.324 11.496C130.228 11.2453 130.092 11.0347 129.916 10.864C129.74 10.688 129.529 10.5547 129.284 10.464C129.038 10.3733 128.766 10.328 128.468 10.328C128.185 10.328 127.926 10.3787 127.692 10.48C127.457 10.576 127.254 10.7147 127.084 10.896C126.918 11.072 126.788 11.2827 126.692 11.528C126.601 11.7733 126.556 12.0427 126.556 12.336C126.556 12.64 126.596 12.9173 126.676 13.168C126.756 13.4133 126.876 13.624 127.036 13.8C127.196 13.976 127.393 14.112 127.628 14.208C127.868 14.304 128.148 14.352 128.468 14.352ZM139.261 10.168C140.013 10.168 140.562 9.98667 140.909 9.624C141.261 9.26133 141.437 8.76533 141.437 8.136C141.437 7.848 141.392 7.58667 141.301 7.352C141.216 7.112 141.082 6.90933 140.901 6.744C140.725 6.57333 140.501 6.44267 140.229 6.352C139.957 6.26133 139.634 6.216 139.261 6.216H137.741V10.168H139.261ZM139.261 4.392C140.056 4.392 140.741 4.48533 141.317 4.672C141.898 4.85867 142.376 5.12 142.749 5.456C143.122 5.78667 143.397 6.18133 143.573 6.64C143.754 7.09867 143.845 7.59733 143.845 8.136C143.845 8.70667 143.752 9.22933 143.565 9.704C143.378 10.1787 143.096 10.5867 142.717 10.928C142.338 11.2693 141.861 11.536 141.285 11.728C140.709 11.9147 140.034 12.008 139.261 12.008H137.741V16H135.341V4.392H139.261ZM155.857 16H153.457C153.297 16 153.166 15.96 153.065 15.88C152.969 15.8 152.891 15.7067 152.833 15.6L150.321 11.328C150.294 11.3867 150.267 11.4453 150.241 11.504C150.219 11.5573 150.193 11.608 150.161 11.656L147.777 15.6C147.707 15.7013 147.625 15.7947 147.529 15.88C147.438 15.96 147.321 16 147.177 16H144.937L148.737 10.024L145.081 4.392H147.481C147.641 4.392 147.758 4.41333 147.833 4.456C147.907 4.49867 147.974 4.568 148.033 4.664L150.529 8.768C150.555 8.704 150.585 8.64 150.617 8.576C150.649 8.50667 150.686 8.43733 150.729 8.368L152.969 4.704C153.033 4.59733 153.102 4.52 153.177 4.472C153.257 4.41867 153.353 4.392 153.465 4.392H155.761L152.073 9.92L155.857 16ZM176.52 9.888C176.909 9.888 177.245 9.84 177.528 9.744C177.811 9.64267 178.043 9.50667 178.224 9.336C178.405 9.16 178.539 8.95467 178.624 8.72C178.709 8.48533 178.752 8.22933 178.752 7.952C178.752 7.40267 178.568 6.976 178.2 6.672C177.837 6.368 177.283 6.216 176.536 6.216H175.288V9.888H176.52ZM182.144 16H179.976C179.571 16 179.277 15.8453 179.096 15.536L176.888 11.976C176.797 11.8373 176.696 11.736 176.584 11.672C176.477 11.608 176.317 11.576 176.104 11.576H175.288V16H172.888V4.392H176.536C177.347 4.392 178.04 4.47733 178.616 4.648C179.192 4.81333 179.664 5.04533 180.032 5.344C180.4 5.64267 180.669 6 180.84 6.416C181.011 6.82667 181.096 7.28 181.096 7.776C181.096 8.16 181.04 8.52533 180.928 8.872C180.821 9.21333 180.664 9.52533 180.456 9.808C180.248 10.0907 179.992 10.3413 179.688 10.56C179.384 10.7787 179.037 10.9547 178.648 11.088C178.803 11.1733 178.947 11.2773 179.08 11.4C179.213 11.5173 179.333 11.6587 179.44 11.824L182.144 16ZM186.695 6.272V9.256H190.567V11.072H186.695V14.12H191.671V16H184.279V4.392H191.671V6.272H186.695ZM199.88 10.088H203.864V14.88C203.272 15.312 202.64 15.6293 201.968 15.832C201.301 16.0293 200.594 16.128 199.848 16.128C198.893 16.128 198.029 15.9813 197.256 15.688C196.482 15.3893 195.821 14.976 195.272 14.448C194.722 13.92 194.298 13.2933 194 12.568C193.701 11.8427 193.552 11.0507 193.552 10.192C193.552 9.32267 193.693 8.52533 193.976 7.8C194.264 7.07467 194.672 6.45067 195.2 5.928C195.728 5.40533 196.365 4.99733 197.112 4.704C197.864 4.41067 198.704 4.264 199.632 4.264C200.112 4.264 200.56 4.304 200.976 4.384C201.392 4.45867 201.776 4.56533 202.128 4.704C202.48 4.83733 202.802 4.99733 203.096 5.184C203.389 5.37067 203.656 5.576 203.896 5.8L203.2 6.872C203.093 7.04267 202.954 7.14667 202.784 7.184C202.613 7.22133 202.426 7.17867 202.224 7.056C202.032 6.93867 201.842 6.83467 201.656 6.744C201.474 6.648 201.28 6.56533 201.072 6.496C200.864 6.42667 200.637 6.37333 200.392 6.336C200.146 6.29867 199.864 6.28 199.544 6.28C199.005 6.28 198.517 6.37333 198.08 6.56C197.642 6.74667 197.269 7.01067 196.96 7.352C196.656 7.69333 196.421 8.104 196.256 8.584C196.09 9.064 196.008 9.6 196.008 10.192C196.008 10.832 196.098 11.4053 196.28 11.912C196.461 12.4133 196.717 12.8373 197.048 13.184C197.378 13.5307 197.773 13.7947 198.232 13.976C198.696 14.1573 199.21 14.248 199.776 14.248C200.16 14.248 200.501 14.2107 200.8 14.136C201.104 14.056 201.4 13.9493 201.688 13.816V11.864H200.376C200.221 11.864 200.098 11.824 200.008 11.744C199.922 11.6587 199.88 11.552 199.88 11.424V10.088ZM211.577 14.08C211.967 14.08 212.316 14.016 212.625 13.888C212.935 13.7547 213.196 13.568 213.409 13.328C213.623 13.088 213.785 12.7973 213.897 12.456C214.009 12.1147 214.065 11.7307 214.065 11.304V4.392H216.465V11.304C216.465 12.008 216.351 12.656 216.121 13.248C215.897 13.8347 215.575 14.3413 215.153 14.768C214.732 15.1947 214.22 15.528 213.617 15.768C213.015 16.008 212.335 16.128 211.577 16.128C210.82 16.128 210.137 16.008 209.529 15.768C208.927 15.528 208.415 15.1947 207.993 14.768C207.572 14.3413 207.247 13.8347 207.017 13.248C206.793 12.656 206.681 12.008 206.681 11.304V4.392H209.081V11.304C209.081 11.7307 209.137 12.1147 209.249 12.456C209.361 12.7973 209.524 13.088 209.737 13.328C209.951 13.568 210.212 13.7547 210.521 13.888C210.831 14.016 211.183 14.08 211.577 14.08ZM226.635 14.048V16H219.747V4.392H222.147V14.048H226.635ZM235.235 11.592L233.979 8.04C233.904 7.85333 233.824 7.63467 233.739 7.384C233.659 7.13333 233.581 6.86133 233.507 6.568C233.432 6.86667 233.352 7.144 233.267 7.4C233.187 7.65067 233.109 7.86933 233.035 8.056L231.787 11.592H235.235ZM239.267 16H237.403C237.195 16 237.024 15.952 236.891 15.856C236.763 15.7547 236.667 15.6267 236.603 15.472L235.819 13.256H231.195L230.411 15.472C230.357 15.6053 230.264 15.728 230.131 15.84C229.997 15.9467 229.829 16 229.627 16H227.747L232.283 4.392H234.739L239.267 16ZM244.973 9.888C245.362 9.888 245.698 9.84 245.981 9.744C246.264 9.64267 246.496 9.50667 246.677 9.336C246.858 9.16 246.992 8.95467 247.077 8.72C247.162 8.48533 247.205 8.22933 247.205 7.952C247.205 7.40267 247.021 6.976 246.653 6.672C246.29 6.368 245.736 6.216 244.989 6.216H243.741V9.888H244.973ZM250.597 16H248.429C248.024 16 247.73 15.8453 247.549 15.536L245.341 11.976C245.25 11.8373 245.149 11.736 245.037 11.672C244.93 11.608 244.77 11.576 244.557 11.576H243.741V16H241.341V4.392H244.989C245.8 4.392 246.493 4.47733 247.069 4.648C247.645 4.81333 248.117 5.04533 248.485 5.344C248.853 5.64267 249.122 6 249.293 6.416C249.464 6.82667 249.549 7.28 249.549 7.776C249.549 8.16 249.493 8.52533 249.381 8.872C249.274 9.21333 249.117 9.52533 248.909 9.808C248.701 10.0907 248.445 10.3413 248.141 10.56C247.837 10.7787 247.49 10.9547 247.101 11.088C247.256 11.1733 247.4 11.2773 247.533 11.4C247.666 11.5173 247.786 11.6587 247.893 11.824L250.597 16ZM264.417 14.048V16H257.529V4.392H259.929V14.048H264.417ZM273.016 11.592L271.76 8.04C271.685 7.85333 271.605 7.63467 271.52 7.384C271.44 7.13333 271.363 6.86133 271.288 6.568C271.213 6.86667 271.133 7.144 271.048 7.4C270.968 7.65067 270.891 7.86933 270.816 8.056L269.568 11.592H273.016ZM277.048 16H275.184C274.976 16 274.805 15.952 274.672 15.856C274.544 15.7547 274.448 15.6267 274.384 15.472L273.6 13.256H268.976L268.192 15.472C268.139 15.6053 268.045 15.728 267.912 15.84C267.779 15.9467 267.611 16 267.408 16H265.528L270.064 4.392H272.52L277.048 16ZM286.198 6.328H282.806V16H280.398V6.328H277.006V4.392H286.198V6.328ZM299.51 10.192C299.51 11.04 299.366 11.8267 299.078 12.552C298.795 13.2773 298.393 13.904 297.87 14.432C297.353 14.96 296.729 15.376 295.998 15.68C295.267 15.9787 294.457 16.128 293.566 16.128C292.675 16.128 291.865 15.9787 291.134 15.68C290.403 15.376 289.777 14.96 289.254 14.432C288.731 13.904 288.326 13.2773 288.038 12.552C287.755 11.8267 287.614 11.04 287.614 10.192C287.614 9.344 287.755 8.56 288.038 7.84C288.326 7.11467 288.731 6.488 289.254 5.96C289.777 5.432 290.403 5.01867 291.134 4.72C291.865 4.416 292.675 4.264 293.566 4.264C294.457 4.264 295.267 4.416 295.998 4.72C296.729 5.01867 297.353 5.43467 297.87 5.968C298.393 6.496 298.795 7.12267 299.078 7.848C299.366 8.568 299.51 9.34933 299.51 10.192ZM297.054 10.192C297.054 9.584 296.974 9.04 296.814 8.56C296.654 8.07467 296.422 7.664 296.118 7.328C295.819 6.98667 295.454 6.728 295.022 6.552C294.595 6.37067 294.11 6.28 293.566 6.28C293.022 6.28 292.534 6.37067 292.102 6.552C291.67 6.728 291.302 6.98667 290.998 7.328C290.699 7.664 290.47 8.07467 290.31 8.56C290.15 9.04 290.07 9.584 290.07 10.192C290.07 10.8053 290.15 11.3547 290.31 11.84C290.47 12.32 290.699 12.728 290.998 13.064C291.302 13.4 291.67 13.6587 292.102 13.84C292.534 14.016 293.022 14.104 293.566 14.104C294.11 14.104 294.595 14.016 295.022 13.84C295.454 13.6587 295.819 13.4 296.118 13.064C296.422 12.728 296.654 12.32 296.814 11.84C296.974 11.3547 297.054 10.8053 297.054 10.192ZM59.672 33.16C60.056 33.16 60.3707 33.1147 60.616 33.024C60.8667 32.928 61.0667 32.8027 61.216 32.648C61.3653 32.4933 61.4693 32.3173 61.528 32.12C61.5867 31.9173 61.616 31.7093 61.616 31.496C61.616 31.2613 61.5813 31.0507 61.512 30.864C61.4427 30.6773 61.3307 30.52 61.176 30.392C61.0213 30.2587 60.8187 30.1573 60.568 30.088C60.3227 30.0187 60.0187 29.984 59.656 29.984H57.616V33.16H59.672ZM57.616 25.216V28.352H59.192C59.528 28.352 59.8267 28.3253 60.088 28.272C60.3493 28.2133 60.568 28.1227 60.744 28C60.92 27.8773 61.0533 27.7173 61.144 27.52C61.24 27.3173 61.288 27.0747 61.288 26.792C61.288 26.504 61.248 26.2587 61.168 26.056C61.0933 25.8533 60.976 25.6907 60.816 25.568C60.656 25.4453 60.4533 25.3573 60.208 25.304C59.9627 25.2453 59.672 25.216 59.336 25.216H57.616ZM59.336 23.392C60.1147 23.392 60.7787 23.4667 61.328 23.616C61.8827 23.76 62.3333 23.968 62.68 24.24C63.032 24.5067 63.288 24.832 63.448 25.216C63.608 25.6 63.688 26.0293 63.688 26.504C63.688 26.7707 63.648 27.0267 63.568 27.272C63.4933 27.5173 63.3733 27.7493 63.208 27.968C63.048 28.1813 62.84 28.376 62.584 28.552C62.328 28.728 62.024 28.8773 61.672 29C62.4613 29.1867 63.0453 29.4907 63.424 29.912C63.8027 30.3333 63.992 30.88 63.992 31.552C63.992 32.0427 63.896 32.4987 63.704 32.92C63.5173 33.3413 63.2427 33.7067 62.88 34.016C62.5173 34.3253 62.0693 34.568 61.536 34.744C61.008 34.9147 60.4 35 59.712 35H55.216V23.392H59.336ZM73.7134 33.048V35H66.8254V23.392H69.2254V33.048H73.7134ZM82.3128 30.592L81.0568 27.04C80.9821 26.8533 80.9021 26.6347 80.8168 26.384C80.7368 26.1333 80.6594 25.8613 80.5848 25.568C80.5101 25.8667 80.4301 26.144 80.3448 26.4C80.2648 26.6507 80.1874 26.8693 80.1128 27.056L78.8648 30.592H82.3128ZM86.3448 35H84.4808C84.2728 35 84.1021 34.952 83.9688 34.856C83.8408 34.7547 83.7448 34.6267 83.6808 34.472L82.8968 32.256H78.2728L77.4888 34.472C77.4354 34.6053 77.3421 34.728 77.2088 34.84C77.0754 34.9467 76.9074 35 76.7048 35H74.8247L79.3608 23.392H81.8168L86.3448 35ZM95.9638 32.144C96.0971 32.144 96.2091 32.192 96.2998 32.288L97.2518 33.304C96.7824 33.9013 96.1984 34.3547 95.4998 34.664C94.8064 34.9733 93.9798 35.128 93.0198 35.128C92.1504 35.128 91.3691 34.9813 90.6758 34.688C89.9824 34.3893 89.3931 33.976 88.9078 33.448C88.4224 32.92 88.0491 32.2933 87.7878 31.568C87.5264 30.8427 87.3958 30.0507 87.3958 29.192C87.3958 28.616 87.4571 28.0693 87.5798 27.552C87.7078 27.0293 87.8918 26.5493 88.1318 26.112C88.3718 25.6747 88.6598 25.28 88.9958 24.928C89.3371 24.576 89.7211 24.2773 90.1478 24.032C90.5744 23.7813 91.0384 23.592 91.5398 23.464C92.0464 23.3307 92.5851 23.264 93.1558 23.264C93.5824 23.264 93.9851 23.3013 94.3638 23.376C94.7478 23.4507 95.1051 23.5547 95.4358 23.688C95.7664 23.8213 96.0704 23.984 96.3478 24.176C96.6304 24.3627 96.8838 24.568 97.1078 24.792L96.2998 25.896C96.2518 25.9653 96.1904 26.0267 96.1158 26.08C96.0411 26.1333 95.9398 26.16 95.8118 26.16C95.6838 26.16 95.5531 26.1147 95.4198 26.024C95.2918 25.9333 95.1318 25.832 94.9398 25.72C94.7531 25.608 94.5158 25.5067 94.2278 25.416C93.9451 25.3253 93.5851 25.28 93.1478 25.28C92.6624 25.28 92.2171 25.368 91.8118 25.544C91.4064 25.72 91.0571 25.976 90.7638 26.312C90.4758 26.6427 90.2518 27.0507 90.0918 27.536C89.9318 28.0213 89.8518 28.5733 89.8518 29.192C89.8518 29.816 89.9371 30.3733 90.1078 30.864C90.2838 31.3493 90.5211 31.76 90.8198 32.096C91.1238 32.432 91.4758 32.688 91.8758 32.864C92.2811 33.0347 92.7131 33.12 93.1718 33.12C93.4438 33.12 93.6891 33.1067 93.9078 33.08C94.1318 33.0533 94.3371 33.008 94.5238 32.944C94.7158 32.88 94.8944 32.7973 95.0598 32.696C95.2304 32.5947 95.4011 32.4667 95.5718 32.312C95.6304 32.264 95.6918 32.224 95.7558 32.192C95.8198 32.16 95.8891 32.144 95.9638 32.144ZM102.007 28.184H102.479C102.873 28.184 103.159 28.0613 103.335 27.816L106.271 23.888C106.409 23.7013 106.561 23.5733 106.727 23.504C106.892 23.4293 107.095 23.392 107.335 23.392H109.415L105.719 28.152C105.479 28.4613 105.231 28.6827 104.975 28.816C105.161 28.8907 105.329 28.9893 105.479 29.112C105.628 29.2293 105.772 29.3867 105.911 29.584L109.703 35H107.567C107.428 35 107.308 34.9893 107.207 34.968C107.111 34.9467 107.025 34.9173 106.951 34.88C106.876 34.8427 106.812 34.7973 106.759 34.744C106.705 34.6853 106.655 34.6187 106.607 34.544L103.623 30.368C103.521 30.224 103.401 30.1227 103.263 30.064C103.124 30 102.929 29.968 102.679 29.968H102.007V35H99.6066V23.392H102.007V28.184ZM123.649 33.376V35H117.137V33.376H119.441V27.024C119.441 26.8853 119.443 26.744 119.449 26.6C119.454 26.456 119.462 26.3093 119.473 26.16L117.953 27.424C117.846 27.504 117.742 27.5547 117.641 27.576C117.539 27.5973 117.443 27.6 117.353 27.584C117.262 27.5627 117.182 27.5307 117.113 27.488C117.043 27.44 116.99 27.392 116.953 27.344L116.257 26.408L119.825 23.384H121.641V33.376H123.649ZM130.73 29.168C131.482 29.168 132.031 28.9867 132.378 28.624C132.73 28.2613 132.906 27.7653 132.906 27.136C132.906 26.848 132.86 26.5867 132.77 26.352C132.684 26.112 132.551 25.9093 132.37 25.744C132.194 25.5733 131.97 25.4427 131.698 25.352C131.426 25.2613 131.103 25.216 130.73 25.216H129.21V29.168H130.73ZM130.73 23.392C131.524 23.392 132.21 23.4853 132.786 23.672C133.367 23.8587 133.844 24.12 134.218 24.456C134.591 24.7867 134.866 25.1813 135.042 25.64C135.223 26.0987 135.314 26.5973 135.314 27.136C135.314 27.7067 135.22 28.2293 135.034 28.704C134.847 29.1787 134.564 29.5867 134.186 29.928C133.807 30.2693 133.33 30.536 132.754 30.728C132.178 30.9147 131.503 31.008 130.73 31.008H129.21V35H126.81V23.392H130.73ZM147.326 35H144.926C144.766 35 144.635 34.96 144.534 34.88C144.438 34.8 144.36 34.7067 144.302 34.6L141.79 30.328C141.763 30.3867 141.736 30.4453 141.71 30.504C141.688 30.5573 141.662 30.608 141.63 30.656L139.246 34.6C139.176 34.7013 139.094 34.7947 138.998 34.88C138.907 34.96 138.79 35 138.646 35H136.405L140.206 29.024L136.55 23.392H138.95C139.11 23.392 139.227 23.4133 139.302 23.456C139.376 23.4987 139.443 23.568 139.502 23.664L141.998 27.768C142.024 27.704 142.054 27.64 142.086 27.576C142.118 27.5067 142.155 27.4373 142.198 27.368L144.438 23.704C144.502 23.5973 144.571 23.52 144.646 23.472C144.726 23.4187 144.822 23.392 144.934 23.392H147.23L143.542 28.92L147.326 35ZM156.725 28.184H157.197C157.592 28.184 157.877 28.0613 158.053 27.816L160.989 23.888C161.128 23.7013 161.28 23.5733 161.445 23.504C161.611 23.4293 161.813 23.392 162.053 23.392H164.133L160.437 28.152C160.197 28.4613 159.949 28.6827 159.693 28.816C159.88 28.8907 160.048 28.9893 160.197 29.112C160.347 29.2293 160.491 29.3867 160.629 29.584L164.421 35H162.285C162.147 35 162.027 34.9893 161.925 34.968C161.829 34.9467 161.744 34.9173 161.669 34.88C161.595 34.8427 161.531 34.7973 161.477 34.744C161.424 34.6853 161.373 34.6187 161.325 34.544L158.341 30.368C158.24 30.224 158.12 30.1227 157.981 30.064C157.843 30 157.648 29.968 157.397 29.968H156.725V35H154.325V23.392H156.725V28.184ZM168.866 25.272V28.256H172.738V30.072H168.866V33.12H173.842V35H166.45V23.392H173.842V25.272H168.866ZM180.27 28.888C180.659 28.888 180.995 28.84 181.278 28.744C181.561 28.6427 181.793 28.5067 181.974 28.336C182.155 28.16 182.289 27.9547 182.374 27.72C182.459 27.4853 182.502 27.2293 182.502 26.952C182.502 26.4027 182.318 25.976 181.95 25.672C181.587 25.368 181.033 25.216 180.286 25.216H179.038V28.888H180.27ZM185.894 35H183.726C183.321 35 183.027 34.8453 182.846 34.536L180.638 30.976C180.547 30.8373 180.446 30.736 180.334 30.672C180.227 30.608 180.067 30.576 179.854 30.576H179.038V35H176.638V23.392H180.286C181.097 23.392 181.79 23.4773 182.366 23.648C182.942 23.8133 183.414 24.0453 183.782 24.344C184.15 24.6427 184.419 25 184.59 25.416C184.761 25.8267 184.846 26.28 184.846 26.776C184.846 27.16 184.79 27.5253 184.678 27.872C184.571 28.2133 184.414 28.5253 184.206 28.808C183.998 29.0907 183.742 29.3413 183.438 29.56C183.134 29.7787 182.787 29.9547 182.398 30.088C182.553 30.1733 182.697 30.2773 182.83 30.4C182.963 30.5173 183.083 30.6587 183.19 30.824L185.894 35ZM197.973 23.392V35H196.733C196.546 35 196.389 34.9707 196.261 34.912C196.133 34.848 196.007 34.7413 195.885 34.592L190.101 27.232C190.117 27.4187 190.127 27.6027 190.133 27.784C190.143 27.9653 190.149 28.1333 190.149 28.288V35H188.029V23.392H189.293C189.394 23.392 189.479 23.3973 189.549 23.408C189.623 23.4133 189.69 23.432 189.749 23.464C189.807 23.4907 189.863 23.528 189.917 23.576C189.97 23.624 190.029 23.688 190.093 23.768L195.917 31.16C195.895 30.9573 195.879 30.7627 195.869 30.576C195.858 30.384 195.852 30.2027 195.852 30.032V23.392H197.973ZM203.82 35H201.404V23.392H203.82V35ZM217.191 23.392V35H215.951C215.765 35 215.607 34.9707 215.479 34.912C215.351 34.848 215.226 34.7413 215.103 34.592L209.319 27.232C209.335 27.4187 209.346 27.6027 209.351 27.784C209.362 27.9653 209.367 28.1333 209.367 28.288V35H207.247V23.392H208.511C208.613 23.392 208.698 23.3973 208.767 23.408C208.842 23.4133 208.909 23.432 208.967 23.464C209.026 23.4907 209.082 23.528 209.135 23.576C209.189 23.624 209.247 23.688 209.311 23.768L215.135 31.16C215.114 30.9573 215.098 30.7627 215.087 30.576C215.077 30.384 215.071 30.2027 215.071 30.032V23.392H217.191ZM226.27 29.088H230.254V33.88C229.662 34.312 229.03 34.6293 228.358 34.832C227.692 35.0293 226.985 35.128 226.238 35.128C225.284 35.128 224.42 34.9813 223.646 34.688C222.873 34.3893 222.212 33.976 221.662 33.448C221.113 32.92 220.689 32.2933 220.39 31.568C220.092 30.8427 219.942 30.0507 219.942 29.192C219.942 28.3227 220.084 27.5253 220.366 26.8C220.654 26.0747 221.062 25.4507 221.59 24.928C222.118 24.4053 222.756 23.9973 223.502 23.704C224.254 23.4107 225.094 23.264 226.022 23.264C226.502 23.264 226.95 23.304 227.366 23.384C227.782 23.4587 228.166 23.5653 228.518 23.704C228.87 23.8373 229.193 23.9973 229.486 24.184C229.78 24.3707 230.046 24.576 230.286 24.8L229.59 25.872C229.484 26.0427 229.345 26.1467 229.174 26.184C229.004 26.2213 228.817 26.1787 228.614 26.056C228.422 25.9387 228.233 25.8347 228.046 25.744C227.865 25.648 227.67 25.5653 227.462 25.496C227.254 25.4267 227.028 25.3733 226.782 25.336C226.537 25.2987 226.254 25.28 225.934 25.28C225.396 25.28 224.908 25.3733 224.47 25.56C224.033 25.7467 223.66 26.0107 223.35 26.352C223.046 26.6933 222.812 27.104 222.646 27.584C222.481 28.064 222.398 28.6 222.398 29.192C222.398 29.832 222.489 30.4053 222.67 30.912C222.852 31.4133 223.108 31.8373 223.438 32.184C223.769 32.5307 224.164 32.7947 224.622 32.976C225.086 33.1573 225.601 33.248 226.166 33.248C226.55 33.248 226.892 33.2107 227.19 33.136C227.494 33.056 227.79 32.9493 228.078 32.816V30.864H226.766C226.612 30.864 226.489 30.824 226.398 30.744C226.313 30.6587 226.27 30.552 226.27 30.424V29.088Z" fill="black"/>
<path d="M104.795 3.584H106.507V18.736H104.795V3.584ZM162.905 3.584H164.617V18.736H162.905V3.584Z" fill="#7C4663"/>
<path d="M1.10352 29.6426C0.927734 29.5384 0.797526 29.3301 0.712891 29.0176C0.628255 28.7051 0.585938 28.3828 0.585938 28.0508C0.585938 27.8945 0.693359 27.7773 0.908203 27.6992C1.12305 27.6211 1.38021 27.582 1.67969 27.582C1.93359 27.582 2.09961 27.5299 2.17773 27.4258C2.25586 27.3151 2.29492 27.1621 2.29492 26.9668V17.5332C2.29492 17.3379 2.25586 17.1882 2.17773 17.084C2.09961 16.9733 1.93359 16.918 1.67969 16.918C0.950521 16.918 0.585938 16.7487 0.585938 16.4102C0.585938 16.0911 0.628255 15.7786 0.712891 15.4727C0.797526 15.1602 0.927734 14.9551 1.10352 14.8574C2.18424 14.9421 2.96224 14.9844 3.4375 14.9844C4.02995 14.9844 4.83398 14.9453 5.84961 14.8672C5.99284 14.9714 6.09701 15.1797 6.16211 15.4922C6.23372 15.8047 6.26953 16.1302 6.26953 16.4688C6.26953 16.625 6.16211 16.7422 5.94727 16.8203C5.73242 16.8984 5.47526 16.9375 5.17578 16.9375C5.03255 16.9375 4.91536 16.957 4.82422 16.9961C4.73307 17.0286 4.66797 17.0807 4.62891 17.1523C4.59635 17.224 4.57357 17.2891 4.56055 17.3477C4.55404 17.3997 4.55078 17.4746 4.55078 17.5723V20.9023C4.55078 21.0391 4.61263 21.1074 4.73633 21.1074H12.4316C12.5553 21.1074 12.6172 21.0391 12.6172 20.9023V17.5527C12.6172 17.3574 12.5781 17.2077 12.5 17.1035C12.4219 16.9928 12.2559 16.9375 12.002 16.9375C11.7025 16.9375 11.4453 16.8984 11.2305 16.8203C11.0156 16.7422 10.9082 16.625 10.9082 16.4688C10.9082 16.1302 10.9505 15.8047 11.0352 15.4922C11.1198 15.1797 11.25 14.9714 11.4258 14.8672C12.4284 14.9453 13.2064 14.9844 13.7598 14.9844C14.3522 14.9844 15.1562 14.9453 16.1719 14.8672C16.3151 14.9714 16.4193 15.1797 16.4844 15.4922C16.556 15.8047 16.5918 16.1302 16.5918 16.4688C16.5918 16.625 16.4844 16.7422 16.2695 16.8203C16.0547 16.8984 15.7975 16.9375 15.498 16.9375C15.3548 16.9375 15.2376 16.957 15.1465 16.9961C15.0553 17.0286 14.9902 17.0807 14.9512 17.1523C14.9186 17.224 14.8958 17.2891 14.8828 17.3477C14.8763 17.3997 14.873 17.4746 14.873 17.5723V26.9473C14.873 27.0449 14.8763 27.123 14.8828 27.1816C14.8958 27.2337 14.9186 27.2956 14.9512 27.3672C14.9902 27.4388 15.0553 27.4941 15.1465 27.5332C15.2376 27.5658 15.3548 27.582 15.498 27.582C15.7975 27.582 16.0547 27.6211 16.2695 27.6992C16.4844 27.7773 16.5918 27.8945 16.5918 28.0508C16.5918 28.3893 16.556 28.7148 16.4844 29.0273C16.4193 29.3333 16.3151 29.5384 16.1719 29.6426C15.2409 29.571 14.4368 29.5352 13.7598 29.5352C13.1217 29.5352 12.3438 29.571 11.4258 29.6426C11.25 29.5384 11.1198 29.3301 11.0352 29.0176C10.9505 28.7051 10.9082 28.3828 10.9082 28.0508C10.9082 27.8945 11.0156 27.7773 11.2305 27.6992C11.4453 27.6211 11.7025 27.582 12.002 27.582C12.2559 27.582 12.4219 27.5299 12.5 27.4258C12.5781 27.3151 12.6172 27.1621 12.6172 26.9668V22.8359C12.6172 22.6992 12.5553 22.6309 12.4316 22.6309H4.73633C4.61263 22.6309 4.55078 22.6992 4.55078 22.8359V26.9473C4.55078 27.0449 4.55404 27.123 4.56055 27.1816C4.57357 27.2337 4.59635 27.2956 4.62891 27.3672C4.66797 27.4388 4.73307 27.4941 4.82422 27.5332C4.91536 27.5658 5.03255 27.582 5.17578 27.582C5.47526 27.582 5.73242 27.6211 5.94727 27.6992C6.16211 27.7773 6.26953 27.8945 6.26953 28.0508C6.26953 28.3893 6.23372 28.7148 6.16211 29.0273C6.09701 29.3333 5.99284 29.5384 5.84961 29.6426C4.91862 29.571 4.11458 29.5352 3.4375 29.5352C2.79948 29.5352 2.02148 29.571 1.10352 29.6426ZM23.0469 28.1191C23.3594 28.1191 23.6686 28.0866 23.9746 28.0215C24.2871 27.9499 24.5898 27.8424 24.8828 27.6992C25.1758 27.5495 25.4329 27.3704 25.6543 27.1621C25.8822 26.9538 26.0645 26.6999 26.2012 26.4004C26.3379 26.0944 26.4062 25.7624 26.4062 25.4043C26.4062 24.9876 26.3509 24.6198 26.2402 24.3008C26.1361 23.9818 25.9733 23.7214 25.752 23.5195C25.5371 23.3177 25.3027 23.1517 25.0488 23.0215C24.8014 22.8913 24.4954 22.7969 24.1309 22.7383C23.7728 22.6732 23.4375 22.6309 23.125 22.6113C22.819 22.5918 22.4577 22.582 22.041 22.582C21.8327 22.582 21.5332 22.5918 21.1426 22.6113C20.7585 22.6243 20.4818 22.6309 20.3125 22.6309C20.2279 22.5853 20.1855 22.2598 20.1855 21.6543C20.1855 21.1855 20.2669 20.8763 20.4297 20.7266C20.5794 20.7396 21.1458 20.7461 22.1289 20.7461C23.151 20.7461 23.9355 20.5182 24.4824 20.0625C25.0358 19.6068 25.3125 19.0697 25.3125 18.4512C25.3125 17.8913 25.0879 17.4062 24.6387 16.9961C24.1895 16.5794 23.584 16.3711 22.8223 16.3711C22.4902 16.3711 22.1777 16.3971 21.8848 16.4492C21.5983 16.5013 21.3053 16.5957 21.0059 16.7324C20.7064 16.8626 20.4427 17.0319 20.2148 17.2402C19.987 17.4486 19.7852 17.7253 19.6094 18.0703C19.4336 18.4089 19.3066 18.7995 19.2285 19.2422C19.2285 19.2682 19.1667 19.2812 19.043 19.2812C18.8086 19.2812 18.4961 19.2454 18.1055 19.1738C17.7148 19.1022 17.5195 19.0404 17.5195 18.9883C17.5456 18.7409 17.5781 18.4935 17.6172 18.2461C17.6562 17.9987 17.6888 17.7904 17.7148 17.6211C17.7474 17.4453 17.7897 17.2435 17.8418 17.0156C17.9004 16.7878 17.9427 16.625 17.9688 16.5273C17.9948 16.4232 18.0371 16.2604 18.0957 16.0391C18.1543 15.8112 18.1901 15.6712 18.2031 15.6191L18.2422 15.502C19.8307 15.1309 21.3509 14.9453 22.8027 14.9453C23.4928 14.9453 24.1178 15.0137 24.6777 15.1504C25.2441 15.2806 25.7096 15.4564 26.0742 15.6777C26.4453 15.8991 26.7546 16.1628 27.002 16.4688C27.2559 16.7682 27.4349 17.0807 27.5391 17.4062C27.6497 17.7318 27.7051 18.0671 27.7051 18.4121C27.7051 19.0957 27.4544 19.724 26.9531 20.2969C26.4518 20.8698 25.8008 21.2474 25 21.4297C26.1523 21.5859 27.0833 22.0254 27.793 22.748C28.5091 23.4707 28.8672 24.3171 28.8672 25.2871C28.8672 26.2702 28.6198 27.1068 28.125 27.7969C27.6367 28.487 26.9824 28.9948 26.1621 29.3203C25.3483 29.6393 24.4108 29.7988 23.3496 29.7988C21.8132 29.7988 20.1953 29.6133 18.4961 29.2422L18.457 29.125C18.444 29.0729 18.4082 28.9362 18.3496 28.7148C18.291 28.487 18.2487 28.3242 18.2227 28.2266C18.1966 28.1224 18.1543 27.9564 18.0957 27.7285C18.0436 27.5007 18.0013 27.3021 17.9688 27.1328C17.9427 26.957 17.9102 26.7454 17.8711 26.498C17.832 26.2507 17.7995 26.0033 17.7734 25.7559C17.7734 25.7038 17.9688 25.6419 18.3594 25.5703C18.75 25.4987 19.0625 25.4629 19.2969 25.4629C19.4206 25.4629 19.4824 25.4759 19.4824 25.502C19.6126 26.0879 19.8633 26.5827 20.2344 26.9863C20.6055 27.39 21.0286 27.6797 21.5039 27.8555C21.9792 28.0312 22.4935 28.1191 23.0469 28.1191Z" fill="black"/>
</svg>
