<svg fill="none" height="69" viewBox="0 0 90 69" width="90" xmlns="http://www.w3.org/2000/svg"><g stroke="#b30000"><path d="m1.5 11.5v49.8716h.5.5v-49.8716h-.5z"/><path d="m24.3507 33.1853-21.707-21.364-.35073.3563-.35073.3564 21.70706 21.364.3507-.3564z"/><path d="m44.5404 13.6254-21.6874 18.8692.3282.3772.3281.3772 21.6874-18.8692-.3281-.3772z"/></g><path d="m65.168 13.3093c3.168 0 5.688.46 7.56 1.38 2.256 1.104 3.984 2.622 5.184 4.554 1.248 1.932 1.872 4.094 1.872 6.486 0 2.254-.624 4.347-1.872 6.279-1.248 1.886-2.952 3.381-5.112 4.485 2.592.874 4.776 2.392 6.552 4.554s2.664 4.6 2.664 7.314c0 2.392-.648 4.6-1.944 6.624-1.248 1.978-2.928 3.542-5.04 4.692-1.056.552-2.232.966-3.528 1.242s-3.024.414-5.184.414h-22.176v-48.024z" fill="#b30000"/></svg>