<svg fill="none" height="142" viewBox="0 0 305 142" width="305" xmlns="http://www.w3.org/2000/svg"><g fill="#000"><path d="m17.128 90.804v17.196h-2.328v-7.824h-9.276v7.824h-2.328v-17.196h2.328v7.668h9.276v-7.668zm14.0441 15.168c.232 0 .416.068.552.204s.204.312.204.528v1.296h-11.472v-.732c0-.152.032-.308.096-.468s.164-.308.3-.444l5.508-5.532c.456-.464.872-.908 1.248-1.332.376-.432.696-.864.96-1.296s.468-.868.612-1.308c.144-.448.216-.924.216-1.428s-.08-.944-.24-1.32c-.16-.384-.38-.7-.66-.948-.272-.248-.596-.432-.972-.552-.376-.128-.78-.192-1.212-.192-.44 0-.844.064-1.212.192s-.696.308-.984.54c-.28.224-.516.492-.708.804s-.328.656-.408 1.032c-.096.28-.228.468-.396.564-.16.088-.388.112-.684.072l-1.116-.192c.112-.784.328-1.476.648-2.076.328-.608.736-1.116 1.224-1.524.496-.408 1.06-.716 1.692-.924.632-.216 1.316-.324 2.052-.324.728 0 1.408.108 2.04.324s1.18.532 1.644.948c.464.408.828.908 1.092 1.5s.396 1.264.396 2.016c0 .64-.096 1.236-.288 1.788-.192.544-.452 1.064-.78 1.56s-.708.98-1.14 1.452c-.424.472-.876.948-1.356 1.428l-4.536 4.632c.32-.088.644-.156.972-.204.328-.056.644-.084.948-.084z"/><path d="m30.22 33.31c.26 0 .46.12.6.36.16.24.24.57.24.99 0 .78-.19 1.4-.57 1.86-1.98 2.42-4.09 3.63-6.33 3.63-1.94 0-3.49-.75-4.65-2.25s-1.74-3.65-1.74-6.45c0-.68.03-1.36.09-2.04-1.32.24-2.76.42-4.32.54-1.04.08-1.75.13-2.13.15-.4 2.04-.96 4.54-1.68 7.5-.42 1.74-1.22 2.61-2.4 2.61-1.28 0-1.92-.58-1.92-1.74 0-.26.05-.62.15-1.08.68-2.74 1.22-5.06 1.62-6.96l-1.44.06c-.66 0-1.14-.11-1.44-.33-.3-.24-.45-.62-.45-1.14 0-.66.19-1.14.57-1.44.38-.32 1.01-.5 1.89-.54l1.59-.06c.52-2.82.78-4.97.78-6.45 0-.94-.14-1.58-.42-1.92s-.65-.51-1.11-.51c-1.4 0-2.98 1.17-4.74 3.51-.26.34-.55.51-.87.51-.28 0-.52-.13-.72-.39s-.3-.59-.3-.99c0-.62.25-1.28.75-1.98.88-1.22 1.99-2.22 3.33-3 1.34-.8 2.7-1.2 4.08-1.2 1.3 0 2.3.45 3 1.35.72.88 1.08 2.26 1.08 4.14 0 1.66-.24 3.91-.72 6.75l2.94-.15c1.26-.06 2.34-.16 3.24-.3.36-2.2.91-4.26 1.65-6.18s1.66-3.48 2.76-4.68 2.33-1.8 3.69-1.8c1 0 1.79.4 2.37 1.2.58.78.87 1.81.87 3.09 0 4.96-2.53 8.4-7.59 10.32-.06.8-.09 1.63-.09 2.49 0 2.1.26 3.59.78 4.47s1.25 1.32 2.19 1.32c.82 0 1.57-.21 2.25-.63.68-.44 1.45-1.18 2.31-2.22.24-.28.51-.42.81-.42zm-4.05-17.01c-.44 0-.91.4-1.41 1.2-.48.8-.94 1.89-1.38 3.27s-.79 2.89-1.05 4.53c1.6-.66 2.78-1.6 3.54-2.82s1.14-2.79 1.14-4.71c0-.46-.08-.82-.24-1.08s-.36-.39-.6-.39zm6.9014 23.85c-.5 0-.94-.15-1.32-.45s-.57-.77-.57-1.41l.03-.33c.22-2.06.48-4.2.78-6.42.32-2.24.59-3.96.81-5.16l-2.34.66-.36.06c-.38 0-.68-.15-.9-.45s-.33-.64-.33-1.02l.03-.27c.04-.38.16-.69.36-.93s.58-.48 1.14-.72c.58-.24 1.44-.5 2.58-.78l1.26-.3c.46-.1.84-.15 1.14-.15.58 0 1.01.15 1.29.45.3.3.45.72.45 1.26 0 .24-.03.5-.09.78-.32 1.56-.93 6-1.83 13.32-.16 1.24-.87 1.86-2.13 1.86z"/><path d="m69.952 106.044v1.956h-9.756v-17.196h2.316v15.24zm8.6561-3.516c-.984.032-1.824.112-2.52.24-.688.12-1.252.28-1.692.48-.432.2-.748.436-.948.708-.192.272-.288.576-.288.912 0 .32.052.596.156.828s.244.424.42.576c.184.144.396.252.636.324.248.064.512.096.792.096.376 0 .72-.036 1.032-.108.312-.08.604-.192.876-.336.28-.144.544-.316.792-.516.256-.2.504-.428.744-.684zm-6.9-4.968c.672-.648 1.396-1.132 2.172-1.452s1.636-.48 2.58-.48c.68 0 1.284.112 1.812.336s.972.536 1.332.936.632.884.816 1.452.276 1.192.276 1.872v7.776h-.948c-.208 0-.368-.032-.48-.096-.112-.072-.2-.208-.264-.408l-.24-1.152c-.32.296-.632.56-.936.792-.304.224-.624.416-.96.576-.336.152-.696.268-1.08.348-.376.088-.796.132-1.26.132-.472 0-.916-.064-1.332-.192-.416-.136-.78-.336-1.092-.6-.304-.264-.548-.596-.732-.996-.176-.408-.264-.888-.264-1.44 0-.48.132-.94.396-1.38.264-.448.692-.844 1.284-1.188s1.364-.624 2.316-.84c.952-.224 2.12-.352 3.504-.384v-.948c0-.944-.204-1.656-.612-2.136-.408-.488-1.004-.732-1.788-.732-.528 0-.972.068-1.332.204-.352.128-.66.276-.924.444-.256.16-.48.308-.672.444-.184.128-.368.192-.552.192-.144 0-.268-.036-.372-.108-.104-.08-.192-.176-.264-.288zm15.8097 10.632c-.96 0-1.7-.268-2.22-.804-.512-.536-.768-1.308-.768-2.316v-7.44h-1.464c-.128 0-.236-.036-.324-.108-.088-.08-.132-.2-.132-.36v-.852l1.992-.252.492-3.756c.024-.12.076-.216.156-.288.088-.08.2-.12.336-.12h1.08v4.188h3.516v1.548h-3.516v7.296c0 .512.124.892.372 1.14s.568.372.96.372c.224 0 .416-.028.576-.084.168-.064.312-.132.432-.204s.22-.136.3-.192c.088-.064.164-.096.228-.096.112 0 .212.068.3.204l.624 1.02c-.368.344-.812.616-1.332.816-.52.192-1.056.288-1.608.288zm9.9232-12.54c.888 0 1.688.148 2.4.444s1.32.716 1.824 1.26.888 1.204 1.152 1.98c.272.768.408 1.628.408 2.58 0 .96-.136 1.824-.408 2.592-.264.768-.648 1.424-1.152 1.968s-1.112.964-1.824 1.26c-.712.288-1.512.432-2.4.432-.896 0-1.704-.144-2.424-.432-.712-.296-1.32-.716-1.824-1.26s-.892-1.2-1.164-1.968c-.264-.768-.396-1.632-.396-2.592 0-.952.132-1.812.396-2.58.272-.776.66-1.436 1.164-1.98s1.112-.964 1.824-1.26c.72-.296 1.528-.444 2.424-.444zm0 10.848c1.2 0 2.096-.4 2.688-1.2.592-.808.888-1.932.888-3.372 0-1.448-.296-2.576-.888-3.384s-1.488-1.212-2.688-1.212c-.608 0-1.14.104-1.596.312-.448.208-.824.508-1.128.9-.296.392-.52.876-.672 1.452-.144.568-.216 1.212-.216 1.932 0 1.44.296 2.564.888 3.372.6.8 1.508 1.2 2.724 1.2zm32.066-7.368c.672 0 1.264-.08 1.776-.24.52-.168.952-.4 1.296-.696.352-.304.616-.664.792-1.08s.264-.876.264-1.38c0-1.024-.336-1.796-1.008-2.316s-1.68-.78-3.024-.78h-2.544v6.492zm7.944 8.868h-2.064c-.424 0-.736-.164-.936-.492l-4.464-6.144c-.136-.192-.284-.328-.444-.408-.152-.088-.392-.132-.72-.132h-1.764v7.176h-2.316v-17.196h4.86c1.088 0 2.028.112 2.82.336.792.216 1.444.532 1.956.948.52.416.904.92 1.152 1.512.248.584.372 1.24.372 1.968 0 .608-.096 1.176-.288 1.704s-.472 1.004-.84 1.428c-.36.416-.804.772-1.332 1.068-.52.296-1.112.52-1.776.672.296.168.552.412.768.732zm9.197-7.404c0-.496-.072-.948-.216-1.356-.136-.416-.34-.772-.612-1.068-.264-.304-.588-.536-.972-.696-.384-.168-.82-.252-1.308-.252-1.024 0-1.836.3-2.436.9-.592.592-.96 1.416-1.104 2.472zm1.728 5.7c-.264.32-.58.6-.948.84-.368.232-.764.424-1.188.576-.416.152-.848.264-1.296.336-.448.08-.892.12-1.332.12-.84 0-1.616-.14-2.328-.42-.704-.288-1.316-.704-1.836-1.248-.512-.552-.912-1.232-1.2-2.04s-.432-1.736-.432-2.784c0-.848.128-1.64.384-2.376.264-.736.64-1.372 1.128-1.908.488-.544 1.084-.968 1.788-1.272.704-.312 1.496-.468 2.376-.468.728 0 1.4.124 2.016.372.624.24 1.16.592 1.608 1.056.456.456.812 1.024 1.068 1.704.256.672.384 1.44.384 2.304 0 .336-.036.56-.108.672s-.208.168-.408.168h-8.124c.024.768.128 1.436.312 2.004.192.568.456 1.044.792 1.428.336.376.736.66 1.2.852.464.184.984.276 1.56.276.536 0 .996-.06 1.38-.18.392-.128.728-.264 1.008-.408s.512-.276.696-.396c.192-.128.356-.192.492-.192.176 0 .312.068.408.204zm7.052-4.236c.432 0 .812-.06 1.14-.18s.604-.288.828-.504.392-.472.504-.768c.112-.304.168-.636.168-.996 0-.744-.228-1.336-.684-1.776-.448-.44-1.1-.66-1.956-.66-.864 0-1.524.22-1.98.66-.448.44-.672 1.032-.672 1.776 0 .36.056.692.168.996.12.296.292.552.516.768s.5.384.828.504.708.18 1.14.18zm3.852 6.6c0-.296-.084-.536-.252-.72s-.396-.328-.684-.432c-.28-.104-.608-.176-.984-.216-.376-.048-.776-.084-1.2-.108-.416-.024-.84-.048-1.272-.072s-.848-.064-1.248-.12c-.448.208-.816.472-1.104.792-.28.312-.42.68-.42 1.104 0 .272.068.524.204.756.144.24.36.444.648.612.288.176.648.312 1.08.408.44.104.956.156 1.548.156.576 0 1.092-.052 1.548-.156s.84-.252 1.152-.444c.32-.192.564-.42.732-.684s.252-.556.252-.876zm2.172-12.336v.792c0 .264-.168.432-.504.504l-1.38.18c.272.528.408 1.112.408 1.752 0 .592-.116 1.132-.348 1.62-.224.48-.536.892-.936 1.236s-.88.608-1.44.792-1.168.276-1.824.276c-.568 0-1.104-.068-1.608-.204-.256.16-.452.332-.588.516-.136.176-.204.356-.204.54 0 .288.116.508.348.66.24.144.552.248.936.312s.82.104 1.308.12c.496.016 1 .044 1.512.084.52.032 1.024.092 1.512.18.496.088.936.232 1.32.432s.692.476.924.828c.24.352.36.808.36 1.368 0 .52-.132 1.024-.396 1.512-.256.488-.628.92-1.116 1.296-.488.384-1.088.688-1.8.912-.704.232-1.5.348-2.388.348s-1.664-.088-2.328-.264-1.216-.412-1.656-.708-.772-.64-.996-1.032c-.216-.384-.324-.788-.324-1.212 0-.6.188-1.108.564-1.524s.892-.748 1.548-.996c-.36-.16-.648-.372-.864-.636-.208-.272-.312-.636-.312-1.092 0-.176.032-.356.096-.54.064-.192.16-.38.288-.564.136-.192.3-.372.492-.54s.416-.316.672-.444c-.6-.336-1.068-.78-1.404-1.332-.336-.56-.504-1.208-.504-1.944 0-.592.112-1.128.336-1.608.232-.488.552-.9.96-1.236.408-.344.892-.608 1.452-.792.568-.184 1.188-.276 1.86-.276.528 0 1.02.06 1.476.18.456.112.872.28 1.248.504zm12.205-.48v12.156h-1.272c-.304 0-.496-.148-.576-.444l-.168-1.308c-.528.584-1.12 1.056-1.776 1.416-.656.352-1.408.528-2.256.528-.664 0-1.252-.108-1.764-.324-.504-.224-.928-.536-1.272-.936s-.604-.884-.78-1.452c-.168-.568-.252-1.196-.252-1.884v-7.752h2.136v7.752c0 .92.208 1.632.624 2.136.424.504 1.068.756 1.932.756.632 0 1.22-.148 1.764-.444.552-.304 1.06-.72 1.524-1.248v-8.952zm5.595-5.52v17.676h-2.136v-17.676zm10.051 12.204c-.984.032-1.824.112-2.52.24-.688.12-1.252.28-1.692.48-.432.2-.748.436-.948.708-.192.272-.288.576-.288.912 0 .32.052.596.156.828s.244.424.42.576c.184.144.396.252.636.324.248.064.512.096.792.096.376 0 .72-.036 1.032-.108.312-.08.604-.192.876-.336.28-.144.544-.316.792-.516.256-.2.504-.428.744-.684zm-6.9-4.968c.672-.648 1.396-1.132 2.172-1.452s1.636-.48 2.58-.48c.68 0 1.284.112 1.812.336s.972.536 1.332.936.632.884.816 1.452.276 1.192.276 1.872v7.776h-.948c-.208 0-.368-.032-.48-.096-.112-.072-.2-.208-.264-.408l-.24-1.152c-.32.296-.632.56-.936.792-.304.224-.624.416-.96.576-.336.152-.696.268-1.08.348-.376.088-.796.132-1.26.132-.472 0-.916-.064-1.332-.192-.416-.136-.78-.336-1.092-.6-.304-.264-.548-.596-.732-.996-.176-.408-.264-.888-.264-1.44 0-.48.132-.94.396-1.38.264-.448.692-.844 1.284-1.188s1.364-.624 2.316-.84c.952-.224 2.12-.352 3.504-.384v-.948c0-.944-.204-1.656-.612-2.136-.408-.488-1.004-.732-1.788-.732-.528 0-.972.068-1.332.204-.352.128-.66.276-.924.444-.256.16-.48.308-.672.444-.184.128-.368.192-.552.192-.144 0-.268-.036-.372-.108-.104-.08-.192-.176-.264-.288zm14.27.72c.384-.832.856-1.48 1.416-1.944.56-.472 1.244-.708 2.052-.708.256 0 .5.028.732.084.24.056.452.144.636.264l-.156 1.596c-.048.2-.168.3-.36.3-.112 0-.276-.024-.492-.072s-.46-.072-.732-.072c-.384 0-.728.056-1.032.168-.296.112-.564.28-.804.504-.232.216-.444.488-.636.816-.184.32-.352.688-.504 1.104v7.68h-2.148v-12.156h1.224c.232 0 .392.044.48.132s.148.24.18.456zm35.171 7.692c.232 0 .416.068.552.204s.204.312.204.528v1.296h-11.472v-.732c0-.152.032-.308.096-.468s.164-.308.3-.444l5.508-5.532c.456-.464.872-.908 1.248-1.332.376-.432.696-.864.96-1.296s.468-.868.612-1.308c.144-.448.216-.924.216-1.428s-.08-.944-.24-1.32c-.16-.384-.38-.7-.66-.948-.272-.248-.596-.432-.972-.552-.376-.128-.78-.192-1.212-.192-.44 0-.844.064-1.212.192s-.696.308-.984.54c-.28.224-.516.492-.708.804s-.328.656-.408 1.032c-.096.28-.228.468-.396.564-.16.088-.388.112-.684.072l-1.116-.192c.112-.784.328-1.476.648-2.076.328-.608.736-1.116 1.224-1.524.496-.408 1.06-.716 1.692-.924.632-.216 1.316-.324 2.052-.324.728 0 1.408.108 2.04.324s1.18.532 1.644.948c.464.408.828.908 1.092 1.5s.396 1.264.396 2.016c0 .64-.096 1.236-.288 1.788-.192.544-.452 1.064-.78 1.56s-.708.98-1.14 1.452c-.424.472-.876.948-1.356 1.428l-4.536 4.632c.32-.088.644-.156.972-.204.328-.056.644-.084.948-.084zm10.838-4.176v-7.092c0-.208.008-.436.024-.684s.04-.5.072-.756l-6.264 8.532zm4.476 0v1.224c0 .128-.04.236-.12.324-.072.088-.188.132-.348.132h-2.136v4.524h-1.872v-4.524h-7.632c-.16 0-.3-.044-.42-.132-.112-.096-.184-.212-.216-.348l-.216-1.092 8.364-11.1h1.992v10.992zm14.098-2.076c.664 0 1.248-.088 1.752-.264.512-.176.94-.42 1.284-.732.352-.32.616-.7.792-1.14s.264-.924.264-1.452c0-1.096-.34-1.952-1.02-2.568-.672-.616-1.696-.924-3.072-.924h-2.76v7.08zm0-8.916c1.088 0 2.032.128 2.832.384.808.248 1.476.604 2.004 1.068s.92 1.024 1.176 1.68c.264.656.396 1.388.396 2.196 0 .8-.14 1.532-.42 2.196s-.692 1.236-1.236 1.716c-.536.48-1.204.856-2.004 1.128-.792.264-1.708.396-2.748.396h-2.76v6.432h-2.316v-17.196zm18.818 17.196h-2.052c-.176 0-.316-.044-.42-.132-.096-.096-.176-.2-.24-.312l-3.06-4.764c-.032.112-.068.224-.108.336-.032.104-.08.2-.144.288l-2.832 4.14c-.08.112-.168.216-.264.312-.088.088-.212.132-.372.132h-1.908l4.26-6.24-4.092-5.916h2.052c.176 0 .304.028.384.084s.152.136.216.24l2.988 4.56c.064-.232.164-.456.3-.672l2.616-3.84c.072-.112.148-.2.228-.264.088-.072.192-.108.312-.108h1.968l-4.092 5.808z"/></g><path d="m112.555 89.604h1.668v22.584h-1.668zm97.453 0h1.668v22.584h-1.668z" fill="#7c4663"/><path d="m82.69 21.12c0 1.7-.44 3.26-1.32 4.68s-2.16 2.58-3.84 3.48-3.68 1.43-6 1.59l-1.29 7.23c-.5 2.78-1.86 4.17-4.08 4.17-1.22 0-2.35-.36-3.39-1.08-1.02-.72-1.84-1.82-2.46-3.3s-.93-3.3-.93-5.46c0-4.06.65-7.5 1.95-10.32 1.32-2.84 3.08-4.96 5.28-6.36 2.22-1.42 4.66-2.13 7.32-2.13 1.88 0 3.47.33 4.77.99 1.32.66 2.31 1.56 2.97 2.7.68 1.12 1.02 2.39 1.02 3.81zm-10.62 6.66c4.1-.52 6.15-2.65 6.15-6.39 0-1.32-.44-2.39-1.32-3.21-.86-.84-2.2-1.26-4.02-1.26-2.06 0-3.86.65-5.4 1.95-1.52 1.3-2.7 3.11-3.54 5.43-.82 2.3-1.23 4.93-1.23 7.89 0 1.24.12 2.34.36 3.3.26.96.58 1.71.96 2.25.4.52.78.78 1.14.78.5 0 .88-.69 1.14-2.07l.99-5.67c-.78-.12-1.12-.17-1.02-.15-.6-.1-.99-.28-1.17-.54-.18-.28-.27-.63-.27-1.05 0-.44.12-.79.36-1.05.26-.26.61-.39 1.05-.39.2 0 .35.01.45.03.48.08.85.13 1.11.15.26-1.56.63-3.65 1.11-6.27.12-.68.39-1.16.81-1.44.44-.3.95-.45 1.53-.45.66 0 1.13.13 1.41.39.3.24.45.63.45 1.17 0 .32-.02.58-.06.78zm12.6518 11.37c-1.24 0-2.23-.45-2.97-1.35s-1.11-2.08-1.11-3.54c0-1.6.37-3.11 1.11-4.53.74-1.44 1.72-2.59 2.94-3.45 1.24-.88 2.55-1.32 3.93-1.32.44 0 .73.09.87.27.16.16.29.46.39.9.42-.08.86-.12 1.32-.12.98 0 1.47.35 1.47 1.05 0 .42-.15 1.42-.45 3-.46 2.3-.69 3.9-.69 4.8 0 .3.07.54.21.72.16.18.36.27.6.27.38 0 .84-.24 1.38-.72.54-.5 1.27-1.3 2.19-2.4.24-.28.51-.42.81-.42.26 0 .46.12.6.36.16.24.24.57.24.99 0 .8-.19 1.42-.57 1.86-.82 1.02-1.69 1.88-2.61 2.58s-1.81 1.05-2.67 1.05c-.66 0-1.27-.22-1.83-.66-.54-.46-.95-1.08-1.23-1.86-1.04 1.68-2.35 2.52-3.93 2.52zm1.08-3.03c.44 0 .86-.26 1.26-.78s.69-1.21.87-2.07l1.11-5.52c-.84.02-1.62.34-2.34.96-.7.6-1.26 1.4-1.68 2.4s-.63 2.06-.63 3.18c0 .62.12 1.08.36 1.38.26.3.61.45 1.05.45zm15.0522 3.03c-1.9604 0-3.4904-.55-4.5904-1.65-1.08-1.12-1.62-2.59-1.62-4.41 0-1.62.32-3.04.96-4.26s1.47-2.16 2.49-2.82 2.0904-.99 3.2104-.99c1.1 0 1.95.33 2.55.99.62.64.93 1.47.93 2.49 0 .84-.19 1.55-.57 2.13-.36.58-.84.87-1.44.87-.38 0-.69-.09-.93-.27-.22-.18-.33-.43-.33-.75 0-.14.02-.3.06-.48s.07-.31.09-.39c.1-.3.15-.58.15-.84s-.07-.46-.21-.6c-.12-.14-.3-.21-.54-.21-.46 0-.89.21-1.2904.63-.4.4-.72.95-.96 1.65s-.36 1.47-.36 2.31c0 2.32 1.01 3.48 3.0304 3.48.82 0 1.7-.27 2.64-.81.96-.56 1.9-1.39 2.82-2.49.24-.28.51-.42.81-.42.26 0 .46.12.6.36.16.24.24.57.24.99 0 .76-.19 1.38-.57 1.86-.94 1.16-2.07 2.06-3.39 2.7-1.3.62-2.56.93-3.78.93zm9.245-16.11c-.84 0-1.47-.19-1.89-.57-.42-.4-.63-.95-.63-1.65s.27-1.28.81-1.74c.56-.48 1.25-.72 2.07-.72.74 0 1.34.18 1.8.54s.69.87.69 1.53c0 .8-.26 1.44-.78 1.92-.52.46-1.21.69-2.07.69zm-.24 16.11c-1.3 0-2.25-.46-2.85-1.38-.58-.92-.87-2.14-.87-3.66 0-.9.11-2.05.33-3.45.24-1.42.54-2.74.9-3.96.18-.64.42-1.08.72-1.32s.78-.36 1.44-.36c1.02 0 1.53.34 1.53 1.02 0 .5-.19 1.66-.57 3.48-.48 2.2-.72 3.69-.72 4.47 0 .6.08 1.06.24 1.38s.43.48.81.48c.36 0 .81-.25 1.35-.75s1.26-1.29 2.16-2.37c.24-.28.51-.42.81-.42.26 0 .46.12.6.36.16.24.24.57.24.99 0 .8-.19 1.42-.57 1.86-1.98 2.42-3.83 3.63-5.55 3.63zm24.272-6.84c.26 0 .46.12.6.36.16.24.24.57.24.99 0 .8-.19 1.42-.57 1.86-.82 1-1.73 1.86-2.73 2.58-.98.7-1.97 1.05-2.97 1.05-1.3 0-2.25-.46-2.85-1.38-.58-.92-.87-2.14-.87-3.66 0-.78.08-1.74.24-2.88.18-1.14.41-2.26.69-3.36-2 0-4.37.09-7.11.27-.44 2.8-.66 5.41-.66 7.83 0 1.86.1 3.8.3 5.82.22 2.04.54 3.06.96 3.06.2 0 .41-.35.63-1.05s.4-1.66.54-2.88.21-2.57.21-4.05c0-1.62-.09-3.37-.27-5.25-.04-.56.05-.97.27-1.23.24-.28.59-.42 1.05-.42.42 0 .73.11.93.33s.32.59.36 1.11c.1 1.46.15 3.2.15 5.22 0 3.26-.4 6.05-1.2 8.37-.78 2.32-2 3.48-3.66 3.48-1.42 0-2.44-1.03-3.06-3.09-.62-2.04-.93-5.11-.93-9.21 0-2.42.19-5.01.57-7.77-.14.02-.32.03-.54.03-.62 0-1.04-.11-1.26-.33-.2-.22-.3-.56-.3-1.02 0-.5.13-.9.39-1.2.28-.3.8-.48 1.56-.54.14-.02.36-.03.66-.03.54-2.7 1.23-5.15 2.07-7.35s1.8-3.94 2.88-5.22c1.08-1.3 2.22-1.95 3.42-1.95.94 0 1.66.37 2.16 1.11.52.72.78 1.65.78 2.79 0 4.02-1.62 7.44-4.86 10.26 2.44-.1 4.41-.15 5.91-.15.56 0 1.02.11 1.38.33.36.2.54.6.54 1.2 0 .4-.07 1.01-.21 1.83-.12.82-.26 1.64-.42 2.46-.36 1.7-.54 2.82-.54 3.36 0 .6.08 1.06.24 1.38s.43.48.81.48c.34 0 .77-.23 1.29-.69.54-.48 1.33-1.29 2.37-2.43.24-.28.51-.42.81-.42zm-10.83-18.63c-.48 0-1.09 1.04-1.83 3.12s-1.41 4.6-2.01 7.56c1-.7 1.83-1.57 2.49-2.61.68-1.04 1.18-2.11 1.5-3.21.34-1.12.51-2.15.51-3.09 0-1.18-.22-1.77-.66-1.77zm5.82 9.36c-.84 0-1.47-.19-1.89-.57-.42-.4-.63-.95-.63-1.65s.27-1.28.81-1.74c.56-.48 1.25-.72 2.07-.72.74 0 1.34.18 1.8.54s.69.87.69 1.53c0 .8-.26 1.44-.78 1.92-.52.46-1.21.69-2.07.69zm9.145 16.11c-1.96 0-3.49-.55-4.59-1.65-1.08-1.12-1.62-2.59-1.62-4.41 0-1.62.32-3.04.96-4.26s1.47-2.16 2.49-2.82 2.09-.99 3.21-.99c1.1 0 1.95.33 2.55.99.62.64.93 1.47.93 2.49 0 .84-.19 1.55-.57 2.13-.36.58-.84.87-1.44.87-.38 0-.69-.09-.93-.27-.22-.18-.33-.43-.33-.75 0-.14.02-.3.06-.48s.07-.31.09-.39c.1-.3.15-.58.15-.84s-.07-.46-.21-.6c-.12-.14-.3-.21-.54-.21-.46 0-.89.21-1.29.63-.4.4-.72.95-.96 1.65s-.36 1.47-.36 2.31c0 2.32 1.01 3.48 3.03 3.48.82 0 1.7-.27 2.64-.81.96-.56 1.9-1.39 2.82-2.49.24-.28.51-.42.81-.42.26 0 .46.12.6.36.16.24.24.57.24.99 0 .76-.19 1.38-.57 1.86-.94 1.16-2.07 2.06-3.39 2.7-1.3.62-2.56.93-3.78.93zm10.385 0c-1.18 0-2.19-.29-3.03-.87-.82-.6-1.44-1.38-1.86-2.34s-.63-1.99-.63-3.09c0-1.52.28-2.87.84-4.05.58-1.2 1.36-2.13 2.34-2.79.98-.68 2.08-1.02 3.3-1.02 1.18 0 2.19.3 3.03.9.84.58 1.47 1.35 1.89 2.31s.63 1.99.63 3.09c0 1.52-.29 2.88-.87 4.08-.58 1.18-1.37 2.11-2.37 2.79-.98.66-2.07.99-3.27.99zm.33-3.24c.68 0 1.25-.37 1.71-1.11.48-.74.72-1.82.72-3.24 0-1.1-.2-1.93-.6-2.49s-.88-.84-1.44-.84c-.72 0-1.32.37-1.8 1.11-.46.72-.69 1.8-.69 3.24 0 1.14.2 1.98.6 2.52s.9.81 1.5.81zm46.697-.27c.42 0 .74.14.96.42s.33.63.33 1.05c0 .52-.17.99-.51 1.41-.32.4-.76.6-1.32.6-.96 0-2.39-.07-4.29-.21-.38-.02-1.08-.06-2.1-.12s-1.82-.09-2.4-.09c-.26 0-.64.09-1.14.27-.1.02-.3.07-.6.15-.28.08-.52.12-.72.12-.32 0-.59-.14-.81-.42-.2-.3-.3-.74-.3-1.32 0-.64.15-1.13.45-1.47.3-.36.77-.68 1.41-.96 1.36-.6 2.64-1.36 3.84-2.28 1.22-.94 2.19-1.95 2.91-3.03.74-1.08 1.11-2.11 1.11-3.09 0-.78-.18-1.35-.54-1.71-.34-.38-.89-.57-1.65-.57-.88 0-1.59.24-2.13.72-.52.48-.78 1.15-.78 2.01 0 1.18-.59 1.77-1.77 1.77-.56 0-1-.16-1.32-.48-.3-.32-.45-.78-.45-1.38 0-1 .26-1.92.78-2.76s1.3-1.51 2.34-2.01c1.04-.52 2.31-.78 3.81-.78 1.8 0 3.21.45 4.23 1.35s1.53 2.15 1.53 3.75c0 1.52-.67 3.11-2.01 4.77-1.32 1.66-3.23 3.13-5.73 4.41zm13.848-5.55c1.96 1 2.94 2.34 2.94 4.02 0 1-.29 1.88-.87 2.64-.56.76-1.36 1.35-2.4 1.77s-2.25.63-3.63.63c-1.94 0-3.46-.38-4.56-1.14-1.08-.76-1.62-1.82-1.62-3.18 0-.86.26-1.65.78-2.37s1.36-1.39 2.52-2.01c-.72-.48-1.27-1.05-1.65-1.71-.36-.68-.54-1.39-.54-2.13 0-1.6.6-2.85 1.8-3.75 1.2-.92 2.83-1.38 4.89-1.38 1.7 0 3.06.37 4.08 1.11 1.04.74 1.56 1.74 1.56 3 0 .92-.26 1.75-.78 2.49-.52.72-1.36 1.39-2.52 2.01zm-2.58-5.7c-.84 0-1.51.18-2.01.54-.5.34-.75.84-.75 1.5 0 .9.76 1.7 2.28 2.4 1.02-.5 1.73-.97 2.13-1.41.42-.44.63-.9.63-1.38 0-1.1-.76-1.65-2.28-1.65zm-1.23 11.85c.94 0 1.68-.16 2.22-.48s.81-.76.81-1.32c0-.44-.24-.86-.72-1.26-.46-.4-1.32-.88-2.58-1.44-.92.42-1.56.85-1.92 1.29s-.54.92-.54 1.44c0 .56.24 1 .72 1.32.5.3 1.17.45 2.01.45zm21.141-6.39c0 1.58-.37 3.08-1.11 4.5-.72 1.4-1.69 2.54-2.91 3.42-1.2.88-2.49 1.34-3.87 1.38-.26 3.86-.85 7.08-1.77 9.66-.92 2.6-2.27 3.9-4.05 3.9-1.08 0-1.88-.39-2.4-1.17s-.78-1.86-.78-3.24c0-1.96.45-4.25 1.35-6.87.9-2.6 2.29-5.47 4.17-8.61 0-2.92-.02-4.95-.06-6.09-.02-.58.21-1.04.69-1.38s1.08-.51 1.8-.51c.42 0 .72.09.9.27.2.16.31.49.33.99 0 .5.01.87.03 1.11.64-.8 1.27-1.37 1.89-1.71.62-.36 1.28-.54 1.98-.54 1.12 0 2.03.45 2.73 1.35.72.9 1.08 2.08 1.08 3.54zm-7.74 6.42c.72-.16 1.38-.55 1.98-1.17.62-.64 1.11-1.42 1.47-2.34.36-.94.54-1.92.54-2.94 0-.6-.12-1.05-.36-1.35-.24-.32-.56-.48-.96-.48-.72 0-1.59.76-2.61 2.28-.02.88-.03 2.17-.03 3.87 0 .92-.01 1.63-.03 2.13zm-5.73 13.5c.54 0 .99-1.18 1.35-3.54.36-2.34.59-5.26.69-8.76-.86 2-1.54 3.91-2.04 5.73s-.75 3.35-.75 4.59c0 .64.08 1.13.24 1.47.14.34.31.51.51.51zm30.405-16.56c.26 0 .46.12.6.36.16.24.24.57.24.99 0 .72-.17 1.34-.51 1.86-1.18 1.82-2.86 2.73-5.04 2.73-.94 0-1.78-.18-2.52-.54-.72-.38-1.31-.92-1.77-1.62-1.16 1.42-2.51 2.13-4.05 2.13-1.1 0-1.97-.32-2.61-.96s-.96-1.49-.96-2.55c0-1 .23-1.81.69-2.43s1.11-.93 1.95-.93c.72 0 1.08.27 1.08.81 0 .16-.02.44-.06.84l-.09 1.14c0 .6.26.9.78.9.38 0 .74-.22 1.08-.66.36-.46.65-1.08.87-1.86.24-.78.36-1.64.36-2.58 0-.72-.09-1.32-.27-1.8-.18-.5-.4-.75-.66-.75-.22 0-.38.06-.48.18-.1.1-.2.28-.3.54-.12.32-.28.58-.48.78-.2.18-.55.27-1.05.27-.44 0-.79-.15-1.05-.45-.26-.32-.39-.8-.39-1.44 0-1.02.31-1.82.93-2.4s1.42-.87 2.4-.87c.84 0 1.6.21 2.28.63.68.4 1.2.99 1.56 1.77.6-.8 1.27-1.4 2.01-1.8.76-.4 1.5-.6 2.22-.6.78 0 1.37.18 1.77.54.42.36.63.94.63 1.74 0 .9-.17 1.61-.51 2.13-.34.5-.75.75-1.23.75-.44 0-.74-.09-.9-.27s-.28-.44-.36-.78c-.04-.24-.1-.42-.18-.54s-.22-.18-.42-.18c-.24 0-.5.23-.78.69-.26.44-.49 1.03-.69 1.77-.18.74-.27 1.51-.27 2.31 0 .9.2 1.62.6 2.16.42.54.92.81 1.5.81 1.1 0 2.19-.79 3.27-2.37.2-.3.47-.45.81-.45z" fill="#000"/><path d="m166.254 48.21c-.54 0-.97-.13-1.29-.39-.3-.24-.42-.66-.36-1.26.44-3.78 1.24-9.45 2.4-17.01.08-.56.31-2.05.69-4.47.38-2.44.71-4.7.99-6.78.28-2.1.52-4.02.72-5.76.06-.58.29-.99.69-1.23s.87-.36 1.41-.36c1.22 0 1.77.53 1.65 1.59-.26 2.26-.55 4.53-.87 6.81-.32 2.26-.64 4.39-.96 6.39-.3 1.98-.49 3.25-.57 3.81-1.16 7.56-1.96 13.23-2.4 17.01-.06.6-.29 1.02-.69 1.26-.4.26-.87.39-1.41.39z" fill="#7c4663"/></svg>