<svg width="305" height="142" viewBox="0 0 305 142" fill="none" xmlns="http://www.w3.org/2000/svg">
<path d="M17.128 90.804V108H14.8V100.176H5.524V108H3.196V90.804H5.524V98.472H14.8V90.804H17.128ZM31.1721 105.972C31.4041 105.972 31.5881 106.04 31.7241 106.176C31.8601 106.312 31.9281 106.488 31.9281 106.704V108H20.4561V107.268C20.4561 107.116 20.4881 106.96 20.5521 106.8C20.6161 106.64 20.7161 106.492 20.8521 106.356L26.3601 100.824C26.8161 100.36 27.2321 99.916 27.6081 99.492C27.9841 99.06 28.3041 98.628 28.5681 98.196C28.8321 97.764 29.0361 97.328 29.1801 96.888C29.3241 96.44 29.3961 95.964 29.3961 95.46C29.3961 94.956 29.3161 94.516 29.1561 94.14C28.9961 93.756 28.7761 93.44 28.4961 93.192C28.2241 92.944 27.9001 92.76 27.5241 92.64C27.1481 92.512 26.7441 92.448 26.3121 92.448C25.8721 92.448 25.4681 92.512 25.1001 92.64C24.7321 92.768 24.4041 92.948 24.1161 93.18C23.8361 93.404 23.6001 93.672 23.4081 93.984C23.2161 94.296 23.0801 94.64 23.0001 95.016C22.9041 95.296 22.7721 95.484 22.6041 95.58C22.4441 95.668 22.2161 95.692 21.9201 95.652L20.8041 95.46C20.9161 94.676 21.1321 93.984 21.4521 93.384C21.7801 92.776 22.1881 92.268 22.6761 91.86C23.1721 91.452 23.7361 91.144 24.3681 90.936C25.0001 90.72 25.6841 90.612 26.4201 90.612C27.1481 90.612 27.8281 90.72 28.4601 90.936C29.0921 91.152 29.6401 91.468 30.1041 91.884C30.5681 92.292 30.9321 92.792 31.1961 93.384C31.4601 93.976 31.5921 94.648 31.5921 95.4C31.5921 96.04 31.4961 96.636 31.3041 97.188C31.1121 97.732 30.8521 98.252 30.5241 98.748C30.1961 99.244 29.8161 99.728 29.3841 100.2C28.9601 100.672 28.5081 101.148 28.0281 101.628L23.4921 106.26C23.8121 106.172 24.1361 106.104 24.4641 106.056C24.7921 106 25.1081 105.972 25.4121 105.972H31.1721Z" fill="black"/>
<path d="M30.22 33.31C30.48 33.31 30.68 33.43 30.82 33.67C30.98 33.91 31.06 34.24 31.06 34.66C31.06 35.44 30.87 36.06 30.49 36.52C28.51 38.94 26.4 40.15 24.16 40.15C22.22 40.15 20.67 39.4 19.51 37.9C18.35 36.4 17.77 34.25 17.77 31.45C17.77 30.77 17.8 30.09 17.86 29.41C16.54 29.65 15.1 29.83 13.54 29.95C12.5 30.03 11.79 30.08 11.41 30.1C11.01 32.14 10.45 34.64 9.73 37.6C9.31 39.34 8.51 40.21 7.33 40.21C6.05 40.21 5.41 39.63 5.41 38.47C5.41 38.21 5.46 37.85 5.56 37.39C6.24 34.65 6.78 32.33 7.18 30.43L5.74 30.49C5.08 30.49 4.6 30.38 4.3 30.16C4 29.92 3.85 29.54 3.85 29.02C3.85 28.36 4.04 27.88 4.42 27.58C4.8 27.26 5.43 27.08 6.31 27.04L7.9 26.98C8.42 24.16 8.68 22.01 8.68 20.53C8.68 19.59 8.54 18.95 8.26 18.61C7.98 18.27 7.61 18.1 7.15 18.1C5.75 18.1 4.17 19.27 2.41 21.61C2.15 21.95 1.86 22.12 1.54 22.12C1.26 22.12 1.02 21.99 0.82 21.73C0.62 21.47 0.52 21.14 0.52 20.74C0.52 20.12 0.77 19.46 1.27 18.76C2.15 17.54 3.26 16.54 4.6 15.76C5.94 14.96 7.3 14.56 8.68 14.56C9.98 14.56 10.98 15.01 11.68 15.91C12.4 16.79 12.76 18.17 12.76 20.05C12.76 21.71 12.52 23.96 12.04 26.8L14.98 26.65C16.24 26.59 17.32 26.49 18.22 26.35C18.58 24.15 19.13 22.09 19.87 20.17C20.61 18.25 21.53 16.69 22.63 15.49C23.73 14.29 24.96 13.69 26.32 13.69C27.32 13.69 28.11 14.09 28.69 14.89C29.27 15.67 29.56 16.7 29.56 17.98C29.56 22.94 27.03 26.38 21.97 28.3C21.91 29.1 21.88 29.93 21.88 30.79C21.88 32.89 22.14 34.38 22.66 35.26C23.18 36.14 23.91 36.58 24.85 36.58C25.67 36.58 26.42 36.37 27.1 35.95C27.78 35.51 28.55 34.77 29.41 33.73C29.65 33.45 29.92 33.31 30.22 33.31ZM26.17 16.3C25.73 16.3 25.26 16.7 24.76 17.5C24.28 18.3 23.82 19.39 23.38 20.77C22.94 22.15 22.59 23.66 22.33 25.3C23.93 24.64 25.11 23.7 25.87 22.48C26.63 21.26 27.01 19.69 27.01 17.77C27.01 17.31 26.93 16.95 26.77 16.69C26.61 16.43 26.41 16.3 26.17 16.3ZM33.0714 40.15C32.5714 40.15 32.1314 40 31.7514 39.7C31.3714 39.4 31.1814 38.93 31.1814 38.29L31.2114 37.96C31.4314 35.9 31.6914 33.76 31.9914 31.54C32.3114 29.3 32.5814 27.58 32.8014 26.38L30.4614 27.04L30.1014 27.1C29.7214 27.1 29.4214 26.95 29.2014 26.65C28.9814 26.35 28.8714 26.01 28.8714 25.63L28.9014 25.36C28.9414 24.98 29.0614 24.67 29.2614 24.43C29.4614 24.19 29.8414 23.95 30.4014 23.71C30.9814 23.47 31.8414 23.21 32.9814 22.93L34.2414 22.63C34.7014 22.53 35.0814 22.48 35.3814 22.48C35.9614 22.48 36.3914 22.63 36.6714 22.93C36.9714 23.23 37.1214 23.65 37.1214 24.19C37.1214 24.43 37.0914 24.69 37.0314 24.97C36.7114 26.53 36.1014 30.97 35.2014 38.29C35.0414 39.53 34.3314 40.15 33.0714 40.15Z" fill="black"/>
<path d="M69.952 106.044V108H60.196V90.804H62.512V106.044H69.952ZM78.6081 102.528C77.6241 102.56 76.7841 102.64 76.0881 102.768C75.4001 102.888 74.8361 103.048 74.3961 103.248C73.9641 103.448 73.6481 103.684 73.4481 103.956C73.2561 104.228 73.1601 104.532 73.1601 104.868C73.1601 105.188 73.2121 105.464 73.3161 105.696C73.4201 105.928 73.5601 106.12 73.7361 106.272C73.9201 106.416 74.1321 106.524 74.3721 106.596C74.6201 106.66 74.8841 106.692 75.1641 106.692C75.5401 106.692 75.8841 106.656 76.1961 106.584C76.5081 106.504 76.8001 106.392 77.0721 106.248C77.3521 106.104 77.6161 105.932 77.8641 105.732C78.1201 105.532 78.3681 105.304 78.6081 105.048V102.528ZM71.7081 97.56C72.3801 96.912 73.1041 96.428 73.8801 96.108C74.6561 95.788 75.5161 95.628 76.4601 95.628C77.1401 95.628 77.7441 95.74 78.2721 95.964C78.8001 96.188 79.2441 96.5 79.6041 96.9C79.9641 97.3 80.2361 97.784 80.4201 98.352C80.6041 98.92 80.6961 99.544 80.6961 100.224V108H79.7481C79.5401 108 79.3801 107.968 79.2681 107.904C79.1561 107.832 79.0681 107.696 79.0041 107.496L78.7641 106.344C78.4441 106.64 78.1321 106.904 77.8281 107.136C77.5241 107.36 77.2041 107.552 76.8681 107.712C76.5321 107.864 76.1721 107.98 75.7881 108.06C75.4121 108.148 74.9921 108.192 74.5281 108.192C74.0561 108.192 73.6121 108.128 73.1961 108C72.7801 107.864 72.4161 107.664 72.1041 107.4C71.8001 107.136 71.5561 106.804 71.3721 106.404C71.1961 105.996 71.1081 105.516 71.1081 104.964C71.1081 104.484 71.2401 104.024 71.5041 103.584C71.7681 103.136 72.1961 102.74 72.7881 102.396C73.3801 102.052 74.1521 101.772 75.1041 101.556C76.0561 101.332 77.2241 101.204 78.6081 101.172V100.224C78.6081 99.28 78.4041 98.568 77.9961 98.088C77.5881 97.6 76.9921 97.356 76.2081 97.356C75.6801 97.356 75.2361 97.424 74.8761 97.56C74.5241 97.688 74.2161 97.836 73.9521 98.004C73.6961 98.164 73.4721 98.312 73.2801 98.448C73.0961 98.576 72.9121 98.64 72.7281 98.64C72.5841 98.64 72.4601 98.604 72.3561 98.532C72.2521 98.452 72.1641 98.356 72.0921 98.244L71.7081 97.56ZM87.5178 108.192C86.5578 108.192 85.8178 107.924 85.2978 107.388C84.7858 106.852 84.5298 106.08 84.5298 105.072V97.632H83.0658C82.9378 97.632 82.8298 97.596 82.7418 97.524C82.6538 97.444 82.6098 97.324 82.6098 97.164V96.312L84.6018 96.06L85.0938 92.304C85.1178 92.184 85.1698 92.088 85.2498 92.016C85.3378 91.936 85.4498 91.896 85.5858 91.896H86.6658V96.084H90.1818V97.632H86.6658V104.928C86.6658 105.44 86.7898 105.82 87.0378 106.068C87.2858 106.316 87.6058 106.44 87.9978 106.44C88.2218 106.44 88.4138 106.412 88.5738 106.356C88.7418 106.292 88.8858 106.224 89.0058 106.152C89.1258 106.08 89.2258 106.016 89.3058 105.96C89.3938 105.896 89.4698 105.864 89.5338 105.864C89.6458 105.864 89.7458 105.932 89.8338 106.068L90.4578 107.088C90.0898 107.432 89.6458 107.704 89.1258 107.904C88.6058 108.096 88.0698 108.192 87.5178 108.192ZM97.441 95.652C98.329 95.652 99.129 95.8 99.841 96.096C100.553 96.392 101.161 96.812 101.665 97.356C102.169 97.9 102.553 98.56 102.817 99.336C103.089 100.104 103.225 100.964 103.225 101.916C103.225 102.876 103.089 103.74 102.817 104.508C102.553 105.276 102.169 105.932 101.665 106.476C101.161 107.02 100.553 107.44 99.841 107.736C99.129 108.024 98.329 108.168 97.441 108.168C96.545 108.168 95.737 108.024 95.017 107.736C94.305 107.44 93.697 107.02 93.193 106.476C92.689 105.932 92.301 105.276 92.029 104.508C91.765 103.74 91.633 102.876 91.633 101.916C91.633 100.964 91.765 100.104 92.029 99.336C92.301 98.56 92.689 97.9 93.193 97.356C93.697 96.812 94.305 96.392 95.017 96.096C95.737 95.8 96.545 95.652 97.441 95.652ZM97.441 106.5C98.641 106.5 99.537 106.1 100.129 105.3C100.721 104.492 101.017 103.368 101.017 101.928C101.017 100.48 100.721 99.352 100.129 98.544C99.537 97.736 98.641 97.332 97.441 97.332C96.833 97.332 96.301 97.436 95.845 97.644C95.397 97.852 95.021 98.152 94.717 98.544C94.421 98.936 94.197 99.42 94.045 99.996C93.901 100.564 93.829 101.208 93.829 101.928C93.829 103.368 94.125 104.492 94.717 105.3C95.317 106.1 96.225 106.5 97.441 106.5ZM129.507 99.132C130.179 99.132 130.771 99.052 131.283 98.892C131.803 98.724 132.235 98.492 132.579 98.196C132.931 97.892 133.195 97.532 133.371 97.116C133.547 96.7 133.635 96.24 133.635 95.736C133.635 94.712 133.299 93.94 132.627 93.42C131.955 92.9 130.947 92.64 129.603 92.64H127.059V99.132H129.507ZM137.451 108H135.387C134.963 108 134.651 107.836 134.451 107.508L129.987 101.364C129.851 101.172 129.703 101.036 129.543 100.956C129.391 100.868 129.151 100.824 128.823 100.824H127.059V108H124.743V90.804H129.603C130.691 90.804 131.631 90.916 132.423 91.14C133.215 91.356 133.867 91.672 134.379 92.088C134.899 92.504 135.283 93.008 135.531 93.6C135.779 94.184 135.903 94.84 135.903 95.568C135.903 96.176 135.807 96.744 135.615 97.272C135.423 97.8 135.143 98.276 134.775 98.7C134.415 99.116 133.971 99.472 133.443 99.768C132.923 100.064 132.331 100.288 131.667 100.44C131.963 100.608 132.219 100.852 132.435 101.172L137.451 108ZM146.648 100.596C146.648 100.1 146.576 99.648 146.432 99.24C146.296 98.824 146.092 98.468 145.82 98.172C145.556 97.868 145.232 97.636 144.848 97.476C144.464 97.308 144.028 97.224 143.54 97.224C142.516 97.224 141.704 97.524 141.104 98.124C140.512 98.716 140.144 99.54 140 100.596H146.648ZM148.376 106.296C148.112 106.616 147.796 106.896 147.428 107.136C147.06 107.368 146.664 107.56 146.24 107.712C145.824 107.864 145.392 107.976 144.944 108.048C144.496 108.128 144.052 108.168 143.612 108.168C142.772 108.168 141.996 108.028 141.284 107.748C140.58 107.46 139.968 107.044 139.448 106.5C138.936 105.948 138.536 105.268 138.248 104.46C137.96 103.652 137.816 102.724 137.816 101.676C137.816 100.828 137.944 100.036 138.2 99.3C138.464 98.564 138.84 97.928 139.328 97.392C139.816 96.848 140.412 96.424 141.116 96.12C141.82 95.808 142.612 95.652 143.492 95.652C144.22 95.652 144.892 95.776 145.508 96.024C146.132 96.264 146.668 96.616 147.116 97.08C147.572 97.536 147.928 98.104 148.184 98.784C148.44 99.456 148.568 100.224 148.568 101.088C148.568 101.424 148.532 101.648 148.46 101.76C148.388 101.872 148.252 101.928 148.052 101.928H139.928C139.952 102.696 140.056 103.364 140.24 103.932C140.432 104.5 140.696 104.976 141.032 105.36C141.368 105.736 141.768 106.02 142.232 106.212C142.696 106.396 143.216 106.488 143.792 106.488C144.328 106.488 144.788 106.428 145.172 106.308C145.564 106.18 145.9 106.044 146.18 105.9C146.46 105.756 146.692 105.624 146.876 105.504C147.068 105.376 147.232 105.312 147.368 105.312C147.544 105.312 147.68 105.38 147.776 105.516L148.376 106.296ZM155.428 102.06C155.86 102.06 156.24 102 156.568 101.88C156.896 101.76 157.172 101.592 157.396 101.376C157.62 101.16 157.788 100.904 157.9 100.608C158.012 100.304 158.068 99.972 158.068 99.612C158.068 98.868 157.84 98.276 157.384 97.836C156.936 97.396 156.284 97.176 155.428 97.176C154.564 97.176 153.904 97.396 153.448 97.836C153 98.276 152.776 98.868 152.776 99.612C152.776 99.972 152.832 100.304 152.944 100.608C153.064 100.904 153.236 101.16 153.46 101.376C153.684 101.592 153.96 101.76 154.288 101.88C154.616 102 154.996 102.06 155.428 102.06ZM159.28 108.66C159.28 108.364 159.196 108.124 159.028 107.94C158.86 107.756 158.632 107.612 158.344 107.508C158.064 107.404 157.736 107.332 157.36 107.292C156.984 107.244 156.584 107.208 156.16 107.184C155.744 107.16 155.32 107.136 154.888 107.112C154.456 107.088 154.04 107.048 153.64 106.992C153.192 107.2 152.824 107.464 152.536 107.784C152.256 108.096 152.116 108.464 152.116 108.888C152.116 109.16 152.184 109.412 152.32 109.644C152.464 109.884 152.68 110.088 152.968 110.256C153.256 110.432 153.616 110.568 154.048 110.664C154.488 110.768 155.004 110.82 155.596 110.82C156.172 110.82 156.688 110.768 157.144 110.664C157.6 110.56 157.984 110.412 158.296 110.22C158.616 110.028 158.86 109.8 159.028 109.536C159.196 109.272 159.28 108.98 159.28 108.66ZM161.452 96.324V97.116C161.452 97.38 161.284 97.548 160.948 97.62L159.568 97.8C159.84 98.328 159.976 98.912 159.976 99.552C159.976 100.144 159.86 100.684 159.628 101.172C159.404 101.652 159.092 102.064 158.692 102.408C158.292 102.752 157.812 103.016 157.252 103.2C156.692 103.384 156.084 103.476 155.428 103.476C154.86 103.476 154.324 103.408 153.82 103.272C153.564 103.432 153.368 103.604 153.232 103.788C153.096 103.964 153.028 104.144 153.028 104.328C153.028 104.616 153.144 104.836 153.376 104.988C153.616 105.132 153.928 105.236 154.312 105.3C154.696 105.364 155.132 105.404 155.62 105.42C156.116 105.436 156.62 105.464 157.132 105.504C157.652 105.536 158.156 105.596 158.644 105.684C159.14 105.772 159.58 105.916 159.964 106.116C160.348 106.316 160.656 106.592 160.888 106.944C161.128 107.296 161.248 107.752 161.248 108.312C161.248 108.832 161.116 109.336 160.852 109.824C160.596 110.312 160.224 110.744 159.736 111.12C159.248 111.504 158.648 111.808 157.936 112.032C157.232 112.264 156.436 112.38 155.548 112.38C154.66 112.38 153.884 112.292 153.22 112.116C152.556 111.94 152.004 111.704 151.564 111.408C151.124 111.112 150.792 110.768 150.568 110.376C150.352 109.992 150.244 109.588 150.244 109.164C150.244 108.564 150.432 108.056 150.808 107.64C151.184 107.224 151.7 106.892 152.356 106.644C151.996 106.484 151.708 106.272 151.492 106.008C151.284 105.736 151.18 105.372 151.18 104.916C151.18 104.74 151.212 104.56 151.276 104.376C151.34 104.184 151.436 103.996 151.564 103.812C151.7 103.62 151.864 103.44 152.056 103.272C152.248 103.104 152.472 102.956 152.728 102.828C152.128 102.492 151.66 102.048 151.324 101.496C150.988 100.936 150.82 100.288 150.82 99.552C150.82 98.96 150.932 98.424 151.156 97.944C151.388 97.456 151.708 97.044 152.116 96.708C152.524 96.364 153.008 96.1 153.568 95.916C154.136 95.732 154.756 95.64 155.428 95.64C155.956 95.64 156.448 95.7 156.904 95.82C157.36 95.932 157.776 96.1 158.152 96.324H161.452ZM173.657 95.844V108H172.385C172.081 108 171.889 107.852 171.809 107.556L171.641 106.248C171.113 106.832 170.521 107.304 169.865 107.664C169.209 108.016 168.457 108.192 167.609 108.192C166.945 108.192 166.357 108.084 165.845 107.868C165.341 107.644 164.917 107.332 164.573 106.932C164.229 106.532 163.969 106.048 163.793 105.48C163.625 104.912 163.541 104.284 163.541 103.596V95.844H165.677V103.596C165.677 104.516 165.885 105.228 166.301 105.732C166.725 106.236 167.369 106.488 168.233 106.488C168.865 106.488 169.453 106.34 169.997 106.044C170.549 105.74 171.057 105.324 171.521 104.796V95.844H173.657ZM179.252 90.324V108H177.116V90.324H179.252ZM189.303 102.528C188.319 102.56 187.479 102.64 186.783 102.768C186.095 102.888 185.531 103.048 185.091 103.248C184.659 103.448 184.343 103.684 184.143 103.956C183.951 104.228 183.855 104.532 183.855 104.868C183.855 105.188 183.907 105.464 184.011 105.696C184.115 105.928 184.255 106.12 184.431 106.272C184.615 106.416 184.827 106.524 185.067 106.596C185.315 106.66 185.579 106.692 185.859 106.692C186.235 106.692 186.579 106.656 186.891 106.584C187.203 106.504 187.495 106.392 187.767 106.248C188.047 106.104 188.311 105.932 188.559 105.732C188.815 105.532 189.063 105.304 189.303 105.048V102.528ZM182.403 97.56C183.075 96.912 183.799 96.428 184.575 96.108C185.351 95.788 186.211 95.628 187.155 95.628C187.835 95.628 188.439 95.74 188.967 95.964C189.495 96.188 189.939 96.5 190.299 96.9C190.659 97.3 190.931 97.784 191.115 98.352C191.299 98.92 191.391 99.544 191.391 100.224V108H190.443C190.235 108 190.075 107.968 189.963 107.904C189.851 107.832 189.763 107.696 189.699 107.496L189.459 106.344C189.139 106.64 188.827 106.904 188.523 107.136C188.219 107.36 187.899 107.552 187.563 107.712C187.227 107.864 186.867 107.98 186.483 108.06C186.107 108.148 185.687 108.192 185.223 108.192C184.751 108.192 184.307 108.128 183.891 108C183.475 107.864 183.111 107.664 182.799 107.4C182.495 107.136 182.251 106.804 182.067 106.404C181.891 105.996 181.803 105.516 181.803 104.964C181.803 104.484 181.935 104.024 182.199 103.584C182.463 103.136 182.891 102.74 183.483 102.396C184.075 102.052 184.847 101.772 185.799 101.556C186.751 101.332 187.919 101.204 189.303 101.172V100.224C189.303 99.28 189.099 98.568 188.691 98.088C188.283 97.6 187.687 97.356 186.903 97.356C186.375 97.356 185.931 97.424 185.571 97.56C185.219 97.688 184.911 97.836 184.647 98.004C184.391 98.164 184.167 98.312 183.975 98.448C183.791 98.576 183.607 98.64 183.423 98.64C183.279 98.64 183.155 98.604 183.051 98.532C182.947 98.452 182.859 98.356 182.787 98.244L182.403 97.56ZM196.673 98.28C197.057 97.448 197.529 96.8 198.089 96.336C198.649 95.864 199.333 95.628 200.141 95.628C200.397 95.628 200.641 95.656 200.873 95.712C201.113 95.768 201.325 95.856 201.509 95.976L201.353 97.572C201.305 97.772 201.185 97.872 200.993 97.872C200.881 97.872 200.717 97.848 200.501 97.8C200.285 97.752 200.041 97.728 199.769 97.728C199.385 97.728 199.041 97.784 198.737 97.896C198.441 98.008 198.173 98.176 197.933 98.4C197.701 98.616 197.489 98.888 197.297 99.216C197.113 99.536 196.945 99.904 196.793 100.32V108H194.645V95.844H195.869C196.101 95.844 196.261 95.888 196.349 95.976C196.437 96.064 196.497 96.216 196.529 96.432L196.673 98.28ZM231.844 105.972C232.076 105.972 232.26 106.04 232.396 106.176C232.532 106.312 232.6 106.488 232.6 106.704V108H221.128V107.268C221.128 107.116 221.16 106.96 221.224 106.8C221.288 106.64 221.388 106.492 221.524 106.356L227.032 100.824C227.488 100.36 227.904 99.916 228.28 99.492C228.656 99.06 228.976 98.628 229.24 98.196C229.504 97.764 229.708 97.328 229.852 96.888C229.996 96.44 230.068 95.964 230.068 95.46C230.068 94.956 229.988 94.516 229.828 94.14C229.668 93.756 229.448 93.44 229.168 93.192C228.896 92.944 228.572 92.76 228.196 92.64C227.82 92.512 227.416 92.448 226.984 92.448C226.544 92.448 226.14 92.512 225.772 92.64C225.404 92.768 225.076 92.948 224.788 93.18C224.508 93.404 224.272 93.672 224.08 93.984C223.888 94.296 223.752 94.64 223.672 95.016C223.576 95.296 223.444 95.484 223.276 95.58C223.116 95.668 222.888 95.692 222.592 95.652L221.476 95.46C221.588 94.676 221.804 93.984 222.124 93.384C222.452 92.776 222.86 92.268 223.348 91.86C223.844 91.452 224.408 91.144 225.04 90.936C225.672 90.72 226.356 90.612 227.092 90.612C227.82 90.612 228.5 90.72 229.132 90.936C229.764 91.152 230.312 91.468 230.776 91.884C231.24 92.292 231.604 92.792 231.868 93.384C232.132 93.976 232.264 94.648 232.264 95.4C232.264 96.04 232.168 96.636 231.976 97.188C231.784 97.732 231.524 98.252 231.196 98.748C230.868 99.244 230.488 99.728 230.056 100.2C229.632 100.672 229.18 101.148 228.7 101.628L224.164 106.26C224.484 106.172 224.808 106.104 225.136 106.056C225.464 106 225.78 105.972 226.084 105.972H231.844ZM242.682 101.796V94.704C242.682 94.496 242.69 94.268 242.706 94.02C242.722 93.772 242.746 93.52 242.778 93.264L236.514 101.796H242.682ZM247.158 101.796V103.02C247.158 103.148 247.118 103.256 247.038 103.344C246.966 103.432 246.85 103.476 246.69 103.476H244.554V108H242.682V103.476H235.05C234.89 103.476 234.75 103.432 234.63 103.344C234.518 103.248 234.446 103.132 234.414 102.996L234.198 101.904L242.562 90.804H244.554V101.796H247.158ZM261.256 99.72C261.92 99.72 262.504 99.632 263.008 99.456C263.52 99.28 263.948 99.036 264.292 98.724C264.644 98.404 264.908 98.024 265.084 97.584C265.26 97.144 265.348 96.66 265.348 96.132C265.348 95.036 265.008 94.18 264.328 93.564C263.656 92.948 262.632 92.64 261.256 92.64H258.496V99.72H261.256ZM261.256 90.804C262.344 90.804 263.288 90.932 264.088 91.188C264.896 91.436 265.564 91.792 266.092 92.256C266.62 92.72 267.012 93.28 267.268 93.936C267.532 94.592 267.664 95.324 267.664 96.132C267.664 96.932 267.524 97.664 267.244 98.328C266.964 98.992 266.552 99.564 266.008 100.044C265.472 100.524 264.804 100.9 264.004 101.172C263.212 101.436 262.296 101.568 261.256 101.568H258.496V108H256.18V90.804H261.256ZM280.074 108H278.022C277.846 108 277.706 107.956 277.602 107.868C277.506 107.772 277.426 107.668 277.362 107.556L274.302 102.792C274.27 102.904 274.234 103.016 274.194 103.128C274.162 103.232 274.114 103.328 274.05 103.416L271.218 107.556C271.138 107.668 271.05 107.772 270.954 107.868C270.866 107.956 270.742 108 270.582 108H268.674L272.934 101.76L268.842 95.844H270.894C271.07 95.844 271.198 95.872 271.278 95.928C271.358 95.984 271.43 96.064 271.494 96.168L274.482 100.728C274.546 100.496 274.646 100.272 274.782 100.056L277.398 96.216C277.47 96.104 277.546 96.016 277.626 95.952C277.714 95.88 277.818 95.844 277.938 95.844H279.906L275.814 101.652L280.074 108Z" fill="black"/>
<path d="M112.555 89.604H114.223V112.188H112.555V89.604ZM210.008 89.604H211.676V112.188H210.008V89.604Z" fill="#7C4663"/>
<path d="M82.69 21.12C82.69 22.82 82.25 24.38 81.37 25.8C80.49 27.22 79.21 28.38 77.53 29.28C75.85 30.18 73.85 30.71 71.53 30.87L70.24 38.1C69.74 40.88 68.38 42.27 66.16 42.27C64.94 42.27 63.81 41.91 62.77 41.19C61.75 40.47 60.93 39.37 60.31 37.89C59.69 36.41 59.38 34.59 59.38 32.43C59.38 28.37 60.03 24.93 61.33 22.11C62.65 19.27 64.41 17.15 66.61 15.75C68.83 14.33 71.27 13.62 73.93 13.62C75.81 13.62 77.4 13.95 78.7 14.61C80.02 15.27 81.01 16.17 81.67 17.31C82.35 18.43 82.69 19.7 82.69 21.12ZM72.07 27.78C76.17 27.26 78.22 25.13 78.22 21.39C78.22 20.07 77.78 19 76.9 18.18C76.04 17.34 74.7 16.92 72.88 16.92C70.82 16.92 69.02 17.57 67.48 18.87C65.96 20.17 64.78 21.98 63.94 24.3C63.12 26.6 62.71 29.23 62.71 32.19C62.71 33.43 62.83 34.53 63.07 35.49C63.33 36.45 63.65 37.2 64.03 37.74C64.43 38.26 64.81 38.52 65.17 38.52C65.67 38.52 66.05 37.83 66.31 36.45L67.3 30.78C66.52 30.66 66.18 30.61 66.28 30.63C65.68 30.53 65.29 30.35 65.11 30.09C64.93 29.81 64.84 29.46 64.84 29.04C64.84 28.6 64.96 28.25 65.2 27.99C65.46 27.73 65.81 27.6 66.25 27.6C66.45 27.6 66.6 27.61 66.7 27.63C67.18 27.71 67.55 27.76 67.81 27.78C68.07 26.22 68.44 24.13 68.92 21.51C69.04 20.83 69.31 20.35 69.73 20.07C70.17 19.77 70.68 19.62 71.26 19.62C71.92 19.62 72.39 19.75 72.67 20.01C72.97 20.25 73.12 20.64 73.12 21.18C73.12 21.5 73.1 21.76 73.06 21.96L72.07 27.78ZM84.7218 39.15C83.4818 39.15 82.4918 38.7 81.7518 37.8C81.0118 36.9 80.6418 35.72 80.6418 34.26C80.6418 32.66 81.0118 31.15 81.7518 29.73C82.4918 28.29 83.4718 27.14 84.6918 26.28C85.9318 25.4 87.2418 24.96 88.6218 24.96C89.0618 24.96 89.3518 25.05 89.4918 25.23C89.6518 25.39 89.7818 25.69 89.8818 26.13C90.3018 26.05 90.7418 26.01 91.2018 26.01C92.1818 26.01 92.6718 26.36 92.6718 27.06C92.6718 27.48 92.5218 28.48 92.2218 30.06C91.7618 32.36 91.5318 33.96 91.5318 34.86C91.5318 35.16 91.6018 35.4 91.7418 35.58C91.9018 35.76 92.1018 35.85 92.3418 35.85C92.7218 35.85 93.1818 35.61 93.7218 35.13C94.2618 34.63 94.9918 33.83 95.9118 32.73C96.1518 32.45 96.4218 32.31 96.7218 32.31C96.9818 32.31 97.1818 32.43 97.3218 32.67C97.4818 32.91 97.5618 33.24 97.5618 33.66C97.5618 34.46 97.3718 35.08 96.9918 35.52C96.1718 36.54 95.3018 37.4 94.3818 38.1C93.4618 38.8 92.5718 39.15 91.7118 39.15C91.0518 39.15 90.4418 38.93 89.8818 38.49C89.3418 38.03 88.9318 37.41 88.6518 36.63C87.6118 38.31 86.3018 39.15 84.7218 39.15ZM85.8018 36.12C86.2418 36.12 86.6618 35.86 87.0618 35.34C87.4618 34.82 87.7518 34.13 87.9318 33.27L89.0418 27.75C88.2018 27.77 87.4218 28.09 86.7018 28.71C86.0018 29.31 85.4418 30.11 85.0218 31.11C84.6018 32.11 84.3918 33.17 84.3918 34.29C84.3918 34.91 84.5118 35.37 84.7518 35.67C85.0118 35.97 85.3618 36.12 85.8018 36.12ZM100.854 39.15C98.8936 39.15 97.3636 38.6 96.2636 37.5C95.1836 36.38 94.6436 34.91 94.6436 33.09C94.6436 31.47 94.9636 30.05 95.6036 28.83C96.2436 27.61 97.0736 26.67 98.0936 26.01C99.1136 25.35 100.184 25.02 101.304 25.02C102.404 25.02 103.254 25.35 103.854 26.01C104.474 26.65 104.784 27.48 104.784 28.5C104.784 29.34 104.594 30.05 104.214 30.63C103.854 31.21 103.374 31.5 102.774 31.5C102.394 31.5 102.084 31.41 101.844 31.23C101.624 31.05 101.514 30.8 101.514 30.48C101.514 30.34 101.534 30.18 101.574 30C101.614 29.82 101.644 29.69 101.664 29.61C101.764 29.31 101.814 29.03 101.814 28.77C101.814 28.51 101.744 28.31 101.604 28.17C101.484 28.03 101.304 27.96 101.064 27.96C100.604 27.96 100.174 28.17 99.7736 28.59C99.3736 28.99 99.0536 29.54 98.8136 30.24C98.5736 30.94 98.4536 31.71 98.4536 32.55C98.4536 34.87 99.4636 36.03 101.484 36.03C102.304 36.03 103.184 35.76 104.124 35.22C105.084 34.66 106.024 33.83 106.944 32.73C107.184 32.45 107.454 32.31 107.754 32.31C108.014 32.31 108.214 32.43 108.354 32.67C108.514 32.91 108.594 33.24 108.594 33.66C108.594 34.42 108.404 35.04 108.024 35.52C107.084 36.68 105.954 37.58 104.634 38.22C103.334 38.84 102.074 39.15 100.854 39.15ZM110.099 23.04C109.259 23.04 108.629 22.85 108.209 22.47C107.789 22.07 107.579 21.52 107.579 20.82C107.579 20.12 107.849 19.54 108.389 19.08C108.949 18.6 109.639 18.36 110.459 18.36C111.199 18.36 111.799 18.54 112.259 18.9C112.719 19.26 112.949 19.77 112.949 20.43C112.949 21.23 112.689 21.87 112.169 22.35C111.649 22.81 110.959 23.04 110.099 23.04ZM109.859 39.15C108.559 39.15 107.609 38.69 107.009 37.77C106.429 36.85 106.139 35.63 106.139 34.11C106.139 33.21 106.249 32.06 106.469 30.66C106.709 29.24 107.009 27.92 107.369 26.7C107.549 26.06 107.789 25.62 108.089 25.38C108.389 25.14 108.869 25.02 109.529 25.02C110.549 25.02 111.059 25.36 111.059 26.04C111.059 26.54 110.869 27.7 110.489 29.52C110.009 31.72 109.769 33.21 109.769 33.99C109.769 34.59 109.849 35.05 110.009 35.37C110.169 35.69 110.439 35.85 110.819 35.85C111.179 35.85 111.629 35.6 112.169 35.1C112.709 34.6 113.429 33.81 114.329 32.73C114.569 32.45 114.839 32.31 115.139 32.31C115.399 32.31 115.599 32.43 115.739 32.67C115.899 32.91 115.979 33.24 115.979 33.66C115.979 34.46 115.789 35.08 115.409 35.52C113.429 37.94 111.579 39.15 109.859 39.15ZM134.131 32.31C134.391 32.31 134.591 32.43 134.731 32.67C134.891 32.91 134.971 33.24 134.971 33.66C134.971 34.46 134.781 35.08 134.401 35.52C133.581 36.52 132.671 37.38 131.671 38.1C130.691 38.8 129.701 39.15 128.701 39.15C127.401 39.15 126.451 38.69 125.851 37.77C125.271 36.85 124.981 35.63 124.981 34.11C124.981 33.33 125.061 32.37 125.221 31.23C125.401 30.09 125.631 28.97 125.911 27.87C123.911 27.87 121.541 27.96 118.801 28.14C118.361 30.94 118.141 33.55 118.141 35.97C118.141 37.83 118.241 39.77 118.441 41.79C118.661 43.83 118.981 44.85 119.401 44.85C119.601 44.85 119.811 44.5 120.031 43.8C120.251 43.1 120.431 42.14 120.571 40.92C120.711 39.7 120.781 38.35 120.781 36.87C120.781 35.25 120.691 33.5 120.511 31.62C120.471 31.06 120.561 30.65 120.781 30.39C121.021 30.11 121.371 29.97 121.831 29.97C122.251 29.97 122.561 30.08 122.761 30.3C122.961 30.52 123.081 30.89 123.121 31.41C123.221 32.87 123.271 34.61 123.271 36.63C123.271 39.89 122.871 42.68 122.071 45C121.291 47.32 120.071 48.48 118.411 48.48C116.991 48.48 115.971 47.45 115.351 45.39C114.731 43.35 114.421 40.28 114.421 36.18C114.421 33.76 114.611 31.17 114.991 28.41C114.851 28.43 114.671 28.44 114.451 28.44C113.831 28.44 113.411 28.33 113.191 28.11C112.991 27.89 112.891 27.55 112.891 27.09C112.891 26.59 113.021 26.19 113.281 25.89C113.561 25.59 114.081 25.41 114.841 25.35C114.981 25.33 115.201 25.32 115.501 25.32C116.041 22.62 116.731 20.17 117.571 17.97C118.411 15.77 119.371 14.03 120.451 12.75C121.531 11.45 122.671 10.8 123.871 10.8C124.811 10.8 125.531 11.17 126.031 11.91C126.551 12.63 126.811 13.56 126.811 14.7C126.811 18.72 125.191 22.14 121.951 24.96C124.391 24.86 126.361 24.81 127.861 24.81C128.421 24.81 128.881 24.92 129.241 25.14C129.601 25.34 129.781 25.74 129.781 26.34C129.781 26.74 129.711 27.35 129.571 28.17C129.451 28.99 129.311 29.81 129.151 30.63C128.791 32.33 128.611 33.45 128.611 33.99C128.611 34.59 128.691 35.05 128.851 35.37C129.011 35.69 129.281 35.85 129.661 35.85C130.001 35.85 130.431 35.62 130.951 35.16C131.491 34.68 132.281 33.87 133.321 32.73C133.561 32.45 133.831 32.31 134.131 32.31ZM123.301 13.68C122.821 13.68 122.211 14.72 121.471 16.8C120.731 18.88 120.061 21.4 119.461 24.36C120.461 23.66 121.291 22.79 121.951 21.75C122.631 20.71 123.131 19.64 123.451 18.54C123.791 17.42 123.961 16.39 123.961 15.45C123.961 14.27 123.741 13.68 123.301 13.68ZM129.121 23.04C128.281 23.04 127.651 22.85 127.231 22.47C126.811 22.07 126.601 21.52 126.601 20.82C126.601 20.12 126.871 19.54 127.411 19.08C127.971 18.6 128.661 18.36 129.481 18.36C130.221 18.36 130.821 18.54 131.281 18.9C131.741 19.26 131.971 19.77 131.971 20.43C131.971 21.23 131.711 21.87 131.191 22.35C130.671 22.81 129.981 23.04 129.121 23.04ZM138.266 39.15C136.306 39.15 134.776 38.6 133.676 37.5C132.596 36.38 132.056 34.91 132.056 33.09C132.056 31.47 132.376 30.05 133.016 28.83C133.656 27.61 134.486 26.67 135.506 26.01C136.526 25.35 137.596 25.02 138.716 25.02C139.816 25.02 140.666 25.35 141.266 26.01C141.886 26.65 142.196 27.48 142.196 28.5C142.196 29.34 142.006 30.05 141.626 30.63C141.266 31.21 140.786 31.5 140.186 31.5C139.806 31.5 139.496 31.41 139.256 31.23C139.036 31.05 138.926 30.8 138.926 30.48C138.926 30.34 138.946 30.18 138.986 30C139.026 29.82 139.056 29.69 139.076 29.61C139.176 29.31 139.226 29.03 139.226 28.77C139.226 28.51 139.156 28.31 139.016 28.17C138.896 28.03 138.716 27.96 138.476 27.96C138.016 27.96 137.586 28.17 137.186 28.59C136.786 28.99 136.466 29.54 136.226 30.24C135.986 30.94 135.866 31.71 135.866 32.55C135.866 34.87 136.876 36.03 138.896 36.03C139.716 36.03 140.596 35.76 141.536 35.22C142.496 34.66 143.436 33.83 144.356 32.73C144.596 32.45 144.866 32.31 145.166 32.31C145.426 32.31 145.626 32.43 145.766 32.67C145.926 32.91 146.006 33.24 146.006 33.66C146.006 34.42 145.816 35.04 145.436 35.52C144.496 36.68 143.366 37.58 142.046 38.22C140.746 38.84 139.486 39.15 138.266 39.15ZM148.651 39.15C147.471 39.15 146.461 38.86 145.621 38.28C144.801 37.68 144.181 36.9 143.761 35.94C143.341 34.98 143.131 33.95 143.131 32.85C143.131 31.33 143.411 29.98 143.971 28.8C144.551 27.6 145.331 26.67 146.311 26.01C147.291 25.33 148.391 24.99 149.611 24.99C150.791 24.99 151.801 25.29 152.641 25.89C153.481 26.47 154.111 27.24 154.531 28.2C154.951 29.16 155.161 30.19 155.161 31.29C155.161 32.81 154.871 34.17 154.291 35.37C153.711 36.55 152.921 37.48 151.921 38.16C150.941 38.82 149.851 39.15 148.651 39.15ZM148.981 35.91C149.661 35.91 150.231 35.54 150.691 34.8C151.171 34.06 151.411 32.98 151.411 31.56C151.411 30.46 151.211 29.63 150.811 29.07C150.411 28.51 149.931 28.23 149.371 28.23C148.651 28.23 148.051 28.6 147.571 29.34C147.111 30.06 146.881 31.14 146.881 32.58C146.881 33.72 147.081 34.56 147.481 35.1C147.881 35.64 148.381 35.91 148.981 35.91ZM195.678 35.64C196.098 35.64 196.418 35.78 196.638 36.06C196.858 36.34 196.968 36.69 196.968 37.11C196.968 37.63 196.798 38.1 196.458 38.52C196.138 38.92 195.698 39.12 195.138 39.12C194.178 39.12 192.748 39.05 190.848 38.91C190.468 38.89 189.768 38.85 188.748 38.79C187.728 38.73 186.928 38.7 186.348 38.7C186.088 38.7 185.708 38.79 185.208 38.97C185.108 38.99 184.908 39.04 184.608 39.12C184.328 39.2 184.088 39.24 183.888 39.24C183.568 39.24 183.298 39.1 183.078 38.82C182.878 38.52 182.778 38.08 182.778 37.5C182.778 36.86 182.928 36.37 183.228 36.03C183.528 35.67 183.998 35.35 184.638 35.07C185.998 34.47 187.278 33.71 188.478 32.79C189.698 31.85 190.668 30.84 191.388 29.76C192.128 28.68 192.498 27.65 192.498 26.67C192.498 25.89 192.318 25.32 191.958 24.96C191.618 24.58 191.068 24.39 190.308 24.39C189.428 24.39 188.718 24.63 188.178 25.11C187.658 25.59 187.398 26.26 187.398 27.12C187.398 28.3 186.808 28.89 185.628 28.89C185.068 28.89 184.628 28.73 184.308 28.41C184.008 28.09 183.858 27.63 183.858 27.03C183.858 26.03 184.118 25.11 184.638 24.27C185.158 23.43 185.938 22.76 186.978 22.26C188.018 21.74 189.288 21.48 190.788 21.48C192.588 21.48 193.998 21.93 195.018 22.83C196.038 23.73 196.548 24.98 196.548 26.58C196.548 28.1 195.878 29.69 194.538 31.35C193.218 33.01 191.308 34.48 188.808 35.76L195.678 35.64ZM209.526 30.09C211.486 31.09 212.466 32.43 212.466 34.11C212.466 35.11 212.176 35.99 211.596 36.75C211.036 37.51 210.236 38.1 209.196 38.52C208.156 38.94 206.946 39.15 205.566 39.15C203.626 39.15 202.106 38.77 201.006 38.01C199.926 37.25 199.386 36.19 199.386 34.83C199.386 33.97 199.646 33.18 200.166 32.46C200.686 31.74 201.526 31.07 202.686 30.45C201.966 29.97 201.416 29.4 201.036 28.74C200.676 28.06 200.496 27.35 200.496 26.61C200.496 25.01 201.096 23.76 202.296 22.86C203.496 21.94 205.126 21.48 207.186 21.48C208.886 21.48 210.246 21.85 211.266 22.59C212.306 23.33 212.826 24.33 212.826 25.59C212.826 26.51 212.566 27.34 212.046 28.08C211.526 28.8 210.686 29.47 209.526 30.09ZM206.946 24.39C206.106 24.39 205.436 24.57 204.936 24.93C204.436 25.27 204.186 25.77 204.186 26.43C204.186 27.33 204.946 28.13 206.466 28.83C207.486 28.33 208.196 27.86 208.596 27.42C209.016 26.98 209.226 26.52 209.226 26.04C209.226 24.94 208.466 24.39 206.946 24.39ZM205.716 36.24C206.656 36.24 207.396 36.08 207.936 35.76C208.476 35.44 208.746 35 208.746 34.44C208.746 34 208.506 33.58 208.026 33.18C207.566 32.78 206.706 32.3 205.446 31.74C204.526 32.16 203.886 32.59 203.526 33.03C203.166 33.47 202.986 33.95 202.986 34.47C202.986 35.03 203.226 35.47 203.706 35.79C204.206 36.09 204.876 36.24 205.716 36.24ZM226.857 29.85C226.857 31.43 226.487 32.93 225.747 34.35C225.027 35.75 224.057 36.89 222.837 37.77C221.637 38.65 220.347 39.11 218.967 39.15C218.707 43.01 218.117 46.23 217.197 48.81C216.277 51.41 214.927 52.71 213.147 52.71C212.067 52.71 211.267 52.32 210.747 51.54C210.227 50.76 209.967 49.68 209.967 48.3C209.967 46.34 210.417 44.05 211.317 41.43C212.217 38.83 213.607 35.96 215.487 32.82C215.487 29.9 215.467 27.87 215.427 26.73C215.407 26.15 215.637 25.69 216.117 25.35C216.597 25.01 217.197 24.84 217.917 24.84C218.337 24.84 218.637 24.93 218.817 25.11C219.017 25.27 219.127 25.6 219.147 26.1C219.147 26.6 219.157 26.97 219.177 27.21C219.817 26.41 220.447 25.84 221.067 25.5C221.687 25.14 222.347 24.96 223.047 24.96C224.167 24.96 225.077 25.41 225.777 26.31C226.497 27.21 226.857 28.39 226.857 29.85ZM219.117 36.27C219.837 36.11 220.497 35.72 221.097 35.1C221.717 34.46 222.207 33.68 222.567 32.76C222.927 31.82 223.107 30.84 223.107 29.82C223.107 29.22 222.987 28.77 222.747 28.47C222.507 28.15 222.187 27.99 221.787 27.99C221.067 27.99 220.197 28.75 219.177 30.27C219.157 31.15 219.147 32.44 219.147 34.14C219.147 35.06 219.137 35.77 219.117 36.27ZM213.387 49.77C213.927 49.77 214.377 48.59 214.737 46.23C215.097 43.89 215.327 40.97 215.427 37.47C214.567 39.47 213.887 41.38 213.387 43.2C212.887 45.02 212.637 46.55 212.637 47.79C212.637 48.43 212.717 48.92 212.877 49.26C213.017 49.6 213.187 49.77 213.387 49.77ZM243.792 33.21C244.052 33.21 244.252 33.33 244.392 33.57C244.552 33.81 244.632 34.14 244.632 34.56C244.632 35.28 244.462 35.9 244.122 36.42C242.942 38.24 241.262 39.15 239.082 39.15C238.142 39.15 237.302 38.97 236.562 38.61C235.842 38.23 235.252 37.69 234.792 36.99C233.632 38.41 232.282 39.12 230.742 39.12C229.642 39.12 228.772 38.8 228.132 38.16C227.492 37.52 227.172 36.67 227.172 35.61C227.172 34.61 227.402 33.8 227.862 33.18C228.322 32.56 228.972 32.25 229.812 32.25C230.532 32.25 230.892 32.52 230.892 33.06C230.892 33.22 230.872 33.5 230.832 33.9L230.742 35.04C230.742 35.64 231.002 35.94 231.522 35.94C231.902 35.94 232.262 35.72 232.602 35.28C232.962 34.82 233.252 34.2 233.472 33.42C233.712 32.64 233.832 31.78 233.832 30.84C233.832 30.12 233.742 29.52 233.562 29.04C233.382 28.54 233.162 28.29 232.902 28.29C232.682 28.29 232.522 28.35 232.422 28.47C232.322 28.57 232.222 28.75 232.122 29.01C232.002 29.33 231.842 29.59 231.642 29.79C231.442 29.97 231.092 30.06 230.592 30.06C230.152 30.06 229.802 29.91 229.542 29.61C229.282 29.29 229.152 28.81 229.152 28.17C229.152 27.15 229.462 26.35 230.082 25.77C230.702 25.19 231.502 24.9 232.482 24.9C233.322 24.9 234.082 25.11 234.762 25.53C235.442 25.93 235.962 26.52 236.322 27.3C236.922 26.5 237.592 25.9 238.332 25.5C239.092 25.1 239.832 24.9 240.552 24.9C241.332 24.9 241.922 25.08 242.322 25.44C242.742 25.8 242.952 26.38 242.952 27.18C242.952 28.08 242.782 28.79 242.442 29.31C242.102 29.81 241.692 30.06 241.212 30.06C240.772 30.06 240.472 29.97 240.312 29.79C240.152 29.61 240.032 29.35 239.952 29.01C239.912 28.77 239.852 28.59 239.772 28.47C239.692 28.35 239.552 28.29 239.352 28.29C239.112 28.29 238.852 28.52 238.572 28.98C238.312 29.42 238.082 30.01 237.882 30.75C237.702 31.49 237.612 32.26 237.612 33.06C237.612 33.96 237.812 34.68 238.212 35.22C238.632 35.76 239.132 36.03 239.712 36.03C240.812 36.03 241.902 35.24 242.982 33.66C243.182 33.36 243.452 33.21 243.792 33.21Z" fill="black"/>
<path d="M166.254 48.21C165.714 48.21 165.284 48.08 164.964 47.82C164.664 47.58 164.544 47.16 164.604 46.56C165.044 42.78 165.844 37.11 167.004 29.55C167.084 28.99 167.314 27.5 167.694 25.08C168.074 22.64 168.404 20.38 168.684 18.3C168.964 16.2 169.204 14.28 169.404 12.54C169.464 11.96 169.694 11.55 170.094 11.31C170.494 11.07 170.964 10.95 171.504 10.95C172.724 10.95 173.274 11.48 173.154 12.54C172.894 14.8 172.604 17.07 172.284 19.35C171.964 21.61 171.644 23.74 171.324 25.74C171.024 27.72 170.834 28.99 170.754 29.55C169.594 37.11 168.794 42.78 168.354 46.56C168.294 47.16 168.064 47.58 167.664 47.82C167.264 48.08 166.794 48.21 166.254 48.21Z" fill="#7C4663"/>
</svg>
