<svg fill="none" height="55" viewBox="0 0 79 55" width="79" xmlns="http://www.w3.org/2000/svg"><g stroke="#fff"><path d="m1.25537 9.16675v39.75275h.5.5v-39.75275h-.5z"/><path d="m21.3998 26.3633-19.05391-17.02932-.33319.37281-.3332.37281 19.0539 17.0293.3332-.3728z"/><path d="m39.0749 10.7691-19.0367 15.0407.3099.3923.31.3923 19.0367-15.0407-.3099-.3923z"/></g><path d="m57.2029 10.6089c2.7808 0 4.9928.3667 6.636 1.1 1.9803.88 3.4971 2.09 4.5504 3.63 1.0955 1.54 1.6432 3.2633 1.6432 5.17 0 1.7967-.5477 3.465-1.6432 5.005-1.0954 1.5033-2.5912 2.695-4.4872 3.575 2.2752.6967 4.1923 1.9067 5.7512 3.63 1.559 1.7233 2.3384 3.6667 2.3384 5.83 0 1.9067-.5688 3.6667-1.7064 5.28-1.0954 1.5767-2.5701 2.8233-4.424 3.74-.9269.44-1.9592.77-3.0968.99s-2.6544.33-4.5504.33h-19.4656v-38.28z" fill="#fff"/></svg>