<svg fill="none" height="69" viewBox="0 0 68 69" width="68" xmlns="http://www.w3.org/2000/svg"><g fill="#b30000"><path d="m20.4593 32.8953c1.5509 0 2.8081-1.2572 2.8081-2.8081s-1.2572-2.8081-2.8081-2.8081-2.8082 1.2572-2.8082 2.8081 1.2573 2.8081 2.8082 2.8081z"/><path d="m44.1278 32.8953c1.7724 0 3.2093-1.2572 3.2093-2.8081s-1.4369-2.8081-3.2093-2.8081c-1.7725 0-3.2093 1.2572-3.2093 2.8081s1.4368 2.8081 3.2093 2.8081z"/><path d="m33.6977 69c18.2657 0 33.6976-15.7985 33.6976-34.5s-15.4319-34.5-33.6976-34.5c-18.2658 0-33.6977 15.7985-33.6977 34.5s15.4319 34.5 33.6977 34.5zm0-65.71429c16.5263 0 30.4883 14.29449 30.4883 31.21429s-13.962 31.2143-30.4883 31.2143-30.4884-14.2945-30.4884-31.2143 13.9621-31.21429 30.4884-31.21429z"/><path d="m19.2556 50.5477c0 .8856.7189 1.6027 1.6047 1.6027h25.6744v.0008c.8023 0 1.6046-.7179 1.6046-1.6043 0-.8863-.718-1.605-1.6046-1.605-2.7664 0-22.9072 0-25.6744 0-.8866 0-1.6047.7203-1.6047 1.6058z"/><path d="m40.9201 28.0813c.2415 0 .4862-.0546.7165-.1693l8.0226-4.0109c.7926-.3963 1.1135-1.3598.718-2.1531-.3971-.7926-1.3614-1.1143-2.1533-.718l-8.0226 4.011c-.7926.3963-1.1135 1.3597-.718 2.1531.2824.5623.8488.8872 1.4368.8872z"/><path d="m16.131 23.0984 8.0221 4.0111c.231.1155.4757.1693.7172.1693.588 0 1.1552-.3249 1.4367-.8873.3963-.7926.0746-1.7561-.7179-2.1532l-8.0221-4.0111c-.7918-.3955-1.7561-.0746-2.1532.718-.3963.7934-.0746 1.7569.7172 2.1532z"/></g></svg>