<svg fill="none" height="73" viewBox="0 0 369 73" width="369" xmlns="http://www.w3.org/2000/svg"><path d="m102.665 39.57v-2.43h6.75v-6.615h2.385v6.615h6.48v2.43h-6.48v6.57h-2.385v-6.57z" fill="#000"/><path d="m248.745 33.62v-2.43h20.565v2.43zm0 9.9v-2.34h20.565v2.34z" fill="#000"/><g fill="#b30000"><path d="m152.331 71h61.228c.798 0 1.331-.55 1.331-1.375v-17.6c0-.825-.533-1.375-1.331-1.375h-22.229l-4.126-4.675v-7.15h21.563c.799 0 1.331-.55 1.331-1.375v-31.075c0-.825-.532-1.375-1.331-1.375h-51.644c-.799 0-1.331.55-1.331 1.375v31.075c0 .825.532 1.375 1.331 1.375h21.563v7.15l-4.127 4.675h-22.228c-.799 0-1.331.55-1.331 1.375v17.6c0 .825.532 1.375 1.331 1.375zm6.123-34.925v-28.325h48.982v28.325zm26.088 2.75v6.325h-3.328v-6.325zm-3.993 8.9375h4.792l2.396 2.75h-9.584zm-26.887 5.6375h58.566v14.85h-58.566z"/><path d="m177.887 56.2874h-20.232c-.798 0-1.331.55-1.331 1.375v5.3625c0 .825.533 1.375 1.331 1.375h20.232c.799 0 1.331-.55 1.331-1.375v-5.3625c0-.825-.665-1.375-1.331-1.375zm-1.331 5.3625h-17.57v-2.6125h17.57z"/><path d="m205.839 56.2874c-.799 0-1.331.55-1.331 1.375v6.325c0 .825.532 1.375 1.331 1.375.798 0 1.331-.55 1.331-1.375v-6.325c0-.825-.533-1.375-1.331-1.375z"/><path d="m201.579 56.2874c-.798 0-1.331.55-1.331 1.375v6.325c0 .825.533 1.375 1.331 1.375.799 0 1.331-.55 1.331-1.375v-6.325c0-.825-.532-1.375-1.331-1.375z"/><path d="m197.453 56.2874c-.799 0-1.331.55-1.331 1.375v6.325c0 .825.532 1.375 1.331 1.375s1.331-.55 1.331-1.375v-6.325c0-.825-.665-1.375-1.331-1.375z"/><path d="m356.278 56.7993c-3.45 8.4896-12.043 14.5038-22.097 14.5038-10.055 0-18.648-6.0142-22.097-14.5038-3.349-.0002-7.006-5.0926-7.006-9.2128 0-1.4598.248-2.7068.715-3.698-1.181-2.6817-1.793-5.7978-1.793-9.3639 0-4.1715.101-6.522.555-9.3486.869-5.4104 2.842-9.4401 6.392-11.715.799-.5119 1.843.1602 1.655 1.0652-.46 2.2135-.444 3.9003-.002 5.0839 6.032-9.0604 15.76-13.93584 29.069-14.60835 1.288-.06504 1.587 1.70294.344 2.03307-3.979 1.05735-6.189 2.67033-6.818 4.86078 9.885-2.32859 18.745-1.124 26.512 3.6265.978.5987.417 2.0573-.732 1.8996-2.959-.4064-5.51-.4412-7.651-.1144 8.089 2.1141 13.027 5.0914 14.77 9.0457.391.8867-.579 1.7614-1.475 1.3305-1.646-.7916-3.156-1.3415-4.526-1.6539 1.528 2.4546 2.269 5.9821 2.269 10.567 0 2.7632-.587 5.281-1.688 7.5291.399.9504.61 2.1151.61 3.4608 0 4.1202-3.657 9.2126-7.006 9.2128zm1.49-15.4851c.22-.0359.442-.0546.665-.0546 1.086 0 2.014.3036 2.759.8726.665-1.6984 1.014-3.548 1.014-5.5356 0-5.5998-1.157-9.2973-3.356-11.13-.754-.6282-.291-1.8186.706-1.8186 1.368 0 2.848.2502 4.443.7466-2.772-2.4588-7.747-4.4653-14.954-5.9495-.996-.2052-1.167-1.5017-.256-1.9396 1.996-.9592 4.434-1.4515 7.315-1.4885-6.538-2.6636-13.818-2.9104-21.884-.7326-.687.1857-1.369-.311-1.369-.9974 0-2.235.93-4.0844 2.733-5.54139-10.059 1.74462-17.375 6.52159-22.025 14.34329-.353.5931-1.196.7016-1.698.2185-1.273-1.2233-1.835-3.0178-1.743-5.3569-1.741 2.0155-2.848 4.901-3.432 8.5415-.432 2.6904-.53 4.963-.53 9.0326 0 2.7919.408 5.2782 1.207 7.4688.71-.4795 1.572-.7338 2.565-.7338.224 0 .446.0187.666.0546.392-3.1006 1.682-6.0035 3.718-8.4166.318-.377.866-.4912 1.318-.2747 5.335 2.5547 11.777 3.9572 18.551 3.9572 6.773 0 13.216-1.4025 18.55-3.9572.452-.2165 1-.1023 1.318.2747 2.037 2.4131 3.327 5.316 3.719 8.4166zm.126 2.0921v5.1052c0 2.0884-.292 4.1112-.839 6.0327 1.86-.8217 4.073-4.2454 4.073-6.9577 0-2.9107-1.016-4.2549-2.695-4.2549-.177 0-.358.0257-.539.0747zm-46.587 11.1379c-.547-1.9215-.84-3.9443-.84-6.0327v-5.1052c-.181-.049-.361-.0747-.539-.0747-1.679 0-2.694 1.3442-2.694 4.2549 0 2.7123 2.212 6.136 4.073 6.9577zm22.874-15.8922c-6.768 0-13.236-1.3388-18.71-3.8021-1.838 2.445-2.848 5.3878-2.848 8.4817v5.1799c0 11.4431 9.652 20.7196 21.558 20.7196s21.557-9.2765 21.557-20.7196v-5.1799c0-3.0939-1.009-6.0367-2.847-8.4817-5.474 2.4633-11.943 3.8021-18.71 3.8021z"/><path d="m323.466 54.9628c3.038 1.1815 6.774 1.8364 10.715 1.8364s7.677-.6549 10.714-1.8364c.876-.3407 1.752.4894 1.409 1.3358-1.873 4.6288-6.683 7.7524-12.123 7.7524s-10.25-3.1236-12.124-7.7524c-.342-.8464.534-1.6765 1.409-1.3358zm10.715 7.0163c3.613 0 6.883-1.6376 8.854-4.2248-2.702.728-5.723 1.1168-8.854 1.1168-3.132 0-6.152-.3888-8.854-1.1168 1.971 2.5872 5.241 4.2248 8.854 4.2248z"/><path d="m320.846 46.3657c-.553-.2126-.821-.8155-.6-1.3467s.848-.7895 1.401-.577l5.39 2.0729c.903.3474.903 1.5764-.001 1.9237l-5.389 2.0719c-.553.2125-1.18-.0459-1.401-.5771s.048-1.1341.601-1.3466l2.887-1.1103z"/><path d="m347.516 46.3656c.553-.2125.822-.8155.6-1.3467-.221-.5312-.848-.7895-1.401-.5769l-5.389 2.0728c-.904.3474-.904 1.5764 0 1.9237l5.389 2.072c.553.2125 1.18-.0459 1.401-.5772.221-.5312-.048-1.1341-.6-1.3466l-2.888-1.1103z"/></g><path d="m35.5 51.5166c-5.9772 0-11.5821.4361-16.4669 1.1915v-36.6229l21.4642-6.0293 3.2075-.90095-3.1735-1.01428-22.1938-7.0932-.1485-.04747h-.1559-2.4673-1v1 51.5326c-3.8039.828-7.01246 1.8862-9.33569 3.1274-1.24151.6633-2.27662 1.4031-3.01228 2.2278-.74115.8308-1.21783 1.7959-1.21783 2.8696 0 1.8002 1.31114 3.2772 3.08645 4.4351 1.81752 1.1855 4.38135 2.2149 7.45995 3.0643 6.1714 1.7027 14.64 2.7432 23.9536 2.7432s17.7822-1.0405 23.9536-2.7432c3.0786-.8494 5.6424-1.8788 7.46-3.0643 1.7753-1.1579 3.0864-2.6349 3.0864-4.4351 0-1.7998-1.3113-3.2765-3.0865-4.4341-1.8175-1.1852-4.3813-2.2145-7.4599-3.0637-6.1714-1.7024-14.64-2.743-23.9536-2.743zm-13.5641 12.2493c-1.2729 0-2.3762-.3043-3.1273-.7442-.775-.4539-1.01-.935-1.01-1.2643 0-.3267.2341-.8071 1.0097-1.261.7512-.4396 1.8548-.7439 3.1276-.7439 1.2727 0 2.3763.3043 3.1275.7439.7756.4539 1.0097.9343 1.0097 1.261 0 .3282-.2348.8094-1.0101 1.2637-.7512.4402-1.8546.7448-3.1271.7448z" stroke="#b30000" stroke-width="2"/></svg>