<svg width="369" height="73" viewBox="0 0 369 73" fill="none" xmlns="http://www.w3.org/2000/svg">
<path d="M102.665 39.57V37.14H109.415V30.525H111.8V37.14H118.28V39.57H111.8V46.14H109.415V39.57H102.665Z" fill="black"/>
<path d="M248.745 33.62V31.19H269.31V33.62H248.745ZM248.745 43.52V41.18H269.31V43.52H248.745Z" fill="black"/>
<path d="M152.331 71H213.559C214.357 71 214.89 70.45 214.89 69.625V52.025C214.89 51.2 214.357 50.65 213.559 50.65H191.33L187.204 45.975V38.825H208.767C209.566 38.825 210.098 38.275 210.098 37.45V6.375C210.098 5.55 209.566 5 208.767 5H157.123C156.324 5 155.792 5.55 155.792 6.375V37.45C155.792 38.275 156.324 38.825 157.123 38.825H178.686V45.975L174.559 50.65H152.331C151.532 50.65 151 51.2 151 52.025V69.625C151 70.45 151.532 71 152.331 71ZM158.454 36.075V7.75H207.436V36.075H158.454ZM184.542 38.825V45.15H181.214V38.825H184.542ZM180.549 47.7625H185.341L187.737 50.5125H178.153L180.549 47.7625ZM153.662 53.4H212.228V68.25H153.662V53.4Z" fill="#B30000"/>
<path d="M177.887 56.2874H157.655C156.857 56.2874 156.324 56.8374 156.324 57.6624V63.0249C156.324 63.8499 156.857 64.3999 157.655 64.3999H177.887C178.686 64.3999 179.218 63.8499 179.218 63.0249V57.6624C179.218 56.8374 178.553 56.2874 177.887 56.2874ZM176.556 61.6499H158.986V59.0374H176.556V61.6499Z" fill="#B30000"/>
<path d="M205.839 56.2874C205.04 56.2874 204.508 56.8374 204.508 57.6624V63.9874C204.508 64.8124 205.04 65.3624 205.839 65.3624C206.637 65.3624 207.17 64.8124 207.17 63.9874V57.6624C207.17 56.8374 206.637 56.2874 205.839 56.2874Z" fill="#B30000"/>
<path d="M201.579 56.2874C200.78 56.2874 200.248 56.8374 200.248 57.6624V63.9874C200.248 64.8124 200.78 65.3624 201.579 65.3624C202.378 65.3624 202.91 64.8124 202.91 63.9874V57.6624C202.91 56.8374 202.378 56.2874 201.579 56.2874Z" fill="#B30000"/>
<path d="M197.452 56.2874C196.654 56.2874 196.121 56.8374 196.121 57.6624V63.9874C196.121 64.8124 196.654 65.3624 197.452 65.3624C198.251 65.3624 198.783 64.8124 198.783 63.9874V57.6624C198.783 56.8374 198.118 56.2874 197.452 56.2874Z" fill="#B30000"/>
<path d="M356.278 56.7993C352.828 65.2889 344.235 71.3031 334.181 71.3031C324.126 71.3031 315.533 65.2889 312.084 56.7993C308.735 56.7991 305.078 51.7067 305.078 47.5865C305.078 46.1267 305.326 44.8797 305.793 43.8885C304.612 41.2068 304 38.0907 304 34.5246C304 30.3531 304.101 28.0026 304.555 25.176C305.424 19.7656 307.397 15.7359 310.947 13.461C311.746 12.9491 312.79 13.6212 312.602 14.5262C312.142 16.7397 312.158 18.4265 312.6 19.6101C318.632 10.5497 328.36 5.67426 341.669 5.00175C342.957 4.93671 343.256 6.70469 342.013 7.03482C338.034 8.09217 335.824 9.70515 335.195 11.8956C345.08 9.56701 353.94 10.7716 361.707 15.5221C362.685 16.1208 362.124 17.5794 360.975 17.4217C358.016 17.0153 355.465 16.9805 353.324 17.3073C361.413 19.4214 366.351 22.3987 368.094 26.353C368.485 27.2397 367.515 28.1144 366.619 27.6835C364.973 26.8919 363.463 26.342 362.093 26.0296C363.621 28.4842 364.362 32.0117 364.362 36.5966C364.362 39.3598 363.775 41.8776 362.674 44.1257C363.073 45.0761 363.284 46.2408 363.284 47.5865C363.284 51.7067 359.627 56.7991 356.278 56.7993ZM357.768 41.3142C357.988 41.2783 358.21 41.2596 358.433 41.2596C359.519 41.2596 360.447 41.5632 361.192 42.1322C361.857 40.4338 362.206 38.5842 362.206 36.5966C362.206 30.9968 361.049 27.2993 358.85 25.4666C358.096 24.8384 358.559 23.648 359.556 23.648C360.924 23.648 362.404 23.8982 363.999 24.3946C361.227 21.9358 356.252 19.9293 349.045 18.4451C348.049 18.2399 347.878 16.9434 348.789 16.5055C350.785 15.5463 353.223 15.054 356.104 15.017C349.566 12.3534 342.286 12.1066 334.22 14.2844C333.533 14.4701 332.851 13.9734 332.851 13.287C332.851 11.052 333.781 9.2026 335.584 7.7456C325.525 9.49023 318.209 14.2672 313.559 22.0889C313.206 22.682 312.363 22.7905 311.861 22.3074C310.588 21.0841 310.026 19.2896 310.118 16.9505C308.377 18.966 307.27 21.8515 306.686 25.492C306.254 28.1824 306.156 30.455 306.156 34.5246C306.156 37.3165 306.564 39.8028 307.363 41.9934C308.073 41.5139 308.935 41.2596 309.928 41.2596C310.152 41.2596 310.374 41.2783 310.594 41.3142C310.986 38.2136 312.276 35.3107 314.312 32.8976C314.63 32.5206 315.178 32.4064 315.63 32.6229C320.965 35.1776 327.407 36.5801 334.181 36.5801C340.954 36.5801 347.397 35.1776 352.731 32.6229C353.183 32.4064 353.731 32.5206 354.049 32.8976C356.086 35.3107 357.376 38.2136 357.768 41.3142ZM357.894 43.4063V48.5115C357.894 50.5999 357.602 52.6227 357.055 54.5442C358.915 53.7225 361.128 50.2988 361.128 47.5865C361.128 44.6758 360.112 43.3316 358.433 43.3316C358.256 43.3316 358.075 43.3573 357.894 43.4063ZM311.307 54.5442C310.76 52.6227 310.467 50.5999 310.467 48.5115V43.4063C310.286 43.3573 310.106 43.3316 309.928 43.3316C308.249 43.3316 307.234 44.6758 307.234 47.5865C307.234 50.2988 309.446 53.7225 311.307 54.5442ZM334.181 38.652C327.413 38.652 320.945 37.3132 315.471 34.8499C313.633 37.2949 312.623 40.2377 312.623 43.3316V48.5115C312.623 59.9546 322.275 69.2311 334.181 69.2311C346.087 69.2311 355.738 59.9546 355.738 48.5115V43.3316C355.738 40.2377 354.729 37.2949 352.891 34.8499C347.417 37.3132 340.948 38.652 334.181 38.652Z" fill="#B30000"/>
<path d="M323.465 54.9627C326.503 56.1443 330.239 56.7991 334.18 56.7991C338.121 56.7991 341.857 56.1443 344.895 54.9627C345.77 54.622 346.646 55.4522 346.303 56.2986C344.43 60.9274 339.62 64.051 334.18 64.051C328.74 64.051 323.93 60.9274 322.056 56.2986C321.714 55.4522 322.59 54.622 323.465 54.9627ZM334.18 61.979C337.793 61.979 341.063 60.3415 343.034 57.7543C340.332 58.4822 337.311 58.8711 334.18 58.8711C331.049 58.8711 328.028 58.4822 325.326 57.7543C327.297 60.3415 330.567 61.979 334.18 61.979Z" fill="#B30000"/>
<path d="M320.846 46.3657C320.293 46.1531 320.024 45.5502 320.245 45.019C320.467 44.4878 321.094 44.2295 321.647 44.442L327.036 46.5148C327.939 46.8622 327.939 48.0912 327.036 48.4385L321.647 50.5105C321.094 50.723 320.467 50.4646 320.246 49.9334C320.024 49.4021 320.293 48.7992 320.846 48.5867L323.734 47.4765L320.846 46.3657Z" fill="#B30000"/>
<path d="M347.516 46.3656C348.068 46.153 348.337 45.5501 348.116 45.0189C347.895 44.4877 347.267 44.2294 346.715 44.4419L341.325 46.5147C340.422 46.8622 340.422 48.0912 341.325 48.4385L346.715 50.5104C347.267 50.7229 347.895 50.4645 348.116 49.9333C348.337 49.4021 348.068 48.7992 347.515 48.5867L344.627 47.4764L347.516 46.3656Z" fill="#B30000"/>
<path d="M35.5 51.5166C29.5228 51.5166 23.9179 51.9527 19.0331 52.7081V16.0852L40.4973 10.0559L43.7048 9.15495L40.5313 8.14067L18.3375 1.04747L18.189 1H18.0331H15.5658H14.5658V2V53.5326C10.7619 54.3606 7.55335 55.4188 5.23011 56.66C3.9886 57.3233 2.95349 58.0631 2.21783 58.8878C1.47668 59.7186 1 60.6837 1 61.7574C1 63.5576 2.31114 65.0346 4.08645 66.1925C5.90397 67.378 8.4678 68.4074 11.5464 69.2568C17.7178 70.9595 26.1864 72 35.5 72C44.8136 72 53.2822 70.9595 59.4536 69.2568C62.5322 68.4074 65.096 67.378 66.9136 66.1925C68.6889 65.0346 70 63.5576 70 61.7574C70 59.9576 68.6887 58.4809 66.9135 57.3233C65.096 56.1381 62.5322 55.1088 59.4536 54.2596C53.2822 52.5572 44.8136 51.5166 35.5 51.5166ZM21.9359 63.7659C20.663 63.7659 19.5597 63.4616 18.8086 63.0217C18.0336 62.5678 17.7986 62.0867 17.7986 61.7574C17.7986 61.4307 18.0327 60.9503 18.8083 60.4964C19.5595 60.0568 20.6631 59.7525 21.9359 59.7525C23.2086 59.7525 24.3122 60.0568 25.0634 60.4964C25.839 60.9503 26.0731 61.4307 26.0731 61.7574C26.0731 62.0856 25.8383 62.5668 25.063 63.0211C24.3118 63.4613 23.2084 63.7659 21.9359 63.7659Z" stroke="#B30000" stroke-width="2"/>
</svg>
