<svg width="370" height="75" viewBox="0 0 370 75" fill="none" xmlns="http://www.w3.org/2000/svg">
<path d="M103.665 40.57V38.14H110.415V31.525H112.8V38.14H119.28V40.57H112.8V47.14H110.415V40.57H103.665Z" fill="#FF0000"/>
<path d="M103.665 40.57H102.665V41.57H103.665V40.57ZM103.665 38.14V37.14H102.665V38.14H103.665ZM110.415 38.14V39.14H111.415V38.14H110.415ZM110.415 31.525V30.525H109.415V31.525H110.415ZM112.8 31.525H113.8V30.525H112.8V31.525ZM112.8 38.14H111.8V39.14H112.8V38.14ZM119.28 38.14H120.28V37.14H119.28V38.14ZM119.28 40.57V41.57H120.28V40.57H119.28ZM112.8 40.57V39.57H111.8V40.57H112.8ZM112.8 47.14V48.14H113.8V47.14H112.8ZM110.415 47.14H109.415V48.14H110.415V47.14ZM110.415 40.57H111.415V39.57H110.415V40.57ZM104.665 40.57V38.14H102.665V40.57H104.665ZM103.665 39.14H110.415V37.14H103.665V39.14ZM111.415 38.14V31.525H109.415V38.14H111.415ZM110.415 32.525H112.8V30.525H110.415V32.525ZM111.8 31.525V38.14H113.8V31.525H111.8ZM112.8 39.14H119.28V37.14H112.8V39.14ZM118.28 38.14V40.57H120.28V38.14H118.28ZM119.28 39.57H112.8V41.57H119.28V39.57ZM111.8 40.57V47.14H113.8V40.57H111.8ZM112.8 46.14H110.415V48.14H112.8V46.14ZM111.415 47.14V40.57H109.415V47.14H111.415ZM110.415 39.57H103.665V41.57H110.415V39.57Z" fill="#FF0000"/>
<path d="M249.745 34.62V32.19H270.31V34.62H249.745ZM249.745 44.52V42.18H270.31V44.52H249.745Z" fill="#FF0000"/>
<path d="M249.745 34.62H248.745V35.62H249.745V34.62ZM249.745 32.19V31.19H248.745V32.19H249.745ZM270.31 32.19H271.31V31.19H270.31V32.19ZM270.31 34.62V35.62H271.31V34.62H270.31ZM249.745 44.52H248.745V45.52H249.745V44.52ZM249.745 42.18V41.18H248.745V42.18H249.745ZM270.31 42.18H271.31V41.18H270.31V42.18ZM270.31 44.52V45.52H271.31V44.52H270.31ZM250.745 34.62V32.19H248.745V34.62H250.745ZM249.745 33.19H270.31V31.19H249.745V33.19ZM269.31 32.19V34.62H271.31V32.19H269.31ZM270.31 33.62H249.745V35.62H270.31V33.62ZM250.745 44.52V42.18H248.745V44.52H250.745ZM249.745 43.18H270.31V41.18H249.745V43.18ZM269.31 42.18V44.52H271.31V42.18H269.31ZM270.31 43.52H249.745V45.52H270.31V43.52Z" fill="#FF0000"/>
<path d="M191.955 51.9809L192.105 52.15H192.33H214.559C214.839 52.15 215.037 52.244 215.164 52.3759C215.293 52.5092 215.39 52.7213 215.39 53.025V70.625C215.39 70.9287 215.293 71.1408 215.164 71.2741C215.037 71.406 214.839 71.5 214.559 71.5H153.331C153.05 71.5 152.853 71.406 152.725 71.2741C152.596 71.1408 152.5 70.9287 152.5 70.625V53.025C152.5 52.7213 152.596 52.5092 152.725 52.3759C152.853 52.244 153.05 52.15 153.331 52.15H175.559H175.785L175.934 51.9809L180.06 47.3059L180.186 47.1641V46.975V39.825V39.325H179.686H158.123C157.842 39.325 157.645 39.231 157.517 39.0991C157.388 38.9658 157.292 38.7537 157.292 38.45V7.375C157.292 7.07134 157.388 6.85921 157.517 6.72589C157.645 6.59402 157.842 6.5 158.123 6.5H209.767C210.048 6.5 210.245 6.59402 210.373 6.72589C210.502 6.85921 210.598 7.07134 210.598 7.375V38.45C210.598 38.7537 210.502 38.9658 210.373 39.0991C210.245 39.231 210.048 39.325 209.767 39.325H188.204H187.704V39.825V46.975V47.1641L187.829 47.3059L191.955 51.9809ZM158.954 37.075V37.575H159.454H208.436H208.936V37.075V8.75V8.25H208.436H159.454H158.954V8.75V37.075ZM186.042 39.825V39.325H185.542H182.214H181.714V39.825V46.15V46.65H182.214H185.542H186.042V46.15V39.825ZM181.549 48.2625H181.321L181.172 48.4341L178.776 51.1841L178.054 52.0125H179.153H188.737H189.835L189.114 51.1841L186.718 48.4341L186.568 48.2625H186.341H181.549ZM154.662 53.9H154.162V54.4V69.25V69.75H154.662H213.228H213.728V69.25V54.4V53.9H213.228H154.662Z" fill="#FF0000" stroke="#FF0000"/>
<path d="M177.556 63.1499H178.056V62.6499V60.0374V59.5374H177.556H159.986H159.486V60.0374V62.6499V63.1499H159.986H177.556ZM158.655 57.7874H178.887C179.294 57.7874 179.718 58.1305 179.718 58.6624V64.0249C179.718 64.3285 179.622 64.5406 179.493 64.674C179.365 64.8058 179.168 64.8999 178.887 64.8999H158.655C158.375 64.8999 158.177 64.8058 158.05 64.674C157.92 64.5406 157.824 64.3285 157.824 64.0249V58.6624C157.824 58.3587 157.92 58.1466 158.05 58.0132C158.177 57.8814 158.375 57.7874 158.655 57.7874Z" fill="#FF0000" stroke="#FF0000"/>
<path d="M206.008 58.6624C206.008 58.3587 206.104 58.1466 206.233 58.0132C206.361 57.8814 206.558 57.7874 206.839 57.7874C207.12 57.7874 207.317 57.8814 207.445 58.0132C207.574 58.1466 207.67 58.3587 207.67 58.6624V64.9874C207.67 65.291 207.574 65.5031 207.445 65.6365C207.317 65.7683 207.12 65.8624 206.839 65.8624C206.558 65.8624 206.361 65.7683 206.233 65.6365C206.104 65.5031 206.008 65.291 206.008 64.9874V58.6624Z" fill="#FF0000" stroke="#FF0000"/>
<path d="M201.748 58.6624C201.748 58.3587 201.844 58.1466 201.973 58.0132C202.101 57.8814 202.298 57.7874 202.579 57.7874C202.86 57.7874 203.057 57.8814 203.185 58.0132C203.314 58.1466 203.41 58.3587 203.41 58.6624V64.9874C203.41 65.291 203.314 65.5031 203.185 65.6365C203.057 65.7683 202.86 65.8624 202.579 65.8624C202.298 65.8624 202.101 65.7683 201.973 65.6365C201.844 65.5031 201.748 65.291 201.748 64.9874V58.6624Z" fill="#FF0000" stroke="#FF0000"/>
<path d="M197.621 58.6624C197.621 58.3587 197.717 58.1466 197.846 58.0132C197.974 57.8814 198.171 57.7874 198.452 57.7874C198.859 57.7874 199.283 58.1305 199.283 58.6624V64.9874C199.283 65.291 199.187 65.5031 199.058 65.6365C198.93 65.7683 198.733 65.8624 198.452 65.8624C198.171 65.8624 197.974 65.7683 197.846 65.6365C197.717 65.5031 197.621 65.291 197.621 64.9874V58.6624Z" fill="#FF0000" stroke="#FF0000"/>
<path d="M357.278 57.2993L356.941 57.2994L356.814 57.6111C353.442 65.9099 345.034 71.8031 335.181 71.8031C325.327 71.8031 316.919 65.9099 313.547 57.6111L313.42 57.2994L313.084 57.2993C311.647 57.2992 310.025 56.1825 308.726 54.4391C307.441 52.7149 306.578 50.5141 306.578 48.5865C306.578 47.1802 306.817 46.0101 307.245 45.1017L307.343 44.8955L307.251 44.687C306.102 42.079 305.5 39.0333 305.5 35.5246C305.5 31.3616 305.601 29.0424 306.049 26.2552C306.907 20.9127 308.837 17.0477 312.217 14.882C312.689 14.5799 313.2 15.0051 313.113 15.4243C312.645 17.6735 312.641 19.4711 313.132 20.7852L313.474 21.7014L314.016 20.8872C319.94 11.989 329.503 7.16768 342.695 6.50111C343.059 6.48271 343.254 6.70165 343.297 6.95347C343.339 7.20268 343.229 7.4601 342.885 7.55159C338.864 8.61993 336.42 10.3009 335.715 12.7577L335.479 13.578L336.31 13.3823C346.083 11.08 354.805 12.2753 362.446 16.9486C362.708 17.109 362.756 17.3572 362.672 17.5759C362.587 17.7983 362.368 17.9709 362.043 17.9263C359.052 17.5156 356.451 17.4769 354.249 17.813L354.198 18.7911C362.27 20.9008 366.995 23.8291 368.636 27.5546C368.734 27.7757 368.671 27.9909 368.504 28.1411C368.336 28.2933 368.085 28.3526 367.836 28.2329C366.165 27.4294 364.619 26.8648 363.204 26.5421L362.035 26.2753L362.669 27.2938C364.126 29.6339 364.862 33.0523 364.862 37.5966C364.862 40.2872 364.291 42.7292 363.225 44.9057L363.125 45.1097L363.213 45.3192C363.58 46.1946 363.784 47.2906 363.784 48.5865C363.784 50.5141 362.921 52.7149 361.636 54.4391C360.336 56.1825 358.714 57.2992 357.278 57.2993ZM358.271 42.3769L358.336 42.8913L358.848 42.8077C359.043 42.7759 359.238 42.7596 359.433 42.7596C360.422 42.7596 361.24 43.0343 361.888 43.5295L362.415 43.9322L362.657 43.3147C363.347 41.5554 363.706 39.6437 363.706 37.5966C363.706 31.9689 362.551 28.067 360.17 26.0825C359.81 25.7824 359.981 25.148 360.556 25.148C361.864 25.148 363.293 25.3872 364.85 25.872L365.33 25.0206C362.457 22.471 357.373 20.4437 350.146 18.9553C349.6 18.843 349.542 18.1788 350.006 17.9561C351.919 17.0368 354.281 16.5533 357.11 16.517L357.292 15.554C350.636 12.842 343.241 12.6007 335.09 14.8017C334.694 14.9085 334.351 14.6181 334.351 14.287C334.351 12.2136 335.204 10.5035 336.899 9.13456L338.398 7.92369L336.499 8.25296C326.314 10.0192 318.863 14.8705 314.129 22.8334C313.945 23.1438 313.483 23.2116 313.207 22.9469C312.072 21.8557 311.529 20.2225 311.617 17.9701L311.674 16.5423L310.739 17.6236C308.914 19.7366 307.784 22.7241 307.192 26.4127C306.754 29.1429 306.656 31.447 306.656 35.5246C306.656 38.3651 307.071 40.9107 307.893 43.1646L308.112 43.7659L308.643 43.4077C309.261 42.9903 310.023 42.7596 310.928 42.7596C311.124 42.7596 311.319 42.7759 311.513 42.8077L312.025 42.8913L312.09 42.3769C312.47 39.3742 313.719 36.5611 315.694 34.22C315.862 34.021 316.163 33.9535 316.414 34.0738C321.824 36.6643 328.341 38.0801 335.181 38.0801C342.021 38.0801 348.538 36.6643 353.947 34.0738C354.199 33.9535 354.499 34.021 354.667 34.22C356.643 36.5611 357.892 39.3742 358.271 42.3769ZM358.764 43.9236L358.394 44.0236V44.4063V49.5115C358.394 51.553 358.109 53.5297 357.574 55.4072L357.282 56.432L358.257 56.0016C359.323 55.5307 360.408 54.3688 361.217 53.0333C362.031 51.6878 362.628 50.0638 362.628 48.5865C362.628 47.0869 362.369 45.9088 361.827 45.0914C361.264 44.2423 360.429 43.8316 359.433 43.8316C359.207 43.8316 358.983 43.8642 358.764 43.9236ZM312.105 56.0016L313.08 56.432L312.788 55.4072C312.253 53.5297 311.967 51.553 311.967 49.5115V44.4063V44.0236L311.598 43.9236C311.379 43.8642 311.154 43.8316 310.928 43.8316C309.933 43.8316 309.097 44.2423 308.535 45.0914C307.993 45.9088 307.734 47.0869 307.734 48.5865C307.734 50.0638 308.33 51.6878 309.145 53.0333C309.953 54.3688 311.039 55.5307 312.105 56.0016ZM316.676 35.3939L316.311 35.2298L316.071 35.5495C314.17 38.0792 313.123 41.127 313.123 44.3316V49.5115C313.123 61.2493 323.018 70.7311 335.181 70.7311C347.344 70.7311 357.238 61.2493 357.238 49.5115V44.3316C357.238 41.127 356.192 38.0792 354.29 35.5495L354.05 35.2298L353.685 35.3939C348.282 37.8254 341.885 39.152 335.181 39.152C328.477 39.152 322.079 37.8254 316.676 35.3939Z" fill="#FF0000" stroke="#FF0000"/>
<path d="M344.431 59.0574L345.321 57.8896L343.904 58.2716C341.248 58.9871 338.271 59.3711 335.18 59.3711C332.089 59.3711 329.112 58.9871 326.456 58.2716L325.039 57.8896L325.929 59.0574C327.998 61.7742 331.418 63.4791 335.18 63.4791C338.942 63.4791 342.362 61.7742 344.431 59.0574ZM324.284 56.4287C327.388 57.6362 331.187 58.2992 335.18 58.2992C339.173 58.2992 342.972 57.6362 346.076 56.4287C346.596 56.2264 346.997 56.7227 346.84 57.111C345.05 61.5347 340.435 64.551 335.18 64.551C329.925 64.551 325.31 61.5347 323.52 57.111C323.363 56.7227 323.764 56.2264 324.284 56.4287Z" fill="#FF0000" stroke="#FF0000"/>
<path d="M324.913 48.9432L326.127 48.4766L324.913 48.0098L322.025 46.899L321.859 47.3309L322.025 46.899C321.722 46.7824 321.599 46.4696 321.707 46.2112C321.819 45.9419 322.155 45.7887 322.467 45.9087L327.857 47.9815C328.333 48.1646 328.333 48.7889 327.857 48.9719L322.467 51.0438C322.155 51.1638 321.819 51.0106 321.707 50.7413C321.6 50.4829 321.722 50.17 322.025 50.0535L321.849 49.5949L322.025 50.0535L324.913 48.9432Z" fill="#FF0000" stroke="#FF0000"/>
<path d="M345.448 48.9431L344.234 48.4765L345.448 48.0098L348.336 46.899L348.502 47.3308L348.336 46.899C348.639 46.7824 348.762 46.4695 348.654 46.2111C348.542 45.9418 348.206 45.7886 347.894 45.9087L342.505 47.9815C342.029 48.1645 342.029 48.7888 342.505 48.9718L347.894 51.0438C348.206 51.1638 348.542 51.0105 348.654 50.7412C348.762 50.4828 348.639 50.17 348.336 50.0534L348.512 49.5948L348.336 50.0534L345.448 48.9431Z" fill="#FF0000" stroke="#FF0000"/>
<path d="M15.0658 54.131C11.4078 54.9514 8.29161 55.9917 5.99449 57.219C4.7233 57.8981 3.6333 58.671 2.84471 59.555C2.04789 60.4482 1.5 61.5268 1.5 62.7574C1.5 64.8197 2.99797 66.4273 4.81329 67.6113C6.69194 68.8367 9.31114 69.8829 12.4134 70.7388C18.6392 72.4565 27.1547 73.5 36.5 73.5C45.8453 73.5 54.3608 72.4565 60.5866 70.7388C63.6889 69.8829 66.3081 68.8367 68.1867 67.6113C70.002 66.4273 71.5 64.8197 71.5 62.7574C71.5 60.6955 70.0018 59.0882 68.1866 57.9045C66.308 56.6794 63.6888 55.6334 60.5865 54.7776C54.3608 53.0602 45.8453 52.0166 36.5 52.0166C30.733 52.0166 25.3076 52.421 20.5331 53.1268V17.4641L41.6325 11.5373L46.4438 10.1858L41.6835 8.6644L19.4897 1.5712L19.267 1.5H19.0331H16.5658H15.0658V3V54.131ZM22.9359 64.2659C21.736 64.2659 20.7231 63.9779 20.0613 63.5902C19.3636 63.1816 19.2986 62.836 19.2986 62.7574C19.2986 62.6817 19.3622 62.3368 20.0608 61.9279C20.7229 61.5405 21.736 61.2525 22.9359 61.2525C24.1357 61.2525 25.1488 61.5405 25.8109 61.9279C26.5095 62.3368 26.5731 62.6817 26.5731 62.7574C26.5731 62.8349 26.5085 63.1806 25.8102 63.5897C25.1482 63.9776 24.1353 64.2659 22.9359 64.2659Z" stroke="#FF0000" stroke-width="3"/>
</svg>
