<svg width="324" height="75" viewBox="0 0 324 75" fill="none" xmlns="http://www.w3.org/2000/svg">
<path d="M58.7786 11.9956V6.37334H35.9203V3H22.8583V6.37334H0V11.9956H3.26548V43.4801H0V49.1023H16.9935L9.85194 71.2359L11.9168 71.9477L19.2892 49.1023H28.3008V71.5912H30.4778V49.1023H39.4894L46.8607 71.9465L48.9256 71.2347L41.785 49.1023H58.7786V43.4801H55.5131V11.9956H58.7786ZM25.0353 5.24889H33.7433V6.37334H25.0353V5.24889ZM2.17699 9.74668V8.62223H22.8583H35.9203H56.6016V9.74668H55.5131H3.26548H2.17699ZM56.6016 45.7289V46.8534H30.4778H28.3008H2.17699V45.7289H3.26548H55.5131H56.6016ZM53.3361 43.4801H5.44246V11.9956H53.3361V43.4801Z" fill="#B30000"/>
<path d="M28.3005 28.8618H7.61914V41.2308H28.3005V28.8618ZM26.1235 38.9819H9.79613V31.1107H26.1235V38.9819Z" fill="#B30000"/>
<path d="M30.4785 41.2308H51.1599V28.8618H30.4785V41.2308ZM32.6555 31.1107H48.9829V38.9819H32.6555V31.1107Z" fill="#B30000"/>
<path d="M20.6811 14.2445H7.61914V26.6134H20.6811V14.2445ZM18.5041 24.3646H9.79613V16.4934H18.5041V24.3646Z" fill="#B30000"/>
<path d="M35.9213 14.2445H22.8594V26.6134H35.9213V14.2445ZM33.7443 24.3646H25.0364V16.4934H33.7443V24.3646Z" fill="#B30000"/>
<path d="M51.1596 14.2445H38.0977V26.6134H51.1596V14.2445ZM48.9826 24.3646H40.2746V16.4934H48.9826V24.3646Z" fill="#B30000"/>
<path d="M85.665 42.57V40.14H92.415V33.525H94.8V40.14H101.28V42.57H94.8V49.14H92.415V42.57H85.665Z" fill="black"/>
<path d="M222.745 36.62V34.19H243.31V36.62H222.745ZM222.745 46.52V44.18H243.31V46.52H222.745Z" fill="black"/>
<path d="M296.936 18.3605C301.292 18.3605 304.762 14.7247 304.762 10.3068C304.762 5.89374 301.292 2.2601 296.936 2.2601C292.579 2.2601 289.109 5.89374 289.109 10.3068C289.109 14.7248 292.579 18.3605 296.936 18.3605Z" stroke="#B30000" stroke-width="2"/>
<path d="M321.59 9.71667L321.59 9.71658C323.298 7.95099 323.297 5.1019 321.589 3.33726C319.864 1.55476 317.05 1.55343 315.326 3.33817L315.326 3.33814L315.32 3.34444L316.046 4.03279C315.32 3.34444 315.32 3.34447 315.32 3.34453L315.32 3.34482L315.319 3.34599L315.314 3.3507L315.297 3.36941L315.227 3.44281L314.959 3.72419C314.728 3.96801 314.393 4.3195 313.983 4.75005C313.163 5.6112 312.039 6.78837 310.826 8.05265C308.395 10.5863 305.622 13.4527 304.204 14.8359C303.407 15.6099 302.334 16.5879 301.068 17.3716C299.799 18.1568 298.397 18.7085 296.935 18.7085C295.473 18.7085 294.072 18.1569 292.804 17.3717C291.538 16.588 290.465 15.6099 289.666 14.8353C288.248 13.4519 285.475 10.5861 283.044 8.05297C281.831 6.78878 280.708 5.61169 279.887 4.75061C279.477 4.32009 279.143 3.96863 278.911 3.72482L278.643 3.44347L278.574 3.37007L278.556 3.35136L278.552 3.34666L278.55 3.34548L278.55 3.34519C278.55 3.34513 278.55 3.3451 277.829 4.02956L278.55 3.34508L278.544 3.33886C276.821 1.55412 274.007 1.55545 272.281 3.33796C270.573 5.10271 270.573 7.95186 272.281 9.71665C272.281 9.71669 272.281 9.71672 272.281 9.71676L287.969 25.927V68.7793C287.969 71.2528 289.923 73.3033 292.389 73.3033C294.851 73.3033 296.799 71.2501 296.799 68.7793V45.2779C296.799 45.2188 296.821 45.1724 296.851 45.1418C296.879 45.1121 296.908 45.1025 296.935 45.1025C296.962 45.1025 296.991 45.1121 297.02 45.1418C297.049 45.1723 297.072 45.2186 297.072 45.2779V68.7793C297.072 71.2508 299.02 73.3033 301.485 73.3033C303.949 73.3033 305.902 71.2521 305.902 68.7793V25.927L321.59 9.71667Z" stroke="#B30000" stroke-width="2"/>
<path d="M179.482 18.0831L179.476 18.0769L179.469 18.0707L162.646 1.67202L162.64 1.66593L162.633 1.65996C161.965 1.03064 160.964 0.812382 160.077 1.17948C159.175 1.5335 158.6 2.3975 158.6 3.33851V19.7372C158.6 21.0498 159.69 22.0759 160.973 22.0759H177.796C178.721 22.0759 179.608 21.5382 179.98 20.6364C180.37 19.742 180.132 18.7391 179.482 18.0831Z" stroke="#B30000" stroke-width="2"/>
<path d="M158.955 35.3424H159.326L159.608 35.0999C160.499 34.3321 161.507 33.6385 162.607 33.0582L162.608 33.0583L162.619 33.052C165.174 31.6611 168.099 30.9247 171.081 30.9247C173.757 30.9247 176.383 31.5453 178.738 32.6738L180.17 33.3603V31.7721V23.5259V22.1225L178.844 22.5808C178.524 22.6913 178.167 22.7534 177.797 22.7534H160.974C159.236 22.7534 157.854 21.37 157.854 19.7374V3.33867C157.854 2.9923 157.914 2.67232 158.034 2.35898L158.557 1H157.101H129.373C128.09 1 127 2.02611 127 3.33867V67.5949C127 68.9075 128.09 69.9336 129.373 69.9336H177.797C179.08 69.9336 180.17 68.9075 180.17 67.5949V65.212V64.7954L179.874 64.502L179.078 63.7122L178.602 63.2402L177.984 63.5012C175.831 64.4116 173.478 64.8814 171.095 64.8814C168.897 64.8814 166.752 64.4891 164.696 63.7161C163.207 63.1349 161.843 62.363 160.576 61.4339L160.312 61.2402H159.985H135.43C135.202 61.2402 135.056 61.0616 135.056 60.9016C135.056 60.7415 135.202 60.5629 135.43 60.5629H157.06H159.259L157.813 58.9055C156.406 57.293 155.305 55.4584 154.594 53.4932L154.356 52.8333H153.654H135.43C135.202 52.8333 135.056 52.6547 135.056 52.4947C135.056 52.3346 135.202 52.156 135.43 52.156H152.926H154.131L153.909 50.9714C153.573 49.1828 153.546 47.3659 153.806 45.5694L153.971 44.4264H152.816H135.43C135.202 44.4264 135.056 44.2478 135.056 44.0878C135.056 43.9278 135.202 43.7491 135.43 43.7491H153.434H154.178L154.392 43.0363C154.975 41.0924 155.92 39.2504 157.187 37.6374L158.458 36.0197H156.4H135.43C135.202 36.0197 135.056 35.841 135.056 35.681C135.056 35.521 135.202 35.3424 135.43 35.3424H158.955ZM135.43 12.9328H154.89C155.124 12.9328 155.263 13.1045 155.263 13.2715C155.263 13.4316 155.117 13.6102 154.89 13.6102H135.43C135.202 13.6102 135.056 13.4316 135.056 13.2715C135.056 13.1046 135.196 12.9328 135.43 12.9328ZM135.43 26.9221H171.727C171.954 26.9221 172.1 27.1007 172.1 27.2607C172.1 27.4277 171.961 27.5994 171.727 27.5994H135.43C135.196 27.5994 135.056 27.4277 135.056 27.2607C135.056 27.1007 135.202 26.9221 135.43 26.9221Z" stroke="#B30000" stroke-width="2"/>
<path d="M194.59 63.7865L194.59 63.7866C195.55 64.7232 196.086 65.9848 196.086 67.3274C196.086 68.6589 195.549 69.903 194.596 70.835C193.659 71.7788 192.344 72.3032 191.008 72.3032C189.668 72.3032 188.357 71.7767 187.409 70.8385C187.408 70.8373 187.407 70.8361 187.406 70.835L178.738 62.3981C176.354 63.6005 173.73 64.2071 171.095 64.2071C169.03 64.2071 166.956 63.8351 164.98 63.0843L164.975 63.0825C162.84 62.2592 160.927 61.0375 159.285 59.4547L159.281 59.4509C157.498 57.7123 156.122 55.5788 155.3 53.27L155.299 53.2676C154.168 50.0695 154.073 46.6698 155.026 43.4397C155.786 40.7647 157.259 38.3126 159.28 36.3579C160.35 35.3001 161.603 34.3789 162.99 33.6297L194.59 63.7865ZM194.59 63.7865L185.932 55.3471M194.59 63.7865L185.932 55.3471M185.932 55.3471C189.205 49.1235 188.056 41.4164 182.886 36.3618L182.885 36.3607C181.687 35.1932 180.343 34.2239 178.898 33.489C173.964 30.9302 167.878 30.9865 162.991 33.6294L185.932 55.3471ZM180.986 54.4152L180.987 54.4135L180.994 54.4041L180.995 54.4027C184.178 49.8112 183.576 43.6262 179.545 39.6844C178.685 38.8461 177.729 38.1585 176.707 37.6387L176.7 37.635L176.7 37.6349C174.965 36.7344 173.023 36.2832 171.078 36.2832C169.061 36.2832 167.052 36.7683 165.274 37.7302L165.274 37.7304C164.271 38.2722 163.383 38.9263 162.628 39.674L162.619 39.6821L162.619 39.682C161.174 41.0802 160.132 42.8188 159.591 44.7182L159.589 44.7279L159.589 44.7279C158.908 47.0339 158.975 49.4454 159.78 51.724C160.362 53.3556 161.341 54.8787 162.613 56.1188C163.791 57.255 165.167 58.1332 166.698 58.724C169.967 59.9667 173.614 59.7643 176.695 58.1743L176.704 58.1693L176.704 58.1694C177.027 58.0074 177.363 57.8101 177.783 57.5335C177.804 57.5194 177.82 57.5091 177.828 57.504L177.836 57.4992L177.838 57.498L177.847 57.4923L177.852 57.4888C178.116 57.3093 178.374 57.1242 178.616 56.9329C178.629 56.9215 178.64 56.9117 178.65 56.9038C178.672 56.8856 178.693 56.8701 178.708 56.8588C178.717 56.8522 178.725 56.8458 178.733 56.8404C178.745 56.83 178.76 56.8172 178.779 56.803C179.039 56.5941 179.284 56.3686 179.543 56.1161L179.543 56.116C179.822 55.844 180.074 55.5736 180.313 55.2914C180.324 55.279 180.337 55.2611 180.364 55.2258C180.387 55.1951 180.426 55.1428 180.467 55.0923M180.986 54.4152L180.467 55.0923M180.986 54.4152L180.949 54.4684L180.949 54.4695M180.986 54.4152L180.949 54.4695M180.467 55.0923L180.472 55.0862C180.653 54.8619 180.81 54.668 180.949 54.4695M180.467 55.0923L180.949 54.4695M181.011 54.3822L181.009 54.3844L181.011 54.3822Z" stroke="#B30000" stroke-width="2"/>
</svg>
