<svg fill="none" height="75" viewBox="0 0 324 75" width="324" xmlns="http://www.w3.org/2000/svg"><g fill="#b30000"><path d="m58.7786 11.9956v-5.62226h-22.8583v-3.37334h-13.062v3.37334h-22.8583v5.62226h3.26548v31.4845h-3.26548v5.6222h16.9935l-7.14155 22.1336 2.06485.7118 7.3724-22.8454h9.0116v22.4889h2.177v-22.4889h9.0116l7.3713 22.8442 2.0649-.7118-7.1405-22.1324h16.9935v-5.6222h-3.2655v-31.4845zm-33.7433-6.74671h8.708v1.12445h-8.708zm-22.85831 4.49779v-1.12445h20.68131 13.062 20.6813v1.12445h-1.0885-52.24762zm54.42461 35.98222v1.1245h-26.1238-2.177-26.12381v-1.1245h1.08849 52.24762zm-3.2655-2.2488h-47.89364v-31.4845h47.89364z"/><path d="m28.3005 28.8618h-20.68136v12.3689h20.68136zm-2.177 10.12h-16.32737v-7.8711h16.32737z"/><path d="m30.4778 41.2307h20.6813v-12.3689h-20.6813zm2.177-10.12h16.3274v7.8711h-16.3274z"/><path d="m20.6811 14.2445h-13.06196v12.3689h13.06196zm-2.177 10.12h-8.70797v-7.8711h8.70797z"/><path d="m35.9206 14.2445h-13.062v12.3689h13.062zm-2.177 10.12h-8.708v-7.8711h8.708z"/><path d="m51.1596 14.2445h-13.0619v12.3689h13.0619zm-2.177 10.12h-8.708v-7.8711h8.708z"/></g><path d="m85.665 42.57v-2.43h6.75v-6.615h2.385v6.615h6.48v2.43h-6.48v6.57h-2.385v-6.57z" fill="#000"/><path d="m222.745 36.62v-2.43h20.565v2.43zm0 9.9v-2.34h20.565v2.34z" fill="#000"/><g stroke="#b30000" stroke-width="2"><path d="m296.936 18.3605c4.356 0 7.826-3.6358 7.826-8.0537 0-4.41309-3.471-8.04673-7.826-8.04673-4.357 0-7.827 3.63364-7.827 8.04673 0 4.4179 3.47 8.0537 7.827 8.0537z"/><path d="m321.59 9.71667v-.00009c1.708-1.76559 1.707-4.61468-.001-6.37932-1.725-1.7825-4.539-1.78383-6.263.00091v-.00003l-.006.0063.726.68835c-.726-.68835-.726-.68832-.726-.68826v.00029l-.001.00117-.005.00471-.017.01871-.07.0734-.268.28138c-.231.24382-.566.59531-.976 1.02586-.82.86115-1.944 2.03832-3.157 3.3026-2.431 2.53315-5.203 5.39905-6.621 6.78255-.798.7741-1.871 1.7525-3.137 2.5364-1.269.7852-2.671 1.3369-4.133 1.3369s-2.863-.5516-4.131-1.3368c-1.266-.7837-2.339-1.7618-3.138-2.5364-1.418-1.3834-4.191-4.2492-6.622-6.78233-1.213-1.26419-2.336-2.44128-3.157-3.30236-.41-.43052-.744-.78198-.976-1.02579l-.268-.28135-.069-.0734-.018-.01871-.004-.0047-.002-.00118v-.00029c0-.00006 0-.00009-.721.68434l.721-.68445-.006-.00622c-1.723-1.78474-4.537-1.78341-6.263-.0009-1.708 1.76474-1.708 4.6139 0 6.37869v.00011l15.688 16.21024v42.8523c0 2.4735 1.954 4.524 4.42 4.524 2.462 0 4.41-2.0532 4.41-4.524v-23.5014c0-.0591.022-.1055.052-.1361.028-.0297.057-.0393.084-.0393s.056.0096.085.0393c.029.0305.052.0768.052.1361v23.5014c0 2.4715 1.948 4.524 4.413 4.524 2.464 0 4.417-2.0512 4.417-4.524v-42.8523z"/><path d="m179.483 18.0831-.007-.0063-.006-.0061-16.823-16.39871-.006-.00609-.007-.00598c-.668-.62931-1.669-.847569-2.556-.48047-.902.35402-1.478 1.21802-1.478 2.15903v16.39872c0 1.3126 1.09 2.3387 2.374 2.3387h16.823c.924 0 1.812-.5377 2.184-1.4395.389-.8945.151-1.8974-.498-2.5533z"/><path d="m158.955 35.3424h.371l.282-.2425c.891-.7678 1.899-1.4614 2.999-2.0417l.001.0001.011-.0063c2.555-1.3909 5.48-2.1273 8.462-2.1273 2.676 0 5.302.6206 7.657 1.7491l1.432.6865v-1.5882-8.2462-1.4034l-1.326.4583c-.32.1105-.677.1726-1.047.1726h-16.823c-1.738 0-3.12-1.3834-3.12-3.016v-16.39873c0-.34637.06-.66634.18-.97969l.523-1.35898h-1.456-27.728c-1.283 0-2.373 1.02611-2.373 2.33867v64.25623c0 1.3126 1.09 2.3387 2.373 2.3387h48.424c1.283 0 2.373-1.0261 2.373-2.3387v-2.3829-.4166l-.296-.2934-.796-.7898-.476-.472-.618.261c-2.153.9104-4.506 1.3802-6.889 1.3802-2.198 0-4.343-.3922-6.399-1.1653-1.489-.5811-2.853-1.3531-4.12-2.2822l-.264-.1937h-.327-24.555c-.228 0-.374-.1786-.374-.3386 0-.1601.146-.3387.374-.3387h21.63 2.199l-1.446-1.6574c-1.407-1.6125-2.508-3.4471-3.219-5.4123l-.238-.6599h-.702-18.224c-.228 0-.374-.1786-.374-.3386 0-.1601.146-.3387.374-.3387h17.496 1.205l-.222-1.1846c-.336-1.7886-.363-3.6055-.103-5.4019l.165-1.1431h-1.155-17.386c-.228 0-.374-.1786-.374-.3386s.146-.3387.374-.3387h18.004.744l.214-.7128c.583-1.9439 1.528-3.7859 2.795-5.3989l1.271-1.6177h-2.058-20.97c-.228 0-.374-.1787-.374-.3387s.146-.3386.374-.3386zm-23.525-22.4096h19.46c.234 0 .373.1717.373.3387 0 .1601-.146.3387-.373.3387h-19.46c-.228 0-.374-.1786-.374-.3387 0-.1669.14-.3387.374-.3387zm0 13.9893h36.297c.227 0 .373.1786.373.3386 0 .167-.139.3387-.373.3387h-36.297c-.234 0-.374-.1717-.374-.3387 0-.16.146-.3386.374-.3386z"/><path d="m194.59 63.7865v.0001c.961.9366 1.497 2.1982 1.497 3.5408 0 1.3315-.537 2.5756-1.49 3.5076-.938.9438-2.252 1.4682-3.589 1.4682-1.34 0-2.651-.5265-3.598-1.4647-.001-.0012-.003-.0024-.004-.0035l-8.667-8.4369c-2.385 1.2024-5.008 1.809-7.643 1.809-2.065 0-4.139-.372-6.115-1.1228l-.005-.0018c-2.135-.8233-4.048-2.045-5.69-3.6278l-.004-.0038c-1.783-1.7386-3.159-3.8721-3.982-6.1809v-.0024c-1.131-3.1981-1.226-6.5978-.274-9.8279.761-2.675 2.234-5.1271 4.254-7.0818 1.071-1.0578 2.323-1.979 3.711-2.7282zm0 0-8.658-8.4394m8.658 8.4394-8.658-8.4394m0 0c3.273-6.2236 2.125-13.9307-3.045-18.9853l-.002-.0011c-1.197-1.1675-2.541-2.1368-3.986-2.8717-4.934-2.5588-11.021-2.5025-15.908.1404zm-4.944-.9336-.001.0017-.037.0531-.001.0012c-.139.1984-.295.3924-.476.6168l-.005.006v.0001c-.041.0505-.08.1027-.103.1334-.027.0352-.041.0532-.051.0656-.239.2821-.492.5526-.771.8246v.0001c-.259.2525-.503.478-.764.6869-.018.0142-.034.027-.046.0374-.007.0054-.016.0118-.025.0185-.015.0112-.035.0267-.057.0449-.01.0079-.022.0177-.035.0291-.241.1913-.499.3764-.763.5559l-.006.0035-.009.0057-.001.0012-.008.0048c-.008.0051-.025.0154-.045.0296-.42.2765-.756.4738-1.079.6358v-.0001l-.009.005c-3.081 1.59-6.728 1.7924-9.998.5497-1.531-.5908-2.906-1.469-4.084-2.6053-1.272-1.2399-2.251-2.763-2.833-4.3945-.805-2.2787-.872-4.6903-.192-6.9963l.003-.0097c.54-1.8994 1.583-3.638 3.028-5.0362v.0001l.008-.0081c.756-.7477 1.644-1.4018 2.646-1.9436l.001-.0002c1.778-.9619 3.787-1.447 5.804-1.447 1.945 0 3.887.4512 5.622 1.3517v.0001l.007.0037c1.022.5198 1.977 1.2074 2.838 2.0457 4.031 3.9418 4.633 10.1269 1.45 14.7183l-.001.0014zm.023-.0313-.001.0021zm-2.332 2.5078c.001-.0004.002-.0014.003-.0023l-.002.0012z"/></g></svg>