<svg width="105" height="101" viewBox="0 0 105 101" fill="none" xmlns="http://www.w3.org/2000/svg">
<rect width="104.375" height="101" rx="6" fill="url(#paint0_linear)"/>
<path d="M85.4683 10H18.9305C14.0008 10 10 12.7205 10 16.0726V26.1935C10 29.5456 14.0008 32.2661 18.9305 32.2661H48.6986V41.7879C48.6986 44.0388 50.6752 46.0144 53.7473 46.8565C54.9142 47.1803 55.0571 47.8767 55.0571 48.1681C55.0571 48.4596 54.938 49.1559 53.7473 49.4798L47.3888 51.1963C44.3167 52.0222 42.3401 54.014 42.3401 56.2649C42.3401 58.5158 44.3167 60.4914 47.3888 61.3335L53.7235 63.0662C54.8904 63.39 55.0333 64.0864 55.0333 64.3778C55.0333 64.6693 54.9142 65.3657 53.7235 65.6895L47.3888 67.3898C44.3167 68.2157 42.3401 70.2075 42.3401 72.4584C42.3401 74.7093 44.3167 76.6849 47.3888 77.527L53.7235 79.2597C54.8904 79.5836 55.0333 80.2799 55.0333 80.5714C55.0333 80.8629 54.9142 81.5592 53.7235 81.883C50.6514 82.7089 48.6748 84.7007 48.6748 86.9516C48.6748 89.1863 51.342 91 54.6284 91V86.9516C54.6284 86.3687 55.1285 85.8667 55.9382 85.6399C59.0103 84.8141 60.9869 82.8223 60.9869 80.5714C60.9869 78.3205 59.0103 76.3449 55.9382 75.5028L49.6036 73.7701C48.4367 73.4462 48.2938 72.7499 48.2938 72.4584C48.2938 72.1669 48.4128 71.4706 49.6036 71.1467L55.9382 69.414C59.0103 68.5882 60.9869 66.5964 60.9869 64.3455C60.9869 62.0946 59.0103 60.1189 55.9382 59.2769L49.6036 57.5442C48.4367 57.2203 48.2938 56.524 48.2938 56.2325C48.2938 55.941 48.4128 55.2447 49.6036 54.9208L55.9382 53.1881C59.0103 52.3623 60.9869 50.3705 60.9869 48.1196C60.9869 45.8687 59.0103 43.893 55.9382 43.051C55.1524 42.8405 54.6284 42.3223 54.6284 41.7393V32.2175H85.4444C90.3741 32.2175 94.3749 29.497 94.3749 26.1449V16.0726C94.3987 12.7205 90.3979 10 85.4683 10ZM88.4451 26.1935C88.4451 27.3109 87.1115 28.2177 85.4683 28.2177H18.9305C17.2872 28.2177 15.9536 27.3109 15.9536 26.1935V16.0726C15.9536 14.9552 17.2872 14.0484 18.9305 14.0484H85.4683C87.1115 14.0484 88.4451 14.9552 88.4451 16.0726V26.1935Z" fill="white"/>
<rect x="12.6484" y="12.249" width="79.3818" height="17.9928" fill="white"/>
<defs>
<linearGradient id="paint0_linear" x1="28" y1="24.5" x2="82.1005" y2="82.2786" gradientUnits="userSpaceOnUse">
<stop offset="0.0506923" stop-color="#DC98D7"/>
<stop offset="0.919207" stop-color="#513162"/>
</linearGradient>
</defs>
</svg>
