<svg width="46" height="45" viewBox="0 0 46 45" fill="none" xmlns="http://www.w3.org/2000/svg">
<path d="M41.1442 0H4.86875C2.1812 0 0 1.48318 0 3.31068V8.82847C0 10.656 2.1812 12.1391 4.86875 12.1391H21.0979V17.3303C21.0979 18.5574 22.1755 19.6345 23.8504 20.0936C24.4866 20.2702 24.5645 20.6498 24.5645 20.8087C24.5645 20.9676 24.4995 21.3472 23.8504 21.5238L20.3838 22.4596C18.709 22.9099 17.6314 23.9958 17.6314 25.2229C17.6314 26.4501 18.709 27.5272 20.3838 27.9862L23.8374 28.9309C24.4736 29.1075 24.5515 29.4871 24.5515 29.646C24.5515 29.8049 24.4866 30.1845 23.8374 30.3611L20.3838 31.2881C18.709 31.7383 17.6314 32.8242 17.6314 34.0514C17.6314 35.2786 18.709 36.3556 20.3838 36.8147L23.8374 37.7594C24.4736 37.9359 24.5515 38.3155 24.5515 38.4745C24.5515 38.6334 24.4866 39.013 23.8374 39.1896C22.1625 39.6398 21.0849 40.7257 21.0849 41.9529C21.0849 43.1712 22.5391 44.16 24.3308 44.16V41.9529C24.3308 41.6351 24.6034 41.3614 25.0448 41.2378C26.7197 40.7875 27.7973 39.7016 27.7973 38.4745C27.7973 37.2473 26.7197 36.1702 25.0448 35.7112L21.5913 34.7665C20.9551 34.5899 20.8772 34.2103 20.8772 34.0514C20.8772 33.8925 20.9421 33.5129 21.5913 33.3363L25.0448 32.3916C26.7197 31.9414 27.7973 30.8555 27.7973 29.6283C27.7973 28.4012 26.7197 27.3241 25.0448 26.865L21.5913 25.9204C20.9551 25.7438 20.8772 25.3642 20.8772 25.2053C20.8772 25.0464 20.9421 24.6667 21.5913 24.4902L25.0448 23.5455C26.7197 23.0953 27.7973 22.0094 27.7973 20.7822C27.7973 19.5551 26.7197 18.478 25.0448 18.0189C24.6164 17.9041 24.3308 17.6216 24.3308 17.3038V12.1127H41.1312C43.8187 12.1127 45.9999 10.6295 45.9999 8.80198V3.31068C46.0129 1.48318 43.8317 0 41.1442 0ZM42.7671 8.82847C42.7671 9.43763 42.04 9.93203 41.1442 9.93203H4.86875C3.9729 9.93203 3.24583 9.43763 3.24583 8.82847V3.31068C3.24583 2.70151 3.9729 2.20712 4.86875 2.20712H41.1442C42.04 2.20712 42.7671 2.70151 42.7671 3.31068V8.82847Z" fill="#7C4660"/>
<rect x="1.44336" y="1.22607" width="43.2778" height="9.80941" fill="#7C4660"/>
</svg>
