<svg width="81" height="48" viewBox="0 0 81 48" fill="none" xmlns="http://www.w3.org/2000/svg">
<path d="M25.0443 8.52002H2.96359C1.32769 8.52002 0 9.42283 0 10.5352V13.8939C0 15.0063 1.32769 15.9091 2.96359 15.9091H12.8422V19.0689C12.8422 19.8159 13.4981 20.4715 14.5176 20.7509C14.9049 20.8584 14.9523 21.0895 14.9523 21.1862C14.9523 21.2829 14.9128 21.514 14.5176 21.6215L12.4075 22.1911C11.3881 22.4652 10.7321 23.1261 10.7321 23.8731C10.7321 24.6201 11.3881 25.2757 12.4075 25.5551L14.5097 26.1301C14.897 26.2376 14.9444 26.4687 14.9444 26.5654C14.9444 26.6621 14.9049 26.8932 14.5097 27.0007L12.4075 27.5649C11.3881 27.839 10.7321 28.5 10.7321 29.247C10.7321 29.9939 11.3881 30.6495 12.4075 30.929L14.5097 31.504C14.897 31.6115 14.9444 31.8425 14.9444 31.9393C14.9444 32.036 14.9049 32.2671 14.5097 32.3745C13.4902 32.6486 12.8343 33.3096 12.8343 34.0566C12.8343 34.7981 13.7194 35.4 14.81 35.4V34.0566C14.81 33.8631 14.976 33.6965 15.2447 33.6213C16.2642 33.3472 16.9201 32.6862 16.9201 31.9393C16.9201 31.1923 16.2642 30.5367 15.2447 30.2572L13.1425 29.6822C12.7553 29.5748 12.7079 29.3437 12.7079 29.247C12.7079 29.1502 12.7474 28.9192 13.1425 28.8117L15.2447 28.2367C16.2642 27.9626 16.9201 27.3016 16.9201 26.5547C16.9201 25.8077 16.2642 25.1521 15.2447 24.8726L13.1425 24.2976C12.7553 24.1902 12.7079 23.9591 12.7079 23.8624C12.7079 23.7656 12.7474 23.5346 13.1425 23.4271L15.2447 22.8521C16.2642 22.578 16.9201 21.917 16.9201 21.1701C16.9201 20.4231 16.2642 19.7675 15.2447 19.488C14.9839 19.4182 14.81 19.2462 14.81 19.0528V15.8929H25.0364C26.6723 15.8929 28 14.9901 28 13.8777V10.5352C28.0079 9.42283 26.6802 8.52002 25.0443 8.52002ZM26.0321 13.8939C26.0321 14.2647 25.5896 14.5656 25.0443 14.5656H2.96359C2.41829 14.5656 1.97572 14.2647 1.97572 13.8939V10.5352C1.97572 10.1644 2.41829 9.86348 2.96359 9.86348H25.0443C25.5896 9.86348 26.0321 10.1644 26.0321 10.5352V13.8939Z" fill="#7C4660"/>
<rect x="0.878906" y="9.26636" width="26.343" height="5.97094" fill="#7C4660"/>
<path d="M23.788 35.14C22.6307 35.14 21.7067 34.72 21.016 33.88C20.3253 33.04 19.98 31.9387 19.98 30.576C19.98 29.0827 20.3253 27.6733 21.016 26.348C21.7067 25.004 22.6213 23.9307 23.76 23.128C24.9173 22.3067 26.14 21.896 27.428 21.896C27.8387 21.896 28.1093 21.98 28.24 22.148C28.3893 22.2973 28.5107 22.5773 28.604 22.988C28.996 22.9133 29.4067 22.876 29.836 22.876C30.7507 22.876 31.208 23.2027 31.208 23.856C31.208 24.248 31.068 25.1813 30.788 26.656C30.3587 28.8027 30.144 30.296 30.144 31.136C30.144 31.416 30.2093 31.64 30.34 31.808C30.4893 31.976 30.676 32.06 30.9 32.06C31.2547 32.06 31.684 31.836 32.188 31.388C32.692 30.9213 33.3733 30.1747 34.232 29.148C34.456 28.8867 34.708 28.756 34.988 28.756C35.2307 28.756 35.4173 28.868 35.548 29.092C35.6973 29.316 35.772 29.624 35.772 30.016C35.772 30.7627 35.5947 31.3413 35.24 31.752C34.4747 32.704 33.6627 33.5067 32.804 34.16C31.9453 34.8133 31.1147 35.14 30.312 35.14C29.696 35.14 29.1267 34.9347 28.604 34.524C28.1 34.0947 27.7173 33.516 27.456 32.788C26.4853 34.356 25.2627 35.14 23.788 35.14ZM24.796 32.312C25.2067 32.312 25.5987 32.0693 25.972 31.584C26.3453 31.0987 26.616 30.4547 26.784 29.652L27.82 24.5C27.036 24.5187 26.308 24.8173 25.636 25.396C24.9827 25.956 24.46 26.7027 24.068 27.636C23.676 28.5693 23.48 29.5587 23.48 30.604C23.48 31.1827 23.592 31.612 23.816 31.892C24.0587 32.172 24.3853 32.312 24.796 32.312ZM38.7043 35.756C37.7337 35.756 36.987 35.532 36.4643 35.084C35.9603 34.636 35.7083 34.132 35.7083 33.572C35.7083 33.0867 35.8857 32.6667 36.2403 32.312C36.595 31.9573 37.1177 31.78 37.8083 31.78C38.051 31.78 38.331 31.808 38.6483 31.864C38.9843 31.9013 39.2363 31.9293 39.4043 31.948C39.3857 31.4627 39.2737 31.0053 39.0683 30.576C38.8817 30.1467 38.639 29.736 38.3403 29.344C38.0417 28.9333 37.7617 28.5787 37.5003 28.28C36.9217 29.3813 36.343 30.296 35.7643 31.024C35.2043 31.752 34.5883 32.4427 33.9163 33.096C33.5803 33.432 33.2257 33.6 32.8523 33.6C32.5537 33.6 32.311 33.4973 32.1243 33.292C31.9377 33.068 31.8443 32.7973 31.8443 32.48C31.8443 32.1067 31.975 31.7613 32.2363 31.444L32.6003 30.996C33.627 29.7267 34.4017 28.6813 34.9243 27.86C35.2417 27.3187 35.615 26.6 36.0443 25.704C36.4737 24.7893 36.8937 23.8467 37.3043 22.876C37.659 22.0547 38.3963 21.644 39.5163 21.644C40.039 21.644 40.403 21.6907 40.6083 21.784C40.8137 21.8773 40.9163 22.0267 40.9163 22.232C40.9163 22.344 40.879 22.5213 40.8043 22.764C40.7297 23.0067 40.627 23.2493 40.4963 23.492C40.1603 24.164 39.9923 24.7333 39.9923 25.2C39.9923 25.48 40.0857 25.788 40.2723 26.124C40.4777 26.46 40.7857 26.88 41.1963 27.384C41.7937 28.168 42.2417 28.84 42.5403 29.4C42.8577 29.9413 43.0163 30.5387 43.0163 31.192C43.0163 31.3787 42.9977 31.64 42.9603 31.976C43.875 31.6213 44.9483 30.6787 46.1803 29.148C46.4043 28.8867 46.6563 28.756 46.9363 28.756C47.179 28.756 47.3657 28.868 47.4963 29.092C47.6457 29.316 47.7203 29.624 47.7203 30.016C47.7203 30.7253 47.543 31.304 47.1883 31.752C46.255 32.9093 45.359 33.7027 44.5003 34.132C43.6603 34.5427 42.615 34.7667 41.3643 34.804C40.6177 35.4387 39.731 35.756 38.7043 35.756ZM57.9336 28.756C58.1762 28.756 58.3629 28.868 58.4936 29.092C58.6429 29.316 58.7176 29.624 58.7176 30.016C58.7176 30.7627 58.5402 31.3413 58.1856 31.752C57.3829 32.7413 56.5056 33.5533 55.5536 34.188C54.6016 34.8227 53.5096 35.14 52.2776 35.14C48.4696 35.14 46.5656 32.4613 46.5656 27.104C46.5656 26.2827 46.5936 25.452 46.6496 24.612H45.5576C44.9976 24.612 44.6149 24.5093 44.4096 24.304C44.2229 24.0987 44.1296 23.772 44.1296 23.324C44.1296 22.2787 44.5496 21.756 45.3896 21.756H46.9856C47.3029 19.7027 47.7882 17.8267 48.4416 16.128C49.0949 14.4293 49.8789 13.076 50.7936 12.068C51.7269 11.06 52.7256 10.556 53.7896 10.556C54.5736 10.556 55.1896 10.9013 55.6376 11.592C56.0856 12.2827 56.3096 13.1507 56.3096 14.196C56.3096 17.0893 55.0962 19.6093 52.6696 21.756H55.8056C56.1042 21.756 56.3189 21.8213 56.4496 21.952C56.5802 22.0827 56.6456 22.3253 56.6456 22.68C56.6456 23.968 55.5909 24.612 53.4816 24.612H50.0656C50.0282 25.5453 50.0096 26.2733 50.0096 26.796C50.0096 28.7373 50.2336 30.1 50.6816 30.884C51.1482 31.668 51.8762 32.06 52.8656 32.06C53.6682 32.06 54.3776 31.8173 54.9936 31.332C55.6096 30.8467 56.3376 30.1187 57.1776 29.148C57.4016 28.8867 57.6536 28.756 57.9336 28.756ZM53.0336 13.244C52.7536 13.244 52.4362 13.5987 52.0816 14.308C51.7456 14.9987 51.4189 15.9693 51.1016 17.22C50.8029 18.452 50.5509 19.824 50.3456 21.336C51.4469 20.384 52.2682 19.32 52.8096 18.144C53.3696 16.9493 53.6496 15.8667 53.6496 14.896C53.6496 13.7947 53.4442 13.244 53.0336 13.244ZM68.9258 28.756C69.1684 28.756 69.3551 28.868 69.4857 29.092C69.6351 29.316 69.7098 29.624 69.7098 30.016C69.7098 30.7627 69.5324 31.3413 69.1778 31.752C68.4871 32.592 67.5071 33.3667 66.2378 34.076C64.9871 34.7853 63.6431 35.14 62.2058 35.14C60.2458 35.14 58.7244 34.608 57.6418 33.544C56.5591 32.48 56.0177 31.024 56.0177 29.176C56.0177 27.888 56.2884 26.6933 56.8298 25.592C57.3711 24.472 58.1178 23.5853 59.0698 22.932C60.0404 22.2787 61.1324 21.952 62.3458 21.952C63.4284 21.952 64.2964 22.2787 64.9498 22.932C65.6031 23.5667 65.9298 24.4347 65.9298 25.536C65.9298 26.824 65.4631 27.9347 64.5298 28.868C63.6151 29.7827 62.0564 30.5107 59.8538 31.052C60.3204 31.9107 61.2071 32.34 62.5138 32.34C63.3538 32.34 64.3058 32.0507 65.3698 31.472C66.4524 30.8747 67.3858 30.1 68.1698 29.148C68.3938 28.8867 68.6458 28.756 68.9258 28.756ZM61.8698 24.696C61.1791 24.696 60.5911 25.0973 60.1058 25.9C59.6391 26.7027 59.4058 27.6733 59.4058 28.812V28.868C60.5071 28.6067 61.3751 28.2147 62.0098 27.692C62.6444 27.1693 62.9618 26.5627 62.9618 25.872C62.9618 25.5173 62.8591 25.2373 62.6538 25.032C62.4671 24.808 62.2058 24.696 61.8698 24.696ZM78.7419 25.788C79.1526 25.788 79.4979 25.9373 79.7779 26.236C80.0766 26.516 80.2259 26.8707 80.2259 27.3C80.2259 27.5427 80.1699 27.804 80.0579 28.084C79.7593 28.7747 79.3393 29.3533 78.7979 29.82C78.2566 30.2867 77.6593 30.52 77.0059 30.52C76.4833 30.52 76.0353 30.3333 75.6619 29.96C75.3073 29.5867 75.1299 29.0827 75.1299 28.448C75.1299 28.0933 75.1486 27.7107 75.1859 27.3C75.2233 27.0013 75.2419 26.796 75.2419 26.684C75.2419 26.5347 75.2046 26.4227 75.1299 26.348C75.0739 26.2733 74.9993 26.236 74.9059 26.236C74.6446 26.236 74.2899 26.5533 73.8419 27.188C73.3939 27.804 72.9459 28.6253 72.4979 29.652C72.0499 30.6787 71.6859 31.7613 71.4059 32.9C71.2006 33.796 70.9673 34.3933 70.7059 34.692C70.4446 34.9907 70.0153 35.14 69.4179 35.14C68.7086 35.14 68.2046 34.7667 67.9059 34.02C67.6259 33.2733 67.4859 32.0787 67.4859 30.436C67.4859 28.0093 67.8313 25.704 68.5219 23.52C68.6899 22.9787 68.9606 22.5867 69.3339 22.344C69.7259 22.0827 70.2673 21.952 70.9579 21.952C71.3313 21.952 71.5926 21.9987 71.7419 22.092C71.8913 22.1853 71.9659 22.3627 71.9659 22.624C71.9659 22.9227 71.8259 23.5947 71.5459 24.64C71.3593 25.3867 71.2099 26.04 71.0979 26.6C70.9859 27.16 70.8926 27.8507 70.8179 28.672C71.4339 27.0667 72.1246 25.76 72.8899 24.752C73.6553 23.744 74.4019 23.0253 75.1299 22.596C75.8579 22.1667 76.5206 21.952 77.1179 21.952C77.6593 21.952 78.0699 22.1107 78.3499 22.428C78.6486 22.7267 78.7979 23.1747 78.7979 23.772C78.7979 24.1267 78.6953 24.7987 78.4899 25.788H78.7419Z" fill="#7C4660"/>
</svg>
