<svg width="65" height="41" viewBox="0 0 65 41" fill="none" xmlns="http://www.w3.org/2000/svg">
<path fill-rule="evenodd" clip-rule="evenodd" d="M34.3088 0.0254517L37.149 2.15289L22.3044 21.9713L22.2965 21.9655L20.3682 24.5743L19.6933 25.4718L19.5757 25.6197L17.5022 23.006L17.4823 22.9814L17.2902 22.7463L17.2928 22.7427L15.6671 20.6939L15.631 20.7225L1 2.39447L3.76794 0.184814L19.4629 19.8456L34.3088 0.0254517Z" fill="#FF0000"/>
<path fill-rule="evenodd" clip-rule="evenodd" d="M0 0.0254517V40.0255H4V0.0254517H0Z" fill="#FF0000"/>
<path fill-rule="evenodd" clip-rule="evenodd" d="M34.366 0.0254436V40.0254H52.23C53.97 40.0254 55.362 39.9094 56.406 39.6774C57.45 39.4454 58.3974 39.0974 59.248 38.6334C60.9494 37.6668 62.3027 36.3521 63.308 34.6894C64.352 32.9881 64.874 31.1321 64.874 29.1214C64.874 26.8401 64.1587 24.7908 62.728 22.9734C61.2974 21.1561 59.538 19.8801 57.45 19.1454C59.19 18.2174 60.5627 16.9608 61.568 15.3754C62.5734 13.7514 63.076 11.9921 63.076 10.0974C63.076 8.08678 62.5734 6.26944 61.568 4.64544C60.6014 3.02144 59.2094 1.74544 57.392 0.81744C56.7035 0.464355 55.9062 0.191875 55 0V0.0254436H34.366Z" fill="#FF0000"/>
</svg>
