<svg width="90" height="69" viewBox="0 0 90 69" fill="none" xmlns="http://www.w3.org/2000/svg">
<mask id="path-1-outside-1" maskUnits="userSpaceOnUse" x="0.999908" y="11.5" width="2" height="50" fill="black">
<rect fill="white" x="0.999908" y="11.5" width="2" height="50"/>
<path d="M1.99991 61.3716V11.5Z"/>
</mask>
<path d="M2.99991 61.3716V11.5H0.999908V61.3716H2.99991Z" fill="#FF0000" mask="url(#path-1-outside-1)"/>
<mask id="path-3-outside-2" maskUnits="userSpaceOnUse" x="1.29288" y="11.1776" width="24" height="24" fill="black">
<rect fill="white" x="1.29288" y="11.1776" width="24" height="24"/>
<path d="M23.9999 33.5416L2.29288 12.1776Z"/>
</mask>
<path d="M24.7014 32.8289L2.99433 11.4649L1.59142 12.8903L23.2984 34.2543L24.7014 32.8289Z" fill="#FF0000" mask="url(#path-3-outside-2)"/>
<mask id="path-5-outside-3" maskUnits="userSpaceOnUse" x="22.181" y="13.0026" width="24" height="21" fill="black">
<rect fill="white" x="22.181" y="13.0026" width="24" height="21"/>
<path d="M44.8684 14.0026L23.181 32.8718Z"/>
</mask>
<path d="M44.212 13.2481L22.5246 32.1174L23.8374 33.6263L45.5248 14.757L44.212 13.2481Z" fill="#FF0000" mask="url(#path-5-outside-3)"/>
<path d="M65.1679 13.3093C68.3359 13.3093 70.8559 13.7693 72.7279 14.6893C74.9839 15.7933 76.712 17.3113 77.912 19.2433C79.16 21.1753 79.7839 23.3373 79.7839 25.7293C79.7839 27.9833 79.16 30.0763 77.912 32.0083C76.664 33.8943 74.96 35.3893 72.8 36.4933C75.392 37.3673 77.5759 38.8853 79.3519 41.0473C81.1279 43.2093 82.0159 45.6473 82.0159 48.3613C82.0159 50.7533 81.3679 52.9613 80.0719 54.9853C78.8239 56.9633 77.1439 58.5273 75.0319 59.6773C73.9759 60.2293 72.7999 60.6433 71.5039 60.9193C70.2079 61.1953 68.48 61.3333 66.32 61.3333H44.144V13.3093H65.1679Z" fill="#FF0000"/>
</svg>
