<svg fill="none" height="69" viewBox="0 0 53 69" width="53" xmlns="http://www.w3.org/2000/svg"><path d="m48.6448 47.5862c-6.2743-5.2959-12.9916-8.9032-14.3203-9.5172-.6643-.3838-1.1072-1.0746-1.1072-1.9188v-10.2848c0-.5373.2952-1.0745.6643-1.3815.8858-.614 1.4025-1.6118 1.4025-2.6096v-10.6685c0-4.37488-3.4693-7.98222-7.6769-7.98222h-2.2144c-4.2076 0-7.6769 3.60734-7.6769 7.98222v10.6685c0 1.0745.5167 2.0723 1.4025 2.6096.4429.307.6643.8442.6643 1.3815v10.2848c0 .7675-.4429 1.535-1.1072 1.9188-1.3287.6907-8.046 4.2213-14.32035 9.5172-.81198.6908-1.25487 1.6885-1.25487 2.7631v7.2914c0 .921-.73816 1.6118-1.55014 1.6118-.811978 0-1.55014-.7675-1.55014-1.6118v-7.2914c0-2.0723.885793-3.9911 2.36212-5.2192 5.83147-4.9888 12.03198-8.4427 14.32038-9.5939v-8.8265c-1.3287-1.2281-2.0669-2.9166-2.0669-4.7586v-10.7453c0-6.14017 4.798-11.2058 10.7772-11.2058h2.2144c5.9791 0 10.7772 5.06563 10.7772 11.2058v10.6685c0 1.8421-.7382 3.6073-2.0669 4.7586v8.7497c2.2145 1.1513 8.4889 4.6819 14.3204 9.594 1.4763 1.3048 2.3621 3.2236 2.3621 5.2192v7.2914c0 .921-.7382 1.6118-1.5501 1.6118-.812 0-1.5502-.7675-1.5502-1.6118v-7.2914c0-.921-.4429-1.9188-1.2549-2.6096zm-15.649 5.3726v2.3794h1.3287c.8858 0 1.5501.7675 1.5501 1.6117v10.4383c0 .921-.7381 1.6118-1.5501 1.6118h-15.649c-.8858 0-1.5502-.7675-1.5502-1.6118v-10.3615c0-.921.7382-1.6118 1.5502-1.6118h1.3287v-2.4561c0-3.7608 2.8788-6.7541 6.4958-6.7541s6.4958 3.0701 6.4958 6.7541zm-9.8913 2.3794h6.7172v-2.3794c0-1.9188-1.4763-3.5305-3.3955-3.5305s-3.3956 1.535-3.3956 3.5305v2.3794zm9.5961 3.3003h-12.4012v7.2147h12.475v-7.2147z" fill="#b30000"/></svg>