<svg fill="none" height="667" viewBox="0 0 375 667" width="375" xmlns="http://www.w3.org/2000/svg" xmlns:xlink="http://www.w3.org/1999/xlink"><clipPath id="a"><path d="m0 0h375v667h-375z"/></clipPath><g clip-path="url(#a)"><g fill="#fff"><path d="m0 0h375v667h-375z"/><path d="m116.044 9.47192h-22.0804c-1.6359 0-2.9636.97738-2.9636 2.18168v3.6362c0 1.2043 1.3277 2.1817 2.9636 2.1817h9.8784v3.421c0 .8086.656 1.5184 1.676 1.821.387.1163.434.3665.434.4712s-.039.3549-.434.4713l-2.11.6167c-1.02.2967-1.676 1.0123-1.676 1.821 0 .8086.656 1.5184 1.676 1.821l2.102.6225c.387.1163.434.3665.434.4712s-.039.3549-.434.4713l-2.102.6109c-1.02.2967-1.676 1.0123-1.676 1.821 0 .8086.656 1.5184 1.676 1.821l2.102.6225c.387.1163.434.3665.434.4712s-.039.3549-.434.4713c-1.02.2967-1.676 1.0123-1.676 1.821 0 .8028.885 1.4544 1.976 1.4544v-1.4544c0-.2095.166-.3898.435-.4713 1.019-.2967 1.675-1.0123 1.675-1.821s-.656-1.5185-1.675-1.821l-2.102-.6225c-.388-.1164-.435-.3665-.435-.4712 0-.1048.039-.3549.435-.4713l2.102-.6225c1.019-.2967 1.675-1.0123 1.675-1.821s-.656-1.5185-1.675-1.821l-2.102-.6225c-.388-.1164-.435-.3666-.435-.4713s.039-.3549.435-.4712l2.102-.6225c1.019-.2968 1.675-1.0124 1.675-1.821 0-.8087-.656-1.5185-1.675-1.821-.261-.0757-.435-.2619-.435-.4713v-3.4209h10.226c1.636 0 2.964-.9774 2.964-2.1817v-3.6188c.008-1.2043-1.32-2.18168-2.956-2.18168zm.988 5.81788c0 .4015-.442.7273-.988.7273h-22.0804c-.5453 0-.9879-.3258-.9879-.7273v-3.6362c0-.4014.4426-.7272.9879-.7272h22.0804c.546 0 .988.3258.988.7272z"/><path d="m91.8789 10.28h26.343v6.46433h-26.343z"/><path d="m114.788 36.14c-1.157 0-2.081-.42-2.772-1.26s-1.036-1.9413-1.036-3.304c0-1.4933.345-2.9027 1.036-4.228.691-1.344 1.605-2.4173 2.744-3.22 1.157-.8213 2.38-1.232 3.668-1.232.411 0 .681.084.812.252.149.1493.271.4293.364.84.392-.0747.803-.112 1.232-.112.915 0 1.372.3267 1.372.98 0 .392-.14 1.3253-.42 2.8-.429 2.1467-.644 3.64-.644 4.48 0 .28.065.504.196.672.149.168.336.252.56.252.355 0 .784-.224 1.288-.672.504-.4667 1.185-1.2133 2.044-2.24.224-.2613.476-.392.756-.392.243 0 .429.112.56.336.149.224.224.532.224.924 0 .7467-.177 1.3253-.532 1.736-.765.952-1.577 1.7547-2.436 2.408s-1.689.98-2.492.98c-.616 0-1.185-.2053-1.708-.616-.504-.4293-.887-1.008-1.148-1.736-.971 1.568-2.193 2.352-3.668 2.352zm1.008-2.828c.411 0 .803-.2427 1.176-.728s.644-1.1293.812-1.932l1.036-5.152c-.784.0187-1.512.3173-2.184.896-.653.56-1.176 1.3067-1.568 2.24s-.588 1.9227-.588 2.968c0 .5787.112 1.008.336 1.288.243.28.569.42.98.42zm13.908 3.444c-.97 0-1.717-.224-2.24-.672-.504-.448-.756-.952-.756-1.512 0-.4853.178-.9053.532-1.26.355-.3547.878-.532 1.568-.532.243 0 .523.028.84.084.336.0373.588.0653.756.084-.018-.4853-.13-.9427-.336-1.372-.186-.4293-.429-.84-.728-1.232-.298-.4107-.578-.7653-.84-1.064-.578 1.1013-1.157 2.016-1.736 2.744-.56.728-1.176 1.4187-1.848 2.072-.336.336-.69.504-1.064.504-.298 0-.541-.1027-.728-.308-.186-.224-.28-.4947-.28-.812 0-.3733.131-.7187.392-1.036l.364-.448c1.027-1.2693 1.802-2.3147 2.324-3.136.318-.5413.691-1.26 1.12-2.156.43-.9147.85-1.8573 1.26-2.828.355-.8213 1.092-1.232 2.212-1.232.523 0 .887.0467 1.092.14.206.0933.308.2427.308.448 0 .112-.037.2893-.112.532-.074.2427-.177.4853-.308.728-.336.672-.504 1.2413-.504 1.708 0 .28.094.588.28.924.206.336.514.756.924 1.26.598.784 1.046 1.456 1.344 2.016.318.5413.476 1.1387.476 1.792 0 .1867-.018.448-.056.784.915-.3547 1.988-1.2973 3.22-2.828.224-.2613.476-.392.756-.392.243 0 .43.112.56.336.15.224.224.532.224.924 0 .7093-.177 1.288-.532 1.736-.933 1.1573-1.829 1.9507-2.688 2.38-.84.4107-1.885.6347-3.136.672-.746.6347-1.633.952-2.66.952zm19.23-7c.242 0 .429.112.56.336.149.224.224.532.224.924 0 .7467-.178 1.3253-.532 1.736-.803.9893-1.68 1.8013-2.632 2.436s-2.044.952-3.276.952c-3.808 0-5.712-2.6787-5.712-8.036 0-.8213.028-1.652.084-2.492h-1.092c-.56 0-.943-.1027-1.148-.308-.187-.2053-.28-.532-.28-.98 0-1.0453.42-1.568 1.26-1.568h1.596c.317-2.0533.802-3.9293 1.456-5.628.653-1.6987 1.437-3.052 2.352-4.06.933-1.008 1.932-1.512 2.996-1.512.784 0 1.4.3453 1.848 1.036s.672 1.5587.672 2.604c0 2.8933-1.214 5.4133-3.64 7.56h3.136c.298 0 .513.0653.644.196.13.1307.196.3733.196.728 0 1.288-1.055 1.932-3.164 1.932h-3.416c-.038.9333-.056 1.6613-.056 2.184 0 1.9413.224 3.304.672 4.088.466.784 1.194 1.176 2.184 1.176.802 0 1.512-.2427 2.128-.728s1.344-1.2133 2.184-2.184c.224-.2613.476-.392.756-.392zm-4.9-15.512c-.28 0-.598.3547-.952 1.064-.336.6907-.663 1.6613-.98 2.912-.299 1.232-.551 2.604-.756 4.116 1.101-.952 1.922-2.016 2.464-3.192.56-1.1947.84-2.2773.84-3.248 0-1.1013-.206-1.652-.616-1.652zm15.892 15.512c.242 0 .429.112.56.336.149.224.224.532.224.924 0 .7467-.178 1.3253-.532 1.736-.691.84-1.671 1.6147-2.94 2.324-1.251.7093-2.595 1.064-4.032 1.064-1.96 0-3.482-.532-4.564-1.596-1.083-1.064-1.624-2.52-1.624-4.368 0-1.288.27-2.4827.812-3.584.541-1.12 1.288-2.0067 2.24-2.66.97-.6533 2.062-.98 3.276-.98 1.082 0 1.95.3267 2.604.98.653.6347.98 1.5027.98 2.604 0 1.288-.467 2.3987-1.4 3.332-.915.9147-2.474 1.6427-4.676 2.184.466.8587 1.353 1.288 2.66 1.288.84 0 1.792-.2893 2.856-.868 1.082-.5973 2.016-1.372 2.8-2.324.224-.2613.476-.392.756-.392zm-7.056-4.06c-.691 0-1.279.4013-1.764 1.204-.467.8027-.7 1.7733-.7 2.912v.056c1.101-.2613 1.969-.6533 2.604-1.176.634-.5227.952-1.1293.952-1.82 0-.3547-.103-.6347-.308-.84-.187-.224-.448-.336-.784-.336zm16.872 1.092c.411 0 .756.1493 1.036.448.299.28.448.6347.448 1.064 0 .2427-.056.504-.168.784-.299.6907-.719 1.2693-1.26 1.736s-1.139.7-1.792.7c-.523 0-.971-.1867-1.344-.56-.355-.3733-.532-.8773-.532-1.512 0-.3547.019-.7373.056-1.148.037-.2987.056-.504.056-.616 0-.1493-.037-.2613-.112-.336-.056-.0747-.131-.112-.224-.112-.261 0-.616.3173-1.064.952-.448.616-.896 1.4373-1.344 2.464s-.812 2.1093-1.092 3.248c-.205.896-.439 1.4933-.7 1.792s-.691.448-1.288.448c-.709 0-1.213-.3733-1.512-1.12-.28-.7467-.42-1.9413-.42-3.584 0-2.4267.345-4.732 1.036-6.916.168-.5413.439-.9333.812-1.176.392-.2613.933-.392 1.624-.392.373 0 .635.0467.784.14s.224.2707.224.532c0 .2987-.14.9707-.42 2.016-.187.7467-.336 1.4-.448 1.96s-.205 1.2507-.28 2.072c.616-1.6053 1.307-2.912 2.072-3.92s1.512-1.7267 2.24-2.156 1.391-.644 1.988-.644c.541 0 .952.1587 1.232.476.299.2987.448.7467.448 1.344 0 .3547-.103 1.0267-.308 2.016z"/></g><path d="m21.6133 129.166 1.5058 3.352 1.3067-3.352c.0195-.059.0293-.111.0293-.158 0-.074-.0313-.129-.0938-.164-.0586-.035-.125-.055-.1992-.059-.0703-.004-.1367-.023-.1992-.058-.0586-.039-.0879-.1-.0879-.182v-.041c.0586-.524.125-.83.1992-.92.3828.102.7949.152 1.2363.152.4688 0 .9004-.05 1.295-.152.1523.07.2285.256.2285.557 0 .238-.0469.406-.1406.504-.0938.093-.2579.14-.4922.14-.0547 0-.1035.006-.1465.018-.043.011-.0781.023-.1055.035-.0234.012-.0469.033-.0703.064-.0234.032-.0391.057-.0469.077-.0078.015-.0215.044-.041.087-.0156.043-.0273.073-.0351.088l-2.3438 5.403c-.2305.511-.5059.884-.8262 1.119-.3164.238-.705.357-1.166.357-.3672 0-.6836-.072-.9492-.217-.2656-.14-.3984-.3-.3984-.48 0-.231.0195-.387.0586-.469.039-.078.1093-.117.2109-.117.0391 0 .1738.027.4043.082.2344.059.4512.088.6504.088.0898 0 .1601-.004.2109-.012.0508-.004.1035-.023.1582-.058.0547-.036.0957-.069.1231-.1.0273-.031.0703-.098.1289-.199.0586-.102.1074-.197.1465-.287.039-.086.1054-.227.1992-.422.0976-.199.1894-.387.2754-.563-.1446 0-.252-.011-.3223-.035-.0703-.027-.123-.082-.1582-.164l-1.875-3.926c-.0039-.011-.0156-.041-.0352-.088-.0195-.046-.0332-.076-.041-.087-.0078-.016-.0254-.04-.0527-.071-.0234-.035-.0488-.058-.0762-.07-.0234-.012-.0566-.024-.0996-.035-.039-.012-.0859-.018-.1406-.018-.2344 0-.3984-.047-.4922-.14-.0937-.098-.1406-.266-.1406-.504 0-.301.0761-.487.2285-.557.3555.102.7871.152 1.2949.152.5156 0 .9668-.05 1.3535-.152.0742.09.1407.396.1992.92v.041c0 .082-.0371.143-.1113.182s-.1543.06-.2402.064-.166.023-.2402.059c-.0743.031-.1114.084-.1114.158 0 .062.0117.115.0352.158zm5.9531 3.135c-.1875-.43-.2812-.908-.2812-1.436 0-.527.0937-1.004.2812-1.429.1875-.426.4375-.77.75-1.032.3125-.265.6621-.468 1.0488-.609.3868-.141.791-.211 1.2129-.211.418 0 .8203.07 1.2071.211.3867.141.7343.344 1.0429.609.3125.262.5625.606.75 1.032.1875.425.2813.902.2813 1.429 0 .528-.0938 1.006-.2813 1.436-.1875.426-.4375.771-.75 1.037-.3086.266-.6562.469-1.0429.609-.3868.141-.7891.211-1.2071.211-.4219 0-.8261-.07-1.2129-.211-.3867-.14-.7363-.343-1.0488-.609s-.5625-.611-.75-1.037zm1.6582-3.117c-.3789.402-.5684.962-.5684 1.681s.1895 1.281.5684 1.688c.3789.402.8262.603 1.3418.603.2461 0 .4824-.049.709-.146.2266-.098.4297-.239.6094-.422.1836-.188.33-.43.4394-.727s.1641-.629.1641-.996-.0547-.699-.1641-.996-.2558-.537-.4394-.721c-.1797-.183-.3828-.324-.6094-.421-.2266-.098-.4629-.147-.709-.147-.5156 0-.9629.201-1.3418.604zm11.3965-1.079v4.295c0 .102.0019.174.0059.217.0039.043.0136.092.0292.147.0196.05.0489.086.0879.105.043.016.0997.031.17.047.0703.012.164.018.2812.018.1758 0 .2871.021.334.064.0508.043.0762.131.0762.264 0 .195-.0235.369-.0703.521-.043.149-.084.237-.1231.264-.2851-.031-.5488-.047-.791-.047-.1602 0-.3281.008-.5039.023-.1719.016-.2774.024-.3164.024-.1563 0-.252-.047-.2871-.141-.0313-.094-.0469-.344-.0469-.75-.2734.317-.6035.563-.9902.739-.3828.175-.7735.263-1.1719.263-.2891 0-.5606-.049-.8145-.146-.25-.094-.4765-.235-.6797-.422-.2031-.188-.3632-.44-.4804-.756s-.1758-.678-.1758-1.084v-2.35c0-.371-.0977-.564-.293-.58-.0312-.004-.0761-.008-.1347-.011-.0547-.004-.0996-.008-.1348-.012-.0313-.004-.0703-.008-.1172-.012-.0469-.008-.084-.014-.1113-.017-.0274-.008-.0606-.016-.0996-.024-.0352-.012-.0625-.023-.0821-.035-.0195-.012-.039-.025-.0586-.041-.0195-.016-.0332-.033-.041-.053-.0078-.023-.0117-.049-.0117-.076 0-.453.0645-.738.1934-.855.3672.043.7051.064 1.0136.064.2149 0 .4336-.01.6563-.029.2266-.024.3437-.035.3516-.035.1328 0 .1992.14.1992.421v3.715c0 .43.1113.752.334.967.2226.215.5078.322.8554.322.2969 0 .5918-.078.8848-.234.2969-.156.541-.369.7324-.639v-2.836c0-.371-.0976-.564-.293-.58-.0312-.004-.0761-.008-.1347-.011-.0547-.004-.0996-.008-.1348-.012-.0312-.004-.0703-.008-.1172-.012-.0468-.008-.084-.014-.1113-.017-.0273-.008-.0605-.016-.0996-.024-.0352-.012-.0625-.023-.082-.035-.0196-.012-.0391-.025-.0586-.041-.0196-.016-.0332-.033-.041-.053-.0079-.023-.0118-.049-.0118-.076 0-.457.0645-.742.1934-.855.3672.043.7051.064 1.0137.064.2578 0 .5195-.01.7851-.029.2696-.024.4082-.035.416-.035.0039 0 .0059.14.0059.421zm3.5332.153v.381c.1758-.282.4375-.528.7852-.739.3476-.211.6796-.316.996-.316.2071 0 .4043.035.5918.105.1875.067.3497.188.4864.364.1406.176.2109.39.2109.644 0 .696-.3691 1.043-1.1074 1.043-.0156 0-.0313-.002-.0469-.006s-.0293-.009-.041-.017c-.0078-.008-.0156-.016-.0234-.024-.0079-.007-.0157-.019-.0235-.035-.0039-.015-.0078-.029-.0117-.041s-.0078-.029-.0117-.053c-.0039-.027-.0078-.048-.0117-.064 0-.016-.002-.037-.0059-.064 0-.032-.0019-.057-.0059-.077l-.0703-.609c-.1054-.051-.2207-.076-.3457-.076-.2265 0-.455.084-.6855.252-.2266.164-.3945.355-.5039.574v2.965c0 .058.0019.105.0058.14.0079.032.0215.069.0411.112.0234.043.0625.076.1171.099.0547.02.125.03.211.03.1484 0 .2754.023.3808.07.1055.047.1582.117.1582.211 0 .187-.0312.373-.0937.557-.0625.183-.1543.304-.2754.363-.2734-.031-.6738-.047-1.2012-.047-.5273 0-.9316.016-1.2129.047-.1289-.059-.2226-.178-.2812-.358-.0586-.183-.0879-.371-.0879-.562 0-.094.0527-.164.1582-.211s.2324-.07.3809-.07c.1523 0 .2519-.032.2988-.094.0469-.066.0703-.158.0703-.275v-3.082c0-.207-.0605-.354-.1816-.44-.1172-.086-.3457-.137-.6856-.152-.0508-.012-.084-.037-.0996-.076-.0117-.039-.0176-.123-.0176-.252 0-.2.0215-.375.0645-.528.0429-.152.0859-.24.1289-.263.2773.043.5488.064.8144.064.1641 0 .336-.01.5157-.029.1836-.024.2812-.035.2929-.035.1368 0 .2246.035.2637.105.0391.066.0586.223.0586.469zm8.5781 2.32v1.764c.2071.262.4766.465.8086.609.336.145.6856.217 1.0488.217.4961 0 .9082-.195 1.2364-.586.332-.391.498-.963.498-1.717 0-.722-.1797-1.283-.539-1.681-.3555-.403-.7832-.604-1.2832-.604-.4688 0-.8809.178-1.2364.533-.3554.352-.5332.84-.5332 1.465zm0 2.889v1.441c0 .059.002.104.0059.135.0078.035.0215.074.041.117.0234.043.0625.074.1172.094.0547.023.125.035.2109.035.1485 0 .2754.023.3809.07s.1582.118.1582.211c0 .457-.0645.742-.1934.856-.2617-.059-.7031-.088-1.3242-.088-.668 0-1.1484.029-1.4414.088-.1289-.117-.1934-.403-.1934-.856 0-.093.0528-.164.1582-.211.1055-.047.2325-.07.3809-.07.1523 0 .252-.033.2988-.1.0469-.062.0703-.152.0703-.269v-5.525c0-.207-.0605-.354-.1816-.44-.1172-.086-.3457-.137-.6855-.152-.0508-.012-.084-.037-.0997-.076-.0117-.039-.0175-.123-.0175-.252 0-.2.0215-.375.0644-.528.043-.152.086-.24.1289-.263.3008.043.5918.064.8731.064.1758 0 .3613-.01.5566-.029.1953-.024.2988-.035.3106-.035.1367 0 .2246.035.2636.105.043.066.0645.223.0645.469v.422c.2031-.352.4902-.621.8613-.809.3711-.191.7559-.287 1.1543-.287.3867 0 .7559.07 1.1074.211.3555.141.6758.344.961.609.2851.262.5117.606.6797 1.032.1718.425.2578.902.2578 1.429 0 .528-.086 1.006-.2578 1.436-.1719.426-.4024.771-.6914 1.037-.2852.266-.6075.469-.9668.609-.3594.141-.7344.211-1.125.211-.7774 0-1.42-.23-1.9278-.691zm11.461-2.93c0 .18-.0469.318-.1407.416-.0898.094-.2617.141-.5156.141h-4.043c.0157.355.0782.662.1875.92.1094.257.2539.461.4336.609.1797.145.377.252.5918.322.2149.067.4492.1.7032.1.3554 0 .7187-.063 1.0898-.188s.707-.3 1.0078-.527c.2227.262.334.52.334.774 0 .167-.1113.334-.334.498-.2226.16-.5234.293-.9023.398s-.7735.158-1.1836.158c-.336 0-.6563-.033-.961-.099-.3007-.067-.5976-.182-.8906-.346-.2891-.168-.5391-.379-.75-.633s-.3808-.58-.5098-.978c-.1289-.399-.1933-.85-.1933-1.354 0-.492.0937-.943.2812-1.353.1875-.411.4356-.745.7442-1.002.3086-.262.6523-.463 1.0312-.604.3828-.141.7754-.211 1.1778-.211.2968 0 .582.037.8554.111.2735.075.5313.192.7735.352.2422.156.4531.35.6328.58.1797.227.3203.504.4219.832.1054.328.1582.69.1582 1.084zm-1.1836-.351c-.0352-.543-.2071-.956-.5157-1.237-.3046-.285-.6699-.428-1.0957-.428-.4531 0-.8652.153-1.2363.458-.3672.3-.5781.703-.6328 1.207zm3.7617-1.928v.381c.1758-.282.4375-.528.7851-.739.3477-.211.6797-.316.9961-.316.2071 0 .4043.035.5918.105.1875.067.3496.188.4864.364.1406.176.2109.39.2109.644 0 .696-.3691 1.043-1.1074 1.043-.0156 0-.0313-.002-.0469-.006s-.0293-.009-.041-.017c-.0078-.008-.0156-.016-.0235-.024-.0078-.007-.0156-.019-.0234-.035-.0039-.015-.0078-.029-.0117-.041s-.0078-.029-.0117-.053c-.0039-.027-.0078-.048-.0117-.064 0-.016-.002-.037-.0059-.064 0-.032-.002-.057-.0059-.077l-.0703-.609c-.1054-.051-.2207-.076-.3457-.076-.2265 0-.4551.084-.6855.252-.2266.164-.3946.355-.5039.574v2.965c0 .058.0019.105.0058.14.0078.032.0215.069.041.112.0235.043.0625.076.1172.099.0547.02.125.03.211.03.1484 0 .2754.023.3808.07.1055.047.1582.117.1582.211 0 .187-.0312.373-.0937.557-.0625.183-.1543.304-.2754.363-.2734-.031-.6738-.047-1.2012-.047-.5273 0-.9316.016-1.2129.047-.1289-.059-.2226-.178-.2812-.358-.0586-.183-.0879-.371-.0879-.562 0-.094.0527-.164.1582-.211s.2324-.07.3808-.07c.1524 0 .252-.032.2989-.094.0469-.066.0703-.158.0703-.275v-3.082c0-.207-.0606-.354-.1817-.44-.1171-.086-.3457-.137-.6855-.152-.0508-.012-.084-.037-.0996-.076-.0117-.039-.0176-.123-.0176-.252 0-.2.0215-.375.0645-.528.0429-.152.0859-.24.1289-.263.2773.043.5488.064.8144.064.1641 0 .336-.01.5156-.029.1836-.024.2813-.035.293-.035.1367 0 .2246.035.2637.105.0391.066.0586.223.0586.469zm8.8535 4.189c0 .395-.1211.723-.3633.985-.2383.257-.5547.443-.9492.556-.3945.114-.8613.17-1.4004.17-.8281 0-1.4766-.119-1.9453-.357-.4648-.239-.6973-.604-.6973-1.096 0-.559.3418-.838 1.0254-.838.1094 0 .1817.022.2168.065.0352.043.0528.125.0528.246v.797c.1445.078.3574.138.6386.181.2852.043.5723.065.8614.065.3437 0 .6269-.071.8496-.211.2265-.145.3398-.342.3398-.592 0-.176-.0566-.332-.1699-.469-.1133-.14-.2617-.254-.4453-.34s-.3946-.171-.6328-.257c-.2344-.09-.4747-.172-.7207-.247-.2422-.074-.4825-.167-.7207-.281-.2344-.113-.4434-.236-.627-.369s-.332-.307-.4453-.521c-.1133-.215-.1699-.457-.1699-.727 0-.348.1289-.648.3867-.902s.5722-.438.9433-.551c.375-.113.7754-.17 1.2012-.17 1.75 0 2.625.508 2.625 1.523 0 .063-.0117.129-.0351.2-.0196.07-.0606.152-.1231.246-.0586.093-.1601.172-.3047.234-.1406.059-.3144.088-.5215.088-.039 0-.0722-.004-.0996-.012-.0234-.008-.0429-.015-.0586-.023-.0117-.012-.0234-.029-.0351-.053-.0078-.027-.0137-.047-.0176-.058 0-.012-.0039-.038-.0117-.077-.0039-.043-.0059-.072-.0059-.088l-.082-.82c-.0547-.055-.2246-.115-.5098-.182-.2812-.066-.5234-.099-.7265-.099-.3985 0-.6953.074-.8907.223-.1914.148-.2871.335-.2871.562 0 .164.0703.309.211.434.1445.125.33.232.5566.322.2266.086.4766.172.75.258s.5469.189.8203.31c.2735.117.5235.252.75.405.2266.152.4102.355.5508.609.1445.25.2168.537.2168.861zm.668-.146c-.1875-.43-.2813-.908-.2813-1.436 0-.527.0938-1.004.2813-1.429.1875-.426.4375-.77.75-1.032.3125-.265.6621-.468 1.0488-.609s.791-.211 1.2129-.211c.418 0 .8203.07 1.207.211s.7344.344 1.043.609c.3125.262.5625.606.75 1.032.1875.425.2812.902.2812 1.429 0 .528-.0937 1.006-.2812 1.436-.1875.426-.4375.771-.75 1.037-.3086.266-.6563.469-1.043.609-.3867.141-.789.211-1.207.211-.4219 0-.8262-.07-1.2129-.211-.3867-.14-.7363-.343-1.0488-.609s-.5625-.611-.75-1.037zm1.6582-3.117c-.3789.402-.5684.962-.5684 1.681s.1895 1.281.5684 1.688c.3789.402.8261.603 1.3418.603.2461 0 .4824-.049.709-.146.2265-.098.4296-.239.6093-.422.1836-.188.3301-.43.4395-.727s.164-.629.164-.996-.0546-.699-.164-.996-.2559-.537-.4395-.721c-.1797-.183-.3828-.324-.6093-.421-.2266-.098-.4629-.147-.709-.147-.5157 0-.9629.201-1.3418.604zm12.4453 4.863c-.3789-.031-.7207-.047-1.0254-.047-.1992 0-.416.008-.6504.023-.2344.016-.3887.024-.4629.024-.1328 0-.1992-.149-.1992-.445v-3.51c0-.508-.082-.879-.2461-1.113-.1641-.239-.3789-.358-.6445-.358-.2735 0-.5742.078-.9024.234-.3242.153-.6289.348-.914.586v3.088c0 .059.0019.106.0058.141.0078.031.0215.068.041.111.0235.043.0625.076.1172.1.0547.019.125.029.211.029.1484 0 .2754.024.3808.07.1055.047.1582.118.1582.211 0 .457-.0644.743-.1933.856-.2383-.031-.6856-.047-1.3418-.047-.6563 0-1.1309.016-1.4239.047-.1289-.117-.1933-.402-.1933-.856 0-.093.0527-.164.1582-.211.1055-.046.2324-.07.3808-.07.1524 0 .252-.031.2989-.094.0468-.066.0703-.158.0703-.275v-3.146c0-.207-.0606-.354-.1817-.44-.1171-.086-.3457-.137-.6855-.152-.0508-.012-.084-.037-.0996-.076-.0117-.039-.0176-.123-.0176-.252 0-.2.0215-.375.0645-.528.0429-.152.0859-.24.1289-.263.2578.043.5097.064.7558.064.1758 0 .3614-.01.5567-.029.1953-.024.2988-.035.3105-.035.1367 0 .2246.035.2637.105.043.066.0644.223.0644.469 0 .027-.0019.078-.0058.152v.17c.3359-.297.7168-.537 1.1426-.721.4257-.183.8359-.275 1.2304-.275.5469 0 .9903.193 1.3301.58.3399.387.5098.994.5098 1.822v2.52c0 .254.0976.389.2929.404.0391.004.0899.008.1524.012.0664.004.1172.008.1523.012.0391.004.086.009.1407.017.0546.004.0976.01.1289.018.0312.004.0664.011.1054.023.043.008.0762.018.0996.029.0235.012.045.026.0645.041.0234.016.0391.036.0469.059.0117.02.0175.043.0175.07 0 .454-.0644.739-.1933.856zm4.8574-.844c-.2851.301-.6465.535-1.084.703-.4336.168-.875.252-1.3242.252-.5586 0-1.0195-.148-1.3828-.445s-.5449-.727-.5449-1.289c0-.602.291-1.055.873-1.36.4375-.234 1.1875-.437 2.25-.609.1992-.035.5235-.086.9727-.152 0-.664-.084-1.121-.252-1.371-.1679-.25-.4902-.375-.9668-.375-.3476 0-.7344.078-1.1601.234-.4258.156-.7657.373-1.0196.65-.3164-.265-.4746-.525-.4746-.779 0-.219.1504-.412.4512-.58.3008-.172.6543-.297 1.0605-.375.4102-.082.8204-.123 1.2305-.123.3867 0 .7246.049 1.0137.146.293.094.5508.25.7734.469.2227.219.3906.52.5039.903.1172.382.1758.847.1758 1.394v1.875c0 .16.0117.281.0352.363.0273.078.0566.127.0879.147.0312.015.082.027.1523.035.1211.012.2109.023.2695.035.0586.008.127.022.2051.041.0781.02.1328.045.1641.076.0351.032.0527.071.0527.118 0 .46-.0644.748-.1934.861-.1875-.031-.4316-.047-.7324-.047-.2734 0-.5273.014-.7617.041-.0273-.02-.0625-.047-.1055-.082-.039-.035-.0937-.125-.164-.27-.0703-.144-.1055-.306-.1055-.486zm-2.1387-.088c.3555 0 .7403-.097 1.1543-.293.4141-.199.6641-.379.75-.539v-1.037c-1.0664.192-1.7871.363-2.1621.516-.3711.152-.5566.367-.5566.644 0 .473.2715.709.8144.709zm6.8908-.586c0 .059.002.106.006.141.008.031.021.068.041.111.023.043.062.076.117.1.055.019.125.029.211.029.148 0 .275.024.381.07.105.047.158.118.158.211 0 .457-.065.743-.193.856-.336-.031-.7856-.047-1.3481-.047-.6016 0-1.0742.016-1.418.047-.1289-.117-.1933-.402-.1933-.856 0-.093.0527-.164.1582-.211.1054-.046.2324-.07.3808-.07.1524 0 .252-.031.2989-.094.0468-.066.0703-.158.0703-.275v-5.625c0-.207-.0606-.354-.1817-.439-.1171-.086-.3457-.137-.6855-.153-.0508-.012-.084-.037-.0996-.076-.0117-.039-.0176-.123-.0176-.252 0-.199.0215-.375.0645-.527.0429-.153.0859-.24.1289-.264.3242.043.6347.065.9316.065.1758 0 .3613-.01.5566-.03.1954-.023.2989-.035.3106-.035.1367 0 .2246.035.2637.106.0429.066.0647.222.0647.468v.035c-.004.551-.006 2.79-.006 6.715zm9.867-3.381c0 .231-.082.426-.246.586-.16.161-.414.241-.762.241-.082 0-.133-.018-.152-.053-.016-.039-.031-.139-.047-.299l-.088-.838c-.027-.019-.066-.041-.117-.064-.047-.028-.156-.063-.328-.106-.168-.047-.346-.07-.533-.07-.594 0-1.075.23-1.442.691-.363.457-.545 1.002-.545 1.635 0 .684.178 1.217.533 1.6.356.383.87.574 1.542.574.312 0 .652-.066 1.019-.199.371-.133.674-.303.908-.51.223.262.334.512.334.75 0 .195-.115.377-.345.545-.231.168-.528.297-.891.387-.359.093-.734.14-1.125.14-.453 0-.881-.07-1.283-.211-.399-.144-.752-.351-1.061-.621-.308-.273-.553-.625-.732-1.055-.18-.433-.27-.921-.27-1.464 0-.504.094-.963.281-1.377.192-.418.444-.758.756-1.02.313-.265.662-.469 1.049-.609.391-.145.791-.217 1.201-.217.418 0 .782.043 1.09.129.313.082.557.197.733.346.179.148.31.314.392.498.086.179.129.377.129.591zm.768 3.153c-.188-.43-.282-.908-.282-1.436 0-.527.094-1.004.282-1.429.187-.426.437-.77.75-1.032.312-.265.662-.468 1.048-.609.387-.141.791-.211 1.213-.211.418 0 .821.07 1.207.211.387.141.735.344 1.043.609.313.262.563.606.75 1.032.188.425.282.902.282 1.429 0 .528-.094 1.006-.282 1.436-.187.426-.437.771-.75 1.037-.308.266-.656.469-1.043.609-.386.141-.789.211-1.207.211-.422 0-.826-.07-1.213-.211-.386-.14-.736-.343-1.048-.609-.313-.266-.563-.611-.75-1.037zm1.658-3.117c-.379.402-.569.962-.569 1.681s.19 1.281.569 1.688c.379.402.826.603 1.342.603.246 0 .482-.049.709-.146.226-.098.429-.239.609-.422.184-.188.33-.43.439-.727.11-.297.164-.629.164-.996s-.054-.699-.164-.996c-.109-.297-.255-.537-.439-.721-.18-.183-.383-.324-.609-.421-.227-.098-.463-.147-.709-.147-.516 0-.963.201-1.342.604zm12.445 4.863c-.379-.031-.721-.047-1.025-.047-.199 0-.416.008-.651.023-.234.016-.388.024-.463.024-.132 0-.199-.149-.199-.445v-3.51c0-.508-.082-.879-.246-1.113-.164-.239-.379-.358-.644-.358-.274 0-.575.078-.903.234-.324.153-.629.348-.914.586v3.088c0 .059.002.106.006.141.008.031.022.068.041.111.024.043.063.076.117.1.055.019.125.029.211.029.149 0 .276.024.381.07.106.047.158.118.158.211 0 .457-.064.743-.193.856-.238-.031-.686-.047-1.342-.047s-1.131.016-1.424.047c-.129-.117-.193-.402-.193-.856 0-.093.053-.164.158-.211.106-.046.233-.07.381-.07.152 0 .252-.031.299-.094.047-.066.07-.158.07-.275v-3.146c0-.207-.06-.354-.181-.44-.118-.086-.346-.137-.686-.152-.051-.012-.084-.037-.1-.076-.011-.039-.017-.123-.017-.252 0-.2.021-.375.064-.528.043-.152.086-.24.129-.263.258.043.51.064.756.064.176 0 .361-.01.557-.029.195-.024.298-.035.31-.035.137 0 .225.035.264.105.043.066.064.223.064.469 0 .027-.002.078-.006.152v.17c.336-.297.717-.537 1.143-.721.426-.183.836-.275 1.23-.275.547 0 .991.193 1.331.58.339.387.509.994.509 1.822v2.52c0 .254.098.389.293.404.039.004.09.008.153.012.066.004.117.008.152.012.039.004.086.009.141.017.054.004.097.01.129.018.031.004.066.011.105.023.043.008.076.018.1.029.023.012.045.026.064.041.023.016.039.036.047.059.012.02.018.043.018.07 0 .454-.065.739-.194.856zm7.922 0c-.379-.031-.721-.047-1.025-.047-.2 0-.416.008-.651.023-.234.016-.388.024-.463.024-.132 0-.199-.149-.199-.445v-3.51c0-.508-.082-.879-.246-1.113-.164-.239-.379-.358-.644-.358-.274 0-.575.078-.903.234-.324.153-.629.348-.914.586v3.088c0 .059.002.106.006.141.008.031.021.068.041.111.023.043.062.076.117.1.055.019.125.029.211.029.149 0 .275.024.381.07.105.047.158.118.158.211 0 .457-.064.743-.193.856-.238-.031-.686-.047-1.342-.047s-1.131.016-1.424.047c-.129-.117-.193-.402-.193-.856 0-.093.053-.164.158-.211.105-.046.232-.07.381-.07.152 0 .252-.031.299-.094.047-.066.07-.158.07-.275v-3.146c0-.207-.061-.354-.182-.44-.117-.086-.345-.137-.685-.152-.051-.012-.084-.037-.1-.076-.012-.039-.017-.123-.017-.252 0-.2.021-.375.064-.528.043-.152.086-.24.129-.263.258.043.51.064.756.064.176 0 .361-.01.556-.029.196-.024.299-.035.311-.035.137 0 .225.035.264.105.043.066.064.223.064.469 0 .027-.002.078-.006.152v.17c.336-.297.717-.537 1.143-.721.426-.183.836-.275 1.23-.275.547 0 .991.193 1.33.58.34.387.51.994.51 1.822v2.52c0 .254.098.389.293.404.039.004.09.008.153.012.066.004.117.008.152.012.039.004.086.009.14.017.055.004.098.01.129.018.032.004.067.011.106.023.043.008.076.018.099.029.024.012.045.026.065.041.023.016.039.036.047.059.012.02.017.043.017.07 0 .454-.064.739-.193.856zm.814-1.746c-.187-.43-.281-.908-.281-1.436 0-.527.094-1.004.281-1.429.188-.426.438-.77.75-1.032.313-.265.663-.468 1.049-.609.387-.141.791-.211 1.213-.211.418 0 .82.07 1.207.211s.735.344 1.043.609c.313.262.563.606.75 1.032.188.425.281.902.281 1.429 0 .528-.093 1.006-.281 1.436-.187.426-.437.771-.75 1.037-.308.266-.656.469-1.043.609-.387.141-.789.211-1.207.211-.422 0-.826-.07-1.213-.211-.386-.14-.736-.343-1.049-.609-.312-.266-.562-.611-.75-1.037zm1.659-3.117c-.379.402-.569.962-.569 1.681s.19 1.281.569 1.688c.379.402.826.603 1.341.603.247 0 .483-.049.709-.146.227-.098.43-.239.61-.422.183-.188.33-.43.439-.727.11-.297.164-.629.164-.996s-.054-.699-.164-.996c-.109-.297-.256-.537-.439-.721-.18-.183-.383-.324-.61-.421-.226-.098-.462-.147-.709-.147-.515 0-.962.201-1.341.604zm6.427-2.479c-.093 0-.189-.008-.287-.023-.097-.02-.205-.053-.322-.1-.113-.047-.207-.121-.281-.223-.071-.101-.106-.222-.106-.363 0-.48.325-.721.973-.721.184 0 .338.024.463.071.129.047.223.109.281.187.063.078.106.155.129.229s.035.154.035.24c0 .176-.055.32-.164.434-.109.113-.226.187-.351.222-.122.031-.245.047-.37.047zm.967 1.553v4.271c0 .059.002.106.006.141.008.031.022.068.041.111.024.043.063.076.117.1.055.019.125.029.211.029.149 0 .276.024.381.07.106.047.158.118.158.211 0 .457-.064.743-.193.856-.352-.031-.781-.047-1.289-.047-.527 0-1.02.016-1.477.047-.129-.117-.193-.402-.193-.856 0-.093.053-.164.158-.211.106-.046.233-.07.381-.07.152 0 .252-.031.299-.094.047-.066.07-.158.07-.275v-3.146c0-.207-.06-.354-.182-.44-.117-.086-.345-.137-.685-.152-.051-.012-.084-.037-.1-.076-.011-.039-.017-.123-.017-.252 0-.2.021-.375.064-.528.043-.152.086-.24.129-.263.301.043.592.064.873.064.188 0 .385-.01.592-.029.207-.024.316-.035.328-.035.137 0 .225.035.264.105.043.066.064.223.064.469zm6.651 4.189c0 .395-.122.723-.364.985-.238.257-.554.443-.949.556-.394.114-.861.17-1.4.17-.828 0-1.477-.119-1.946-.357-.464-.239-.697-.604-.697-1.096 0-.559.342-.838 1.026-.838.109 0 .181.022.216.065s.053.125.053.246v.797c.145.078.357.138.639.181.285.043.572.065.861.065.344 0 .627-.071.85-.211.226-.145.339-.342.339-.592 0-.176-.056-.332-.169-.469-.114-.14-.262-.254-.446-.34-.183-.086-.394-.171-.633-.257-.234-.09-.474-.172-.72-.247-.242-.074-.483-.167-.721-.281-.234-.113-.443-.236-.627-.369s-.332-.307-.445-.521c-.113-.215-.17-.457-.17-.727 0-.348.129-.648.387-.902.257-.254.572-.438.943-.551.375-.113.775-.17 1.201-.17 1.75 0 2.625.508 2.625 1.523 0 .063-.012.129-.035.2-.02.07-.061.152-.123.246-.059.093-.16.172-.305.234-.14.059-.314.088-.521.088-.039 0-.073-.004-.1-.012-.023-.008-.043-.015-.058-.023-.012-.012-.024-.029-.036-.053-.007-.027-.013-.047-.017-.058 0-.012-.004-.038-.012-.077-.004-.043-.006-.072-.006-.088l-.082-.82c-.054-.055-.224-.115-.51-.182-.281-.066-.523-.099-.726-.099-.399 0-.695.074-.891.223-.191.148-.287.335-.287.562 0 .164.07.309.211.434.145.125.33.232.557.322.226.086.476.172.75.258.273.086.547.189.82.31.273.117.523.252.75.405.227.152.41.355.551.609.144.25.217.537.217.861zm5.73 0c0 .395-.121.723-.363.985-.239.257-.555.443-.949.556-.395.114-.862.17-1.401.17-.828 0-1.476-.119-1.945-.357-.465-.239-.697-.604-.697-1.096 0-.559.341-.838 1.025-.838.109 0 .182.022.217.065s.053.125.053.246v.797c.144.078.357.138.638.181.285.043.572.065.862.065.343 0 .626-.071.849-.211.227-.145.34-.342.34-.592 0-.176-.057-.332-.17-.469-.113-.14-.262-.254-.445-.34-.184-.086-.395-.171-.633-.257-.234-.09-.475-.172-.721-.247-.242-.074-.482-.167-.72-.281-.235-.113-.444-.236-.627-.369-.184-.133-.332-.307-.446-.521-.113-.215-.17-.457-.17-.727 0-.348.129-.648.387-.902s.572-.438.943-.551c.375-.113.776-.17 1.202-.17 1.75 0 2.625.508 2.625 1.523 0 .063-.012.129-.036.2-.019.07-.06.152-.123.246-.058.093-.16.172-.304.234-.141.059-.315.088-.522.088-.039 0-.072-.004-.099-.012-.024-.008-.043-.015-.059-.023-.012-.012-.023-.029-.035-.053-.008-.027-.014-.047-.018-.058 0-.012-.004-.038-.011-.077-.004-.043-.006-.072-.006-.088l-.082-.82c-.055-.055-.225-.115-.51-.182-.281-.066-.524-.099-.727-.099-.398 0-.695.074-.89.223-.192.148-.287.335-.287.562 0 .164.07.309.211.434.144.125.33.232.556.322.227.086.477.172.75.258.274.086.547.189.82.31.274.117.524.252.75.405.227.152.411.355.551.609.145.25.217.537.217.861zm6.463-1.91c0 .18-.047.318-.141.416-.09.094-.261.141-.515.141h-4.043c.015.355.078.662.187.92.11.257.254.461.434.609.18.145.377.252.592.322.214.067.449.1.703.1.355 0 .718-.063 1.09-.188.371-.125.707-.3 1.007-.527.223.262.334.52.334.774 0 .167-.111.334-.334.498-.222.16-.523.293-.902.398s-.773.158-1.184.158c-.335 0-.656-.033-.96-.099-.301-.067-.598-.182-.891-.346-.289-.168-.539-.379-.75-.633s-.381-.58-.51-.978c-.129-.399-.193-.85-.193-1.354 0-.492.094-.943.281-1.353.188-.411.436-.745.744-1.002.309-.262.653-.463 1.031-.604.383-.141.776-.211 1.178-.211.297 0 .582.037.856.111.273.075.531.192.773.352.242.156.453.35.633.58.18.227.32.504.422.832.105.328.158.69.158 1.084zm-1.184-.351c-.035-.543-.207-.956-.515-1.237-.305-.285-.67-.428-1.096-.428-.453 0-.865.153-1.236.458-.367.3-.578.703-.633 1.207zm7.94-2.081v4.295c0 .102.002.174.006.217s.013.092.029.147c.02.05.049.086.088.105.043.016.099.031.17.047.07.012.164.018.281.018.176 0 .287.021.334.064.051.043.076.131.076.264 0 .195-.023.369-.07.521-.043.149-.084.237-.123.264-.285-.031-.549-.047-.791-.047-.16 0-.328.008-.504.023-.172.016-.277.024-.317.024-.156 0-.251-.047-.287-.141-.031-.094-.046-.344-.046-.75-.274.317-.604.563-.991.739-.383.175-.773.263-1.172.263-.289 0-.56-.049-.814-.146-.25-.094-.477-.235-.68-.422-.203-.188-.363-.44-.48-.756s-.176-.678-.176-1.084v-2.35c0-.371-.098-.564-.293-.58-.031-.004-.076-.008-.135-.011-.054-.004-.099-.008-.134-.012-.032-.004-.071-.008-.118-.012-.047-.008-.084-.014-.111-.017-.027-.008-.061-.016-.1-.024-.035-.012-.062-.023-.082-.035-.019-.012-.039-.025-.058-.041-.02-.016-.033-.033-.041-.053-.008-.023-.012-.049-.012-.076 0-.453.064-.738.193-.855.368.043.705.064 1.014.064.215 0 .434-.01.656-.029.227-.024.344-.035.352-.035.133 0 .199.14.199.421v3.715c0 .43.111.752.334.967s.508.322.856.322c.296 0 .591-.078.884-.234.297-.156.541-.369.733-.639v-2.836c0-.371-.098-.564-.293-.58-.031-.004-.076-.008-.135-.011-.055-.004-.1-.008-.135-.012-.031-.004-.07-.008-.117-.012-.047-.008-.084-.014-.111-.017-.028-.008-.061-.016-.1-.024-.035-.012-.062-.023-.082-.035-.019-.012-.039-.025-.059-.041-.019-.016-.033-.033-.041-.053-.007-.023-.011-.049-.011-.076 0-.457.064-.742.193-.855.367.043.705.064 1.014.064.258 0 .519-.01.785-.029.269-.024.408-.035.416-.035.004 0 .006.14.006.421zm3.533.153v.381c.176-.282.438-.528.785-.739.348-.211.68-.316.996-.316.207 0 .405.035.592.105.188.067.35.188.486.364.141.176.211.39.211.644 0 .696-.369 1.043-1.107 1.043-.016 0-.031-.002-.047-.006s-.029-.009-.041-.017c-.008-.008-.016-.016-.023-.024-.008-.007-.016-.019-.024-.035-.004-.015-.008-.029-.012-.041-.003-.012-.007-.029-.011-.053-.004-.027-.008-.048-.012-.064 0-.016-.002-.037-.006-.064 0-.032-.002-.057-.006-.077l-.07-.609c-.106-.051-.221-.076-.346-.076-.226 0-.455.084-.685.252-.227.164-.395.355-.504.574v2.965c0 .058.002.105.006.14.007.032.021.069.041.112.023.043.062.076.117.099.055.02.125.03.211.03.148 0 .275.023.381.07.105.047.158.117.158.211 0 .187-.031.373-.094.557-.062.183-.154.304-.275.363-.274-.031-.674-.047-1.201-.047-.528 0-.932.016-1.213.047-.129-.059-.223-.178-.282-.358-.058-.183-.087-.371-.087-.562 0-.094.052-.164.158-.211.105-.047.232-.07.381-.07.152 0 .252-.032.298-.094.047-.066.071-.158.071-.275v-3.082c0-.207-.061-.354-.182-.44-.117-.086-.346-.137-.685-.152-.051-.012-.084-.037-.1-.076-.012-.039-.018-.123-.018-.252 0-.2.022-.375.065-.528.043-.152.086-.24.129-.263.277.043.549.064.814.064.164 0 .336-.01.516-.029.183-.024.281-.035.293-.035.136 0 .224.035.263.105.039.066.059.223.059.469zm13.828 5.789c-.379-.031-.721-.047-1.025-.047-.199 0-.416.008-.651.023-.234.016-.388.024-.463.024-.132 0-.199-.149-.199-.445v-3.51c0-.508-.082-.879-.246-1.113-.164-.239-.379-.358-.644-.358-.274 0-.575.078-.903.234-.324.153-.629.348-.914.586v3.088c0 .059.002.106.006.141.008.031.022.068.041.111.024.043.063.076.117.1.055.019.125.029.211.029.149 0 .276.024.381.07.106.047.158.118.158.211 0 .457-.064.743-.193.856-.238-.031-.686-.047-1.342-.047s-1.131.016-1.424.047c-.129-.117-.193-.402-.193-.856 0-.093.053-.164.158-.211.106-.046.233-.07.381-.07.152 0 .252-.031.299-.094.047-.066.07-.158.07-.275v-3.146c0-.207-.06-.354-.181-.44-.118-.086-.346-.137-.686-.152-.051-.012-.084-.037-.1-.076-.011-.039-.017-.123-.017-.252 0-.2.021-.375.064-.528.043-.152.086-.24.129-.263.258.043.51.064.756.064.176 0 .361-.01.557-.029.195-.024.298-.035.31-.035.137 0 .225.035.264.105.043.066.064.223.064.469 0 .027-.002.078-.006.152v.17c.336-.297.717-.537 1.143-.721.426-.183.836-.275 1.23-.275.547 0 .991.193 1.331.58.339.387.509.994.509 1.822v2.52c0 .254.098.389.293.404.039.004.09.008.153.012.066.004.117.008.152.012.039.004.086.009.141.017.054.004.097.01.129.018.031.004.066.011.105.023.043.008.076.018.1.029.023.012.045.026.064.041.023.016.039.036.047.059.012.02.018.043.018.07 0 .454-.065.739-.194.856zm6.61-3.51c0 .18-.047.318-.141.416-.09.094-.262.141-.516.141h-4.043c.016.355.078.662.188.92.109.257.254.461.433.609.18.145.377.252.592.322.215.067.449.1.703.1.356 0 .719-.063 1.09-.188s.707-.3 1.008-.527c.223.262.334.52.334.774 0 .167-.111.334-.334.498-.223.16-.523.293-.902.398s-.774.158-1.184.158c-.336 0-.656-.033-.961-.099-.301-.067-.598-.182-.891-.346-.289-.168-.539-.379-.75-.633-.21-.254-.38-.58-.509-.978-.129-.399-.194-.85-.194-1.354 0-.492.094-.943.282-1.353.187-.411.435-.745.744-1.002.308-.262.652-.463 1.031-.604.383-.141.775-.211 1.178-.211.297 0 .582.037.855.111.274.075.531.192.774.352.242.156.453.35.632.58.18.227.321.504.422.832.106.328.159.69.159 1.084zm-1.184-.351c-.035-.543-.207-.956-.516-1.237-.304-.285-.67-.428-1.095-.428-.454 0-.866.153-1.237.458-.367.3-.578.703-.633 1.207zm5.736 2.642c.117.223.176.432.176.627 0 .109-.049.205-.146.287-.094.078-.217.139-.37.182-.152.043-.304.074-.457.094-.152.019-.3.029-.445.029-.219 0-.422-.031-.609-.094-.188-.062-.367-.164-.539-.305-.168-.144-.301-.351-.399-.621-.097-.273-.146-.597-.146-.972v-3.399h-.252c-.461 0-.713.002-.756.006-.129-.047-.193-.197-.193-.451 0-.309.097-.463.292-.463h.909c.015-.125.029-.287.041-.486.015-.203.029-.364.041-.481.011-.117.029-.256.052-.416.028-.16.063-.285.106-.375.047-.094.105-.185.176-.275.07-.09.16-.154.269-.194.114-.042.246-.064.399-.064.105 0 .187.018.246.053v2.238h.779c.465 0 .709-.01.732-.029.196 0 .293.168.293.504 0 .254-.064.404-.193.451-.129-.012-.381-.018-.756-.018h-.855v3.364c0 .648.211.972.633.972.273 0 .597-.054.972-.164zm6.492-.246-.82-2.08-.621 2.08c-.027.07-.066.178-.117.322-.047.145-.082.248-.106.311-.023.062-.058.146-.105.252-.043.105-.084.183-.123.234-.035.047-.08.098-.135.153-.055.054-.115.093-.182.117-.062.019-.132.029-.21.029-.09 0-.17-.008-.241-.023-.07-.016-.133-.034-.187-.053-.051-.024-.102-.061-.153-.112-.046-.054-.086-.103-.117-.146s-.068-.109-.111-.199c-.039-.094-.072-.174-.1-.24-.023-.067-.06-.166-.111-.299-.051-.137-.094-.252-.129-.346l-1.371-3.475c-.027-.07-.051-.121-.07-.152-.02-.035-.061-.068-.123-.1-.059-.035-.137-.052-.235-.052-.105 0-.199-.024-.281-.071-.082-.046-.127-.117-.135-.211-.027-.105-.041-.226-.041-.363 0-.258.069-.418.205-.48.282.047.662.07 1.143.07.527 0 .959-.023 1.295-.07.086.09.152.371.199.843v.041c0 .161-.123.241-.369.241-.223 0-.334.068-.334.205 0 .054.012.107.035.158l1.213 3.34 1.014-3.34c.019-.059.029-.111.029-.158 0-.137-.129-.205-.387-.205-.207 0-.31-.08-.31-.241v-.041c0-.007 0-.019 0-.035.004-.015.005-.027.005-.035.028-.445.053-.703.077-.773.445.047.896.07 1.353.07.414 0 .797-.023 1.149-.07.132.062.199.222.199.48 0 .113-.014.235-.041.363-.012.094-.059.165-.141.211-.078.047-.17.071-.275.071-.09 0-.164.015-.223.047-.058.027-.099.056-.123.088-.019.031-.043.078-.07.14.176.442.422 1.084.738 1.928.32.84.512 1.34.574 1.5l1.014-3.34c.019-.059.029-.111.029-.158 0-.137-.09-.205-.269-.205-.207 0-.311-.08-.311-.241v-.041c.059-.48.125-.761.199-.843.352.047.725.07 1.12.07.472 0 .925-.023 1.359-.07.109.058.164.213.164.463 0 .117-.014.244-.041.38-.02.094-.088.165-.205.211-.113.047-.242.071-.387.071-.039 0-.076.004-.111.011-.035.004-.065.01-.088.018s-.047.022-.07.041c-.02.016-.036.029-.047.041-.012.008-.026.025-.041.053-.016.027-.028.047-.035.058-.004.012-.014.036-.03.071-.011.031-.019.05-.023.058l-1.231 3.428c-.027.07-.066.178-.117.322-.047.145-.082.248-.105.311-.024.062-.059.146-.106.252-.043.105-.084.183-.123.234-.035.047-.08.098-.135.153-.054.054-.115.093-.181.117-.063.019-.133.029-.211.029-.117 0-.221-.014-.311-.041-.086-.031-.156-.064-.211-.1-.054-.039-.111-.107-.17-.205-.054-.101-.097-.189-.128-.263-.032-.075-.082-.198-.153-.37-.066-.171-.125-.318-.176-.439zm5.18-.281c-.187-.43-.281-.908-.281-1.436 0-.527.094-1.004.281-1.429.188-.426.438-.77.75-1.032.313-.265.662-.468 1.049-.609s.791-.211 1.213-.211c.418 0 .82.07 1.207.211s.734.344 1.043.609c.312.262.562.606.75 1.032.187.425.281.902.281 1.429 0 .528-.094 1.006-.281 1.436-.188.426-.438.771-.75 1.037-.309.266-.656.469-1.043.609-.387.141-.789.211-1.207.211-.422 0-.826-.07-1.213-.211-.387-.14-.736-.343-1.049-.609-.312-.266-.562-.611-.75-1.037zm1.658-3.117c-.379.402-.568.962-.568 1.681s.189 1.281.568 1.688c.379.402.826.603 1.342.603.246 0 .483-.049.709-.146.227-.098.43-.239.609-.422.184-.188.331-.43.44-.727s.164-.629.164-.996-.055-.699-.164-.996-.256-.537-.44-.721c-.179-.183-.382-.324-.609-.421-.226-.098-.463-.147-.709-.147-.516 0-.963.201-1.342.604zm7.219-.926v.381c.176-.282.438-.528.785-.739.348-.211.68-.316.996-.316.207 0 .405.035.592.105.188.067.35.188.486.364.141.176.211.39.211.644 0 .696-.369 1.043-1.107 1.043-.016 0-.031-.002-.047-.006s-.029-.009-.041-.017c-.008-.008-.016-.016-.023-.024-.008-.007-.016-.019-.024-.035-.004-.015-.008-.029-.012-.041-.003-.012-.007-.029-.011-.053-.004-.027-.008-.048-.012-.064 0-.016-.002-.037-.006-.064 0-.032-.002-.057-.006-.077l-.07-.609c-.105-.051-.221-.076-.346-.076-.226 0-.455.084-.685.252-.227.164-.395.355-.504.574v2.965c0 .058.002.105.006.14.008.032.021.069.041.112.023.043.062.076.117.099.055.02.125.03.211.03.148 0 .275.023.381.07.105.047.158.117.158.211 0 .187-.031.373-.094.557-.062.183-.154.304-.275.363-.274-.031-.674-.047-1.201-.047-.528 0-.932.016-1.213.047-.129-.059-.223-.178-.282-.358-.058-.183-.087-.371-.087-.562 0-.094.052-.164.158-.211.105-.047.232-.07.381-.07.152 0 .252-.032.298-.094.047-.066.071-.158.071-.275v-3.082c0-.207-.061-.354-.182-.44-.117-.086-.346-.137-.685-.152-.051-.012-.084-.037-.1-.076-.012-.039-.018-.123-.018-.252 0-.2.022-.375.065-.528.043-.152.086-.24.129-.263.277.043.549.064.814.064.164 0 .336-.01.516-.029.183-.024.281-.035.293-.035.137 0 .224.035.263.105.04.066.059.223.059.469zm5.801-2.156v3.978l1.851-1.101c.2-.145.303-.225.311-.241.004-.004.006-.011.006-.023 0-.02-.024-.031-.07-.035-.043-.008-.094-.014-.153-.018-.055-.004-.105-.033-.152-.088-.043-.058-.065-.144-.065-.258 0-.316.053-.531.159-.644.261.051.716.076 1.365.076.472 0 .867-.025 1.183-.076.125.055.188.289.188.703 0 .145-.014.246-.041.305-.027.058-.08.099-.158.123-.078.023-.168.043-.27.058-.098.012-.24.055-.428.129-.183.074-.375.18-.574.317l-1.418.925c.996 1.243 1.563 1.959 1.699 2.151.04.055.088.127.147.217.062.086.102.138.117.158.02.019.055.047.106.082.05.035.103.056.158.064.054.004.133.006.234.006.488 0 .733.094.733.281 0 .454-.065.739-.194.856-.363-.031-.783-.047-1.26-.047-.382 0-.832.016-1.347.047-.016-.078-.039-.182-.071-.311-.027-.132-.048-.24-.064-.322-.012-.086-.018-.158-.018-.217 0-.144.168-.232.504-.263-.058-.094-.156-.233-.293-.416-.136-.184-.353-.469-.65-.856-.297-.391-.531-.699-.703-.926l-.832.516v1.277c0 .059.002.106.006.141.008.031.021.068.041.111.023.043.062.076.117.1.055.019.125.029.211.029.148 0 .275.024.381.07.105.047.158.118.158.211 0 .457-.065.743-.193.856-.368-.031-.825-.047-1.372-.047-.585 0-1.05.016-1.394.047-.129-.117-.193-.402-.193-.856 0-.093.052-.164.158-.211.105-.046.232-.07.381-.07.152 0 .252-.031.298-.094.047-.066.071-.158.071-.275v-5.625c0-.207-.061-.354-.182-.439-.117-.086-.346-.137-.685-.153-.051-.012-.084-.037-.1-.076-.012-.039-.018-.123-.018-.252 0-.199.022-.375.065-.527.043-.153.086-.24.129-.264.324.043.635.065.931.065.176 0 .362-.01.557-.03.195-.023.299-.035.311-.035.136 0 .224.035.263.106.043.066.065.222.065.468 0 .028-.002.078-.006.153z" fill="#7c4660"/><path d="m30.952 108.044v1.956h-9.756v-17.196h2.316v15.24zm6.3249-10.392c.888 0 1.688.148 2.4.444s1.32.716 1.824 1.26.888 1.204 1.152 1.98c.272.768.408 1.628.408 2.58 0 .96-.136 1.824-.408 2.592-.264.768-.648 1.424-1.152 1.968s-1.112.964-1.824 1.26c-.712.288-1.512.432-2.4.432-.896 0-1.704-.144-2.424-.432-.712-.296-1.32-.716-1.824-1.26s-.892-1.2-1.164-1.968c-.264-.768-.396-1.632-.396-2.592 0-.952.132-1.812.396-2.58.272-.776.66-1.436 1.164-1.98s1.112-.964 1.824-1.26c.72-.296 1.528-.444 2.424-.444zm0 10.848c1.2 0 2.096-.4 2.688-1.2.592-.808.888-1.932.888-3.372 0-1.448-.296-2.576-.888-3.384s-1.488-1.212-2.688-1.212c-.608 0-1.14.104-1.596.312-.448.208-.824.508-1.128.9-.296.392-.52.876-.672 1.452-.144.568-.216 1.212-.216 1.932 0 1.44.296 2.564.888 3.372.6.8 1.508 1.2 2.724 1.2zm12.6589-4.44c.432 0 .812-.06 1.14-.18s.604-.288.828-.504.392-.472.504-.768c.112-.304.168-.636.168-.996 0-.744-.228-1.336-.684-1.776-.448-.44-1.1-.66-1.956-.66-.864 0-1.524.22-1.98.66-.448.44-.672 1.032-.672 1.776 0 .36.056.692.168.996.12.296.292.552.516.768s.5.384.828.504.708.18 1.14.18zm3.852 6.6c0-.296-.084-.536-.252-.72s-.396-.328-.684-.432c-.28-.104-.608-.176-.984-.216-.376-.048-.776-.084-1.2-.108-.416-.024-.84-.048-1.272-.072s-.848-.064-1.248-.12c-.448.208-.816.472-1.104.792-.28.312-.42.68-.42 1.104 0 .272.068.524.204.756.144.24.36.444.648.612.288.176.648.312 1.08.408.44.104.956.156 1.548.156.576 0 1.092-.052 1.548-.156s.84-.252 1.152-.444c.32-.192.564-.42.732-.684s.252-.556.252-.876zm2.172-12.336v.792c0 .264-.168.432-.504.504l-1.38.18c.272.528.408 1.112.408 1.752 0 .592-.116 1.132-.348 1.62-.224.48-.536.892-.936 1.236s-.88.608-1.44.792-1.168.276-1.824.276c-.568 0-1.104-.068-1.608-.204-.256.16-.452.332-.588.516-.136.176-.204.356-.204.54 0 .288.116.508.348.66.24.144.552.248.936.312s.82.104 1.308.12c.496.016 1 .044 1.512.084.52.032 1.024.092 1.512.18.496.088.936.232 1.32.432s.692.476.924.828c.24.352.36.808.36 1.368 0 .52-.132 1.024-.396 1.512-.256.488-.628.92-1.116 1.296-.488.384-1.088.688-1.8.912-.704.232-1.5.348-2.388.348s-1.664-.088-2.328-.264-1.216-.412-1.656-.708-.772-.64-.996-1.032c-.216-.384-.324-.788-.324-1.212 0-.6.188-1.108.564-1.524s.892-.748 1.548-.996c-.36-.16-.648-.372-.864-.636-.208-.272-.312-.636-.312-1.092 0-.176.032-.356.096-.54.064-.192.16-.38.288-.564.136-.192.3-.372.492-.54s.416-.316.672-.444c-.6-.336-1.068-.78-1.404-1.332-.336-.56-.504-1.208-.504-1.944 0-.592.112-1.128.336-1.608.232-.488.552-.9.96-1.236.408-.344.892-.608 1.452-.792.568-.184 1.188-.276 1.86-.276.528 0 1.02.06 1.476.18.456.112.872.28 1.248.504zm4.4648-.48v12.156h-2.136v-12.156zm.456-3.816c0 .208-.044.404-.132.588-.08.176-.192.336-.336.48-.136.136-.3.244-.492.324-.184.08-.38.12-.588.12s-.404-.04-.588-.12c-.176-.08-.332-.188-.468-.324-.136-.144-.244-.304-.324-.48-.08-.184-.12-.38-.12-.588s.04-.404.12-.588c.08-.192.188-.356.324-.492.136-.144.292-.256.468-.336.184-.08.38-.12.588-.12s.404.04.588.12c.192.08.356.192.492.336.144.136.256.3.336.492.088.184.132.38.132.588zm5.0696 5.58c.264-.296.544-.564.84-.804s.608-.444.936-.612c.336-.176.688-.308 1.056-.396.376-.096.78-.144 1.212-.144.664 0 1.248.112 1.752.336.512.216.936.528 1.272.936.344.4.604.884.78 1.452s.264 1.196.264 1.884v7.74h-2.148v-7.74c0-.92-.212-1.632-.636-2.136-.416-.512-1.052-.768-1.908-.768-.632 0-1.224.152-1.776.456-.544.304-1.048.716-1.512 1.236v8.952h-2.148v-12.156h1.284c.304 0 .492.148.564.444z" fill="#7c4660"/><rect fill="#fff" height="51" rx="10.5" stroke="#7c4660" width="336" x="20.5" y="211.5"/><path d="m25.968 204.08c.3893 0 .7387-.064 1.048-.192.3093-.133.5707-.32.784-.56s.376-.531.488-.872.168-.725.168-1.152v-6.912h2.4v6.912c0 .704-.1147 1.352-.344 1.944-.224.587-.5467 1.093-.968 1.52s-.9333.76-1.536 1-1.2827.36-2.04.36-1.44-.12-2.048-.36c-.6027-.24-1.1147-.573-1.536-1s-.7467-.933-.976-1.52c-.224-.592-.336-1.24-.336-1.944v-6.912h2.4v6.912c0 .427.056.811.168 1.152s.2747.632.488.872.4747.427.784.56c.3093.128.6613.192 1.056.192zm14.4579-7.464c-.0747.123-.152.213-.232.272-.0747.053-.1734.08-.296.08-.1174 0-.2454-.04-.384-.12-.1334-.085-.2907-.176-.472-.272-.1814-.096-.3894-.184-.624-.264-.2347-.085-.5094-.128-.824-.128-.5547 0-.9707.125-1.248.376-.2774.245-.416.568-.416.968 0 .256.0746.469.224.64.1546.165.3546.309.6.432.2506.123.5333.232.848.328.3146.096.6373.203.968.32.3306.112.6533.245.968.4.3146.155.5946.349.84.584.2506.235.4506.523.6.864.1546.336.232.747.232 1.232 0 .528-.0934 1.024-.28 1.488-.1814.459-.4454.861-.792 1.208-.3467.341-.776.611-1.288.808-.5067.197-1.0827.296-1.728.296-.368 0-.736-.037-1.104-.112-.3627-.075-.7147-.179-1.056-.312-.336-.133-.6534-.293-.952-.48-.2987-.187-.56-.395-.784-.624l.704-1.136c.0586-.085.136-.155.232-.208.096-.059.1973-.088.304-.088.144 0 .296.053.456.16s.344.224.552.352.448.245.72.352c.2773.107.608.16.992.16.56 0 .992-.128 1.296-.384.3093-.256.464-.637.464-1.144 0-.293-.0774-.531-.232-.712-.1494-.181-.3467-.333-.592-.456-.2454-.123-.5254-.227-.84-.312-.3147-.091-.6374-.189-.968-.296-.3307-.107-.6534-.235-.968-.384-.3147-.149-.5947-.347-.84-.592-.2454-.245-.4454-.549-.6-.912-.1494-.363-.224-.813-.224-1.352 0-.432.0853-.851.256-1.256.1706-.405.4213-.765.752-1.08.3306-.315.736-.568 1.216-.76.4853-.192 1.04-.288 1.664-.288.6986 0 1.344.109 1.936.328.5973.213 1.1013.512 1.512.896zm5.9405-.344v2.984h3.872v1.816h-3.872v3.048h4.976v1.88h-7.392v-11.608h7.392v1.88zm11.4035 3.616c.3893 0 .7253-.048 1.008-.144.2826-.101.5146-.237.696-.408.1813-.176.3146-.381.4-.616.0853-.235.128-.491.128-.768 0-.549-.184-.976-.552-1.28-.3627-.304-.9174-.456-1.664-.456h-1.248v3.672zm5.624 6.112h-2.168c-.4054 0-.6987-.155-.88-.464l-2.208-3.56c-.0907-.139-.192-.24-.304-.304-.1067-.064-.2667-.096-.48-.096h-.816v4.424h-2.4v-11.608h3.648c.8106 0 1.504.085 2.08.256.576.165 1.048.397 1.416.696s.6373.656.808 1.072c.1706.411.256.864.256 1.36 0 .384-.056.749-.168 1.096-.1067.341-.264.653-.472.936s-.464.533-.768.752-.6507.395-1.04.528c.1546.085.2986.189.432.312.1333.117.2533.259.36.424zm12.0786-11.608v11.608h-1.24c-.1867 0-.344-.029-.472-.088-.128-.064-.2533-.171-.376-.32l-5.784-7.36c.016.187.0267.371.032.552.0107.181.016.349.016.504v6.712h-2.12v-11.608h1.264c.1013 0 .1867.005.256.016.0747.005.1413.024.2.056.0587.027.1147.064.168.112s.112.112.176.192l5.824 7.392c-.0213-.203-.0373-.397-.048-.584-.0107-.192-.016-.373-.016-.544v-6.64zm9.559 7.2-1.256-3.552c-.0747-.187-.1547-.405-.24-.656-.08-.251-.1573-.523-.232-.816-.0747.299-.1547.576-.24.832-.08.251-.1573.469-.232.656l-1.248 3.536zm4.032 4.408h-1.864c-.208 0-.3787-.048-.512-.144-.128-.101-.224-.229-.288-.384l-.784-2.216h-4.624l-.784 2.216c-.0533.133-.1467.256-.28.368-.1333.107-.3013.16-.504.16h-1.88l4.536-11.608h2.456zm14.8745-11.608v11.608h-2.12v-7.128c0-.149.003-.309.008-.48.011-.171.027-.344.048-.52l-3.3201 6.296c-.1814.347-.4614.52-.84.52h-.336c-.1867 0-.352-.043-.496-.128-.144-.091-.2587-.221-.344-.392l-3.336-6.32c.016.187.0293.368.04.544.0106.171.016.331.016.48v7.128h-2.12v-11.608h1.824c.1013 0 .192.003.272.008s.1493.021.208.048c.064.021.12.059.168.112.0533.048.104.117.152.208l3.248 6.192c.1013.187.1946.379.28.576.0906.197.176.4.256.608.08-.213.1626-.421.248-.624.0906-.203.1866-.397.288-.584l3.2241-6.168c.048-.091.099-.16.152-.208.053-.053.109-.091.168-.112.064-.027.133-.043.208-.048.08-.005.173-.008.28-.008zm5.835 1.88v2.984h3.872v1.816h-3.872v3.048h4.976v1.88h-7.392v-11.608h7.392v1.88z" fill="#3f3f50"/><rect fill="#fff" height="51" rx="10.5" stroke="#7c4660" width="336" x="20.5" y="308.5"/><path d="m26.136 297.168c.752 0 1.3013-.181 1.648-.544.352-.363.528-.859.528-1.488 0-.288-.0453-.549-.136-.784-.0853-.24-.2187-.443-.4-.608-.176-.171-.4-.301-.672-.392s-.5947-.136-.968-.136h-1.52v3.952zm0-5.776c.7947 0 1.48.093 2.056.28.5813.187 1.0587.448 1.432.784.3733.331.648.725.824 1.184.1813.459.272.957.272 1.496 0 .571-.0933 1.093-.28 1.568s-.4693.883-.848 1.224-.856.608-1.432.8c-.576.187-1.2507.28-2.024.28h-1.52v3.992h-2.4v-11.608zm12.4268 7.2-1.256-3.552c-.0747-.187-.1547-.405-.24-.656-.08-.251-.1574-.523-.232-.816-.0747.299-.1547.576-.24.832-.08.251-.1574.469-.232.656l-1.248 3.536zm4.032 4.408h-1.864c-.208 0-.3787-.048-.512-.144-.128-.101-.224-.229-.288-.384l-.784-2.216h-4.624l-.784 2.216c-.0534.133-.1467.256-.28.368-.1334.107-.3014.16-.504.16h-1.8801l4.5361-11.608h2.456zm8.3623-9.384c-.0746.123-.152.213-.232.272-.0746.053-.1733.08-.296.08-.1173 0-.2453-.04-.384-.12-.1333-.085-.2906-.176-.472-.272-.1813-.096-.3893-.184-.624-.264-.2346-.085-.5093-.128-.824-.128-.5546 0-.9706.125-1.248.376-.2773.245-.416.568-.416.968 0 .256.0747.469.224.64.1547.165.3547.309.6.432.2507.123.5334.232.848.328.3147.096.6374.203.968.32.3307.112.6534.245.968.4.3147.155.5947.349.84.584.2507.235.4507.523.6.864.1547.336.232.747.232 1.232 0 .528-.0933 1.024-.28 1.488-.1813.459-.4453.861-.792 1.208-.3466.341-.776.611-1.288.808-.5066.197-1.0826.296-1.728.296-.368 0-.736-.037-1.104-.112-.3626-.075-.7146-.179-1.056-.312-.336-.133-.6533-.293-.952-.48-.2986-.187-.56-.395-.784-.624l.704-1.136c.0587-.085.136-.155.232-.208.096-.059.1974-.088.304-.088.144 0 .296.053.456.16s.344.224.552.352.448.245.72.352c.2774.107.608.16.992.16.56 0 .992-.128 1.296-.384.3094-.256.464-.637.464-1.144 0-.293-.0773-.531-.232-.712-.1493-.181-.3466-.333-.592-.456-.2453-.123-.5253-.227-.84-.312-.3146-.091-.6373-.189-.968-.296-.3306-.107-.6533-.235-.968-.384-.3146-.149-.5946-.347-.84-.592-.2453-.245-.4453-.549-.6-.912-.1493-.363-.224-.813-.224-1.352 0-.432.0854-.851.256-1.256.1707-.405.4214-.765.752-1.08.3307-.315.736-.568 1.216-.76.4854-.192 1.04-.288 1.664-.288.6987 0 1.344.109 1.936.328.5974.213 1.1014.512 1.512.896zm9.8125 0c-.0746.123-.152.213-.232.272-.0746.053-.1733.08-.296.08-.1173 0-.2453-.04-.384-.12-.1333-.085-.2906-.176-.472-.272-.1813-.096-.3893-.184-.624-.264-.2346-.085-.5093-.128-.824-.128-.5546 0-.9706.125-1.248.376-.2773.245-.416.568-.416.968 0 .256.0747.469.224.64.1547.165.3547.309.6.432.2507.123.5334.232.848.328.3147.096.6374.203.968.32.3307.112.6534.245.968.4.3147.155.5947.349.84.584.2507.235.4507.523.6.864.1547.336.232.747.232 1.232 0 .528-.0933 1.024-.28 1.488-.1813.459-.4453.861-.792 1.208-.3466.341-.776.611-1.288.808-.5066.197-1.0826.296-1.728.296-.368 0-.736-.037-1.104-.112-.3626-.075-.7146-.179-1.056-.312-.336-.133-.6533-.293-.952-.48-.2986-.187-.56-.395-.784-.624l.704-1.136c.0587-.085.136-.155.232-.208.096-.059.1974-.088.304-.088.144 0 .296.053.456.16s.344.224.552.352.448.245.72.352c.2774.107.608.16.992.16.56 0 .992-.128 1.296-.384.3094-.256.464-.637.464-1.144 0-.293-.0773-.531-.232-.712-.1493-.181-.3466-.333-.592-.456-.2453-.123-.5253-.227-.84-.312-.3146-.091-.6373-.189-.968-.296-.3306-.107-.6533-.235-.968-.384-.3146-.149-.5946-.347-.84-.592-.2453-.245-.4453-.549-.6-.912-.1493-.363-.224-.813-.224-1.352 0-.432.0854-.851.256-1.256.1707-.405.4214-.765.752-1.08.3307-.315.736-.568 1.216-.76.4854-.192 1.04-.288 1.664-.288.6987 0 1.344.109 1.936.328.5974.213 1.1014.512 1.512.896zm19.0468-2.224-3.6 11.608h-2.168l-2.376-7.592c-.0374-.107-.0747-.224-.112-.352-.0374-.128-.072-.264-.104-.408-.032.144-.0667.28-.104.408-.0374.128-.0747.245-.112.352l-2.4 7.592h-2.176l-3.592-11.608h2.016c.208 0 .3813.048.52.144.144.096.2373.224.28.384l1.8 6.544c.0426.181.0853.379.128.592.048.208.0933.429.136.664.048-.24.0986-.464.152-.672.0533-.208.112-.403.176-.584l2.096-6.544c.0426-.133.1333-.253.272-.36.144-.112.3173-.168.52-.168h.704c.208 0 .376.051.504.152.1333.096.232.221.296.376l2.088 6.544c.064.171.1226.357.176.56.0533.197.104.408.152.632.0426-.224.0826-.435.12-.632.0426-.203.0853-.389.128-.56l1.8-6.544c.0373-.139.128-.261.272-.368s.3173-.16.52-.16zm13.2562 5.8c0 .848-.144 1.635-.432 2.36-.2826.725-.6853 1.352-1.208 1.88-.5173.528-1.1413.944-1.872 1.248-.7306.299-1.5413.448-2.432.448-.8906 0-1.7013-.149-2.432-.448-.7306-.304-1.3573-.72-1.88-1.248-.5226-.528-.928-1.155-1.216-1.88-.2826-.725-.424-1.512-.424-2.36s.1414-1.632.424-2.352c.288-.725.6934-1.352 1.216-1.88.5227-.528 1.1494-.941 1.88-1.24.7307-.304 1.5414-.456 2.432-.456.8907 0 1.7014.152 2.432.456.7307.299 1.3547.715 1.872 1.248.5227.528.9254 1.155 1.208 1.88.288.72.432 1.501.432 2.344zm-2.456 0c0-.608-.08-1.152-.24-1.632-.16-.485-.392-.896-.696-1.232-.2986-.341-.664-.6-1.096-.776-.4266-.181-.912-.272-1.456-.272s-1.032.091-1.464.272c-.432.176-.8.435-1.104.776-.2986.336-.528.747-.688 1.232-.16.48-.24 1.024-.24 1.632 0 .613.08 1.163.24 1.648.16.48.3894.888.688 1.224.304.336.672.595 1.104.776.432.176.92.264 1.464.264s1.0294-.088 1.456-.264c.432-.181.7974-.44 1.096-.776.304-.336.536-.744.696-1.224.16-.485.24-1.035.24-1.648zm8.8408-.304c.3893 0 .7256-.048 1.0076-.144.283-.101.515-.237.696-.408.182-.176.315-.381.4-.616.086-.235.128-.491.128-.768 0-.549-.184-.976-.552-1.28-.362-.304-.917-.456-1.6636-.456h-1.248v3.672zm5.6236 6.112h-2.168c-.405 0-.698-.155-.88-.464l-2.2076-3.56c-.0907-.139-.192-.24-.304-.304-.1067-.064-.2667-.096-.48-.096h-.816v4.424h-2.4v-11.608h3.648c.8106 0 1.5036.085 2.0796.256.576.165 1.048.397 1.416.696s.638.656.808 1.072c.171.411.256.864.256 1.36 0 .384-.056.749-.168 1.096-.106.341-.264.653-.472.936s-.464.533-.768.752-.65.395-1.04.528c.155.085.299.189.432.312.134.117.254.259.36.424zm12.543-5.808c0 .848-.144 1.629-.432 2.344-.283.709-.685 1.32-1.208 1.832-.517.512-1.141.912-1.872 1.2s-1.541.432-2.432.432h-4.464v-11.608h4.464c.891 0 1.701.144 2.432.432s1.355.691 1.872 1.208c.523.512.925 1.123 1.208 1.832.288.709.432 1.485.432 2.328zm-2.464 0c0-.608-.08-1.155-.24-1.64s-.389-.896-.688-1.232-.664-.595-1.096-.776c-.427-.181-.912-.272-1.456-.272h-2.048v7.848h2.048c.544 0 1.029-.088 1.456-.264.432-.181.797-.44 1.096-.776.299-.341.528-.755.688-1.24s.24-1.035.24-1.648z" fill="#3f3f50"/><path d="m126.227 497.281v-1.529c-.207-.371-.481-.66-.821-.867s-.691-.311-1.054-.311c-.5 0-.922.197-1.266.592-.34.391-.51.961-.51 1.711 0 .719.184 1.279.551 1.682.367.402.803.603 1.307.603.218 0 .433-.039.644-.117.211-.082.402-.199.574-.352.172-.152.311-.349.416-.591.106-.247.159-.52.159-.821zm1.33-5.179v6.427c0 .055.004.102.011.141.008.035.024.074.047.117.028.039.071.07.129.094.059.023.135.037.229.041.367.016.55.098.55.246 0 .469-.066.762-.199.879-.215-.031-.447-.047-.697-.047-.352 0-.695.016-1.031.047-.246-.113-.369-.385-.369-.815v-.052c-.211.312-.51.554-.897.726-.387.168-.785.252-1.195.252-.375 0-.735-.07-1.078-.211-.344-.14-.657-.342-.938-.603-.277-.266-.5-.612-.668-1.037-.168-.426-.252-.903-.252-1.43s.088-1.004.264-1.43.41-.769.703-1.031c.297-.266.627-.469.99-.609.364-.141.742-.213 1.137-.217h.035c.77 0 1.402.287 1.899.861v-1.535c0-.207-.061-.354-.182-.439-.117-.086-.346-.137-.686-.153-.05-.012-.084-.037-.099-.076-.012-.039-.018-.123-.018-.252 0-.199.022-.375.065-.527.043-.153.086-.24.129-.264.324.043.634.065.931.065.176 0 .362-.01.557-.03.195-.023.299-.035.31-.035.137 0 .225.035.264.106.043.066.064.222.064.468 0 .028-.001.078-.005.153zm1.634 6.199c-.187-.43-.281-.908-.281-1.436 0-.527.094-1.004.281-1.429.188-.426.438-.77.75-1.032.313-.265.663-.468 1.049-.609.387-.141.791-.211 1.213-.211.418 0 .82.07 1.207.211s.735.344 1.043.609c.313.262.563.606.75 1.032.188.425.281.902.281 1.429 0 .528-.093 1.006-.281 1.436-.187.426-.437.771-.75 1.037-.308.266-.656.469-1.043.609-.387.141-.789.211-1.207.211-.422 0-.826-.07-1.213-.211-.386-.14-.736-.343-1.049-.609-.312-.266-.562-.611-.75-1.037zm1.659-3.117c-.379.402-.569.962-.569 1.681s.19 1.281.569 1.688c.379.402.826.603 1.341.603.247 0 .483-.049.709-.146.227-.098.43-.239.61-.422.183-.188.33-.43.439-.727.11-.297.164-.629.164-.996s-.054-.699-.164-.996c-.109-.297-.256-.537-.439-.721-.18-.183-.383-.324-.61-.421-.226-.098-.462-.147-.709-.147-.515 0-.962.201-1.341.604zm12.445 4.863c-.379-.031-.721-.047-1.025-.047-.2 0-.416.008-.651.023-.234.016-.389.024-.463.024-.133 0-.199-.149-.199-.445v-3.51c0-.508-.082-.879-.246-1.113-.164-.239-.379-.358-.645-.358-.273 0-.574.078-.902.234-.324.153-.629.348-.914.586v3.088c0 .059.002.106.006.141.008.031.021.068.041.111.023.043.062.076.117.1.055.019.125.029.211.029.148 0 .275.024.381.07.105.047.158.118.158.211 0 .457-.064.743-.193.856-.239-.031-.686-.047-1.342-.047s-1.131.016-1.424.047c-.129-.117-.193-.402-.193-.856 0-.093.052-.164.158-.211.105-.046.232-.07.381-.07.152 0 .252-.031.299-.094.046-.066.07-.158.07-.275v-3.146c0-.207-.061-.354-.182-.44-.117-.086-.345-.137-.685-.152-.051-.012-.084-.037-.1-.076-.012-.039-.017-.123-.017-.252 0-.2.021-.375.064-.528.043-.152.086-.24.129-.263.258.043.51.064.756.064.176 0 .361-.01.556-.029.196-.024.299-.035.311-.035.137 0 .225.035.264.105.043.066.064.223.064.469 0 .027-.002.078-.006.152v.17c.336-.297.717-.537 1.143-.721.426-.183.836-.275 1.23-.275.547 0 .991.193 1.33.58.34.387.51.994.51 1.822v2.52c0 .254.098.389.293.404.039.004.09.008.152.012.067.004.118.008.153.012.039.004.086.009.14.017.055.004.098.01.129.018.032.004.067.011.106.023.043.008.076.018.099.029.024.012.045.026.065.041.023.016.039.036.047.059.011.02.017.043.017.07 0 .454-.064.739-.193.856zm1.365-5.824c0-.102.096-.287.287-.557.196-.273.293-.418.293-.434 0-.039-.035-.074-.105-.105-.071-.031-.156-.066-.258-.106-.102-.039-.205-.087-.311-.146-.101-.063-.187-.156-.257-.281-.071-.125-.106-.274-.106-.446 0-.296.102-.539.305-.726.207-.188.472-.281.797-.281.312 0 .576.103.791.31.218.203.328.453.328.75 0 .34-.07.682-.211 1.026-.137.339-.322.621-.557.843-.23.223-.468.334-.715.334-.187 0-.281-.06-.281-.181zm6.223 4.605c.117.223.176.432.176.627 0 .109-.049.205-.147.287-.094.078-.217.139-.369.182s-.305.074-.457.094c-.152.019-.301.029-.445.029-.219 0-.422-.031-.61-.094-.187-.062-.367-.164-.539-.305-.168-.144-.301-.351-.398-.621-.098-.273-.147-.597-.147-.972v-3.399h-.252c-.461 0-.713.002-.756.006-.128-.047-.193-.197-.193-.451 0-.309.098-.463.293-.463h.908c.016-.125.03-.287.041-.486.016-.203.03-.364.041-.481.012-.117.03-.256.053-.416.027-.16.063-.285.106-.375.046-.094.105-.185.175-.275.071-.09.16-.154.27-.194.113-.042.246-.064.398-.064.106 0 .188.018.246.053v2.238h.78c.464 0 .709-.01.732-.029.195 0 .293.168.293.504 0 .254-.064.404-.193.451-.129-.012-.381-.018-.756-.018h-.856v3.364c0 .648.211.972.633.972.274 0 .598-.054.973-.164zm5.877-6.726v2.478c.277-.293.609-.533.996-.721.387-.187.801-.281 1.242-.281.254 0 .486.043.697.129.215.086.41.219.586.398.18.18.321.43.422.75.102.321.152.698.152 1.131v2.385c0 .371.098.565.293.58.032.004.075.008.129.012.059.004.104.008.135.012.035.004.076.009.123.017.047.004.084.01.111.018.028.004.059.011.094.023.039.008.069.018.088.029.02.012.039.026.059.042.019.015.033.035.041.058.008.02.011.043.011.07 0 .43-.084.702-.251.815-.333-.031-.657-.047-.973-.047-.16 0-.34.008-.539.023-.199.016-.35.024-.451.024-.043 0-.079-.008-.106-.024-.023-.011-.045-.048-.064-.111-.02-.062-.03-.152-.03-.269v-3.551c0-.508-.087-.879-.263-1.113-.172-.239-.401-.358-.686-.358-.273 0-.574.082-.902.246-.324.164-.629.375-.914.633v3.029c0 .059.002.106.006.141.007.031.021.068.041.111.023.043.062.076.117.1.055.019.125.029.211.029.148 0 .275.024.381.07.105.047.158.118.158.211 0 .457-.065.743-.194.856-.367-.031-.818-.047-1.353-.047-.566 0-1.037.016-1.412.047-.129-.117-.194-.402-.194-.856 0-.093.053-.164.159-.211.105-.046.232-.07.381-.07.152 0 .251-.031.298-.094.047-.066.071-.158.071-.275v-5.625c0-.207-.061-.354-.182-.439-.117-.086-.346-.137-.686-.153-.05-.012-.083-.037-.099-.076-.012-.039-.018-.123-.018-.252 0-.199.022-.375.065-.527.043-.153.086-.24.129-.264.324.043.634.065.931.065.176 0 .362-.01.557-.03.195-.023.299-.035.311-.035.136 0 .224.035.263.106.043.066.065.222.065.468 0 .028-.002.078-.006.153zm9.896 7.101c-.285.301-.646.535-1.084.703-.433.168-.875.252-1.324.252-.559 0-1.019-.148-1.383-.445-.363-.297-.545-.727-.545-1.289 0-.602.291-1.055.873-1.36.438-.234 1.188-.437 2.25-.609.2-.035.524-.086.973-.152 0-.664-.084-1.121-.252-1.371s-.49-.375-.967-.375c-.347 0-.734.078-1.16.234s-.766.373-1.019.65c-.317-.265-.475-.525-.475-.779 0-.219.15-.412.451-.58.301-.172.654-.297 1.061-.375.41-.082.82-.123 1.23-.123.387 0 .725.049 1.014.146.293.094.551.25.773.469.223.219.391.52.504.903.117.382.176.847.176 1.394v1.875c0 .16.012.281.035.363.027.078.057.127.088.147.031.015.082.027.152.035.121.012.211.023.27.035.058.008.127.022.205.041.078.02.133.045.164.076.035.032.053.071.053.118 0 .46-.065.748-.194.861-.187-.031-.431-.047-.732-.047-.273 0-.527.014-.762.041-.027-.02-.062-.047-.105-.082-.039-.035-.094-.125-.164-.27-.071-.144-.106-.306-.106-.486zm-2.138-.088c.355 0 .74-.097 1.154-.293.414-.199.664-.379.75-.539v-1.037c-1.067.192-1.787.363-2.162.516-.371.152-.557.367-.557.644 0 .473.272.709.815.709zm7.019-3.949 1.33 3.223 1.19-3.211c.019-.059.029-.112.029-.158 0-.149-.09-.223-.27-.223-.207 0-.31-.08-.31-.24v-.041c.047-.465.113-.743.199-.832.363.043.775.064 1.236.064.489 0 .92-.021 1.295-.064.153.074.229.259.229.556 0 .09-.014.182-.041.276-.02.093-.088.164-.205.211-.114.046-.242.07-.387.07-.047 0-.09.004-.129.012-.035.003-.066.015-.094.035-.027.015-.05.029-.07.041-.016.008-.033.029-.053.064-.019.031-.033.053-.041.065-.004.007-.013.033-.029.076s-.025.068-.029.076l-1.407 3.416c-.031.078-.074.188-.128.328-.055.137-.096.24-.123.311-.028.066-.067.15-.118.252-.047.101-.091.177-.134.228-.039.047-.09.098-.153.153-.058.054-.125.093-.199.117-.07.019-.15.029-.24.029-.117 0-.221-.014-.311-.041-.086-.031-.156-.066-.211-.105-.054-.04-.109-.106-.164-.2-.054-.097-.099-.185-.135-.263-.031-.082-.08-.205-.146-.37-.066-.167-.127-.314-.182-.439l-1.529-3.428c-.004-.011-.016-.041-.035-.088-.02-.046-.033-.076-.041-.087-.008-.016-.026-.04-.053-.071-.023-.035-.049-.058-.076-.07-.023-.012-.057-.024-.1-.035-.039-.012-.086-.018-.14-.018-.145 0-.276-.023-.393-.07-.113-.047-.18-.117-.199-.211-.027-.129-.041-.25-.041-.363 0-.246.076-.399.228-.457.375.043.807.064 1.295.064.493 0 .944-.021 1.354-.064.086.089.152.363.199.82v.041c0 .16-.123.24-.369.24-.223 0-.334.074-.334.223 0 .054.012.107.035.158zm11.461 1.371c0 .18-.047.318-.141.416-.089.094-.261.141-.515.141h-4.043c.015.355.078.662.187.92.11.257.254.461.434.609.18.145.377.252.592.322.215.067.449.1.703.1.355 0 .719-.063 1.09-.188s.707-.3 1.007-.527c.223.262.334.52.334.774 0 .167-.111.334-.334.498-.222.16-.523.293-.902.398s-.773.158-1.183.158c-.336 0-.657-.033-.961-.099-.301-.067-.598-.182-.891-.346-.289-.168-.539-.379-.75-.633s-.381-.58-.51-.978c-.129-.399-.193-.85-.193-1.354 0-.492.094-.943.281-1.353.188-.411.436-.745.744-1.002.309-.262.653-.463 1.032-.604.382-.141.775-.211 1.177-.211.297 0 .582.037.856.111.273.075.531.192.773.352.242.156.453.35.633.58.18.227.32.504.422.832.105.328.158.69.158 1.084zm-1.184-.351c-.035-.543-.207-.956-.515-1.237-.305-.285-.67-.428-1.096-.428-.453 0-.865.153-1.236.458-.367.3-.578.703-.633 1.207zm8.854 3.017c-.285.301-.647.535-1.084.703-.434.168-.875.252-1.324.252-.559 0-1.02-.148-1.383-.445s-.545-.727-.545-1.289c0-.602.291-1.055.873-1.36.438-.234 1.188-.437 2.25-.609.199-.035.524-.086.973-.152 0-.664-.084-1.121-.252-1.371s-.49-.375-.967-.375c-.348 0-.734.078-1.16.234s-.766.373-1.02.65c-.316-.265-.474-.525-.474-.779 0-.219.15-.412.451-.58.301-.172.654-.297 1.06-.375.411-.082.821-.123 1.231-.123.387 0 .724.049 1.014.146.293.094.55.25.773.469s.391.52.504.903c.117.382.176.847.176 1.394v1.875c0 .16.011.281.035.363.027.078.056.127.088.147.031.015.082.027.152.035.121.012.211.023.27.035.058.008.127.022.205.041.078.02.132.045.164.076.035.032.052.071.052.118 0 .46-.064.748-.193.861-.187-.031-.432-.047-.732-.047-.274 0-.528.014-.762.041-.027-.02-.063-.047-.105-.082-.04-.035-.094-.125-.165-.27-.07-.144-.105-.306-.105-.486zm-2.139-.088c.356 0 .741-.097 1.155-.293.414-.199.664-.379.75-.539v-1.037c-1.067.192-1.788.363-2.163.516-.371.152-.556.367-.556.644 0 .473.271.709.814.709zm11.989.932c-.379-.031-.721-.047-1.026-.047-.199 0-.416.008-.65.023-.235.016-.389.024-.463.024-.133 0-.199-.149-.199-.445v-3.51c0-.508-.082-.879-.246-1.113-.164-.239-.379-.358-.645-.358-.273 0-.574.078-.902.234-.325.153-.629.348-.914.586v3.088c0 .059.002.106.006.141.007.031.021.068.041.111.023.043.062.076.117.1.054.019.125.029.211.029.148 0 .275.024.381.07.105.047.158.118.158.211 0 .457-.065.743-.194.856-.238-.031-.685-.047-1.341-.047-.657 0-1.131.016-1.424.047-.129-.117-.194-.402-.194-.856 0-.093.053-.164.159-.211.105-.046.232-.07.38-.07.153 0 .252-.031.299-.094.047-.066.071-.158.071-.275v-3.146c0-.207-.061-.354-.182-.44-.117-.086-.346-.137-.686-.152-.05-.012-.084-.037-.099-.076-.012-.039-.018-.123-.018-.252 0-.2.022-.375.065-.528.043-.152.086-.24.129-.263.257.043.509.064.755.064.176 0 .362-.01.557-.029.195-.024.299-.035.311-.035.136 0 .224.035.263.105.043.066.065.223.065.469 0 .027-.002.078-.006.152v.17c.336-.297.717-.537 1.142-.721.426-.183.836-.275 1.231-.275.547 0 .99.193 1.33.58s.51.994.51 1.822v2.52c0 .254.097.389.293.404.039.004.09.008.152.012.066.004.117.008.152.012.039.004.086.009.141.017.055.004.098.01.129.018.031.004.066.011.105.023.043.008.077.018.1.029.023.012.045.026.064.041.024.016.04.036.047.059.012.02.018.043.018.07 0 .454-.065.739-.193.856zm7.787-.844c-.285.301-.647.535-1.084.703-.434.168-.875.252-1.325.252-.558 0-1.019-.148-1.382-.445-.364-.297-.545-.727-.545-1.289 0-.602.291-1.055.873-1.36.437-.234 1.187-.437 2.25-.609.199-.035.523-.086.972-.152 0-.664-.084-1.121-.252-1.371-.167-.25-.49-.375-.966-.375-.348 0-.735.078-1.16.234-.426.156-.766.373-1.02.65-.316-.265-.475-.525-.475-.779 0-.219.151-.412.452-.58.3-.172.654-.297 1.06-.375.41-.082.82-.123 1.231-.123.386 0 .724.049 1.013.146.293.094.551.25.774.469.222.219.39.52.504.903.117.382.175.847.175 1.394v1.875c0 .16.012.281.036.363.027.078.056.127.087.147.032.015.082.027.153.035.121.012.211.023.269.035.059.008.127.022.205.041.079.02.133.045.164.076.036.032.053.071.053.118 0 .46-.064.748-.193.861-.188-.031-.432-.047-.733-.047-.273 0-.527.014-.761.041-.028-.02-.063-.047-.106-.082-.039-.035-.094-.125-.164-.27-.07-.144-.105-.306-.105-.486zm-2.139-.088c.355 0 .74-.097 1.154-.293.414-.199.664-.379.75-.539v-1.037c-1.066.192-1.787.363-2.162.516-.371.152-.556.367-.556.644 0 .473.271.709.814.709zm10.23-3.967c0 .231-.082.426-.246.586-.16.161-.414.241-.761.241-.082 0-.133-.018-.153-.053-.015-.039-.031-.139-.047-.299l-.087-.838c-.028-.019-.067-.041-.118-.064-.046-.028-.156-.063-.328-.106-.168-.047-.345-.07-.533-.07-.594 0-1.074.23-1.441.691-.364.457-.545 1.002-.545 1.635 0 .684.177 1.217.533 1.6.355.383.869.574 1.541.574.312 0 .652-.066 1.019-.199.372-.133.674-.303.909-.51.222.262.334.512.334.75 0 .195-.116.377-.346.545-.231.168-.527.297-.891.387-.359.093-.734.14-1.125.14-.453 0-.881-.07-1.283-.211-.398-.144-.752-.351-1.06-.621-.309-.273-.553-.625-.733-1.055-.18-.433-.269-.921-.269-1.464 0-.504.093-.963.281-1.377.191-.418.443-.758.756-1.02.312-.265.662-.469 1.049-.609.39-.145.791-.217 1.201-.217.418 0 .781.043 1.09.129.312.082.556.197.732.346.18.148.311.314.393.498.086.179.128.377.128.591zm6.118 0c0 .231-.082.426-.246.586-.161.161-.414.241-.762.241-.082 0-.133-.018-.152-.053-.016-.039-.032-.139-.047-.299l-.088-.838c-.028-.019-.067-.041-.117-.064-.047-.028-.157-.063-.329-.106-.168-.047-.345-.07-.533-.07-.594 0-1.074.23-1.441.691-.363.457-.545 1.002-.545 1.635 0 .684.178 1.217.533 1.6.356.383.869.574 1.541.574.313 0 .652-.066 1.02-.199.371-.133.673-.303.908-.51.223.262.334.512.334.75 0 .195-.115.377-.346.545-.23.168-.527.297-.89.387-.36.093-.735.14-1.125.14-.454 0-.881-.07-1.284-.211-.398-.144-.752-.351-1.06-.621-.309-.273-.553-.625-.733-1.055-.179-.433-.269-.921-.269-1.464 0-.504.094-.963.281-1.377.191-.418.443-.758.756-1.02.312-.265.662-.469 1.049-.609.39-.145.791-.217 1.201-.217.418 0 .781.043 1.09.129.312.082.556.197.732.346.18.148.311.314.393.498.086.179.129.377.129.591zm.767 3.153c-.187-.43-.281-.908-.281-1.436 0-.527.094-1.004.281-1.429.188-.426.438-.77.75-1.032.313-.265.662-.468 1.049-.609s.791-.211 1.213-.211c.418 0 .82.07 1.207.211s.734.344 1.043.609c.312.262.562.606.75 1.032.187.425.281.902.281 1.429 0 .528-.094 1.006-.281 1.436-.188.426-.438.771-.75 1.037-.309.266-.656.469-1.043.609-.387.141-.789.211-1.207.211-.422 0-.826-.07-1.213-.211-.387-.14-.736-.343-1.049-.609-.312-.266-.562-.611-.75-1.037zm1.658-3.117c-.378.402-.568.962-.568 1.681s.19 1.281.568 1.688c.379.402.827.603 1.342.603.246 0 .483-.049.709-.146.227-.098.43-.239.61-.422.183-.188.33-.43.439-.727s.164-.629.164-.996-.055-.699-.164-.996-.256-.537-.439-.721c-.18-.183-.383-.324-.61-.421-.226-.098-.463-.147-.709-.147-.515 0-.963.201-1.342.604zm11.397-1.079v4.295c0 .102.002.174.006.217s.013.092.029.147c.02.05.049.086.088.105.043.016.1.031.17.047.07.012.164.018.281.018.176 0 .287.021.334.064.051.043.076.131.076.264 0 .195-.023.369-.07.521-.043.149-.084.237-.123.264-.285-.031-.549-.047-.791-.047-.16 0-.328.008-.504.023-.172.016-.277.024-.316.024-.157 0-.252-.047-.287-.141-.032-.094-.047-.344-.047-.75-.274.317-.604.563-.991.739-.382.175-.773.263-1.171.263-.29 0-.561-.049-.815-.146-.25-.094-.476-.235-.68-.422-.203-.188-.363-.44-.48-.756s-.176-.678-.176-1.084v-2.35c0-.371-.098-.564-.293-.58-.031-.004-.076-.008-.135-.011-.054-.004-.099-.008-.134-.012-.032-.004-.071-.008-.118-.012-.046-.008-.084-.014-.111-.017-.027-.008-.06-.016-.099-.024-.036-.012-.063-.023-.083-.035-.019-.012-.039-.025-.058-.041-.02-.016-.033-.033-.041-.053-.008-.023-.012-.049-.012-.076 0-.453.065-.738.194-.855.367.043.705.064 1.013.064.215 0 .434-.01.656-.029.227-.024.344-.035.352-.035.133 0 .199.14.199.421v3.715c0 .43.112.752.334.967.223.215.508.322.856.322.297 0 .591-.078.884-.234.297-.156.541-.369.733-.639v-2.836c0-.371-.098-.564-.293-.58-.031-.004-.076-.008-.135-.011-.055-.004-.099-.008-.135-.012-.031-.004-.07-.008-.117-.012-.047-.008-.084-.014-.111-.017-.027-.008-.061-.016-.1-.024-.035-.012-.062-.023-.082-.035-.019-.012-.039-.025-.058-.041-.02-.016-.034-.033-.041-.053-.008-.023-.012-.049-.012-.076 0-.457.064-.742.193-.855.367.043.705.064 1.014.064.258 0 .519-.01.785-.029.27-.024.408-.035.416-.035.004 0 .006.14.006.421zm8.76 5.942c-.379-.031-.721-.047-1.026-.047-.199 0-.416.008-.65.023-.234.016-.389.024-.463.024-.133 0-.199-.149-.199-.445v-3.51c0-.508-.082-.879-.246-1.113-.164-.239-.379-.358-.645-.358-.273 0-.574.078-.902.234-.324.153-.629.348-.914.586v3.088c0 .059.002.106.006.141.007.031.021.068.041.111.023.043.062.076.117.1.055.019.125.029.211.029.148 0 .275.024.381.07.105.047.158.118.158.211 0 .457-.065.743-.194.856-.238-.031-.685-.047-1.341-.047-.657 0-1.131.016-1.424.047-.129-.117-.194-.402-.194-.856 0-.093.053-.164.159-.211.105-.046.232-.07.381-.07.152 0 .252-.031.298-.094.047-.066.071-.158.071-.275v-3.146c0-.207-.061-.354-.182-.44-.117-.086-.346-.137-.685-.152-.051-.012-.084-.037-.1-.076-.012-.039-.018-.123-.018-.252 0-.2.022-.375.065-.528.043-.152.086-.24.129-.263.258.043.509.064.756.064.175 0 .361-.01.556-.029.196-.024.299-.035.311-.035.136 0 .224.035.263.105.043.066.065.223.065.469 0 .027-.002.078-.006.152v.17c.336-.297.717-.537 1.143-.721.425-.183.836-.275 1.23-.275.547 0 .99.193 1.33.58s.51.994.51 1.822v2.52c0 .254.098.389.293.404.039.004.09.008.152.012.067.004.117.008.153.012.039.004.085.009.14.017.055.004.098.01.129.018.031.004.066.011.106.023.043.008.076.018.099.029.024.012.045.026.065.041.023.016.039.036.046.059.012.02.018.043.018.07 0 .454-.064.739-.193.856zm4.67-1.219c.117.223.175.432.175.627 0 .109-.048.205-.146.287-.094.078-.217.139-.369.182-.153.043-.305.074-.457.094-.153.019-.301.029-.446.029-.218 0-.421-.031-.609-.094-.187-.062-.367-.164-.539-.305-.168-.144-.301-.351-.398-.621-.098-.273-.147-.597-.147-.972v-3.399h-.252c-.461 0-.713.002-.756.006-.129-.047-.193-.197-.193-.451 0-.309.098-.463.293-.463h.908c.016-.125.029-.287.041-.486.016-.203.029-.364.041-.481s.029-.256.053-.416c.027-.16.062-.285.105-.375.047-.094.106-.185.176-.275s.16-.154.27-.194c.113-.042.246-.064.398-.064.106 0 .188.018.246.053v2.238h.779c.465 0 .709-.01.733-.029.195 0 .293.168.293.504 0 .254-.065.404-.194.451-.128-.012-.38-.018-.755-.018h-.856v3.364c0 .648.211.972.633.972.273 0 .598-.054.973-.164zm1.752.369c0-.269.089-.496.269-.679.18-.184.443-.276.791-.276.34 0 .596.094.768.281.172.184.258.409.258.674 0 .262-.086.487-.258.674-.172.188-.428.281-.768.281-.348 0-.611-.091-.791-.275-.18-.188-.269-.414-.269-.68zm1.341-7.101c-.226 0-.435.021-.627.064-.191.039-.326.078-.404.117l-.123.059v.896c0 .184-.019.299-.059.346-.039.043-.138.065-.298.065-.317 0-.553-.098-.709-.293-.153-.196-.229-.412-.229-.651 0-.453.199-.826.598-1.119.402-.293 1.029-.439 1.881-.439.734 0 1.324.168 1.769.504.449.332.674.796.674 1.394 0 .293-.045.563-.135.809-.086.242-.199.445-.34.609-.14.164-.296.314-.468.451-.168.137-.338.262-.51.375-.168.11-.322.219-.463.328-.141.106-.256.225-.346.358-.086.129-.129.267-.129.416 0 .078.002.176.006.293.004.113.006.193.006.24 0 .238-.113.357-.34.357-.078 0-.179-.002-.304-.005-.121-.004-.184-.006-.188-.006-.121 0-.223-.096-.305-.287-.082-.196-.123-.43-.123-.704 0-.085.004-.164.012-.234.012-.074.022-.137.029-.187.008-.055.032-.112.071-.17.039-.063.066-.11.082-.141.019-.031.062-.078.129-.141.07-.066.119-.113.146-.14.031-.028.098-.084.199-.17.106-.09.182-.154.229-.194.062-.05.176-.138.34-.263.168-.129.302-.24.404-.334s.215-.211.34-.352c.125-.144.219-.299.281-.463.063-.168.094-.347.094-.539 0-.246-.104-.449-.311-.609-.203-.16-.496-.24-.879-.24z" fill="#7b7c94"/><path d="m176.632 389.272v3.208h4.176v1.888h-4.176v4.632h-2.416v-11.608h7.392v1.88zm18.753 3.92c0 .848-.144 1.635-.432 2.36-.283.725-.685 1.352-1.208 1.88-.517.528-1.141.944-1.872 1.248-.731.299-1.541.448-2.432.448s-1.701-.149-2.432-.448c-.731-.304-1.357-.72-1.88-1.248s-.928-1.155-1.216-1.88c-.283-.725-.424-1.512-.424-2.36s.141-1.632.424-2.352c.288-.725.693-1.352 1.216-1.88s1.149-.941 1.88-1.24c.731-.304 1.541-.456 2.432-.456s1.701.152 2.432.456c.731.299 1.355.715 1.872 1.248.523.528.925 1.155 1.208 1.88.288.72.432 1.501.432 2.344zm-2.456 0c0-.608-.08-1.152-.24-1.632-.16-.485-.392-.896-.696-1.232-.299-.341-.664-.6-1.096-.776-.427-.181-.912-.272-1.456-.272s-1.032.091-1.464.272c-.432.176-.8.435-1.104.776-.299.336-.528.747-.688 1.232-.16.48-.24 1.024-.24 1.632 0 .613.08 1.163.24 1.648.16.48.389.888.688 1.224.304.336.672.595 1.104.776.432.176.92.264 1.464.264s1.029-.088 1.456-.264c.432-.181.797-.44 1.096-.776.304-.336.536-.744.696-1.224.16-.485.24-1.035.24-1.648zm8.841-.304c.389 0 .725-.048 1.008-.144.283-.101.515-.237.696-.408.181-.176.315-.381.4-.616s.128-.491.128-.768c0-.549-.184-.976-.552-1.28-.363-.304-.917-.456-1.664-.456h-1.248v3.672zm5.624 6.112h-2.168c-.405 0-.699-.155-.88-.464l-2.208-3.56c-.091-.139-.192-.24-.304-.304-.107-.064-.267-.096-.48-.096h-.816v4.424h-2.4v-11.608h3.648c.811 0 1.504.085 2.08.256.576.165 1.048.397 1.416.696s.637.656.808 1.072c.171.411.256.864.256 1.36 0 .384-.056.749-.168 1.096-.107.341-.264.653-.472.936s-.464.533-.768.752-.651.395-1.04.528c.155.085.299.189.432.312.133.117.253.259.36.424zm7.595-5.912h3.984v4.792c-.592.432-1.224.749-1.896.952-.667.197-1.373.296-2.12.296-.955 0-1.819-.147-2.592-.44-.773-.299-1.435-.712-1.984-1.24s-.973-1.155-1.272-1.88-.448-1.517-.448-2.376c0-.869.141-1.667.424-2.392.288-.725.696-1.349 1.224-1.872s1.165-.931 1.912-1.224c.752-.293 1.592-.44 2.52-.44.48 0 .928.04 1.344.12.416.075.8.181 1.152.32.352.133.675.293.968.48s.56.392.8.616l-.696 1.072c-.107.171-.245.275-.416.312s-.357-.005-.56-.128c-.192-.117-.381-.221-.568-.312-.181-.096-.376-.179-.584-.248s-.435-.123-.68-.16-.528-.056-.848-.056c-.539 0-1.027.093-1.464.28s-.811.451-1.12.792c-.304.341-.539.752-.704 1.232s-.248 1.016-.248 1.608c0 .64.091 1.213.272 1.72.181.501.437.925.768 1.272s.725.611 1.184.792c.464.181.979.272 1.544.272.384 0 .725-.037 1.024-.112.304-.08.6-.187.888-.32v-1.952h-1.312c-.155 0-.277-.04-.368-.12-.085-.085-.128-.192-.128-.32zm18.162.104c0 .848-.144 1.635-.432 2.36-.283.725-.686 1.352-1.208 1.88-.518.528-1.142.944-1.872 1.248-.731.299-1.542.448-2.432.448-.891 0-1.702-.149-2.432-.448-.731-.304-1.358-.72-1.88-1.248-.523-.528-.928-1.155-1.216-1.88-.283-.725-.424-1.512-.424-2.36s.141-1.632.424-2.352c.288-.725.693-1.352 1.216-1.88.522-.528 1.149-.941 1.88-1.24.73-.304 1.541-.456 2.432-.456.89 0 1.701.152 2.432.456.73.299 1.354.715 1.872 1.248.522.528.925 1.155 1.208 1.88.288.72.432 1.501.432 2.344zm-2.456 0c0-.608-.08-1.152-.24-1.632-.16-.485-.392-.896-.696-1.232-.299-.341-.664-.6-1.096-.776-.427-.181-.912-.272-1.456-.272s-1.032.091-1.464.272c-.432.176-.8.435-1.104.776-.299.336-.528.747-.688 1.232-.16.48-.24 1.024-.24 1.632 0 .613.08 1.163.24 1.648.16.48.389.888.688 1.224.304.336.672.595 1.104.776.432.176.92.264 1.464.264s1.029-.088 1.456-.264c.432-.181.797-.44 1.096-.776.304-.336.536-.744.696-1.224.16-.485.24-1.035.24-1.648zm13.081-3.864h-3.392v9.672h-2.408v-9.672h-3.392v-1.936h9.192zm10.673 3.84c.752 0 1.301-.181 1.648-.544.352-.363.528-.859.528-1.488 0-.288-.046-.549-.136-.784-.086-.24-.219-.443-.4-.608-.176-.171-.4-.301-.672-.392s-.595-.136-.968-.136h-1.52v3.952zm0-5.776c.794 0 1.48.093 2.056.28.581.187 1.058.448 1.432.784.373.331.648.725.824 1.184.181.459.272.957.272 1.496 0 .571-.094 1.093-.28 1.568-.187.475-.47.883-.848 1.224-.379.341-.856.608-1.432.8-.576.187-1.251.28-2.024.28h-1.52v3.992h-2.4v-11.608zm12.426 7.2-1.256-3.552c-.074-.187-.154-.405-.24-.656-.08-.251-.157-.523-.232-.816-.074.299-.154.576-.24.832-.08.251-.157.469-.232.656l-1.248 3.536zm4.032 4.408h-1.864c-.208 0-.378-.048-.512-.144-.128-.101-.224-.229-.288-.384l-.784-2.216h-4.624l-.784 2.216c-.053.133-.146.256-.28.368-.133.107-.301.16-.504.16h-1.88l4.536-11.608h2.456zm8.363-9.384c-.075.123-.152.213-.232.272-.075.053-.174.08-.296.08-.118 0-.246-.04-.384-.12-.134-.085-.291-.176-.472-.272-.182-.096-.39-.184-.624-.264-.235-.085-.51-.128-.824-.128-.555 0-.971.125-1.248.376-.278.245-.416.568-.416.968 0 .256.074.469.224.64.154.165.354.309.6.432.25.123.533.232.848.328.314.096.637.203.968.32.33.112.653.245.968.4.314.155.594.349.84.584.25.235.45.523.6.864.154.336.232.747.232 1.232 0 .528-.094 1.024-.28 1.488-.182.459-.446.861-.792 1.208-.347.341-.776.611-1.288.808-.507.197-1.083.296-1.728.296-.368 0-.736-.037-1.104-.112-.363-.075-.715-.179-1.056-.312-.336-.133-.654-.293-.952-.48-.299-.187-.56-.395-.784-.624l.704-1.136c.058-.085.136-.155.232-.208.096-.059.197-.088.304-.088.144 0 .296.053.456.16s.344.224.552.352.448.245.72.352c.277.107.608.16.992.16.56 0 .992-.128 1.296-.384.309-.256.464-.637.464-1.144 0-.293-.078-.531-.232-.712-.15-.181-.347-.333-.592-.456-.246-.123-.526-.227-.84-.312-.315-.091-.638-.189-.968-.296-.331-.107-.654-.235-.968-.384-.315-.149-.595-.347-.84-.592-.246-.245-.446-.549-.6-.912-.15-.363-.224-.813-.224-1.352 0-.432.085-.851.256-1.256.17-.405.421-.765.752-1.08.33-.315.736-.568 1.216-.76.485-.192 1.04-.288 1.664-.288.698 0 1.344.109 1.936.328.597.213 1.101.512 1.512.896zm9.812 0c-.075.123-.152.213-.232.272-.075.053-.173.08-.296.08-.117 0-.245-.04-.384-.12-.133-.085-.291-.176-.472-.272s-.389-.184-.624-.264c-.235-.085-.509-.128-.824-.128-.555 0-.971.125-1.248.376-.277.245-.416.568-.416.968 0 .256.075.469.224.64.155.165.355.309.6.432.251.123.533.232.848.328s.637.203.968.32c.331.112.653.245.968.4s.595.349.84.584c.251.235.451.523.6.864.155.336.232.747.232 1.232 0 .528-.093 1.024-.28 1.488-.181.459-.445.861-.792 1.208-.347.341-.776.611-1.288.808-.507.197-1.083.296-1.728.296-.368 0-.736-.037-1.104-.112-.363-.075-.715-.179-1.056-.312-.336-.133-.653-.293-.952-.48s-.56-.395-.784-.624l.704-1.136c.059-.085.136-.155.232-.208.096-.059.197-.088.304-.088.144 0 .296.053.456.16s.344.224.552.352.448.245.72.352c.277.107.608.16.992.16.56 0 .992-.128 1.296-.384.309-.256.464-.637.464-1.144 0-.293-.077-.531-.232-.712-.149-.181-.347-.333-.592-.456s-.525-.227-.84-.312c-.315-.091-.637-.189-.968-.296s-.653-.235-.968-.384-.595-.347-.84-.592-.445-.549-.6-.912c-.149-.363-.224-.813-.224-1.352 0-.432.085-.851.256-1.256s.421-.765.752-1.08.736-.568 1.216-.76c.485-.192 1.04-.288 1.664-.288.699 0 1.344.109 1.936.328.597.213 1.101.512 1.512.896zm19.047-2.224-3.6 11.608h-2.168l-2.376-7.592c-.037-.107-.075-.224-.112-.352s-.072-.264-.104-.408c-.032.144-.067.28-.104.408s-.075.245-.112.352l-2.4 7.592h-2.176l-3.592-11.608h2.016c.208 0 .381.048.52.144.144.096.237.224.28.384l1.8 6.544c.043.181.085.379.128.592.048.208.093.429.136.664.048-.24.099-.464.152-.672s.112-.403.176-.584l2.096-6.544c.043-.133.133-.253.272-.36.144-.112.317-.168.52-.168h.704c.208 0 .376.051.504.152.133.096.232.221.296.376l2.088 6.544c.064.171.123.357.176.56.053.197.104.408.152.632.043-.224.083-.435.12-.632.043-.203.085-.389.128-.56l1.8-6.544c.037-.139.128-.261.272-.368s.317-.16.52-.16zm13.256 5.8c0 .848-.144 1.635-.432 2.36-.283.725-.685 1.352-1.208 1.88-.517.528-1.141.944-1.872 1.248-.731.299-1.541.448-2.432.448s-1.701-.149-2.432-.448c-.731-.304-1.357-.72-1.88-1.248s-.928-1.155-1.216-1.88c-.283-.725-.424-1.512-.424-2.36s.141-1.632.424-2.352c.288-.725.693-1.352 1.216-1.88s1.149-.941 1.88-1.24c.731-.304 1.541-.456 2.432-.456s1.701.152 2.432.456c.731.299 1.355.715 1.872 1.248.523.528.925 1.155 1.208 1.88.288.72.432 1.501.432 2.344zm-2.456 0c0-.608-.08-1.152-.24-1.632-.16-.485-.392-.896-.696-1.232-.299-.341-.664-.6-1.096-.776-.427-.181-.912-.272-1.456-.272s-1.032.091-1.464.272c-.432.176-.8.435-1.104.776-.299.336-.528.747-.688 1.232-.16.48-.24 1.024-.24 1.632 0 .613.08 1.163.24 1.648.16.48.389.888.688 1.224.304.336.672.595 1.104.776.432.176.92.264 1.464.264s1.029-.088 1.456-.264c.432-.181.797-.44 1.096-.776.304-.336.536-.744.696-1.224.16-.485.24-1.035.24-1.648zm8.841-.304c.389 0 .725-.048 1.008-.144.283-.101.515-.237.696-.408.181-.176.315-.381.4-.616s.128-.491.128-.768c0-.549-.184-.976-.552-1.28-.363-.304-.917-.456-1.664-.456h-1.248v3.672zm5.624 6.112h-2.168c-.405 0-.699-.155-.88-.464l-2.208-3.56c-.091-.139-.192-.24-.304-.304-.107-.064-.267-.096-.48-.096h-.816v4.424h-2.4v-11.608h3.648c.811 0 1.504.085 2.08.256.576.165 1.048.397 1.416.696s.637.656.808 1.072c.171.411.256.864.256 1.36 0 .384-.056.749-.168 1.096-.107.341-.264.653-.472.936s-.464.533-.768.752-.651.395-1.04.528c.155.085.299.189.432.312.133.117.253.259.36.424zm12.543-5.808c0 .848-.144 1.629-.432 2.344-.283.709-.686 1.32-1.208 1.832-.518.512-1.142.912-1.872 1.2-.731.288-1.542.432-2.432.432h-4.464v-11.608h4.464c.89 0 1.701.144 2.432.432.73.288 1.354.691 1.872 1.208.522.512.925 1.123 1.208 1.832.288.709.432 1.485.432 2.328zm-2.464 0c0-.608-.08-1.155-.24-1.64s-.39-.896-.688-1.232c-.299-.336-.664-.595-1.096-.776-.427-.181-.912-.272-1.456-.272h-2.048v7.848h2.048c.544 0 1.029-.088 1.456-.264.432-.181.797-.44 1.096-.776.298-.341.528-.755.688-1.24s.24-1.035.24-1.648zm4.539-4.744c.192-.165.398-.32.616-.464.224-.144.464-.269.72-.376.262-.107.542-.189.84-.248.304-.064.63-.096.976-.096.48 0 .915.067 1.304.2.39.128.723.315 1 .56.278.24.491.531.64.872.155.341.232.723.232 1.144 0 .405-.058.757-.176 1.056-.112.293-.256.549-.432.768-.17.219-.36.408-.568.568s-.405.309-.592.448c-.186.139-.349.277-.488.416-.133.133-.216.283-.248.448l-.2 1.144h-1.512l-.152-1.296c-.037-.256-.005-.477.096-.664.102-.192.238-.365.408-.52.171-.16.36-.312.568-.456.214-.149.411-.307.592-.472.187-.171.342-.36.464-.568.128-.213.192-.464.192-.752 0-.352-.122-.632-.368-.84-.24-.208-.56-.312-.96-.312-.293 0-.541.032-.744.096-.197.064-.368.136-.512.216-.144.075-.266.144-.368.208-.101.064-.197.096-.288.096-.202 0-.354-.088-.456-.264zm1.496 9.392c0-.176.032-.341.096-.496.07-.16.163-.296.28-.408.118-.117.254-.208.408-.272.16-.069.334-.104.52-.104.182 0 .352.035.512.104.16.064.299.155.416.272.118.112.208.248.272.408.07.155.104.32.104.496 0 .181-.034.349-.104.504-.064.155-.154.291-.272.408-.117.112-.256.2-.416.264s-.33.096-.512.096c-.186 0-.36-.032-.52-.096-.154-.064-.29-.152-.408-.264-.117-.117-.21-.253-.28-.408-.064-.155-.096-.323-.096-.504z" fill="#7c4660"/><path d="m170 410.5h186" stroke="#7c4660"/><path d="m160.504 530.616c-.075.123-.152.213-.232.272-.075.053-.173.08-.296.08-.117 0-.245-.04-.384-.12-.133-.085-.291-.176-.472-.272s-.389-.184-.624-.264c-.235-.085-.509-.128-.824-.128-.555 0-.971.125-1.248.376-.277.245-.416.568-.416.968 0 .256.075.469.224.64.155.165.355.309.6.432.251.123.533.232.848.328s.637.203.968.32c.331.112.653.245.968.4s.595.349.84.584c.251.235.451.523.6.864.155.336.232.747.232 1.232 0 .528-.093 1.024-.28 1.488-.181.459-.445.861-.792 1.208-.347.341-.776.611-1.288.808-.507.197-1.083.296-1.728.296-.368 0-.736-.037-1.104-.112-.363-.075-.715-.179-1.056-.312-.336-.133-.653-.293-.952-.48s-.56-.395-.784-.624l.704-1.136c.059-.085.136-.155.232-.208.096-.059.197-.088.304-.088.144 0 .296.053.456.16s.344.224.552.352.448.245.72.352c.277.107.608.16.992.16.56 0 .992-.128 1.296-.384.309-.256.464-.637.464-1.144 0-.293-.077-.531-.232-.712-.149-.181-.347-.333-.592-.456s-.525-.227-.84-.312c-.315-.091-.637-.189-.968-.296s-.653-.235-.968-.384-.595-.347-.84-.592-.445-.549-.6-.912c-.149-.363-.224-.813-.224-1.352 0-.432.085-.851.256-1.256s.421-.765.752-1.08.736-.568 1.216-.76c.485-.192 1.04-.288 1.664-.288.699 0 1.344.109 1.936.328.597.213 1.101.512 1.512.896zm5.941 9.384h-2.416v-11.608h2.416zm9.075-5.912h3.984v4.792c-.592.432-1.224.749-1.896.952-.666.197-1.373.296-2.12.296-.954 0-1.818-.147-2.592-.44-.773-.299-1.434-.712-1.984-1.24-.549-.528-.973-1.155-1.272-1.88-.298-.725-.448-1.517-.448-2.376 0-.869.142-1.667.424-2.392.288-.725.696-1.349 1.224-1.872s1.166-.931 1.912-1.224c.752-.293 1.592-.44 2.52-.44.48 0 .928.04 1.344.12.416.075.8.181 1.152.32.352.133.675.293.968.48.294.187.56.392.8.616l-.696 1.072c-.106.171-.245.275-.416.312-.17.037-.357-.005-.56-.128-.192-.117-.381-.221-.568-.312-.181-.096-.376-.179-.584-.248s-.434-.123-.68-.16c-.245-.037-.528-.056-.848-.056-.538 0-1.026.093-1.464.28-.437.187-.81.451-1.12.792-.304.341-.538.752-.704 1.232-.165.48-.248 1.016-.248 1.608 0 .64.091 1.213.272 1.72.182.501.438.925.768 1.272.331.347.726.611 1.184.792.464.181.979.272 1.544.272.384 0 .726-.037 1.024-.112.304-.08.6-.187.888-.32v-1.952h-1.312c-.154 0-.277-.04-.368-.12-.085-.085-.128-.192-.128-.32zm16.89-5.696v11.608h-1.24c-.187 0-.344-.029-.472-.088-.128-.064-.253-.171-.376-.32l-5.784-7.36c.016.187.027.371.032.552.011.181.016.349.016.504v6.712h-2.12v-11.608h1.264c.101 0 .187.005.256.016.075.005.141.024.2.056.059.027.115.064.168.112s.112.112.176.192l5.824 7.392c-.021-.203-.037-.397-.048-.584-.011-.192-.016-.373-.016-.544v-6.64zm12.98 9.688c.389 0 .739-.064 1.048-.192.309-.133.571-.32.784-.56s.376-.531.488-.872.168-.725.168-1.152v-6.912h2.4v6.912c0 .704-.115 1.352-.344 1.944-.224.587-.547 1.093-.968 1.52s-.933.76-1.536 1-1.283.36-2.04.36-1.44-.12-2.048-.36c-.603-.24-1.115-.573-1.536-1s-.747-.933-.976-1.52c-.224-.592-.336-1.24-.336-1.944v-6.912h2.4v6.912c0 .427.056.811.168 1.152s.275.632.488.872.475.427.784.56c.309.128.661.192 1.056.192zm12.09-3.912c.752 0 1.301-.181 1.648-.544.352-.363.528-.859.528-1.488 0-.288-.046-.549-.136-.784-.086-.24-.219-.443-.4-.608-.176-.171-.4-.301-.672-.392s-.595-.136-.968-.136h-1.52v3.952zm0-5.776c.794 0 1.48.093 2.056.28.581.187 1.058.448 1.432.784.373.331.648.725.824 1.184.181.459.272.957.272 1.496 0 .571-.094 1.093-.28 1.568-.187.475-.47.883-.848 1.224-.379.341-.856.608-1.432.8-.576.187-1.251.28-2.024.28h-1.52v3.992h-2.4v-11.608z" fill="#7c4660"/><path d="m155 551.5h67" stroke="#7c4660"/></g><path d="m0 0h375v48h-375z" fill="#7c4660"/><g fill="#fff"><path d="m45.0443 11.52h-22.0807c-1.6359 0-2.9636.9028-2.9636 2.0152v3.3587c0 1.1124 1.3277 2.0152 2.9636 2.0152h9.8786v3.1598c0 .747.6559 1.4026 1.6754 1.682.3873.1075.4347.3386.4347.4353s-.0395.3278-.4347.4353l-2.1101.5696c-1.0194.2741-1.6754.935-1.6754 1.682s.656 1.4026 1.6754 1.682l2.1022.575c.3873.1075.4347.3386.4347.4353s-.0395.3278-.4347.4353l-2.1022.5642c-1.0194.2741-1.6754.9351-1.6754 1.6821 0 .7469.656 1.4025 1.6754 1.682l2.1022.575c.3873.1075.4347.3385.4347.4353 0 .0967-.0395.3278-.4347.4352-1.0195.2741-1.6754.9351-1.6754 1.6821 0 .7415.8851 1.3434 1.9757 1.3434v-1.3434c0-.1935.166-.3601.4347-.4353 1.0195-.2741 1.6754-.9351 1.6754-1.682 0-.747-.6559-1.4026-1.6754-1.6821l-2.1022-.575c-.3872-.1074-.4346-.3385-.4346-.4352 0-.0968.0395-.3278.4346-.4353l2.1022-.575c1.0195-.2741 1.6754-.9351 1.6754-1.682 0-.747-.6559-1.4026-1.6754-1.6821l-2.1022-.575c-.3872-.1074-.4346-.3385-.4346-.4352 0-.0968.0395-.3278.4346-.4353l2.1022-.575c1.0195-.2741 1.6754-.9351 1.6754-1.682 0-.747-.6559-1.4026-1.6754-1.6821-.2608-.0698-.4347-.2418-.4347-.4352v-3.1599h10.2264c1.6359 0 2.9636-.9028 2.9636-2.0152v-3.3425c.0079-1.1124-1.3198-2.0152-2.9557-2.0152zm.9878 5.3739c0 .3708-.4425.6717-.9878.6717h-22.0807c-.5453 0-.9879-.3009-.9879-.6717v-3.3587c0-.3708.4426-.6717.9879-.6717h22.0807c.5453 0 .9878.3009.9878.6717z"/><path d="m20.8789 12.2664h26.343v5.97094h-26.343z"/><path d="m43.788 35.14c-1.1573 0-2.0813-.42-2.772-1.26s-1.036-1.9413-1.036-3.304c0-1.4933.3453-2.9027 1.036-4.228.6907-1.344 1.6053-2.4173 2.744-3.22 1.1573-.8213 2.38-1.232 3.668-1.232.4107 0 .6813.084.812.252.1493.1493.2707.4293.364.84.392-.0747.8027-.112 1.232-.112.9147 0 1.372.3267 1.372.98 0 .392-.14 1.3253-.42 2.8-.4293 2.1467-.644 3.64-.644 4.48 0 .28.0653.504.196.672.1493.168.336.252.56.252.3547 0 .784-.224 1.288-.672.504-.4667 1.1853-1.2133 2.044-2.24.224-.2613.476-.392.756-.392.2427 0 .4293.112.56.336.1493.224.224.532.224.924 0 .7467-.1773 1.3253-.532 1.736-.7653.952-1.5773 1.7547-2.436 2.408s-1.6893.98-2.492.98c-.616 0-1.1853-.2053-1.708-.616-.504-.4293-.8867-1.008-1.148-1.736-.9707 1.568-2.1933 2.352-3.668 2.352zm1.008-2.828c.4107 0 .8027-.2427 1.176-.728s.644-1.1293.812-1.932l1.036-5.152c-.784.0187-1.512.3173-2.184.896-.6533.56-1.176 1.3067-1.568 2.24s-.588 1.9227-.588 2.968c0 .5787.112 1.008.336 1.288.2427.28.5693.42.98.42zm13.9083 3.444c-.9706 0-1.7173-.224-2.24-.672-.504-.448-.756-.952-.756-1.512 0-.4853.1774-.9053.532-1.26.3547-.3547.8774-.532 1.568-.532.2427 0 .5227.028.84.084.336.0373.588.0653.756.084-.0186-.4853-.1306-.9427-.336-1.372-.1866-.4293-.4293-.84-.728-1.232-.2986-.4107-.5786-.7653-.84-1.064-.5786 1.1013-1.1573 2.016-1.736 2.744-.56.728-1.176 1.4187-1.848 2.072-.336.336-.6906.504-1.064.504-.2986 0-.5413-.1027-.728-.308-.1866-.224-.28-.4947-.28-.812 0-.3733.1307-.7187.392-1.036l.364-.448c1.0267-1.2693 1.8014-2.3147 2.324-3.136.3174-.5413.6907-1.26 1.12-2.156.4294-.9147.8494-1.8573 1.26-2.828.3547-.8213 1.092-1.232 2.212-1.232.5227 0 .8867.0467 1.092.14.2054.0933.308.2427.308.448 0 .112-.0373.2893-.112.532-.0746.2427-.1773.4853-.308.728-.336.672-.504 1.2413-.504 1.708 0 .28.0934.588.28.924.2054.336.5134.756.924 1.26.5974.784 1.0454 1.456 1.344 2.016.3174.5413.476 1.1387.476 1.792 0 .1867-.0186.448-.056.784.9147-.3547 1.988-1.2973 3.22-2.828.224-.2613.476-.392.756-.392.2427 0 .4294.112.56.336.1494.224.224.532.224.924 0 .7093-.1773 1.288-.532 1.736-.9333 1.1573-1.8293 1.9507-2.688 2.38-.84.4107-1.8853.6347-3.136.672-.7466.6347-1.6333.952-2.66.952zm19.2293-7c.2426 0 .4293.112.56.336.1493.224.224.532.224.924 0 .7467-.1774 1.3253-.532 1.736-.8027.9893-1.68 1.8013-2.632 2.436s-2.044.952-3.276.952c-3.808 0-5.712-2.6787-5.712-8.036 0-.8213.028-1.652.084-2.492h-1.092c-.56 0-.9427-.1027-1.148-.308-.1867-.2053-.28-.532-.28-.98 0-1.0453.42-1.568 1.26-1.568h1.596c.3173-2.0533.8026-3.9293 1.456-5.628.6533-1.6987 1.4373-3.052 2.352-4.06.9333-1.008 1.932-1.512 2.996-1.512.784 0 1.4.3453 1.848 1.036s.672 1.5587.672 2.604c0 2.8933-1.2134 5.4133-3.64 7.56h3.136c.2986 0 .5133.0653.644.196.1306.1307.196.3733.196.728 0 1.288-1.0547 1.932-3.164 1.932h-3.416c-.0374.9333-.056 1.6613-.056 2.184 0 1.9413.224 3.304.672 4.088.4666.784 1.1946 1.176 2.184 1.176.8026 0 1.512-.2427 2.128-.728s1.344-1.2133 2.184-2.184c.224-.2613.476-.392.756-.392zm-4.9-15.512c-.28 0-.5974.3547-.952 1.064-.336.6907-.6627 1.6613-.98 2.912-.2987 1.232-.5507 2.604-.756 4.116 1.1013-.952 1.9226-2.016 2.464-3.192.56-1.1947.84-2.2773.84-3.248 0-1.1013-.2054-1.652-.616-1.652zm15.8922 15.512c.2426 0 .4293.112.5599.336.1494.224.2241.532.2241.924 0 .7467-.1774 1.3253-.532 1.736-.6907.84-1.6707 1.6147-2.94 2.324-1.2507.7093-2.5947 1.064-4.032 1.064-1.96 0-3.4814-.532-4.564-1.596-1.0827-1.064-1.6241-2.52-1.6241-4.368 0-1.288.2707-2.4827.8121-3.584.5413-1.12 1.288-2.0067 2.24-2.66.9706-.6533 2.0626-.98 3.276-.98 1.0826 0 1.9506.3267 2.604.98.6533.6347.98 1.5027.98 2.604 0 1.288-.4667 2.3987-1.4 3.332-.9147.9147-2.4734 1.6427-4.676 2.184.4666.8587 1.3533 1.288 2.66 1.288.84 0 1.792-.2893 2.856-.868 1.0826-.5973 2.016-1.372 2.8-2.324.224-.2613.476-.392.756-.392zm-7.056-4.06c-.6907 0-1.2787.4013-1.764 1.204-.4667.8027-.7 1.7733-.7 2.912v.056c1.1013-.2613 1.9693-.6533 2.604-1.176.6346-.5227.952-1.1293.952-1.82 0-.3547-.1027-.6347-.308-.84-.1867-.224-.448-.336-.784-.336zm16.8721 1.092c.4107 0 .756.1493 1.036.448.2991.28.4481.6347.4481 1.064 0 .2427-.056.504-.168.784-.2987.6907-.7187 1.2693-1.2601 1.736-.5413.4667-1.1386.7-1.792.7-.5226 0-.9706-.1867-1.344-.56-.3546-.3733-.532-.8773-.532-1.512 0-.3547.0187-.7373.056-1.148.0374-.2987.056-.504.056-.616 0-.1493-.0373-.2613-.112-.336-.056-.0747-.1306-.112-.224-.112-.2613 0-.616.3173-1.064.952-.448.616-.896 1.4373-1.344 2.464s-.812 2.1093-1.092 3.248c-.2053.896-.4386 1.4933-.7 1.792-.2613.2987-.6906.448-1.288.448-.7093 0-1.2133-.3733-1.512-1.12-.28-.7467-.42-1.9413-.42-3.584 0-2.4267.3454-4.732 1.036-6.916.168-.5413.4387-.9333.812-1.176.392-.2613.9334-.392 1.624-.392.3734 0 .6347.0467.784.14.1494.0933.224.2707.224.532 0 .2987-.14.9707-.42 2.016-.1866.7467-.336 1.4-.448 1.96s-.2053 1.2507-.28 2.072c.616-1.6053 1.3067-2.912 2.072-3.92.7654-1.008 1.512-1.7267 2.24-2.156s1.3907-.644 1.988-.644c.5414 0 .952.1587 1.232.476.2987.2987.448.7467.448 1.344 0 .3547-.1026 1.0267-.308 2.016z"/></g></svg>