<svg fill="none" height="667" viewBox="0 0 375 667" width="375" xmlns="http://www.w3.org/2000/svg" xmlns:xlink="http://www.w3.org/1999/xlink"><clipPath id="a"><path d="m0 0h375v667h-375z"/></clipPath><g clip-path="url(#a)"><g fill="#fff"><path d="m0 0h375v667h-375z"/><g stroke="#7c4660"><rect height="51" rx="10.5" width="336" x="20.5" y="170.5"/><rect height="51" rx="10.5" width="336" x="20.5" y="269.5"/><rect height="51" rx="10.5" width="336" x="20.5" y="368.5"/></g><path d="m45.0443 10h-22.0807c-1.6359 0-2.9636.9404-2.9636 2.0992v3.4986c0 1.1587 1.3277 2.0991 2.9636 2.0991h9.8786v3.2915c0 .7781.6559 1.461 1.6754 1.7521.3873.112.4347.3527.4347.4534 0 .1008-.0395.3415-.4347.4534l-2.1101.5934c-1.0194.2855-1.6754.974-1.6754 1.7521s.656 1.461 1.6754 1.7521l2.1022.599c.3873.1119.4347.3526.4347.4534 0 .1007-.0395.3414-.4347.4534l-2.1022.5878c-1.0194.2854-1.6754.974-1.6754 1.7521s.656 1.461 1.6754 1.7521l2.1022.5989c.3873.112.4347.3527.4347.4534 0 .1008-.0395.3415-.4347.4535-1.0195.2854-1.6754.974-1.6754 1.7521 0 .7725.8851 1.3994 1.9757 1.3994v-1.3994c0-.2016.166-.3751.4347-.4535 1.0195-.2854 1.6754-.974 1.6754-1.7521 0-.778-.6559-1.461-1.6754-1.7521l-2.1022-.5989c-.3872-.112-.4346-.3527-.4346-.4534 0-.1008.0395-.3415.4346-.4535l2.1022-.5989c1.0195-.2855 1.6754-.974 1.6754-1.7521s-.6559-1.461-1.6754-1.7521l-2.1022-.599c-.3872-.1119-.4346-.3526-.4346-.4534s.0395-.3415.4346-.4534l2.1022-.599c1.0195-.2855 1.6754-.974 1.6754-1.7521s-.6559-1.461-1.6754-1.7521c-.2608-.0727-.4347-.2519-.4347-.4534v-3.2915h10.2264c1.6359 0 2.9636-.9404 2.9636-2.0991v-3.4818c.0079-1.1588-1.3198-2.0992-2.9557-2.0992zm.9878 5.5978c0 .3862-.4425.6997-.9878.6997h-22.0807c-.5453 0-.9879-.3135-.9879-.6997v-3.4986c0-.3863.4426-.6998.9879-.6998h22.0807c.5453 0 .9878.3135.9878.6998z"/><path d="m20.8789 10.7775h26.343v6.21973h-26.343z"/><path d="m43.788 34.14c-1.1573 0-2.0813-.42-2.772-1.26s-1.036-1.9413-1.036-3.304c0-1.4933.3453-2.9027 1.036-4.228.6907-1.344 1.6053-2.4173 2.744-3.22 1.1573-.8213 2.38-1.232 3.668-1.232.4107 0 .6813.084.812.252.1493.1493.2707.4293.364.84.392-.0747.8027-.112 1.232-.112.9147 0 1.372.3267 1.372.98 0 .392-.14 1.3253-.42 2.8-.4293 2.1467-.644 3.64-.644 4.48 0 .28.0653.504.196.672.1493.168.336.252.56.252.3547 0 .784-.224 1.288-.672.504-.4667 1.1853-1.2133 2.044-2.24.224-.2613.476-.392.756-.392.2427 0 .4293.112.56.336.1493.224.224.532.224.924 0 .7467-.1773 1.3253-.532 1.736-.7653.952-1.5773 1.7547-2.436 2.408s-1.6893.98-2.492.98c-.616 0-1.1853-.2053-1.708-.616-.504-.4293-.8867-1.008-1.148-1.736-.9707 1.568-2.1933 2.352-3.668 2.352zm1.008-2.828c.4107 0 .8027-.2427 1.176-.728s.644-1.1293.812-1.932l1.036-5.152c-.784.0187-1.512.3173-2.184.896-.6533.56-1.176 1.3067-1.568 2.24s-.588 1.9227-.588 2.968c0 .5787.112 1.008.336 1.288.2427.28.5693.42.98.42zm13.9083 3.444c-.9706 0-1.7173-.224-2.24-.672-.504-.448-.756-.952-.756-1.512 0-.4853.1774-.9053.532-1.26.3547-.3547.8774-.532 1.568-.532.2427 0 .5227.028.84.084.336.0373.588.0653.756.084-.0186-.4853-.1306-.9427-.336-1.372-.1866-.4293-.4293-.84-.728-1.232-.2986-.4107-.5786-.7653-.84-1.064-.5786 1.1013-1.1573 2.016-1.736 2.744-.56.728-1.176 1.4187-1.848 2.072-.336.336-.6906.504-1.064.504-.2986 0-.5413-.1027-.728-.308-.1866-.224-.28-.4947-.28-.812 0-.3733.1307-.7187.392-1.036l.364-.448c1.0267-1.2693 1.8014-2.3147 2.324-3.136.3174-.5413.6907-1.26 1.12-2.156.4294-.9147.8494-1.8573 1.26-2.828.3547-.8213 1.092-1.232 2.212-1.232.5227 0 .8867.0467 1.092.14.2054.0933.308.2427.308.448 0 .112-.0373.2893-.112.532-.0746.2427-.1773.4853-.308.728-.336.672-.504 1.2413-.504 1.708 0 .28.0934.588.28.924.2054.336.5134.756.924 1.26.5974.784 1.0454 1.456 1.344 2.016.3174.5413.476 1.1387.476 1.792 0 .1867-.0186.448-.056.784.9147-.3547 1.988-1.2973 3.22-2.828.224-.2613.476-.392.756-.392.2427 0 .4294.112.56.336.1494.224.224.532.224.924 0 .7093-.1773 1.288-.532 1.736-.9333 1.1573-1.8293 1.9507-2.688 2.38-.84.4107-1.8853.6347-3.136.672-.7466.6347-1.6333.952-2.66.952zm19.2293-7c.2426 0 .4293.112.56.336.1493.224.224.532.224.924 0 .7467-.1774 1.3253-.532 1.736-.8027.9893-1.68 1.8013-2.632 2.436s-2.044.952-3.276.952c-3.808 0-5.712-2.6787-5.712-8.036 0-.8213.028-1.652.084-2.492h-1.092c-.56 0-.9427-.1027-1.148-.308-.1867-.2053-.28-.532-.28-.98 0-1.0453.42-1.568 1.26-1.568h1.596c.3173-2.0533.8026-3.9293 1.456-5.628.6533-1.6987 1.4373-3.052 2.352-4.06.9333-1.008 1.932-1.512 2.996-1.512.784 0 1.4.34533 1.848 1.036.448.6907.672 1.5587.672 2.604 0 2.8933-1.2134 5.4133-3.64 7.56h3.136c.2986 0 .5133.0653.644.196.1306.1307.196.3733.196.728 0 1.288-1.0547 1.932-3.164 1.932h-3.416c-.0374.9333-.056 1.6613-.056 2.184 0 1.9413.224 3.304.672 4.088.4666.784 1.1946 1.176 2.184 1.176.8026 0 1.512-.2427 2.128-.728s1.344-1.2133 2.184-2.184c.224-.2613.476-.392.756-.392zm-4.9-15.512c-.28 0-.5974.3547-.952 1.064-.336.6907-.6627 1.6613-.98 2.912-.2987 1.232-.5507 2.604-.756 4.116 1.1013-.952 1.9226-2.016 2.464-3.192.56-1.1947.84-2.2773.84-3.248 0-1.1013-.2054-1.652-.616-1.652zm15.8922 15.512c.2426 0 .4293.112.5599.336.1494.224.2241.532.2241.924 0 .7467-.1774 1.3253-.532 1.736-.6907.84-1.6707 1.6147-2.94 2.324-1.2507.7093-2.5947 1.064-4.032 1.064-1.96 0-3.4814-.532-4.564-1.596-1.0827-1.064-1.6241-2.52-1.6241-4.368 0-1.288.2707-2.4827.8121-3.584.5413-1.12 1.288-2.0067 2.24-2.66.9706-.6533 2.0626-.98 3.276-.98 1.0826 0 1.9506.3267 2.604.98.6533.6347.98 1.5027.98 2.604 0 1.288-.4667 2.3987-1.4 3.332-.9147.9147-2.4734 1.6427-4.676 2.184.4666.8587 1.3533 1.288 2.66 1.288.84 0 1.792-.2893 2.856-.868 1.0826-.5973 2.016-1.372 2.8-2.324.224-.2613.476-.392.756-.392zm-7.056-4.06c-.6907 0-1.2787.4013-1.764 1.204-.4667.8027-.7 1.7733-.7 2.912v.056c1.1013-.2613 1.9693-.6533 2.604-1.176.6346-.5227.952-1.1293.952-1.82 0-.3547-.1027-.6347-.308-.84-.1867-.224-.448-.336-.784-.336zm16.8721 1.092c.4107 0 .756.1493 1.036.448.2991.28.4481.6347.4481 1.064 0 .2427-.056.504-.168.784-.2987.6907-.7187 1.2693-1.2601 1.736-.5413.4667-1.1386.7-1.792.7-.5226 0-.9706-.1867-1.344-.56-.3546-.3733-.532-.8773-.532-1.512 0-.3547.0187-.7373.056-1.148.0374-.2987.056-.504.056-.616 0-.1493-.0373-.2613-.112-.336-.056-.0747-.1306-.112-.224-.112-.2613 0-.616.3173-1.064.952-.448.616-.896 1.4373-1.344 2.464s-.812 2.1093-1.092 3.248c-.2053.896-.4386 1.4933-.7 1.792-.2613.2987-.6906.448-1.288.448-.7093 0-1.2133-.3733-1.512-1.12-.28-.7467-.42-1.9413-.42-3.584 0-2.4267.3454-4.732 1.036-6.916.168-.5413.4387-.9333.812-1.176.392-.2613.9334-.392 1.624-.392.3734 0 .6347.0467.784.14.1494.0933.224.2707.224.532 0 .2987-.14.9707-.42 2.016-.1866.7467-.336 1.4-.448 1.96s-.2053 1.2507-.28 2.072c.616-1.6053 1.3067-2.912 2.072-3.92.7654-1.008 1.512-1.7267 2.24-2.156s1.3907-.644 1.988-.644c.5414 0 .952.1587 1.232.476.2987.2987.448.7467.448 1.344 0 .3547-.1026 1.0267-.308 2.016z"/></g><g fill="#3f3f50"><path d="m40.802 198.922c.3873 0 .721-.044 1.001-.133s.5087-.212.686-.371c.182-.163.315-.355.399-.574.084-.224.126-.469.126-.735 0-.518-.1843-.926-.553-1.225-.3687-.303-.9217-.455-1.659-.455h-2.17v3.493zm-2.17-7.882v3.423h1.792c.3827 0 .714-.042.994-.126.2847-.084.518-.201.7-.35.1867-.149.3243-.329.413-.539.0887-.215.133-.448.133-.7 0-.593-.1773-1.024-.532-1.295-.3547-.275-.9053-.413-1.652-.413zm1.848-1.071c.616 0 1.1457.061 1.589.182.448.121.8143.294 1.099.518.2893.224.5017.499.637.826.1353.322.203.686.203 1.092 0 .247-.0397.485-.119.714-.0747.224-.189.434-.343.63s-.35.373-.588.532c-.2333.154-.5087.28-.826.378.7373.14 1.2903.404 1.659.791.3733.383.56.887.56 1.512 0 .425-.0793.812-.238 1.162-.154.35-.3827.651-.686.903-.2987.252-.6673.448-1.106.588-.4387.135-.938.203-1.498.203h-3.542v-10.031zm9.4374 2.828c.518 0 .9847.086 1.4.259s.77.418 1.064.735.518.702.672 1.155c.1587.448.238.95.238 1.505 0 .56-.0793 1.064-.238 1.512-.154.448-.378.831-.672 1.148s-.6487.562-1.064.735c-.4153.168-.882.252-1.4.252-.5227 0-.994-.084-1.414-.252-.4153-.173-.77-.418-1.064-.735s-.5203-.7-.679-1.148c-.154-.448-.231-.952-.231-1.512 0-.555.077-1.057.231-1.505.1587-.453.385-.838.679-1.155s.6487-.562 1.064-.735c.42-.173.8913-.259 1.414-.259zm0 6.328c.7 0 1.2227-.233 1.568-.7.3453-.471.518-1.127.518-1.967 0-.845-.1727-1.503-.518-1.974s-.868-.707-1.568-.707c-.3547 0-.665.061-.931.182-.2613.121-.4807.296-.658.525-.1727.229-.3033.511-.392.847-.084.331-.126.707-.126 1.127 0 .84.1727 1.496.518 1.967.35.467.8797.7 1.589.7zm7.2424-9.436v10.311h-1.246v-10.311zm7.6406 4.907c-.2334-.313-.4854-.53-.756-.651-.2707-.126-.574-.189-.91-.189-.658 0-1.1644.236-1.519.707-.3547.471-.532 1.143-.532 2.016 0 .462.0396.859.119 1.19.0793.327.196.597.35.812.154.21.343.364.567.462s.4783.147.763.147c.4106 0 .7676-.093 1.071-.28.308-.187.5903-.45.847-.791zm1.246-4.907v10.311h-.742c-.1774 0-.2894-.086-.336-.259l-.112-.861c-.3034.364-.6487.658-1.036.882-.3874.224-.8354.336-1.344.336-.406 0-.7747-.077-1.106-.231-.3314-.159-.6137-.39-.847-.693-.2334-.303-.413-.681-.539-1.134s-.189-.973-.189-1.561c0-.523.07-1.008.21-1.456.14-.453.3406-.845.602-1.176.2613-.331.581-.59.959-.777.3826-.191.812-.287 1.288-.287.434 0 .805.075 1.113.224.3126.145.5903.348.833.609v-3.927zm5.9316 5.138c.392 0 .7373-.047 1.036-.14.3033-.098.5553-.233.756-.406.2053-.177.3593-.387.462-.63.1026-.243.154-.511.154-.805 0-.597-.196-1.048-.588-1.351s-.98-.455-1.764-.455h-1.484v3.787zm4.634 5.173h-1.204c-.2474 0-.4294-.096-.546-.287l-2.604-3.584c-.0794-.112-.1657-.191-.259-.238-.0887-.051-.2287-.077-.42-.077h-1.029v4.186h-1.351v-10.031h2.835c.6346 0 1.183.065 1.645.196.462.126.8423.31 1.141.553.3033.243.5273.537.672.882.1446.341.217.723.217 1.148 0 .355-.056.686-.168.994s-.2754.586-.49.833c-.21.243-.469.45-.777.623-.3034.173-.6487.303-1.036.392.1726.098.322.24.448.427zm6.3651-4.319c0-.289-.042-.553-.126-.791-.0793-.243-.1983-.45-.357-.623-.154-.177-.343-.313-.567-.406-.224-.098-.4783-.147-.763-.147-.5973 0-1.071.175-1.421.525-.3453.345-.56.826-.644 1.442zm1.008 3.325c-.154.187-.3383.35-.553.49-.2146.135-.4456.247-.693.336-.2426.089-.4946.154-.756.196-.2613.047-.5203.07-.777.07-.49 0-.9426-.082-1.358-.245-.4106-.168-.7676-.411-1.071-.728-.2986-.322-.532-.719-.7-1.19s-.252-1.013-.252-1.624c0-.495.0747-.957.224-1.386.154-.429.3734-.8.658-1.113.2847-.317.6324-.565 1.043-.742.4107-.182.8727-.273 1.386-.273.4247 0 .8167.072 1.176.217.364.14.6767.345.938.616.266.266.4737.597.623.994.1494.392.224.84.224 1.344 0 .196-.021.327-.063.392s-.1213.098-.238.098h-4.739c.014.448.0747.838.182 1.169.112.331.266.609.462.833.196.219.4294.385.7.497.2707.107.574.161.91.161.3127 0 .581-.035.805-.105.2287-.075.4247-.154.588-.238.1634-.084.2987-.161.406-.231.112-.075.2077-.112.287-.112.1027 0 .182.04.238.119zm7.2625-4.41c-.2333-.313-.4853-.53-.756-.651-.2706-.126-.574-.189-.91-.189-.658 0-1.1643.236-1.519.707-.3546.471-.532 1.143-.532 2.016 0 .462.0397.859.119 1.19.0794.327.196.597.35.812.154.21.343.364.567.462s.4784.147.763.147c.4107 0 .7677-.093 1.071-.28.308-.187.5904-.45.847-.791zm1.246-4.907v10.311h-.742c-.1773 0-.2893-.086-.336-.259l-.112-.861c-.3033.364-.6486.658-1.036.882-.3873.224-.8353.336-1.344.336-.406 0-.7746-.077-1.106-.231-.3313-.159-.6136-.39-.847-.693-.2333-.303-.413-.681-.539-1.134s-.189-.973-.189-1.561c0-.523.07-1.008.21-1.456.14-.453.3407-.845.602-1.176.2614-.331.581-.59.959-.777.3827-.191.812-.287 1.288-.287.434 0 .805.075 1.113.224.3127.145.5904.348.833.609v-3.927z"/><path d="m30.12 157.144c.1333 0 .2453.048.336.144l.952 1.016c-.4693.597-1.0533 1.051-1.752 1.36-.6933.309-1.52.464-2.48.464-.8693 0-1.6507-.147-2.344-.44-.6933-.299-1.2827-.712-1.768-1.24s-.8587-1.155-1.12-1.88-.392-1.517-.392-2.376c0-.576.0613-1.123.184-1.64.128-.523.312-1.003.552-1.44s.528-.832.864-1.184c.3413-.352.7253-.651 1.152-.896.4267-.251.8907-.44 1.392-.568.5067-.133 1.0453-.2 1.616-.2.4267 0 .8293.037 1.208.112.384.075.7413.179 1.072.312s.6347.296.912.488c.2827.187.536.392.76.616l-.808 1.104c-.048.069-.1093.131-.184.184s-.176.08-.304.08-.2587-.045-.392-.136c-.128-.091-.288-.192-.48-.304-.1867-.112-.424-.213-.712-.304-.2827-.091-.6427-.136-1.08-.136-.4853 0-.9307.088-1.336.264s-.7547.432-1.048.768c-.288.331-.512.739-.672 1.224s-.24 1.037-.24 1.656c0 .624.0853 1.181.256 1.672.176.485.4133.896.712 1.232.304.336.656.592 1.056.768.4053.171.8373.256 1.296.256.272 0 .5173-.013.736-.04.224-.027.4293-.072.616-.136.192-.064.3707-.147.536-.248.1707-.101.3413-.229.512-.384.0587-.048.12-.088.184-.12s.1333-.048.208-.048zm7.2749-3.256c.3893 0 .7253-.048 1.008-.144.2826-.101.5146-.237.696-.408.1813-.176.3146-.381.4-.616.0853-.235.128-.491.128-.768 0-.549-.184-.976-.552-1.28-.3627-.304-.9174-.456-1.664-.456h-1.248v3.672zm5.624 6.112h-2.168c-.4054 0-.6987-.155-.88-.464l-2.208-3.56c-.0907-.139-.192-.24-.304-.304-.1067-.064-.2667-.096-.48-.096h-.816v4.424h-2.4v-11.608h3.648c.8106 0 1.504.085 2.08.256.576.165 1.048.397 1.416.696s.6373.656.808 1.072c.1706.411.256.864.256 1.36 0 .384-.056.749-.168 1.096-.1067.341-.264.653-.472.936s-.464.533-.768.752-.6507.395-1.04.528c.1546.085.2986.189.432.312.1333.117.2533.259.36.424zm4.5506-9.728v2.984h3.872v1.816h-3.872v3.048h4.976v1.88h-7.392v-11.608h7.392v1.88zm13.8995 5.32-1.256-3.552c-.0747-.187-.1547-.405-.24-.656-.08-.251-.1573-.523-.232-.816-.0747.299-.1547.576-.24.832-.08.251-.1573.469-.232.656l-1.248 3.536zm4.032 4.408h-1.864c-.208 0-.3787-.048-.512-.144-.128-.101-.224-.229-.288-.384l-.784-2.216h-4.624l-.784 2.216c-.0533.133-.1467.256-.28.368-.1333.107-.3013.16-.504.16h-1.88l4.536-11.608h2.456zm9.1498-9.672h-3.392v9.672h-2.408v-9.672h-3.392v-1.936h9.192zm4.8562-.056v2.984h3.872v1.816h-3.872v3.048h4.976v1.88h-7.392v-11.608h7.392v1.88zm17.3204 7.808c.3893 0 .7386-.064 1.048-.192.3093-.133.5706-.32.784-.56.2133-.24.376-.531.488-.872s.168-.725.168-1.152v-6.912h2.3996v6.912c0 .704-.114 1.352-.344 1.944-.224.587-.546 1.093-.968 1.52-.421.427-.933.76-1.5356 1-.6027.24-1.2827.36-2.04.36-.7574 0-1.44-.12-2.048-.36-.6027-.24-1.1147-.573-1.536-1-.4214-.427-.7467-.933-.976-1.52-.224-.592-.336-1.24-.336-1.944v-6.912h2.4v6.912c0 .427.056.811.168 1.152s.2746.632.488.872c.2133.24.4746.427.784.56.3093.128.6613.192 1.056.192zm14.4576-7.464c-.074.123-.152.213-.232.272-.074.053-.173.08-.296.08-.117 0-.245-.04-.384-.12-.133-.085-.29-.176-.472-.272-.181-.096-.389-.184-.624-.264-.234-.085-.509-.128-.824-.128-.554 0-.97.125-1.248.376-.277.245-.416.568-.416.968 0 .256.075.469.224.64.155.165.355.309.6.432.251.123.534.232.848.328.315.096.638.203.968.32.331.112.654.245.968.4.315.155.595.349.84.584.251.235.451.523.6.864.155.336.232.747.232 1.232 0 .528-.093 1.024-.28 1.488-.181.459-.445.861-.792 1.208-.346.341-.776.611-1.288.808-.506.197-1.082.296-1.728.296-.368 0-.736-.037-1.104-.112-.362-.075-.714-.179-1.056-.312-.336-.133-.653-.293-.952-.48-.298-.187-.56-.395-.784-.624l.704-1.136c.059-.085.136-.155.232-.208.096-.059.198-.088.304-.088.144 0 .296.053.456.16s.344.224.552.352.448.245.72.352c.278.107.608.16.992.16.56 0 .992-.128 1.296-.384.31-.256.464-.637.464-1.144 0-.293-.077-.531-.232-.712-.149-.181-.346-.333-.592-.456-.245-.123-.525-.227-.84-.312-.314-.091-.637-.189-.968-.296-.33-.107-.653-.235-.968-.384-.314-.149-.594-.347-.84-.592-.245-.245-.445-.549-.6-.912-.149-.363-.224-.813-.224-1.352 0-.432.086-.851.256-1.256.171-.405.422-.765.752-1.08.331-.315.736-.568 1.216-.76.486-.192 1.04-.288 1.664-.288.699 0 1.344.109 1.936.328.598.213 1.102.512 1.512.896zm5.941-.344v2.984h3.872v1.816h-3.872v3.048h4.976v1.88h-7.392v-11.608h7.392v1.88zm11.403 3.616c.39 0 .726-.048 1.008-.144.283-.101.515-.237.696-.408.182-.176.315-.381.4-.616.086-.235.128-.491.128-.768 0-.549-.184-.976-.552-1.28-.362-.304-.917-.456-1.664-.456h-1.248v3.672zm5.624 6.112h-2.168c-.405 0-.698-.155-.88-.464l-2.208-3.56c-.09-.139-.192-.24-.304-.304-.106-.064-.266-.096-.48-.096h-.816v4.424h-2.4v-11.608h3.648c.811 0 1.504.085 2.08.256.576.165 1.048.397 1.416.696s.638.656.808 1.072c.171.411.256.864.256 1.36 0 .384-.056.749-.168 1.096-.106.341-.264.653-.472.936s-.464.533-.768.752-.65.395-1.04.528c.155.085.299.189.432.312.134.117.254.259.36.424zm12.079-11.608v11.608h-1.24c-.187 0-.344-.029-.472-.088-.128-.064-.253-.171-.376-.32l-5.784-7.36c.016.187.027.371.032.552.011.181.016.349.016.504v6.712h-2.12v-11.608h1.264c.101 0 .187.005.256.016.075.005.141.024.2.056.059.027.115.064.168.112s.112.112.176.192l5.824 7.392c-.021-.203-.037-.397-.048-.584-.011-.192-.016-.373-.016-.544v-6.64zm9.559 7.2-1.256-3.552c-.075-.187-.155-.405-.24-.656-.08-.251-.157-.523-.232-.816-.075.299-.155.576-.24.832-.08.251-.157.469-.232.656l-1.248 3.536zm4.032 4.408h-1.864c-.208 0-.379-.048-.512-.144-.128-.101-.224-.229-.288-.384l-.784-2.216h-4.624l-.784 2.216c-.053.133-.147.256-.28.368-.133.107-.301.16-.504.16h-1.88l4.536-11.608h2.456zm14.874-11.608v11.608h-2.12v-7.128c0-.149.003-.309.008-.48.011-.171.027-.344.048-.52l-3.32 6.296c-.181.347-.461.52-.84.52h-.336c-.186 0-.352-.043-.496-.128-.144-.091-.258-.221-.344-.392l-3.336-6.32c.016.187.03.368.04.544.011.171.016.331.016.48v7.128h-2.12v-11.608h1.824c.102 0 .192.003.272.008s.15.021.208.048c.064.021.12.059.168.112.054.048.104.117.152.208l3.248 6.192c.102.187.195.379.28.576.091.197.176.4.256.608.08-.213.163-.421.248-.624.091-.203.187-.397.288-.584l3.224-6.168c.048-.091.099-.16.152-.208.054-.053.11-.091.168-.112.064-.027.134-.043.208-.048.08-.005.174-.008.28-.008zm5.835 1.88v2.984h3.872v1.816h-3.872v3.048h4.976v1.88h-7.392v-11.608h7.392v1.88z"/><path d="m37.089 291.587-.308.525-1.211-.7c-.084-.051-.1587-.103-.224-.154s-.1237-.117-.175-.196c.0747.154.112.324.112.511v1.386h-.616v-1.379c0-.093.0047-.18.014-.259.014-.079.0397-.156.077-.231-.0513.065-.1073.124-.168.175s-.1307.1-.21.147l-1.204.693-.308-.525 1.204-.7c.1773-.107.3547-.163.532-.168-.0933-.009-.1843-.026-.273-.049-.084-.028-.1703-.07-.259-.126l-1.211-.707.308-.525 1.211.7c.084.051.1587.105.224.161s.1237.124.175.203c-.0747-.163-.112-.338-.112-.525v-1.386h.616v1.379c0 .093-.007.182-.021.266-.0093.079-.0327.156-.07.231.0513-.065.1073-.124.168-.175s.1307-.103.21-.154l1.204-.693.308.525-1.204.7c-.0793.051-.1587.091-.238.119s-.1633.047-.252.056c.0887.009.1727.028.252.056.0793.023.1587.061.238.112zm6.9473 0-.308.525-1.211-.7c-.084-.051-.1587-.103-.224-.154-.0654-.051-.1237-.117-.175-.196.0746.154.112.324.112.511v1.386h-.616v-1.379c0-.093.0046-.18.014-.259.014-.079.0396-.156.077-.231-.0514.065-.1074.124-.168.175-.0607.051-.1307.1-.21.147l-1.204.693-.308-.525 1.204-.7c.1773-.107.3546-.163.532-.168-.0934-.009-.1844-.026-.273-.049-.084-.028-.1704-.07-.259-.126l-1.211-.707.308-.525 1.211.7c.084.051.1586.105.224.161.0653.056.1236.124.175.203-.0747-.163-.112-.338-.112-.525v-1.386h.616v1.379c0 .093-.007.182-.021.266-.0094.079-.0327.156-.07.231.0513-.065.1073-.124.168-.175.0606-.051.1306-.103.21-.154l1.204-.693.308.525-1.204.7c-.0794.051-.1587.091-.238.119-.0794.028-.1634.047-.252.056.0886.009.1726.028.252.056.0793.023.1586.061.238.112zm6.9472 0-.308.525-1.211-.7c-.084-.051-.1586-.103-.224-.154-.0653-.051-.1236-.117-.175-.196.0747.154.112.324.112.511v1.386h-.616v-1.379c0-.093.0047-.18.014-.259.014-.079.0397-.156.077-.231-.0513.065-.1073.124-.168.175-.0606.051-.1306.1-.21.147l-1.204.693-.308-.525 1.204-.7c.1774-.107.3547-.163.532-.168-.0933-.009-.1843-.026-.273-.049-.084-.028-.1703-.07-.259-.126l-1.211-.707.308-.525 1.211.7c.084.051.1587.105.224.161.0654.056.1237.124.175.203-.0746-.163-.112-.338-.112-.525v-1.386h.616v1.379c0 .093-.007.182-.021.266-.0093.079-.0326.156-.07.231.0514-.065.1074-.124.168-.175.0607-.051.1307-.103.21-.154l1.204-.693.308.525-1.204.7c-.0793.051-.1586.091-.238.119-.0793.028-.1633.047-.252.056.0887.009.1727.028.252.056.0794.023.1587.061.238.112zm6.9473 0-.308.525-1.211-.7c-.084-.051-.1587-.103-.224-.154s-.1237-.117-.175-.196c.0747.154.112.324.112.511v1.386h-.616v-1.379c0-.093.0047-.18.014-.259.014-.079.0397-.156.077-.231-.0513.065-.1073.124-.168.175s-.1307.1-.21.147l-1.204.693-.308-.525 1.204-.7c.1773-.107.3547-.163.532-.168-.0933-.009-.1843-.026-.273-.049-.084-.028-.1703-.07-.259-.126l-1.211-.707.308-.525 1.211.7c.084.051.1587.105.224.161s.1237.124.175.203c-.0747-.163-.112-.338-.112-.525v-1.386h.616v1.379c0 .093-.007.182-.021.266-.0093.079-.0327.156-.07.231.0513-.065.1073-.124.168-.175s.1307-.103.21-.154l1.204-.693.308.525-1.204.7c-.0793.051-.1587.091-.238.119s-.1633.047-.252.056c.0887.009.1727.028.252.056.0793.023.1587.061.238.112zm6.9473 0-.308.525-1.211-.7c-.084-.051-.1587-.103-.224-.154-.0654-.051-.1237-.117-.175-.196.0746.154.112.324.112.511v1.386h-.616v-1.379c0-.093.0046-.18.014-.259.014-.079.0396-.156.077-.231-.0514.065-.1074.124-.168.175-.0607.051-.1307.1-.21.147l-1.204.693-.308-.525 1.204-.7c.1773-.107.3546-.163.532-.168-.0934-.009-.1844-.026-.273-.049-.084-.028-.1704-.07-.259-.126l-1.211-.707.308-.525 1.211.7c.084.051.1586.105.224.161.0653.056.1236.124.175.203-.0747-.163-.112-.338-.112-.525v-1.386h.616v1.379c0 .093-.007.182-.021.266-.0094.079-.0327.156-.07.231.0513-.065.1073-.124.168-.175.0606-.051.1306-.103.21-.154l1.204-.693.308.525-1.204.7c-.0794.051-.1587.091-.238.119-.0794.028-.1634.047-.252.056.0886.009.1726.028.252.056.0793.023.1586.061.238.112zm6.9472 0-.308.525-1.211-.7c-.084-.051-.1586-.103-.224-.154-.0653-.051-.1236-.117-.175-.196.0747.154.112.324.112.511v1.386h-.616v-1.379c0-.093.0047-.18.014-.259.014-.079.0397-.156.077-.231-.0513.065-.1073.124-.168.175-.0606.051-.1306.1-.21.147l-1.204.693-.308-.525 1.204-.7c.1774-.107.3547-.163.532-.168-.0933-.009-.1843-.026-.273-.049-.084-.028-.1703-.07-.259-.126l-1.211-.707.308-.525 1.211.7c.084.051.1587.105.224.161.0654.056.1237.124.175.203-.0746-.163-.112-.338-.112-.525v-1.386h.616v1.379c0 .093-.007.182-.021.266-.0093.079-.0326.156-.07.231.0514-.065.1074-.124.168-.175.0607-.051.1307-.103.21-.154l1.204-.693.308.525-1.204.7c-.0793.051-.1586.091-.238.119-.0793.028-.1633.047-.252.056.0887.009.1727.028.252.056.0794.023.1587.061.238.112zm6.9473 0-.308.525-1.211-.7c-.084-.051-.1587-.103-.224-.154s-.1237-.117-.175-.196c.0747.154.112.324.112.511v1.386h-.616v-1.379c0-.093.0047-.18.014-.259.014-.079.0397-.156.077-.231-.0513.065-.1073.124-.168.175s-.1307.1-.21.147l-1.204.693-.308-.525 1.204-.7c.1773-.107.3547-.163.532-.168-.0933-.009-.1843-.026-.273-.049-.084-.028-.1703-.07-.259-.126l-1.211-.707.308-.525 1.211.7c.084.051.1587.105.224.161s.1237.124.175.203c-.0747-.163-.112-.338-.112-.525v-1.386h.616v1.379c0 .093-.007.182-.021.266-.0093.079-.0327.156-.07.231.0513-.065.1073-.124.168-.175s.1307-.103.21-.154l1.204-.693.308.525-1.204.7c-.0793.051-.1587.091-.238.119s-.1633.047-.252.056c.0887.009.1727.028.252.056.0793.023.1587.061.238.112zm6.9473 0-.308.525-1.211-.7c-.084-.051-.1587-.103-.224-.154-.0654-.051-.1237-.117-.175-.196.0746.154.112.324.112.511v1.386h-.616v-1.379c0-.093.0046-.18.014-.259.014-.079.0396-.156.077-.231-.0514.065-.1074.124-.168.175-.0607.051-.1307.1-.21.147l-1.204.693-.308-.525 1.204-.7c.1773-.107.3546-.163.532-.168-.0934-.009-.1844-.026-.273-.049-.084-.028-.1704-.07-.259-.126l-1.211-.707.308-.525 1.211.7c.084.051.1586.105.224.161.0653.056.1236.124.175.203-.0747-.163-.112-.338-.112-.525v-1.386h.616v1.379c0 .093-.007.182-.021.266-.0094.079-.0327.156-.07.231.0513-.065.1073-.124.168-.175.0606-.051.1306-.103.21-.154l1.204-.693.308.525-1.204.7c-.0794.051-.1587.091-.238.119-.0794.028-.1634.047-.252.056.0886.009.1726.028.252.056.0793.023.1586.061.238.112zm6.9472 0-.308.525-1.211-.7c-.084-.051-.1586-.103-.224-.154-.0653-.051-.1236-.117-.175-.196.0747.154.112.324.112.511v1.386h-.616v-1.379c0-.093.0047-.18.014-.259.014-.079.0397-.156.077-.231-.0513.065-.1073.124-.168.175-.0606.051-.1306.1-.21.147l-1.204.693-.308-.525 1.204-.7c.1774-.107.3547-.163.532-.168-.0933-.009-.1843-.026-.273-.049-.084-.028-.1703-.07-.259-.126l-1.211-.707.308-.525 1.211.7c.084.051.1587.105.224.161.0654.056.1237.124.175.203-.0746-.163-.112-.338-.112-.525v-1.386h.616v1.379c0 .093-.007.182-.021.266-.0093.079-.0326.156-.07.231.0514-.065.1074-.124.168-.175.0607-.051.1307-.103.21-.154l1.204-.693.308.525-1.204.7c-.0793.051-.1586.091-.238.119-.0793.028-.1633.047-.252.056.0887.009.1727.028.252.056.0794.023.1587.061.238.112zm6.9473 0-.308.525-1.211-.7c-.084-.051-.1587-.103-.224-.154s-.1237-.117-.175-.196c.0747.154.112.324.112.511v1.386h-.616v-1.379c0-.093.0047-.18.014-.259.014-.079.0397-.156.077-.231-.0513.065-.1073.124-.168.175s-.1307.1-.21.147l-1.204.693-.308-.525 1.204-.7c.1773-.107.3547-.163.532-.168-.0933-.009-.1843-.026-.273-.049-.084-.028-.1703-.07-.259-.126l-1.211-.707.308-.525 1.211.7c.084.051.1587.105.224.161s.1237.124.175.203c-.0747-.163-.112-.338-.112-.525v-1.386h.616v1.379c0 .093-.007.182-.021.266-.0093.079-.0327.156-.07.231.0513-.065.1073-.124.168-.175s.1307-.103.21-.154l1.204-.693.308.525-1.204.7c-.0793.051-.1587.091-.238.119s-.1633.047-.252.056c.0887.009.1727.028.252.056.0793.023.1587.061.238.112zm6.9476 0-.308.525-1.211-.7c-.084-.051-.159-.103-.224-.154-.066-.051-.124-.117-.175-.196.074.154.112.324.112.511v1.386h-.616v-1.379c0-.093.004-.18.014-.259.014-.079.039-.156.077-.231-.052.065-.108.124-.168.175-.061.051-.131.1-.21.147l-1.204.693-.308-.525 1.204-.7c.177-.107.354-.163.532-.168-.094-.009-.185-.026-.273-.049-.084-.028-.171-.07-.259-.126l-1.211-.707.308-.525 1.211.7c.084.051.158.105.224.161.065.056.123.124.175.203-.075-.163-.112-.338-.112-.525v-1.386h.616v1.379c0 .093-.007.182-.021.266-.01.079-.033.156-.07.231.051-.065.107-.124.168-.175.06-.051.13-.103.21-.154l1.204-.693.308.525-1.204.7c-.08.051-.159.091-.238.119-.08.028-.164.047-.252.056.088.009.172.028.252.056.079.023.158.061.238.112zm6.947 0-.308.525-1.211-.7c-.084-.051-.159-.103-.224-.154s-.124-.117-.175-.196c.075.154.112.324.112.511v1.386h-.616v-1.379c0-.093.005-.18.014-.259.014-.079.04-.156.077-.231-.051.065-.107.124-.168.175s-.131.1-.21.147l-1.204.693-.308-.525 1.204-.7c.177-.107.355-.163.532-.168-.093-.009-.184-.026-.273-.049-.084-.028-.17-.07-.259-.126l-1.211-.707.308-.525 1.211.7c.084.051.159.105.224.161s.124.124.175.203c-.075-.163-.112-.338-.112-.525v-1.386h.616v1.379c0 .093-.007.182-.021.266-.009.079-.033.156-.07.231.051-.065.107-.124.168-.175s.131-.103.21-.154l1.204-.693.308.525-1.204.7c-.079.051-.159.091-.238.119s-.163.047-.252.056c.089.009.173.028.252.056.079.023.159.061.238.112z"/><path d="m30.12 256.144c.1333 0 .2453.048.336.144l.952 1.016c-.4693.597-1.0533 1.051-1.752 1.36-.6933.309-1.52.464-2.48.464-.8693 0-1.6507-.147-2.344-.44-.6933-.299-1.2827-.712-1.768-1.24s-.8587-1.155-1.12-1.88-.392-1.517-.392-2.376c0-.576.0613-1.123.184-1.64.128-.523.312-1.003.552-1.44s.528-.832.864-1.184c.3413-.352.7253-.651 1.152-.896.4267-.251.8907-.44 1.392-.568.5067-.133 1.0453-.2 1.616-.2.4267 0 .8293.037 1.208.112.384.075.7413.179 1.072.312s.6347.296.912.488c.2827.187.536.392.76.616l-.808 1.104c-.048.069-.1093.131-.184.184s-.176.08-.304.08-.2587-.045-.392-.136c-.128-.091-.288-.192-.48-.304-.1867-.112-.424-.213-.712-.304-.2827-.091-.6427-.136-1.08-.136-.4853 0-.9307.088-1.336.264s-.7547.432-1.048.768c-.288.331-.512.739-.672 1.224s-.24 1.037-.24 1.656c0 .624.0853 1.181.256 1.672.176.485.4133.896.712 1.232.304.336.656.592 1.056.768.4053.171.8373.256 1.296.256.272 0 .5173-.013.736-.04.224-.027.4293-.072.616-.136.192-.064.3707-.147.536-.248.1707-.101.3413-.229.512-.384.0587-.048.12-.088.184-.12s.1333-.048.208-.048zm7.2749-3.256c.3893 0 .7253-.048 1.008-.144.2826-.101.5146-.237.696-.408.1813-.176.3146-.381.4-.616.0853-.235.128-.491.128-.768 0-.549-.184-.976-.552-1.28-.3627-.304-.9174-.456-1.664-.456h-1.248v3.672zm5.624 6.112h-2.168c-.4054 0-.6987-.155-.88-.464l-2.208-3.56c-.0907-.139-.192-.24-.304-.304-.1067-.064-.2667-.096-.48-.096h-.816v4.424h-2.4v-11.608h3.648c.8106 0 1.504.085 2.08.256.576.165 1.048.397 1.416.696s.6373.656.808 1.072c.1706.411.256.864.256 1.36 0 .384-.056.749-.168 1.096-.1067.341-.264.653-.472.936s-.464.533-.768.752-.6507.395-1.04.528c.1546.085.2986.189.432.312.1333.117.2533.259.36.424zm4.5506-9.728v2.984h3.872v1.816h-3.872v3.048h4.976v1.88h-7.392v-11.608h7.392v1.88zm13.8995 5.32-1.256-3.552c-.0747-.187-.1547-.405-.24-.656-.08-.251-.1573-.523-.232-.816-.0747.299-.1547.576-.24.832-.08.251-.1573.469-.232.656l-1.248 3.536zm4.032 4.408h-1.864c-.208 0-.3787-.048-.512-.144-.128-.101-.224-.229-.288-.384l-.784-2.216h-4.624l-.784 2.216c-.0533.133-.1467.256-.28.368-.1333.107-.3013.16-.504.16h-1.88l4.536-11.608h2.456zm9.1498-9.672h-3.392v9.672h-2.408v-9.672h-3.392v-1.936h9.192zm4.8562-.056v2.984h3.872v1.816h-3.872v3.048h4.976v1.88h-7.392v-11.608h7.392v1.88zm16.4884 3.896c.752 0 1.3013-.181 1.648-.544.352-.363.528-.859.528-1.488 0-.288-.0454-.549-.136-.784-.0854-.24-.2187-.443-.4-.608-.176-.171-.4-.301-.672-.392s-.5947-.136-.968-.136h-1.52v3.952zm0-5.776c.7946 0 1.48.093 2.056.28.5813.187 1.0586.448 1.432.784.3733.331.6476.725.8236 1.184.182.459.272.957.272 1.496 0 .571-.093 1.093-.28 1.568-.186.475-.469.883-.8476 1.224-.3787.341-.856.608-1.432.8-.576.187-1.2507.28-2.024.28h-1.52v3.992h-2.4v-11.608zm12.4266 7.2-1.256-3.552c-.075-.187-.155-.405-.24-.656-.08-.251-.157-.523-.232-.816-.075.299-.155.576-.24.832-.08.251-.157.469-.232.656l-1.248 3.536zm4.032 4.408h-1.864c-.208 0-.379-.048-.512-.144-.128-.101-.224-.229-.288-.384l-.784-2.216h-4.624l-.784 2.216c-.053.133-.147.256-.28.368-.133.107-.301.16-.504.16h-1.88l4.536-11.608h2.456zm8.363-9.384c-.075.123-.152.213-.232.272-.075.053-.174.08-.296.08-.118 0-.246-.04-.384-.12-.134-.085-.291-.176-.472-.272-.182-.096-.39-.184-.624-.264-.235-.085-.51-.128-.824-.128-.555 0-.971.125-1.248.376-.278.245-.416.568-.416.968 0 .256.074.469.224.64.154.165.354.309.6.432.25.123.533.232.848.328.314.096.637.203.968.32.33.112.653.245.968.4.314.155.594.349.84.584.25.235.45.523.6.864.154.336.232.747.232 1.232 0 .528-.094 1.024-.28 1.488-.182.459-.446.861-.792 1.208-.347.341-.776.611-1.288.808-.507.197-1.083.296-1.728.296-.368 0-.736-.037-1.104-.112-.363-.075-.715-.179-1.056-.312-.336-.133-.654-.293-.952-.48-.299-.187-.56-.395-.784-.624l.704-1.136c.058-.085.136-.155.232-.208.096-.059.197-.088.304-.088.144 0 .296.053.455.16.161.107.345.224.553.352s.448.245.72.352c.277.107.608.16.992.16.56 0 .992-.128 1.296-.384.309-.256.464-.637.464-1.144 0-.293-.078-.531-.232-.712-.15-.181-.347-.333-.592-.456-.246-.123-.526-.227-.84-.312-.315-.091-.638-.189-.968-.296-.331-.107-.654-.235-.968-.384-.315-.149-.595-.347-.84-.592-.246-.245-.446-.549-.6-.912-.15-.363-.224-.813-.224-1.352 0-.432.085-.851.256-1.256.17-.405.421-.765.752-1.08.33-.315.736-.568 1.216-.76.485-.192 1.04-.288 1.664-.288.698 0 1.344.109 1.936.328.597.213 1.101.512 1.512.896zm9.812 0c-.075.123-.152.213-.232.272-.075.053-.173.08-.296.08-.117 0-.245-.04-.384-.12-.133-.085-.291-.176-.472-.272s-.389-.184-.624-.264c-.235-.085-.509-.128-.824-.128-.555 0-.971.125-1.248.376-.277.245-.416.568-.416.968 0 .256.075.469.224.64.155.165.355.309.6.432.251.123.533.232.848.328s.637.203.968.32c.331.112.653.245.968.4s.595.349.84.584c.251.235.451.523.6.864.155.336.232.747.232 1.232 0 .528-.093 1.024-.28 1.488-.181.459-.445.861-.792 1.208-.347.341-.776.611-1.288.808-.507.197-1.083.296-1.728.296-.368 0-.736-.037-1.104-.112-.363-.075-.715-.179-1.056-.312-.336-.133-.653-.293-.952-.48s-.56-.395-.784-.624l.704-1.136c.059-.085.136-.155.232-.208.096-.059.197-.088.304-.088.144 0 .296.053.456.16s.344.224.552.352.448.245.72.352c.277.107.608.16.992.16.56 0 .992-.128 1.296-.384.309-.256.464-.637.464-1.144 0-.293-.077-.531-.232-.712-.149-.181-.347-.333-.592-.456s-.525-.227-.84-.312c-.315-.091-.637-.189-.968-.296s-.653-.235-.968-.384-.595-.347-.84-.592-.445-.549-.6-.912c-.149-.363-.224-.813-.224-1.352 0-.432.085-.851.256-1.256s.421-.765.752-1.08.736-.568 1.216-.76c.485-.192 1.04-.288 1.664-.288.699 0 1.344.109 1.936.328.597.213 1.101.512 1.512.896zm19.047-2.224-3.6 11.608h-2.168l-2.376-7.592c-.038-.107-.075-.224-.112-.352-.038-.128-.072-.264-.104-.408-.032.144-.067.28-.104.408-.038.128-.075.245-.112.352l-2.4 7.592h-2.176l-3.592-11.608h2.016c.208 0 .381.048.52.144.144.096.237.224.28.384l1.8 6.544c.042.181.085.379.128.592.048.208.093.429.136.664.048-.24.098-.464.152-.672.053-.208.112-.403.176-.584l2.096-6.544c.042-.133.133-.253.272-.36.144-.112.317-.168.52-.168h.704c.208 0 .376.051.504.152.133.096.232.221.296.376l2.088 6.544c.064.171.122.357.176.56.053.197.104.408.152.632.042-.224.082-.435.12-.632.042-.203.085-.389.128-.56l1.8-6.544c.037-.139.128-.261.272-.368s.317-.16.52-.16zm13.256 5.8c0 .848-.144 1.635-.432 2.36-.283.725-.685 1.352-1.208 1.88-.517.528-1.141.944-1.872 1.248-.731.299-1.541.448-2.432.448s-1.701-.149-2.432-.448c-.731-.304-1.357-.72-1.88-1.248s-.928-1.155-1.216-1.88c-.283-.725-.424-1.512-.424-2.36s.141-1.632.424-2.352c.288-.725.693-1.352 1.216-1.88s1.149-.941 1.88-1.24c.731-.304 1.541-.456 2.432-.456s1.701.152 2.432.456c.731.299 1.355.715 1.872 1.248.523.528.925 1.155 1.208 1.88.288.72.432 1.501.432 2.344zm-2.456 0c0-.608-.08-1.152-.24-1.632-.16-.485-.392-.896-.696-1.232-.299-.341-.664-.6-1.096-.776-.427-.181-.912-.272-1.456-.272s-1.032.091-1.464.272c-.432.176-.8.435-1.104.776-.299.336-.528.747-.688 1.232-.16.48-.24 1.024-.24 1.632 0 .613.08 1.163.24 1.648.16.48.389.888.688 1.224.304.336.672.595 1.104.776.432.176.92.264 1.464.264s1.029-.088 1.456-.264c.432-.181.797-.44 1.096-.776.304-.336.536-.744.696-1.224.16-.485.24-1.035.24-1.648zm8.841-.304c.389 0 .725-.048 1.008-.144.282-.101.514-.237.696-.408.181-.176.314-.381.4-.616.085-.235.128-.491.128-.768 0-.549-.184-.976-.552-1.28-.363-.304-.918-.456-1.664-.456h-1.248v3.672zm5.624 6.112h-2.168c-.406 0-.699-.155-.88-.464l-2.208-3.56c-.091-.139-.192-.24-.304-.304-.107-.064-.267-.096-.48-.096h-.816v4.424h-2.4v-11.608h3.648c.81 0 1.504.085 2.08.256.576.165 1.048.397 1.416.696s.637.656.808 1.072c.17.411.256.864.256 1.36 0 .384-.056.749-.168 1.096-.107.341-.264.653-.472.936s-.464.533-.768.752-.651.395-1.04.528c.154.085.298.189.432.312.133.117.253.259.36.424zm12.542-5.808c0 .848-.144 1.629-.432 2.344-.282.709-.685 1.32-1.208 1.832-.517.512-1.141.912-1.872 1.2-.73.288-1.541.432-2.432.432h-4.464v-11.608h4.464c.891 0 1.702.144 2.432.432.731.288 1.355.691 1.872 1.208.523.512.926 1.123 1.208 1.832.288.709.432 1.485.432 2.328zm-2.464 0c0-.608-.08-1.155-.24-1.64s-.389-.896-.688-1.232c-.298-.336-.664-.595-1.096-.776-.426-.181-.912-.272-1.456-.272h-2.048v7.848h2.048c.544 0 1.03-.088 1.456-.264.432-.181.798-.44 1.096-.776.299-.341.528-.755.688-1.24s.24-1.035.24-1.648z"/></g><path d="m24.632 348.272v2.984h3.872v1.816h-3.872v3.048h4.976v1.88h-7.392v-11.608h7.392v1.88zm17.7155-1.88v11.608h-1.24c-.1867 0-.344-.029-.472-.088-.128-.064-.2533-.171-.376-.32l-5.784-7.36c.016.187.0267.371.032.552.0107.181.016.349.016.504v6.712h-2.12v-11.608h1.264c.1013 0 .1867.005.256.016.0747.005.1413.024.2.056.0587.027.1147.064.168.112s.112.112.176.192l5.824 7.392c-.0213-.203-.0373-.397-.048-.584-.0107-.192-.016-.373-.016-.544v-6.64zm11.647 1.936h-3.392v9.672h-2.408v-9.672h-3.392v-1.936h9.192zm4.8563-.056v2.984h3.872v1.816h-3.872v3.048h4.976v1.88h-7.392v-11.608h7.392v1.88zm11.4035 3.616c.3893 0 .7253-.048 1.008-.144.2826-.101.5146-.237.696-.408.1813-.176.3146-.381.4-.616.0853-.235.128-.491.128-.768 0-.549-.184-.976-.552-1.28-.3627-.304-.9174-.456-1.664-.456h-1.248v3.672zm5.624 6.112h-2.168c-.4054 0-.6987-.155-.88-.464l-2.208-3.56c-.0907-.139-.192-.24-.304-.304-.1067-.064-.2667-.096-.48-.096h-.816v4.424h-2.4v-11.608h3.648c.8106 0 1.504.085 2.08.256.576.165 1.048.397 1.416.696s.6373.656.808 1.072c.1706.411.256.864.256 1.36 0 .384-.056.749-.168 1.096-.1067.341-.264.653-.472.936s-.464.533-.768.752-.6507.395-1.04.528c.1546.085.2986.189.432.312.1333.117.2533.259.36.424zm9.3475-9.728v2.984h3.872v1.816h-3.872v3.048h4.976v1.88h-7.392v-11.608h7.392v1.88zm7.4275 3.976h4.224v1.808h-4.224zm20.1127-5.856v11.608h-2.12v-7.128c0-.149.003-.309.008-.48.011-.171.027-.344.048-.52l-3.32 6.296c-.181.347-.461.52-.84.52h-.336c-.187 0-.352-.043-.496-.128-.144-.091-.259-.221-.344-.392l-3.336-6.32c.016.187.029.368.04.544.011.171.016.331.016.48v7.128h-2.12v-11.608h1.824c.101 0 .192.003.272.008s.149.021.208.048c.064.021.12.059.168.112.053.048.104.117.152.208l3.248 6.192c.101.187.195.379.28.576.091.197.176.4.256.608.08-.213.163-.421.248-.624.091-.203.187-.397.288-.584l3.224-6.168c.048-.091.099-.16.152-.208.053-.053.109-.091.168-.112.064-.027.133-.043.208-.048.08-.005.173-.008.28-.008zm9.547 7.2-1.256-3.552c-.075-.187-.155-.405-.24-.656-.08-.251-.158-.523-.232-.816-.075.299-.155.576-.24.832-.08.251-.158.469-.232.656l-1.248 3.536zm4.032 4.408h-1.864c-.208 0-.379-.048-.512-.144-.128-.101-.224-.229-.288-.384l-.784-2.216h-4.624l-.784 2.216c-.054.133-.147.256-.28.368-.134.107-.302.16-.504.16h-1.88l4.536-11.608h2.456zm4.49 0h-2.416v-11.608h2.416zm10.316-1.952v1.952h-6.888v-11.608h2.4v9.656zm12.365-2.456-1.256-3.552c-.075-.187-.155-.405-.24-.656-.08-.251-.157-.523-.232-.816-.075.299-.155.576-.24.832-.08.251-.157.469-.232.656l-1.248 3.536zm4.032 4.408h-1.864c-.208 0-.379-.048-.512-.144-.128-.101-.224-.229-.288-.384l-.784-2.216h-4.624l-.784 2.216c-.053.133-.147.256-.28.368-.133.107-.301.16-.504.16h-1.88l4.536-11.608h2.456zm12.482-5.808c0 .848-.144 1.629-.432 2.344-.282.709-.685 1.32-1.208 1.832-.517.512-1.141.912-1.872 1.2-.73.288-1.541.432-2.432.432h-4.464v-11.608h4.464c.891 0 1.702.144 2.432.432.731.288 1.355.691 1.872 1.208.523.512.926 1.123 1.208 1.832.288.709.432 1.485.432 2.328zm-2.464 0c0-.608-.08-1.155-.24-1.64s-.389-.896-.688-1.232c-.298-.336-.664-.595-1.096-.776-.426-.181-.912-.272-1.456-.272h-2.048v7.848h2.048c.544 0 1.03-.088 1.456-.264.432-.181.798-.44 1.096-.776.299-.341.528-.755.688-1.24s.24-1.035.24-1.648zm15.636 0c0 .848-.144 1.629-.432 2.344-.283.709-.685 1.32-1.208 1.832-.517.512-1.141.912-1.872 1.2s-1.541.432-2.432.432h-4.464v-11.608h4.464c.891 0 1.701.144 2.432.432s1.355.691 1.872 1.208c.523.512.925 1.123 1.208 1.832.288.709.432 1.485.432 2.328zm-2.464 0c0-.608-.08-1.155-.24-1.64s-.389-.896-.688-1.232-.664-.595-1.096-.776c-.427-.181-.912-.272-1.456-.272h-2.048v7.848h2.048c.544 0 1.029-.088 1.456-.264.432-.181.797-.44 1.096-.776.299-.341.528-.755.688-1.24s.24-1.035.24-1.648zm8.86-.304c.389 0 .725-.048 1.008-.144.283-.101.515-.237.696-.408.181-.176.315-.381.4-.616s.128-.491.128-.768c0-.549-.184-.976-.552-1.28-.363-.304-.917-.456-1.664-.456h-1.248v3.672zm5.624 6.112h-2.168c-.405 0-.699-.155-.88-.464l-2.208-3.56c-.091-.139-.192-.24-.304-.304-.107-.064-.267-.096-.48-.096h-.816v4.424h-2.4v-11.608h3.648c.811 0 1.504.085 2.08.256.576.165 1.048.397 1.416.696s.637.656.808 1.072c.171.411.256.864.256 1.36 0 .384-.056.749-.168 1.096-.107.341-.264.653-.472.936s-.464.533-.768.752-.651.395-1.04.528c.155.085.299.189.432.312.133.117.253.259.36.424zm4.551-9.728v2.984h3.872v1.816h-3.872v3.048h4.976v1.88h-7.392v-11.608h7.392v1.88zm14.059.344c-.075.123-.152.213-.232.272-.075.053-.173.08-.296.08-.117 0-.245-.04-.384-.12-.133-.085-.291-.176-.472-.272s-.389-.184-.624-.264c-.235-.085-.509-.128-.824-.128-.555 0-.971.125-1.248.376-.277.245-.416.568-.416.968 0 .256.075.469.224.64.155.165.355.309.6.432.251.123.533.232.848.328s.637.203.968.32c.331.112.653.245.968.4s.595.349.84.584c.251.235.451.523.6.864.155.336.232.747.232 1.232 0 .528-.093 1.024-.28 1.488-.181.459-.445.861-.792 1.208-.347.341-.776.611-1.288.808-.507.197-1.083.296-1.728.296-.368 0-.736-.037-1.104-.112-.363-.075-.715-.179-1.056-.312-.336-.133-.653-.293-.952-.48s-.56-.395-.784-.624l.704-1.136c.059-.085.136-.155.232-.208.096-.059.197-.088.304-.088.144 0 .296.053.456.16s.344.224.552.352.448.245.72.352c.277.107.608.16.992.16.56 0 .992-.128 1.296-.384.309-.256.464-.637.464-1.144 0-.293-.077-.531-.232-.712-.149-.181-.347-.333-.592-.456s-.525-.227-.84-.312c-.315-.091-.637-.189-.968-.296s-.653-.235-.968-.384-.595-.347-.84-.592-.445-.549-.6-.912c-.149-.363-.224-.813-.224-1.352 0-.432.085-.851.256-1.256s.421-.765.752-1.08.736-.568 1.216-.76c.485-.192 1.04-.288 1.664-.288.699 0 1.344.109 1.936.328.597.213 1.101.512 1.512.896zm9.813 0c-.075.123-.152.213-.232.272-.075.053-.174.08-.296.08-.118 0-.246-.04-.384-.12-.134-.085-.291-.176-.472-.272-.182-.096-.39-.184-.624-.264-.235-.085-.51-.128-.824-.128-.555 0-.971.125-1.248.376-.278.245-.416.568-.416.968 0 .256.074.469.224.64.154.165.354.309.6.432.25.123.533.232.848.328.314.096.637.203.968.32.33.112.653.245.968.4.314.155.594.349.84.584.25.235.45.523.6.864.154.336.232.747.232 1.232 0 .528-.094 1.024-.28 1.488-.182.459-.446.861-.792 1.208-.347.341-.776.611-1.288.808-.507.197-1.083.296-1.728.296-.368 0-.736-.037-1.104-.112-.363-.075-.715-.179-1.056-.312-.336-.133-.654-.293-.952-.48-.299-.187-.56-.395-.784-.624l.704-1.136c.058-.085.136-.155.232-.208.096-.059.197-.088.304-.088.144 0 .296.053.456.16s.344.224.552.352.448.245.72.352c.277.107.608.16.992.16.56 0 .992-.128 1.296-.384.309-.256.464-.637.464-1.144 0-.293-.078-.531-.232-.712-.15-.181-.347-.333-.592-.456-.246-.123-.526-.227-.84-.312-.315-.091-.638-.189-.968-.296-.331-.107-.654-.235-.968-.384-.315-.149-.595-.347-.84-.592-.246-.245-.446-.549-.6-.912-.15-.363-.224-.813-.224-1.352 0-.432.085-.851.256-1.256.17-.405.421-.765.752-1.08.33-.315.736-.568 1.216-.76.485-.192 1.04-.288 1.664-.288.698 0 1.344.109 1.936.328.597.213 1.101.512 1.512.896z" fill="#000"/><path d="m39.063 390.909-2.891 7.091h-1.12l-2.891-7.091h1.015c.1027 0 .1867.026.252.077s.1097.112.133.182l1.799 4.564c.056.173.105.341.147.504s.0817.327.119.49c.0373-.163.077-.327.119-.49s.0933-.331.154-.504l1.82-4.564c.028-.075.0747-.135.14-.182.0653-.051.1423-.077.231-.077zm3.4588 0v7.091h-1.246v-7.091zm.266-2.226c0 .121-.0257.236-.077.343-.0467.103-.112.196-.196.28-.0794.079-.175.142-.287.189-.1074.047-.2217.07-.343.07-.1214 0-.2357-.023-.343-.07-.1027-.047-.1937-.11-.273-.189-.0794-.084-.1424-.177-.189-.28-.0467-.107-.07-.222-.07-.343s.0233-.236.07-.343c.0466-.112.1096-.208.189-.287.0793-.084.1703-.149.273-.196.1073-.047.2216-.07.343-.07.1213 0 .2356.023.343.07.112.047.2076.112.287.196.084.079.1493.175.196.287.0513.107.077.222.077.343zm3.9572 3.255c.154-.173.3174-.329.49-.469.1727-.14.3547-.259.546-.357.196-.103.4014-.18.616-.231.2194-.056.455-.084.707-.084.3874 0 .728.065 1.022.196.2987.126.546.308.742.546.2007.233.3524.516.455.847.1027.331.154.698.154 1.099v4.515h-1.253v-4.515c0-.537-.1236-.952-.371-1.246-.2426-.299-.6136-.448-1.113-.448-.3686 0-.714.089-1.036.266-.3173.177-.6113.418-.882.721v5.222h-1.253v-7.091h.749c.1774 0 .287.086.329.259zm10.6197-1.141c.518 0 .9846.086 1.4.259.4153.173.77.418 1.064.735s.518.702.672 1.155c.1586.448.238.95.238 1.505 0 .56-.0794 1.064-.238 1.512-.154.448-.378.831-.672 1.148s-.6487.562-1.064.735c-.4154.168-.882.252-1.4.252-.5227 0-.994-.084-1.414-.252-.4154-.173-.77-.418-1.064-.735s-.5204-.7-.679-1.148c-.154-.448-.231-.952-.231-1.512 0-.555.077-1.057.231-1.505.1586-.453.385-.838.679-1.155s.6486-.562 1.064-.735c.42-.173.8913-.259 1.414-.259zm0 6.328c.7 0 1.2226-.233 1.568-.7.3453-.471.518-1.127.518-1.967 0-.845-.1727-1.503-.518-1.974-.3454-.471-.868-.707-1.568-.707-.3547 0-.665.061-.931.182-.2614.121-.4807.296-.658.525-.1727.229-.3034.511-.392.847-.084.331-.126.707-.126 1.127 0 .84.1726 1.496.518 1.967.35.467.8796.7 1.589.7zm11.8389-6.216-2.891 7.091h-1.12l-2.891-7.091h1.015c.1027 0 .1867.026.252.077.0654.051.1097.112.133.182l1.799 4.564c.056.173.105.341.147.504s.0817.327.119.49c.0374-.163.077-.327.119-.49s.0934-.331.154-.504l1.82-4.564c.028-.075.0747-.135.14-.182.0654-.051.1424-.077.231-.077zm6.6974 2.772c0-.289-.042-.553-.126-.791-.0794-.243-.1984-.45-.357-.623-.154-.177-.343-.313-.567-.406-.224-.098-.4784-.147-.763-.147-.5974 0-1.071.175-1.421.525-.3454.345-.56.826-.644 1.442zm1.008 3.325c-.154.187-.3384.35-.553.49-.2147.135-.4457.247-.693.336-.2427.089-.4947.154-.756.196-.2614.047-.5204.07-.777.07-.49 0-.9427-.082-1.358-.245-.4107-.168-.7677-.411-1.071-.728-.2987-.322-.532-.719-.7-1.19s-.252-1.013-.252-1.624c0-.495.0746-.957.224-1.386.154-.429.3733-.8.658-1.113.2846-.317.6323-.565 1.043-.742.4106-.182.8726-.273 1.386-.273.4246 0 .8166.072 1.176.217.364.14.6766.345.938.616.266.266.4736.597.623.994.1493.392.224.84.224 1.344 0 .196-.021.327-.063.392s-.1214.098-.238.098h-4.739c.014.448.0746.838.182 1.169.112.331.266.609.462.833.196.219.4293.385.7.497.2706.107.574.161.91.161.3126 0 .581-.035.805-.105.2286-.075.4246-.154.588-.238.1633-.084.2986-.161.406-.231.112-.075.2076-.112.287-.112.1026 0 .182.04.238.119zm3.8255-4.676c.224-.485.4993-.863.826-1.134.3266-.275.7256-.413 1.197-.413.1493 0 .2916.016.427.049.14.033.2636.084.371.154l-.091.931c-.028.117-.098.175-.21.175-.0654 0-.161-.014-.287-.042s-.2684-.042-.427-.042c-.224 0-.4247.033-.602.098-.1727.065-.329.163-.469.294-.1354.126-.259.285-.371.476-.1074.187-.2054.401-.294.644v4.48h-1.253v-7.091h.714c.1353 0 .2286.026.28.077.0513.051.0863.14.105.266zm6.2326-1.421v7.091h-1.246v-7.091zm.266-2.226c0 .121-.0257.236-.077.343-.0467.103-.112.196-.196.28-.0794.079-.175.142-.287.189-.1074.047-.2217.07-.343.07-.1214 0-.2357-.023-.343-.07-.1027-.047-.1937-.11-.273-.189-.0794-.084-.1424-.177-.189-.28-.0467-.107-.07-.222-.07-.343s.0233-.236.07-.343c.0466-.112.1096-.208.189-.287.0793-.084.1703-.149.273-.196.1073-.047.2216-.07.343-.07.1213 0 .2356.023.343.07.112.047.2076.112.287.196.084.079.1493.175.196.287.0513.107.077.222.077.343zm4.9582 9.429c-.56 0-.9916-.156-1.295-.469-.2986-.313-.448-.763-.448-1.351v-4.34h-.854c-.0746 0-.1376-.021-.189-.063-.0513-.047-.077-.117-.077-.21v-.497l1.162-.147.287-2.191c.014-.07.0444-.126.091-.168.0514-.047.1167-.07.196-.07h.63v2.443h2.051v.903h-2.051v4.256c0 .299.0724.52.217.665.1447.145.3314.217.56.217.1307 0 .2427-.016.336-.049.098-.037.182-.077.252-.119s.1284-.079.175-.112c.0514-.037.0957-.056.133-.056.0654 0 .1237.04.175.119l.364.595c-.2146.201-.4736.359-.777.476-.3033.112-.616.168-.938.168zm7.6836-3.304c-.574.019-1.064.065-1.47.14-.4013.07-.7303.163-.987.28-.252.117-.4363.254-.553.413-.112.159-.168.336-.168.532 0 .187.0304.348.091.483.0607.135.1424.247.245.336.1074.084.231.147.371.189.1447.037.2987.056.462.056.2194 0 .42-.021.602-.063.182-.047.3524-.112.511-.196.1634-.084.3174-.184.462-.301.1494-.117.294-.25.434-.399zm-4.025-2.898c.392-.378.8144-.66 1.267-.847.4527-.187.9544-.28 1.505-.28.3967 0 .749.065 1.057.196s.5671.313.7771.546.369.516.476.847.161.695.161 1.092v4.536h-.553c-.121 0-.215-.019-.28-.056-.065-.042-.117-.121-.154-.238l-.1401-.672c-.1866.173-.3686.327-.546.462-.1773.131-.364.243-.56.336-.196.089-.406.156-.63.203-.2193.051-.4643.077-.735.077-.2753 0-.5343-.037-.777-.112-.2426-.079-.455-.196-.637-.35-.1773-.154-.3196-.348-.427-.581-.1026-.238-.154-.518-.154-.84 0-.28.077-.548.231-.805.154-.261.4037-.492.749-.693.3454-.201.7957-.364 1.351-.49.5554-.131 1.2367-.205 2.044-.224v-.553c0-.551-.119-.966-.357-1.246-.238-.285-.5856-.427-1.043-.427-.308 0-.567.04-.777.119-.2053.075-.385.161-.539.259-.1493.093-.28.18-.392.259-.1073.075-.2146.112-.322.112-.084 0-.1563-.021-.217-.063-.0606-.047-.112-.103-.154-.168zm12.2711.168c-.056.103-.142.154-.259.154-.07 0-.149-.026-.238-.077s-.198-.107-.329-.168c-.126-.065-.278-.124-.455-.175-.177-.056-.387-.084-.63-.084-.21 0-.399.028-.567.084-.168.051-.313.124-.434.217-.117.093-.208.203-.273.329-.061.121-.091.254-.091.399 0 .182.051.334.154.455.107.121.247.226.42.315s.369.168.588.238c.219.065.443.138.672.217.233.075.46.159.679.252s.415.21.588.35.31.313.413.518c.107.201.161.443.161.728 0 .327-.058.63-.175.91-.117.275-.289.516-.518.721-.229.201-.509.359-.84.476s-.714.175-1.148.175c-.495 0-.943-.079-1.344-.238-.401-.163-.742-.371-1.022-.623l.294-.476c.037-.061.082-.107.133-.14s.117-.049.196-.049c.084 0 .173.033.266.098s.205.138.336.217c.135.079.299.152.49.217s.429.098.714.098c.243 0 .455-.03.637-.091.182-.065.334-.152.455-.259s.21-.231.266-.371c.061-.14.091-.289.091-.448 0-.196-.054-.357-.161-.483-.103-.131-.24-.24-.413-.329-.173-.093-.371-.173-.595-.238-.219-.07-.446-.142-.679-.217-.229-.075-.455-.159-.679-.252-.219-.098-.415-.219-.588-.364s-.313-.322-.42-.532c-.103-.215-.154-.474-.154-.777 0-.271.056-.53.168-.777.112-.252.275-.471.49-.658.215-.191.478-.343.791-.455s.67-.168 1.071-.168c.467 0 .884.075 1.253.224.373.145.695.345.966.602zm9.325.168c-.182-.042-.383-.063-.602-.063-.35 0-.672.075-.966.224-.29.145-.539.336-.749.574s-.376.511-.497.819c-.117.308-.175.623-.175.945 0 .336.077.607.231.812.154.201.382.301.686.301.144 0 .289-.023.434-.07.149-.047.291-.128.427-.245.14-.117.268-.275.385-.476.116-.201.214-.453.294-.756zm.434 1.953c-.094.355-.138.644-.133.868.004.219.039.392.105.518.07.126.165.212.287.259.121.042.254.063.399.063.228 0 .445-.065.651-.196.205-.131.385-.315.539-.553.158-.238.282-.523.371-.854.093-.336.14-.707.14-1.113 0-.644-.103-1.209-.308-1.694-.206-.485-.49-.889-.854-1.211-.36-.327-.787-.569-1.281-.728-.49-.163-1.02-.245-1.589-.245-.626 0-1.211.119-1.757.357s-1.022.567-1.428.987-.728.917-.966 1.491c-.234.574-.35 1.199-.35 1.876 0 .793.123 1.491.371 2.093.252.597.592 1.099 1.022 1.505.434.406.942.712 1.526.917.583.205 1.208.308 1.876.308.709 0 1.334-.077 1.876-.231.546-.154 1.017-.35 1.414-.588.093-.056.175-.072.245-.049.07.019.121.07.154.154l.182.462c-.504.336-1.076.6-1.715.791-.635.191-1.354.287-2.156.287-.812 0-1.566-.128-2.261-.385-.696-.257-1.3-.628-1.813-1.113-.509-.481-.91-1.071-1.204-1.771-.29-.7-.434-1.493-.434-2.38 0-.509.063-.999.189-1.47.13-.471.312-.91.546-1.316.233-.411.513-.784.84-1.12.326-.341.69-.63 1.092-.868.401-.243.833-.429 1.295-.56.466-.135.952-.203 1.456-.203.429 0 .849.047 1.26.14.41.093.798.231 1.162.413.368.182.704.408 1.008.679.308.266.574.574.798.924.224.345.396.733.518 1.162.126.425.189.887.189 1.386 0 .504-.073.971-.217 1.4-.14.425-.336.793-.588 1.106-.248.313-.542.558-.882.735-.341.177-.707.266-1.099.266-.355 0-.649-.086-.882-.259-.229-.177-.376-.446-.441-.805-.266.373-.558.642-.875.805-.318.163-.661.245-1.029.245-.276 0-.518-.047-.728-.14-.206-.098-.376-.231-.511-.399-.136-.173-.238-.376-.308-.609-.066-.233-.098-.485-.098-.756 0-.397.074-.796.224-1.197.154-.406.38-.77.679-1.092.298-.327.669-.593 1.113-.798.443-.205.956-.308 1.54-.308.312 0 .588.026.826.077.238.047.462.117.672.21zm8.355.336c.252 0 .474-.035.665-.105.192-.07.353-.168.483-.294.131-.126.229-.275.294-.448.066-.177.098-.371.098-.581 0-.434-.133-.779-.399-1.036-.261-.257-.641-.385-1.141-.385-.504 0-.889.128-1.155.385-.261.257-.392.602-.392 1.036 0 .21.033.404.098.581.07.173.171.322.301.448.131.126.292.224.483.294.192.07.413.105.665.105zm2.247 3.85c0-.173-.049-.313-.147-.42s-.231-.191-.399-.252c-.163-.061-.354-.103-.574-.126-.219-.028-.452-.049-.7-.063-.242-.014-.49-.028-.742-.042s-.494-.037-.728-.07c-.261.121-.476.275-.644.462-.163.182-.245.397-.245.644 0 .159.04.306.119.441.084.14.21.259.378.357.168.103.378.182.63.238.257.061.558.091.903.091.336 0 .637-.03.903-.091s.49-.147.672-.259c.187-.112.329-.245.427-.399s.147-.324.147-.511zm1.267-7.196v.462c0 .154-.098.252-.294.294l-.805.105c.159.308.238.649.238 1.022 0 .345-.067.66-.203.945-.13.28-.312.52-.546.721-.233.201-.513.355-.84.462-.326.107-.681.161-1.064.161-.331 0-.644-.04-.938-.119-.149.093-.263.194-.343.301-.079.103-.119.208-.119.315 0 .168.068.296.203.385.14.084.322.145.546.182s.479.061.763.07c.29.009.584.026.882.049.304.019.598.054.882.105.29.051.546.135.77.252s.404.278.539.483c.14.205.21.471.21.798 0 .303-.077.597-.231.882-.149.285-.366.537-.651.756-.284.224-.634.401-1.05.532-.41.135-.875.203-1.393.203s-.97-.051-1.358-.154c-.387-.103-.709-.24-.966-.413-.256-.173-.45-.373-.581-.602-.126-.224-.189-.46-.189-.707 0-.35.11-.646.329-.889.22-.243.521-.436.903-.581-.21-.093-.378-.217-.504-.371-.121-.159-.182-.371-.182-.637 0-.103.019-.208.056-.315.038-.112.094-.222.168-.329.08-.112.175-.217.287-.315s.243-.184.392-.259c-.35-.196-.623-.455-.819-.777-.196-.327-.294-.705-.294-1.134 0-.345.066-.658.196-.938.136-.285.322-.525.56-.721.238-.201.521-.355.847-.462.332-.107.693-.161 1.085-.161.308 0 .595.035.861.105.266.065.509.163.728.294zm2.289 6.811v-7.091h.749c.177 0 .287.086.329.259l.091.728c.261-.322.555-.586.882-.791.326-.205.704-.308 1.134-.308.476 0 .861.133 1.155.399.298.266.513.625.644 1.078.102-.257.233-.478.392-.665.163-.187.345-.341.546-.462.2-.121.413-.21.637-.266.228-.056.459-.084.693-.084.373 0 .704.061.994.182.294.117.541.289.742.518.205.229.361.511.469.847.107.331.161.712.161 1.141v4.515h-1.253v-4.515c0-.555-.122-.975-.364-1.26-.243-.289-.593-.434-1.05-.434-.206 0-.402.037-.588.112-.182.07-.343.175-.483.315s-.252.317-.336.532c-.08.21-.119.455-.119.735v4.515h-1.253v-4.515c0-.569-.115-.994-.343-1.274-.229-.28-.563-.42-1.001-.42-.308 0-.593.084-.854.252-.262.163-.502.387-.721.672v5.285zm16.355-3.192c-.574.019-1.064.065-1.47.14-.402.07-.731.163-.987.28-.252.117-.437.254-.553.413-.112.159-.168.336-.168.532 0 .187.03.348.091.483.06.135.142.247.245.336.107.084.231.147.371.189.144.037.298.056.462.056.219 0 .42-.021.602-.063.182-.047.352-.112.511-.196.163-.084.317-.184.462-.301.149-.117.294-.25.434-.399zm-4.025-2.898c.392-.378.814-.66 1.267-.847.452-.187.954-.28 1.505-.28.396 0 .749.065 1.057.196s.567.313.777.546.368.516.476.847c.107.331.161.695.161 1.092v4.536h-.553c-.122 0-.215-.019-.28-.056-.066-.042-.117-.121-.154-.238l-.14-.672c-.187.173-.369.327-.546.462-.178.131-.364.243-.56.336-.196.089-.406.156-.63.203-.22.051-.465.077-.735.077-.276 0-.535-.037-.777-.112-.243-.079-.455-.196-.637-.35-.178-.154-.32-.348-.427-.581-.103-.238-.154-.518-.154-.84 0-.28.077-.548.231-.805.154-.261.403-.492.749-.693.345-.201.795-.364 1.351-.49.555-.131 1.236-.205 2.044-.224v-.553c0-.551-.119-.966-.357-1.246-.238-.285-.586-.427-1.043-.427-.308 0-.567.04-.777.119-.206.075-.385.161-.539.259-.15.093-.28.18-.392.259-.108.075-.215.112-.322.112-.084 0-.157-.021-.217-.063-.061-.047-.112-.103-.155-.168zm9.456-1.001v7.091h-1.246v-7.091zm.266-2.226c0 .121-.025.236-.077.343-.046.103-.112.196-.196.28-.079.079-.175.142-.287.189-.107.047-.221.07-.343.07-.121 0-.235-.023-.343-.07-.102-.047-.193-.11-.273-.189-.079-.084-.142-.177-.189-.28-.046-.107-.07-.222-.07-.343s.024-.236.07-.343c.047-.112.11-.208.189-.287.08-.084.171-.149.273-.196.108-.047.222-.07.343-.07.122 0 .236.023.343.07.112.047.208.112.287.196.084.079.15.175.196.287.052.107.077.222.077.343zm4.07-.994v10.311h-1.246v-10.311zm2.81 9.541c0-.121.021-.236.063-.343.047-.107.108-.201.182-.28.08-.079.173-.142.28-.189.108-.047.222-.07.343-.07.122 0 .236.023.343.07.108.047.201.11.28.189.08.079.143.173.189.28.047.107.07.222.07.343 0 .126-.023.243-.07.35-.046.103-.109.194-.189.273-.079.079-.172.14-.28.182-.107.047-.221.07-.343.07-.121 0-.235-.023-.343-.07-.107-.042-.2-.103-.28-.182-.074-.079-.135-.17-.182-.273-.042-.107-.063-.224-.063-.35zm9.454-5.061c-.037.051-.075.091-.112.119s-.089.042-.154.042c-.07 0-.147-.028-.231-.084-.084-.061-.189-.126-.315-.196-.121-.07-.273-.133-.455-.189-.177-.061-.397-.091-.658-.091-.35 0-.658.063-.924.189-.266.121-.49.299-.672.532-.177.233-.313.516-.406.847-.089.331-.133.702-.133 1.113 0 .429.049.812.147 1.148.098.331.236.611.413.84.182.224.399.397.651.518.257.117.544.175.861.175.303 0 .553-.035.749-.105.196-.075.357-.156.483-.245.131-.089.238-.168.322-.238.089-.075.175-.112.259-.112.103 0 .182.04.238.119l.35.455c-.154.191-.329.355-.525.49s-.408.25-.637.343c-.224.089-.46.154-.707.196s-.499.063-.756.063c-.443 0-.856-.082-1.239-.245-.378-.163-.707-.399-.987-.707-.28-.313-.499-.695-.658-1.148s-.238-.968-.238-1.547c0-.527.072-1.015.217-1.463.149-.448.364-.833.644-1.155.285-.327.632-.581 1.043-.763.415-.182.891-.273 1.428-.273.499 0 .938.082 1.316.245.383.159.721.385 1.015.679zm5.616-1.372c.518 0 .985.086 1.4.259.416.173.77.418 1.064.735s.518.702.672 1.155c.159.448.238.95.238 1.505 0 .56-.079 1.064-.238 1.512-.154.448-.378.831-.672 1.148s-.648.562-1.064.735c-.415.168-.882.252-1.4.252-.522 0-.994-.084-1.414-.252-.415-.173-.77-.418-1.064-.735s-.52-.7-.679-1.148c-.154-.448-.231-.952-.231-1.512 0-.555.077-1.057.231-1.505.159-.453.385-.838.679-1.155s.649-.562 1.064-.735c.42-.173.892-.259 1.414-.259zm0 6.328c.7 0 1.223-.233 1.568-.7.346-.471.518-1.127.518-1.967 0-.845-.172-1.503-.518-1.974-.345-.471-.868-.707-1.568-.707-.354 0-.665.061-.931.182-.261.121-.48.296-.658.525-.172.229-.303.511-.392.847-.084.331-.126.707-.126 1.127 0 .84.173 1.496.518 1.967.35.467.88.7 1.589.7zm5.955.875v-7.091h.749c.177 0 .287.086.329.259l.091.728c.261-.322.555-.586.882-.791.326-.205.704-.308 1.134-.308.476 0 .861.133 1.155.399.298.266.513.625.644 1.078.102-.257.233-.478.392-.665.163-.187.345-.341.546-.462.2-.121.413-.21.637-.266.228-.056.459-.084.693-.084.373 0 .704.061.994.182.294.117.541.289.742.518.205.229.361.511.469.847.107.331.161.712.161 1.141v4.515h-1.253v-4.515c0-.555-.122-.975-.364-1.26-.243-.289-.593-.434-1.05-.434-.206 0-.402.037-.588.112-.182.07-.343.175-.483.315s-.252.317-.336.532c-.08.21-.119.455-.119.735v4.515h-1.253v-4.515c0-.569-.115-.994-.343-1.274-.229-.28-.563-.42-1.001-.42-.308 0-.593.084-.854.252-.262.163-.502.387-.721.672v5.285z" fill="#3f3f50"/><path d="m0 0h375v48h-375z" fill="#7c4660"/><path d="m45.0443 11.52h-22.0807c-1.6359 0-2.9636.9028-2.9636 2.0152v3.3587c0 1.1124 1.3277 2.0152 2.9636 2.0152h9.8786v3.1598c0 .747.6559 1.4026 1.6754 1.682.3873.1075.4347.3386.4347.4353s-.0395.3278-.4347.4353l-2.1101.5696c-1.0194.2741-1.6754.935-1.6754 1.682s.656 1.4026 1.6754 1.682l2.1022.575c.3873.1075.4347.3386.4347.4353s-.0395.3278-.4347.4353l-2.1022.5642c-1.0194.2741-1.6754.9351-1.6754 1.6821 0 .7469.656 1.4025 1.6754 1.682l2.1022.575c.3873.1075.4347.3385.4347.4353 0 .0967-.0395.3278-.4347.4352-1.0195.2741-1.6754.9351-1.6754 1.6821 0 .7415.8851 1.3434 1.9757 1.3434v-1.3434c0-.1935.166-.3601.4347-.4353 1.0195-.2741 1.6754-.9351 1.6754-1.682 0-.747-.6559-1.4026-1.6754-1.6821l-2.1022-.575c-.3872-.1074-.4346-.3385-.4346-.4352 0-.0968.0395-.3278.4346-.4353l2.1022-.575c1.0195-.2741 1.6754-.9351 1.6754-1.682 0-.747-.6559-1.4026-1.6754-1.6821l-2.1022-.575c-.3872-.1074-.4346-.3385-.4346-.4352 0-.0968.0395-.3278.4346-.4353l2.1022-.575c1.0195-.2741 1.6754-.9351 1.6754-1.682 0-.747-.6559-1.4026-1.6754-1.6821-.2608-.0698-.4347-.2418-.4347-.4352v-3.1599h10.2264c1.6359 0 2.9636-.9028 2.9636-2.0152v-3.3425c.0079-1.1124-1.3198-2.0152-2.9557-2.0152zm.9878 5.3739c0 .3708-.4425.6717-.9878.6717h-22.0807c-.5453 0-.9879-.3009-.9879-.6717v-3.3587c0-.3708.4426-.6717.9879-.6717h22.0807c.5453 0 .9878.3009.9878.6717z" fill="#fff"/><path d="m20.8789 12.2664h26.343v5.97094h-26.343z" fill="#fff"/><path d="m43.788 35.14c-1.1573 0-2.0813-.42-2.772-1.26s-1.036-1.9413-1.036-3.304c0-1.4933.3453-2.9027 1.036-4.228.6907-1.344 1.6053-2.4173 2.744-3.22 1.1573-.8213 2.38-1.232 3.668-1.232.4107 0 .6813.084.812.252.1493.1493.2707.4293.364.84.392-.0747.8027-.112 1.232-.112.9147 0 1.372.3267 1.372.98 0 .392-.14 1.3253-.42 2.8-.4293 2.1467-.644 3.64-.644 4.48 0 .28.0653.504.196.672.1493.168.336.252.56.252.3547 0 .784-.224 1.288-.672.504-.4667 1.1853-1.2133 2.044-2.24.224-.2613.476-.392.756-.392.2427 0 .4293.112.56.336.1493.224.224.532.224.924 0 .7467-.1773 1.3253-.532 1.736-.7653.952-1.5773 1.7547-2.436 2.408s-1.6893.98-2.492.98c-.616 0-1.1853-.2053-1.708-.616-.504-.4293-.8867-1.008-1.148-1.736-.9707 1.568-2.1933 2.352-3.668 2.352zm1.008-2.828c.4107 0 .8027-.2427 1.176-.728s.644-1.1293.812-1.932l1.036-5.152c-.784.0187-1.512.3173-2.184.896-.6533.56-1.176 1.3067-1.568 2.24s-.588 1.9227-.588 2.968c0 .5787.112 1.008.336 1.288.2427.28.5693.42.98.42zm13.9083 3.444c-.9706 0-1.7173-.224-2.24-.672-.504-.448-.756-.952-.756-1.512 0-.4853.1774-.9053.532-1.26.3547-.3547.8774-.532 1.568-.532.2427 0 .5227.028.84.084.336.0373.588.0653.756.084-.0186-.4853-.1306-.9427-.336-1.372-.1866-.4293-.4293-.84-.728-1.232-.2986-.4107-.5786-.7653-.84-1.064-.5786 1.1013-1.1573 2.016-1.736 2.744-.56.728-1.176 1.4187-1.848 2.072-.336.336-.6906.504-1.064.504-.2986 0-.5413-.1027-.728-.308-.1866-.224-.28-.4947-.28-.812 0-.3733.1307-.7187.392-1.036l.364-.448c1.0267-1.2693 1.8014-2.3147 2.324-3.136.3174-.5413.6907-1.26 1.12-2.156.4294-.9147.8494-1.8573 1.26-2.828.3547-.8213 1.092-1.232 2.212-1.232.5227 0 .8867.0467 1.092.14.2054.0933.308.2427.308.448 0 .112-.0373.2893-.112.532-.0746.2427-.1773.4853-.308.728-.336.672-.504 1.2413-.504 1.708 0 .28.0934.588.28.924.2054.336.5134.756.924 1.26.5974.784 1.0454 1.456 1.344 2.016.3174.5413.476 1.1387.476 1.792 0 .1867-.0186.448-.056.784.9147-.3547 1.988-1.2973 3.22-2.828.224-.2613.476-.392.756-.392.2427 0 .4294.112.56.336.1494.224.224.532.224.924 0 .7093-.1773 1.288-.532 1.736-.9333 1.1573-1.8293 1.9507-2.688 2.38-.84.4107-1.8853.6347-3.136.672-.7466.6347-1.6333.952-2.66.952zm19.2293-7c.2426 0 .4293.112.56.336.1493.224.224.532.224.924 0 .7467-.1774 1.3253-.532 1.736-.8027.9893-1.68 1.8013-2.632 2.436s-2.044.952-3.276.952c-3.808 0-5.712-2.6787-5.712-8.036 0-.8213.028-1.652.084-2.492h-1.092c-.56 0-.9427-.1027-1.148-.308-.1867-.2053-.28-.532-.28-.98 0-1.0453.42-1.568 1.26-1.568h1.596c.3173-2.0533.8026-3.9293 1.456-5.628.6533-1.6987 1.4373-3.052 2.352-4.06.9333-1.008 1.932-1.512 2.996-1.512.784 0 1.4.3453 1.848 1.036s.672 1.5587.672 2.604c0 2.8933-1.2134 5.4133-3.64 7.56h3.136c.2986 0 .5133.0653.644.196.1306.1307.196.3733.196.728 0 1.288-1.0547 1.932-3.164 1.932h-3.416c-.0374.9333-.056 1.6613-.056 2.184 0 1.9413.224 3.304.672 4.088.4666.784 1.1946 1.176 2.184 1.176.8026 0 1.512-.2427 2.128-.728s1.344-1.2133 2.184-2.184c.224-.2613.476-.392.756-.392zm-4.9-15.512c-.28 0-.5974.3547-.952 1.064-.336.6907-.6627 1.6613-.98 2.912-.2987 1.232-.5507 2.604-.756 4.116 1.1013-.952 1.9226-2.016 2.464-3.192.56-1.1947.84-2.2773.84-3.248 0-1.1013-.2054-1.652-.616-1.652zm15.8922 15.512c.2426 0 .4293.112.5599.336.1494.224.2241.532.2241.924 0 .7467-.1774 1.3253-.532 1.736-.6907.84-1.6707 1.6147-2.94 2.324-1.2507.7093-2.5947 1.064-4.032 1.064-1.96 0-3.4814-.532-4.564-1.596-1.0827-1.064-1.6241-2.52-1.6241-4.368 0-1.288.2707-2.4827.8121-3.584.5413-1.12 1.288-2.0067 2.24-2.66.9706-.6533 2.0626-.98 3.276-.98 1.0826 0 1.9506.3267 2.604.98.6533.6347.98 1.5027.98 2.604 0 1.288-.4667 2.3987-1.4 3.332-.9147.9147-2.4734 1.6427-4.676 2.184.4666.8587 1.3533 1.288 2.66 1.288.84 0 1.792-.2893 2.856-.868 1.0826-.5973 2.016-1.372 2.8-2.324.224-.2613.476-.392.756-.392zm-7.056-4.06c-.6907 0-1.2787.4013-1.764 1.204-.4667.8027-.7 1.7733-.7 2.912v.056c1.1013-.2613 1.9693-.6533 2.604-1.176.6346-.5227.952-1.1293.952-1.82 0-.3547-.1027-.6347-.308-.84-.1867-.224-.448-.336-.784-.336zm16.8721 1.092c.4107 0 .756.1493 1.036.448.2991.28.4481.6347.4481 1.064 0 .2427-.056.504-.168.784-.2987.6907-.7187 1.2693-1.2601 1.736-.5413.4667-1.1386.7-1.792.7-.5226 0-.9706-.1867-1.344-.56-.3546-.3733-.532-.8773-.532-1.512 0-.3547.0187-.7373.056-1.148.0374-.2987.056-.504.056-.616 0-.1493-.0373-.2613-.112-.336-.056-.0747-.1306-.112-.224-.112-.2613 0-.616.3173-1.064.952-.448.616-.896 1.4373-1.344 2.464s-.812 2.1093-1.092 3.248c-.2053.896-.4386 1.4933-.7 1.792-.2613.2987-.6906.448-1.288.448-.7093 0-1.2133-.3733-1.512-1.12-.28-.7467-.42-1.9413-.42-3.584 0-2.4267.3454-4.732 1.036-6.916.168-.5413.4387-.9333.812-1.176.392-.2613.9334-.392 1.624-.392.3734 0 .6347.0467.784.14.1494.0933.224.2707.224.532 0 .2987-.14.9707-.42 2.016-.1866.7467-.336 1.4-.448 1.96s-.2053 1.2507-.28 2.072c.616-1.6053 1.3067-2.912 2.072-3.92.7654-1.008 1.512-1.7267 2.24-2.156s1.3907-.644 1.988-.644c.5414 0 .952.1587 1.232.476.2987.2987.448.7467.448 1.344 0 .3547-.1026 1.0267-.308 2.016z" fill="#fff"/><path d="m125.12 86.144c.133 0 .245.048.336.144l.952 1.016c-.469.5973-1.053 1.0507-1.752 1.36-.693.3093-1.52.464-2.48.464-.869 0-1.651-.1467-2.344-.44-.693-.2987-1.283-.712-1.768-1.24s-.859-1.1547-1.12-1.88-.392-1.5173-.392-2.376c0-.576.061-1.1227.184-1.64.128-.5227.312-1.0027.552-1.44s.528-.832.864-1.184c.341-.352.725-.6507 1.152-.896.427-.2507.891-.44 1.392-.568.507-.1333 1.045-.2 1.616-.2.427 0 .829.0373 1.208.112.384.0747.741.1787 1.072.312s.635.296.912.488c.283.1867.536.392.76.616l-.808 1.104c-.048.0693-.109.1307-.184.184s-.176.08-.304.08-.259-.0453-.392-.136c-.128-.0907-.288-.192-.48-.304-.187-.112-.424-.2133-.712-.304-.283-.0907-.643-.136-1.08-.136-.485 0-.931.088-1.336.264s-.755.432-1.048.768c-.288.3307-.512.7387-.672 1.224s-.24 1.0373-.24 1.656c0 .624.085 1.1813.256 1.672.176.4853.413.896.712 1.232.304.336.656.592 1.056.768.405.1707.837.256 1.296.256.272 0 .517-.0133.736-.04.224-.0267.429-.072.616-.136.192-.064.371-.1467.536-.248.171-.1013.341-.2293.512-.384.059-.048.12-.088.184-.12s.133-.048.208-.048zm7.275-3.256c.389 0 .725-.048 1.008-.144.283-.1013.515-.2373.696-.408.181-.176.315-.3813.4-.616s.128-.4907.128-.768c0-.5493-.184-.976-.552-1.28-.363-.304-.917-.456-1.664-.456h-1.248v3.672zm5.624 6.112h-2.168c-.405 0-.699-.1547-.88-.464l-2.208-3.56c-.091-.1387-.192-.24-.304-.304-.107-.064-.267-.096-.48-.096h-.816v4.424h-2.4v-11.608h3.648c.811 0 1.504.0853 2.08.256.576.1653 1.048.3973 1.416.696s.637.656.808 1.072c.171.4107.256.864.256 1.36 0 .384-.056.7493-.168 1.096-.107.3413-.264.6533-.472.936s-.464.5333-.768.752-.651.3947-1.04.528c.155.0853.299.1893.432.312.133.1173.253.2587.36.424zm4.551-9.728v2.984h3.872v1.816h-3.872v3.048h4.976v1.88h-7.392v-11.608h7.392v1.88zm13.899 5.32-1.256-3.552c-.075-.1867-.155-.4053-.24-.656-.08-.2507-.157-.5227-.232-.816-.075.2987-.155.576-.24.832-.08.2507-.157.4693-.232.656l-1.248 3.536zm4.032 4.408h-1.864c-.208 0-.379-.048-.512-.144-.128-.1013-.224-.2293-.288-.384l-.784-2.216h-4.624l-.784 2.216c-.053.1333-.147.256-.28.368-.133.1067-.301.16-.504.16h-1.88l4.536-11.608h2.456zm9.15-9.672h-3.392v9.672h-2.408v-9.672h-3.392v-1.936h9.192zm4.856-.056v2.984h3.872v1.816h-3.872v3.048h4.976v1.88h-7.392v-11.608h7.392v1.88zm18.15 5.32-1.256-3.552c-.075-.1867-.155-.4053-.24-.656-.08-.2507-.158-.5227-.232-.816-.075.2987-.155.576-.24.832-.08.2507-.158.4693-.232.656l-1.248 3.536zm4.032 4.408h-1.864c-.208 0-.379-.048-.513-.144-.127-.1013-.223-.2293-.287-.384l-.784-2.216h-4.624l-.784 2.216c-.054.1333-.147.256-.28.368-.134.1067-.302.16-.504.16h-1.881l4.537-11.608h2.456zm9.619-2.856c.133 0 .245.048.336.144l.952 1.016c-.47.5973-1.054 1.0507-1.752 1.36-.694.3093-1.52.464-2.48.464-.87 0-1.651-.1467-2.344-.44-.694-.2987-1.283-.712-1.768-1.24-.486-.528-.859-1.1547-1.12-1.88-.262-.7253-.392-1.5173-.392-2.376 0-.576.061-1.1227.184-1.64.128-.5227.312-1.0027.552-1.44s.528-.832.864-1.184c.341-.352.725-.6507 1.152-.896.426-.2507.89-.44 1.392-.568.506-.1333 1.045-.2 1.616-.2.426 0 .829.0373 1.208.112.384.0747.741.1787 1.072.312.33.1333.634.296.912.488.282.1867.536.392.76.616l-.808 1.104c-.048.0693-.11.1307-.184.184-.075.0533-.176.08-.304.08s-.259-.0453-.392-.136c-.128-.0907-.288-.192-.48-.304-.187-.112-.424-.2133-.712-.304-.283-.0907-.643-.136-1.08-.136-.486 0-.931.088-1.336.264-.406.176-.755.432-1.048.768-.288.3307-.512.7387-.672 1.224s-.24 1.0373-.24 1.656c0 .624.085 1.1813.256 1.672.176.4853.413.896.712 1.232.304.336.656.592 1.056.768.405.1707.837.256 1.296.256.272 0 .517-.0133.736-.04.224-.0267.429-.072.616-.136.192-.064.37-.1467.536-.248.17-.1013.341-.2293.512-.384.058-.048.12-.088.184-.12s.133-.048.208-.048zm11.296 0c.134 0 .246.048.336.144l.952 1.016c-.469.5973-1.053 1.0507-1.752 1.36-.693.3093-1.52.464-2.48.464-.869 0-1.65-.1467-2.344-.44-.693-.2987-1.282-.712-1.768-1.24-.485-.528-.858-1.1547-1.12-1.88-.261-.7253-.392-1.5173-.392-2.376 0-.576.062-1.1227.184-1.64.128-.5227.312-1.0027.552-1.44s.528-.832.864-1.184c.342-.352.726-.6507 1.152-.896.427-.2507.891-.44 1.392-.568.507-.1333 1.046-.2 1.616-.2.427 0 .83.0373 1.208.112.384.0747.742.1787 1.072.312.331.1333.635.296.912.488.283.1867.536.392.76.616l-.808 1.104c-.048.0693-.109.1307-.184.184-.074.0533-.176.08-.304.08s-.258-.0453-.392-.136c-.128-.0907-.288-.192-.48-.304-.186-.112-.424-.2133-.712-.304-.282-.0907-.642-.136-1.08-.136-.485 0-.93.088-1.336.264-.405.176-.754.432-1.048.768-.288.3307-.512.7387-.672 1.224s-.24 1.0373-.24 1.656c0 .624.086 1.1813.256 1.672.176.4853.414.896.712 1.232.304.336.656.592 1.056.768.406.1707.838.256 1.296.256.272 0 .518-.0133.736-.04.224-.0267.43-.072.616-.136.192-.064.371-.1467.536-.248.171-.1013.342-.2293.512-.384.059-.048.12-.088.184-.12s.134-.048.208-.048zm14.609-2.952c0 .848-.144 1.6347-.432 2.36-.282.7253-.685 1.352-1.208 1.88-.517.528-1.141.944-1.872 1.248-.73.2987-1.541.448-2.432.448-.89 0-1.701-.1493-2.432-.448-.73-.304-1.357-.72-1.88-1.248-.522-.528-.928-1.1547-1.216-1.88-.282-.7253-.424-1.512-.424-2.36s.142-1.632.424-2.352c.288-.7253.694-1.352 1.216-1.88.523-.528 1.15-.9413 1.88-1.24.731-.304 1.542-.456 2.432-.456.891 0 1.702.152 2.432.456.731.2987 1.355.7147 1.872 1.248.523.528.926 1.1547 1.208 1.88.288.72.432 1.5013.432 2.344zm-2.456 0c0-.608-.08-1.152-.24-1.632-.16-.4853-.392-.896-.696-1.232-.298-.3413-.664-.6-1.096-.776-.426-.1813-.912-.272-1.456-.272s-1.032.0907-1.464.272c-.432.176-.8.4347-1.104.776-.298.336-.528.7467-.688 1.232-.16.48-.24 1.024-.24 1.632 0 .6133.08 1.1627.24 1.648.16.48.39.888.688 1.224.304.336.672.5947 1.104.776.432.176.92.264 1.464.264s1.03-.088 1.456-.264c.432-.1813.798-.44 1.096-.776.304-.336.536-.744.696-1.224.16-.4853.24-1.0347.24-1.648zm9.961 3.888c.389 0 .739-.064 1.048-.192.309-.1333.571-.32.784-.56s.376-.5307.488-.872.168-.7253.168-1.152v-6.912h2.4v6.912c0 .704-.115 1.352-.344 1.944-.224.5867-.547 1.0933-.968 1.52s-.933.76-1.536 1-1.283.36-2.04.36-1.44-.12-2.048-.36c-.603-.24-1.115-.5733-1.536-1s-.747-.9333-.976-1.52c-.224-.592-.336-1.24-.336-1.944v-6.912h2.4v6.912c0 .4267.056.8107.168 1.152s.275.632.488.872.475.4267.784.56c.309.128.661.192 1.056.192zm18.114-9.688v11.608h-1.24c-.187 0-.344-.0293-.472-.088-.128-.064-.253-.1707-.376-.32l-5.784-7.36c.016.1867.027.3707.032.552.011.1813.016.3493.016.504v6.712h-2.12v-11.608h1.264c.101 0 .187.0053.256.016.075.0053.141.024.2.056.059.0267.115.064.168.112s.112.112.176.192l5.824 7.392c-.021-.2027-.037-.3973-.048-.584-.011-.192-.016-.3733-.016-.544v-6.64zm11.647 1.936h-3.392v9.672h-2.408v-9.672h-3.392v-1.936h9.192z" fill="#bb869e"/><rect fill="#fff" height="30.5" rx="15.25" stroke="#d27fa8" stroke-width=".5" width="96.5" x="46.75" y="457.75"/><path d="m75.4508 476.59c.1466 0 .2733.057.38.17l1.06 1.15c-.5867.727-1.31 1.283-2.17 1.67-.8534.387-1.88.58-3.08.58-1.0734 0-2.04-.183-2.9-.55-.8534-.367-1.5834-.877-2.19-1.53-.6067-.653-1.0734-1.433-1.4-2.34-.32-.907-.48-1.897-.48-2.97 0-1.087.18-2.08.54-2.98.36-.907.8666-1.687 1.52-2.34.6533-.653 1.4333-1.16 2.34-1.52.9133-.367 1.92-.55 3.02-.55 1.0733 0 2.01.173 2.81.52.8066.34 1.4966.793 2.07 1.36l-.9 1.25c-.0534.08-.1234.15-.21.21-.08.06-.1934.09-.34.09-.1534 0-.31-.06-.47-.18s-.3634-.25-.61-.39c-.2467-.14-.56-.27-.94-.39-.3734-.12-.85-.18-1.43-.18-.68 0-1.3067.12-1.88.36-.5667.233-1.0567.57-1.47 1.01-.4067.44-.7267.977-.96 1.61-.2267.627-.34 1.333-.34 2.12 0 .813.1133 1.537.34 2.17.2333.633.5466 1.167.94 1.6.3933.433.8566.767 1.39 1 .5333.227 1.1066.34 1.72.34.3666 0 .6966-.02.99-.06.3-.04.5733-.103.82-.19.2533-.087.49-.197.71-.33.2266-.14.45-.31.67-.51.0666-.06.1366-.107.21-.14.0733-.04.1533-.06.24-.06zm11.378 3.41h-1.11c-.2334 0-.4167-.033-.55-.1-.1334-.073-.2334-.217-.3-.43l-.22-.73c-.26.233-.5167.44-.77.62-.2467.173-.5034.32-.77.44-.2667.12-.55.21-.85.27s-.6334.09-1 .09c-.4334 0-.8334-.057-1.2-.17-.3667-.12-.6834-.297-.95-.53-.26-.233-.4634-.523-.61-.87-.1467-.347-.22-.75-.22-1.21 0-.387.1-.767.3-1.14.2066-.38.5466-.72 1.02-1.02.4733-.307 1.1033-.56 1.89-.76.7866-.2 1.7633-.313 2.93-.34v-.6c0-.687-.1467-1.193-.44-1.52-.2867-.333-.7067-.5-1.26-.5-.4 0-.7334.047-1 .14-.2667.093-.5.2-.7.32-.1934.113-.3734.217-.54.31-.1667.093-.35.14-.55.14-.1667 0-.31-.043-.43-.13s-.2167-.193-.29-.32l-.45-.79c1.18-1.08 2.6033-1.62 4.27-1.62.6 0 1.1333.1 1.6.3.4733.193.8733.467 1.2.82.3266.347.5733.763.74 1.25.1733.487.26 1.02.26 1.6zm-4.8-1.54c.2533 0 .4866-.023.7-.07.2133-.047.4133-.117.6-.21.1933-.093.3766-.207.55-.34.18-.14.36-.303.54-.49v-1.73c-.72.033-1.3234.097-1.8101.19-.4799.087-.8666.2-1.1599.34-.2934.14-.5034.303-.63.49-.12.187-.18.39-.18.61 0 .433.1266.743.38.93.26.187.5966.28 1.01.28zm7.2287 1.54v-10.26h1.51c.32 0 .53.15.63.45l.17.81c.2067-.213.4233-.407.65-.58.2333-.173.4767-.323.73-.45.26-.127.5367-.223.83-.29s.6133-.1.96-.1c.56 0 1.0567.097 1.49.29.4333.187.7933.453 1.08.8.2933.34.5133.75.66 1.23.1533.473.23.997.23 1.57v6.53h-2.47v-6.53c0-.627-.1467-1.11-.44-1.45-.2867-.347-.72-.52-1.3-.52-.4267 0-.8267.097-1.2.29s-.7267.457-1.06.79v7.42zm18.5775-8.09c-.074.093-.147.167-.22.22-.067.053-.167.08-.3.08-.127 0-.25-.037-.37-.11-.12-.08-.264-.167-.43-.26-.167-.1-.367-.187-.6-.26-.227-.08-.51-.12-.85-.12-.434 0-.814.08-1.14.24-.327.153-.6.377-.82.67-.214.293-.374.65-.48 1.07-.107.413-.16.883-.16 1.41 0 .547.056 1.033.17 1.46.12.427.29.787.51 1.08.22.287.486.507.8.66.313.147.666.22 1.06.22.393 0 .71-.047.95-.14.246-.1.453-.207.62-.32.166-.12.31-.227.43-.32.126-.1.266-.15.42-.15.2 0 .35.077.45.23l.71.9c-.274.32-.57.59-.89.81-.32.213-.654.387-1 .52-.34.127-.694.217-1.06.27-.367.053-.73.08-1.09.08-.634 0-1.23-.117-1.79-.35-.56-.24-1.05-.587-1.47-1.04-.414-.453-.744-1.007-.99-1.66-.24-.66-.3603-1.41-.3603-2.25 0-.753.1063-1.45.3203-2.09.22-.647.54-1.203.96-1.67.42-.473.94-.843 1.56-1.11s1.333-.4 2.14-.4c.766 0 1.436.123 2.01.37.58.247 1.1.6 1.56 1.06zm6.561-2.33c.647 0 1.24.103 1.78.31.547.207 1.017.51 1.41.91.393.393.7.88.92 1.46.22.573.33 1.23.33 1.97 0 .187-.01.343-.03.47-.013.12-.043.217-.09.29-.04.067-.097.117-.17.15-.073.027-.167.04-.28.04h-6.34c.073 1.053.357 1.827.85 2.32s1.147.74 1.96.74c.4 0 .743-.047 1.03-.14.293-.093.547-.197.76-.31.22-.113.41-.217.57-.31.167-.093.327-.14.48-.14.1 0 .187.02.26.06s.137.097.19.17l.72.9c-.273.32-.58.59-.92.81-.34.213-.697.387-1.07.52-.367.127-.743.217-1.13.27-.38.053-.75.08-1.11.08-.713 0-1.377-.117-1.99-.35-.613-.24-1.147-.59-1.6-1.05-.453-.467-.81-1.04-1.07-1.72-.26-.687-.39-1.48-.39-2.38 0-.7.113-1.357.34-1.97.227-.62.55-1.157.97-1.61.427-.46.943-.823 1.55-1.09.613-.267 1.303-.4 2.07-.4zm.05 1.77c-.72 0-1.283.203-1.69.61s-.667.983-.78 1.73h4.64c0-.32-.043-.62-.13-.9-.087-.287-.22-.537-.4-.75s-.407-.38-.68-.5c-.273-.127-.593-.19-.96-.19zm9.024-6.21v14.86h-2.47v-14.86z" fill="#d27fa8"/><rect fill="#913666" height="30" rx="15" width="96" x="219" y="458"/><path d="m246.513 469.17c-.074.147-.16.25-.26.31-.094.06-.207.09-.34.09-.134 0-.284-.05-.45-.15-.167-.107-.364-.223-.59-.35-.227-.127-.494-.24-.8-.34-.3-.107-.657-.16-1.07-.16-.374 0-.7.047-.98.14-.274.087-.507.21-.7.37-.187.16-.327.353-.42.58-.094.22-.14.463-.14.73 0 .34.093.623.28.85.193.227.446.42.76.58.313.16.67.303 1.07.43s.806.263 1.22.41c.42.14.83.307 1.23.5.4.187.756.427 1.07.72.313.287.563.64.75 1.06.193.42.29.93.29 1.53 0 .653-.114 1.267-.34 1.84-.22.567-.547 1.063-.98 1.49-.427.42-.95.753-1.57 1-.62.24-1.33.36-2.13.36-.46 0-.914-.047-1.36-.14-.447-.087-.877-.213-1.29-.38-.407-.167-.79-.367-1.15-.6-.354-.233-.67-.493-.95-.78l.78-1.29c.073-.093.16-.17.26-.23.106-.067.223-.1.35-.1.166 0 .346.07.54.21.193.133.42.283.68.45.266.167.576.32.93.46.36.133.79.2 1.29.2.766 0 1.36-.18 1.78-.54.42-.367.63-.89.63-1.57 0-.38-.097-.69-.29-.93-.187-.24-.437-.44-.75-.6-.314-.167-.67-.307-1.07-.42s-.807-.237-1.22-.37c-.414-.133-.82-.293-1.22-.48s-.757-.43-1.07-.73c-.314-.3-.567-.673-.76-1.12-.187-.453-.28-1.01-.28-1.67 0-.527.103-1.04.31-1.54.213-.5.52-.943.92-1.33.406-.387.903-.697 1.49-.93.586-.233 1.256-.35 2.01-.35.853 0 1.64.133 2.36.4s1.333.64 1.84 1.12zm5.462 1.57v10.26h-2.47v-10.26zm.37-2.99c0 .213-.043.413-.13.6-.086.187-.203.35-.35.49-.14.14-.306.253-.5.34-.193.08-.4.12-.62.12-.213 0-.416-.04-.61-.12-.186-.087-.35-.2-.49-.34s-.253-.303-.34-.49c-.08-.187-.12-.387-.12-.6 0-.22.04-.427.12-.62.087-.193.2-.36.34-.5s.304-.25.49-.33c.194-.087.397-.13.61-.13.22 0 .427.043.62.13.194.08.36.19.5.33.147.14.264.307.35.5.087.193.13.4.13.62zm5.98 2.81c.44 0 .853.047 1.24.14.387.087.74.217 1.06.39h2.95v.92c0 .153-.04.273-.12.36s-.217.147-.41.18l-.92.17c.067.173.117.357.15.55.04.193.06.397.06.61 0 .507-.103.967-.31 1.38-.2.407-.48.753-.84 1.04-.353.287-.777.51-1.27.67-.487.153-1.017.23-1.59.23-.387 0-.763-.037-1.13-.11-.32.193-.48.41-.48.65 0 .207.093.36.28.46.193.093.443.16.75.2.313.04.667.067 1.06.08.393.007.797.027 1.21.06s.817.093 1.21.18c.393.08.743.21 1.05.39.313.18.563.427.75.74.193.307.29.703.29 1.19 0 .453-.113.893-.34 1.32-.22.427-.543.807-.97 1.14-.42.333-.937.6-1.55.8-.613.207-1.313.31-2.1.31-.78 0-1.457-.077-2.03-.23-.573-.147-1.05-.347-1.43-.6-.373-.247-.653-.533-.84-.86s-.28-.667-.28-1.02c0-.48.147-.883.44-1.21s.7-.587 1.22-.78c-.253-.14-.457-.327-.61-.56s-.23-.537-.23-.91c0-.153.027-.31.08-.47.053-.167.133-.33.24-.49.113-.16.253-.31.42-.45.167-.147.363-.277.59-.39-.52-.28-.93-.653-1.23-1.12-.293-.467-.44-1.013-.44-1.64 0-.507.1-.963.3-1.37.207-.413.49-.763.85-1.05.367-.293.797-.517 1.29-.67.5-.153 1.043-.23 1.63-.23zm2.71 10.9c0-.2-.06-.363-.18-.49s-.283-.223-.49-.29c-.207-.073-.45-.127-.73-.16-.273-.033-.567-.057-.88-.07-.307-.02-.627-.037-.96-.05-.327-.02-.643-.05-.95-.09-.28.153-.507.337-.68.55-.167.207-.25.447-.25.72 0 .18.043.347.13.5.093.16.237.297.43.41.2.113.457.2.77.26.313.067.697.1 1.15.1.46 0 .857-.037 1.19-.11.333-.067.607-.163.82-.29.22-.12.38-.267.48-.44.1-.167.15-.35.15-.55zm-2.71-5.84c.307 0 .573-.04.8-.12.227-.087.413-.203.56-.35.153-.147.267-.323.34-.53.08-.207.12-.433.12-.68 0-.507-.153-.907-.46-1.2-.3-.3-.753-.45-1.36-.45s-1.063.15-1.37.45c-.3.293-.45.693-.45 1.2 0 .24.037.463.11.67.08.207.193.387.34.54.153.147.343.263.57.35.233.08.5.12.8.12zm6.802 5.38v-10.26h1.51c.32 0 .53.15.63.45l.17.81c.206-.213.423-.407.65-.58.233-.173.476-.323.73-.45.26-.127.536-.223.83-.29.293-.067.613-.1.96-.1.56 0 1.056.097 1.49.29.433.187.793.453 1.08.8.293.34.513.75.66 1.23.153.473.23.997.23 1.57v6.53h-2.47v-6.53c0-.627-.147-1.11-.44-1.45-.287-.347-.72-.52-1.3-.52-.427 0-.827.097-1.2.29-.374.193-.727.457-1.06.79v7.42zm18.404 0h-2.7v-14.46h2.7zm3.119 0v-10.26h1.51c.32 0 .53.15.63.45l.17.81c.207-.213.423-.407.65-.58.233-.173.477-.323.73-.45.26-.127.537-.223.83-.29s.613-.1.96-.1c.56 0 1.057.097 1.49.29.433.187.793.453 1.08.8.293.34.513.75.66 1.23.153.473.23.997.23 1.57v6.53h-2.47v-6.53c0-.627-.147-1.11-.44-1.45-.287-.347-.72-.52-1.3-.52-.427 0-.827.097-1.2.29s-.727.457-1.06.79v7.42z" fill="#fff"/></g></svg>