<svg width="59" height="69" viewBox="0 0 59 69" fill="none" xmlns="http://www.w3.org/2000/svg">
<path d="M58.7786 8.99557V3.37334H35.9203V0H22.8583V3.37334H0V8.99557H3.26548V40.4801H0V46.1023H16.9935L9.85195 68.2359L11.9168 68.9477L19.2892 46.1023H28.3008V68.5912H30.4778V46.1023H39.4894L46.8607 68.9465L48.9256 68.2347L41.7851 46.1023H58.7786V40.4801H55.5131V8.99557H58.7786ZM25.0353 2.24889H33.7433V3.37334H25.0353V2.24889ZM2.17699 6.74668V5.62223H22.8583H35.9203H56.6016V6.74668H55.5131H3.26548H2.17699ZM56.6016 42.7289V43.8534H30.4778H28.3008H2.17699V42.7289H3.26548H55.5131H56.6016ZM53.3361 40.4801H5.44246V8.99557H53.3361V40.4801Z" fill="#FF0000"/>
<path d="M28.3005 25.8618H7.61914V38.2307H28.3005V25.8618ZM26.1235 35.9818H9.79613V28.1107H26.1235V35.9818Z" fill="#FF0000"/>
<path d="M30.4785 38.2307H51.1599V25.8618H30.4785V38.2307ZM32.6555 28.1107H48.9829V35.9818H32.6555V28.1107Z" fill="#FF0000"/>
<path d="M20.6811 11.2445H7.61914V23.6134H20.6811V11.2445ZM18.5041 21.3645H9.79613V13.4934H18.5041V21.3645Z" fill="#FF0000"/>
<path d="M35.9213 11.2445H22.8594V23.6134H35.9213V11.2445ZM33.7443 21.3645H25.0364V13.4934H33.7443V21.3645Z" fill="#FF0000"/>
<path d="M51.1596 11.2445H38.0977V23.6134H51.1596V11.2445ZM48.9826 21.3645H40.2746V13.4934H48.9826V21.3645Z" fill="#FF0000"/>
</svg>
