<svg width="70" height="70" viewBox="0 0 70 70" fill="none" xmlns="http://www.w3.org/2000/svg">
<path d="M70 9.13287V3.42483H42.7778V0H27.2222V3.42483H0V9.13287H3.88889V41.0979H0V46.8059H20.2378L11.7328 69.2774L14.1919 70L22.9717 46.8059H33.7037V69.6381H36.2963V46.8059H47.0283L55.8068 69.9989L58.2659 69.2762L49.7622 46.8059H70V41.0979H66.1111V9.13287H70ZM29.8148 2.28322H40.1852V3.42483H29.8148V2.28322ZM2.59259 6.84965V5.70804H27.2222H42.7778H67.4074V6.84965H66.1111H3.88889H2.59259ZM67.4074 43.3811V44.5227H36.2963H33.7037H2.59259V43.3811H3.88889H66.1111H67.4074ZM63.5185 41.0979H6.48148V9.13287H63.5185V41.0979Z" fill="#B30000"/>
<path d="M33.7036 26.257H9.07397V38.8146H33.7036V26.257ZM31.111 36.5314H11.6666V28.5402H31.111V36.5314Z" fill="#B30000"/>
<path d="M36.2964 38.8146H60.926V26.257H36.2964V38.8146ZM38.889 28.5402H58.3334V36.5314H38.889V28.5402Z" fill="#B30000"/>
<path d="M24.6295 11.4161H9.07397V23.9738H24.6295V11.4161ZM22.0369 21.6906H11.6666V13.6994H22.0369V21.6906Z" fill="#B30000"/>
<path d="M42.7777 11.4161H27.2222V23.9738H42.7777V11.4161ZM40.1851 21.6906H29.8148V13.6994H40.1851V21.6906Z" fill="#B30000"/>
<path d="M60.9259 11.4161H45.3704V23.9738H60.9259V11.4161ZM58.3333 21.6906H47.963V13.6994H58.3333V21.6906Z" fill="#B30000"/>
</svg>
