<svg fill="none" height="70" viewBox="0 0 70 70" width="70" xmlns="http://www.w3.org/2000/svg"><g fill="#b30000"><path d="m70 9.13287v-5.70804h-27.2222v-3.42483h-15.5556v3.42483h-27.2222v5.70804h3.88889v31.96503h-3.88889v5.708h20.2378l-8.505 22.4715 2.4591.7226 8.7798-23.1941h10.732v22.8322h2.5926v-22.8322h10.732l8.7785 23.193 2.4591-.7227-8.5037-22.4703h20.2378v-5.708h-3.8889v-31.96503zm-40.1852-6.84965h10.3704v1.14161h-10.3704zm-27.22221 4.56643v-1.14161h24.62961 15.5556 24.6296v1.14161h-1.2963-62.22221zm64.81481 36.53145v1.1416h-31.1111-2.5926-31.11111v-1.1416h1.2963 62.22221zm-3.8889-2.2832h-57.03702v-31.96503h57.03702z"/><path d="m33.7036 26.257h-24.62963v12.5576h24.62963zm-2.5926 10.2744h-19.4444v-7.9912h19.4444z"/><path d="m36.2964 38.8146h24.6296v-12.5576h-24.6296zm2.5926-10.2744h19.4444v7.9912h-19.4444z"/><path d="m24.6295 11.4161h-15.55553v12.5577h15.55553zm-2.5926 10.2745h-10.3703v-7.9912h10.3703z"/><path d="m42.7777 11.4161h-15.5555v12.5577h15.5555zm-2.5926 10.2745h-10.3703v-7.9912h10.3703z"/><path d="m60.9259 11.4161h-15.5555v12.5577h15.5555zm-2.5926 10.2745h-10.3703v-7.9912h10.3703z"/></g></svg>