<svg width="81" height="50" viewBox="0 0 81 50" fill="none" xmlns="http://www.w3.org/2000/svg">
<path d="M25.0443 12H2.96359C1.32769 12 0 12.9404 0 14.0992V17.5978C0 18.7565 1.32769 19.6969 2.96359 19.6969H12.8422V22.9884C12.8422 23.7665 13.4981 24.4494 14.5176 24.7405C14.9049 24.8525 14.9523 25.0932 14.9523 25.1939C14.9523 25.2947 14.9128 25.5354 14.5176 25.6473L12.4075 26.2407C11.3881 26.5262 10.7321 27.2147 10.7321 27.9928C10.7321 28.7709 11.3881 29.4538 12.4075 29.7449L14.5097 30.3439C14.897 30.4558 14.9444 30.6965 14.9444 30.7973C14.9444 30.898 14.9049 31.1387 14.5097 31.2507L12.4075 31.8385C11.3881 32.1239 10.7321 32.8125 10.7321 33.5906C10.7321 34.3687 11.3881 35.0516 12.4075 35.3427L14.5097 35.9416C14.897 36.0536 14.9444 36.2943 14.9444 36.395C14.9444 36.4958 14.9049 36.7365 14.5097 36.8485C13.4902 37.1339 12.8343 37.8225 12.8343 38.6006C12.8343 39.3731 13.7194 40 14.81 40V38.6006C14.81 38.399 14.976 38.2255 15.2447 38.1471C16.2642 37.8617 16.9201 37.1731 16.9201 36.395C16.9201 35.617 16.2642 34.934 15.2447 34.6429L13.1425 34.044C12.7553 33.932 12.7079 33.6913 12.7079 33.5906C12.7079 33.4898 12.7474 33.2491 13.1425 33.1371L15.2447 32.5382C16.2642 32.2527 16.9201 31.5642 16.9201 30.7861C16.9201 30.008 16.2642 29.3251 15.2447 29.034L13.1425 28.435C12.7553 28.3231 12.7079 28.0824 12.7079 27.9816C12.7079 27.8808 12.7474 27.6401 13.1425 27.5282L15.2447 26.9292C16.2642 26.6437 16.9201 25.9552 16.9201 25.1771C16.9201 24.399 16.2642 23.7161 15.2447 23.425C14.9839 23.3523 14.81 23.1731 14.81 22.9716V19.6801H25.0364C26.6723 19.6801 28 18.7397 28 17.581V14.0992C28.0079 12.9404 26.6802 12 25.0443 12ZM26.0321 17.5978C26.0321 17.984 25.5896 18.2975 25.0443 18.2975H2.96359C2.41829 18.2975 1.97572 17.984 1.97572 17.5978V14.0992C1.97572 13.7129 2.41829 13.3994 2.96359 13.3994H25.0443C25.5896 13.3994 26.0321 13.7129 26.0321 14.0992V17.5978Z" fill="#7C4660"/>
<rect x="0.87793" y="12.7776" width="26.343" height="6.21973" fill="#7C4660"/>
<path d="M23.788 36.14C22.6307 36.14 21.7067 35.72 21.016 34.88C20.3253 34.04 19.98 32.9387 19.98 31.576C19.98 30.0827 20.3253 28.6733 21.016 27.348C21.7067 26.004 22.6213 24.9307 23.76 24.128C24.9173 23.3067 26.14 22.896 27.428 22.896C27.8387 22.896 28.1093 22.98 28.24 23.148C28.3893 23.2973 28.5107 23.5773 28.604 23.988C28.996 23.9133 29.4067 23.876 29.836 23.876C30.7507 23.876 31.208 24.2027 31.208 24.856C31.208 25.248 31.068 26.1813 30.788 27.656C30.3587 29.8027 30.144 31.296 30.144 32.136C30.144 32.416 30.2093 32.64 30.34 32.808C30.4893 32.976 30.676 33.06 30.9 33.06C31.2547 33.06 31.684 32.836 32.188 32.388C32.692 31.9213 33.3733 31.1747 34.232 30.148C34.456 29.8867 34.708 29.756 34.988 29.756C35.2307 29.756 35.4173 29.868 35.548 30.092C35.6973 30.316 35.772 30.624 35.772 31.016C35.772 31.7627 35.5947 32.3413 35.24 32.752C34.4747 33.704 33.6627 34.5067 32.804 35.16C31.9453 35.8133 31.1147 36.14 30.312 36.14C29.696 36.14 29.1267 35.9347 28.604 35.524C28.1 35.0947 27.7173 34.516 27.456 33.788C26.4853 35.356 25.2627 36.14 23.788 36.14ZM24.796 33.312C25.2067 33.312 25.5987 33.0693 25.972 32.584C26.3453 32.0987 26.616 31.4547 26.784 30.652L27.82 25.5C27.036 25.5187 26.308 25.8173 25.636 26.396C24.9827 26.956 24.46 27.7027 24.068 28.636C23.676 29.5693 23.48 30.5587 23.48 31.604C23.48 32.1827 23.592 32.612 23.816 32.892C24.0587 33.172 24.3853 33.312 24.796 33.312ZM38.7043 36.756C37.7337 36.756 36.987 36.532 36.4643 36.084C35.9603 35.636 35.7083 35.132 35.7083 34.572C35.7083 34.0867 35.8857 33.6667 36.2403 33.312C36.595 32.9573 37.1177 32.78 37.8083 32.78C38.051 32.78 38.331 32.808 38.6483 32.864C38.9843 32.9013 39.2363 32.9293 39.4043 32.948C39.3857 32.4627 39.2737 32.0053 39.0683 31.576C38.8817 31.1467 38.639 30.736 38.3403 30.344C38.0417 29.9333 37.7617 29.5787 37.5003 29.28C36.9217 30.3813 36.343 31.296 35.7643 32.024C35.2043 32.752 34.5883 33.4427 33.9163 34.096C33.5803 34.432 33.2257 34.6 32.8523 34.6C32.5537 34.6 32.311 34.4973 32.1243 34.292C31.9377 34.068 31.8443 33.7973 31.8443 33.48C31.8443 33.1067 31.975 32.7613 32.2363 32.444L32.6003 31.996C33.627 30.7267 34.4017 29.6813 34.9243 28.86C35.2417 28.3187 35.615 27.6 36.0443 26.704C36.4737 25.7893 36.8937 24.8467 37.3043 23.876C37.659 23.0547 38.3963 22.644 39.5163 22.644C40.039 22.644 40.403 22.6907 40.6083 22.784C40.8137 22.8773 40.9163 23.0267 40.9163 23.232C40.9163 23.344 40.879 23.5213 40.8043 23.764C40.7297 24.0067 40.627 24.2493 40.4963 24.492C40.1603 25.164 39.9923 25.7333 39.9923 26.2C39.9923 26.48 40.0857 26.788 40.2723 27.124C40.4777 27.46 40.7857 27.88 41.1963 28.384C41.7937 29.168 42.2417 29.84 42.5403 30.4C42.8577 30.9413 43.0163 31.5387 43.0163 32.192C43.0163 32.3787 42.9977 32.64 42.9603 32.976C43.875 32.6213 44.9483 31.6787 46.1803 30.148C46.4043 29.8867 46.6563 29.756 46.9363 29.756C47.179 29.756 47.3657 29.868 47.4963 30.092C47.6457 30.316 47.7203 30.624 47.7203 31.016C47.7203 31.7253 47.543 32.304 47.1883 32.752C46.255 33.9093 45.359 34.7027 44.5003 35.132C43.6603 35.5427 42.615 35.7667 41.3643 35.804C40.6177 36.4387 39.731 36.756 38.7043 36.756ZM57.9336 29.756C58.1762 29.756 58.3629 29.868 58.4936 30.092C58.6429 30.316 58.7176 30.624 58.7176 31.016C58.7176 31.7627 58.5402 32.3413 58.1856 32.752C57.3829 33.7413 56.5056 34.5533 55.5536 35.188C54.6016 35.8227 53.5096 36.14 52.2776 36.14C48.4696 36.14 46.5656 33.4613 46.5656 28.104C46.5656 27.2827 46.5936 26.452 46.6496 25.612H45.5576C44.9976 25.612 44.6149 25.5093 44.4096 25.304C44.2229 25.0987 44.1296 24.772 44.1296 24.324C44.1296 23.2787 44.5496 22.756 45.3896 22.756H46.9856C47.3029 20.7027 47.7882 18.8267 48.4416 17.128C49.0949 15.4293 49.8789 14.076 50.7936 13.068C51.7269 12.06 52.7256 11.556 53.7896 11.556C54.5736 11.556 55.1896 11.9013 55.6376 12.592C56.0856 13.2827 56.3096 14.1507 56.3096 15.196C56.3096 18.0893 55.0962 20.6093 52.6696 22.756H55.8056C56.1042 22.756 56.3189 22.8213 56.4496 22.952C56.5802 23.0827 56.6456 23.3253 56.6456 23.68C56.6456 24.968 55.5909 25.612 53.4816 25.612H50.0656C50.0282 26.5453 50.0096 27.2733 50.0096 27.796C50.0096 29.7373 50.2336 31.1 50.6816 31.884C51.1482 32.668 51.8762 33.06 52.8656 33.06C53.6682 33.06 54.3776 32.8173 54.9936 32.332C55.6096 31.8467 56.3376 31.1187 57.1776 30.148C57.4016 29.8867 57.6536 29.756 57.9336 29.756ZM53.0336 14.244C52.7536 14.244 52.4362 14.5987 52.0816 15.308C51.7456 15.9987 51.4189 16.9693 51.1016 18.22C50.8029 19.452 50.5509 20.824 50.3456 22.336C51.4469 21.384 52.2682 20.32 52.8096 19.144C53.3696 17.9493 53.6496 16.8667 53.6496 15.896C53.6496 14.7947 53.4442 14.244 53.0336 14.244ZM68.9258 29.756C69.1684 29.756 69.3551 29.868 69.4857 30.092C69.6351 30.316 69.7098 30.624 69.7098 31.016C69.7098 31.7627 69.5324 32.3413 69.1778 32.752C68.4871 33.592 67.5071 34.3667 66.2378 35.076C64.9871 35.7853 63.6431 36.14 62.2058 36.14C60.2458 36.14 58.7244 35.608 57.6418 34.544C56.5591 33.48 56.0177 32.024 56.0177 30.176C56.0177 28.888 56.2884 27.6933 56.8298 26.592C57.3711 25.472 58.1178 24.5853 59.0698 23.932C60.0404 23.2787 61.1324 22.952 62.3458 22.952C63.4284 22.952 64.2964 23.2787 64.9498 23.932C65.6031 24.5667 65.9298 25.4347 65.9298 26.536C65.9298 27.824 65.4631 28.9347 64.5298 29.868C63.6151 30.7827 62.0564 31.5107 59.8538 32.052C60.3204 32.9107 61.2071 33.34 62.5138 33.34C63.3538 33.34 64.3058 33.0507 65.3698 32.472C66.4524 31.8747 67.3858 31.1 68.1698 30.148C68.3938 29.8867 68.6458 29.756 68.9258 29.756ZM61.8698 25.696C61.1791 25.696 60.5911 26.0973 60.1058 26.9C59.6391 27.7027 59.4058 28.6733 59.4058 29.812V29.868C60.5071 29.6067 61.3751 29.2147 62.0098 28.692C62.6444 28.1693 62.9618 27.5627 62.9618 26.872C62.9618 26.5173 62.8591 26.2373 62.6538 26.032C62.4671 25.808 62.2058 25.696 61.8698 25.696ZM78.7419 26.788C79.1526 26.788 79.4979 26.9373 79.7779 27.236C80.0766 27.516 80.2259 27.8707 80.2259 28.3C80.2259 28.5427 80.1699 28.804 80.0579 29.084C79.7593 29.7747 79.3393 30.3533 78.7979 30.82C78.2566 31.2867 77.6593 31.52 77.0059 31.52C76.4833 31.52 76.0353 31.3333 75.6619 30.96C75.3073 30.5867 75.1299 30.0827 75.1299 29.448C75.1299 29.0933 75.1486 28.7107 75.1859 28.3C75.2233 28.0013 75.2419 27.796 75.2419 27.684C75.2419 27.5347 75.2046 27.4227 75.1299 27.348C75.0739 27.2733 74.9993 27.236 74.9059 27.236C74.6446 27.236 74.2899 27.5533 73.8419 28.188C73.3939 28.804 72.9459 29.6253 72.4979 30.652C72.0499 31.6787 71.6859 32.7613 71.4059 33.9C71.2006 34.796 70.9673 35.3933 70.7059 35.692C70.4446 35.9907 70.0153 36.14 69.4179 36.14C68.7086 36.14 68.2046 35.7667 67.9059 35.02C67.6259 34.2733 67.4859 33.0787 67.4859 31.436C67.4859 29.0093 67.8313 26.704 68.5219 24.52C68.6899 23.9787 68.9606 23.5867 69.3339 23.344C69.7259 23.0827 70.2673 22.952 70.9579 22.952C71.3313 22.952 71.5926 22.9987 71.7419 23.092C71.8913 23.1853 71.9659 23.3627 71.9659 23.624C71.9659 23.9227 71.8259 24.5947 71.5459 25.64C71.3593 26.3867 71.2099 27.04 71.0979 27.6C70.9859 28.16 70.8926 28.8507 70.8179 29.672C71.4339 28.0667 72.1246 26.76 72.8899 25.752C73.6553 24.744 74.4019 24.0253 75.1299 23.596C75.8579 23.1667 76.5206 22.952 77.1179 22.952C77.6593 22.952 78.0699 23.1107 78.3499 23.428C78.6486 23.7267 78.7979 24.1747 78.7979 24.772C78.7979 25.1267 78.6953 25.7987 78.4899 26.788H78.7419Z" fill="#7C4660"/>
</svg>
