<svg width="117" height="33" viewBox="0 0 117 33" fill="none" xmlns="http://www.w3.org/2000/svg">
<path d="M22.361 0H2.64606C1.18543 0 0 0.839664 0 1.87425V4.998C0 6.03259 1.18543 6.87225 2.64606 6.87225H11.4663V9.81108C11.4663 10.5058 12.0519 11.1156 12.9622 11.3754C13.3079 11.4754 13.3503 11.6903 13.3503 11.7803C13.3503 11.8703 13.315 12.0852 12.9622 12.1851L11.0782 12.7149C10.1679 12.9698 9.58226 13.5846 9.58226 14.2793C9.58226 14.974 10.1679 15.5838 11.0782 15.8437L12.9551 16.3784C13.3009 16.4784 13.3432 16.6933 13.3432 16.7833C13.3432 16.8733 13.3079 17.0882 12.9551 17.1881L11.0782 17.7129C10.1679 17.9678 9.58226 18.5826 9.58226 19.2773C9.58226 19.972 10.1679 20.5818 11.0782 20.8417L12.9551 21.3764C13.3009 21.4764 13.3432 21.6913 13.3432 21.7813C13.3432 21.8713 13.3079 22.0862 12.9551 22.1861C12.0449 22.441 11.4592 23.0558 11.4592 23.7505C11.4592 24.4402 12.2495 25 13.2232 25V23.7505C13.2232 23.5706 13.3714 23.4156 13.6113 23.3457C14.5216 23.0908 15.1072 22.476 15.1072 21.7813C15.1072 21.0866 14.5216 20.4768 13.6113 20.2169L11.7344 19.6821C11.3886 19.5822 11.3463 19.3673 11.3463 19.2773C11.3463 19.1873 11.3816 18.9724 11.7344 18.8724L13.6113 18.3377C14.5216 18.0828 15.1072 17.468 15.1072 16.7733C15.1072 16.0786 14.5216 15.4688 13.6113 15.2089L11.7344 14.6741C11.3886 14.5742 11.3463 14.3593 11.3463 14.2693C11.3463 14.1793 11.3816 13.9644 11.7344 13.8645L13.6113 13.3297C14.5216 13.0748 15.1072 12.46 15.1072 11.7653C15.1072 11.0706 14.5216 10.4608 13.6113 10.2009C13.3785 10.1359 13.2232 9.97601 13.2232 9.79608V6.85726H22.3539C23.8145 6.85726 25 6.01759 25 4.98301V1.87425C25.007 0.839664 23.8216 0 22.361 0ZM23.243 4.998C23.243 5.34286 22.8478 5.62275 22.361 5.62275H2.64606C2.15918 5.62275 1.76404 5.34286 1.76404 4.998V1.87425C1.76404 1.52939 2.15918 1.2495 2.64606 1.2495H22.361C22.8478 1.2495 23.243 1.52939 23.243 1.87425V4.998Z" fill="#7C4660"/>
<rect x="0.783203" y="0.694092" width="23.5205" height="5.55333" fill="#7C4660"/>
<path d="M48.184 2.08C48.68 2.176 49.048 2.344 49.288 2.584C49.544 2.824 49.672 3.104 49.672 3.424C49.672 3.952 49.52 4.336 49.216 4.576C48.928 4.816 48.464 4.912 47.824 4.864C46.384 4.752 45.256 4.68 44.44 4.648C43.64 4.6 42.584 4.568 41.272 4.552C40.68 7.496 40.136 10.456 39.64 13.432C39.464 14.52 39.28 15.784 39.088 17.224C38.896 18.648 38.768 19.8 38.704 20.68C38.672 21.144 38.48 21.504 38.128 21.76C37.776 22 37.352 22.12 36.856 22.12C36.328 22.12 35.92 21.992 35.632 21.736C35.344 21.48 35.2 21.144 35.2 20.728C35.2 20.344 35.256 19.712 35.368 18.832C35.496 17.936 35.64 17 35.8 16.024C35.976 15.048 36.112 14.2 36.208 13.48C36.384 12.264 36.584 11.056 36.808 9.856C37.032 8.656 37.256 7.52 37.48 6.448C37.528 6.208 37.584 5.936 37.648 5.632C37.712 5.312 37.784 4.96 37.864 4.576C36.296 4.624 35.064 4.752 34.168 4.96C33.272 5.168 32.632 5.464 32.248 5.848C31.88 6.216 31.696 6.696 31.696 7.288C31.696 7.832 31.856 8.352 32.176 8.848C32.24 8.96 32.272 9.08 32.272 9.208C32.272 9.512 32.088 9.8 31.72 10.072C31.368 10.328 31 10.456 30.616 10.456C30.344 10.456 30.12 10.376 29.944 10.216C29.624 9.944 29.36 9.56 29.152 9.064C28.944 8.552 28.84 7.976 28.84 7.336C28.84 5.976 29.28 4.888 30.16 4.072C31.056 3.24 32.408 2.632 34.216 2.248C36.04 1.864 38.376 1.672 41.224 1.672C42.984 1.672 44.384 1.704 45.424 1.768C46.48 1.832 47.4 1.936 48.184 2.08ZM46.5649 22.12C45.5729 22.12 44.7809 21.76 44.1889 21.04C43.5969 20.32 43.3009 19.376 43.3009 18.208C43.3009 16.928 43.5969 15.72 44.1889 14.584C44.7809 13.432 45.5649 12.512 46.5409 11.824C47.5329 11.12 48.5809 10.768 49.6849 10.768C50.0369 10.768 50.2689 10.84 50.3809 10.984C50.5089 11.112 50.6129 11.352 50.6929 11.704C51.0289 11.64 51.3809 11.608 51.7489 11.608C52.5329 11.608 52.9249 11.888 52.9249 12.448C52.9249 12.784 52.8049 13.584 52.5649 14.848C52.1969 16.688 52.0129 17.968 52.0129 18.688C52.0129 18.928 52.0689 19.12 52.1809 19.264C52.3089 19.408 52.4689 19.48 52.6609 19.48C52.9649 19.48 53.3329 19.288 53.7649 18.904C54.1969 18.504 54.7809 17.864 55.5169 16.984C55.7089 16.76 55.9249 16.648 56.1649 16.648C56.3729 16.648 56.5329 16.744 56.6449 16.936C56.7729 17.128 56.8369 17.392 56.8369 17.728C56.8369 18.368 56.6849 18.864 56.3809 19.216C55.7249 20.032 55.0289 20.72 54.2929 21.28C53.5569 21.84 52.8449 22.12 52.1569 22.12C51.6289 22.12 51.1409 21.944 50.6929 21.592C50.2609 21.224 49.9329 20.728 49.7089 20.104C48.8769 21.448 47.8289 22.12 46.5649 22.12ZM47.4289 19.696C47.7809 19.696 48.1169 19.488 48.4369 19.072C48.7569 18.656 48.9889 18.104 49.1329 17.416L50.0209 13C49.3489 13.016 48.7249 13.272 48.1489 13.768C47.5889 14.248 47.1409 14.888 46.8049 15.688C46.4689 16.488 46.3009 17.336 46.3009 18.232C46.3009 18.728 46.3969 19.096 46.5889 19.336C46.7969 19.576 47.0769 19.696 47.4289 19.696ZM59.3504 22.648C58.5184 22.648 57.8784 22.456 57.4304 22.072C56.9984 21.688 56.7824 21.256 56.7824 20.776C56.7824 20.36 56.9344 20 57.2384 19.696C57.5424 19.392 57.9904 19.24 58.5824 19.24C58.7904 19.24 59.0304 19.264 59.3024 19.312C59.5904 19.344 59.8064 19.368 59.9504 19.384C59.9344 18.968 59.8384 18.576 59.6624 18.208C59.5024 17.84 59.2944 17.488 59.0384 17.152C58.7824 16.8 58.5424 16.496 58.3184 16.24C57.8224 17.184 57.3264 17.968 56.8304 18.592C56.3504 19.216 55.8224 19.808 55.2464 20.368C54.9584 20.656 54.6544 20.8 54.3344 20.8C54.0784 20.8 53.8704 20.712 53.7104 20.536C53.5504 20.344 53.4704 20.112 53.4704 19.84C53.4704 19.52 53.5824 19.224 53.8064 18.952L54.1184 18.568C54.9984 17.48 55.6624 16.584 56.1104 15.88C56.3824 15.416 56.7024 14.8 57.0704 14.032C57.4384 13.248 57.7984 12.44 58.1504 11.608C58.4544 10.904 59.0864 10.552 60.0464 10.552C60.4944 10.552 60.8064 10.592 60.9824 10.672C61.1584 10.752 61.2464 10.88 61.2464 11.056C61.2464 11.152 61.2144 11.304 61.1504 11.512C61.0864 11.72 60.9984 11.928 60.8864 12.136C60.5984 12.712 60.4544 13.2 60.4544 13.6C60.4544 13.84 60.5344 14.104 60.6944 14.392C60.8704 14.68 61.1344 15.04 61.4864 15.472C61.9984 16.144 62.3824 16.72 62.6384 17.2C62.9104 17.664 63.0464 18.176 63.0464 18.736C63.0464 18.896 63.0304 19.12 62.9984 19.408C63.7824 19.104 64.7024 18.296 65.7584 16.984C65.9504 16.76 66.1664 16.648 66.4064 16.648C66.6144 16.648 66.7744 16.744 66.8864 16.936C67.0144 17.128 67.0784 17.392 67.0784 17.728C67.0784 18.336 66.9264 18.832 66.6224 19.216C65.8224 20.208 65.0544 20.888 64.3184 21.256C63.5984 21.608 62.7024 21.8 61.6304 21.832C60.9904 22.376 60.2304 22.648 59.3504 22.648ZM75.8326 16.648C76.0406 16.648 76.2006 16.744 76.3126 16.936C76.4406 17.128 76.5046 17.392 76.5046 17.728C76.5046 18.368 76.3526 18.864 76.0486 19.216C75.3606 20.064 74.6086 20.76 73.7926 21.304C72.9766 21.848 72.0406 22.12 70.9846 22.12C67.7206 22.12 66.0886 19.824 66.0886 15.232C66.0886 14.528 66.1126 13.816 66.1606 13.096H65.2246C64.7446 13.096 64.4166 13.008 64.2406 12.832C64.0806 12.656 64.0006 12.376 64.0006 11.992C64.0006 11.096 64.3606 10.648 65.0806 10.648H66.4486C66.7206 8.888 67.1366 7.28 67.6966 5.824C68.2566 4.368 68.9286 3.208 69.7126 2.344C70.5126 1.48 71.3686 1.048 72.2806 1.048C72.9526 1.048 73.4806 1.344 73.8646 1.936C74.2486 2.528 74.4406 3.272 74.4406 4.168C74.4406 6.648 73.4006 8.808 71.3206 10.648H74.0086C74.2646 10.648 74.4486 10.704 74.5606 10.816C74.6726 10.928 74.7286 11.136 74.7286 11.44C74.7286 12.544 73.8246 13.096 72.0166 13.096H69.0886C69.0566 13.896 69.0406 14.52 69.0406 14.968C69.0406 16.632 69.2326 17.8 69.6166 18.472C70.0166 19.144 70.6406 19.48 71.4886 19.48C72.1766 19.48 72.7846 19.272 73.3126 18.856C73.8406 18.44 74.4646 17.816 75.1846 16.984C75.3766 16.76 75.5926 16.648 75.8326 16.648ZM71.6326 3.352C71.3926 3.352 71.1206 3.656 70.8166 4.264C70.5286 4.856 70.2486 5.688 69.9766 6.76C69.7206 7.816 69.5046 8.992 69.3286 10.288C70.2726 9.472 70.9766 8.56 71.4406 7.552C71.9206 6.528 72.1606 5.6 72.1606 4.768C72.1606 3.824 71.9846 3.352 71.6326 3.352ZM85.2544 16.648C85.4624 16.648 85.6224 16.744 85.7344 16.936C85.8624 17.128 85.9264 17.392 85.9264 17.728C85.9264 18.368 85.7744 18.864 85.4704 19.216C84.8784 19.936 84.0384 20.6 82.9504 21.208C81.8784 21.816 80.7264 22.12 79.4944 22.12C77.8144 22.12 76.5104 21.664 75.5824 20.752C74.6544 19.84 74.1904 18.592 74.1904 17.008C74.1904 15.904 74.4224 14.88 74.8864 13.936C75.3504 12.976 75.9904 12.216 76.8064 11.656C77.6384 11.096 78.5744 10.816 79.6144 10.816C80.5424 10.816 81.2864 11.096 81.8464 11.656C82.4064 12.2 82.6864 12.944 82.6864 13.888C82.6864 14.992 82.2864 15.944 81.4864 16.744C80.7024 17.528 79.3664 18.152 77.4784 18.616C77.8784 19.352 78.6384 19.72 79.7584 19.72C80.4784 19.72 81.2944 19.472 82.2064 18.976C83.1344 18.464 83.9344 17.8 84.6064 16.984C84.7984 16.76 85.0144 16.648 85.2544 16.648ZM79.2064 13.168C78.6144 13.168 78.1104 13.512 77.6944 14.2C77.2944 14.888 77.0944 15.72 77.0944 16.696V16.744C78.0384 16.52 78.7824 16.184 79.3264 15.736C79.8704 15.288 80.1424 14.768 80.1424 14.176C80.1424 13.872 80.0544 13.632 79.8784 13.456C79.7184 13.264 79.4944 13.168 79.2064 13.168ZM93.6683 14.104C94.0203 14.104 94.3163 14.232 94.5563 14.488C94.8123 14.728 94.9403 15.032 94.9403 15.4C94.9403 15.608 94.8923 15.832 94.7963 16.072C94.5403 16.664 94.1803 17.16 93.7163 17.56C93.2523 17.96 92.7403 18.16 92.1803 18.16C91.7323 18.16 91.3483 18 91.0283 17.68C90.7243 17.36 90.5723 16.928 90.5723 16.384C90.5723 16.08 90.5883 15.752 90.6203 15.4C90.6523 15.144 90.6683 14.968 90.6683 14.872C90.6683 14.744 90.6363 14.648 90.5723 14.584C90.5243 14.52 90.4603 14.488 90.3803 14.488C90.1563 14.488 89.8523 14.76 89.4683 15.304C89.0843 15.832 88.7003 16.536 88.3163 17.416C87.9323 18.296 87.6203 19.224 87.3803 20.2C87.2043 20.968 87.0043 21.48 86.7803 21.736C86.5563 21.992 86.1883 22.12 85.6763 22.12C85.0683 22.12 84.6363 21.8 84.3803 21.16C84.1403 20.52 84.0203 19.496 84.0203 18.088C84.0203 16.008 84.3163 14.032 84.9083 12.16C85.0523 11.696 85.2843 11.36 85.6043 11.152C85.9403 10.928 86.4043 10.816 86.9963 10.816C87.3163 10.816 87.5403 10.856 87.6683 10.936C87.7963 11.016 87.8603 11.168 87.8603 11.392C87.8603 11.648 87.7403 12.224 87.5003 13.12C87.3403 13.76 87.2123 14.32 87.1163 14.8C87.0203 15.28 86.9403 15.872 86.8763 16.576C87.4043 15.2 87.9963 14.08 88.6523 13.216C89.3083 12.352 89.9483 11.736 90.5723 11.368C91.1963 11 91.7643 10.816 92.2763 10.816C92.7403 10.816 93.0923 10.952 93.3323 11.224C93.5883 11.48 93.7163 11.864 93.7163 12.376C93.7163 12.68 93.6283 13.256 93.4523 14.104H93.6683Z" fill="#7C4660"/>
</svg>
