<svg fill="none" height="65" viewBox="0 0 185 65" width="185" xmlns="http://www.w3.org/2000/svg"><g fill="#7c4660"><path d="m34.4887 7h-29.96669c-2.22015 0-4.02201 1.27629-4.02201 2.84886v4.74814c0 1.5725 1.80186 2.8488 4.02201 2.8488h13.40669v4.467c0 1.056.8902 1.9828 2.2738 2.3779.5255.1519.5899.4786.5899.6153 0 .1368-.0536.4635-.5899.6154l-2.8637.8053c-1.3836.3874-2.2738 1.3218-2.2738 2.3778s.8902 1.9828 2.2738 2.3779l2.853.8128c.5255.152.5899.4786.5899.6154 0 .1367-.0537.4634-.5899.6153l-2.853.7977c-1.3836.3875-2.2738 1.3219-2.2738 2.3779s.8902 1.9828 2.2738 2.3778l2.853.8129c.5255.1519.5899.4786.5899.6154 0 .1367-.0537.4634-.5899.6153-1.3836.3875-2.2738 1.3219-2.2738 2.3779 0 1.0483 1.2012 1.8992 2.6813 1.8992v-1.8992c0-.2735.2253-.509.5899-.6154 1.3836-.3874 2.2738-1.3219 2.2738-2.3778 0-1.056-.8902-1.9829-2.2738-2.3779l-2.8529-.8129c-.5256-.1519-.5899-.4786-.5899-.6153 0-.1368.0536-.4634.5899-.6154l2.8529-.8129c1.3836-.3874 2.2738-1.3218 2.2738-2.3778s-.8902-1.9828-2.2738-2.3779l-2.8529-.8128c-.5256-.152-.5899-.4786-.5899-.6154 0-.1367.0536-.4634.5899-.6153l2.8529-.8129c1.3836-.3874 2.2738-1.3219 2.2738-2.3779 0-1.0559-.8902-1.9828-2.2738-2.3778-.3539-.0988-.5899-.3419-.5899-.6154v-4.467h13.8786c2.2202 0 4.0221-1.2763 4.0221-2.8488v-4.72534c.0107-1.57257-1.7912-2.84886-4.0113-2.84886zm1.3406 7.597c0 .5242-.6006.9496-1.3406.9496h-29.96669c-.74005 0-1.34067-.4254-1.34067-.9496v-4.74814c0-.52419.60062-.94962 1.34067-.94962h29.96669c.74 0 1.3406.42543 1.3406.94962z"/><path d="m1.69165 8.05518h35.7512v8.44106h-35.7512z"/><path d="m78.845 7.65c.93.18 1.62.495 2.07.945.48.45.72.975.72 1.575 0 .99-.285 1.71-.855 2.16-.54.45-1.41.63-2.61.54-2.7-.21-4.815-.345-6.345-.405-1.5-.09-3.48-.15-5.94-.18-1.11 5.52-2.13 11.07-3.06 16.65-.33 2.04-.675 4.41-1.035 7.11-.36 2.67-.6 4.83-.72 6.48-.06.87-.42 1.545-1.08 2.025-.66.45-1.455.675-2.385.675-.99 0-1.755-.24-2.295-.72s-.81-1.11-.81-1.89c0-.72.105-1.905.315-3.555.24-1.68.51-3.435.81-5.265.33-1.83.585-3.42.765-4.77.33-2.28.705-4.545 1.125-6.795s.84-4.38 1.26-6.39c.09-.45.195-.96.315-1.53.12-.6.255-1.26.405-1.98-2.94.09-5.25.33-6.93.72s-2.88.945-3.6 1.665c-.69.69-1.035 1.59-1.035 2.7 0 1.02.3 1.995.9 2.925.12.21.18.435.18.675 0 .57-.345 1.11-1.035 1.62-.66.48-1.35.72-2.07.72-.51 0-.93-.15-1.26-.45-.6-.51-1.095-1.23-1.485-2.16-.39-.96-.585-2.04-.585-3.24 0-2.55.825-4.59 2.475-6.12 1.68-1.56 4.215-2.7 7.605-3.42 3.42-.72 7.8-1.08 13.14-1.08 3.3 0 5.925.06 7.875.18 1.98.12 3.705.315 5.175.585zm-3.0357 37.575c-1.86 0-3.345-.675-4.455-2.025s-1.665-3.12-1.665-5.31c0-2.4.555-4.665 1.665-6.795 1.11-2.16 2.58-3.885 4.41-5.175 1.86-1.32 3.825-1.98 5.895-1.98.66 0 1.095.135 1.305.405.24.24.435.69.585 1.35.63-.12 1.29-.18 1.98-.18 1.47 0 2.205.525 2.205 1.575 0 .63-.225 2.13-.675 4.5-.69 3.45-1.035 5.85-1.035 7.2 0 .45.105.81.315 1.08.24.27.54.405.9.405.57 0 1.26-.36 2.07-1.08.81-.75 1.905-1.95 3.285-3.6.36-.42.765-.63 1.215-.63.39 0 .69.18.9.54.24.36.36.855.36 1.485 0 1.2-.285 2.13-.855 2.79-1.23 1.53-2.535 2.82-3.915 3.87s-2.715 1.575-4.005 1.575c-.99 0-1.905-.33-2.745-.99-.81-.69-1.425-1.62-1.845-2.79-1.56 2.52-3.525 3.78-5.895 3.78zm1.62-4.545c.66 0 1.29-.39 1.89-1.17s1.035-1.815 1.305-3.105l1.665-8.28c-1.26.03-2.43.51-3.51 1.44-1.05.9-1.89 2.1-2.52 3.6s-.945 3.09-.945 4.77c0 .93.18 1.62.54 2.07.39.45.915.675 1.575.675zm22.3527 5.535c-1.56 0-2.76-.36-3.6-1.08-.81-.72-1.215-1.53-1.215-2.43 0-.78.285-1.455.855-2.025s1.41-.855 2.52-.855c.39 0 .84.045 1.35.135.54.06.945.105 1.215.135-.03-.78-.21-1.515-.54-2.205-.3-.69-.69-1.35-1.17-1.98-.48-.66-.93-1.23-1.35-1.71-.93 1.77-1.86 3.24-2.79 4.41-.9 1.17-1.89 2.28-2.97 3.33-.54.54-1.11.81-1.71.81-.48 0-.87-.165-1.17-.495-.3-.36-.45-.795-.45-1.305 0-.6.21-1.155.63-1.665l.585-.72c1.65-2.04 2.895-3.72 3.735-5.04.51-.87 1.11-2.025 1.8-3.465.69-1.47 1.365-2.985 2.025-4.545.57-1.32 1.755-1.98 3.555-1.98.84 0 1.425.075 1.755.225s.495.39.495.72c0 .18-.06.465-.18.855s-.285.78-.495 1.17c-.54 1.08-.81 1.995-.81 2.745 0 .45.15.945.45 1.485.33.54.825 1.215 1.485 2.025.96 1.26 1.68 2.34 2.16 3.24.51.87.765 1.83.765 2.88 0 .3-.03.72-.09 1.26 1.47-.57 3.195-2.085 5.175-4.545.36-.42.765-.63 1.215-.63.39 0 .69.18.9.54.24.36.36.855.36 1.485 0 1.14-.285 2.07-.855 2.79-1.5 1.86-2.94 3.135-4.32 3.825-1.35.66-3.03 1.02-5.04 1.08-1.2 1.02-2.625 1.53-4.275 1.53zm30.904-11.25c.39 0 .69.18.9.54.24.36.36.855.36 1.485 0 1.2-.285 2.13-.855 2.79-1.29 1.59-2.7 2.895-4.23 3.915s-3.285 1.53-5.265 1.53c-6.12 0-9.18-4.305-9.18-12.915 0-1.32.045-2.655.135-4.005h-1.755c-.9 0-1.515-.165-1.845-.495-.3-.33-.45-.855-.45-1.575 0-1.68.675-2.52 2.025-2.52h2.565c.51-3.3 1.29-6.315 2.34-9.045s2.31-4.905 3.78-6.525c1.5-1.62 3.105-2.43 4.815-2.43 1.26 0 2.25.555 2.97 1.665s1.08 2.505 1.08 4.185c0 4.65-1.95 8.7-5.85 12.15h5.04c.48 0 .825.105 1.035.315s.315.6.315 1.17c0 2.07-1.695 3.105-5.085 3.105h-5.49c-.06 1.5-.09 2.67-.09 3.51 0 3.12.36 5.31 1.08 6.57.75 1.26 1.92 1.89 3.51 1.89 1.29 0 2.43-.39 3.42-1.17s2.16-1.95 3.51-3.51c.36-.42.765-.63 1.215-.63zm-7.875-24.93c-.45 0-.96.57-1.53 1.71-.54 1.11-1.065 2.67-1.575 4.68-.48 1.98-.885 4.185-1.215 6.615 1.77-1.53 3.09-3.24 3.96-5.13.9-1.92 1.35-3.66 1.35-5.22 0-1.77-.33-2.655-.99-2.655zm25.541 24.93c.39 0 .69.18.9.54.24.36.36.855.36 1.485 0 1.2-.285 2.13-.855 2.79-1.11 1.35-2.685 2.595-4.725 3.735-2.01 1.14-4.17 1.71-6.48 1.71-3.15 0-5.595-.855-7.335-2.565s-2.61-4.05-2.61-7.02c0-2.07.435-3.99 1.305-5.76.87-1.8 2.07-3.225 3.6-4.275 1.56-1.05 3.315-1.575 5.265-1.575 1.74 0 3.135.525 4.185 1.575 1.05 1.02 1.575 2.415 1.575 4.185 0 2.07-.75 3.855-2.25 5.355-1.47 1.47-3.975 2.64-7.515 3.51.75 1.38 2.175 2.07 4.275 2.07 1.35 0 2.88-.465 4.59-1.395 1.74-.96 3.24-2.205 4.5-3.735.36-.42.765-.63 1.215-.63zm-11.34-6.525c-1.11 0-2.055.645-2.835 1.935-.75 1.29-1.125 2.85-1.125 4.68v.09c1.77-.42 3.165-1.05 4.185-1.89s1.53-1.815 1.53-2.925c0-.57-.165-1.02-.495-1.35-.3-.36-.72-.54-1.26-.54zm27.116 1.755c.66 0 1.215.24 1.665.72.48.45.72 1.02.72 1.71 0 .39-.09.81-.27 1.26-.48 1.11-1.155 2.04-2.025 2.79s-1.83 1.125-2.88 1.125c-.84 0-1.56-.3-2.16-.9-.57-.6-.855-1.41-.855-2.43 0-.57.03-1.185.09-1.845.06-.48.09-.81.09-.99 0-.24-.06-.42-.18-.54-.09-.12-.21-.18-.36-.18-.42 0-.99.51-1.71 1.53-.72.99-1.44 2.31-2.16 3.96s-1.305 3.39-1.755 5.22c-.33 1.44-.705 2.4-1.125 2.88s-1.11.72-2.07.72c-1.14 0-1.95-.6-2.43-1.8-.45-1.2-.675-3.12-.675-5.76 0-3.9.555-7.605 1.665-11.115.27-.87.705-1.5 1.305-1.89.63-.42 1.5-.63 2.61-.63.6 0 1.02.075 1.26.225s.36.435.36.855c0 .48-.225 1.56-.675 3.24-.3 1.2-.54 2.25-.72 3.15s-.33 2.01-.45 3.33c.99-2.58 2.1-4.68 3.33-6.3s2.43-2.775 3.6-3.465 2.235-1.035 3.195-1.035c.87 0 1.53.255 1.98.765.48.48.72 1.2.72 2.16 0 .57-.165 1.65-.495 3.24z"/></g></svg>