<svg width="63" height="41" viewBox="0 0 63 41" fill="none" xmlns="http://www.w3.org/2000/svg">
<path fill-rule="evenodd" clip-rule="evenodd" d="M32.366 0.00204468V40.002H50.23C51.97 40.002 53.362 39.886 54.406 39.654C55.45 39.422 56.3973 39.074 57.248 38.61C58.9493 37.6434 60.3026 36.3287 61.308 34.666C62.352 32.9647 62.874 31.1087 62.874 29.098C62.874 26.8167 62.1586 24.7674 60.728 22.95C59.2973 21.1327 57.538 19.8567 55.45 19.122C57.19 18.194 58.5626 16.9374 59.568 15.352C60.5733 13.728 61.076 11.9687 61.076 10.074C61.076 8.06338 60.5733 6.24604 59.568 4.62204C58.6013 2.99804 57.2093 1.72204 55.392 0.794041C54.7333 0.456284 53.9751 0.192285 53.1174 0.00204468H32.366Z" fill="white"/>
<path fill-rule="evenodd" clip-rule="evenodd" d="M0 0.00204468V40H2V0.00204468H0Z" fill="white"/>
<path d="M33.9791 1.18671L18.1109 22.7133L16.501 21.5265L32.3692 0L33.9791 1.18671Z" fill="white"/>
<path fill-rule="evenodd" clip-rule="evenodd" d="M1.82375 0.00204468L0.393799 1.27597L17.7762 23.1448L18.1023 22.7037L17.9282 22.5439L19.0028 21.3733L2.01587 0.00204468H1.82375Z" fill="white"/>
</svg>
